%TF.GenerationSoftware,Altium Limited,Altium Designer,21.6.4 (81)*%
G04 Layer_Color=65535*
%FSLAX43Y43*%
%MOMM*%
%TF.SameCoordinates,6460C9BA-4ACB-47D4-91E6-0B69D92CFE26*%
%TF.FilePolarity,Positive*%
%TF.FileFunction,Legend,Top*%
%TF.Part,Single*%
G01*
G75*
%TA.AperFunction,NonConductor*%
%ADD41C,0.200*%
%ADD42C,0.254*%
%ADD44C,0.250*%
%ADD45C,0.600*%
%ADD46C,0.508*%
%ADD47C,0.400*%
D41*
X51175Y21875D02*
Y22125D01*
X49825Y21875D02*
Y22125D01*
X56800Y77977D02*
Y78123D01*
X58050Y77977D02*
Y78123D01*
X47950Y64575D02*
X49700D01*
X47950Y66175D02*
X49700D01*
X77525Y43275D02*
Y45025D01*
X75925Y43275D02*
Y45025D01*
X65375Y63550D02*
X65625D01*
X65375Y64950D02*
X65625D01*
X79825Y60595D02*
Y65395D01*
X68625Y60595D02*
X79825D01*
X68625D02*
Y65395D01*
X79825D01*
X87775Y64565D02*
X96050D01*
X87775Y61385D02*
X96050D01*
X87775Y64565D02*
Y65685D01*
Y60265D02*
Y61385D01*
X96050D02*
Y64565D01*
X84400Y60265D02*
X87775D01*
X84400D02*
Y65685D01*
X87775D01*
X87550Y54130D02*
X95825D01*
X87550Y45870D02*
X95825D01*
X87550Y54130D02*
Y55250D01*
Y44750D02*
Y45870D01*
X95825D02*
Y54130D01*
X84175Y44750D02*
X87550D01*
X84175D02*
Y55250D01*
X87550D01*
X87875Y78905D02*
X96150D01*
X87875Y70645D02*
X96150D01*
X87875Y78905D02*
Y80025D01*
Y69525D02*
Y70645D01*
X96150D02*
Y78905D01*
X84500Y69525D02*
X87875D01*
X84500D02*
Y80025D01*
X87875D01*
X59250Y72300D02*
Y75400D01*
X60050D01*
X59250Y72300D02*
X60050D01*
Y75400D01*
X16977Y43675D02*
X17123D01*
X16977Y44925D02*
X17123D01*
X16977Y46400D02*
X17122D01*
X16977Y47650D02*
X17122D01*
X16952Y49100D02*
X17098D01*
X16952Y50350D02*
X17098D01*
X16877Y60250D02*
X17023D01*
X16877Y59000D02*
X17023D01*
X16827Y54550D02*
X16973D01*
X16827Y53300D02*
X16973D01*
X16827Y57400D02*
X16973D01*
X16827Y56150D02*
X16973D01*
X65475Y50635D02*
Y55635D01*
X62275Y50635D02*
Y55635D01*
Y50635D02*
X65475D01*
X62275Y55635D02*
X65475D01*
X67975Y44965D02*
X74225D01*
X67975Y33115D02*
Y34080D01*
Y36380D02*
Y36620D01*
Y38920D02*
Y39160D01*
Y41460D02*
Y41700D01*
Y44000D02*
Y44965D01*
Y33115D02*
X74225D01*
Y44965D01*
X47178Y20347D02*
Y23653D01*
X44822Y20347D02*
Y23653D01*
X23822Y2347D02*
Y5653D01*
X26178Y2347D02*
Y5653D01*
X16350Y7100D02*
X21650D01*
X15900Y2800D02*
Y5200D01*
X22100Y2800D02*
Y5200D01*
X16350Y900D02*
X21650D01*
X26178Y20347D02*
Y23653D01*
X23822Y20347D02*
Y23653D01*
X31875Y22200D02*
X32125D01*
X31875Y23600D02*
X32125D01*
X27875Y23575D02*
X28125D01*
X27875Y22175D02*
X28125D01*
X56178Y20347D02*
Y23653D01*
X53822Y20347D02*
Y23653D01*
X27875Y3850D02*
X28125D01*
X27875Y2450D02*
X28125D01*
X31875Y2400D02*
X32125D01*
X31875Y3800D02*
X32125D01*
X44822Y2347D02*
Y5653D01*
X47178Y2347D02*
Y5653D01*
X53822Y2347D02*
Y5653D01*
X56178Y2347D02*
Y5653D01*
X77178Y20347D02*
Y23653D01*
X74822Y20347D02*
Y23653D01*
X72875Y22600D02*
X73125D01*
X72875Y24000D02*
X73125D01*
X68875Y23950D02*
X69125D01*
X68875Y22550D02*
X69125D01*
X74822Y2347D02*
Y5653D01*
X77178Y2347D02*
Y5653D01*
X72875Y2400D02*
X73125D01*
X72875Y3800D02*
X73125D01*
X68875Y3750D02*
X69125D01*
X68875Y2350D02*
X69125D01*
X55571Y46547D02*
X58877D01*
X55571Y48903D02*
X58877D01*
X68697D02*
X72003D01*
X68697Y46547D02*
X72003D01*
X49900Y26275D02*
Y26525D01*
X51300Y26275D02*
Y26525D01*
X82071Y42503D02*
X85377D01*
X82071Y40147D02*
X85377D01*
X57500Y51377D02*
Y51523D01*
X58750Y51377D02*
Y51523D01*
X54750Y51377D02*
Y51523D01*
X56000Y51377D02*
Y51523D01*
X89175Y34900D02*
Y35625D01*
X81575Y34900D02*
Y35625D01*
X89175Y38775D02*
Y39500D01*
X81575Y38775D02*
Y39500D01*
Y34900D02*
X89175D01*
X81575Y39500D02*
X89175D01*
X52625Y78027D02*
Y78173D01*
X53875Y78027D02*
Y78173D01*
X60925Y77977D02*
Y78123D01*
X59675Y77977D02*
Y78123D01*
X55075Y72300D02*
Y75400D01*
X55875D01*
X55075Y72300D02*
X55875D01*
Y75400D01*
X12297Y70422D02*
X15603D01*
X12297Y72778D02*
X15603D01*
X42497Y86228D02*
X45803D01*
X42497Y83872D02*
X45803D01*
X41872Y71203D02*
X45178D01*
X41872Y68847D02*
X45178D01*
X12250Y15927D02*
Y16073D01*
X11000Y15927D02*
Y16073D01*
X6800Y15927D02*
Y16073D01*
X5550Y15927D02*
Y16073D01*
X9525Y15927D02*
Y16073D01*
X8275Y15927D02*
Y16073D01*
X31025Y15927D02*
Y16073D01*
X29775Y15927D02*
Y16073D01*
X33750Y15927D02*
Y16073D01*
X32500Y15927D02*
Y16073D01*
X28275Y15927D02*
Y16073D01*
X27025Y15927D02*
Y16073D01*
X32175Y85250D02*
X37825D01*
X32175Y74750D02*
X37825D01*
X39875Y93700D02*
X40125D01*
X39875Y92300D02*
X40125D01*
X81875Y93700D02*
X82125D01*
X81875Y92300D02*
X82125D01*
X71375Y93700D02*
X71625D01*
X71375Y92300D02*
X71625D01*
X60875Y93700D02*
X61125D01*
X60875Y92300D02*
X61125D01*
X18875Y93700D02*
X19125D01*
X18875Y92300D02*
X19125D01*
X29375Y93700D02*
X29625D01*
X29375Y92300D02*
X29625D01*
X50375Y93700D02*
X50625D01*
X50375Y92300D02*
X50625D01*
X32175Y70250D02*
X37825D01*
X32175Y59750D02*
X37825D01*
X79350Y900D02*
X84650D01*
X85100Y2800D02*
Y5200D01*
X78900Y2800D02*
Y5200D01*
X79350Y7100D02*
X84650D01*
X37350Y900D02*
X42650D01*
X43100Y2800D02*
Y5200D01*
X36900Y2800D02*
Y5200D01*
X37350Y7100D02*
X42650D01*
X58350Y900D02*
X63650D01*
X64100Y2800D02*
Y5200D01*
X57900Y2800D02*
Y5200D01*
X58350Y7100D02*
X63650D01*
X79350Y25100D02*
X84650D01*
X78900Y20800D02*
Y23200D01*
X85100Y20800D02*
Y23200D01*
X79350Y18900D02*
X84650D01*
X58350Y25100D02*
X63650D01*
X57900Y20800D02*
Y23200D01*
X64100Y20800D02*
Y23200D01*
X58350Y18900D02*
X63650D01*
X37350Y25100D02*
X42650D01*
X36900Y20800D02*
Y23200D01*
X43100Y20800D02*
Y23200D01*
X37350Y18900D02*
X42650D01*
X16350Y25100D02*
X21650D01*
X15900Y20800D02*
Y23200D01*
X22100Y20800D02*
Y23200D01*
X16350Y18900D02*
X21650D01*
X39875Y95675D02*
X40125D01*
X39875Y94325D02*
X40125D01*
X18875Y95675D02*
X19125D01*
X18875Y94325D02*
X19125D01*
X81875Y95675D02*
X82125D01*
X81875Y94325D02*
X82125D01*
X50375Y95675D02*
X50625D01*
X50375Y94325D02*
X50625D01*
X60875Y95675D02*
X61125D01*
X60875Y94325D02*
X61125D01*
X29375Y95675D02*
X29625D01*
X29375Y94325D02*
X29625D01*
X71375Y95675D02*
X71625D01*
X71375Y94325D02*
X71625D01*
D42*
X11757Y79431D02*
Y81971D01*
X14297Y79431D02*
Y81971D01*
X11757D02*
X14297D01*
X11757Y79431D02*
X14297D01*
X11757Y81971D02*
Y84511D01*
X14297Y81971D02*
Y84511D01*
X11757D02*
X14297D01*
X11757Y81971D02*
X14297D01*
X11757Y74351D02*
Y76891D01*
X14297Y74351D02*
Y76891D01*
X11757D02*
X14297D01*
X11757Y74351D02*
X14297D01*
X11757Y76891D02*
Y79431D01*
X14297Y76891D02*
Y79431D01*
X11757D02*
X14297D01*
X11757Y76891D02*
X14297D01*
X15948Y78796D02*
X15694Y79050D01*
X15186D01*
X14932Y78796D01*
Y78542D01*
X15186Y78288D01*
X15694D01*
X15948Y78034D01*
Y77780D01*
X15694Y77526D01*
X15186D01*
X14932Y77780D01*
X16456Y79050D02*
Y77526D01*
X17217D01*
X17471Y77780D01*
Y78796D01*
X17217Y79050D01*
X16456D01*
X17979Y77526D02*
Y78542D01*
X18487Y79050D01*
X18995Y78542D01*
Y77526D01*
Y78288D01*
X17979D01*
X15059Y81463D02*
Y80447D01*
X15567Y79939D01*
X16075Y80447D01*
Y81463D01*
X17598Y81209D02*
X17344Y81463D01*
X16836D01*
X16583Y81209D01*
Y80193D01*
X16836Y79939D01*
X17344D01*
X17598Y80193D01*
X19122Y81209D02*
X18868Y81463D01*
X18360D01*
X18106Y81209D01*
Y80193D01*
X18360Y79939D01*
X18868D01*
X19122Y80193D01*
X16075Y83749D02*
X15821Y84003D01*
X15313D01*
X15059Y83749D01*
Y82733D01*
X15313Y82479D01*
X15821D01*
X16075Y82733D01*
Y83241D01*
X15567D01*
X16583Y82479D02*
Y84003D01*
X17598Y82479D01*
Y84003D01*
X18106D02*
Y82479D01*
X18868D01*
X19122Y82733D01*
Y83749D01*
X18868Y84003D01*
X18106D01*
X16075Y76256D02*
X15821Y76510D01*
X15313D01*
X15059Y76256D01*
Y76002D01*
X15313Y75748D01*
X15821D01*
X16075Y75494D01*
Y75240D01*
X15821Y74986D01*
X15313D01*
X15059Y75240D01*
X17598Y76256D02*
X17344Y76510D01*
X16836D01*
X16583Y76256D01*
Y75240D01*
X16836Y74986D01*
X17344D01*
X17598Y75240D01*
X18106Y76510D02*
Y74986D01*
X19122D01*
X91104Y66920D02*
X91437D01*
X91271D01*
Y65921D01*
X91104D01*
X91437D01*
X91937D02*
Y66920D01*
X92604Y65921D01*
Y66920D01*
X92937D02*
X93603D01*
X93270D01*
Y65921D01*
X93936Y65754D02*
X94603D01*
X95603Y66754D02*
X95436Y66920D01*
X95103D01*
X94936Y66754D01*
Y66087D01*
X95103Y65921D01*
X95436D01*
X95603Y66087D01*
X91279Y59970D02*
X91612D01*
X91446D01*
Y58971D01*
X91279D01*
X91612D01*
X92112D02*
Y59970D01*
X92779Y58971D01*
Y59970D01*
X93112D02*
X93778D01*
X93445D01*
Y58971D01*
X94111Y58804D02*
X94778D01*
X95778Y59970D02*
X95111D01*
Y58971D01*
X95778D01*
X95111Y59470D02*
X95444D01*
X80837Y81980D02*
X81004Y82146D01*
Y82479D01*
X80837Y82646D01*
X80171D01*
X80004Y82479D01*
Y82146D01*
X80171Y81980D01*
X80504D01*
Y82313D01*
X80004Y81646D02*
X81004D01*
X80004Y80980D01*
X81004D01*
Y80647D02*
X80004D01*
Y80147D01*
X80171Y79980D01*
X80837D01*
X81004Y80147D01*
Y80647D01*
X80837Y77981D02*
X81004Y78147D01*
Y78481D01*
X80837Y78647D01*
X80670D01*
X80504Y78481D01*
Y78147D01*
X80337Y77981D01*
X80171D01*
X80004Y78147D01*
Y78481D01*
X80171Y78647D01*
X80837Y76981D02*
X81004Y77148D01*
Y77481D01*
X80837Y77648D01*
X80171D01*
X80004Y77481D01*
Y77148D01*
X80171Y76981D01*
X81004Y76648D02*
X80004D01*
Y75981D01*
X80837Y73982D02*
X81004Y74149D01*
Y74482D01*
X80837Y74649D01*
X80670D01*
X80504Y74482D01*
Y74149D01*
X80337Y73982D01*
X80171D01*
X80004Y74149D01*
Y74482D01*
X80171Y74649D01*
X81004Y73649D02*
X80004D01*
Y73149D01*
X80171Y72982D01*
X80837D01*
X81004Y73149D01*
Y73649D01*
X80004Y72649D02*
X80670D01*
X81004Y72316D01*
X80670Y71983D01*
X80004D01*
X80504D01*
Y72649D01*
X81004Y68984D02*
Y69650D01*
X80504D01*
X80670Y69317D01*
Y69150D01*
X80504Y68984D01*
X80171D01*
X80004Y69150D01*
Y69484D01*
X80171Y69650D01*
X81004Y68651D02*
X80337D01*
X80004Y68317D01*
X80337Y67984D01*
X81004D01*
X80437Y56030D02*
X80604Y56196D01*
Y56529D01*
X80437Y56696D01*
X79771D01*
X79604Y56529D01*
Y56196D01*
X79771Y56030D01*
X80104D01*
Y56363D01*
X79604Y55696D02*
X80604D01*
X79604Y55030D01*
X80604D01*
Y54697D02*
X79604D01*
Y54197D01*
X79771Y54030D01*
X80437D01*
X80604Y54197D01*
Y54697D01*
X80437Y52031D02*
X80604Y52197D01*
Y52531D01*
X80437Y52697D01*
X80270D01*
X80104Y52531D01*
Y52197D01*
X79937Y52031D01*
X79771D01*
X79604Y52197D01*
Y52531D01*
X79771Y52697D01*
X80437Y51031D02*
X80604Y51198D01*
Y51531D01*
X80437Y51698D01*
X79771D01*
X79604Y51531D01*
Y51198D01*
X79771Y51031D01*
X80604Y50698D02*
X79604D01*
Y50031D01*
X80437Y48032D02*
X80604Y48199D01*
Y48532D01*
X80437Y48699D01*
X80270D01*
X80104Y48532D01*
Y48199D01*
X79937Y48032D01*
X79771D01*
X79604Y48199D01*
Y48532D01*
X79771Y48699D01*
X80604Y47699D02*
X79604D01*
Y47199D01*
X79771Y47032D01*
X80437D01*
X80604Y47199D01*
Y47699D01*
X79604Y46699D02*
X80270D01*
X80604Y46366D01*
X80270Y46033D01*
X79604D01*
X80104D01*
Y46699D01*
X80604Y44033D02*
Y44700D01*
X80104D01*
X80270Y44367D01*
Y44200D01*
X80104Y44033D01*
X79771D01*
X79604Y44200D01*
Y44533D01*
X79771Y44700D01*
X80604Y43700D02*
X79937D01*
X79604Y43367D01*
X79937Y43034D01*
X80604D01*
X5229Y11921D02*
Y12587D01*
X5562Y12920D01*
X5895Y12587D01*
Y11921D01*
Y12420D01*
X5229D01*
X6229Y12754D02*
X6395Y12920D01*
X6729D01*
X6895Y12754D01*
Y12087D01*
X6729Y11921D01*
X6395D01*
X6229Y12087D01*
Y12754D01*
X7228Y11754D02*
X7895D01*
X8228Y11921D02*
Y12587D01*
X8561Y12920D01*
X8894Y12587D01*
Y11921D01*
Y12420D01*
X8228D01*
X9228Y11921D02*
X9561D01*
X9394D01*
Y12920D01*
X9228Y12754D01*
X10061Y11754D02*
X10727D01*
X11060Y11921D02*
Y12587D01*
X11394Y12920D01*
X11727Y12587D01*
Y11921D01*
Y12420D01*
X11060D01*
X12727Y11921D02*
X12060D01*
X12727Y12587D01*
Y12754D01*
X12560Y12920D01*
X12227D01*
X12060Y12754D01*
X3779Y10920D02*
Y9921D01*
X4445D01*
X5445Y10920D02*
X4779D01*
Y9921D01*
X5445D01*
X4779Y10420D02*
X5112D01*
X5778Y10920D02*
Y9921D01*
X6278D01*
X6445Y10087D01*
Y10754D01*
X6278Y10920D01*
X5778D01*
X6778Y9754D02*
X7444D01*
X7778Y9921D02*
Y10587D01*
X8111Y10920D01*
X8444Y10587D01*
Y9921D01*
Y10420D01*
X7778D01*
X8777Y10920D02*
Y9921D01*
X9277D01*
X9444Y10087D01*
Y10754D01*
X9277Y10920D01*
X8777D01*
X9777D02*
Y9921D01*
X10277D01*
X10444Y10087D01*
Y10754D01*
X10277Y10920D01*
X9777D01*
X10777Y9921D02*
Y10920D01*
X11277D01*
X11443Y10754D01*
Y10420D01*
X11277Y10254D01*
X10777D01*
X11110D02*
X11443Y9921D01*
X12443Y10920D02*
X11776D01*
Y9921D01*
X12443D01*
X11776Y10420D02*
X12110D01*
X13443Y10754D02*
X13276Y10920D01*
X12943D01*
X12776Y10754D01*
Y10587D01*
X12943Y10420D01*
X13276D01*
X13443Y10254D01*
Y10087D01*
X13276Y9921D01*
X12943D01*
X12776Y10087D01*
X14442Y10754D02*
X14276Y10920D01*
X13942D01*
X13776Y10754D01*
Y10587D01*
X13942Y10420D01*
X14276D01*
X14442Y10254D01*
Y10087D01*
X14276Y9921D01*
X13942D01*
X13776Y10087D01*
X25504Y10920D02*
Y9921D01*
X26004D01*
X26170Y10087D01*
Y10254D01*
X26004Y10420D01*
X25504D01*
X26004D01*
X26170Y10587D01*
Y10754D01*
X26004Y10920D01*
X25504D01*
X26504D02*
X27170D01*
X26837D01*
Y9921D01*
X27503D02*
Y10920D01*
X28170Y9921D01*
Y10920D01*
X28503Y9754D02*
X29169D01*
X29503Y9921D02*
Y10587D01*
X29836Y10920D01*
X30169Y10587D01*
Y9921D01*
Y10420D01*
X29503D01*
X30502Y10920D02*
Y9921D01*
X31002D01*
X31169Y10087D01*
Y10754D01*
X31002Y10920D01*
X30502D01*
X31502D02*
Y9921D01*
X32002D01*
X32169Y10087D01*
Y10754D01*
X32002Y10920D01*
X31502D01*
X32502Y9921D02*
Y10920D01*
X33002D01*
X33168Y10754D01*
Y10420D01*
X33002Y10254D01*
X32502D01*
X32835D02*
X33168Y9921D01*
X34168Y10920D02*
X33501D01*
Y9921D01*
X34168D01*
X33501Y10420D02*
X33835D01*
X35168Y10754D02*
X35001Y10920D01*
X34668D01*
X34501Y10754D01*
Y10587D01*
X34668Y10420D01*
X35001D01*
X35168Y10254D01*
Y10087D01*
X35001Y9921D01*
X34668D01*
X34501Y10087D01*
X36167Y10754D02*
X36001Y10920D01*
X35667D01*
X35501Y10754D01*
Y10587D01*
X35667Y10420D01*
X36001D01*
X36167Y10254D01*
Y10087D01*
X36001Y9921D01*
X35667D01*
X35501Y10087D01*
X26729Y11921D02*
Y12587D01*
X27062Y12920D01*
X27395Y12587D01*
Y11921D01*
Y12420D01*
X26729D01*
X27729Y12754D02*
X27895Y12920D01*
X28229D01*
X28395Y12754D01*
Y12087D01*
X28229Y11921D01*
X27895D01*
X27729Y12087D01*
Y12754D01*
X28728Y11754D02*
X29395D01*
X29728Y11921D02*
Y12587D01*
X30061Y12920D01*
X30394Y12587D01*
Y11921D01*
Y12420D01*
X29728D01*
X30728Y11921D02*
X31061D01*
X30894D01*
Y12920D01*
X30728Y12754D01*
X31561Y11754D02*
X32227D01*
X32560Y11921D02*
Y12587D01*
X32894Y12920D01*
X33227Y12587D01*
Y11921D01*
Y12420D01*
X32560D01*
X34227Y11921D02*
X33560D01*
X34227Y12587D01*
Y12754D01*
X34060Y12920D01*
X33727D01*
X33560Y12754D01*
X65532Y97548D02*
X66065D01*
X65799D01*
Y96749D01*
X66332D02*
Y97548D01*
X66732D01*
X66865Y97415D01*
Y97148D01*
X66732Y97015D01*
X66332D01*
X67531Y96749D02*
Y97548D01*
X67131Y97148D01*
X67665D01*
X58000Y81000D02*
X57200D01*
Y81400D01*
X57333Y81533D01*
X57600D01*
X57733Y81400D01*
Y81000D01*
Y81267D02*
X58000Y81533D01*
Y81800D02*
Y82067D01*
Y81933D01*
X57200D01*
X57333Y81800D01*
X57867Y82467D02*
X58000Y82600D01*
Y82866D01*
X57867Y83000D01*
X57333D01*
X57200Y82866D01*
Y82600D01*
X57333Y82467D01*
X57467D01*
X57600Y82600D01*
Y83000D01*
X75768Y48399D02*
Y47600D01*
X76168D01*
X76301Y47733D01*
Y48266D01*
X76168Y48399D01*
X75768D01*
X76568Y47600D02*
X76835D01*
X76701D01*
Y48399D01*
X76568Y48266D01*
X77234D02*
X77368Y48399D01*
X77634D01*
X77768Y48266D01*
Y47733D01*
X77634Y47600D01*
X77368D01*
X77234Y47733D01*
Y48266D01*
X48059Y67900D02*
Y67100D01*
X48458D01*
X48592Y67233D01*
Y67767D01*
X48458Y67900D01*
X48059D01*
X48858Y67233D02*
X48992Y67100D01*
X49258D01*
X49391Y67233D01*
Y67767D01*
X49258Y67900D01*
X48992D01*
X48858Y67767D01*
Y67633D01*
X48992Y67500D01*
X49391D01*
X1473Y92617D02*
Y91618D01*
X2140D01*
X3139Y92451D02*
X2973Y92617D01*
X2639D01*
X2473Y92451D01*
Y91784D01*
X2639Y91618D01*
X2973D01*
X3139Y91784D01*
X3473Y92617D02*
Y91618D01*
X3972D01*
X4139Y91784D01*
Y92451D01*
X3972Y92617D01*
X3473D01*
X4472Y91618D02*
X4805D01*
X4639D01*
Y92617D01*
X4472Y92451D01*
X82042Y66675D02*
Y67475D01*
X82442D01*
X82575Y67341D01*
Y67075D01*
X82442Y66942D01*
X82042D01*
X82842Y67341D02*
X82975Y67475D01*
X83242D01*
X83375Y67341D01*
Y67208D01*
X83242Y67075D01*
X83108D01*
X83242D01*
X83375Y66942D01*
Y66808D01*
X83242Y66675D01*
X82975D01*
X82842Y66808D01*
X68783Y67068D02*
Y66269D01*
X69183D01*
X69316Y66402D01*
Y66935D01*
X69183Y67068D01*
X68783D01*
X69583Y66269D02*
Y66802D01*
X69850Y67068D01*
X70116Y66802D01*
Y66269D01*
Y66668D01*
X69583D01*
X70383Y66269D02*
X70649D01*
X70516D01*
Y67068D01*
X70383Y66935D01*
X19484Y53500D02*
Y54300D01*
X19884D01*
X20017Y54167D01*
Y53900D01*
X19884Y53767D01*
X19484D01*
X19750D02*
X20017Y53500D01*
X20283Y54167D02*
X20417Y54300D01*
X20683D01*
X20817Y54167D01*
Y54033D01*
X20683Y53900D01*
X20550D01*
X20683D01*
X20817Y53767D01*
Y53633D01*
X20683Y53500D01*
X20417D01*
X20283Y53633D01*
X21616Y54300D02*
X21083D01*
Y53900D01*
X21350Y54033D01*
X21483D01*
X21616Y53900D01*
Y53633D01*
X21483Y53500D01*
X21216D01*
X21083Y53633D01*
X19509Y56425D02*
Y57225D01*
X19909D01*
X20042Y57092D01*
Y56825D01*
X19909Y56692D01*
X19509D01*
X19775D02*
X20042Y56425D01*
X20308Y57092D02*
X20442Y57225D01*
X20708D01*
X20842Y57092D01*
Y56958D01*
X20708Y56825D01*
X20575D01*
X20708D01*
X20842Y56692D01*
Y56558D01*
X20708Y56425D01*
X20442D01*
X20308Y56558D01*
X21508Y56425D02*
Y57225D01*
X21108Y56825D01*
X21641D01*
X19459Y59250D02*
Y60050D01*
X19859D01*
X19992Y59917D01*
Y59650D01*
X19859Y59517D01*
X19459D01*
X19725D02*
X19992Y59250D01*
X20258Y59917D02*
X20392Y60050D01*
X20658D01*
X20792Y59917D01*
Y59783D01*
X20658Y59650D01*
X20525D01*
X20658D01*
X20792Y59517D01*
Y59383D01*
X20658Y59250D01*
X20392D01*
X20258Y59383D01*
X21058Y59917D02*
X21191Y60050D01*
X21458D01*
X21591Y59917D01*
Y59783D01*
X21458Y59650D01*
X21325D01*
X21458D01*
X21591Y59517D01*
Y59383D01*
X21458Y59250D01*
X21191D01*
X21058Y59383D01*
X19784Y43725D02*
Y44525D01*
X20184D01*
X20317Y44392D01*
Y44125D01*
X20184Y43992D01*
X19784D01*
X20050D02*
X20317Y43725D01*
X20583Y44392D02*
X20717Y44525D01*
X20983D01*
X21117Y44392D01*
Y44258D01*
X20983Y44125D01*
X20850D01*
X20983D01*
X21117Y43992D01*
Y43858D01*
X20983Y43725D01*
X20717D01*
X20583Y43858D01*
X21916Y43725D02*
X21383D01*
X21916Y44258D01*
Y44392D01*
X21783Y44525D01*
X21516D01*
X21383Y44392D01*
X19917Y46600D02*
Y47400D01*
X20317D01*
X20450Y47267D01*
Y47000D01*
X20317Y46867D01*
X19917D01*
X20184D02*
X20450Y46600D01*
X20717Y47267D02*
X20850Y47400D01*
X21117D01*
X21250Y47267D01*
Y47133D01*
X21117Y47000D01*
X20983D01*
X21117D01*
X21250Y46867D01*
Y46733D01*
X21117Y46600D01*
X20850D01*
X20717Y46733D01*
X21516Y46600D02*
X21783D01*
X21650D01*
Y47400D01*
X21516Y47267D01*
X19759Y49300D02*
Y50100D01*
X20159D01*
X20292Y49967D01*
Y49700D01*
X20159Y49567D01*
X19759D01*
X20025D02*
X20292Y49300D01*
X20558Y49967D02*
X20692Y50100D01*
X20958D01*
X21092Y49967D01*
Y49833D01*
X20958Y49700D01*
X20825D01*
X20958D01*
X21092Y49567D01*
Y49433D01*
X20958Y49300D01*
X20692D01*
X20558Y49433D01*
X21358Y49967D02*
X21491Y50100D01*
X21758D01*
X21891Y49967D01*
Y49433D01*
X21758Y49300D01*
X21491D01*
X21358Y49433D01*
Y49967D01*
X66059Y39150D02*
Y38483D01*
X66192Y38350D01*
X66458D01*
X66592Y38483D01*
Y39150D01*
X67258Y38350D02*
Y39150D01*
X66858Y38750D01*
X67391D01*
X56708Y45767D02*
X56575Y45900D01*
X56309D01*
X56175Y45767D01*
Y45233D01*
X56309Y45100D01*
X56575D01*
X56708Y45233D01*
X56975Y45100D02*
X57242D01*
X57108D01*
Y45900D01*
X56975Y45767D01*
X57642D02*
X57775Y45900D01*
X58041D01*
X58175Y45767D01*
Y45633D01*
X58041Y45500D01*
X58175Y45367D01*
Y45233D01*
X58041Y45100D01*
X57775D01*
X57642Y45233D01*
Y45367D01*
X57775Y45500D01*
X57642Y45633D01*
Y45767D01*
X57775Y45500D02*
X58041D01*
X66534Y47992D02*
X66401Y48125D01*
X66134D01*
X66001Y47992D01*
Y47458D01*
X66134Y47325D01*
X66401D01*
X66534Y47458D01*
X66801Y47325D02*
X67067D01*
X66934D01*
Y48125D01*
X66801Y47992D01*
X67467Y48125D02*
X68000D01*
Y47992D01*
X67467Y47458D01*
Y47325D01*
X9450Y18683D02*
X8650D01*
Y19083D01*
X8783Y19216D01*
X9050D01*
X9183Y19083D01*
Y18683D01*
Y18949D02*
X9450Y19216D01*
Y20016D02*
Y19482D01*
X8917Y20016D01*
X8783D01*
X8650Y19882D01*
Y19616D01*
X8783Y19482D01*
X9317Y20282D02*
X9450Y20415D01*
Y20682D01*
X9317Y20815D01*
X8783D01*
X8650Y20682D01*
Y20415D01*
X8783Y20282D01*
X8917D01*
X9050Y20415D01*
Y20815D01*
X6625Y18659D02*
X5825D01*
Y19059D01*
X5958Y19192D01*
X6225D01*
X6358Y19059D01*
Y18659D01*
Y18925D02*
X6625Y19192D01*
Y19992D02*
Y19458D01*
X6092Y19992D01*
X5958D01*
X5825Y19858D01*
Y19592D01*
X5958Y19458D01*
Y20258D02*
X5825Y20391D01*
Y20658D01*
X5958Y20791D01*
X6092D01*
X6225Y20658D01*
X6358Y20791D01*
X6492D01*
X6625Y20658D01*
Y20391D01*
X6492Y20258D01*
X6358D01*
X6225Y20391D01*
X6092Y20258D01*
X5958D01*
X6225Y20391D02*
Y20658D01*
X12100Y18634D02*
X11300D01*
Y19034D01*
X11433Y19167D01*
X11700D01*
X11833Y19034D01*
Y18634D01*
Y18900D02*
X12100Y19167D01*
Y19967D02*
Y19433D01*
X11567Y19967D01*
X11433D01*
X11300Y19833D01*
Y19567D01*
X11433Y19433D01*
X11300Y20233D02*
Y20766D01*
X11433D01*
X11967Y20233D01*
X12100D01*
X30750Y19134D02*
X29950D01*
Y19534D01*
X30083Y19667D01*
X30350D01*
X30483Y19534D01*
Y19134D01*
Y19400D02*
X30750Y19667D01*
Y20467D02*
Y19933D01*
X30217Y20467D01*
X30083D01*
X29950Y20333D01*
Y20067D01*
X30083Y19933D01*
X29950Y21266D02*
X30083Y21000D01*
X30350Y20733D01*
X30617D01*
X30750Y20866D01*
Y21133D01*
X30617Y21266D01*
X30483D01*
X30350Y21133D01*
Y20733D01*
X28075Y19059D02*
X27275D01*
Y19459D01*
X27408Y19592D01*
X27675D01*
X27808Y19459D01*
Y19059D01*
Y19325D02*
X28075Y19592D01*
Y20392D02*
Y19858D01*
X27542Y20392D01*
X27408D01*
X27275Y20258D01*
Y19992D01*
X27408Y19858D01*
X27275Y21191D02*
Y20658D01*
X27675D01*
X27542Y20925D01*
Y21058D01*
X27675Y21191D01*
X27942D01*
X28075Y21058D01*
Y20791D01*
X27942Y20658D01*
X33600Y19159D02*
X32800D01*
Y19559D01*
X32933Y19692D01*
X33200D01*
X33333Y19559D01*
Y19159D01*
Y19425D02*
X33600Y19692D01*
Y20492D02*
Y19958D01*
X33067Y20492D01*
X32933D01*
X32800Y20358D01*
Y20092D01*
X32933Y19958D01*
X33600Y21158D02*
X32800D01*
X33200Y20758D01*
Y21291D01*
X58484Y71375D02*
Y70842D01*
X58750Y70575D01*
X59017Y70842D01*
Y71375D01*
X59283D02*
X59817D01*
X59550D01*
Y70575D01*
X60616D02*
X60083D01*
X60616Y71108D01*
Y71242D01*
X60483Y71375D01*
X60216D01*
X60083Y71242D01*
X60401Y57467D02*
Y56801D01*
X60534Y56667D01*
X60801D01*
X60934Y56801D01*
Y57467D01*
X61201Y57334D02*
X61334Y57467D01*
X61601D01*
X61734Y57334D01*
Y57201D01*
X61601Y57067D01*
X61468D01*
X61601D01*
X61734Y56934D01*
Y56801D01*
X61601Y56667D01*
X61334D01*
X61201Y56801D01*
X29384Y87475D02*
Y86808D01*
X29517Y86675D01*
X29783D01*
X29917Y86808D01*
Y87475D01*
X30716Y86675D02*
X30183D01*
X30716Y87208D01*
Y87342D01*
X30583Y87475D01*
X30317D01*
X30183Y87342D01*
X29367Y72350D02*
Y71683D01*
X29500Y71550D01*
X29767D01*
X29900Y71683D01*
Y72350D01*
X30167Y71550D02*
X30433D01*
X30300D01*
Y72350D01*
X30167Y72217D01*
X77859Y92650D02*
Y93450D01*
X78259D01*
X78392Y93317D01*
Y93050D01*
X78259Y92917D01*
X77859D01*
X78125D02*
X78392Y92650D01*
X79192D02*
X78658D01*
X79192Y93183D01*
Y93317D01*
X79058Y93450D01*
X78792D01*
X78658Y93317D01*
X79458D02*
X79591Y93450D01*
X79858D01*
X79991Y93317D01*
Y92783D01*
X79858Y92650D01*
X79591D01*
X79458Y92783D01*
Y93317D01*
X67550Y92625D02*
Y93425D01*
X67950D01*
X68083Y93292D01*
Y93025D01*
X67950Y92892D01*
X67550D01*
X67817D02*
X68083Y92625D01*
X68350D02*
X68617D01*
X68483D01*
Y93425D01*
X68350Y93292D01*
X69550Y93425D02*
X69017D01*
Y93025D01*
X69283Y93158D01*
X69416D01*
X69550Y93025D01*
Y92758D01*
X69416Y92625D01*
X69150D01*
X69017Y92758D01*
X57025Y92550D02*
Y93350D01*
X57425D01*
X57558Y93217D01*
Y92950D01*
X57425Y92817D01*
X57025D01*
X57292D02*
X57558Y92550D01*
X57825D02*
X58092D01*
X57958D01*
Y93350D01*
X57825Y93217D01*
X58891Y92550D02*
Y93350D01*
X58492Y92950D01*
X59025D01*
X46550Y92575D02*
Y93375D01*
X46950D01*
X47083Y93242D01*
Y92975D01*
X46950Y92842D01*
X46550D01*
X46817D02*
X47083Y92575D01*
X47350D02*
X47617D01*
X47483D01*
Y93375D01*
X47350Y93242D01*
X48017D02*
X48150Y93375D01*
X48416D01*
X48550Y93242D01*
Y93108D01*
X48416Y92975D01*
X48283D01*
X48416D01*
X48550Y92842D01*
Y92708D01*
X48416Y92575D01*
X48150D01*
X48017Y92708D01*
X36100Y92625D02*
Y93425D01*
X36500D01*
X36633Y93292D01*
Y93025D01*
X36500Y92892D01*
X36100D01*
X36367D02*
X36633Y92625D01*
X36900D02*
X37167D01*
X37033D01*
Y93425D01*
X36900Y93292D01*
X38100Y92625D02*
X37567D01*
X38100Y93158D01*
Y93292D01*
X37966Y93425D01*
X37700D01*
X37567Y93292D01*
X25784Y92700D02*
Y93500D01*
X26183D01*
X26317Y93367D01*
Y93100D01*
X26183Y92967D01*
X25784D01*
X26050D02*
X26317Y92700D01*
X26583D02*
X26850D01*
X26717D01*
Y93500D01*
X26583Y93367D01*
X27250Y92700D02*
X27516D01*
X27383D01*
Y93500D01*
X27250Y93367D01*
X14975Y92625D02*
Y93425D01*
X15375D01*
X15508Y93292D01*
Y93025D01*
X15375Y92892D01*
X14975D01*
X15242D02*
X15508Y92625D01*
X15775D02*
X16042D01*
X15908D01*
Y93425D01*
X15775Y93292D01*
X16442D02*
X16575Y93425D01*
X16841D01*
X16975Y93292D01*
Y92758D01*
X16841Y92625D01*
X16575D01*
X16442Y92758D01*
Y93292D01*
X71603Y4775D02*
Y5575D01*
X72002D01*
X72136Y5442D01*
Y5175D01*
X72002Y5042D01*
X71603D01*
X71869D02*
X72136Y4775D01*
X72402Y4908D02*
X72536Y4775D01*
X72802D01*
X72936Y4908D01*
Y5442D01*
X72802Y5575D01*
X72536D01*
X72402Y5442D01*
Y5308D01*
X72536Y5175D01*
X72936D01*
X72459Y24575D02*
Y25375D01*
X72858D01*
X72992Y25242D01*
Y24975D01*
X72858Y24842D01*
X72459D01*
X72725D02*
X72992Y24575D01*
X73258Y25242D02*
X73392Y25375D01*
X73658D01*
X73791Y25242D01*
Y25108D01*
X73658Y24975D01*
X73791Y24842D01*
Y24708D01*
X73658Y24575D01*
X73392D01*
X73258Y24708D01*
Y24842D01*
X73392Y24975D01*
X73258Y25108D01*
Y25242D01*
X73392Y24975D02*
X73658D01*
X67615Y4724D02*
Y5524D01*
X68015D01*
X68148Y5391D01*
Y5124D01*
X68015Y4991D01*
X67615D01*
X67881D02*
X68148Y4724D01*
X68415Y5524D02*
X68948D01*
Y5391D01*
X68415Y4858D01*
Y4724D01*
X68259Y24550D02*
Y25350D01*
X68658D01*
X68792Y25217D01*
Y24950D01*
X68658Y24817D01*
X68259D01*
X68525D02*
X68792Y24550D01*
X69591Y25350D02*
X69325Y25217D01*
X69058Y24950D01*
Y24683D01*
X69192Y24550D01*
X69458D01*
X69591Y24683D01*
Y24817D01*
X69458Y24950D01*
X69058D01*
X30607Y4775D02*
Y5575D01*
X31007D01*
X31140Y5442D01*
Y5175D01*
X31007Y5042D01*
X30607D01*
X30874D02*
X31140Y4775D01*
X31940Y5575D02*
X31407D01*
Y5175D01*
X31673Y5308D01*
X31807D01*
X31940Y5175D01*
Y4908D01*
X31807Y4775D01*
X31540D01*
X31407Y4908D01*
X31384Y24050D02*
Y24850D01*
X31783D01*
X31917Y24717D01*
Y24450D01*
X31783Y24317D01*
X31384D01*
X31650D02*
X31917Y24050D01*
X32583D02*
Y24850D01*
X32183Y24450D01*
X32716D01*
X26594Y4826D02*
Y5626D01*
X26994D01*
X27127Y5492D01*
Y5226D01*
X26994Y5093D01*
X26594D01*
X26860D02*
X27127Y4826D01*
X27394Y5492D02*
X27527Y5626D01*
X27793D01*
X27927Y5492D01*
Y5359D01*
X27793Y5226D01*
X27660D01*
X27793D01*
X27927Y5093D01*
Y4959D01*
X27793Y4826D01*
X27527D01*
X27394Y4959D01*
X27409Y24225D02*
Y25025D01*
X27808D01*
X27942Y24892D01*
Y24625D01*
X27808Y24492D01*
X27409D01*
X27675D02*
X27942Y24225D01*
X28741D02*
X28208D01*
X28741Y24758D01*
Y24892D01*
X28608Y25025D01*
X28342D01*
X28208Y24892D01*
X48242Y27125D02*
Y27925D01*
X48642D01*
X48775Y27792D01*
Y27525D01*
X48642Y27392D01*
X48242D01*
X48508D02*
X48775Y27125D01*
X49042D02*
X49308D01*
X49175D01*
Y27925D01*
X49042Y27792D01*
X86933Y40758D02*
X86799Y40625D01*
Y40359D01*
X86933Y40225D01*
X87466D01*
X87599Y40359D01*
Y40625D01*
X87466Y40758D01*
X87599Y41025D02*
Y41292D01*
Y41158D01*
X86799D01*
X86933Y41025D01*
X86799Y42225D02*
X86933Y41958D01*
X87199Y41692D01*
X87466D01*
X87599Y41825D01*
Y42091D01*
X87466Y42225D01*
X87333D01*
X87199Y42091D01*
Y41692D01*
X90008Y36833D02*
X89875Y36700D01*
Y36434D01*
X90008Y36300D01*
X90542D01*
X90675Y36434D01*
Y36700D01*
X90542Y36833D01*
X90675Y37100D02*
Y37367D01*
Y37233D01*
X89875D01*
X90008Y37100D01*
X89875Y38300D02*
Y37767D01*
X90275D01*
X90142Y38033D01*
Y38166D01*
X90275Y38300D01*
X90542D01*
X90675Y38166D01*
Y37900D01*
X90542Y37767D01*
X47358Y85367D02*
X47225Y85500D01*
X46959D01*
X46825Y85367D01*
Y84833D01*
X46959Y84700D01*
X47225D01*
X47358Y84833D01*
X47625Y84700D02*
X47892D01*
X47758D01*
Y85500D01*
X47625Y85367D01*
X48825Y84700D02*
X48292D01*
X48825Y85233D01*
Y85367D01*
X48691Y85500D01*
X48425D01*
X48292Y85367D01*
X13483Y69467D02*
X13350Y69600D01*
X13084D01*
X12950Y69467D01*
Y68933D01*
X13084Y68800D01*
X13350D01*
X13483Y68933D01*
X13750Y68800D02*
X14017D01*
X13883D01*
Y69600D01*
X13750Y69467D01*
X14417D02*
X14550Y69600D01*
X14816D01*
X14950Y69467D01*
Y68933D01*
X14816Y68800D01*
X14550D01*
X14417Y68933D01*
Y69467D01*
X24642Y8042D02*
X24508Y8175D01*
X24242D01*
X24109Y8042D01*
Y7508D01*
X24242Y7375D01*
X24508D01*
X24642Y7508D01*
X24908D02*
X25042Y7375D01*
X25308D01*
X25441Y7508D01*
Y8042D01*
X25308Y8175D01*
X25042D01*
X24908Y8042D01*
Y7908D01*
X25042Y7775D01*
X25441D01*
X46329Y7677D02*
X46196Y7810D01*
X45929D01*
X45796Y7677D01*
Y7144D01*
X45929Y7010D01*
X46196D01*
X46329Y7144D01*
X46596Y7677D02*
X46729Y7810D01*
X46996D01*
X47129Y7677D01*
Y7544D01*
X46996Y7410D01*
X47129Y7277D01*
Y7144D01*
X46996Y7010D01*
X46729D01*
X46596Y7144D01*
Y7277D01*
X46729Y7410D01*
X46596Y7544D01*
Y7677D01*
X46729Y7410D02*
X46996D01*
X55321Y7677D02*
X55188Y7810D01*
X54921D01*
X54788Y7677D01*
Y7144D01*
X54921Y7010D01*
X55188D01*
X55321Y7144D01*
X55588Y7810D02*
X56121D01*
Y7677D01*
X55588Y7144D01*
Y7010D01*
X43067Y72592D02*
X42933Y72725D01*
X42667D01*
X42534Y72592D01*
Y72058D01*
X42667Y71925D01*
X42933D01*
X43067Y72058D01*
X43866Y72725D02*
X43600Y72592D01*
X43333Y72325D01*
Y72058D01*
X43467Y71925D01*
X43733D01*
X43866Y72058D01*
Y72192D01*
X43733Y72325D01*
X43333D01*
X75717Y7367D02*
X75583Y7500D01*
X75317D01*
X75184Y7367D01*
Y6833D01*
X75317Y6700D01*
X75583D01*
X75717Y6833D01*
X76516Y7500D02*
X75983D01*
Y7100D01*
X76250Y7233D01*
X76383D01*
X76516Y7100D01*
Y6833D01*
X76383Y6700D01*
X76117D01*
X75983Y6833D01*
X76067Y25367D02*
X75933Y25500D01*
X75667D01*
X75534Y25367D01*
Y24833D01*
X75667Y24700D01*
X75933D01*
X76067Y24833D01*
X76733Y24700D02*
Y25500D01*
X76333Y25100D01*
X76866D01*
X25067Y25467D02*
X24933Y25600D01*
X24667D01*
X24534Y25467D01*
Y24933D01*
X24667Y24800D01*
X24933D01*
X25067Y24933D01*
X25333Y25467D02*
X25467Y25600D01*
X25733D01*
X25866Y25467D01*
Y25333D01*
X25733Y25200D01*
X25600D01*
X25733D01*
X25866Y25067D01*
Y24933D01*
X25733Y24800D01*
X25467D01*
X25333Y24933D01*
X45817Y25367D02*
X45683Y25500D01*
X45417D01*
X45284Y25367D01*
Y24833D01*
X45417Y24700D01*
X45683D01*
X45817Y24833D01*
X46616Y24700D02*
X46083D01*
X46616Y25233D01*
Y25367D01*
X46483Y25500D01*
X46217D01*
X46083Y25367D01*
X55600Y25685D02*
X55467Y25819D01*
X55200D01*
X55067Y25685D01*
Y25152D01*
X55200Y25019D01*
X55467D01*
X55600Y25152D01*
X55867Y25019D02*
X56134D01*
X56000D01*
Y25819D01*
X55867Y25685D01*
X54567Y71425D02*
Y70892D01*
X54834Y70625D01*
X55100Y70892D01*
Y71425D01*
X55367D02*
X55900D01*
X55633D01*
Y70625D01*
X56166D02*
X56433D01*
X56300D01*
Y71425D01*
X56166Y71292D01*
X86409Y97675D02*
X86942D01*
X86675D01*
Y96875D01*
X87208D02*
Y97675D01*
X87608D01*
X87742Y97542D01*
Y97275D01*
X87608Y97142D01*
X87208D01*
X88008Y97542D02*
X88141Y97675D01*
X88408D01*
X88541Y97542D01*
Y97408D01*
X88408Y97275D01*
X88275D01*
X88408D01*
X88541Y97142D01*
Y97008D01*
X88408Y96875D01*
X88141D01*
X88008Y97008D01*
X44317Y97775D02*
X44850D01*
X44584D01*
Y96975D01*
X45117D02*
Y97775D01*
X45517D01*
X45650Y97642D01*
Y97375D01*
X45517Y97242D01*
X45117D01*
X45916Y96975D02*
X46183D01*
X46050D01*
Y97775D01*
X45916Y97642D01*
X90934Y97650D02*
X91467D01*
X91200D01*
Y96850D01*
X91733D02*
Y97650D01*
X92133D01*
X92267Y97517D01*
Y97250D01*
X92133Y97117D01*
X91733D01*
X93066Y96850D02*
X92533D01*
X93066Y97383D01*
Y97517D01*
X92933Y97650D01*
X92666D01*
X92533Y97517D01*
X75292Y1292D02*
X75159Y1425D01*
X74892D01*
X74759Y1292D01*
Y1158D01*
X74892Y1025D01*
X75159D01*
X75292Y892D01*
Y758D01*
X75159Y625D01*
X74892D01*
X74759Y758D01*
X75558Y1425D02*
Y625D01*
X75825Y892D01*
X76092Y625D01*
Y1425D01*
X76891D02*
X76358D01*
Y1025D01*
X76625Y1158D01*
X76758D01*
X76891Y1025D01*
Y758D01*
X76758Y625D01*
X76491D01*
X76358Y758D01*
X81867Y26867D02*
X81734Y27000D01*
X81467D01*
X81334Y26867D01*
Y26733D01*
X81467Y26600D01*
X81734D01*
X81867Y26467D01*
Y26333D01*
X81734Y26200D01*
X81467D01*
X81334Y26333D01*
X82133Y27000D02*
Y26200D01*
X82400Y26467D01*
X82667Y26200D01*
Y27000D01*
X83333Y26200D02*
Y27000D01*
X82933Y26600D01*
X83466D01*
X33217Y1492D02*
X33084Y1625D01*
X32817D01*
X32684Y1492D01*
Y1358D01*
X32817Y1225D01*
X33084D01*
X33217Y1092D01*
Y958D01*
X33084Y825D01*
X32817D01*
X32684Y958D01*
X33483Y1625D02*
Y825D01*
X33750Y1092D01*
X34017Y825D01*
Y1625D01*
X34283D02*
X34816D01*
Y1492D01*
X34283Y958D01*
Y825D01*
X13258Y1183D02*
X13391Y1050D01*
X13658D01*
X13791Y1183D01*
Y1317D01*
X13658Y1450D01*
X13391D01*
X13258Y1583D01*
Y1717D01*
X13391Y1850D01*
X13658D01*
X13791Y1717D01*
X12992Y1050D02*
Y1850D01*
X12725Y1583D01*
X12458Y1850D01*
Y1050D01*
X12192Y1183D02*
X12059Y1050D01*
X11792D01*
X11659Y1183D01*
Y1317D01*
X11792Y1450D01*
X11659Y1583D01*
Y1717D01*
X11792Y1850D01*
X12059D01*
X12192Y1717D01*
Y1583D01*
X12059Y1450D01*
X12192Y1317D01*
Y1183D01*
X12059Y1450D02*
X11792D01*
X53842Y1292D02*
X53709Y1425D01*
X53442D01*
X53309Y1292D01*
Y1158D01*
X53442Y1025D01*
X53709D01*
X53842Y892D01*
Y758D01*
X53709Y625D01*
X53442D01*
X53309Y758D01*
X54108Y1425D02*
Y625D01*
X54375Y892D01*
X54642Y625D01*
Y1425D01*
X55441D02*
X55175Y1292D01*
X54908Y1025D01*
Y758D01*
X55041Y625D01*
X55308D01*
X55441Y758D01*
Y892D01*
X55308Y1025D01*
X54908D01*
X18417Y27017D02*
X18284Y27150D01*
X18017D01*
X17884Y27017D01*
Y26883D01*
X18017Y26750D01*
X18284D01*
X18417Y26617D01*
Y26483D01*
X18284Y26350D01*
X18017D01*
X17884Y26483D01*
X18683Y27150D02*
Y26350D01*
X18950Y26617D01*
X19217Y26350D01*
Y27150D01*
X19483Y27017D02*
X19616Y27150D01*
X19883D01*
X20016Y27017D01*
Y26883D01*
X19883Y26750D01*
X19750D01*
X19883D01*
X20016Y26617D01*
Y26483D01*
X19883Y26350D01*
X19616D01*
X19483Y26483D01*
X39692Y26667D02*
X39559Y26800D01*
X39292D01*
X39159Y26667D01*
Y26533D01*
X39292Y26400D01*
X39559D01*
X39692Y26267D01*
Y26133D01*
X39559Y26000D01*
X39292D01*
X39159Y26133D01*
X39958Y26800D02*
Y26000D01*
X40225Y26267D01*
X40492Y26000D01*
Y26800D01*
X41291Y26000D02*
X40758D01*
X41291Y26533D01*
Y26667D01*
X41158Y26800D01*
X40891D01*
X40758Y26667D01*
X60675Y27142D02*
X60542Y27275D01*
X60275D01*
X60142Y27142D01*
Y27008D01*
X60275Y26875D01*
X60542D01*
X60675Y26742D01*
Y26608D01*
X60542Y26475D01*
X60275D01*
X60142Y26608D01*
X60942Y27275D02*
Y26475D01*
X61208Y26742D01*
X61475Y26475D01*
Y27275D01*
X61741Y26475D02*
X62008D01*
X61875D01*
Y27275D01*
X61741Y27142D01*
X60625Y81017D02*
X59825D01*
Y81417D01*
X59958Y81550D01*
X60225D01*
X60358Y81417D01*
Y81017D01*
Y81284D02*
X60625Y81550D01*
Y82350D02*
Y81817D01*
X60092Y82350D01*
X59958D01*
X59825Y82217D01*
Y81950D01*
X59958Y81817D01*
X60625Y82616D02*
Y82883D01*
Y82750D01*
X59825D01*
X59958Y82616D01*
X57023Y54458D02*
Y55257D01*
X57423D01*
X57556Y55124D01*
Y54857D01*
X57423Y54724D01*
X57023D01*
X57290D02*
X57556Y54458D01*
X57823D02*
X58089D01*
X57956D01*
Y55257D01*
X57823Y55124D01*
X58489Y55257D02*
X59022D01*
Y55124D01*
X58489Y54591D01*
Y54458D01*
X64550Y65600D02*
Y66400D01*
X64950D01*
X65083Y66267D01*
Y66000D01*
X64950Y65867D01*
X64550D01*
X64817D02*
X65083Y65600D01*
X65350D02*
X65617D01*
X65483D01*
Y66400D01*
X65350Y66267D01*
X66017D02*
X66150Y66400D01*
X66416D01*
X66550Y66267D01*
Y66133D01*
X66416Y66000D01*
X66550Y65867D01*
Y65733D01*
X66416Y65600D01*
X66150D01*
X66017Y65733D01*
Y65867D01*
X66150Y66000D01*
X66017Y66133D01*
Y66267D01*
X66150Y66000D02*
X66416D01*
X54280Y54458D02*
Y55257D01*
X54680D01*
X54813Y55124D01*
Y54857D01*
X54680Y54724D01*
X54280D01*
X54546D02*
X54813Y54458D01*
X55080D02*
X55346D01*
X55213D01*
Y55257D01*
X55080Y55124D01*
X56279Y55257D02*
X56013Y55124D01*
X55746Y54857D01*
Y54591D01*
X55879Y54458D01*
X56146D01*
X56279Y54591D01*
Y54724D01*
X56146Y54857D01*
X55746D01*
X53700Y80885D02*
X52900D01*
Y81284D01*
X53033Y81418D01*
X53300D01*
X53433Y81284D01*
Y80885D01*
Y81151D02*
X53700Y81418D01*
Y82217D02*
Y81684D01*
X53167Y82217D01*
X53033D01*
X52900Y82084D01*
Y81818D01*
X53033Y81684D01*
Y82484D02*
X52900Y82617D01*
Y82884D01*
X53033Y83017D01*
X53167D01*
X53300Y82884D01*
Y82751D01*
Y82884D01*
X53433Y83017D01*
X53567D01*
X53700Y82884D01*
Y82617D01*
X53567Y82484D01*
X82144Y81001D02*
Y81800D01*
X82543D01*
X82677Y81667D01*
Y81400D01*
X82543Y81267D01*
X82144D01*
X82943Y81001D02*
X83210D01*
X83077D01*
Y81800D01*
X82943Y81667D01*
X81839Y57506D02*
Y58305D01*
X82239D01*
X82372Y58172D01*
Y57905D01*
X82239Y57772D01*
X81839D01*
X83172Y57506D02*
X82639D01*
X83172Y58039D01*
Y58172D01*
X83038Y58305D01*
X82772D01*
X82639Y58172D01*
X38456Y97447D02*
Y96647D01*
X38855D01*
X38989Y96780D01*
Y97313D01*
X38855Y97447D01*
X38456D01*
X39655Y96647D02*
Y97447D01*
X39255Y97047D01*
X39789D01*
X17450Y97447D02*
Y96647D01*
X17850D01*
X17983Y96780D01*
Y97313D01*
X17850Y97447D01*
X17450D01*
X18783Y96647D02*
X18250D01*
X18783Y97180D01*
Y97313D01*
X18649Y97447D01*
X18383D01*
X18250Y97313D01*
X80442Y97447D02*
Y96647D01*
X80842D01*
X80975Y96780D01*
Y97313D01*
X80842Y97447D01*
X80442D01*
X81242Y97313D02*
X81375Y97447D01*
X81641D01*
X81775Y97313D01*
Y97180D01*
X81641Y97047D01*
X81775Y96914D01*
Y96780D01*
X81641Y96647D01*
X81375D01*
X81242Y96780D01*
Y96914D01*
X81375Y97047D01*
X81242Y97180D01*
Y97313D01*
X81375Y97047D02*
X81641D01*
X49967Y18775D02*
Y17975D01*
X50367D01*
X50500Y18108D01*
Y18642D01*
X50367Y18775D01*
X49967D01*
X50767Y17975D02*
X51033D01*
X50900D01*
Y18775D01*
X50767Y18642D01*
X48946Y97447D02*
Y96647D01*
X49346D01*
X49479Y96780D01*
Y97313D01*
X49346Y97447D01*
X48946D01*
X50279D02*
X49746D01*
Y97047D01*
X50012Y97180D01*
X50145D01*
X50279Y97047D01*
Y96780D01*
X50145Y96647D01*
X49879D01*
X49746Y96780D01*
X59461Y97447D02*
Y96647D01*
X59861D01*
X59995Y96780D01*
Y97313D01*
X59861Y97447D01*
X59461D01*
X60794D02*
X60528Y97313D01*
X60261Y97047D01*
Y96780D01*
X60394Y96647D01*
X60661D01*
X60794Y96780D01*
Y96914D01*
X60661Y97047D01*
X60261D01*
X27965Y97447D02*
Y96647D01*
X28365D01*
X28499Y96780D01*
Y97313D01*
X28365Y97447D01*
X27965D01*
X28765Y97313D02*
X28898Y97447D01*
X29165D01*
X29298Y97313D01*
Y97180D01*
X29165Y97047D01*
X29032D01*
X29165D01*
X29298Y96914D01*
Y96780D01*
X29165Y96647D01*
X28898D01*
X28765Y96780D01*
X69952Y97447D02*
Y96647D01*
X70351D01*
X70485Y96780D01*
Y97313D01*
X70351Y97447D01*
X69952D01*
X70751D02*
X71285D01*
Y97313D01*
X70751Y96780D01*
Y96647D01*
D44*
X50600Y19850D02*
G03*
X50600Y19850I-125J0D01*
G01*
X45750Y65375D02*
G03*
X45750Y65375I-125J0D01*
G01*
X76850Y40950D02*
G03*
X76850Y40950I-125J0D01*
G01*
X82850Y60375D02*
G03*
X82850Y60375I-125J0D01*
G01*
X82625Y44860D02*
G03*
X82625Y44860I-125J0D01*
G01*
X82950Y69635D02*
G03*
X82950Y69635I-125J0D01*
G01*
X66725Y50380D02*
G03*
X66725Y50380I-125J0D01*
G01*
X69125Y45440D02*
G03*
X69125Y45440I-125J0D01*
G01*
X28960Y84495D02*
G03*
X28960Y84495I-125J0D01*
G01*
Y69495D02*
G03*
X28960Y69495I-125J0D01*
G01*
X42275Y94975D02*
G03*
X42275Y94975I-125J0D01*
G01*
X21275D02*
G03*
X21275Y94975I-125J0D01*
G01*
X84275D02*
G03*
X84275Y94975I-125J0D01*
G01*
X52775D02*
G03*
X52775Y94975I-125J0D01*
G01*
X63275D02*
G03*
X63275Y94975I-125J0D01*
G01*
X31775D02*
G03*
X31775Y94975I-125J0D01*
G01*
X73775D02*
G03*
X73775Y94975I-125J0D01*
G01*
D45*
X64775Y51635D02*
G03*
X64775Y51635I-300J0D01*
G01*
D46*
X1470Y29393D02*
Y90607D01*
X100657Y29393D02*
Y90607D01*
X1470D02*
X100657D01*
X1470Y29393D02*
X100657D01*
D47*
X80850Y34900D02*
Y39500D01*
%TF.MD5,48f3f243caafe79513cf80d6f4ab29db*%
M02*
