%TF.GenerationSoftware,Altium Limited,Altium Designer,21.6.4 (81)*%
G04 Layer_Color=0*
%FSLAX43Y43*%
%MOMM*%
%TF.SameCoordinates,6460C9BA-4ACB-47D4-91E6-0B69D92CFE26*%
%TF.FilePolarity,Positive*%
%TF.FileFunction,Profile,NP*%
%TF.Part,Single*%
G01*
G75*
%TA.AperFunction,Profile*%
%ADD53C,0.025*%
G36*
X3000Y95500D02*
Y95352D01*
X3058Y95062D01*
X3171Y94789D01*
X3335Y94544D01*
X3544Y94335D01*
X3789Y94171D01*
X4062Y94058D01*
X4352Y94000D01*
X4500D01*
X4648D01*
X4938Y94058D01*
X5211Y94171D01*
X5456Y94335D01*
X5665Y94544D01*
X5829Y94789D01*
X5942Y95062D01*
X6000Y95352D01*
Y95500D01*
Y95648D01*
X5942Y95938D01*
X5829Y96211D01*
X5665Y96456D01*
X5456Y96665D01*
X5211Y96829D01*
X4938Y96942D01*
X4648Y97000D01*
X4500D01*
X4352D01*
X4062Y96942D01*
X3789Y96829D01*
X3544Y96665D01*
X3335Y96456D01*
X3171Y96211D01*
X3058Y95938D01*
X3000Y95648D01*
Y95500D01*
D01*
D02*
G37*
G36*
X96000D02*
Y95352D01*
X96058Y95062D01*
X96171Y94789D01*
X96335Y94544D01*
X96544Y94335D01*
X96789Y94171D01*
X97062Y94058D01*
X97352Y94000D01*
X97500D01*
X97648D01*
X97938Y94058D01*
X98211Y94171D01*
X98456Y94335D01*
X98665Y94544D01*
X98829Y94789D01*
X98942Y95062D01*
X99000Y95352D01*
Y95500D01*
Y95648D01*
X98942Y95938D01*
X98829Y96211D01*
X98665Y96456D01*
X98456Y96665D01*
X98211Y96829D01*
X97938Y96942D01*
X97648Y97000D01*
X97500D01*
X97352D01*
X97062Y96942D01*
X96789Y96829D01*
X96544Y96665D01*
X96335Y96456D01*
X96171Y96211D01*
X96058Y95938D01*
X96000Y95648D01*
Y95500D01*
D01*
D02*
G37*
G36*
Y4500D02*
Y4352D01*
X96058Y4062D01*
X96171Y3789D01*
X96335Y3544D01*
X96544Y3335D01*
X96789Y3171D01*
X97062Y3058D01*
X97352Y3000D01*
X97500D01*
X97648D01*
X97938Y3058D01*
X98211Y3171D01*
X98456Y3335D01*
X98665Y3544D01*
X98829Y3789D01*
X98942Y4062D01*
X99000Y4352D01*
Y4500D01*
Y4648D01*
X98942Y4938D01*
X98829Y5211D01*
X98665Y5456D01*
X98456Y5665D01*
X98211Y5829D01*
X97938Y5942D01*
X97648Y6000D01*
X97500D01*
X97352D01*
X97062Y5942D01*
X96789Y5829D01*
X96544Y5665D01*
X96335Y5456D01*
X96171Y5211D01*
X96058Y4938D01*
X96000Y4648D01*
Y4500D01*
D01*
D02*
G37*
G36*
X3000D02*
Y4352D01*
X3058Y4062D01*
X3171Y3789D01*
X3335Y3544D01*
X3544Y3335D01*
X3789Y3171D01*
X4062Y3058D01*
X4352Y3000D01*
X4500D01*
X4648D01*
X4938Y3058D01*
X5211Y3171D01*
X5456Y3335D01*
X5665Y3544D01*
X5829Y3789D01*
X5942Y4062D01*
X6000Y4352D01*
Y4500D01*
Y4648D01*
X5942Y4938D01*
X5829Y5211D01*
X5665Y5456D01*
X5456Y5665D01*
X5211Y5829D01*
X4938Y5942D01*
X4648Y6000D01*
X4500D01*
X4352D01*
X4062Y5942D01*
X3789Y5829D01*
X3544Y5665D01*
X3335Y5456D01*
X3171Y5211D01*
X3058Y4938D01*
X3000Y4648D01*
Y4500D01*
D01*
D02*
G37*
D53*
X-0D02*
X-0Y95500D01*
D02*
G02*
X4500Y100000I4500J-0D01*
G01*
X97500Y100000D01*
D02*
G02*
X102000Y95500I-0J-4500D01*
G01*
Y85800D01*
X96550Y80350D01*
Y40050D01*
X102000Y34600D01*
X102000Y4500D01*
D02*
G02*
X97500Y-0I-4500J-0D01*
G01*
X4500Y-0D01*
D02*
G02*
X-0Y4500I0J4500D01*
G01*
%TF.MD5,bf77603157701bf654e7c46ae30a895d*%
M02*
