%TF.GenerationSoftware,Altium Limited,Altium Designer,21.6.4 (81)*%
G04 Layer_Color=16711935*
%FSLAX43Y43*%
%MOMM*%
%TF.SameCoordinates,6460C9BA-4ACB-47D4-91E6-0B69D92CFE26*%
%TF.FilePolarity,Negative*%
%TF.FileFunction,Soldermask,Bot*%
%TF.Part,Single*%
G01*
G75*
%TA.AperFunction,ComponentPad*%
%ADD32O,2.540X1.778*%
%ADD33C,5.588*%
%ADD34C,5.842*%
%ADD35C,1.524*%
G04:AMPARAMS|DCode=36|XSize=1.5mm|YSize=1.5mm|CornerRadius=0.375mm|HoleSize=0mm|Usage=FLASHONLY|Rotation=90.000|XOffset=0mm|YOffset=0mm|HoleType=Round|Shape=RoundedRectangle|*
%AMROUNDEDRECTD36*
21,1,1.500,0.750,0,0,90.0*
21,1,0.750,1.500,0,0,90.0*
1,1,0.750,0.375,0.375*
1,1,0.750,0.375,-0.375*
1,1,0.750,-0.375,-0.375*
1,1,0.750,-0.375,0.375*
%
%ADD36ROUNDEDRECTD36*%
%ADD37C,1.500*%
%ADD38C,1.550*%
%ADD39R,1.550X1.550*%
%TA.AperFunction,ViaPad*%
%ADD40C,0.800*%
%TA.AperFunction,ComponentPad*%
%ADD43C,2.489*%
D32*
X13027Y80828D02*
D03*
Y75748D02*
D03*
Y83114D02*
D03*
Y78161D02*
D03*
D33*
X97500Y87500D02*
D03*
X4500Y32500D02*
D03*
X97500D02*
D03*
D34*
X4500Y87500D02*
D03*
D35*
X22000Y81082D02*
D03*
D36*
X82775Y61705D02*
D03*
X82550Y46190D02*
D03*
X82875Y70965D02*
D03*
D37*
X82775Y64245D02*
D03*
X82550Y48730D02*
D03*
Y51270D02*
D03*
Y53810D02*
D03*
X82875Y73505D02*
D03*
Y76045D02*
D03*
Y78585D02*
D03*
X15750Y6250D02*
D03*
Y1750D02*
D03*
X22250Y6250D02*
D03*
Y1750D02*
D03*
X85250D02*
D03*
Y6250D02*
D03*
X78750Y1750D02*
D03*
Y6250D02*
D03*
X43250Y1750D02*
D03*
Y6250D02*
D03*
X36750Y1750D02*
D03*
Y6250D02*
D03*
X64250Y1750D02*
D03*
Y6250D02*
D03*
X57750Y1750D02*
D03*
Y6250D02*
D03*
X78750Y24250D02*
D03*
Y19750D02*
D03*
X85250Y24250D02*
D03*
Y19750D02*
D03*
X57750Y24250D02*
D03*
Y19750D02*
D03*
X64250Y24250D02*
D03*
Y19750D02*
D03*
X36750Y24250D02*
D03*
Y19750D02*
D03*
X43250Y24250D02*
D03*
Y19750D02*
D03*
X15750Y24250D02*
D03*
Y19750D02*
D03*
X22250Y24250D02*
D03*
Y19750D02*
D03*
D38*
X69000Y35230D02*
D03*
Y37770D02*
D03*
Y40310D02*
D03*
D39*
Y42850D02*
D03*
D40*
X24100Y77975D02*
D03*
X76950Y69800D02*
D03*
X67925Y76925D02*
D03*
X85250Y92825D02*
D03*
X76650Y95150D02*
D03*
X55150Y95200D02*
D03*
X45225Y92125D02*
D03*
X36150Y95625D02*
D03*
X23550Y95500D02*
D03*
X58425Y65850D02*
D03*
X59475Y52425D02*
D03*
X58425Y55750D02*
D03*
X50575Y56650D02*
D03*
X50550Y28500D02*
D03*
X41625Y65600D02*
D03*
X41900Y66975D02*
D03*
X61825Y70925D02*
D03*
X60250Y80650D02*
D03*
X67325Y49175D02*
D03*
X34775Y58375D02*
D03*
X34625Y73650D02*
D03*
X65625Y68200D02*
D03*
X54087Y52538D02*
D03*
X45125Y72325D02*
D03*
X52875Y73850D02*
D03*
X24100Y44125D02*
D03*
X19225Y44250D02*
D03*
X22925Y47075D02*
D03*
X19325Y47050D02*
D03*
X12400Y56750D02*
D03*
X10975Y59575D02*
D03*
X14625Y59600D02*
D03*
X14775Y56775D02*
D03*
X72600Y47800D02*
D03*
X67900Y55050D02*
D03*
X71000Y23250D02*
D03*
X43175Y68175D02*
D03*
X39400Y58500D02*
D03*
X41700D02*
D03*
X43100D02*
D03*
X44475D02*
D03*
X33100Y18575D02*
D03*
X28850Y80575D02*
D03*
X28575Y65600D02*
D03*
X33125Y28000D02*
D03*
X30375D02*
D03*
X27600Y28100D02*
D03*
X30375Y18475D02*
D03*
X27600Y18450D02*
D03*
X41675Y84950D02*
D03*
X41875Y75725D02*
D03*
X43225Y76750D02*
D03*
D43*
X66525Y94750D02*
D03*
X92000Y95000D02*
D03*
X87500D02*
D03*
X45375D02*
D03*
%TF.MD5,45bd81b8e6b291e456713a6e4a0cd703*%
M02*
