%TF.GenerationSoftware,Altium Limited,Altium Designer,21.6.4 (81)*%
G04 Layer_Color=32896*
%FSLAX43Y43*%
%MOMM*%
%TF.SameCoordinates,6460C9BA-4ACB-47D4-91E6-0B69D92CFE26*%
%TF.FilePolarity,Positive*%
%TF.FileFunction,Other,Top_Component_Center*%
%TF.Part,Single*%
G01*
G75*
%TA.AperFunction,NonConductor*%
%ADD41C,0.200*%
%ADD49C,0.100*%
D41*
X49825Y20950D02*
X51175D01*
Y23050D01*
X49825D02*
X51175D01*
X49825Y20950D02*
Y23050D01*
X56800Y77050D02*
Y79050D01*
X58050D01*
Y77050D02*
Y79050D01*
X56800Y77050D02*
X58050D01*
X16050Y43675D02*
X18050D01*
X16050D02*
Y44925D01*
X18050D01*
Y43675D02*
Y44925D01*
X16049Y46400D02*
X18049D01*
X16049D02*
Y47650D01*
X18049D01*
Y46400D02*
Y47650D01*
X16025Y49100D02*
X18025D01*
X16025D02*
Y50350D01*
X18025D01*
Y49100D02*
Y50350D01*
X15950Y60250D02*
X17950D01*
Y59000D02*
Y60250D01*
X15950Y59000D02*
X17950D01*
X15950D02*
Y60250D01*
X15900Y54550D02*
X17900D01*
Y53300D02*
Y54550D01*
X15900Y53300D02*
X17900D01*
X15900D02*
Y54550D01*
Y57400D02*
X17900D01*
Y56150D02*
Y57400D01*
X15900Y56150D02*
X17900D01*
X15900D02*
Y57400D01*
X57500Y52450D02*
X58750D01*
X57500Y50450D02*
Y52450D01*
Y50450D02*
X58750D01*
Y52450D01*
X54750D02*
X56000D01*
X54750Y50450D02*
Y52450D01*
Y50450D02*
X56000D01*
Y52450D01*
X52625Y79100D02*
X53875D01*
X52625Y77100D02*
Y79100D01*
Y77100D02*
X53875D01*
Y79100D01*
X59675Y77050D02*
X60925D01*
Y79050D01*
X59675D02*
X60925D01*
X59675Y77050D02*
Y79050D01*
X12250Y15000D02*
Y17000D01*
X11000Y15000D02*
X12250D01*
X11000D02*
Y17000D01*
X12250D01*
X6800Y15000D02*
Y17000D01*
X5550Y15000D02*
X6800D01*
X5550D02*
Y17000D01*
X6800D01*
X9525Y15000D02*
Y17000D01*
X8275Y15000D02*
X9525D01*
X8275D02*
Y17000D01*
X9525D01*
X31025Y15000D02*
Y17000D01*
X29775Y15000D02*
X31025D01*
X29775D02*
Y17000D01*
X31025D01*
X33750Y15000D02*
Y17000D01*
X32500Y15000D02*
X33750D01*
X32500D02*
Y17000D01*
X33750D01*
X28275Y15000D02*
Y17000D01*
X27025Y15000D02*
X28275D01*
X27025D02*
Y17000D01*
X28275D01*
X41050Y94325D02*
Y95675D01*
X38950D02*
X41050D01*
X38950Y94325D02*
Y95675D01*
Y94325D02*
X41050D01*
X20050D02*
Y95675D01*
X17950D02*
X20050D01*
X17950Y94325D02*
Y95675D01*
Y94325D02*
X20050D01*
X83050D02*
Y95675D01*
X80950D02*
X83050D01*
X80950Y94325D02*
Y95675D01*
Y94325D02*
X83050D01*
X51550D02*
Y95675D01*
X49450D02*
X51550D01*
X49450Y94325D02*
Y95675D01*
Y94325D02*
X51550D01*
X62050D02*
Y95675D01*
X59950D02*
X62050D01*
X59950Y94325D02*
Y95675D01*
Y94325D02*
X62050D01*
X30550D02*
Y95675D01*
X28450D02*
X30550D01*
X28450Y94325D02*
Y95675D01*
Y94325D02*
X30550D01*
X72550D02*
Y95675D01*
X70450D02*
X72550D01*
X70450Y94325D02*
Y95675D01*
Y94325D02*
X72550D01*
D49*
X48825Y64875D02*
Y65875D01*
X48325Y65375D02*
X49325D01*
X76225Y44150D02*
X77225D01*
X76725Y43650D02*
Y44650D01*
X65500Y63750D02*
Y64750D01*
X65000Y64250D02*
X66000D01*
X70600Y39040D02*
X71600D01*
X71100Y38540D02*
Y39540D01*
X46000Y21500D02*
Y22500D01*
X45500Y22000D02*
X46500D01*
X25000Y3500D02*
Y4500D01*
X24500Y4000D02*
X25500D01*
X25000Y21500D02*
Y22500D01*
X24500Y22000D02*
X25500D01*
X31500Y22900D02*
X32500D01*
X32000Y22400D02*
Y23400D01*
X27500Y22875D02*
X28500D01*
X28000Y22375D02*
Y23375D01*
X55000Y21500D02*
Y22500D01*
X54500Y22000D02*
X55500D01*
X27500Y3150D02*
X28500D01*
X28000Y2650D02*
Y3650D01*
X31500Y3100D02*
X32500D01*
X32000Y2600D02*
Y3600D01*
X46000Y3500D02*
Y4500D01*
X45500Y4000D02*
X46500D01*
X55000Y3500D02*
Y4500D01*
X54500Y4000D02*
X55500D01*
X76000Y21500D02*
Y22500D01*
X75500Y22000D02*
X76500D01*
X72500Y23300D02*
X73500D01*
X73000Y22800D02*
Y23800D01*
X68500Y23250D02*
X69500D01*
X69000Y22750D02*
Y23750D01*
X76000Y3500D02*
Y4500D01*
X75500Y4000D02*
X76500D01*
X72500Y3100D02*
X73500D01*
X73000Y2600D02*
Y3600D01*
X68500Y3050D02*
X69500D01*
X69000Y2550D02*
Y3550D01*
X57224Y47225D02*
Y48225D01*
X56724Y47725D02*
X57724D01*
X70350Y47225D02*
Y48225D01*
X69850Y47725D02*
X70850D01*
X50600Y25900D02*
Y26900D01*
X50100Y26400D02*
X51100D01*
X83224Y41325D02*
X84224D01*
X83724Y40825D02*
Y41825D01*
X13450Y71600D02*
X14450D01*
X13950Y71100D02*
Y72100D01*
X43650Y85050D02*
X44650D01*
X44150Y84550D02*
Y85550D01*
X43025Y70025D02*
X44025D01*
X43525Y69525D02*
Y70525D01*
X34500Y80000D02*
X35500D01*
X35000Y79500D02*
Y80500D01*
X39500Y93000D02*
X40500D01*
X40000Y92500D02*
Y93500D01*
X81500Y93000D02*
X82500D01*
X82000Y92500D02*
Y93500D01*
X71000Y93000D02*
X72000D01*
X71500Y92500D02*
Y93500D01*
X60500Y93000D02*
X61500D01*
X61000Y92500D02*
Y93500D01*
X18500Y93000D02*
X19500D01*
X19000Y92500D02*
Y93500D01*
X29000Y93000D02*
X30000D01*
X29500Y92500D02*
Y93500D01*
X50000Y93000D02*
X51000D01*
X50500Y92500D02*
Y93500D01*
X34500Y65000D02*
X35500D01*
X35000Y64500D02*
Y65500D01*
%TF.MD5,cdabec8fd8162e0e4e3a9318aa14df94*%
M02*
