%TF.GenerationSoftware,Altium Limited,Altium Designer,21.6.4 (81)*%
G04 Layer_Physical_Order=1*
G04 Layer_Color=255*
%FSLAX43Y43*%
%MOMM*%
%TF.SameCoordinates,6460C9BA-4ACB-47D4-91E6-0B69D92CFE26*%
%TF.FilePolarity,Positive*%
%TF.FileFunction,Copper,L1,Top,Signal*%
%TF.Part,Single*%
G01*
G75*
%TA.AperFunction,SMDPad,CuDef*%
%ADD10R,1.200X1.100*%
%ADD11R,1.508X1.207*%
%ADD12R,1.250X2.000*%
%ADD13R,2.000X1.250*%
%ADD14R,0.950X1.450*%
%ADD15R,1.600X1.000*%
%ADD16R,1.000X0.600*%
%ADD17R,1.207X1.508*%
%ADD18O,1.450X0.600*%
%ADD19R,1.556X1.505*%
%ADD20R,1.505X1.556*%
%ADD21R,1.450X0.950*%
%ADD22R,2.200X2.350*%
%ADD23R,2.400X0.800*%
%ADD24R,2.400X0.700*%
%ADD25R,1.100X1.200*%
%TA.AperFunction,Conductor*%
%ADD26C,0.400*%
%ADD27C,0.500*%
%ADD28C,0.800*%
%ADD29C,0.300*%
%ADD30C,1.000*%
%TA.AperFunction,ComponentPad*%
%ADD31C,2.286*%
%ADD32O,2.540X1.778*%
%ADD33C,5.588*%
%ADD34C,5.842*%
%ADD35C,1.524*%
G04:AMPARAMS|DCode=36|XSize=1.5mm|YSize=1.5mm|CornerRadius=0.375mm|HoleSize=0mm|Usage=FLASHONLY|Rotation=90.000|XOffset=0mm|YOffset=0mm|HoleType=Round|Shape=RoundedRectangle|*
%AMROUNDEDRECTD36*
21,1,1.500,0.750,0,0,90.0*
21,1,0.750,1.500,0,0,90.0*
1,1,0.750,0.375,0.375*
1,1,0.750,0.375,-0.375*
1,1,0.750,-0.375,-0.375*
1,1,0.750,-0.375,0.375*
%
%ADD36ROUNDEDRECTD36*%
%ADD37C,1.500*%
%ADD38C,1.550*%
%ADD39R,1.550X1.550*%
%TA.AperFunction,ViaPad*%
%ADD40C,0.800*%
G36*
X96189Y40050D02*
X96217Y39912D01*
X96245Y39870D01*
X90159Y33784D01*
X80710D01*
X74960Y39534D01*
X69846D01*
X69797Y39652D01*
X69823Y39678D01*
X69886Y39786D01*
X75662D01*
X79407Y36042D01*
X79573Y35930D01*
X79770Y35891D01*
X81096D01*
Y35771D01*
X83804D01*
Y38629D01*
X83337D01*
Y40293D01*
X84498D01*
Y41325D01*
X84625D01*
D01*
X84498D01*
Y42357D01*
X82544D01*
X82263Y42638D01*
X82096Y42750D01*
X81899Y42789D01*
X77979D01*
Y43154D01*
X75471D01*
Y41396D01*
X77979D01*
Y41761D01*
X81686D01*
X81817Y41630D01*
Y40293D01*
X82310D01*
Y38629D01*
X81096D01*
Y36919D01*
X79983D01*
X76238Y40663D01*
X76072Y40775D01*
X75875Y40814D01*
X69897D01*
X69823Y40942D01*
X69632Y41133D01*
X69397Y41269D01*
X69135Y41339D01*
X68865D01*
X68603Y41269D01*
X68368Y41133D01*
X68356Y41121D01*
X67539Y41938D01*
Y45062D01*
X69170Y46693D01*
X71124D01*
Y47725D01*
Y48757D01*
X69963D01*
Y50001D01*
X69924Y50197D01*
X69813Y50364D01*
X68583Y51593D01*
X68417Y51705D01*
X68220Y51744D01*
X67253D01*
X67241Y51752D01*
X67025Y51795D01*
X66175D01*
X65959Y51752D01*
X65776Y51629D01*
X65653Y51446D01*
X65610Y51230D01*
X65653Y51014D01*
X65776Y50831D01*
X65959Y50708D01*
X66175Y50665D01*
X67025D01*
X67241Y50708D01*
X67253Y50716D01*
X68007D01*
X68935Y49788D01*
Y48757D01*
X68443D01*
Y47420D01*
X66662Y45638D01*
X66550Y45472D01*
X66511Y45275D01*
Y41725D01*
X66550Y41528D01*
X66662Y41362D01*
X67876Y40148D01*
X68001Y40064D01*
X68041Y39913D01*
X68177Y39678D01*
X68203Y39652D01*
X68154Y39534D01*
X67835D01*
X65400Y41969D01*
Y55818D01*
X66857Y57275D01*
X77385Y57284D01*
Y65984D01*
X96189D01*
Y40050D01*
D02*
G37*
G36*
X93950Y91700D02*
X92812D01*
Y82275D01*
X97799D01*
X97847Y82158D01*
X96295Y80605D01*
X96217Y80488D01*
X96189Y80350D01*
Y68584D01*
X71285D01*
Y59409D01*
X65710D01*
X62285Y55984D01*
Y40384D01*
X64110Y38559D01*
X68168D01*
X68217Y38442D01*
X68177Y38402D01*
X68041Y38167D01*
X67971Y37905D01*
Y37897D01*
X69000D01*
X70029D01*
Y37905D01*
X70018Y37946D01*
X70132Y38012D01*
X77735Y30409D01*
X91050D01*
Y361D01*
X9475Y361D01*
Y9225D01*
X361D01*
X361Y27800D01*
X9375D01*
Y37250D01*
X361D01*
X361Y82250D01*
X9650D01*
Y99639D01*
X93950Y99639D01*
Y91700D01*
D02*
G37*
%LPC*%
G36*
X82907Y65249D02*
X82643D01*
X82387Y65181D01*
X82159Y65048D01*
X82126Y65016D01*
X79854D01*
Y65019D01*
X77746D01*
Y63511D01*
X78685D01*
X78810Y63494D01*
X82106D01*
X82159Y63442D01*
X82387Y63309D01*
X82643Y63241D01*
X82907D01*
X83163Y63309D01*
X83391Y63442D01*
X83578Y63629D01*
X83711Y63857D01*
X83779Y64113D01*
Y64377D01*
X83711Y64633D01*
X83578Y64861D01*
X83391Y65048D01*
X83163Y65181D01*
X82907Y65249D01*
D02*
G37*
G36*
X83150Y62721D02*
X82400D01*
X82155Y62673D01*
X81947Y62533D01*
X81908Y62476D01*
X79854D01*
Y62479D01*
X77746D01*
Y60971D01*
X78685D01*
X78810Y60954D01*
X81894D01*
X81947Y60877D01*
X82155Y60737D01*
X82400Y60689D01*
X83150D01*
X83395Y60737D01*
X83603Y60877D01*
X83743Y61085D01*
X83791Y61330D01*
Y62080D01*
X83743Y62325D01*
X83603Y62533D01*
X83395Y62673D01*
X83150Y62721D01*
D02*
G37*
G36*
X67773Y55693D02*
X67648Y55659D01*
X67498Y55573D01*
X67389Y55463D01*
X67241Y55562D01*
X67025Y55605D01*
X66727D01*
Y55040D01*
Y54475D01*
X67025D01*
X67241Y54518D01*
X67400Y54625D01*
X67498Y54527D01*
X67648Y54441D01*
X67758Y54411D01*
X67742Y54284D01*
X67253D01*
X67241Y54292D01*
X67025Y54335D01*
X66175D01*
X65959Y54292D01*
X65776Y54169D01*
X65653Y53986D01*
X65610Y53770D01*
X65653Y53554D01*
X65776Y53371D01*
X65959Y53248D01*
X66175Y53205D01*
X67025D01*
X67241Y53248D01*
X67253Y53256D01*
X70517D01*
X71609Y52165D01*
X71775Y52053D01*
X71972Y52014D01*
X76559D01*
X77667Y50907D01*
X77833Y50795D01*
X78030Y50756D01*
X81687D01*
X81747Y50654D01*
X81934Y50467D01*
X82162Y50334D01*
X82418Y50266D01*
X82682D01*
X82938Y50334D01*
X83166Y50467D01*
X83353Y50654D01*
X83486Y50882D01*
X83554Y51138D01*
Y51402D01*
X83486Y51658D01*
X83353Y51886D01*
X83166Y52073D01*
X82938Y52206D01*
X82682Y52274D01*
X82418D01*
X82162Y52206D01*
X81934Y52073D01*
X81747Y51886D01*
X81687Y51784D01*
X78243D01*
X77135Y52891D01*
X76969Y53003D01*
X76772Y53042D01*
X72185D01*
X71093Y54133D01*
X70927Y54245D01*
X70730Y54284D01*
X68058D01*
X68042Y54411D01*
X68152Y54441D01*
X68302Y54527D01*
X68423Y54648D01*
X68509Y54798D01*
X68543Y54923D01*
X67900D01*
Y55050D01*
X67773D01*
Y55693D01*
D02*
G37*
G36*
X68027D02*
Y55177D01*
X68543D01*
X68509Y55302D01*
X68423Y55452D01*
X68302Y55573D01*
X68152Y55659D01*
X68027Y55693D01*
D02*
G37*
G36*
X66473Y55605D02*
X66175D01*
X65959Y55562D01*
X65776Y55439D01*
X65653Y55256D01*
X65635Y55167D01*
X66473D01*
Y55605D01*
D02*
G37*
G36*
Y54913D02*
X65635D01*
X65653Y54824D01*
X65776Y54641D01*
X65959Y54518D01*
X66175Y54475D01*
X66473D01*
Y54913D01*
D02*
G37*
G36*
X82682Y54814D02*
X82677D01*
Y53937D01*
X83554D01*
Y53942D01*
X83486Y54198D01*
X83353Y54426D01*
X83166Y54613D01*
X82938Y54746D01*
X82682Y54814D01*
D02*
G37*
G36*
X82423D02*
X82418D01*
X82162Y54746D01*
X81934Y54613D01*
X81747Y54426D01*
X81614Y54198D01*
X81546Y53942D01*
Y53937D01*
X82423D01*
Y54814D01*
D02*
G37*
G36*
X83554Y53683D02*
X82677D01*
Y52806D01*
X82682D01*
X82938Y52874D01*
X83166Y53007D01*
X83353Y53194D01*
X83486Y53422D01*
X83554Y53678D01*
Y53683D01*
D02*
G37*
G36*
X82423D02*
X81546D01*
Y53678D01*
X81614Y53422D01*
X81747Y53194D01*
X81934Y53007D01*
X82162Y52874D01*
X82418Y52806D01*
X82423D01*
Y53683D01*
D02*
G37*
G36*
X67452Y49818D02*
Y49302D01*
X67968D01*
X67934Y49427D01*
X67848Y49577D01*
X67727Y49698D01*
X67577Y49784D01*
X67452Y49818D01*
D02*
G37*
G36*
X67198D02*
X67073Y49784D01*
X66923Y49698D01*
X66802Y49577D01*
X66716Y49427D01*
X66682Y49302D01*
X67198D01*
Y49818D01*
D02*
G37*
G36*
X67968Y49048D02*
X67452D01*
Y48532D01*
X67577Y48566D01*
X67727Y48652D01*
X67848Y48773D01*
X67934Y48923D01*
X67968Y49048D01*
D02*
G37*
G36*
X67198D02*
X66682D01*
X66716Y48923D01*
X66802Y48773D01*
X66923Y48652D01*
X67073Y48566D01*
X67198Y48532D01*
Y49048D01*
D02*
G37*
G36*
X72727Y48443D02*
Y47927D01*
X73243D01*
X73209Y48052D01*
X73123Y48202D01*
X73002Y48323D01*
X72852Y48409D01*
X72727Y48443D01*
D02*
G37*
G36*
X67025Y53065D02*
X66175D01*
X65959Y53022D01*
X65776Y52899D01*
X65653Y52716D01*
X65610Y52500D01*
X65653Y52284D01*
X65776Y52101D01*
X65959Y51978D01*
X66175Y51935D01*
X67025D01*
X67241Y51978D01*
X67253Y51986D01*
X69712D01*
X70887Y50812D01*
X71053Y50700D01*
X71250Y50661D01*
X75562D01*
X77857Y48367D01*
X78023Y48255D01*
X78220Y48216D01*
X81687D01*
X81747Y48114D01*
X81934Y47927D01*
X82162Y47794D01*
X82418Y47726D01*
X82682D01*
X82938Y47794D01*
X83166Y47927D01*
X83353Y48114D01*
X83486Y48342D01*
X83554Y48598D01*
Y48862D01*
X83486Y49118D01*
X83353Y49346D01*
X83166Y49533D01*
X82938Y49666D01*
X82682Y49734D01*
X82418D01*
X82162Y49666D01*
X81934Y49533D01*
X81747Y49346D01*
X81687Y49244D01*
X78433D01*
X76138Y51538D01*
X75972Y51650D01*
X75775Y51689D01*
X71463D01*
X70288Y52863D01*
X70122Y52975D01*
X69925Y53014D01*
X67253D01*
X67241Y53022D01*
X67025Y53065D01*
D02*
G37*
G36*
X72257Y48757D02*
X71378D01*
Y47725D01*
Y46693D01*
X72257D01*
Y47112D01*
X72384Y47181D01*
X72473Y47157D01*
Y47800D01*
Y48443D01*
X72384Y48419D01*
X72257Y48488D01*
Y48757D01*
D02*
G37*
G36*
X73243Y47673D02*
X72727D01*
Y47157D01*
X72852Y47191D01*
X73002Y47277D01*
X73123Y47398D01*
X73209Y47548D01*
X73243Y47673D01*
D02*
G37*
G36*
X82925Y47206D02*
X82175D01*
X81930Y47158D01*
X81722Y47018D01*
X81582Y46810D01*
X81545Y46621D01*
X77979D01*
Y46904D01*
X75471D01*
Y45146D01*
X77979D01*
Y45594D01*
X81578D01*
X81582Y45570D01*
X81722Y45362D01*
X81930Y45222D01*
X82175Y45174D01*
X82925D01*
X83170Y45222D01*
X83378Y45362D01*
X83518Y45570D01*
X83566Y45815D01*
Y46565D01*
X83518Y46810D01*
X83378Y47018D01*
X83170Y47158D01*
X82925Y47206D01*
D02*
G37*
G36*
X70029Y43879D02*
X69127D01*
Y42977D01*
X70029D01*
Y43879D01*
D02*
G37*
G36*
X68873D02*
X67971D01*
Y42977D01*
X68873D01*
Y43879D01*
D02*
G37*
G36*
X70029Y42723D02*
X69127D01*
Y41821D01*
X70029D01*
Y42723D01*
D02*
G37*
G36*
X68873D02*
X67971D01*
Y41821D01*
X68873D01*
Y42723D01*
D02*
G37*
G36*
X85631Y42357D02*
X84752D01*
Y41452D01*
X85631D01*
Y42357D01*
D02*
G37*
G36*
Y41198D02*
X84752D01*
Y40293D01*
X85631D01*
Y41198D01*
D02*
G37*
G36*
X89654Y38629D02*
X88427D01*
Y37327D01*
X89654D01*
Y38629D01*
D02*
G37*
G36*
X88173D02*
X86946D01*
Y37327D01*
X88173D01*
Y38629D01*
D02*
G37*
G36*
X89654Y37073D02*
X88427D01*
Y35771D01*
X89654D01*
Y37073D01*
D02*
G37*
G36*
X88173D02*
X86946D01*
Y35771D01*
X88173D01*
Y37073D01*
D02*
G37*
G36*
X36236Y96279D02*
X36064D01*
X35898Y96234D01*
X35748Y96148D01*
X35627Y96027D01*
X35541Y95877D01*
X35496Y95711D01*
Y95539D01*
X35541Y95373D01*
X35627Y95223D01*
X35748Y95102D01*
X35898Y95016D01*
X36064Y94971D01*
X36236D01*
X36402Y95016D01*
X36552Y95102D01*
X36673Y95223D01*
X36759Y95373D01*
X36804Y95539D01*
Y95711D01*
X36759Y95877D01*
X36673Y96027D01*
X36552Y96148D01*
X36402Y96234D01*
X36236Y96279D01*
D02*
G37*
G36*
X66709Y96147D02*
X66652D01*
Y94877D01*
X67922D01*
Y94934D01*
X67827Y95289D01*
X67643Y95608D01*
X67383Y95868D01*
X67064Y96052D01*
X66709Y96147D01*
D02*
G37*
G36*
X66398D02*
X66341D01*
X65986Y96052D01*
X65667Y95868D01*
X65407Y95608D01*
X65223Y95289D01*
X65128Y94934D01*
Y94877D01*
X66398D01*
Y96147D01*
D02*
G37*
G36*
X23636Y96154D02*
X23464D01*
X23298Y96109D01*
X23148Y96023D01*
X23027Y95902D01*
X22941Y95752D01*
X22896Y95586D01*
Y95414D01*
X22941Y95248D01*
X23027Y95098D01*
X23148Y94977D01*
X23298Y94891D01*
X23464Y94846D01*
X23636D01*
X23802Y94891D01*
X23952Y94977D01*
X24073Y95098D01*
X24159Y95248D01*
X24204Y95414D01*
Y95586D01*
X24159Y95752D01*
X24073Y95902D01*
X23952Y96023D01*
X23802Y96109D01*
X23636Y96154D01*
D02*
G37*
G36*
X55236Y95854D02*
X55064D01*
X54898Y95809D01*
X54748Y95723D01*
X54627Y95602D01*
X54541Y95452D01*
X54496Y95286D01*
Y95114D01*
X54541Y94948D01*
X54627Y94798D01*
X54748Y94677D01*
X54898Y94591D01*
X55064Y94546D01*
X55236D01*
X55402Y94591D01*
X55552Y94677D01*
X55673Y94798D01*
X55759Y94948D01*
X55804Y95114D01*
Y95286D01*
X55759Y95452D01*
X55673Y95602D01*
X55552Y95723D01*
X55402Y95809D01*
X55236Y95854D01*
D02*
G37*
G36*
X76736Y95804D02*
X76564D01*
X76398Y95759D01*
X76248Y95673D01*
X76127Y95552D01*
X76041Y95402D01*
X75996Y95236D01*
Y95064D01*
X76041Y94898D01*
X76127Y94748D01*
X76248Y94627D01*
X76398Y94541D01*
X76564Y94496D01*
X76736D01*
X76902Y94541D01*
X77052Y94627D01*
X77173Y94748D01*
X77259Y94898D01*
X77304Y95064D01*
Y95236D01*
X77259Y95402D01*
X77173Y95552D01*
X77052Y95673D01*
X76902Y95759D01*
X76736Y95804D01*
D02*
G37*
G36*
X81925Y97914D02*
X20775D01*
X20578Y97875D01*
X20412Y97763D01*
X19687Y97038D01*
X19575Y96872D01*
X19536Y96675D01*
Y95854D01*
X19246D01*
Y94146D01*
X20854D01*
Y95854D01*
X20564D01*
Y96462D01*
X20988Y96886D01*
X30036D01*
Y95854D01*
X29746D01*
Y94146D01*
X31354D01*
Y95854D01*
X31064D01*
Y96886D01*
X40536D01*
Y95854D01*
X40246D01*
Y94146D01*
X41854D01*
Y95854D01*
X41564D01*
Y96886D01*
X44861D01*
Y96309D01*
X44836Y96302D01*
X44517Y96118D01*
X44257Y95858D01*
X44073Y95539D01*
X43978Y95184D01*
Y94816D01*
X44073Y94461D01*
X44257Y94142D01*
X44517Y93882D01*
X44836Y93698D01*
X45191Y93603D01*
X45559D01*
X45914Y93698D01*
X46233Y93882D01*
X46493Y94142D01*
X46677Y94461D01*
X46772Y94816D01*
Y95184D01*
X46677Y95539D01*
X46493Y95858D01*
X46233Y96118D01*
X45914Y96302D01*
X45889Y96309D01*
Y96886D01*
X51199D01*
Y95854D01*
X50746D01*
Y94146D01*
X52354D01*
Y95854D01*
X52226D01*
Y96886D01*
X61536D01*
Y95854D01*
X61246D01*
Y94146D01*
X62854D01*
Y95854D01*
X62564D01*
Y96886D01*
X72036D01*
Y95854D01*
X71746D01*
Y94146D01*
X73354D01*
Y95854D01*
X73064D01*
Y96886D01*
X81712D01*
X82536Y96062D01*
Y95854D01*
X82246D01*
Y94146D01*
X83854D01*
Y95854D01*
X83564D01*
Y96275D01*
X83525Y96472D01*
X83413Y96638D01*
X82288Y97763D01*
X82122Y97875D01*
X81925Y97914D01*
D02*
G37*
G36*
X67922Y94623D02*
X66652D01*
Y93353D01*
X66709D01*
X67064Y93448D01*
X67383Y93632D01*
X67643Y93892D01*
X67827Y94211D01*
X67922Y94566D01*
Y94623D01*
D02*
G37*
G36*
X66398D02*
X65128D01*
Y94566D01*
X65223Y94211D01*
X65407Y93892D01*
X65667Y93632D01*
X65986Y93448D01*
X66341Y93353D01*
X66398D01*
Y94623D01*
D02*
G37*
G36*
X85336Y93479D02*
X85164D01*
X84998Y93434D01*
X84848Y93348D01*
X84727Y93227D01*
X84641Y93077D01*
X84596Y92911D01*
Y92739D01*
X84641Y92573D01*
X84727Y92423D01*
X84848Y92302D01*
X84998Y92216D01*
X85164Y92171D01*
X85336D01*
X85502Y92216D01*
X85652Y92302D01*
X85773Y92423D01*
X85859Y92573D01*
X85904Y92739D01*
Y92911D01*
X85859Y93077D01*
X85773Y93227D01*
X85652Y93348D01*
X85502Y93434D01*
X85336Y93479D01*
D02*
G37*
G36*
X81754Y95854D02*
X80146D01*
Y94146D01*
X80474D01*
Y93979D01*
X80296D01*
Y92021D01*
X81754D01*
Y93979D01*
X81501D01*
Y94146D01*
X81754D01*
Y95854D01*
D02*
G37*
G36*
X71254D02*
X69646D01*
Y94146D01*
X69974D01*
Y93979D01*
X69796D01*
Y92021D01*
X71254D01*
Y93979D01*
X71001D01*
Y94146D01*
X71254D01*
Y95854D01*
D02*
G37*
G36*
X60754D02*
X59146D01*
Y94146D01*
X59474D01*
Y93979D01*
X59296D01*
Y92021D01*
X60754D01*
Y93979D01*
X60501D01*
Y94146D01*
X60754D01*
Y95854D01*
D02*
G37*
G36*
X50254D02*
X48646D01*
Y94146D01*
X48974D01*
Y93979D01*
X48796D01*
Y92021D01*
X50254D01*
Y93979D01*
X50001D01*
Y94146D01*
X50254D01*
Y95854D01*
D02*
G37*
G36*
X39754D02*
X38146D01*
Y94146D01*
X38474D01*
Y93979D01*
X38296D01*
Y92021D01*
X39754D01*
Y93979D01*
X39501D01*
Y94146D01*
X39754D01*
Y95854D01*
D02*
G37*
G36*
X29254D02*
X27646D01*
Y94146D01*
X27974D01*
Y93979D01*
X27796D01*
Y92021D01*
X29254D01*
Y93979D01*
X29001D01*
Y94146D01*
X29254D01*
Y95854D01*
D02*
G37*
G36*
X18754D02*
X17146D01*
Y94146D01*
X17474D01*
Y93979D01*
X17296D01*
Y92021D01*
X18754D01*
Y93979D01*
X18501D01*
Y94146D01*
X18754D01*
Y95854D01*
D02*
G37*
G36*
X45311Y92779D02*
X45139D01*
X44973Y92734D01*
X44823Y92648D01*
X44702Y92527D01*
X44616Y92377D01*
X44571Y92211D01*
Y92039D01*
X44616Y91873D01*
X44702Y91723D01*
X44823Y91602D01*
X44973Y91516D01*
X45139Y91471D01*
X45311D01*
X45477Y91516D01*
X45627Y91602D01*
X45748Y91723D01*
X45834Y91873D01*
X45879Y92039D01*
Y92211D01*
X45834Y92377D01*
X45748Y92527D01*
X45627Y92648D01*
X45477Y92734D01*
X45311Y92779D01*
D02*
G37*
G36*
X83704Y93979D02*
X82246D01*
Y92021D01*
X82637D01*
Y91792D01*
X78533Y87688D01*
X39175D01*
X39175Y87688D01*
X38998Y87653D01*
X38848Y87552D01*
X38848Y87552D01*
X37310Y86015D01*
X37170Y86054D01*
X37167Y86063D01*
X39017Y87912D01*
X69400D01*
X69400Y87912D01*
X69577Y87947D01*
X69727Y88048D01*
X72727Y91048D01*
X72727Y91048D01*
X72828Y91198D01*
X72863Y91375D01*
X72863Y91375D01*
Y92021D01*
X73204D01*
Y93979D01*
X71746D01*
Y92021D01*
X71937D01*
Y91567D01*
X69208Y88838D01*
X59942D01*
X59903Y88965D01*
X59952Y88998D01*
X62442Y91487D01*
X62442Y91487D01*
X62542Y91637D01*
X62577Y91814D01*
Y92021D01*
X62704D01*
Y93979D01*
X61246D01*
Y92021D01*
X61487D01*
X61539Y91894D01*
X59433Y89788D01*
X38350D01*
X38350Y89788D01*
X38173Y89753D01*
X38140Y89731D01*
X38059Y89829D01*
X38242Y90012D01*
X50100D01*
X50100Y90012D01*
X50277Y90047D01*
X50427Y90148D01*
X51802Y91523D01*
X51903Y91673D01*
X51938Y91850D01*
X51938Y91850D01*
Y92021D01*
X52204D01*
Y93979D01*
X50746D01*
Y92021D01*
X50825D01*
X50874Y91904D01*
X49908Y90938D01*
X40999D01*
X40960Y91065D01*
X41009Y91098D01*
X41302Y91391D01*
X41302Y91391D01*
X41403Y91541D01*
X41438Y91718D01*
Y92021D01*
X41704D01*
Y93979D01*
X40246D01*
Y92021D01*
X40315D01*
X40374Y91894D01*
X40369Y91888D01*
X37075D01*
X37075Y91888D01*
X36898Y91853D01*
X36748Y91752D01*
X36748Y91752D01*
X33915Y88920D01*
X33788Y88972D01*
Y89225D01*
X33753Y89402D01*
X33652Y89552D01*
X33652Y89552D01*
X31276Y91928D01*
X31204Y92021D01*
X31204D01*
X31204Y92021D01*
Y93979D01*
X29746D01*
Y92021D01*
X30114D01*
X30174Y91913D01*
X30209Y91736D01*
X30309Y91586D01*
X32773Y89123D01*
X32771Y89113D01*
X32633Y89072D01*
X31502Y90202D01*
X31352Y90303D01*
X31175Y90338D01*
X31175Y90338D01*
X27092D01*
X24543Y92886D01*
X24393Y92987D01*
X24216Y93022D01*
X24216Y93022D01*
X20704D01*
Y93979D01*
X19246D01*
Y92021D01*
X20704D01*
Y92096D01*
X24024D01*
X26573Y89548D01*
X26573Y89548D01*
X26723Y89447D01*
X26900Y89412D01*
X26900Y89412D01*
X30983D01*
X32037Y88358D01*
Y85149D01*
X29146D01*
Y84958D01*
X27745D01*
X27745Y84958D01*
X27568Y84923D01*
X27418Y84822D01*
X27418Y84822D01*
X25223Y82627D01*
X25122Y82477D01*
X25087Y82300D01*
X25087Y82300D01*
Y77467D01*
X10648Y63027D01*
X10547Y62877D01*
X10512Y62700D01*
X10512Y62700D01*
Y60037D01*
X10452Y59977D01*
X10366Y59827D01*
X10321Y59661D01*
Y59489D01*
X10366Y59323D01*
X10452Y59173D01*
X10512Y59113D01*
Y27942D01*
X5848Y23277D01*
X5747Y23127D01*
X5712Y22950D01*
X5712Y22950D01*
Y17908D01*
X5167D01*
Y16194D01*
X7183D01*
Y17908D01*
X6638D01*
Y22758D01*
X11302Y27423D01*
X11302Y27423D01*
X11403Y27573D01*
X11438Y27750D01*
Y59113D01*
X11498Y59173D01*
X11584Y59323D01*
X11629Y59489D01*
Y59661D01*
X11584Y59827D01*
X11498Y59977D01*
X11438Y60037D01*
Y62508D01*
X25810Y76880D01*
X25937Y76828D01*
Y76217D01*
X12048Y62327D01*
X11947Y62177D01*
X11912Y62000D01*
X11912Y62000D01*
Y57187D01*
X11877Y57152D01*
X11791Y57002D01*
X11746Y56836D01*
Y56664D01*
X11791Y56498D01*
X11877Y56348D01*
X11937Y56288D01*
Y27192D01*
X8573Y23827D01*
X8472Y23677D01*
X8437Y23500D01*
X8437Y23500D01*
Y17908D01*
X7892D01*
Y16194D01*
X9908D01*
Y17908D01*
X9363D01*
Y23308D01*
X12727Y26673D01*
X12727Y26673D01*
X12828Y26823D01*
X12863Y27000D01*
X12863Y27000D01*
Y56288D01*
X12923Y56348D01*
X13009Y56498D01*
X13054Y56664D01*
Y56836D01*
X13009Y57002D01*
X12923Y57152D01*
X12838Y57237D01*
Y61808D01*
X26660Y75630D01*
X26787Y75578D01*
Y74817D01*
X13373Y61402D01*
X13272Y61252D01*
X13237Y61075D01*
X13237Y61075D01*
Y53950D01*
X13237Y53950D01*
X13237Y53950D01*
Y25517D01*
X11298Y23577D01*
X11197Y23427D01*
X11162Y23250D01*
X11162Y23250D01*
Y17908D01*
X10617D01*
Y16194D01*
X12633D01*
Y17908D01*
X12088D01*
Y23058D01*
X14027Y24998D01*
X14128Y25148D01*
X14163Y25325D01*
X14163Y25325D01*
Y53462D01*
X14992D01*
Y52917D01*
X16706D01*
Y54933D01*
X14992D01*
Y54388D01*
X14163D01*
Y56283D01*
X14290Y56335D01*
X14373Y56252D01*
X14523Y56166D01*
X14689Y56121D01*
X14861D01*
X14891Y56129D01*
X14992Y56052D01*
Y55767D01*
X16706D01*
Y57783D01*
X14992D01*
Y57498D01*
X14891Y57421D01*
X14861Y57429D01*
X14689D01*
X14523Y57384D01*
X14373Y57298D01*
X14290Y57215D01*
X14163Y57267D01*
Y58965D01*
X14290Y59038D01*
X14373Y58991D01*
X14539Y58946D01*
X14711D01*
X14877Y58991D01*
X14915Y59012D01*
X15042Y58939D01*
Y58617D01*
X16756D01*
Y60633D01*
X15042D01*
Y60261D01*
X14915Y60188D01*
X14877Y60209D01*
X14711Y60254D01*
X14539D01*
X14373Y60209D01*
X14290Y60162D01*
X14163Y60235D01*
Y60883D01*
X27577Y74298D01*
X27577Y74298D01*
X27678Y74448D01*
X27713Y74625D01*
Y80533D01*
X28213Y81033D01*
X28314Y80955D01*
X28241Y80827D01*
X28196Y80661D01*
Y80489D01*
X28241Y80323D01*
X28327Y80173D01*
X28448Y80052D01*
X28598Y79966D01*
X28764Y79921D01*
X28936D01*
X29019Y79943D01*
X29146Y79851D01*
Y78761D01*
X29146D01*
Y78699D01*
X29146D01*
Y77491D01*
X29146D01*
Y77429D01*
X29146D01*
Y76286D01*
X29146Y76221D01*
X29146Y76094D01*
Y75632D01*
X32054D01*
Y76094D01*
X32054Y76159D01*
Y76247D01*
X32144Y76337D01*
X32200D01*
X32200Y76337D01*
X32377Y76372D01*
X32527Y76473D01*
X34295Y78240D01*
X34412Y78192D01*
Y77775D01*
X34412Y77775D01*
X34447Y77598D01*
X34548Y77448D01*
X36818Y75178D01*
X36818Y75178D01*
X36968Y75077D01*
X37145Y75042D01*
X37946D01*
Y74851D01*
X40854D01*
Y76159D01*
X40854D01*
Y76221D01*
X40854D01*
Y77364D01*
X40854Y77429D01*
X40854Y77556D01*
Y78699D01*
X40854D01*
Y78761D01*
X40854D01*
Y79904D01*
X40854Y79969D01*
X40854D01*
Y80031D01*
X40854D01*
Y81239D01*
X40854D01*
Y81264D01*
X40943Y81391D01*
X41169D01*
X41361Y81199D01*
Y76136D01*
X41352Y76127D01*
X41266Y75977D01*
X41221Y75811D01*
Y75639D01*
X41266Y75473D01*
X41352Y75323D01*
X41473Y75202D01*
X41623Y75116D01*
X41789Y75071D01*
X41961D01*
X42127Y75116D01*
X42277Y75202D01*
X42398Y75323D01*
X42484Y75473D01*
X42529Y75639D01*
Y75811D01*
X42484Y75977D01*
X42398Y76127D01*
X42389Y76136D01*
Y81412D01*
X42350Y81609D01*
X42238Y81775D01*
X41745Y82268D01*
X41579Y82380D01*
X41382Y82419D01*
X40943D01*
X40854Y82509D01*
Y82534D01*
X40943Y82661D01*
X41737D01*
X42711Y81687D01*
Y77161D01*
X42702Y77152D01*
X42616Y77002D01*
X42571Y76836D01*
Y76664D01*
X42616Y76498D01*
X42702Y76348D01*
X42823Y76227D01*
X42973Y76141D01*
X43139Y76096D01*
X43311D01*
X43477Y76141D01*
X43627Y76227D01*
X43748Y76348D01*
X43834Y76498D01*
X43879Y76664D01*
Y76836D01*
X43834Y77002D01*
X43748Y77152D01*
X43739Y77161D01*
Y81900D01*
X43700Y82097D01*
X43588Y82263D01*
X42313Y83538D01*
X42147Y83650D01*
X41950Y83689D01*
X40943D01*
X40854Y83779D01*
Y83841D01*
X40854D01*
Y84484D01*
X40856Y84486D01*
X41214D01*
X41273Y84427D01*
X41423Y84341D01*
X41589Y84296D01*
X41761D01*
X41927Y84341D01*
X42077Y84427D01*
X42116Y84466D01*
X42243Y84421D01*
Y84018D01*
X43161D01*
Y83375D01*
X43200Y83178D01*
X43312Y83012D01*
X44611Y81712D01*
Y79100D01*
Y72839D01*
X27450D01*
X27253Y72800D01*
X27087Y72688D01*
X17587Y63189D01*
X17476Y63023D01*
X17437Y62826D01*
Y60633D01*
X17144D01*
Y58617D01*
X17437D01*
Y57783D01*
X17094D01*
Y55767D01*
X17437D01*
Y54933D01*
X17094D01*
Y52917D01*
X17124D01*
X17173Y52800D01*
X15673Y51300D01*
X15561Y51133D01*
X15522Y50936D01*
Y50733D01*
X15117D01*
Y48717D01*
X15485D01*
Y48033D01*
X15141D01*
Y46017D01*
X15485D01*
Y45308D01*
X15142D01*
Y43292D01*
X16856D01*
Y45308D01*
X16513D01*
Y46017D01*
X16856D01*
Y48033D01*
X16513D01*
Y48717D01*
X16831D01*
Y50733D01*
X16726D01*
X16677Y50850D01*
X18177Y52350D01*
X18289Y52517D01*
X18328Y52714D01*
Y52917D01*
X18808D01*
Y54933D01*
X18465D01*
Y55767D01*
X18808D01*
Y57783D01*
X18465D01*
Y58617D01*
X18858D01*
Y60633D01*
X18465D01*
Y62613D01*
X27663Y71811D01*
X42110D01*
Y71057D01*
X41618D01*
Y70159D01*
X39550D01*
X39500Y70149D01*
X37946D01*
Y68906D01*
X37946Y68841D01*
X37946Y68714D01*
Y67636D01*
X37946Y67571D01*
X37946Y67444D01*
Y66366D01*
X37946Y66301D01*
X37946Y66174D01*
Y65096D01*
X37946Y65031D01*
X37946Y64904D01*
Y63826D01*
X37946Y63761D01*
X37946D01*
Y63699D01*
X37946D01*
Y62556D01*
X37946Y62491D01*
X37946Y62364D01*
Y61286D01*
X37946Y61221D01*
X37946Y61094D01*
Y59851D01*
X38886D01*
Y58911D01*
X38877Y58902D01*
X38791Y58752D01*
X38746Y58586D01*
Y58414D01*
X38791Y58248D01*
X38877Y58098D01*
X38998Y57977D01*
X39148Y57891D01*
X39314Y57846D01*
X39486D01*
X39652Y57891D01*
X39802Y57977D01*
X39923Y58098D01*
X40009Y58248D01*
X40054Y58414D01*
Y58586D01*
X40009Y58752D01*
X39923Y58902D01*
X39914Y58911D01*
Y59851D01*
X40854D01*
Y61015D01*
X40981Y61067D01*
X41186Y60862D01*
Y58911D01*
X41177Y58902D01*
X41091Y58752D01*
X41046Y58586D01*
Y58414D01*
X41091Y58248D01*
X41177Y58098D01*
X41298Y57977D01*
X41448Y57891D01*
X41502Y57876D01*
X41503Y57875D01*
X41509Y57874D01*
X41614Y57846D01*
X41650D01*
X41700Y57836D01*
X41750Y57846D01*
X41786D01*
X41891Y57874D01*
X41897Y57875D01*
X41898Y57876D01*
X41952Y57891D01*
X42102Y57977D01*
X42223Y58098D01*
X42309Y58248D01*
X42334Y58340D01*
X42466D01*
X42491Y58248D01*
X42577Y58098D01*
X42698Y57977D01*
X42848Y57891D01*
X43014Y57846D01*
X43186D01*
X43352Y57891D01*
X43502Y57977D01*
X43623Y58098D01*
X43709Y58248D01*
X43722Y58294D01*
X43853D01*
X43866Y58248D01*
X43952Y58098D01*
X44073Y57977D01*
X44223Y57891D01*
X44389Y57846D01*
X44561D01*
X44727Y57891D01*
X44877Y57977D01*
X44998Y58098D01*
X45084Y58248D01*
X45129Y58414D01*
Y58586D01*
X45084Y58752D01*
X44998Y58902D01*
X44989Y58911D01*
Y61475D01*
X44950Y61672D01*
X44838Y61838D01*
X42048Y64628D01*
X41882Y64740D01*
X41685Y64779D01*
X40944D01*
X40854Y64869D01*
X40854Y65014D01*
X40944Y65104D01*
X41196D01*
X41223Y65077D01*
X41373Y64991D01*
X41539Y64946D01*
X41711D01*
X41877Y64991D01*
X42027Y65077D01*
X42148Y65198D01*
X42234Y65348D01*
X42279Y65514D01*
Y65686D01*
X42234Y65852D01*
X42148Y66002D01*
X42027Y66123D01*
X41904Y66194D01*
X41929Y66321D01*
X41986D01*
X42152Y66366D01*
X42302Y66452D01*
X42423Y66573D01*
X42509Y66723D01*
X42554Y66889D01*
Y67061D01*
X42509Y67227D01*
X42423Y67377D01*
X42302Y67498D01*
X42240Y67534D01*
X42274Y67661D01*
X42764D01*
X42773Y67652D01*
X42923Y67566D01*
X43089Y67521D01*
X43261D01*
X43427Y67566D01*
X43577Y67652D01*
X43698Y67773D01*
X43784Y67923D01*
X43829Y68089D01*
Y68261D01*
X43784Y68427D01*
X43698Y68577D01*
X43577Y68698D01*
X43427Y68784D01*
X43261Y68829D01*
X43089D01*
X42923Y68784D01*
X42773Y68698D01*
X42764Y68689D01*
X40944D01*
X40854Y68779D01*
X40854Y68906D01*
Y69131D01*
X41618D01*
Y68993D01*
X44299D01*
Y70025D01*
Y71057D01*
X43138D01*
Y71811D01*
X44714D01*
X44723Y71802D01*
X44873Y71716D01*
X45039Y71671D01*
X45052D01*
X46386Y70337D01*
Y66629D01*
X46071D01*
Y64121D01*
X46386D01*
Y62950D01*
Y47975D01*
X46425Y47778D01*
X46537Y47612D01*
X53375Y40773D01*
X53542Y40662D01*
X53739Y40622D01*
X57926D01*
X63682Y34867D01*
X63848Y34755D01*
X64045Y34716D01*
X68108D01*
X68177Y34598D01*
X68368Y34407D01*
X68603Y34271D01*
X68865Y34201D01*
X69135D01*
X69397Y34271D01*
X69632Y34407D01*
X69823Y34598D01*
X69959Y34833D01*
X70029Y35095D01*
Y35365D01*
X69959Y35627D01*
X69823Y35862D01*
X69632Y36053D01*
X69397Y36189D01*
X69135Y36259D01*
X68865D01*
X68603Y36189D01*
X68368Y36053D01*
X68177Y35862D01*
X68108Y35744D01*
X64258D01*
X58653Y41349D01*
Y46693D01*
X59131D01*
Y48757D01*
X58639D01*
Y49542D01*
X59133D01*
Y50157D01*
X59271D01*
X59468Y50196D01*
X59634Y50308D01*
X60043Y50716D01*
X60497D01*
X60509Y50708D01*
X60725Y50665D01*
X61575D01*
X61791Y50708D01*
X61974Y50831D01*
X62097Y51014D01*
X62140Y51230D01*
X62097Y51446D01*
X61974Y51629D01*
X61791Y51752D01*
X61575Y51795D01*
X60725D01*
X60509Y51752D01*
X60497Y51744D01*
X59857D01*
X59820Y51829D01*
X59815Y51866D01*
X59877Y51902D01*
X59942Y51967D01*
X60565D01*
X60725Y51935D01*
X61575D01*
X61791Y51978D01*
X61974Y52101D01*
X62097Y52284D01*
X62140Y52500D01*
X62097Y52716D01*
X61974Y52899D01*
X61791Y53022D01*
X61575Y53065D01*
X60725D01*
X60509Y53022D01*
X60468Y52995D01*
X59796D01*
X59727Y53034D01*
X59561Y53079D01*
X59389D01*
X59260Y53044D01*
X59133Y53114D01*
Y53256D01*
X60497D01*
X60509Y53248D01*
X60725Y53205D01*
X61575D01*
X61791Y53248D01*
X61974Y53371D01*
X62097Y53554D01*
X62140Y53770D01*
X62097Y53986D01*
X61974Y54169D01*
X61791Y54292D01*
X61575Y54335D01*
X60725D01*
X60509Y54292D01*
X60497Y54284D01*
X58939D01*
Y55339D01*
X58948Y55348D01*
X59034Y55498D01*
X59079Y55664D01*
Y55836D01*
X59034Y56002D01*
X58948Y56152D01*
X58827Y56273D01*
X58677Y56359D01*
X58511Y56404D01*
X58339D01*
X58173Y56359D01*
X58023Y56273D01*
X57902Y56152D01*
X57816Y56002D01*
X57771Y55836D01*
Y55664D01*
X57816Y55498D01*
X57902Y55348D01*
X57911Y55339D01*
Y54284D01*
X56595D01*
X56398Y54245D01*
X56232Y54133D01*
X55456Y53358D01*
X54367D01*
Y53271D01*
X54240Y53174D01*
X54173Y53192D01*
X54001D01*
X53835Y53147D01*
X53686Y53061D01*
X53564Y52939D01*
X53478Y52790D01*
X53433Y52624D01*
Y52452D01*
X53478Y52285D01*
X53564Y52136D01*
X53686Y52015D01*
X53835Y51929D01*
X54001Y51884D01*
X54173D01*
X54240Y51902D01*
X54367Y51804D01*
Y51644D01*
X56383D01*
Y52831D01*
X56808Y53256D01*
X57117D01*
Y51644D01*
X59133D01*
Y51736D01*
X59260Y51806D01*
X59389Y51771D01*
X59504D01*
X59542Y51644D01*
X59467Y51593D01*
X59130Y51256D01*
X57117D01*
Y51113D01*
X56383D01*
Y51256D01*
X54367D01*
Y49542D01*
X56383D01*
Y50085D01*
X57117D01*
Y49542D01*
X57611D01*
Y48757D01*
X56450D01*
Y47725D01*
Y46693D01*
X57625D01*
Y41650D01*
X53952D01*
X47414Y48188D01*
Y62436D01*
X54950D01*
X55147Y62475D01*
X55313Y62587D01*
X56463Y63736D01*
X63796D01*
Y63271D01*
X65254D01*
Y65229D01*
X63796D01*
Y64764D01*
X56250D01*
X56053Y64725D01*
X55887Y64613D01*
X54737Y63464D01*
X47414D01*
Y64121D01*
X47829D01*
Y66629D01*
X47414D01*
Y70550D01*
X47375Y70747D01*
X47263Y70913D01*
X45779Y72398D01*
Y72411D01*
X45734Y72577D01*
X45648Y72727D01*
X45639Y72736D01*
Y78586D01*
X52242D01*
Y78294D01*
X54258D01*
Y78612D01*
X54736D01*
Y76817D01*
X54749Y76752D01*
X54649Y76608D01*
X54623Y76603D01*
X54258Y76969D01*
Y77906D01*
X52242D01*
Y76192D01*
X53276D01*
X53307Y76171D01*
X53504Y76132D01*
X53641D01*
X54936Y74837D01*
Y74404D01*
X53521D01*
Y74364D01*
X53286D01*
X53277Y74373D01*
X53127Y74459D01*
X52961Y74504D01*
X52789D01*
X52623Y74459D01*
X52473Y74373D01*
X52352Y74252D01*
X52266Y74102D01*
X52221Y73936D01*
Y73764D01*
X52266Y73598D01*
X52352Y73448D01*
X52473Y73327D01*
X52623Y73241D01*
X52789Y73196D01*
X52961D01*
X53127Y73241D01*
X53277Y73327D01*
X53286Y73336D01*
X53521D01*
Y73296D01*
X55029D01*
Y73440D01*
X55156Y73492D01*
X55162Y73487D01*
X55162Y73487D01*
X55921Y72727D01*
Y72346D01*
X57429D01*
Y73336D01*
X57696D01*
Y73027D01*
X58450D01*
X59204D01*
Y73336D01*
X60096D01*
Y73296D01*
X61604D01*
Y74404D01*
X60096D01*
Y74364D01*
X59204D01*
Y74637D01*
X59338Y74771D01*
X59450Y74938D01*
X59489Y75134D01*
Y76142D01*
X61308D01*
Y77856D01*
X59292D01*
Y77513D01*
X58433D01*
Y77856D01*
X56417D01*
Y76543D01*
X56300Y76494D01*
X55764Y77030D01*
Y78612D01*
X56417D01*
Y78244D01*
X58433D01*
Y79958D01*
X56417D01*
Y79640D01*
X54258D01*
Y80008D01*
X52242D01*
Y79614D01*
X45639D01*
Y81925D01*
X45600Y82122D01*
X45488Y82288D01*
X44189Y83588D01*
Y84018D01*
X44924D01*
Y85050D01*
Y86082D01*
X42243D01*
Y85526D01*
X41986D01*
X41927Y85559D01*
X41761Y85604D01*
X41589D01*
X41423Y85559D01*
X41344Y85514D01*
X40643D01*
X40446Y85475D01*
X40280Y85363D01*
X40065Y85149D01*
X38013D01*
Y85408D01*
X39367Y86762D01*
X78725D01*
X78725Y86762D01*
X78902Y86797D01*
X79052Y86898D01*
X83427Y91273D01*
X83427Y91273D01*
X83528Y91423D01*
X83563Y91600D01*
X83563Y91600D01*
Y92021D01*
X83704D01*
Y93979D01*
D02*
G37*
G36*
X46057Y86082D02*
X45178D01*
Y85177D01*
X46057D01*
Y86082D01*
D02*
G37*
G36*
Y84923D02*
X45178D01*
Y84018D01*
X46057D01*
Y84923D01*
D02*
G37*
G36*
X13408Y84267D02*
X13154D01*
Y83241D01*
X14544D01*
X14522Y83412D01*
X14406Y83690D01*
X14223Y83929D01*
X13984Y84112D01*
X13706Y84228D01*
X13408Y84267D01*
D02*
G37*
G36*
X12900D02*
X12646D01*
X12348Y84228D01*
X12070Y84112D01*
X11831Y83929D01*
X11648Y83690D01*
X11532Y83412D01*
X11510Y83241D01*
X12900D01*
Y84267D01*
D02*
G37*
G36*
X22217Y83836D02*
X22127D01*
Y81209D01*
X24754D01*
Y81299D01*
X24686Y81727D01*
X24552Y82139D01*
X24355Y82525D01*
X24101Y82876D01*
X23794Y83183D01*
X23443Y83437D01*
X23057Y83634D01*
X22645Y83768D01*
X22217Y83836D01*
D02*
G37*
G36*
X21873D02*
X21783D01*
X21355Y83768D01*
X20943Y83634D01*
X20557Y83437D01*
X20206Y83183D01*
X19899Y82876D01*
X19645Y82525D01*
X19448Y82139D01*
X19314Y81727D01*
X19246Y81299D01*
Y81209D01*
X21873D01*
Y83836D01*
D02*
G37*
G36*
X83007Y79589D02*
X83002D01*
Y78712D01*
X83879D01*
Y78717D01*
X83811Y78973D01*
X83678Y79201D01*
X83491Y79388D01*
X83263Y79521D01*
X83007Y79589D01*
D02*
G37*
G36*
X82748D02*
X82743D01*
X82487Y79521D01*
X82259Y79388D01*
X82072Y79201D01*
X81939Y78973D01*
X81871Y78717D01*
Y78712D01*
X82748D01*
Y79589D01*
D02*
G37*
G36*
X24754Y80955D02*
X22127D01*
Y78328D01*
X22217D01*
X22645Y78396D01*
X23057Y78530D01*
X23443Y78727D01*
X23794Y78981D01*
X24101Y79288D01*
X24355Y79639D01*
X24552Y80025D01*
X24686Y80437D01*
X24754Y80865D01*
Y80955D01*
D02*
G37*
G36*
X21873D02*
X19246D01*
Y80865D01*
X19314Y80437D01*
X19448Y80025D01*
X19645Y79639D01*
X19899Y79288D01*
X20206Y78981D01*
X20557Y78727D01*
X20943Y78530D01*
X21355Y78396D01*
X21783Y78328D01*
X21873D01*
Y80955D01*
D02*
G37*
G36*
X60336Y81304D02*
X60164D01*
X59998Y81259D01*
X59848Y81173D01*
X59727Y81052D01*
X59641Y80902D01*
X59596Y80736D01*
Y80564D01*
X59641Y80398D01*
X59727Y80248D01*
X59736Y80239D01*
Y79958D01*
X59292D01*
Y78244D01*
X61308D01*
Y79958D01*
X60764D01*
Y80239D01*
X60773Y80248D01*
X60859Y80398D01*
X60904Y80564D01*
Y80736D01*
X60859Y80902D01*
X60773Y81052D01*
X60652Y81173D01*
X60502Y81259D01*
X60336Y81304D01*
D02*
G37*
G36*
X83879Y78458D02*
X83002D01*
Y77581D01*
X83007D01*
X83263Y77649D01*
X83491Y77782D01*
X83678Y77969D01*
X83811Y78197D01*
X83879Y78453D01*
Y78458D01*
D02*
G37*
G36*
X82748D02*
X81871D01*
Y78453D01*
X81939Y78197D01*
X82072Y77969D01*
X82259Y77782D01*
X82487Y77649D01*
X82743Y77581D01*
X82748D01*
Y78458D01*
D02*
G37*
G36*
X87684Y96397D02*
X87316D01*
X86961Y96302D01*
X86642Y96118D01*
X86382Y95858D01*
X86198Y95539D01*
X86103Y95184D01*
Y94816D01*
X86198Y94461D01*
X86382Y94142D01*
X86642Y93882D01*
X86961Y93698D01*
X86986Y93691D01*
Y79488D01*
X84057Y76559D01*
X83738D01*
X83678Y76661D01*
X83491Y76848D01*
X83263Y76981D01*
X83007Y77049D01*
X82743D01*
X82487Y76981D01*
X82259Y76848D01*
X82072Y76661D01*
X82012Y76559D01*
X70145D01*
X69948Y76520D01*
X69782Y76408D01*
X59737Y66364D01*
X58836D01*
X58827Y66373D01*
X58677Y66459D01*
X58511Y66504D01*
X58339D01*
X58173Y66459D01*
X58023Y66373D01*
X57902Y66252D01*
X57816Y66102D01*
X57771Y65936D01*
Y65764D01*
X57816Y65598D01*
X57902Y65448D01*
X58023Y65327D01*
X58173Y65241D01*
X58339Y65196D01*
X58511D01*
X58677Y65241D01*
X58827Y65327D01*
X58836Y65336D01*
X59950D01*
X60147Y65375D01*
X60313Y65487D01*
X70358Y75531D01*
X82012D01*
X82072Y75429D01*
X82259Y75242D01*
X82487Y75109D01*
X82743Y75041D01*
X83007D01*
X83263Y75109D01*
X83491Y75242D01*
X83678Y75429D01*
X83738Y75531D01*
X84270D01*
X84467Y75570D01*
X84633Y75682D01*
X87863Y78912D01*
X87975Y79078D01*
X88014Y79275D01*
Y93691D01*
X88039Y93698D01*
X88358Y93882D01*
X88618Y94142D01*
X88802Y94461D01*
X88897Y94816D01*
Y95184D01*
X88802Y95539D01*
X88618Y95858D01*
X88358Y96118D01*
X88039Y96302D01*
X87684Y96397D01*
D02*
G37*
G36*
X68011Y77579D02*
X67839D01*
X67673Y77534D01*
X67523Y77448D01*
X67402Y77327D01*
X67316Y77177D01*
X67271Y77011D01*
Y76839D01*
X67316Y76673D01*
X67402Y76523D01*
X67523Y76402D01*
X67673Y76316D01*
X67839Y76271D01*
X68011D01*
X68177Y76316D01*
X68327Y76402D01*
X68448Y76523D01*
X68534Y76673D01*
X68579Y76839D01*
Y77011D01*
X68534Y77177D01*
X68448Y77327D01*
X68327Y77448D01*
X68177Y77534D01*
X68011Y77579D01*
D02*
G37*
G36*
X32054Y75378D02*
X30727D01*
Y74851D01*
X32054D01*
Y75378D01*
D02*
G37*
G36*
X30473D02*
X29146D01*
Y74851D01*
X30473D01*
Y75378D01*
D02*
G37*
G36*
X13408Y79314D02*
X12646D01*
X12348Y79275D01*
X12070Y79159D01*
X11831Y78976D01*
X11648Y78737D01*
X11532Y78459D01*
X11493Y78161D01*
X11532Y77863D01*
X11648Y77585D01*
X11831Y77346D01*
X12070Y77163D01*
X12348Y77047D01*
X12567Y77019D01*
Y76890D01*
X12348Y76862D01*
X12070Y76746D01*
X11831Y76563D01*
X11648Y76324D01*
X11532Y76046D01*
X11493Y75748D01*
X11532Y75450D01*
X11648Y75172D01*
X11831Y74933D01*
X12070Y74750D01*
X12348Y74634D01*
X12646Y74595D01*
X13408D01*
X13706Y74634D01*
X13984Y74750D01*
X14223Y74933D01*
X14406Y75172D01*
X14522Y75450D01*
X14561Y75748D01*
X14522Y76046D01*
X14406Y76324D01*
X14223Y76563D01*
X13984Y76746D01*
X13706Y76862D01*
X13487Y76890D01*
Y77019D01*
X13706Y77047D01*
X13984Y77163D01*
X14223Y77346D01*
X14406Y77585D01*
X14522Y77863D01*
X14561Y78161D01*
X14522Y78459D01*
X14406Y78737D01*
X14223Y78976D01*
X13984Y79159D01*
X13706Y79275D01*
X13408Y79314D01*
D02*
G37*
G36*
X92184Y96397D02*
X91816D01*
X91461Y96302D01*
X91142Y96118D01*
X90882Y95858D01*
X90698Y95539D01*
X90603Y95184D01*
Y94816D01*
X90698Y94461D01*
X90882Y94142D01*
X91142Y93882D01*
X91461Y93698D01*
X91486Y93691D01*
Y80313D01*
X85192Y74019D01*
X83738D01*
X83678Y74121D01*
X83491Y74308D01*
X83263Y74441D01*
X83007Y74509D01*
X82743D01*
X82487Y74441D01*
X82259Y74308D01*
X82072Y74121D01*
X82012Y74019D01*
X70930D01*
X70733Y73980D01*
X70567Y73868D01*
X65552Y68854D01*
X65539D01*
X65373Y68809D01*
X65223Y68723D01*
X65102Y68602D01*
X65016Y68452D01*
X64971Y68286D01*
Y68114D01*
X65016Y67948D01*
X65102Y67798D01*
X65223Y67677D01*
X65373Y67591D01*
X65539Y67546D01*
X65711D01*
X65877Y67591D01*
X66027Y67677D01*
X66148Y67798D01*
X66234Y67948D01*
X66279Y68114D01*
Y68127D01*
X71143Y72991D01*
X82012D01*
X82072Y72889D01*
X82259Y72702D01*
X82487Y72569D01*
X82743Y72501D01*
X83007D01*
X83263Y72569D01*
X83491Y72702D01*
X83678Y72889D01*
X83738Y72991D01*
X85405D01*
X85602Y73030D01*
X85768Y73142D01*
X92363Y79737D01*
X92475Y79903D01*
X92514Y80100D01*
Y93691D01*
X92539Y93698D01*
X92858Y93882D01*
X93118Y94142D01*
X93302Y94461D01*
X93397Y94816D01*
Y95184D01*
X93302Y95539D01*
X93118Y95858D01*
X92858Y96118D01*
X92539Y96302D01*
X92184Y96397D01*
D02*
G37*
G36*
X34752Y74293D02*
Y73777D01*
X35268D01*
X35234Y73902D01*
X35148Y74052D01*
X35027Y74173D01*
X34877Y74259D01*
X34752Y74293D01*
D02*
G37*
G36*
X34498D02*
X34373Y74259D01*
X34223Y74173D01*
X34102Y74052D01*
X34016Y73902D01*
X33982Y73777D01*
X34498D01*
Y74293D01*
D02*
G37*
G36*
X35268Y73523D02*
X34752D01*
Y73007D01*
X34877Y73041D01*
X35027Y73127D01*
X35148Y73248D01*
X35234Y73398D01*
X35268Y73523D01*
D02*
G37*
G36*
X34498D02*
X33982D01*
X34016Y73398D01*
X34102Y73248D01*
X34223Y73127D01*
X34373Y73041D01*
X34498Y73007D01*
Y73523D01*
D02*
G37*
G36*
X59204Y72773D02*
X58577D01*
Y72346D01*
X59204D01*
Y72773D01*
D02*
G37*
G36*
X58323D02*
X57696D01*
Y72346D01*
X58323D01*
Y72773D01*
D02*
G37*
G36*
X12922Y72632D02*
X12043D01*
Y71727D01*
X12922D01*
Y72632D01*
D02*
G37*
G36*
Y71473D02*
X12043D01*
Y70568D01*
X12922D01*
Y71473D01*
D02*
G37*
G36*
X61911Y71579D02*
X61739D01*
X61573Y71534D01*
X61450Y71464D01*
X55924D01*
X55728Y71425D01*
X55561Y71313D01*
X50877Y66629D01*
X49821D01*
Y64121D01*
X51579D01*
Y65878D01*
X56137Y70436D01*
X61389D01*
X61423Y70402D01*
X61573Y70316D01*
X61739Y70271D01*
X61911D01*
X62077Y70316D01*
X62227Y70402D01*
X62348Y70523D01*
X62434Y70673D01*
X62479Y70839D01*
Y71011D01*
X62434Y71177D01*
X62348Y71327D01*
X62227Y71448D01*
X62077Y71534D01*
X61911Y71579D01*
D02*
G37*
G36*
X45432Y71057D02*
X44553D01*
Y70152D01*
X45432D01*
Y71057D01*
D02*
G37*
G36*
X14544Y82987D02*
X11510D01*
X11532Y82816D01*
X11648Y82538D01*
X11831Y82299D01*
X12070Y82116D01*
X12253Y82040D01*
Y81902D01*
X12070Y81826D01*
X11831Y81643D01*
X11648Y81404D01*
X11532Y81126D01*
X11493Y80828D01*
X11532Y80530D01*
X11648Y80252D01*
X11831Y80013D01*
X12070Y79830D01*
X12348Y79714D01*
X12646Y79675D01*
X13408D01*
X13706Y79714D01*
X13984Y79830D01*
X14223Y80013D01*
X14406Y80252D01*
X14432Y80314D01*
X15109D01*
X15686Y79737D01*
Y74988D01*
X14237Y73538D01*
X14125Y73372D01*
X14086Y73175D01*
Y72632D01*
X13176D01*
Y71600D01*
Y70568D01*
X15156D01*
X15462Y70262D01*
X15629Y70150D01*
X15826Y70111D01*
X16750D01*
X16947Y70150D01*
X17113Y70262D01*
X24173Y77321D01*
X24186D01*
X24352Y77366D01*
X24502Y77452D01*
X24623Y77573D01*
X24709Y77723D01*
X24754Y77889D01*
Y78061D01*
X24709Y78227D01*
X24623Y78377D01*
X24502Y78498D01*
X24352Y78584D01*
X24186Y78629D01*
X24014D01*
X23848Y78584D01*
X23698Y78498D01*
X23577Y78377D01*
X23491Y78227D01*
X23446Y78061D01*
Y78048D01*
X16537Y71139D01*
X16039D01*
X15857Y71320D01*
Y72632D01*
X15114D01*
Y72962D01*
X16563Y74412D01*
X16675Y74578D01*
X16714Y74775D01*
Y79950D01*
X16675Y80147D01*
X16563Y80313D01*
X15685Y81191D01*
X15519Y81303D01*
X15322Y81342D01*
X14432D01*
X14406Y81404D01*
X14223Y81643D01*
X13984Y81826D01*
X13801Y81902D01*
Y82040D01*
X13984Y82116D01*
X14223Y82299D01*
X14406Y82538D01*
X14522Y82816D01*
X14544Y82987D01*
D02*
G37*
G36*
X83250Y71981D02*
X82500D01*
X82255Y71933D01*
X82047Y71793D01*
X81908Y71585D01*
X81859Y71340D01*
Y70590D01*
X81908Y70345D01*
X82047Y70137D01*
X82255Y69997D01*
X82500Y69949D01*
X83250D01*
X83495Y69997D01*
X83703Y70137D01*
X83842Y70345D01*
X83891Y70590D01*
Y71340D01*
X83842Y71585D01*
X83703Y71793D01*
X83495Y71933D01*
X83250Y71981D01*
D02*
G37*
G36*
X77036Y70454D02*
X76864D01*
X76698Y70409D01*
X76548Y70323D01*
X76427Y70202D01*
X76341Y70052D01*
X76296Y69886D01*
Y69714D01*
X76341Y69548D01*
X76427Y69398D01*
X76548Y69277D01*
X76698Y69191D01*
X76864Y69146D01*
X77036D01*
X77202Y69191D01*
X77352Y69277D01*
X77473Y69398D01*
X77559Y69548D01*
X77604Y69714D01*
Y69886D01*
X77559Y70052D01*
X77473Y70202D01*
X77352Y70323D01*
X77202Y70409D01*
X77036Y70454D01*
D02*
G37*
G36*
X45432Y69898D02*
X44553D01*
Y68993D01*
X45432D01*
Y69898D01*
D02*
G37*
G36*
X67204Y65229D02*
X65746D01*
Y63271D01*
X67204D01*
Y63719D01*
X68596D01*
Y63511D01*
X70704D01*
Y65019D01*
X68596D01*
Y64747D01*
X67204D01*
Y65229D01*
D02*
G37*
G36*
X70704Y62479D02*
X68596D01*
Y62239D01*
X55650D01*
X55453Y62200D01*
X55287Y62088D01*
X50502Y57304D01*
X50489D01*
X50323Y57259D01*
X50173Y57173D01*
X50052Y57052D01*
X49966Y56902D01*
X49921Y56736D01*
Y56564D01*
X49966Y56398D01*
X50052Y56248D01*
X50173Y56127D01*
X50323Y56041D01*
X50489Y55996D01*
X50661D01*
X50827Y56041D01*
X50977Y56127D01*
X51098Y56248D01*
X51184Y56398D01*
X51229Y56564D01*
Y56577D01*
X55863Y61211D01*
X68596D01*
Y60971D01*
X70704D01*
Y62479D01*
D02*
G37*
G36*
X32054Y70149D02*
X29146D01*
Y70009D01*
X27070D01*
X26873Y69970D01*
X26707Y69858D01*
X21312Y64463D01*
X21200Y64297D01*
X21161Y64100D01*
Y50188D01*
X18933D01*
Y50733D01*
X17219D01*
Y48717D01*
X18933D01*
Y49262D01*
X21161D01*
Y40075D01*
X21200Y39878D01*
X21312Y39712D01*
X27086Y33937D01*
Y28511D01*
X27077Y28502D01*
X26991Y28352D01*
X26946Y28186D01*
Y28014D01*
X26991Y27848D01*
X27077Y27698D01*
X27198Y27577D01*
X27348Y27491D01*
X27514Y27446D01*
X27686D01*
X27852Y27491D01*
X28002Y27577D01*
X28123Y27698D01*
X28209Y27848D01*
X28254Y28014D01*
Y28186D01*
X28209Y28352D01*
X28123Y28502D01*
X28114Y28511D01*
Y34150D01*
X28075Y34347D01*
X27963Y34513D01*
X22189Y40288D01*
Y46805D01*
X22316Y46823D01*
X22402Y46673D01*
X22411Y46664D01*
Y40975D01*
X22450Y40778D01*
X22562Y40612D01*
X29861Y33312D01*
Y28411D01*
X29852Y28402D01*
X29766Y28252D01*
X29721Y28086D01*
Y27914D01*
X29766Y27748D01*
X29852Y27598D01*
X29973Y27477D01*
X30123Y27391D01*
X30289Y27346D01*
X30461D01*
X30627Y27391D01*
X30777Y27477D01*
X30898Y27598D01*
X30984Y27748D01*
X31029Y27914D01*
Y28086D01*
X30984Y28252D01*
X30898Y28402D01*
X30889Y28411D01*
Y33525D01*
X30850Y33722D01*
X30738Y33888D01*
X23439Y41188D01*
Y43569D01*
X23566Y43632D01*
X23586Y43616D01*
Y42175D01*
X23625Y41978D01*
X23737Y41812D01*
X32611Y32937D01*
Y28411D01*
X32602Y28402D01*
X32516Y28252D01*
X32471Y28086D01*
Y27914D01*
X32516Y27748D01*
X32602Y27598D01*
X32723Y27477D01*
X32873Y27391D01*
X33039Y27346D01*
X33211D01*
X33377Y27391D01*
X33527Y27477D01*
X33648Y27598D01*
X33734Y27748D01*
X33779Y27914D01*
Y28086D01*
X33734Y28252D01*
X33648Y28402D01*
X33639Y28411D01*
Y33150D01*
X33600Y33347D01*
X33488Y33513D01*
X24614Y42388D01*
Y43714D01*
X24623Y43723D01*
X24684Y43829D01*
X24811Y43795D01*
Y43475D01*
X24850Y43278D01*
X24962Y43112D01*
X36236Y31837D01*
Y25113D01*
X36134Y25053D01*
X36091Y25011D01*
X34325D01*
X34128Y24985D01*
X33945Y24909D01*
X33787Y24788D01*
X32878Y23879D01*
X32246D01*
Y23174D01*
X32239Y23125D01*
X32246Y23076D01*
Y21921D01*
X33704D01*
Y22561D01*
X33738Y22587D01*
X34640Y23489D01*
X36091D01*
X36134Y23447D01*
X36362Y23314D01*
X36618Y23246D01*
X36882D01*
X37138Y23314D01*
X37366Y23447D01*
X37553Y23634D01*
X37613Y23736D01*
X42387D01*
X42447Y23634D01*
X42634Y23447D01*
X42862Y23314D01*
X43118Y23246D01*
X43314D01*
X43944Y22615D01*
X44102Y22494D01*
X44285Y22419D01*
X44482Y22393D01*
X44968D01*
Y21894D01*
Y21226D01*
X46000D01*
X47032D01*
Y21894D01*
Y23907D01*
X45797D01*
X45748Y23914D01*
X44797D01*
X44227Y24484D01*
X44186Y24638D01*
X44053Y24866D01*
X43866Y25053D01*
X43638Y25186D01*
X43382Y25254D01*
X43118D01*
X42862Y25186D01*
X42634Y25053D01*
X42447Y24866D01*
X42387Y24764D01*
X37613D01*
X37553Y24866D01*
X37366Y25053D01*
X37264Y25113D01*
Y32050D01*
X37225Y32247D01*
X37113Y32413D01*
X25839Y43688D01*
Y62137D01*
X27553Y63851D01*
X29056D01*
X29146Y63761D01*
Y63683D01*
X29056Y63594D01*
X28180D01*
X27983Y63554D01*
X27816Y63443D01*
X26212Y61838D01*
X26100Y61672D01*
X26061Y61475D01*
Y44500D01*
X26100Y44303D01*
X26212Y44137D01*
X40262Y30087D01*
X40428Y29975D01*
X40625Y29936D01*
X51337D01*
X56777Y24497D01*
X56773Y24484D01*
X56203Y23914D01*
X55252D01*
X55203Y23907D01*
X53968D01*
Y21894D01*
Y21226D01*
X55000D01*
X56032D01*
Y21894D01*
Y22393D01*
X56518D01*
X56715Y22419D01*
X56898Y22494D01*
X57056Y22615D01*
X57686Y23246D01*
X57882D01*
X58138Y23314D01*
X58366Y23447D01*
X58409Y23489D01*
X63591D01*
X63634Y23447D01*
X63862Y23314D01*
X64118Y23246D01*
X64314D01*
X64848Y22712D01*
X65005Y22591D01*
X65081Y22560D01*
X65188Y22515D01*
X65385Y22489D01*
X67296D01*
Y22285D01*
X62600D01*
X62429Y22262D01*
X62270Y22196D01*
X62134Y22091D01*
X60509Y20466D01*
X60404Y20330D01*
X60338Y20171D01*
X60315Y20000D01*
Y14585D01*
X51014D01*
Y20146D01*
X51354D01*
Y21754D01*
X49646D01*
Y20146D01*
X49986D01*
Y14585D01*
X40810D01*
Y20325D01*
X40787Y20496D01*
X40721Y20655D01*
X40616Y20791D01*
X39216Y22191D01*
X39080Y22296D01*
X38921Y22362D01*
X38750Y22385D01*
X35250D01*
X35079Y22362D01*
X34920Y22296D01*
X34784Y22191D01*
X34252Y21660D01*
X31884D01*
X31750Y21794D01*
X31754Y21921D01*
X31754D01*
Y23879D01*
X30296D01*
Y23547D01*
X29704D01*
Y23854D01*
X28246D01*
Y21896D01*
X29704D01*
Y22228D01*
X30296D01*
Y21921D01*
X30365D01*
Y21586D01*
X30388Y21415D01*
X30454Y21256D01*
X30559Y21119D01*
X31144Y20534D01*
X31281Y20429D01*
X31440Y20363D01*
X31611Y20340D01*
X34525D01*
X34696Y20363D01*
X34855Y20429D01*
X34991Y20534D01*
X35523Y21065D01*
X38477D01*
X39490Y20052D01*
Y13650D01*
Y6973D01*
X37802Y5285D01*
X37340D01*
X37306Y5412D01*
X37366Y5447D01*
X37553Y5634D01*
X37686Y5862D01*
X37754Y6118D01*
Y6123D01*
X35746D01*
Y6118D01*
X35814Y5862D01*
X35947Y5634D01*
X36134Y5447D01*
X36194Y5412D01*
X36160Y5285D01*
X30284D01*
X30113Y5262D01*
X29954Y5196D01*
X29817Y5091D01*
X29534Y4808D01*
X29429Y4671D01*
X29363Y4512D01*
X29340Y4341D01*
Y4129D01*
X28246D01*
Y2171D01*
X29704D01*
Y2453D01*
X30296D01*
Y2121D01*
X31754D01*
Y3965D01*
X32246D01*
Y3310D01*
X32240Y3297D01*
X32214Y3100D01*
X32240Y2903D01*
X32246Y2890D01*
Y2121D01*
X33704D01*
Y2339D01*
X34950D01*
X35773Y1516D01*
X35814Y1362D01*
X35947Y1134D01*
X36134Y947D01*
X36362Y814D01*
X36618Y746D01*
X36882D01*
X37138Y814D01*
X37366Y947D01*
X37409Y989D01*
X42591D01*
X42634Y947D01*
X42862Y814D01*
X43118Y746D01*
X43382D01*
X43638Y814D01*
X43866Y947D01*
X44053Y1134D01*
X44186Y1362D01*
X44227Y1516D01*
X44797Y2086D01*
X45748D01*
X45797Y2093D01*
X47032D01*
Y3894D01*
Y4774D01*
X46000D01*
Y4901D01*
D01*
Y4774D01*
X44968D01*
Y3894D01*
Y3607D01*
X44482D01*
X44285Y3581D01*
X44102Y3506D01*
X43944Y3385D01*
X43314Y2754D01*
X43118D01*
X42862Y2686D01*
X42634Y2553D01*
X42591Y2511D01*
X37409D01*
X37366Y2553D01*
X37138Y2686D01*
X36882Y2754D01*
X36686D01*
X35802Y3638D01*
X35645Y3759D01*
X35462Y3835D01*
X35433Y3838D01*
X35441Y3965D01*
X38075D01*
X38246Y3988D01*
X38405Y4054D01*
X38541Y4159D01*
X40616Y6234D01*
X40721Y6370D01*
X40787Y6529D01*
X40810Y6700D01*
Y13265D01*
X60315D01*
Y6500D01*
X60338Y6329D01*
X60404Y6170D01*
X60509Y6034D01*
X62334Y4209D01*
X62470Y4104D01*
X62629Y4038D01*
X62800Y4015D01*
X67296D01*
Y3260D01*
X67290Y3247D01*
X67282Y3182D01*
X66610Y2511D01*
X64909D01*
X64866Y2553D01*
X64638Y2686D01*
X64382Y2754D01*
X64118D01*
X63862Y2686D01*
X63634Y2553D01*
X63591Y2511D01*
X58409D01*
X58366Y2553D01*
X58138Y2686D01*
X57882Y2754D01*
X57618D01*
X57362Y2686D01*
X57225Y2606D01*
X56594D01*
X56032Y3168D01*
Y3894D01*
Y4774D01*
X55000D01*
Y4901D01*
D01*
Y4774D01*
X53968D01*
Y3894D01*
Y2093D01*
X54957D01*
X55742Y1308D01*
X55899Y1187D01*
X56083Y1111D01*
X56279Y1085D01*
X56995D01*
X57134Y947D01*
X57362Y814D01*
X57618Y746D01*
X57882D01*
X58138Y814D01*
X58366Y947D01*
X58409Y989D01*
X63591D01*
X63634Y947D01*
X63862Y814D01*
X64118Y746D01*
X64382D01*
X64638Y814D01*
X64866Y947D01*
X64909Y989D01*
X66925D01*
X67122Y1015D01*
X67305Y1091D01*
X67463Y1212D01*
X68322Y2071D01*
X68754D01*
Y2640D01*
X68760Y2653D01*
X68786Y2850D01*
Y3050D01*
X68760Y3247D01*
X68754Y3260D01*
Y4015D01*
X69246D01*
Y2071D01*
X70704D01*
Y2390D01*
X71296D01*
Y2121D01*
X72754D01*
Y4079D01*
X71631D01*
X71612Y4221D01*
X71546Y4380D01*
X71441Y4516D01*
X70816Y5141D01*
X70680Y5246D01*
X70521Y5312D01*
X70350Y5335D01*
X64903D01*
X64882Y5462D01*
X65053Y5634D01*
X65186Y5862D01*
X65254Y6118D01*
Y6123D01*
X63246D01*
Y6118D01*
X63314Y5862D01*
X63447Y5634D01*
X63618Y5462D01*
X63597Y5335D01*
X63073D01*
X61635Y6773D01*
Y13925D01*
Y19727D01*
X62873Y20965D01*
X70616D01*
X70787Y20988D01*
X70946Y21054D01*
X71083Y21159D01*
X71479Y21555D01*
X71584Y21691D01*
X71650Y21850D01*
X71672Y22021D01*
Y22321D01*
X72754D01*
Y24279D01*
X71296D01*
Y23960D01*
X71012D01*
X70842Y23937D01*
X70831Y23933D01*
X70704Y24004D01*
Y24229D01*
X69246D01*
Y22285D01*
X68754D01*
Y23040D01*
X68760Y23053D01*
X68786Y23250D01*
X68760Y23447D01*
X68754Y23460D01*
Y24229D01*
X67296D01*
Y24011D01*
X65700D01*
X65227Y24484D01*
X65186Y24638D01*
X65053Y24866D01*
X64866Y25053D01*
X64638Y25186D01*
X64382Y25254D01*
X64118D01*
X63862Y25186D01*
X63634Y25053D01*
X63591Y25011D01*
X58409D01*
X58366Y25053D01*
X58138Y25186D01*
X57882Y25254D01*
X57618D01*
X57503Y25223D01*
X51913Y30813D01*
X51747Y30925D01*
X51550Y30964D01*
X40838D01*
X27089Y44713D01*
Y61262D01*
X28393Y62566D01*
X29071D01*
X29146Y62491D01*
Y62429D01*
X29056Y62339D01*
X28850D01*
X28653Y62300D01*
X28487Y62188D01*
X27537Y61238D01*
X27425Y61072D01*
X27386Y60875D01*
Y45725D01*
X27425Y45528D01*
X27537Y45362D01*
X41137Y31762D01*
X41303Y31650D01*
X41500Y31611D01*
X68887D01*
X75486Y25012D01*
Y23907D01*
X74968D01*
Y23861D01*
X74704D01*
Y24279D01*
X73246D01*
Y23510D01*
X73240Y23497D01*
X73214Y23300D01*
Y23125D01*
X73240Y22929D01*
X73246Y22915D01*
Y22321D01*
X74704D01*
Y22340D01*
X74968D01*
Y21894D01*
Y21226D01*
X76000D01*
X77032D01*
Y21894D01*
Y22393D01*
X77518D01*
X77715Y22419D01*
X77898Y22494D01*
X78056Y22615D01*
X78686Y23246D01*
X78882D01*
X79138Y23314D01*
X79366Y23447D01*
X79409Y23489D01*
X84591D01*
X84634Y23447D01*
X84862Y23314D01*
X85118Y23246D01*
X85382D01*
X85638Y23314D01*
X85866Y23447D01*
X86053Y23634D01*
X86186Y23862D01*
X86254Y24118D01*
Y24382D01*
X86186Y24638D01*
X86053Y24866D01*
X85866Y25053D01*
X85638Y25186D01*
X85382Y25254D01*
X85118D01*
X84862Y25186D01*
X84634Y25053D01*
X84591Y25011D01*
X79409D01*
X79366Y25053D01*
X79138Y25186D01*
X78882Y25254D01*
X78618D01*
X78362Y25186D01*
X78134Y25053D01*
X77947Y24866D01*
X77814Y24638D01*
X77773Y24484D01*
X77203Y23914D01*
X76514D01*
Y25225D01*
X76475Y25422D01*
X76363Y25588D01*
X69463Y32488D01*
X69297Y32600D01*
X69100Y32639D01*
X41713D01*
X28414Y45938D01*
Y60662D01*
X29019Y61267D01*
X29146Y61221D01*
X29146Y61094D01*
Y60632D01*
X32054D01*
Y61094D01*
X32054Y61159D01*
X32054Y61286D01*
Y62364D01*
X32054Y62429D01*
X32054Y62556D01*
Y63634D01*
X32054Y63699D01*
X32054Y63826D01*
Y64904D01*
X32054Y64969D01*
X32054Y65096D01*
Y66174D01*
X32054Y66239D01*
X32054Y66366D01*
Y67444D01*
X32054Y67509D01*
X32054Y67636D01*
Y68714D01*
X32054Y68779D01*
X32054Y68906D01*
Y70149D01*
D02*
G37*
G36*
Y60378D02*
X30727D01*
Y59851D01*
X32054D01*
Y60378D01*
D02*
G37*
G36*
X30473D02*
X29146D01*
Y59851D01*
X30473D01*
Y60378D01*
D02*
G37*
G36*
X34902Y59018D02*
Y58502D01*
X35418D01*
X35384Y58627D01*
X35298Y58777D01*
X35177Y58898D01*
X35027Y58984D01*
X34902Y59018D01*
D02*
G37*
G36*
X34648D02*
X34523Y58984D01*
X34373Y58898D01*
X34252Y58777D01*
X34166Y58627D01*
X34132Y58502D01*
X34648D01*
Y59018D01*
D02*
G37*
G36*
X35418Y58248D02*
X34902D01*
Y57732D01*
X35027Y57766D01*
X35177Y57852D01*
X35298Y57973D01*
X35384Y58123D01*
X35418Y58248D01*
D02*
G37*
G36*
X34648D02*
X34132D01*
X34166Y58123D01*
X34252Y57973D01*
X34373Y57852D01*
X34523Y57766D01*
X34648Y57732D01*
Y58248D01*
D02*
G37*
G36*
X61575Y55605D02*
X61277D01*
Y55167D01*
X62115D01*
X62097Y55256D01*
X61974Y55439D01*
X61791Y55562D01*
X61575Y55605D01*
D02*
G37*
G36*
X61023D02*
X60725D01*
X60509Y55562D01*
X60326Y55439D01*
X60203Y55256D01*
X60185Y55167D01*
X61023D01*
Y55605D01*
D02*
G37*
G36*
X62115Y54913D02*
X61277D01*
Y54475D01*
X61575D01*
X61791Y54518D01*
X61974Y54641D01*
X62097Y54824D01*
X62115Y54913D01*
D02*
G37*
G36*
X61023D02*
X60185D01*
X60203Y54824D01*
X60326Y54641D01*
X60509Y54518D01*
X60725Y54475D01*
X61023D01*
Y54913D01*
D02*
G37*
G36*
X56196Y48757D02*
X55317D01*
Y47852D01*
X56196D01*
Y48757D01*
D02*
G37*
G36*
Y47598D02*
X55317D01*
Y46693D01*
X56196D01*
Y47598D01*
D02*
G37*
G36*
X18957Y48033D02*
X17243D01*
Y46017D01*
X18957D01*
Y46380D01*
X19046Y46431D01*
X19084Y46437D01*
X19239Y46396D01*
X19411D01*
X19577Y46441D01*
X19727Y46527D01*
X19848Y46648D01*
X19934Y46798D01*
X19979Y46964D01*
Y47136D01*
X19934Y47302D01*
X19848Y47452D01*
X19727Y47573D01*
X19577Y47659D01*
X19411Y47704D01*
X19239D01*
X19084Y47663D01*
X19046Y47669D01*
X18957Y47720D01*
Y48033D01*
D02*
G37*
G36*
X18958Y45308D02*
X17244D01*
Y43292D01*
X18958D01*
Y43513D01*
X19085Y43610D01*
X19139Y43596D01*
X19311D01*
X19477Y43641D01*
X19627Y43727D01*
X19748Y43848D01*
X19834Y43998D01*
X19879Y44164D01*
Y44336D01*
X19834Y44502D01*
X19748Y44652D01*
X19627Y44773D01*
X19477Y44859D01*
X19311Y44904D01*
X19139D01*
X19085Y44890D01*
X18958Y44987D01*
Y45308D01*
D02*
G37*
G36*
X70029Y37643D02*
X69127D01*
Y36741D01*
X69135D01*
X69397Y36811D01*
X69632Y36947D01*
X69823Y37138D01*
X69959Y37373D01*
X70029Y37635D01*
Y37643D01*
D02*
G37*
G36*
X68873D02*
X67971D01*
Y37635D01*
X68041Y37373D01*
X68177Y37138D01*
X68368Y36947D01*
X68603Y36811D01*
X68865Y36741D01*
X68873D01*
Y37643D01*
D02*
G37*
G36*
X50636Y29154D02*
X50464D01*
X50298Y29109D01*
X50148Y29023D01*
X50027Y28902D01*
X49941Y28752D01*
X49896Y28586D01*
Y28414D01*
X49941Y28248D01*
X49960Y28214D01*
X49896Y28104D01*
X49621D01*
Y26646D01*
X51579D01*
Y28104D01*
X51223D01*
X51150Y28231D01*
X51159Y28248D01*
X51204Y28414D01*
Y28586D01*
X51159Y28752D01*
X51073Y28902D01*
X50952Y29023D01*
X50802Y29109D01*
X50636Y29154D01*
D02*
G37*
G36*
X22382Y25254D02*
X22118D01*
X21862Y25186D01*
X21634Y25053D01*
X21591Y25011D01*
X16409D01*
X16366Y25053D01*
X16138Y25186D01*
X15882Y25254D01*
X15618D01*
X15362Y25186D01*
X15134Y25053D01*
X14947Y24866D01*
X14814Y24638D01*
X14746Y24382D01*
Y24118D01*
X14814Y23862D01*
X14947Y23634D01*
X15134Y23447D01*
X15362Y23314D01*
X15618Y23246D01*
X15882D01*
X16138Y23314D01*
X16366Y23447D01*
X16409Y23489D01*
X21591D01*
X21634Y23447D01*
X21862Y23314D01*
X22118Y23246D01*
X22382D01*
X22638Y23314D01*
X22775Y23394D01*
X23406D01*
X23968Y22832D01*
Y21894D01*
Y21226D01*
X25000D01*
X26032D01*
Y21894D01*
Y22140D01*
X26296D01*
Y21896D01*
X27754D01*
Y22665D01*
X27760Y22678D01*
X27786Y22875D01*
Y22876D01*
X27760Y23073D01*
X27754Y23086D01*
Y23854D01*
X26296D01*
Y23661D01*
X26032D01*
Y23907D01*
X25043D01*
X24258Y24692D01*
X24101Y24813D01*
X23917Y24889D01*
X23721Y24915D01*
X23005D01*
X22866Y25053D01*
X22638Y25186D01*
X22382Y25254D01*
D02*
G37*
G36*
X51579Y26154D02*
X49621D01*
Y24696D01*
X50036D01*
Y23854D01*
X49646D01*
Y22246D01*
X51354D01*
Y23854D01*
X51064D01*
Y24696D01*
X51579D01*
Y26154D01*
D02*
G37*
G36*
X77032Y20972D02*
X76127D01*
Y20093D01*
X77032D01*
Y20972D01*
D02*
G37*
G36*
X75873D02*
X74968D01*
Y20093D01*
X75873D01*
Y20972D01*
D02*
G37*
G36*
X56032Y20972D02*
X55127D01*
Y20093D01*
X56032D01*
Y20972D01*
D02*
G37*
G36*
X54873D02*
X53968D01*
Y20093D01*
X54873D01*
Y20972D01*
D02*
G37*
G36*
X47032Y20972D02*
X46127D01*
Y20093D01*
X47032D01*
Y20972D01*
D02*
G37*
G36*
X45873D02*
X44968D01*
Y20093D01*
X45873D01*
Y20972D01*
D02*
G37*
G36*
X26032Y20972D02*
X25127D01*
Y20093D01*
X26032D01*
Y20972D01*
D02*
G37*
G36*
X24873D02*
X23968D01*
Y20093D01*
X24873D01*
Y20972D01*
D02*
G37*
G36*
X57882Y20754D02*
X57877D01*
Y19877D01*
X58754D01*
Y19882D01*
X58686Y20138D01*
X58553Y20366D01*
X58366Y20553D01*
X58138Y20686D01*
X57882Y20754D01*
D02*
G37*
G36*
X64382D02*
X64377D01*
Y19877D01*
X65254D01*
Y19882D01*
X65186Y20138D01*
X65053Y20366D01*
X64866Y20553D01*
X64638Y20686D01*
X64382Y20754D01*
D02*
G37*
G36*
X36882D02*
X36877D01*
Y19877D01*
X37754D01*
Y19882D01*
X37686Y20138D01*
X37553Y20366D01*
X37366Y20553D01*
X37138Y20686D01*
X36882Y20754D01*
D02*
G37*
G36*
X43382D02*
X43377D01*
Y19877D01*
X44254D01*
Y19882D01*
X44186Y20138D01*
X44053Y20366D01*
X43866Y20553D01*
X43638Y20686D01*
X43382Y20754D01*
D02*
G37*
G36*
X85382D02*
X85377D01*
Y19877D01*
X86254D01*
Y19882D01*
X86186Y20138D01*
X86053Y20366D01*
X85866Y20553D01*
X85638Y20686D01*
X85382Y20754D01*
D02*
G37*
G36*
X78882D02*
X78877D01*
Y19877D01*
X79754D01*
Y19882D01*
X79686Y20138D01*
X79553Y20366D01*
X79366Y20553D01*
X79138Y20686D01*
X78882Y20754D01*
D02*
G37*
G36*
X22382D02*
X22377D01*
Y19877D01*
X23254D01*
Y19882D01*
X23186Y20138D01*
X23053Y20366D01*
X22866Y20553D01*
X22638Y20686D01*
X22382Y20754D01*
D02*
G37*
G36*
X15882D02*
X15877D01*
Y19877D01*
X16754D01*
Y19882D01*
X16686Y20138D01*
X16553Y20366D01*
X16366Y20553D01*
X16138Y20686D01*
X15882Y20754D01*
D02*
G37*
G36*
X22123D02*
X22118D01*
X21862Y20686D01*
X21634Y20553D01*
X21447Y20366D01*
X21314Y20138D01*
X21246Y19882D01*
Y19877D01*
X22123D01*
Y20754D01*
D02*
G37*
G36*
X15623D02*
X15618D01*
X15362Y20686D01*
X15134Y20553D01*
X14947Y20366D01*
X14814Y20138D01*
X14746Y19882D01*
Y19877D01*
X15623D01*
Y20754D01*
D02*
G37*
G36*
X85123D02*
X85118D01*
X84862Y20686D01*
X84634Y20553D01*
X84447Y20366D01*
X84314Y20138D01*
X84246Y19882D01*
Y19877D01*
X85123D01*
Y20754D01*
D02*
G37*
G36*
X78623D02*
X78618D01*
X78362Y20686D01*
X78134Y20553D01*
X77947Y20366D01*
X77814Y20138D01*
X77746Y19882D01*
Y19877D01*
X78623D01*
Y20754D01*
D02*
G37*
G36*
X36623D02*
X36618D01*
X36362Y20686D01*
X36134Y20553D01*
X35947Y20366D01*
X35814Y20138D01*
X35746Y19882D01*
Y19877D01*
X36623D01*
Y20754D01*
D02*
G37*
G36*
X43123D02*
X43118D01*
X42862Y20686D01*
X42634Y20553D01*
X42447Y20366D01*
X42314Y20138D01*
X42246Y19882D01*
Y19877D01*
X43123D01*
Y20754D01*
D02*
G37*
G36*
X57623D02*
X57618D01*
X57362Y20686D01*
X57134Y20553D01*
X56947Y20366D01*
X56814Y20138D01*
X56746Y19882D01*
Y19877D01*
X57623D01*
Y20754D01*
D02*
G37*
G36*
X64123D02*
X64118D01*
X63862Y20686D01*
X63634Y20553D01*
X63447Y20366D01*
X63314Y20138D01*
X63246Y19882D01*
Y19877D01*
X64123D01*
Y20754D01*
D02*
G37*
G36*
X86254Y19623D02*
X85377D01*
Y18746D01*
X85382D01*
X85638Y18814D01*
X85866Y18947D01*
X86053Y19134D01*
X86186Y19362D01*
X86254Y19618D01*
Y19623D01*
D02*
G37*
G36*
X85123D02*
X84246D01*
Y19618D01*
X84314Y19362D01*
X84447Y19134D01*
X84634Y18947D01*
X84862Y18814D01*
X85118Y18746D01*
X85123D01*
Y19623D01*
D02*
G37*
G36*
X79754D02*
X78877D01*
Y18746D01*
X78882D01*
X79138Y18814D01*
X79366Y18947D01*
X79553Y19134D01*
X79686Y19362D01*
X79754Y19618D01*
Y19623D01*
D02*
G37*
G36*
X78623D02*
X77746D01*
Y19618D01*
X77814Y19362D01*
X77947Y19134D01*
X78134Y18947D01*
X78362Y18814D01*
X78618Y18746D01*
X78623D01*
Y19623D01*
D02*
G37*
G36*
X65254D02*
X64377D01*
Y18746D01*
X64382D01*
X64638Y18814D01*
X64866Y18947D01*
X65053Y19134D01*
X65186Y19362D01*
X65254Y19618D01*
Y19623D01*
D02*
G37*
G36*
X64123D02*
X63246D01*
Y19618D01*
X63314Y19362D01*
X63447Y19134D01*
X63634Y18947D01*
X63862Y18814D01*
X64118Y18746D01*
X64123D01*
Y19623D01*
D02*
G37*
G36*
X58754D02*
X57877D01*
Y18746D01*
X57882D01*
X58138Y18814D01*
X58366Y18947D01*
X58553Y19134D01*
X58686Y19362D01*
X58754Y19618D01*
Y19623D01*
D02*
G37*
G36*
X57623D02*
X56746D01*
Y19618D01*
X56814Y19362D01*
X56947Y19134D01*
X57134Y18947D01*
X57362Y18814D01*
X57618Y18746D01*
X57623D01*
Y19623D01*
D02*
G37*
G36*
X44254D02*
X43377D01*
Y18746D01*
X43382D01*
X43638Y18814D01*
X43866Y18947D01*
X44053Y19134D01*
X44186Y19362D01*
X44254Y19618D01*
Y19623D01*
D02*
G37*
G36*
X43123D02*
X42246D01*
Y19618D01*
X42314Y19362D01*
X42447Y19134D01*
X42634Y18947D01*
X42862Y18814D01*
X43118Y18746D01*
X43123D01*
Y19623D01*
D02*
G37*
G36*
X37754D02*
X36877D01*
Y18746D01*
X36882D01*
X37138Y18814D01*
X37366Y18947D01*
X37553Y19134D01*
X37686Y19362D01*
X37754Y19618D01*
Y19623D01*
D02*
G37*
G36*
X36623D02*
X35746D01*
Y19618D01*
X35814Y19362D01*
X35947Y19134D01*
X36134Y18947D01*
X36362Y18814D01*
X36618Y18746D01*
X36623D01*
Y19623D01*
D02*
G37*
G36*
X23254D02*
X22377D01*
Y18746D01*
X22382D01*
X22638Y18814D01*
X22866Y18947D01*
X23053Y19134D01*
X23186Y19362D01*
X23254Y19618D01*
Y19623D01*
D02*
G37*
G36*
X22123D02*
X21246D01*
Y19618D01*
X21314Y19362D01*
X21447Y19134D01*
X21634Y18947D01*
X21862Y18814D01*
X22118Y18746D01*
X22123D01*
Y19623D01*
D02*
G37*
G36*
X16754D02*
X15877D01*
Y18746D01*
X15882D01*
X16138Y18814D01*
X16366Y18947D01*
X16553Y19134D01*
X16686Y19362D01*
X16754Y19618D01*
Y19623D01*
D02*
G37*
G36*
X15623D02*
X14746D01*
Y19618D01*
X14814Y19362D01*
X14947Y19134D01*
X15134Y18947D01*
X15362Y18814D01*
X15618Y18746D01*
X15623D01*
Y19623D01*
D02*
G37*
G36*
X33186Y19229D02*
X33014D01*
X32848Y19184D01*
X32698Y19098D01*
X32577Y18977D01*
X32491Y18827D01*
X32446Y18661D01*
Y18489D01*
X32491Y18323D01*
X32577Y18173D01*
X32637Y18113D01*
Y17908D01*
X32117D01*
Y16194D01*
X34133D01*
Y17908D01*
X33563D01*
Y18113D01*
X33623Y18173D01*
X33709Y18323D01*
X33754Y18489D01*
Y18661D01*
X33709Y18827D01*
X33623Y18977D01*
X33502Y19098D01*
X33352Y19184D01*
X33186Y19229D01*
D02*
G37*
G36*
X30461Y19129D02*
X30289D01*
X30123Y19084D01*
X29973Y18998D01*
X29852Y18877D01*
X29766Y18727D01*
X29721Y18561D01*
Y18389D01*
X29766Y18223D01*
X29852Y18073D01*
X29890Y18035D01*
X29859Y17908D01*
X29392D01*
Y16194D01*
X31408D01*
Y17908D01*
X30891D01*
X30860Y18035D01*
X30898Y18073D01*
X30984Y18223D01*
X31029Y18389D01*
Y18561D01*
X30984Y18727D01*
X30898Y18877D01*
X30777Y18998D01*
X30627Y19084D01*
X30461Y19129D01*
D02*
G37*
G36*
X27686Y19104D02*
X27514D01*
X27348Y19059D01*
X27198Y18973D01*
X27077Y18852D01*
X26991Y18702D01*
X26946Y18536D01*
Y18364D01*
X26991Y18198D01*
X27077Y18048D01*
X27090Y18035D01*
X27037Y17908D01*
X26642D01*
Y16194D01*
X28658D01*
Y17908D01*
X28163D01*
X28110Y18035D01*
X28123Y18048D01*
X28209Y18198D01*
X28254Y18364D01*
Y18536D01*
X28209Y18702D01*
X28123Y18852D01*
X28002Y18973D01*
X27852Y19059D01*
X27686Y19104D01*
D02*
G37*
G36*
X7183Y15806D02*
X6302D01*
Y15076D01*
X7183D01*
Y15806D01*
D02*
G37*
G36*
X6048D02*
X5167D01*
Y15076D01*
X6048D01*
Y15806D01*
D02*
G37*
G36*
X31408D02*
X30527D01*
Y15076D01*
X31408D01*
Y15806D01*
D02*
G37*
G36*
X9908D02*
X9027D01*
Y15076D01*
X9908D01*
Y15806D01*
D02*
G37*
G36*
X30273D02*
X29392D01*
Y15076D01*
X30273D01*
Y15806D01*
D02*
G37*
G36*
X8773D02*
X7892D01*
Y15076D01*
X8773D01*
Y15806D01*
D02*
G37*
G36*
X34133D02*
X33252D01*
Y15076D01*
X34133D01*
Y15806D01*
D02*
G37*
G36*
X32998D02*
X32117D01*
Y15076D01*
X32998D01*
Y15806D01*
D02*
G37*
G36*
X28658D02*
X27777D01*
Y15076D01*
X28658D01*
Y15806D01*
D02*
G37*
G36*
X12633D02*
X11752D01*
Y15076D01*
X12633D01*
Y15806D01*
D02*
G37*
G36*
X27523D02*
X26642D01*
Y15076D01*
X27523D01*
Y15806D01*
D02*
G37*
G36*
X11498D02*
X10617D01*
Y15076D01*
X11498D01*
Y15806D01*
D02*
G37*
G36*
X34133Y14822D02*
X33252D01*
Y14092D01*
X34133D01*
Y14822D01*
D02*
G37*
G36*
X32998D02*
X32117D01*
Y14092D01*
X32998D01*
Y14822D01*
D02*
G37*
G36*
X31408Y14822D02*
X30527D01*
Y14092D01*
X31408D01*
Y14822D01*
D02*
G37*
G36*
X30273D02*
X29392D01*
Y14092D01*
X30273D01*
Y14822D01*
D02*
G37*
G36*
X28658Y14822D02*
X27777D01*
Y14092D01*
X28658D01*
Y14822D01*
D02*
G37*
G36*
X27523D02*
X26642D01*
Y14092D01*
X27523D01*
Y14822D01*
D02*
G37*
G36*
X12633D02*
X11752D01*
Y14092D01*
X12633D01*
Y14822D01*
D02*
G37*
G36*
X11498D02*
X10617D01*
Y14092D01*
X11498D01*
Y14822D01*
D02*
G37*
G36*
X9908Y14822D02*
X9027D01*
Y14092D01*
X9908D01*
Y14822D01*
D02*
G37*
G36*
X8773D02*
X7892D01*
Y14092D01*
X8773D01*
Y14822D01*
D02*
G37*
G36*
X7183Y14822D02*
X6302D01*
Y14092D01*
X7183D01*
Y14822D01*
D02*
G37*
G36*
X6048D02*
X5167D01*
Y14092D01*
X6048D01*
Y14822D01*
D02*
G37*
G36*
X85382Y7254D02*
X85377D01*
Y6377D01*
X86254D01*
Y6382D01*
X86186Y6638D01*
X86053Y6866D01*
X85866Y7053D01*
X85638Y7186D01*
X85382Y7254D01*
D02*
G37*
G36*
X85123D02*
X85118D01*
X84862Y7186D01*
X84634Y7053D01*
X84447Y6866D01*
X84314Y6638D01*
X84246Y6382D01*
Y6377D01*
X85123D01*
Y7254D01*
D02*
G37*
G36*
X78882D02*
X78877D01*
Y6377D01*
X79754D01*
Y6382D01*
X79686Y6638D01*
X79553Y6866D01*
X79366Y7053D01*
X79138Y7186D01*
X78882Y7254D01*
D02*
G37*
G36*
X78623D02*
X78618D01*
X78362Y7186D01*
X78134Y7053D01*
X77947Y6866D01*
X77814Y6638D01*
X77746Y6382D01*
Y6377D01*
X78623D01*
Y7254D01*
D02*
G37*
G36*
X64382D02*
X64377D01*
Y6377D01*
X65254D01*
Y6382D01*
X65186Y6638D01*
X65053Y6866D01*
X64866Y7053D01*
X64638Y7186D01*
X64382Y7254D01*
D02*
G37*
G36*
X64123D02*
X64118D01*
X63862Y7186D01*
X63634Y7053D01*
X63447Y6866D01*
X63314Y6638D01*
X63246Y6382D01*
Y6377D01*
X64123D01*
Y7254D01*
D02*
G37*
G36*
X57882D02*
X57877D01*
Y6377D01*
X58754D01*
Y6382D01*
X58686Y6638D01*
X58553Y6866D01*
X58366Y7053D01*
X58138Y7186D01*
X57882Y7254D01*
D02*
G37*
G36*
X57623D02*
X57618D01*
X57362Y7186D01*
X57134Y7053D01*
X56947Y6866D01*
X56814Y6638D01*
X56746Y6382D01*
Y6377D01*
X57623D01*
Y7254D01*
D02*
G37*
G36*
X43382D02*
X43377D01*
Y6377D01*
X44254D01*
Y6382D01*
X44186Y6638D01*
X44053Y6866D01*
X43866Y7053D01*
X43638Y7186D01*
X43382Y7254D01*
D02*
G37*
G36*
X43123D02*
X43118D01*
X42862Y7186D01*
X42634Y7053D01*
X42447Y6866D01*
X42314Y6638D01*
X42246Y6382D01*
Y6377D01*
X43123D01*
Y7254D01*
D02*
G37*
G36*
X36882D02*
X36877D01*
Y6377D01*
X37754D01*
Y6382D01*
X37686Y6638D01*
X37553Y6866D01*
X37366Y7053D01*
X37138Y7186D01*
X36882Y7254D01*
D02*
G37*
G36*
X36623D02*
X36618D01*
X36362Y7186D01*
X36134Y7053D01*
X35947Y6866D01*
X35814Y6638D01*
X35746Y6382D01*
Y6377D01*
X36623D01*
Y7254D01*
D02*
G37*
G36*
X22382D02*
X22377D01*
Y6377D01*
X23254D01*
Y6382D01*
X23186Y6638D01*
X23053Y6866D01*
X22866Y7053D01*
X22638Y7186D01*
X22382Y7254D01*
D02*
G37*
G36*
X22123D02*
X22118D01*
X21862Y7186D01*
X21634Y7053D01*
X21447Y6866D01*
X21314Y6638D01*
X21246Y6382D01*
Y6377D01*
X22123D01*
Y7254D01*
D02*
G37*
G36*
X15882D02*
X15877D01*
Y6377D01*
X16754D01*
Y6382D01*
X16686Y6638D01*
X16553Y6866D01*
X16366Y7053D01*
X16138Y7186D01*
X15882Y7254D01*
D02*
G37*
G36*
X15623D02*
X15618D01*
X15362Y7186D01*
X15134Y7053D01*
X14947Y6866D01*
X14814Y6638D01*
X14746Y6382D01*
Y6377D01*
X15623D01*
Y7254D01*
D02*
G37*
G36*
X86254Y6123D02*
X85377D01*
Y5246D01*
X85382D01*
X85638Y5314D01*
X85866Y5447D01*
X86053Y5634D01*
X86186Y5862D01*
X86254Y6118D01*
Y6123D01*
D02*
G37*
G36*
X85123D02*
X84246D01*
Y6118D01*
X84314Y5862D01*
X84447Y5634D01*
X84634Y5447D01*
X84862Y5314D01*
X85118Y5246D01*
X85123D01*
Y6123D01*
D02*
G37*
G36*
X79754D02*
X78877D01*
Y5246D01*
X78882D01*
X79138Y5314D01*
X79366Y5447D01*
X79553Y5634D01*
X79686Y5862D01*
X79754Y6118D01*
Y6123D01*
D02*
G37*
G36*
X78623D02*
X77746D01*
Y6118D01*
X77814Y5862D01*
X77947Y5634D01*
X78134Y5447D01*
X78362Y5314D01*
X78618Y5246D01*
X78623D01*
Y6123D01*
D02*
G37*
G36*
X58754D02*
X57877D01*
Y5246D01*
X57882D01*
X58138Y5314D01*
X58366Y5447D01*
X58553Y5634D01*
X58686Y5862D01*
X58754Y6118D01*
Y6123D01*
D02*
G37*
G36*
X57623D02*
X56746D01*
Y6118D01*
X56814Y5862D01*
X56947Y5634D01*
X57134Y5447D01*
X57362Y5314D01*
X57618Y5246D01*
X57623D01*
Y6123D01*
D02*
G37*
G36*
X44254D02*
X43377D01*
Y5246D01*
X43382D01*
X43638Y5314D01*
X43866Y5447D01*
X44053Y5634D01*
X44186Y5862D01*
X44254Y6118D01*
Y6123D01*
D02*
G37*
G36*
X43123D02*
X42246D01*
Y6118D01*
X42314Y5862D01*
X42447Y5634D01*
X42634Y5447D01*
X42862Y5314D01*
X43118Y5246D01*
X43123D01*
Y6123D01*
D02*
G37*
G36*
X23254D02*
X22377D01*
Y5246D01*
X22382D01*
X22638Y5314D01*
X22866Y5447D01*
X23053Y5634D01*
X23186Y5862D01*
X23254Y6118D01*
Y6123D01*
D02*
G37*
G36*
X22123D02*
X21246D01*
Y6118D01*
X21314Y5862D01*
X21447Y5634D01*
X21634Y5447D01*
X21862Y5314D01*
X22118Y5246D01*
X22123D01*
Y6123D01*
D02*
G37*
G36*
X16754D02*
X15877D01*
Y5246D01*
X15882D01*
X16138Y5314D01*
X16366Y5447D01*
X16553Y5634D01*
X16686Y5862D01*
X16754Y6118D01*
Y6123D01*
D02*
G37*
G36*
X15623D02*
X14746D01*
Y6118D01*
X14814Y5862D01*
X14947Y5634D01*
X15134Y5447D01*
X15362Y5314D01*
X15618Y5246D01*
X15623D01*
Y6123D01*
D02*
G37*
G36*
X77032Y5907D02*
X76127D01*
Y5028D01*
X77032D01*
Y5907D01*
D02*
G37*
G36*
X47032D02*
X46127D01*
Y5028D01*
X47032D01*
Y5907D01*
D02*
G37*
G36*
X75873D02*
X74968D01*
Y5028D01*
X75873D01*
Y5907D01*
D02*
G37*
G36*
X45873D02*
X44968D01*
Y5028D01*
X45873D01*
Y5907D01*
D02*
G37*
G36*
X26032D02*
X25127D01*
Y5028D01*
X26032D01*
Y5907D01*
D02*
G37*
G36*
X24873D02*
X23968D01*
Y5028D01*
X24873D01*
Y5907D01*
D02*
G37*
G36*
X56032D02*
X55127D01*
Y5028D01*
X56032D01*
Y5907D01*
D02*
G37*
G36*
X54873D02*
X53968D01*
Y5028D01*
X54873D01*
Y5907D01*
D02*
G37*
G36*
X77032Y4774D02*
X76000D01*
X74968D01*
Y3848D01*
X74704D01*
Y4079D01*
X73246D01*
Y3285D01*
X73240Y3272D01*
X73214Y3075D01*
X73240Y2878D01*
X73246Y2865D01*
Y2121D01*
X74704D01*
Y2327D01*
X74968D01*
Y2093D01*
X75957D01*
X76742Y1308D01*
X76899Y1187D01*
X77082Y1111D01*
X77279Y1085D01*
X77995D01*
X78134Y947D01*
X78362Y814D01*
X78618Y746D01*
X78882D01*
X79138Y814D01*
X79366Y947D01*
X79409Y989D01*
X84591D01*
X84634Y947D01*
X84862Y814D01*
X85118Y746D01*
X85382D01*
X85638Y814D01*
X85866Y947D01*
X86053Y1134D01*
X86186Y1362D01*
X86254Y1618D01*
Y1882D01*
X86186Y2138D01*
X86053Y2366D01*
X85866Y2553D01*
X85638Y2686D01*
X85382Y2754D01*
X85118D01*
X84862Y2686D01*
X84634Y2553D01*
X84591Y2511D01*
X79409D01*
X79366Y2553D01*
X79138Y2686D01*
X78882Y2754D01*
X78618D01*
X78362Y2686D01*
X78225Y2606D01*
X77594D01*
X77032Y3168D01*
Y3894D01*
Y4774D01*
D02*
G37*
G36*
X26032Y4774D02*
X25000D01*
X23968D01*
Y3894D01*
Y3168D01*
X23435Y2636D01*
X22724D01*
X22638Y2686D01*
X22382Y2754D01*
X22118D01*
X21862Y2686D01*
X21634Y2553D01*
X21591Y2511D01*
X16409D01*
X16366Y2553D01*
X16138Y2686D01*
X15882Y2754D01*
X15618D01*
X15362Y2686D01*
X15134Y2553D01*
X14947Y2366D01*
X14814Y2138D01*
X14746Y1882D01*
Y1618D01*
X14814Y1362D01*
X14947Y1134D01*
X15134Y947D01*
X15362Y814D01*
X15618Y746D01*
X15882D01*
X16138Y814D01*
X16366Y947D01*
X16409Y989D01*
X21591D01*
X21634Y947D01*
X21862Y814D01*
X22118Y746D01*
X22382D01*
X22638Y814D01*
X22866Y947D01*
X23034Y1115D01*
X23750D01*
X23947Y1140D01*
X24130Y1216D01*
X24288Y1337D01*
X25043Y2093D01*
X26032D01*
Y2339D01*
X26296D01*
Y2171D01*
X27754D01*
Y2914D01*
X27760Y2927D01*
X27786Y3124D01*
Y3150D01*
X27760Y3347D01*
X27754Y3360D01*
Y4129D01*
X26296D01*
Y3860D01*
X26032D01*
Y3894D01*
Y4774D01*
D02*
G37*
%LPD*%
D10*
X50500Y23050D02*
D03*
Y20950D02*
D03*
D11*
X57425Y76999D02*
D03*
Y79101D02*
D03*
X58125Y50399D02*
D03*
Y52501D02*
D03*
X55375Y50399D02*
D03*
Y52501D02*
D03*
X53250Y77049D02*
D03*
Y79151D02*
D03*
X60300Y79101D02*
D03*
Y76999D02*
D03*
X11625Y17051D02*
D03*
Y14949D02*
D03*
X6175Y17051D02*
D03*
Y14949D02*
D03*
X8900Y17051D02*
D03*
Y14949D02*
D03*
X30400Y17051D02*
D03*
Y14949D02*
D03*
X33125Y17051D02*
D03*
Y14949D02*
D03*
X27650Y17051D02*
D03*
Y14949D02*
D03*
D12*
X50700Y65375D02*
D03*
X46950D02*
D03*
D13*
X76725Y46025D02*
D03*
Y42275D02*
D03*
D14*
X66475Y64250D02*
D03*
X64525D02*
D03*
X32975Y22900D02*
D03*
X31025D02*
D03*
X27025Y22875D02*
D03*
X28975D02*
D03*
X27025Y3150D02*
D03*
X28975D02*
D03*
X32975Y3100D02*
D03*
X31025D02*
D03*
X73975Y23300D02*
D03*
X72025D02*
D03*
X68025Y23250D02*
D03*
X69975D02*
D03*
X73975Y3100D02*
D03*
X72025D02*
D03*
X68025Y3050D02*
D03*
X69975D02*
D03*
X39025Y93000D02*
D03*
X40975D02*
D03*
X81025D02*
D03*
X82975D02*
D03*
X70525D02*
D03*
X72475D02*
D03*
X60025D02*
D03*
X61975D02*
D03*
X18025D02*
D03*
X19975D02*
D03*
X28525D02*
D03*
X30475D02*
D03*
X49525D02*
D03*
X51475D02*
D03*
D15*
X69650Y64265D02*
D03*
X78800Y61725D02*
D03*
X69650D02*
D03*
X78800Y64265D02*
D03*
D16*
X58450Y74800D02*
D03*
Y72900D02*
D03*
X60850Y73850D02*
D03*
X54275D02*
D03*
X56675Y74800D02*
D03*
Y72900D02*
D03*
D17*
X18101Y44300D02*
D03*
X15999D02*
D03*
X18100Y47025D02*
D03*
X15998D02*
D03*
X18076Y49725D02*
D03*
X15974D02*
D03*
X15899Y59625D02*
D03*
X18001D02*
D03*
X15849Y53925D02*
D03*
X17951D02*
D03*
X15849Y56775D02*
D03*
X17951D02*
D03*
D18*
X66600Y51230D02*
D03*
Y52500D02*
D03*
Y53770D02*
D03*
Y55040D02*
D03*
X61150Y51230D02*
D03*
Y52500D02*
D03*
Y53770D02*
D03*
Y55040D02*
D03*
D19*
X46000Y21099D02*
D03*
Y22901D02*
D03*
X25000Y4901D02*
D03*
Y3099D02*
D03*
Y21099D02*
D03*
Y22901D02*
D03*
X55000Y21099D02*
D03*
Y22901D02*
D03*
X46000Y4901D02*
D03*
Y3099D02*
D03*
X55000Y4901D02*
D03*
Y3099D02*
D03*
X76000Y21099D02*
D03*
Y22901D02*
D03*
X76000Y4901D02*
D03*
Y3099D02*
D03*
D20*
X56323Y47725D02*
D03*
X58125D02*
D03*
X71251D02*
D03*
X69449D02*
D03*
X84625Y41325D02*
D03*
X82823D02*
D03*
X13049Y71600D02*
D03*
X14851D02*
D03*
X45051Y85050D02*
D03*
X43249D02*
D03*
X44426Y70025D02*
D03*
X42624D02*
D03*
D21*
X50600Y25425D02*
D03*
Y27375D02*
D03*
D22*
X88300Y37200D02*
D03*
X82450D02*
D03*
D23*
X30600Y84495D02*
D03*
Y75505D02*
D03*
X39400D02*
D03*
Y84495D02*
D03*
X30600Y69495D02*
D03*
Y60505D02*
D03*
X39400D02*
D03*
Y69495D02*
D03*
D24*
X30600Y83175D02*
D03*
Y81905D02*
D03*
Y80635D02*
D03*
Y79365D02*
D03*
Y78095D02*
D03*
Y76825D02*
D03*
X39400D02*
D03*
Y78095D02*
D03*
Y79365D02*
D03*
Y80635D02*
D03*
Y81905D02*
D03*
Y83175D02*
D03*
X30600Y68175D02*
D03*
Y66905D02*
D03*
Y65635D02*
D03*
Y64365D02*
D03*
Y63095D02*
D03*
Y61825D02*
D03*
X39400D02*
D03*
Y63095D02*
D03*
Y64365D02*
D03*
Y65635D02*
D03*
Y66905D02*
D03*
Y68175D02*
D03*
D25*
X38950Y95000D02*
D03*
X41050D02*
D03*
X17950D02*
D03*
X20050D02*
D03*
X80950D02*
D03*
X83050D02*
D03*
X49450D02*
D03*
X51550D02*
D03*
X59950D02*
D03*
X62050D02*
D03*
X28450D02*
D03*
X30550D02*
D03*
X70450D02*
D03*
X72550D02*
D03*
D26*
X6175Y17051D02*
Y22950D01*
X10975Y27750D02*
Y59575D01*
X6175Y22950D02*
X10975Y27750D01*
X12400Y27000D02*
Y56750D01*
X8900Y23500D02*
X12400Y27000D01*
X8900Y17051D02*
Y23500D01*
X13700Y25325D02*
Y53950D01*
X11625Y17051D02*
Y23250D01*
X13700Y25325D01*
X34125Y78725D02*
Y88475D01*
X37075Y91425D02*
X40682D01*
X34125Y88475D02*
X37075Y91425D01*
X26900Y89875D02*
X31175D01*
X20250Y92559D02*
X24216D01*
X26900Y89875D01*
X19975Y92834D02*
X20250Y92559D01*
X83100Y91600D02*
Y93000D01*
X39175Y87225D02*
X78725D01*
X83100Y91600D01*
X72467Y92542D02*
X72667D01*
X72400Y91375D02*
Y92475D01*
X69400Y88375D02*
X72400Y91375D01*
Y92475D02*
X72467Y92542D01*
X38825Y88375D02*
X69400D01*
X62114Y91814D02*
Y92564D01*
X59625Y89325D02*
X62114Y91814D01*
X38350Y89325D02*
X59625D01*
X51475Y91850D02*
Y93000D01*
X38050Y90475D02*
X50100D01*
X51475Y91850D01*
X40682Y91425D02*
X40975Y91718D01*
Y93000D01*
X34875Y87300D02*
X38050Y90475D01*
X35650Y86625D02*
X38350Y89325D01*
X36625Y86175D02*
X38825Y88375D01*
X37550Y85600D02*
X39175Y87225D01*
X30637Y91913D02*
Y92838D01*
Y91913D02*
X33325Y89225D01*
X30475Y93000D02*
X30637Y92838D01*
X26400Y81750D02*
X27825Y83175D01*
X26400Y76025D02*
Y81750D01*
X12375Y62000D02*
X26400Y76025D01*
X25550Y82300D02*
X27745Y84495D01*
X25550Y77275D02*
Y82300D01*
X10975Y59575D02*
Y62700D01*
X25550Y77275D01*
X18151Y44250D02*
X19225D01*
X18101Y44300D02*
X18151Y44250D01*
X18125Y47050D02*
X19325D01*
X18100Y47025D02*
X18125Y47050D01*
X13700Y53950D02*
Y61075D01*
Y53950D02*
X13725Y53925D01*
X15849D01*
X21600Y49725D02*
X21675Y49800D01*
X18076Y49725D02*
X21600D01*
X12375Y56775D02*
Y62000D01*
Y56775D02*
X12400Y56750D01*
X13700Y61075D02*
X27250Y74625D01*
X36625Y79275D02*
Y86175D01*
Y79275D02*
X37805Y78095D01*
X37784Y79515D02*
X39250D01*
X37550Y79749D02*
X37784Y79515D01*
X37550Y79749D02*
Y85600D01*
X27745Y84495D02*
X30600D01*
X27250Y80725D02*
X28430Y81905D01*
X27250Y74625D02*
Y80725D01*
X33100Y17076D02*
Y18575D01*
Y17076D02*
X33125Y17051D01*
X30375Y17076D02*
Y18475D01*
Y17076D02*
X30400Y17051D01*
X27600Y17101D02*
Y18450D01*
Y17101D02*
X27650Y17051D01*
X27825Y83175D02*
X30600D01*
X28430Y81905D02*
X30600D01*
X32500Y79599D02*
Y88550D01*
X32266Y79365D02*
X32500Y79599D01*
X32166Y78116D02*
X33325Y79275D01*
Y89225D01*
X32200Y76800D02*
X34125Y78725D01*
X31175Y89875D02*
X32500Y88550D01*
X30600Y79365D02*
X32266D01*
X34875Y77775D02*
Y87300D01*
Y77775D02*
X37145Y75505D01*
X35650Y78325D02*
Y86625D01*
Y78325D02*
X37150Y76825D01*
X30625Y76800D02*
X32200D01*
X39250Y79515D02*
X39400Y79365D01*
X37805Y78095D02*
X39400D01*
X37150Y76825D02*
X39400D01*
X37145Y75505D02*
X39400D01*
X30600Y78095D02*
X30621Y78116D01*
X32166D01*
X30600Y76825D02*
X30625Y76800D01*
D27*
X65625Y68200D02*
X70930Y73505D01*
X82875D01*
X59950Y65850D02*
X70145Y76045D01*
X82875D01*
X58425Y65850D02*
X59950D01*
X14600Y71851D02*
X14851Y71600D01*
X14600Y73175D02*
X16200Y74775D01*
X14600Y71851D02*
Y73175D01*
X14851Y71574D02*
Y71600D01*
X16750Y70625D02*
X24100Y77975D01*
X15826Y70625D02*
X16750D01*
X14851Y71574D02*
X15353Y71072D01*
X15379D02*
X15826Y70625D01*
X15353Y71072D02*
X15379D01*
X16200Y74775D02*
Y79950D01*
X15322Y80828D02*
X16200Y79950D01*
X13027Y80828D02*
X15322D01*
X45475Y97400D02*
X51875D01*
X41225D02*
X45475D01*
X45375Y97300D02*
X45475Y97400D01*
X45375Y95000D02*
Y97300D01*
X30575Y97400D02*
X41225D01*
X41050Y97225D02*
X41225Y97400D01*
X41050Y95000D02*
Y97225D01*
X20775Y97400D02*
X30575D01*
X30550Y95000D02*
Y97375D01*
X30575Y97400D01*
X51713Y97238D02*
X51875Y97400D01*
X51713Y95162D02*
Y97238D01*
X51550Y95000D02*
X51713Y95162D01*
X51875Y97400D02*
X62075D01*
X72600D01*
X62050Y97375D02*
X62075Y97400D01*
X62050Y95000D02*
Y97375D01*
X72600Y97400D02*
X81925D01*
X72550Y95000D02*
Y97350D01*
X72600Y97400D01*
X83050Y95000D02*
Y96275D01*
X81925Y97400D02*
X83050Y96275D01*
X20050Y96675D02*
X20775Y97400D01*
X20050Y95000D02*
Y96675D01*
X17950Y95000D02*
X17987Y94963D01*
Y93037D02*
X18025Y93000D01*
X17987Y93037D02*
Y94963D01*
X80950Y95000D02*
X80988Y94963D01*
Y93037D02*
X81025Y93000D01*
X80988Y93037D02*
Y94963D01*
X70450Y95000D02*
X70488Y94963D01*
Y93037D02*
X70525Y93000D01*
X70488Y93037D02*
Y94963D01*
X59987Y93037D02*
Y94963D01*
X59950Y95000D02*
X59987Y94963D01*
Y93037D02*
X60025Y93000D01*
X49487Y93037D02*
Y94963D01*
X49450Y95000D02*
X49487Y94963D01*
Y93037D02*
X49525Y93000D01*
X38987Y93037D02*
X39025Y93000D01*
X38987Y93037D02*
Y94963D01*
X38950Y95000D02*
X38987Y94963D01*
X28487Y93037D02*
X28525Y93000D01*
X28487Y93037D02*
Y94963D01*
X28450Y95000D02*
X28487Y94963D01*
X46900Y62950D02*
Y70550D01*
Y47975D02*
Y62950D01*
X54950D02*
X56250Y64250D01*
X46900Y62950D02*
X54950D01*
X56250Y64250D02*
X64525D01*
X59475Y52425D02*
X59531Y52481D01*
X61131D02*
X61150Y52500D01*
X59437Y52463D02*
X59475Y52425D01*
X58363Y52463D02*
X59437D01*
X59531Y52481D02*
X61131D01*
X58326Y52500D02*
X58363Y52463D01*
X58425Y53845D02*
Y55750D01*
X50575Y56650D02*
X55650Y61725D01*
X69650D01*
X50575Y27400D02*
Y28475D01*
Y27400D02*
X50600Y27375D01*
X50550Y28500D02*
X50575Y28475D01*
X39417Y65618D02*
X41607D01*
X41625Y65600D01*
X39400Y65635D02*
X39417Y65618D01*
X39400Y66905D02*
X39435Y66940D01*
X41865D01*
X41900Y66975D01*
X50225Y13925D02*
X50500Y14200D01*
Y20950D01*
X50550Y23100D02*
Y25375D01*
X50600Y25425D01*
X50500Y23050D02*
X50550Y23100D01*
X45472Y20571D02*
Y20597D01*
X43250Y19750D02*
X44651D01*
X45472Y20571D01*
Y20597D02*
X45974Y21099D01*
X46000D01*
X55528Y20571D02*
X56224Y19875D01*
X57625D01*
X55528Y20571D02*
Y20597D01*
X55000Y21099D02*
X55026D01*
X55528Y20597D01*
X46000Y21099D02*
X46149Y20950D01*
X54851D02*
X55000Y21099D01*
X57625Y19875D02*
X57750Y19750D01*
X55525Y73850D02*
X56475Y72900D01*
X53504Y76646D02*
X53854D01*
X53325Y76825D02*
X53504Y76646D01*
X53854D02*
X55450Y75050D01*
Y73925D02*
X55525Y73850D01*
X55450Y73925D02*
Y75050D01*
X56475Y72900D02*
X56675D01*
X55525Y73850D02*
X60850D01*
X55250Y76817D02*
Y79126D01*
X56625Y74850D02*
X56675Y74800D01*
X56541Y74850D02*
Y75526D01*
Y74850D02*
X56625D01*
X55250Y76817D02*
X56541Y75526D01*
X53275Y79126D02*
X55250D01*
X57400D01*
X57425Y79101D01*
X53250Y79151D02*
X53275Y79126D01*
X61800Y70950D02*
X61825Y70925D01*
X55924Y70950D02*
X61800D01*
X51099Y66125D02*
X55924Y70950D01*
X51034Y66084D02*
X51075Y66125D01*
X51099D01*
X82823Y37573D02*
Y41351D01*
X81655Y36405D02*
X82823Y37573D01*
X69000Y40300D02*
X75875D01*
X79770Y36405D02*
X81655D01*
X75875Y40300D02*
X79770Y36405D01*
X76725Y42275D02*
X81899D01*
X82823Y41351D01*
X76808Y46107D02*
X82467D01*
X76725Y46025D02*
X76808Y46107D01*
X82467D02*
X82550Y46190D01*
X45125Y72325D02*
X46900Y70550D01*
X27450Y72325D02*
X45125D01*
X17951Y56775D02*
Y62826D01*
X60250Y79151D02*
Y80650D01*
Y79151D02*
X60300Y79101D01*
X68220Y51230D02*
X69449Y50001D01*
Y47699D02*
Y50001D01*
X66600Y51230D02*
X68220D01*
X67025Y41725D02*
Y45275D01*
X69449Y47699D01*
X67025Y41725D02*
X68239Y40511D01*
X68799D02*
X69000Y40310D01*
X68239Y40511D02*
X68799D01*
X41500Y32125D02*
X69100D01*
X76000Y22901D02*
Y25225D01*
X69100Y32125D02*
X76000Y25225D01*
X39423Y81927D02*
X39435Y81915D01*
X58139Y41136D02*
Y47711D01*
X46900Y47975D02*
X53739Y41136D01*
X58139D01*
X64045Y35230D02*
X69000D01*
X58139Y41136D02*
X64045Y35230D01*
X45125Y79100D02*
Y81925D01*
Y72325D02*
Y79100D01*
X58425Y53845D02*
X58500Y53770D01*
X54087Y52538D02*
X55338D01*
X55351Y52525D01*
X66557Y64233D02*
X69618D01*
X69650Y64265D01*
X82765Y64255D02*
X82775Y64245D01*
X78800Y64265D02*
X78810Y64255D01*
X78800Y61725D02*
X78810Y61715D01*
X82765D02*
X82775Y61705D01*
X45125Y79100D02*
X52461D01*
X45125Y79100D02*
X45125Y79100D01*
X52875Y73850D02*
X54275D01*
X82875Y76045D02*
X84270D01*
X87500Y79275D02*
Y95000D01*
X84270Y76045D02*
X87500Y79275D01*
X85405Y73505D02*
X92000Y80100D01*
X82875Y73505D02*
X85405D01*
X92000Y80100D02*
Y95000D01*
X84925Y41325D02*
Y51500D01*
X81375Y55050D02*
X84925Y51500D01*
X67900Y55050D02*
X81375D01*
X69925Y52500D02*
X71250Y51175D01*
X75775D02*
X78220Y48730D01*
X71250Y51175D02*
X75775D01*
X66600Y55040D02*
X67900D01*
X84625Y41325D02*
X84775Y41175D01*
X85127Y40823D01*
X78030Y51270D02*
X82550D01*
X76772Y52528D02*
X78030Y51270D01*
X71972Y52528D02*
X76772D01*
X78220Y48730D02*
X82550D01*
X66600Y52500D02*
X69925D01*
X70730Y53770D02*
X71972Y52528D01*
X24100Y42175D02*
Y63375D01*
X27630Y66905D01*
X24100Y42175D02*
X33125Y33150D01*
X22925Y47075D02*
Y63775D01*
Y40975D02*
Y47075D01*
X21675Y49800D02*
Y64100D01*
Y40075D02*
Y49800D01*
X15999Y49725D02*
X16036Y49762D01*
Y50936D02*
X17814Y52714D01*
X16036Y49762D02*
Y50936D01*
X17814Y52714D02*
Y53788D01*
X17951Y53925D01*
X15999Y44300D02*
Y49725D01*
X17951Y54425D02*
Y56775D01*
X17850Y54324D02*
X17951Y54425D01*
X14625Y59600D02*
X15874D01*
X15899Y59625D01*
X14775Y56775D02*
X15849D01*
X42624Y72324D02*
X42625Y72325D01*
X42624Y70025D02*
Y72324D01*
X17951Y62826D02*
X27450Y72325D01*
X71251Y47725D02*
X71326Y47800D01*
X72600D01*
X69000Y42850D02*
X71251Y45101D01*
Y47725D01*
X85127Y40373D02*
Y40823D01*
X87825Y38125D02*
X88425Y37525D01*
X85127Y40373D02*
X87375Y38125D01*
X87825D01*
X55375Y50599D02*
X58125D01*
X43202Y85012D02*
X43245Y85054D01*
X40643Y85000D02*
X41775D01*
X58125Y47725D02*
X58125Y47725D01*
X58500Y53770D02*
X61150D01*
X56595D02*
X58500D01*
X42244Y69645D02*
X42624Y70025D01*
X39400Y69495D02*
X39550Y69645D01*
X42244D01*
X43675Y83375D02*
X45125Y81925D01*
X39400Y68175D02*
X43175D01*
X40625Y30450D02*
X51550D01*
X57750Y24250D01*
X26575Y44500D02*
X40625Y30450D01*
X27900Y45725D02*
X41500Y32125D01*
X44475Y58500D02*
Y61475D01*
Y58400D02*
Y58500D01*
X41700D02*
Y61075D01*
Y58350D02*
Y58500D01*
X39400D02*
Y60505D01*
Y58450D02*
Y58500D01*
X41685Y64265D02*
X44475Y61475D01*
X39500Y64265D02*
X41685D01*
X43100Y58450D02*
Y61400D01*
X41405Y63095D02*
X43100Y61400D01*
X39400Y63095D02*
X41405D01*
X39400Y64365D02*
X39500Y64265D01*
X40980Y61795D02*
X41700Y61075D01*
X39430Y61795D02*
X40980D01*
X39400Y61825D02*
X39430Y61795D01*
X28880Y80605D02*
X30570D01*
X28850Y80575D02*
X28880Y80605D01*
X30570D02*
X30600Y80635D01*
X78750Y6250D02*
X85250D01*
X36750Y24250D02*
X43250D01*
X24472Y20571D02*
Y20597D01*
X24974Y21099D02*
X25000D01*
X23651Y19750D02*
X24472Y20571D01*
Y20597D02*
X24974Y21099D01*
X15750Y19750D02*
X23651D01*
X8900Y14949D02*
X11625D01*
X6175D02*
X8900D01*
X30400D02*
X33125D01*
X27650D02*
X30400D01*
X78750Y19750D02*
X85250D01*
X76000Y21099D02*
X76026D01*
X76528Y20571D02*
X77349Y19750D01*
X78750D01*
X76026Y21099D02*
X76528Y20597D01*
Y20571D02*
Y20597D01*
X21675Y64100D02*
X27070Y69495D01*
X21675Y40075D02*
X27600Y34150D01*
X25325Y62350D02*
X27340Y64365D01*
X25325Y43475D02*
X36750Y32050D01*
X25325Y43475D02*
Y62350D01*
X26575Y44500D02*
Y61475D01*
X28180Y63080D01*
X27600Y28100D02*
Y34150D01*
X30375Y28000D02*
Y33525D01*
X22925Y40975D02*
X30375Y33525D01*
X33125Y28000D02*
Y33150D01*
X36750Y24250D02*
Y32050D01*
X27900Y45725D02*
Y60875D01*
X28850Y61825D02*
X30025D01*
X27900Y60875D02*
X28850Y61825D01*
X27340Y64365D02*
X30600D01*
X27070Y69495D02*
X30600D01*
X27630Y66905D02*
X30600D01*
X28180Y63080D02*
X30585D01*
X30600Y63095D01*
X22925Y63775D02*
X27325Y68175D01*
X30583Y65618D02*
X30600Y65635D01*
X28593Y65618D02*
X30583D01*
X28575Y65600D02*
X28593Y65618D01*
X41818Y85012D02*
X43202D01*
X41675Y84950D02*
X41756D01*
X41818Y85012D01*
X43675Y83375D02*
Y84624D01*
X43249Y85050D02*
X43675Y84624D01*
X40200Y84495D02*
X40350Y84645D01*
Y84707D01*
X39400Y84495D02*
X40200D01*
X40350Y84707D02*
X40643Y85000D01*
X41875Y75725D02*
Y81412D01*
X41382Y81905D02*
X41875Y81412D01*
X40240Y81905D02*
X41382D01*
X39400Y83175D02*
X41950D01*
X43225Y81900D01*
Y76750D02*
Y81900D01*
X39435Y81915D02*
X40240D01*
X59830Y51230D02*
X61150D01*
X58197Y50671D02*
X59271D01*
X58125Y50599D02*
X58197Y50671D01*
X59271D02*
X59830Y51230D01*
X58125Y47725D02*
Y50399D01*
X66600Y53770D02*
X70730D01*
X55526Y52701D02*
X56595Y53770D01*
X60300Y76999D02*
X60403Y76896D01*
X58750Y74909D02*
X58975Y75134D01*
X58750Y74900D02*
Y74909D01*
X58975Y75134D02*
Y76999D01*
X58650Y74800D02*
X58750Y74900D01*
X58450Y74800D02*
X58650D01*
X58975Y76999D02*
X60300D01*
X57600D02*
X58975D01*
X57575Y77024D02*
X57600Y76999D01*
X27325Y68175D02*
X30600D01*
D28*
X50225Y13925D02*
X60975D01*
X40425D02*
X50225D01*
X71012Y22021D02*
Y23300D01*
X31000Y22888D02*
X31025Y22863D01*
X70616Y21625D02*
X71012Y22021D01*
X62600Y21625D02*
X70616D01*
X60975Y20000D02*
X62600Y21625D01*
X69975Y3050D02*
X72000D01*
X60975Y13925D02*
Y20000D01*
X70000Y23250D02*
X71000D01*
X30000Y3112D02*
Y4341D01*
X30284Y4625D02*
X38075D01*
X30000Y4341D02*
X30284Y4625D01*
X31025Y21586D02*
X31611Y21000D01*
X34525D01*
X35250Y21725D01*
X31025Y21586D02*
Y22863D01*
X70975Y3291D02*
Y4050D01*
X62800Y4675D02*
X70350D01*
X70975Y4050D01*
X72000Y3050D02*
X72025Y3075D01*
Y3100D01*
X70000D02*
X70675D01*
X69975Y3050D02*
Y3075D01*
X70000Y3100D01*
X60975Y6500D02*
X62800Y4675D01*
X60975Y6500D02*
Y13925D01*
X40150Y13650D02*
X40425Y13925D01*
X71012Y23300D02*
X72025D01*
X38075Y4625D02*
X40150Y6700D01*
X38750Y21725D02*
X40150Y20325D01*
Y13650D02*
Y20325D01*
Y6700D02*
Y13650D01*
X35250Y21725D02*
X38750D01*
X28987Y22888D02*
X31000D01*
X30000Y3112D02*
X31013D01*
X28987D02*
X30000D01*
D29*
X55351Y52525D02*
X55375Y52501D01*
X39400Y81905D02*
X39423Y81927D01*
D30*
X78810Y64255D02*
X82765D01*
X78810Y61715D02*
X82765D01*
X27025Y3124D02*
Y3150D01*
X25000Y3099D02*
X27000D01*
X27025Y3124D01*
X22375Y1875D02*
X23750D01*
X24974Y3099D01*
X25000D01*
X22250Y1750D02*
X22375Y1875D01*
X15750Y1750D02*
X22250D01*
X78750Y24250D02*
X85250D01*
X57750D02*
X64250D01*
X15750D02*
X22250D01*
X78750Y1750D02*
X85250D01*
X57750D02*
X64250D01*
X57654Y1846D02*
X57750Y1750D01*
X56279Y1846D02*
X57654D01*
X55026Y3099D02*
X56279Y1846D01*
X55000Y3099D02*
X55026D01*
X36750Y1750D02*
X43250D01*
X75800Y23100D02*
X76000Y22901D01*
X25000Y22901D02*
X27000D01*
X24974D02*
X25000D01*
X45748Y2847D02*
X46000Y3099D01*
X44482Y2847D02*
X45748D01*
X43385Y1750D02*
X44482Y2847D01*
X43250Y1750D02*
X43385D01*
X33000Y23125D02*
X33200D01*
X34325Y24250D02*
X36750D01*
X33200Y23125D02*
X34325Y24250D01*
X27000Y22901D02*
X27025Y22876D01*
X22250Y24250D02*
X22346Y24154D01*
X23721D01*
X27025Y22875D02*
Y22876D01*
X23721Y24154D02*
X24974Y22901D01*
X57615Y24250D02*
X57750D01*
X55000Y22901D02*
X55252Y23153D01*
X56518D02*
X57615Y24250D01*
X55252Y23153D02*
X56518D01*
X45748D02*
X46000Y22901D01*
X43250Y24250D02*
X43385D01*
X44482Y23153D02*
X45748D01*
X43385Y24250D02*
X44482Y23153D01*
X36615Y1750D02*
X36750D01*
X35265Y3100D02*
X36615Y1750D01*
X32975Y3100D02*
X35265D01*
X76026Y3099D02*
X77279Y1846D01*
X73975Y3075D02*
X73987Y3087D01*
X75988D01*
X76000Y3099D01*
X77279Y1846D02*
X78654D01*
X76000Y3099D02*
X76026D01*
X78654Y1846D02*
X78750Y1750D01*
X64250D02*
X66925D01*
X68025Y2850D01*
Y3050D01*
X78615Y24250D02*
X78750D01*
X74000Y23100D02*
X75800D01*
X76000Y22901D02*
X76252Y23153D01*
X77518D02*
X78615Y24250D01*
X73975Y23125D02*
X74000Y23100D01*
X73975Y23125D02*
Y23300D01*
X76252Y23153D02*
X77518D01*
X64385Y24250D02*
X65385Y23250D01*
X64250Y24250D02*
X64385D01*
X65385Y23250D02*
X68025D01*
D31*
X66525Y94750D02*
D03*
X92000Y95000D02*
D03*
X87500D02*
D03*
X45375D02*
D03*
D32*
X13027Y80828D02*
D03*
Y75748D02*
D03*
Y83114D02*
D03*
Y78161D02*
D03*
D33*
X97500Y87500D02*
D03*
X4500Y32500D02*
D03*
X97500D02*
D03*
D34*
X4500Y87500D02*
D03*
D35*
X22000Y81082D02*
D03*
D36*
X82775Y61705D02*
D03*
X82550Y46190D02*
D03*
X82875Y70965D02*
D03*
D37*
X82775Y64245D02*
D03*
X82550Y48730D02*
D03*
Y51270D02*
D03*
Y53810D02*
D03*
X82875Y73505D02*
D03*
Y76045D02*
D03*
Y78585D02*
D03*
X15750Y6250D02*
D03*
Y1750D02*
D03*
X22250Y6250D02*
D03*
Y1750D02*
D03*
X85250D02*
D03*
Y6250D02*
D03*
X78750Y1750D02*
D03*
Y6250D02*
D03*
X43250Y1750D02*
D03*
Y6250D02*
D03*
X36750Y1750D02*
D03*
Y6250D02*
D03*
X64250Y1750D02*
D03*
Y6250D02*
D03*
X57750Y1750D02*
D03*
Y6250D02*
D03*
X78750Y24250D02*
D03*
Y19750D02*
D03*
X85250Y24250D02*
D03*
Y19750D02*
D03*
X57750Y24250D02*
D03*
Y19750D02*
D03*
X64250Y24250D02*
D03*
Y19750D02*
D03*
X36750Y24250D02*
D03*
Y19750D02*
D03*
X43250Y24250D02*
D03*
Y19750D02*
D03*
X15750Y24250D02*
D03*
Y19750D02*
D03*
X22250Y24250D02*
D03*
Y19750D02*
D03*
D38*
X69000Y35230D02*
D03*
Y37770D02*
D03*
Y40310D02*
D03*
D39*
Y42850D02*
D03*
D40*
X24100Y77975D02*
D03*
X76950Y69800D02*
D03*
X67925Y76925D02*
D03*
X85250Y92825D02*
D03*
X76650Y95150D02*
D03*
X55150Y95200D02*
D03*
X45225Y92125D02*
D03*
X36150Y95625D02*
D03*
X23550Y95500D02*
D03*
X58425Y65850D02*
D03*
X59475Y52425D02*
D03*
X58425Y55750D02*
D03*
X50575Y56650D02*
D03*
X50550Y28500D02*
D03*
X41625Y65600D02*
D03*
X41900Y66975D02*
D03*
X61825Y70925D02*
D03*
X60250Y80650D02*
D03*
X67325Y49175D02*
D03*
X34775Y58375D02*
D03*
X34625Y73650D02*
D03*
X65625Y68200D02*
D03*
X54087Y52538D02*
D03*
X45125Y72325D02*
D03*
X52875Y73850D02*
D03*
X24100Y44125D02*
D03*
X19225Y44250D02*
D03*
X22925Y47075D02*
D03*
X19325Y47050D02*
D03*
X12400Y56750D02*
D03*
X10975Y59575D02*
D03*
X14625Y59600D02*
D03*
X14775Y56775D02*
D03*
X72600Y47800D02*
D03*
X67900Y55050D02*
D03*
X71000Y23250D02*
D03*
X43175Y68175D02*
D03*
X39400Y58500D02*
D03*
X41700D02*
D03*
X43100D02*
D03*
X44475D02*
D03*
X33100Y18575D02*
D03*
X28850Y80575D02*
D03*
X28575Y65600D02*
D03*
X33125Y28000D02*
D03*
X30375D02*
D03*
X27600Y28100D02*
D03*
X30375Y18475D02*
D03*
X27600Y18450D02*
D03*
X41675Y84950D02*
D03*
X41875Y75725D02*
D03*
X43225Y76750D02*
D03*
%TF.MD5,745489e0940d1980b398367c50428f50*%
M02*
