%TF.GenerationSoftware,Altium Limited,Altium Designer,21.6.4 (81)*%
G04 Layer_Physical_Order=2*
G04 Layer_Color=16711680*
%FSLAX43Y43*%
%MOMM*%
%TF.SameCoordinates,6460C9BA-4ACB-47D4-91E6-0B69D92CFE26*%
%TF.FilePolarity,Positive*%
%TF.FileFunction,Copper,L2,Bot,Signal*%
%TF.Part,Single*%
G01*
G75*
%TA.AperFunction,Conductor*%
%ADD26C,0.400*%
%ADD27C,0.500*%
%TA.AperFunction,ComponentPad*%
%ADD31C,2.286*%
%ADD32O,2.540X1.778*%
%ADD33C,5.588*%
%ADD34C,5.842*%
%ADD35C,1.524*%
G04:AMPARAMS|DCode=36|XSize=1.5mm|YSize=1.5mm|CornerRadius=0.375mm|HoleSize=0mm|Usage=FLASHONLY|Rotation=90.000|XOffset=0mm|YOffset=0mm|HoleType=Round|Shape=RoundedRectangle|*
%AMROUNDEDRECTD36*
21,1,1.500,0.750,0,0,90.0*
21,1,0.750,1.500,0,0,90.0*
1,1,0.750,0.375,0.375*
1,1,0.750,0.375,-0.375*
1,1,0.750,-0.375,-0.375*
1,1,0.750,-0.375,0.375*
%
%ADD36ROUNDEDRECTD36*%
%ADD37C,1.500*%
%ADD38C,1.550*%
%ADD39R,1.550X1.550*%
%TA.AperFunction,ViaPad*%
%ADD40C,0.800*%
G36*
X96189Y40050D02*
X96217Y39912D01*
X96245Y39870D01*
X90150Y33775D01*
X80700D01*
X74950Y39525D01*
X69836D01*
X69788Y39642D01*
X69823Y39678D01*
X69959Y39913D01*
X70029Y40175D01*
Y40445D01*
X69959Y40707D01*
X69823Y40942D01*
X69632Y41133D01*
X69397Y41269D01*
X69135Y41339D01*
X68865D01*
X68603Y41269D01*
X68368Y41133D01*
X68177Y40942D01*
X68041Y40707D01*
X67971Y40445D01*
Y40175D01*
X68041Y39913D01*
X68177Y39678D01*
X68212Y39642D01*
X68164Y39525D01*
X67825D01*
X65400Y41950D01*
Y55818D01*
X66857Y57275D01*
X77385D01*
Y65950D01*
X91225Y65975D01*
X96189D01*
Y40050D01*
D02*
G37*
G36*
X93950Y91700D02*
X92812D01*
Y82275D01*
X97799D01*
X97847Y82158D01*
X96295Y80605D01*
X96217Y80488D01*
X96189Y80350D01*
Y68575D01*
X71275D01*
Y59400D01*
X65700D01*
X62275Y55975D01*
Y40375D01*
X64100Y38550D01*
X68159D01*
X68207Y38433D01*
X68177Y38402D01*
X68041Y38167D01*
X67971Y37905D01*
Y37897D01*
X69000D01*
X70029D01*
Y37905D01*
X70023Y37929D01*
X70133Y37992D01*
X77725Y30400D01*
X91050D01*
Y361D01*
X9475Y361D01*
Y9225D01*
X361D01*
X361Y27800D01*
X9375D01*
Y37250D01*
X361D01*
X361Y82250D01*
X9650D01*
Y99639D01*
X93950Y99639D01*
Y91700D01*
D02*
G37*
%LPC*%
G36*
X82907Y65249D02*
X82643D01*
X82387Y65181D01*
X82159Y65048D01*
X81972Y64861D01*
X81839Y64633D01*
X81771Y64377D01*
Y64113D01*
X81839Y63857D01*
X81972Y63629D01*
X82159Y63442D01*
X82387Y63309D01*
X82643Y63241D01*
X82907D01*
X83163Y63309D01*
X83391Y63442D01*
X83578Y63629D01*
X83711Y63857D01*
X83779Y64113D01*
Y64377D01*
X83711Y64633D01*
X83578Y64861D01*
X83391Y65048D01*
X83163Y65181D01*
X82907Y65249D01*
D02*
G37*
G36*
X83150Y62721D02*
X82400D01*
X82155Y62673D01*
X81947Y62533D01*
X81808Y62325D01*
X81759Y62080D01*
Y61330D01*
X81808Y61085D01*
X81947Y60877D01*
X82155Y60737D01*
X82400Y60689D01*
X83150D01*
X83395Y60737D01*
X83603Y60877D01*
X83743Y61085D01*
X83791Y61330D01*
Y62080D01*
X83743Y62325D01*
X83603Y62533D01*
X83395Y62673D01*
X83150Y62721D01*
D02*
G37*
G36*
X68027Y55693D02*
Y55177D01*
X68543D01*
X68509Y55302D01*
X68423Y55452D01*
X68302Y55573D01*
X68152Y55659D01*
X68027Y55693D01*
D02*
G37*
G36*
X67773D02*
X67648Y55659D01*
X67498Y55573D01*
X67377Y55452D01*
X67291Y55302D01*
X67257Y55177D01*
X67773D01*
Y55693D01*
D02*
G37*
G36*
X68543Y54923D02*
X68027D01*
Y54407D01*
X68152Y54441D01*
X68302Y54527D01*
X68423Y54648D01*
X68509Y54798D01*
X68543Y54923D01*
D02*
G37*
G36*
X67773D02*
X67257D01*
X67291Y54798D01*
X67377Y54648D01*
X67498Y54527D01*
X67648Y54441D01*
X67773Y54407D01*
Y54923D01*
D02*
G37*
G36*
X82682Y54814D02*
X82677D01*
Y53937D01*
X83554D01*
Y53942D01*
X83486Y54198D01*
X83353Y54426D01*
X83166Y54613D01*
X82938Y54746D01*
X82682Y54814D01*
D02*
G37*
G36*
X82423D02*
X82418D01*
X82162Y54746D01*
X81934Y54613D01*
X81747Y54426D01*
X81614Y54198D01*
X81546Y53942D01*
Y53937D01*
X82423D01*
Y54814D01*
D02*
G37*
G36*
X83554Y53683D02*
X82677D01*
Y52806D01*
X82682D01*
X82938Y52874D01*
X83166Y53007D01*
X83353Y53194D01*
X83486Y53422D01*
X83554Y53678D01*
Y53683D01*
D02*
G37*
G36*
X82423D02*
X81546D01*
Y53678D01*
X81614Y53422D01*
X81747Y53194D01*
X81934Y53007D01*
X82162Y52874D01*
X82418Y52806D01*
X82423D01*
Y53683D01*
D02*
G37*
G36*
X82682Y52274D02*
X82418D01*
X82162Y52206D01*
X81934Y52073D01*
X81747Y51886D01*
X81614Y51658D01*
X81546Y51402D01*
Y51138D01*
X81614Y50882D01*
X81747Y50654D01*
X81934Y50467D01*
X82162Y50334D01*
X82418Y50266D01*
X82682D01*
X82938Y50334D01*
X83166Y50467D01*
X83353Y50654D01*
X83486Y50882D01*
X83554Y51138D01*
Y51402D01*
X83486Y51658D01*
X83353Y51886D01*
X83166Y52073D01*
X82938Y52206D01*
X82682Y52274D01*
D02*
G37*
G36*
X67452Y49818D02*
Y49302D01*
X67968D01*
X67934Y49427D01*
X67848Y49577D01*
X67727Y49698D01*
X67577Y49784D01*
X67452Y49818D01*
D02*
G37*
G36*
X67198D02*
X67073Y49784D01*
X66923Y49698D01*
X66802Y49577D01*
X66716Y49427D01*
X66682Y49302D01*
X67198D01*
Y49818D01*
D02*
G37*
G36*
X67968Y49048D02*
X67452D01*
Y48532D01*
X67577Y48566D01*
X67727Y48652D01*
X67848Y48773D01*
X67934Y48923D01*
X67968Y49048D01*
D02*
G37*
G36*
X67198D02*
X66682D01*
X66716Y48923D01*
X66802Y48773D01*
X66923Y48652D01*
X67073Y48566D01*
X67198Y48532D01*
Y49048D01*
D02*
G37*
G36*
X72727Y48443D02*
Y47927D01*
X73243D01*
X73209Y48052D01*
X73123Y48202D01*
X73002Y48323D01*
X72852Y48409D01*
X72727Y48443D01*
D02*
G37*
G36*
X72473D02*
X72348Y48409D01*
X72198Y48323D01*
X72077Y48202D01*
X71991Y48052D01*
X71957Y47927D01*
X72473D01*
Y48443D01*
D02*
G37*
G36*
X82682Y49734D02*
X82418D01*
X82162Y49666D01*
X81934Y49533D01*
X81747Y49346D01*
X81614Y49118D01*
X81546Y48862D01*
Y48598D01*
X81614Y48342D01*
X81747Y48114D01*
X81934Y47927D01*
X82162Y47794D01*
X82418Y47726D01*
X82682D01*
X82938Y47794D01*
X83166Y47927D01*
X83353Y48114D01*
X83486Y48342D01*
X83554Y48598D01*
Y48862D01*
X83486Y49118D01*
X83353Y49346D01*
X83166Y49533D01*
X82938Y49666D01*
X82682Y49734D01*
D02*
G37*
G36*
X73243Y47673D02*
X72727D01*
Y47157D01*
X72852Y47191D01*
X73002Y47277D01*
X73123Y47398D01*
X73209Y47548D01*
X73243Y47673D01*
D02*
G37*
G36*
X72473D02*
X71957D01*
X71991Y47548D01*
X72077Y47398D01*
X72198Y47277D01*
X72348Y47191D01*
X72473Y47157D01*
Y47673D01*
D02*
G37*
G36*
X82925Y47206D02*
X82175D01*
X81930Y47158D01*
X81722Y47018D01*
X81582Y46810D01*
X81534Y46565D01*
Y45815D01*
X81582Y45570D01*
X81722Y45362D01*
X81930Y45222D01*
X82175Y45174D01*
X82925D01*
X83170Y45222D01*
X83378Y45362D01*
X83518Y45570D01*
X83566Y45815D01*
Y46565D01*
X83518Y46810D01*
X83378Y47018D01*
X83170Y47158D01*
X82925Y47206D01*
D02*
G37*
G36*
X70029Y43879D02*
X69127D01*
Y42977D01*
X70029D01*
Y43879D01*
D02*
G37*
G36*
X68873D02*
X67971D01*
Y42977D01*
X68873D01*
Y43879D01*
D02*
G37*
G36*
X70029Y42723D02*
X69127D01*
Y41821D01*
X70029D01*
Y42723D01*
D02*
G37*
G36*
X68873D02*
X67971D01*
Y41821D01*
X68873D01*
Y42723D01*
D02*
G37*
G36*
X36236Y96279D02*
X36064D01*
X35898Y96234D01*
X35748Y96148D01*
X35627Y96027D01*
X35541Y95877D01*
X35496Y95711D01*
Y95539D01*
X35541Y95373D01*
X35627Y95223D01*
X35748Y95102D01*
X35898Y95016D01*
X36064Y94971D01*
X36236D01*
X36402Y95016D01*
X36552Y95102D01*
X36673Y95223D01*
X36759Y95373D01*
X36804Y95539D01*
Y95711D01*
X36759Y95877D01*
X36673Y96027D01*
X36552Y96148D01*
X36402Y96234D01*
X36236Y96279D01*
D02*
G37*
G36*
X66709Y96147D02*
X66652D01*
Y94877D01*
X67922D01*
Y94934D01*
X67827Y95289D01*
X67643Y95608D01*
X67383Y95868D01*
X67064Y96052D01*
X66709Y96147D01*
D02*
G37*
G36*
X66398D02*
X66341D01*
X65986Y96052D01*
X65667Y95868D01*
X65407Y95608D01*
X65223Y95289D01*
X65128Y94934D01*
Y94877D01*
X66398D01*
Y96147D01*
D02*
G37*
G36*
X23636Y96154D02*
X23464D01*
X23298Y96109D01*
X23148Y96023D01*
X23027Y95902D01*
X22941Y95752D01*
X22896Y95586D01*
Y95414D01*
X22941Y95248D01*
X23027Y95098D01*
X23148Y94977D01*
X23298Y94891D01*
X23464Y94846D01*
X23636D01*
X23802Y94891D01*
X23952Y94977D01*
X24073Y95098D01*
X24159Y95248D01*
X24204Y95414D01*
Y95586D01*
X24159Y95752D01*
X24073Y95902D01*
X23952Y96023D01*
X23802Y96109D01*
X23636Y96154D01*
D02*
G37*
G36*
X55236Y95854D02*
X55064D01*
X54898Y95809D01*
X54748Y95723D01*
X54627Y95602D01*
X54541Y95452D01*
X54496Y95286D01*
Y95114D01*
X54541Y94948D01*
X54627Y94798D01*
X54748Y94677D01*
X54898Y94591D01*
X55064Y94546D01*
X55236D01*
X55402Y94591D01*
X55552Y94677D01*
X55673Y94798D01*
X55759Y94948D01*
X55804Y95114D01*
Y95286D01*
X55759Y95452D01*
X55673Y95602D01*
X55552Y95723D01*
X55402Y95809D01*
X55236Y95854D01*
D02*
G37*
G36*
X76736Y95804D02*
X76564D01*
X76398Y95759D01*
X76248Y95673D01*
X76127Y95552D01*
X76041Y95402D01*
X75996Y95236D01*
Y95064D01*
X76041Y94898D01*
X76127Y94748D01*
X76248Y94627D01*
X76398Y94541D01*
X76564Y94496D01*
X76736D01*
X76902Y94541D01*
X77052Y94627D01*
X77173Y94748D01*
X77259Y94898D01*
X77304Y95064D01*
Y95236D01*
X77259Y95402D01*
X77173Y95552D01*
X77052Y95673D01*
X76902Y95759D01*
X76736Y95804D01*
D02*
G37*
G36*
X92184Y96397D02*
X91816D01*
X91461Y96302D01*
X91142Y96118D01*
X90882Y95858D01*
X90698Y95539D01*
X90603Y95184D01*
Y94816D01*
X90698Y94461D01*
X90882Y94142D01*
X91142Y93882D01*
X91461Y93698D01*
X91816Y93603D01*
X92184D01*
X92539Y93698D01*
X92858Y93882D01*
X93118Y94142D01*
X93302Y94461D01*
X93397Y94816D01*
Y95184D01*
X93302Y95539D01*
X93118Y95858D01*
X92858Y96118D01*
X92539Y96302D01*
X92184Y96397D01*
D02*
G37*
G36*
X87684D02*
X87316D01*
X86961Y96302D01*
X86642Y96118D01*
X86382Y95858D01*
X86198Y95539D01*
X86103Y95184D01*
Y94816D01*
X86198Y94461D01*
X86382Y94142D01*
X86642Y93882D01*
X86961Y93698D01*
X87316Y93603D01*
X87684D01*
X88039Y93698D01*
X88358Y93882D01*
X88618Y94142D01*
X88802Y94461D01*
X88897Y94816D01*
Y95184D01*
X88802Y95539D01*
X88618Y95858D01*
X88358Y96118D01*
X88039Y96302D01*
X87684Y96397D01*
D02*
G37*
G36*
X45559D02*
X45191D01*
X44836Y96302D01*
X44517Y96118D01*
X44257Y95858D01*
X44073Y95539D01*
X43978Y95184D01*
Y94816D01*
X44073Y94461D01*
X44086Y94438D01*
X41312Y91663D01*
X41200Y91497D01*
X41161Y91300D01*
Y85361D01*
X41152Y85352D01*
X41066Y85202D01*
X41021Y85036D01*
Y84864D01*
X41066Y84698D01*
X41152Y84548D01*
X41273Y84427D01*
X41423Y84341D01*
X41589Y84296D01*
X41761D01*
X41927Y84341D01*
X42077Y84427D01*
X42198Y84548D01*
X42284Y84698D01*
X42329Y84864D01*
Y85036D01*
X42284Y85202D01*
X42198Y85352D01*
X42189Y85361D01*
Y91087D01*
X44813Y93711D01*
X44836Y93698D01*
X45191Y93603D01*
X45559D01*
X45914Y93698D01*
X46233Y93882D01*
X46493Y94142D01*
X46677Y94461D01*
X46772Y94816D01*
Y95184D01*
X46677Y95539D01*
X46493Y95858D01*
X46233Y96118D01*
X45914Y96302D01*
X45559Y96397D01*
D02*
G37*
G36*
X67922Y94623D02*
X66652D01*
Y93353D01*
X66709D01*
X67064Y93448D01*
X67383Y93632D01*
X67643Y93892D01*
X67827Y94211D01*
X67922Y94566D01*
Y94623D01*
D02*
G37*
G36*
X66398D02*
X65128D01*
Y94566D01*
X65223Y94211D01*
X65407Y93892D01*
X65667Y93632D01*
X65986Y93448D01*
X66341Y93353D01*
X66398D01*
Y94623D01*
D02*
G37*
G36*
X85336Y93479D02*
X85164D01*
X84998Y93434D01*
X84848Y93348D01*
X84727Y93227D01*
X84641Y93077D01*
X84596Y92911D01*
Y92739D01*
X84641Y92573D01*
X84727Y92423D01*
X84848Y92302D01*
X84998Y92216D01*
X85164Y92171D01*
X85336D01*
X85502Y92216D01*
X85652Y92302D01*
X85773Y92423D01*
X85859Y92573D01*
X85904Y92739D01*
Y92911D01*
X85859Y93077D01*
X85773Y93227D01*
X85652Y93348D01*
X85502Y93434D01*
X85336Y93479D01*
D02*
G37*
G36*
X45311Y92779D02*
X45139D01*
X44973Y92734D01*
X44823Y92648D01*
X44702Y92527D01*
X44616Y92377D01*
X44571Y92211D01*
Y92039D01*
X44616Y91873D01*
X44702Y91723D01*
X44823Y91602D01*
X44973Y91516D01*
X45139Y91471D01*
X45311D01*
X45477Y91516D01*
X45627Y91602D01*
X45748Y91723D01*
X45834Y91873D01*
X45879Y92039D01*
Y92211D01*
X45834Y92377D01*
X45748Y92527D01*
X45627Y92648D01*
X45477Y92734D01*
X45311Y92779D01*
D02*
G37*
G36*
X13408Y84267D02*
X13154D01*
Y83241D01*
X14544D01*
X14522Y83412D01*
X14406Y83690D01*
X14223Y83929D01*
X13984Y84112D01*
X13706Y84228D01*
X13408Y84267D01*
D02*
G37*
G36*
X12900D02*
X12646D01*
X12348Y84228D01*
X12070Y84112D01*
X11831Y83929D01*
X11648Y83690D01*
X11532Y83412D01*
X11510Y83241D01*
X12900D01*
Y84267D01*
D02*
G37*
G36*
X22217Y83836D02*
X22127D01*
Y81209D01*
X24754D01*
Y81299D01*
X24686Y81727D01*
X24552Y82139D01*
X24355Y82525D01*
X24101Y82876D01*
X23794Y83183D01*
X23443Y83437D01*
X23057Y83634D01*
X22645Y83768D01*
X22217Y83836D01*
D02*
G37*
G36*
X21873D02*
X21783D01*
X21355Y83768D01*
X20943Y83634D01*
X20557Y83437D01*
X20206Y83183D01*
X19899Y82876D01*
X19645Y82525D01*
X19448Y82139D01*
X19314Y81727D01*
X19246Y81299D01*
Y81209D01*
X21873D01*
Y83836D01*
D02*
G37*
G36*
X60336Y81304D02*
X60164D01*
X59998Y81259D01*
X59848Y81173D01*
X59801Y81126D01*
X29203D01*
X29102Y81184D01*
X28936Y81229D01*
X28764D01*
X28598Y81184D01*
X28448Y81098D01*
X28327Y80977D01*
X28241Y80827D01*
X28196Y80661D01*
Y80489D01*
X28241Y80323D01*
X28327Y80173D01*
X28448Y80052D01*
X28598Y79966D01*
X28764Y79921D01*
X28936D01*
X29102Y79966D01*
X29252Y80052D01*
X29299Y80099D01*
X59897D01*
X59998Y80041D01*
X60164Y79996D01*
X60336D01*
X60502Y80041D01*
X60652Y80127D01*
X60773Y80248D01*
X60859Y80398D01*
X60904Y80564D01*
Y80736D01*
X60859Y80902D01*
X60773Y81052D01*
X60652Y81173D01*
X60502Y81259D01*
X60336Y81304D01*
D02*
G37*
G36*
X14544Y82987D02*
X11510D01*
X11532Y82816D01*
X11648Y82538D01*
X11831Y82299D01*
X12070Y82116D01*
X12253Y82040D01*
Y81902D01*
X12070Y81826D01*
X11831Y81643D01*
X11648Y81404D01*
X11532Y81126D01*
X11493Y80828D01*
X11532Y80530D01*
X11648Y80252D01*
X11831Y80013D01*
X12070Y79830D01*
X12348Y79714D01*
X12646Y79675D01*
X13408D01*
X13706Y79714D01*
X13984Y79830D01*
X14223Y80013D01*
X14406Y80252D01*
X14522Y80530D01*
X14561Y80828D01*
X14522Y81126D01*
X14406Y81404D01*
X14223Y81643D01*
X13984Y81826D01*
X13801Y81902D01*
Y82040D01*
X13984Y82116D01*
X14223Y82299D01*
X14406Y82538D01*
X14522Y82816D01*
X14544Y82987D01*
D02*
G37*
G36*
X83007Y79589D02*
X83002D01*
Y78712D01*
X83879D01*
Y78717D01*
X83811Y78973D01*
X83678Y79201D01*
X83491Y79388D01*
X83263Y79521D01*
X83007Y79589D01*
D02*
G37*
G36*
X82748D02*
X82743D01*
X82487Y79521D01*
X82259Y79388D01*
X82072Y79201D01*
X81939Y78973D01*
X81871Y78717D01*
Y78712D01*
X82748D01*
Y79589D01*
D02*
G37*
G36*
X24754Y80955D02*
X22127D01*
Y78328D01*
X22217D01*
X22645Y78396D01*
X23057Y78530D01*
X23443Y78727D01*
X23794Y78981D01*
X24101Y79288D01*
X24355Y79639D01*
X24552Y80025D01*
X24686Y80437D01*
X24754Y80865D01*
Y80955D01*
D02*
G37*
G36*
X21873D02*
X19246D01*
Y80865D01*
X19314Y80437D01*
X19448Y80025D01*
X19645Y79639D01*
X19899Y79288D01*
X20206Y78981D01*
X20557Y78727D01*
X20943Y78530D01*
X21355Y78396D01*
X21783Y78328D01*
X21873D01*
Y80955D01*
D02*
G37*
G36*
X83879Y78458D02*
X83002D01*
Y77581D01*
X83007D01*
X83263Y77649D01*
X83491Y77782D01*
X83678Y77969D01*
X83811Y78197D01*
X83879Y78453D01*
Y78458D01*
D02*
G37*
G36*
X82748D02*
X81871D01*
Y78453D01*
X81939Y78197D01*
X82072Y77969D01*
X82259Y77782D01*
X82487Y77649D01*
X82743Y77581D01*
X82748D01*
Y78458D01*
D02*
G37*
G36*
X68011Y77579D02*
X67839D01*
X67673Y77534D01*
X67523Y77448D01*
X67402Y77327D01*
X67316Y77177D01*
X67271Y77011D01*
Y76839D01*
X67316Y76673D01*
X67402Y76523D01*
X67523Y76402D01*
X67673Y76316D01*
X67839Y76271D01*
X68011D01*
X68177Y76316D01*
X68327Y76402D01*
X68448Y76523D01*
X68534Y76673D01*
X68579Y76839D01*
Y77011D01*
X68534Y77177D01*
X68448Y77327D01*
X68327Y77448D01*
X68177Y77534D01*
X68011Y77579D01*
D02*
G37*
G36*
X83007Y77049D02*
X82743D01*
X82487Y76981D01*
X82259Y76848D01*
X82072Y76661D01*
X81939Y76433D01*
X81871Y76177D01*
Y75913D01*
X81939Y75657D01*
X82072Y75429D01*
X82259Y75242D01*
X82487Y75109D01*
X82743Y75041D01*
X83007D01*
X83263Y75109D01*
X83491Y75242D01*
X83678Y75429D01*
X83811Y75657D01*
X83879Y75913D01*
Y76177D01*
X83811Y76433D01*
X83678Y76661D01*
X83491Y76848D01*
X83263Y76981D01*
X83007Y77049D01*
D02*
G37*
G36*
X34752Y74293D02*
Y73777D01*
X35268D01*
X35234Y73902D01*
X35148Y74052D01*
X35027Y74173D01*
X34877Y74259D01*
X34752Y74293D01*
D02*
G37*
G36*
X34498D02*
X34373Y74259D01*
X34223Y74173D01*
X34102Y74052D01*
X34016Y73902D01*
X33982Y73777D01*
X34498D01*
Y74293D01*
D02*
G37*
G36*
X13408Y79314D02*
X12646D01*
X12348Y79275D01*
X12070Y79159D01*
X11831Y78976D01*
X11648Y78737D01*
X11532Y78459D01*
X11493Y78161D01*
X11532Y77863D01*
X11648Y77585D01*
X11831Y77346D01*
X12070Y77163D01*
X12348Y77047D01*
X12567Y77019D01*
Y76890D01*
X12348Y76862D01*
X12070Y76746D01*
X11831Y76563D01*
X11648Y76324D01*
X11532Y76046D01*
X11493Y75748D01*
X11532Y75450D01*
X11648Y75172D01*
X11831Y74933D01*
X12070Y74750D01*
X12348Y74634D01*
X12646Y74595D01*
X13408D01*
X13706Y74634D01*
X13984Y74750D01*
X14223Y74933D01*
X14406Y75172D01*
X14430Y75227D01*
X41374D01*
Y67371D01*
X41291Y67227D01*
X41246Y67061D01*
Y66889D01*
X41291Y66723D01*
X41377Y66573D01*
X41498Y66452D01*
X41621Y66381D01*
X41596Y66254D01*
X41539D01*
X41373Y66209D01*
X41223Y66123D01*
X41102Y66002D01*
X41016Y65852D01*
X40971Y65686D01*
Y65514D01*
X41016Y65348D01*
X41102Y65198D01*
X41223Y65077D01*
X41373Y64991D01*
X41539Y64946D01*
X41552D01*
X49921Y56577D01*
Y56564D01*
X49966Y56398D01*
X50052Y56248D01*
X50061Y56239D01*
Y28936D01*
X50027Y28902D01*
X49941Y28752D01*
X49896Y28586D01*
Y28414D01*
X49941Y28248D01*
X50027Y28098D01*
X50148Y27977D01*
X50298Y27891D01*
X50464Y27846D01*
X50636D01*
X50802Y27891D01*
X50952Y27977D01*
X51073Y28098D01*
X51159Y28248D01*
X51204Y28414D01*
Y28586D01*
X51159Y28752D01*
X51089Y28875D01*
Y56239D01*
X51098Y56248D01*
X51184Y56398D01*
X51229Y56564D01*
Y56736D01*
X51228Y56741D01*
X51342Y56807D01*
X53573Y54575D01*
Y52949D01*
X53564Y52939D01*
X53478Y52790D01*
X53433Y52624D01*
Y52452D01*
X53478Y52285D01*
X53564Y52136D01*
X53686Y52015D01*
X53835Y51929D01*
X54001Y51884D01*
X54173D01*
X54340Y51929D01*
X54489Y52015D01*
X54610Y52136D01*
X54696Y52285D01*
X54741Y52452D01*
Y52624D01*
X54696Y52790D01*
X54610Y52939D01*
X54601Y52949D01*
Y54788D01*
X54562Y54985D01*
X54450Y55151D01*
X42554Y67048D01*
Y67061D01*
X42509Y67227D01*
X42423Y67377D01*
X42401Y67399D01*
Y68045D01*
X42528Y68061D01*
X42566Y67923D01*
X42652Y67773D01*
X42773Y67652D01*
X42923Y67566D01*
X43089Y67521D01*
X43261D01*
X43427Y67566D01*
X43577Y67652D01*
X43599Y67674D01*
X65111D01*
Y66838D01*
X59112Y60838D01*
X59066Y60770D01*
X58939Y60808D01*
Y65439D01*
X58948Y65448D01*
X59034Y65598D01*
X59079Y65764D01*
Y65936D01*
X59034Y66102D01*
X58948Y66252D01*
X58827Y66373D01*
X58677Y66459D01*
X58511Y66504D01*
X58339D01*
X58173Y66459D01*
X58023Y66373D01*
X57902Y66252D01*
X57816Y66102D01*
X57771Y65936D01*
Y65764D01*
X57816Y65598D01*
X57902Y65448D01*
X57911Y65439D01*
Y56161D01*
X57902Y56152D01*
X57816Y56002D01*
X57771Y55836D01*
Y55664D01*
X57816Y55498D01*
X57902Y55348D01*
X58023Y55227D01*
X58173Y55141D01*
X58339Y55096D01*
X58511D01*
X58677Y55141D01*
X58827Y55227D01*
X58834Y55234D01*
X58961Y55182D01*
Y52836D01*
X58952Y52827D01*
X58866Y52677D01*
X58821Y52511D01*
Y52339D01*
X58866Y52173D01*
X58952Y52023D01*
X59073Y51902D01*
X59223Y51816D01*
X59389Y51771D01*
X59561D01*
X59727Y51816D01*
X59877Y51902D01*
X59998Y52023D01*
X60084Y52173D01*
X60129Y52339D01*
Y52511D01*
X60084Y52677D01*
X59998Y52827D01*
X59989Y52836D01*
Y60262D01*
X65988Y66262D01*
X66100Y66428D01*
X66139Y66625D01*
Y67789D01*
X66148Y67798D01*
X66234Y67948D01*
X66279Y68114D01*
Y68286D01*
X66234Y68452D01*
X66148Y68602D01*
X66027Y68723D01*
X65877Y68809D01*
X65711Y68854D01*
X65539D01*
X65373Y68809D01*
X65223Y68723D01*
X65201Y68701D01*
X43714D01*
Y76314D01*
X43748Y76348D01*
X43834Y76498D01*
X43879Y76664D01*
Y76836D01*
X43834Y77002D01*
X43748Y77152D01*
X43627Y77273D01*
X43477Y77359D01*
X43385Y77384D01*
X43402Y77511D01*
X44337D01*
X48362Y73487D01*
X48528Y73375D01*
X48725Y73336D01*
X52464D01*
X52473Y73327D01*
X52623Y73241D01*
X52789Y73196D01*
X52961D01*
X53127Y73241D01*
X53277Y73327D01*
X53398Y73448D01*
X53484Y73598D01*
X53529Y73764D01*
Y73936D01*
X53484Y74102D01*
X53398Y74252D01*
X53277Y74373D01*
X53127Y74459D01*
X52961Y74504D01*
X52789D01*
X52623Y74459D01*
X52473Y74373D01*
X52464Y74364D01*
X48938D01*
X44913Y78388D01*
X44747Y78500D01*
X44550Y78539D01*
X24431D01*
X24352Y78584D01*
X24186Y78629D01*
X24014D01*
X23848Y78584D01*
X23698Y78498D01*
X23577Y78377D01*
X23491Y78227D01*
X23446Y78061D01*
Y77889D01*
X23491Y77723D01*
X23577Y77573D01*
X23698Y77452D01*
X23804Y77391D01*
X23770Y77264D01*
X20363D01*
X19102Y78524D01*
X18936Y78636D01*
X18739Y78675D01*
X14432D01*
X14406Y78737D01*
X14223Y78976D01*
X13984Y79159D01*
X13706Y79275D01*
X13408Y79314D01*
D02*
G37*
G36*
X35268Y73523D02*
X34752D01*
Y73007D01*
X34877Y73041D01*
X35027Y73127D01*
X35148Y73248D01*
X35234Y73398D01*
X35268Y73523D01*
D02*
G37*
G36*
X34498D02*
X33982D01*
X34016Y73398D01*
X34102Y73248D01*
X34223Y73127D01*
X34373Y73041D01*
X34498Y73007D01*
Y73523D01*
D02*
G37*
G36*
X83007Y74509D02*
X82743D01*
X82487Y74441D01*
X82259Y74308D01*
X82072Y74121D01*
X81939Y73893D01*
X81871Y73637D01*
Y73373D01*
X81939Y73117D01*
X82072Y72889D01*
X82259Y72702D01*
X82487Y72569D01*
X82743Y72501D01*
X83007D01*
X83263Y72569D01*
X83491Y72702D01*
X83678Y72889D01*
X83811Y73117D01*
X83879Y73373D01*
Y73637D01*
X83811Y73893D01*
X83678Y74121D01*
X83491Y74308D01*
X83263Y74441D01*
X83007Y74509D01*
D02*
G37*
G36*
X45211Y72979D02*
X45039D01*
X44873Y72934D01*
X44723Y72848D01*
X44602Y72727D01*
X44516Y72577D01*
X44471Y72411D01*
Y72239D01*
X44516Y72073D01*
X44602Y71923D01*
X44723Y71802D01*
X44873Y71716D01*
X45039Y71671D01*
X45211D01*
X45377Y71716D01*
X45527Y71802D01*
X45648Y71923D01*
X45734Y72073D01*
X45779Y72239D01*
Y72411D01*
X45734Y72577D01*
X45648Y72727D01*
X45527Y72848D01*
X45377Y72934D01*
X45211Y72979D01*
D02*
G37*
G36*
X83250Y71981D02*
X82500D01*
X82255Y71933D01*
X82047Y71793D01*
X81908Y71585D01*
X81886Y71479D01*
X62174D01*
X62077Y71534D01*
X61911Y71579D01*
X61739D01*
X61573Y71534D01*
X61423Y71448D01*
X61302Y71327D01*
X61216Y71177D01*
X61171Y71011D01*
Y70839D01*
X61216Y70673D01*
X61302Y70523D01*
X61423Y70402D01*
X61573Y70316D01*
X61739Y70271D01*
X61911D01*
X62077Y70316D01*
X62227Y70402D01*
X62276Y70451D01*
X76516D01*
X76550Y70324D01*
X76548Y70323D01*
X76427Y70202D01*
X76341Y70052D01*
X76296Y69886D01*
Y69714D01*
X76341Y69548D01*
X76427Y69398D01*
X76548Y69277D01*
X76698Y69191D01*
X76864Y69146D01*
X77036D01*
X77202Y69191D01*
X77352Y69277D01*
X77473Y69398D01*
X77559Y69548D01*
X77604Y69714D01*
Y69886D01*
X77559Y70052D01*
X77473Y70202D01*
X77352Y70323D01*
X77350Y70324D01*
X77384Y70451D01*
X81886D01*
X81908Y70345D01*
X82047Y70137D01*
X82255Y69997D01*
X82500Y69949D01*
X83250D01*
X83495Y69997D01*
X83703Y70137D01*
X83842Y70345D01*
X83891Y70590D01*
Y71340D01*
X83842Y71585D01*
X83703Y71793D01*
X83495Y71933D01*
X83250Y71981D01*
D02*
G37*
G36*
X14711Y60254D02*
X14539D01*
X14373Y60209D01*
X14223Y60123D01*
X14201Y60101D01*
X11371D01*
X11227Y60184D01*
X11061Y60229D01*
X10889D01*
X10723Y60184D01*
X10573Y60098D01*
X10452Y59977D01*
X10366Y59827D01*
X10321Y59661D01*
Y59489D01*
X10366Y59323D01*
X10452Y59173D01*
X10573Y59052D01*
X10723Y58966D01*
X10889Y58921D01*
X11061D01*
X11227Y58966D01*
X11377Y59052D01*
X11399Y59074D01*
X14229D01*
X14373Y58991D01*
X14539Y58946D01*
X14711D01*
X14877Y58991D01*
X15027Y59077D01*
X15148Y59198D01*
X15234Y59348D01*
X15279Y59514D01*
Y59686D01*
X15234Y59852D01*
X15148Y60002D01*
X15027Y60123D01*
X14877Y60209D01*
X14711Y60254D01*
D02*
G37*
G36*
X44561Y59154D02*
X44389D01*
X44223Y59109D01*
X44073Y59023D01*
X43952Y58902D01*
X43866Y58752D01*
X43853Y58706D01*
X43722D01*
X43709Y58752D01*
X43623Y58902D01*
X43502Y59023D01*
X43352Y59109D01*
X43186Y59154D01*
X43014D01*
X42848Y59109D01*
X42698Y59023D01*
X42577Y58902D01*
X42491Y58752D01*
X42466Y58660D01*
X42334D01*
X42309Y58752D01*
X42223Y58902D01*
X42102Y59023D01*
X41952Y59109D01*
X41786Y59154D01*
X41614D01*
X41448Y59109D01*
X41298Y59023D01*
X41177Y58902D01*
X41091Y58752D01*
X41046Y58586D01*
Y58414D01*
X41091Y58248D01*
X41177Y58098D01*
X41186Y58089D01*
X41186Y6913D01*
X36997Y2723D01*
X36882Y2754D01*
X36618D01*
X36362Y2686D01*
X36134Y2553D01*
X35947Y2366D01*
X35814Y2138D01*
X35746Y1882D01*
Y1618D01*
X35814Y1362D01*
X35947Y1134D01*
X36134Y947D01*
X36362Y814D01*
X36618Y746D01*
X36882D01*
X37138Y814D01*
X37366Y947D01*
X37553Y1134D01*
X37686Y1362D01*
X37754Y1618D01*
Y1882D01*
X37723Y1997D01*
X42063Y6337D01*
X42128Y6434D01*
X42246Y6382D01*
Y6377D01*
X43123D01*
Y7254D01*
X43118D01*
X42862Y7186D01*
X42634Y7053D01*
X42447Y6866D01*
X42364Y6723D01*
X42341Y6721D01*
X42214Y6837D01*
Y19283D01*
X42341Y19317D01*
X42447Y19134D01*
X42634Y18947D01*
X42862Y18814D01*
X43118Y18746D01*
X43123D01*
Y19750D01*
Y20754D01*
X43118D01*
X42862Y20686D01*
X42634Y20553D01*
X42447Y20366D01*
X42341Y20183D01*
X42214Y20217D01*
Y23783D01*
X42341Y23817D01*
X42447Y23634D01*
X42634Y23447D01*
X42862Y23314D01*
X43118Y23246D01*
X43382D01*
X43638Y23314D01*
X43866Y23447D01*
X44053Y23634D01*
X44186Y23862D01*
X44254Y24118D01*
Y24382D01*
X44186Y24638D01*
X44053Y24866D01*
X43866Y25053D01*
X43638Y25186D01*
X43382Y25254D01*
X43118D01*
X42862Y25186D01*
X42634Y25053D01*
X42447Y24866D01*
X42341Y24683D01*
X42214Y24717D01*
X42214Y58089D01*
X42223Y58098D01*
X42309Y58248D01*
X42334Y58340D01*
X42466D01*
X42491Y58248D01*
X42577Y58098D01*
X42586Y58089D01*
Y28150D01*
X42625Y27953D01*
X42737Y27787D01*
X45411Y25112D01*
Y13575D01*
X45450Y13378D01*
X45562Y13212D01*
X56777Y1997D01*
X56746Y1882D01*
Y1618D01*
X56814Y1362D01*
X56947Y1134D01*
X57134Y947D01*
X57362Y814D01*
X57618Y746D01*
X57882D01*
X58138Y814D01*
X58366Y947D01*
X58553Y1134D01*
X58686Y1362D01*
X58754Y1618D01*
Y1882D01*
X58686Y2138D01*
X58553Y2366D01*
X58366Y2553D01*
X58138Y2686D01*
X57882Y2754D01*
X57618D01*
X57503Y2723D01*
X46439Y13788D01*
Y25325D01*
X46400Y25522D01*
X46288Y25688D01*
X43614Y28363D01*
Y58089D01*
X43623Y58098D01*
X43709Y58248D01*
X43722Y58294D01*
X43853D01*
X43866Y58248D01*
X43952Y58098D01*
X43961Y58089D01*
Y29625D01*
X44000Y29428D01*
X44112Y29262D01*
X64337Y9037D01*
X64337Y9037D01*
X71987Y1387D01*
X72153Y1275D01*
X72350Y1236D01*
X77887D01*
X77947Y1134D01*
X78134Y947D01*
X78362Y814D01*
X78618Y746D01*
X78882D01*
X79138Y814D01*
X79366Y947D01*
X79553Y1134D01*
X79686Y1362D01*
X79754Y1618D01*
Y1882D01*
X79686Y2138D01*
X79553Y2366D01*
X79366Y2553D01*
X79138Y2686D01*
X78882Y2754D01*
X78618D01*
X78362Y2686D01*
X78134Y2553D01*
X77947Y2366D01*
X77887Y2264D01*
X72563D01*
X65063Y9763D01*
X44989Y29838D01*
Y58089D01*
X44998Y58098D01*
X45084Y58248D01*
X45129Y58414D01*
Y58586D01*
X45084Y58752D01*
X44998Y58902D01*
X44877Y59023D01*
X44727Y59109D01*
X44561Y59154D01*
D02*
G37*
G36*
X34902Y59018D02*
Y58502D01*
X35418D01*
X35384Y58627D01*
X35298Y58777D01*
X35177Y58898D01*
X35027Y58984D01*
X34902Y59018D01*
D02*
G37*
G36*
X34648D02*
X34523Y58984D01*
X34373Y58898D01*
X34252Y58777D01*
X34166Y58627D01*
X34132Y58502D01*
X34648D01*
Y59018D01*
D02*
G37*
G36*
X35418Y58248D02*
X34902D01*
Y57732D01*
X35027Y57766D01*
X35177Y57852D01*
X35298Y57973D01*
X35384Y58123D01*
X35418Y58248D01*
D02*
G37*
G36*
X34648D02*
X34132D01*
X34166Y58123D01*
X34252Y57973D01*
X34373Y57852D01*
X34523Y57766D01*
X34648Y57732D01*
Y58248D01*
D02*
G37*
G36*
X14861Y57429D02*
X14689D01*
X14523Y57384D01*
X14373Y57298D01*
X14351Y57276D01*
X12796D01*
X12652Y57359D01*
X12486Y57404D01*
X12314D01*
X12148Y57359D01*
X11998Y57273D01*
X11877Y57152D01*
X11791Y57002D01*
X11746Y56836D01*
Y56664D01*
X11791Y56498D01*
X11877Y56348D01*
X11998Y56227D01*
X12148Y56141D01*
X12314Y56096D01*
X12486D01*
X12652Y56141D01*
X12802Y56227D01*
X12824Y56249D01*
X14379D01*
X14523Y56166D01*
X14689Y56121D01*
X14861D01*
X15027Y56166D01*
X15177Y56252D01*
X15298Y56373D01*
X15384Y56523D01*
X15429Y56689D01*
Y56861D01*
X15384Y57027D01*
X15298Y57177D01*
X15177Y57298D01*
X15027Y57384D01*
X14861Y57429D01*
D02*
G37*
G36*
X23011Y47729D02*
X22839D01*
X22673Y47684D01*
X22523Y47598D01*
X22463Y47538D01*
X19762D01*
X19727Y47573D01*
X19577Y47659D01*
X19411Y47704D01*
X19239D01*
X19073Y47659D01*
X18923Y47573D01*
X18802Y47452D01*
X18716Y47302D01*
X18671Y47136D01*
Y46964D01*
X18716Y46798D01*
X18802Y46648D01*
X18923Y46527D01*
X19073Y46441D01*
X19239Y46396D01*
X19411D01*
X19577Y46441D01*
X19727Y46527D01*
X19812Y46612D01*
X22463D01*
X22523Y46552D01*
X22673Y46466D01*
X22839Y46421D01*
X23011D01*
X23177Y46466D01*
X23327Y46552D01*
X23448Y46673D01*
X23534Y46823D01*
X23579Y46989D01*
Y47161D01*
X23534Y47327D01*
X23448Y47477D01*
X23327Y47598D01*
X23177Y47684D01*
X23011Y47729D01*
D02*
G37*
G36*
X19311Y44904D02*
X19139D01*
X18973Y44859D01*
X18823Y44773D01*
X18702Y44652D01*
X18616Y44502D01*
X18571Y44336D01*
Y44164D01*
X18616Y43998D01*
X18702Y43848D01*
X18823Y43727D01*
X18973Y43641D01*
X19139Y43596D01*
X19311D01*
X19477Y43641D01*
X19627Y43727D01*
X19662Y43762D01*
X22726D01*
X22823Y43697D01*
X23000Y43662D01*
X23000Y43662D01*
X23638D01*
X23698Y43602D01*
X23848Y43516D01*
X24014Y43471D01*
X24186D01*
X24352Y43516D01*
X24502Y43602D01*
X24623Y43723D01*
X24709Y43873D01*
X24754Y44039D01*
Y44211D01*
X24709Y44377D01*
X24623Y44527D01*
X24502Y44648D01*
X24352Y44734D01*
X24186Y44779D01*
X24014D01*
X23848Y44734D01*
X23698Y44648D01*
X23638Y44588D01*
X23174D01*
X23077Y44653D01*
X22900Y44688D01*
X22900Y44688D01*
X19712D01*
X19627Y44773D01*
X19477Y44859D01*
X19311Y44904D01*
D02*
G37*
G36*
X70029Y37643D02*
X69127D01*
Y36741D01*
X69135D01*
X69397Y36811D01*
X69632Y36947D01*
X69823Y37138D01*
X69959Y37373D01*
X70029Y37635D01*
Y37643D01*
D02*
G37*
G36*
X68873D02*
X67971D01*
Y37635D01*
X68041Y37373D01*
X68177Y37138D01*
X68368Y36947D01*
X68603Y36811D01*
X68865Y36741D01*
X68873D01*
Y37643D01*
D02*
G37*
G36*
X85382Y25254D02*
X85118D01*
X84862Y25186D01*
X84634Y25053D01*
X84447Y24866D01*
X84314Y24638D01*
X84246Y24382D01*
Y24118D01*
X84314Y23862D01*
X84447Y23634D01*
X84634Y23447D01*
X84862Y23314D01*
X85118Y23246D01*
X85382D01*
X85638Y23314D01*
X85866Y23447D01*
X86053Y23634D01*
X86186Y23862D01*
X86254Y24118D01*
Y24382D01*
X86186Y24638D01*
X86053Y24866D01*
X85866Y25053D01*
X85638Y25186D01*
X85382Y25254D01*
D02*
G37*
G36*
X78882D02*
X78618D01*
X78362Y25186D01*
X78134Y25053D01*
X77947Y24866D01*
X77814Y24638D01*
X77746Y24382D01*
Y24118D01*
X77814Y23862D01*
X77947Y23634D01*
X78134Y23447D01*
X78362Y23314D01*
X78618Y23246D01*
X78882D01*
X79138Y23314D01*
X79366Y23447D01*
X79553Y23634D01*
X79686Y23862D01*
X79754Y24118D01*
Y24382D01*
X79686Y24638D01*
X79553Y24866D01*
X79366Y25053D01*
X79138Y25186D01*
X78882Y25254D01*
D02*
G37*
G36*
X64382D02*
X64118D01*
X63862Y25186D01*
X63634Y25053D01*
X63447Y24866D01*
X63314Y24638D01*
X63246Y24382D01*
Y24118D01*
X63314Y23862D01*
X63447Y23634D01*
X63634Y23447D01*
X63862Y23314D01*
X64118Y23246D01*
X64382D01*
X64638Y23314D01*
X64866Y23447D01*
X65053Y23634D01*
X65186Y23862D01*
X65254Y24118D01*
Y24382D01*
X65186Y24638D01*
X65053Y24866D01*
X64866Y25053D01*
X64638Y25186D01*
X64382Y25254D01*
D02*
G37*
G36*
X57882D02*
X57618D01*
X57362Y25186D01*
X57134Y25053D01*
X56947Y24866D01*
X56814Y24638D01*
X56746Y24382D01*
Y24118D01*
X56814Y23862D01*
X56947Y23634D01*
X57134Y23447D01*
X57362Y23314D01*
X57618Y23246D01*
X57882D01*
X58138Y23314D01*
X58366Y23447D01*
X58553Y23634D01*
X58686Y23862D01*
X58754Y24118D01*
Y24382D01*
X58686Y24638D01*
X58553Y24866D01*
X58366Y25053D01*
X58138Y25186D01*
X57882Y25254D01*
D02*
G37*
G36*
X36882D02*
X36618D01*
X36362Y25186D01*
X36134Y25053D01*
X35947Y24866D01*
X35814Y24638D01*
X35746Y24382D01*
Y24118D01*
X35814Y23862D01*
X35947Y23634D01*
X36134Y23447D01*
X36362Y23314D01*
X36618Y23246D01*
X36882D01*
X37138Y23314D01*
X37366Y23447D01*
X37553Y23634D01*
X37686Y23862D01*
X37754Y24118D01*
Y24382D01*
X37686Y24638D01*
X37553Y24866D01*
X37366Y25053D01*
X37138Y25186D01*
X36882Y25254D01*
D02*
G37*
G36*
X28661Y66254D02*
X28489D01*
X28323Y66209D01*
X28173Y66123D01*
X28052Y66002D01*
X27966Y65852D01*
X27921Y65686D01*
Y65514D01*
X27966Y65348D01*
X28052Y65198D01*
X28061Y65189D01*
Y45013D01*
X21887Y38838D01*
X21775Y38672D01*
X21736Y38475D01*
Y25113D01*
X21634Y25053D01*
X21447Y24866D01*
X21314Y24638D01*
X21246Y24382D01*
Y24118D01*
X21314Y23862D01*
X21447Y23634D01*
X21634Y23447D01*
X21862Y23314D01*
X22118Y23246D01*
X22382D01*
X22638Y23314D01*
X22866Y23447D01*
X23053Y23634D01*
X23186Y23862D01*
X23254Y24118D01*
Y24382D01*
X23186Y24638D01*
X23053Y24866D01*
X22866Y25053D01*
X22764Y25113D01*
Y38262D01*
X28938Y44437D01*
X29050Y44603D01*
X29089Y44800D01*
Y65189D01*
X29098Y65198D01*
X29184Y65348D01*
X29229Y65514D01*
Y65686D01*
X29184Y65852D01*
X29098Y66002D01*
X28977Y66123D01*
X28827Y66209D01*
X28661Y66254D01*
D02*
G37*
G36*
X15882Y25254D02*
X15618D01*
X15362Y25186D01*
X15134Y25053D01*
X14947Y24866D01*
X14814Y24638D01*
X14746Y24382D01*
Y24118D01*
X14814Y23862D01*
X14947Y23634D01*
X15134Y23447D01*
X15362Y23314D01*
X15618Y23246D01*
X15882D01*
X16138Y23314D01*
X16366Y23447D01*
X16553Y23634D01*
X16686Y23862D01*
X16754Y24118D01*
Y24382D01*
X16686Y24638D01*
X16553Y24866D01*
X16366Y25053D01*
X16138Y25186D01*
X15882Y25254D01*
D02*
G37*
G36*
X69135Y36259D02*
X68865D01*
X68603Y36189D01*
X68368Y36053D01*
X68177Y35862D01*
X68041Y35627D01*
X67971Y35365D01*
Y35095D01*
X68041Y34833D01*
X68177Y34598D01*
X68368Y34407D01*
X68603Y34271D01*
X68865Y34201D01*
X69135D01*
X69283Y34240D01*
X70486Y33037D01*
Y23661D01*
X70477Y23652D01*
X70391Y23502D01*
X70346Y23336D01*
Y23164D01*
X70391Y22998D01*
X70477Y22848D01*
X70598Y22727D01*
X70748Y22641D01*
X70914Y22596D01*
X71086D01*
X71252Y22641D01*
X71402Y22727D01*
X71523Y22848D01*
X71609Y22998D01*
X71654Y23164D01*
Y23336D01*
X71609Y23502D01*
X71523Y23652D01*
X71514Y23661D01*
Y33250D01*
X71475Y33447D01*
X71363Y33613D01*
X69998Y34979D01*
X70029Y35095D01*
Y35365D01*
X69959Y35627D01*
X69823Y35862D01*
X69632Y36053D01*
X69397Y36189D01*
X69135Y36259D01*
D02*
G37*
G36*
X57882Y20754D02*
X57877D01*
Y19877D01*
X58754D01*
Y19882D01*
X58686Y20138D01*
X58553Y20366D01*
X58366Y20553D01*
X58138Y20686D01*
X57882Y20754D01*
D02*
G37*
G36*
X64382D02*
X64377D01*
Y19877D01*
X65254D01*
Y19882D01*
X65186Y20138D01*
X65053Y20366D01*
X64866Y20553D01*
X64638Y20686D01*
X64382Y20754D01*
D02*
G37*
G36*
X36882D02*
X36877D01*
Y19877D01*
X37754D01*
Y19882D01*
X37686Y20138D01*
X37553Y20366D01*
X37366Y20553D01*
X37138Y20686D01*
X36882Y20754D01*
D02*
G37*
G36*
X43382D02*
X43377D01*
Y19877D01*
X44254D01*
Y19882D01*
X44186Y20138D01*
X44053Y20366D01*
X43866Y20553D01*
X43638Y20686D01*
X43382Y20754D01*
D02*
G37*
G36*
X85382D02*
X85377D01*
Y19877D01*
X86254D01*
Y19882D01*
X86186Y20138D01*
X86053Y20366D01*
X85866Y20553D01*
X85638Y20686D01*
X85382Y20754D01*
D02*
G37*
G36*
X78882D02*
X78877D01*
Y19877D01*
X79754D01*
Y19882D01*
X79686Y20138D01*
X79553Y20366D01*
X79366Y20553D01*
X79138Y20686D01*
X78882Y20754D01*
D02*
G37*
G36*
X22382D02*
X22377D01*
Y19877D01*
X23254D01*
Y19882D01*
X23186Y20138D01*
X23053Y20366D01*
X22866Y20553D01*
X22638Y20686D01*
X22382Y20754D01*
D02*
G37*
G36*
X15882D02*
X15877D01*
Y19877D01*
X16754D01*
Y19882D01*
X16686Y20138D01*
X16553Y20366D01*
X16366Y20553D01*
X16138Y20686D01*
X15882Y20754D01*
D02*
G37*
G36*
X22123D02*
X22118D01*
X21862Y20686D01*
X21634Y20553D01*
X21447Y20366D01*
X21314Y20138D01*
X21246Y19882D01*
Y19877D01*
X22123D01*
Y20754D01*
D02*
G37*
G36*
X15623D02*
X15618D01*
X15362Y20686D01*
X15134Y20553D01*
X14947Y20366D01*
X14814Y20138D01*
X14746Y19882D01*
Y19877D01*
X15623D01*
Y20754D01*
D02*
G37*
G36*
X85123D02*
X85118D01*
X84862Y20686D01*
X84634Y20553D01*
X84447Y20366D01*
X84314Y20138D01*
X84246Y19882D01*
Y19877D01*
X85123D01*
Y20754D01*
D02*
G37*
G36*
X78623D02*
X78618D01*
X78362Y20686D01*
X78134Y20553D01*
X77947Y20366D01*
X77814Y20138D01*
X77746Y19882D01*
Y19877D01*
X78623D01*
Y20754D01*
D02*
G37*
G36*
X36623D02*
X36618D01*
X36362Y20686D01*
X36134Y20553D01*
X35947Y20366D01*
X35814Y20138D01*
X35746Y19882D01*
Y19877D01*
X36623D01*
Y20754D01*
D02*
G37*
G36*
X57623D02*
X57618D01*
X57362Y20686D01*
X57134Y20553D01*
X56947Y20366D01*
X56814Y20138D01*
X56746Y19882D01*
Y19877D01*
X57623D01*
Y20754D01*
D02*
G37*
G36*
X64123D02*
X64118D01*
X63862Y20686D01*
X63634Y20553D01*
X63447Y20366D01*
X63314Y20138D01*
X63246Y19882D01*
Y19877D01*
X64123D01*
Y20754D01*
D02*
G37*
G36*
X86254Y19623D02*
X85377D01*
Y18746D01*
X85382D01*
X85638Y18814D01*
X85866Y18947D01*
X86053Y19134D01*
X86186Y19362D01*
X86254Y19618D01*
Y19623D01*
D02*
G37*
G36*
X85123D02*
X84246D01*
Y19618D01*
X84314Y19362D01*
X84447Y19134D01*
X84634Y18947D01*
X84862Y18814D01*
X85118Y18746D01*
X85123D01*
Y19623D01*
D02*
G37*
G36*
X79754D02*
X78877D01*
Y18746D01*
X78882D01*
X79138Y18814D01*
X79366Y18947D01*
X79553Y19134D01*
X79686Y19362D01*
X79754Y19618D01*
Y19623D01*
D02*
G37*
G36*
X78623D02*
X77746D01*
Y19618D01*
X77814Y19362D01*
X77947Y19134D01*
X78134Y18947D01*
X78362Y18814D01*
X78618Y18746D01*
X78623D01*
Y19623D01*
D02*
G37*
G36*
X65254D02*
X64377D01*
Y18746D01*
X64382D01*
X64638Y18814D01*
X64866Y18947D01*
X65053Y19134D01*
X65186Y19362D01*
X65254Y19618D01*
Y19623D01*
D02*
G37*
G36*
X64123D02*
X63246D01*
Y19618D01*
X63314Y19362D01*
X63447Y19134D01*
X63634Y18947D01*
X63862Y18814D01*
X64118Y18746D01*
X64123D01*
Y19623D01*
D02*
G37*
G36*
X58754D02*
X57877D01*
Y18746D01*
X57882D01*
X58138Y18814D01*
X58366Y18947D01*
X58553Y19134D01*
X58686Y19362D01*
X58754Y19618D01*
Y19623D01*
D02*
G37*
G36*
X57623D02*
X56746D01*
Y19618D01*
X56814Y19362D01*
X56947Y19134D01*
X57134Y18947D01*
X57362Y18814D01*
X57618Y18746D01*
X57623D01*
Y19623D01*
D02*
G37*
G36*
X44254D02*
X43377D01*
Y18746D01*
X43382D01*
X43638Y18814D01*
X43866Y18947D01*
X44053Y19134D01*
X44186Y19362D01*
X44254Y19618D01*
Y19623D01*
D02*
G37*
G36*
X37754D02*
X36877D01*
Y18746D01*
X36882D01*
X37138Y18814D01*
X37366Y18947D01*
X37553Y19134D01*
X37686Y19362D01*
X37754Y19618D01*
Y19623D01*
D02*
G37*
G36*
X36623D02*
X35746D01*
Y19618D01*
X35814Y19362D01*
X35947Y19134D01*
X36134Y18947D01*
X36362Y18814D01*
X36618Y18746D01*
X36623D01*
Y19623D01*
D02*
G37*
G36*
X23254D02*
X22377D01*
Y18746D01*
X22382D01*
X22638Y18814D01*
X22866Y18947D01*
X23053Y19134D01*
X23186Y19362D01*
X23254Y19618D01*
Y19623D01*
D02*
G37*
G36*
X22123D02*
X21246D01*
Y19618D01*
X21314Y19362D01*
X21447Y19134D01*
X21634Y18947D01*
X21862Y18814D01*
X22118Y18746D01*
X22123D01*
Y19623D01*
D02*
G37*
G36*
X16754D02*
X15877D01*
Y18746D01*
X15882D01*
X16138Y18814D01*
X16366Y18947D01*
X16553Y19134D01*
X16686Y19362D01*
X16754Y19618D01*
Y19623D01*
D02*
G37*
G36*
X15623D02*
X14746D01*
Y19618D01*
X14814Y19362D01*
X14947Y19134D01*
X15134Y18947D01*
X15362Y18814D01*
X15618Y18746D01*
X15623D01*
Y19623D01*
D02*
G37*
G36*
X33211Y28654D02*
X33039D01*
X32873Y28609D01*
X32723Y28523D01*
X32602Y28402D01*
X32516Y28252D01*
X32471Y28086D01*
Y27914D01*
X32516Y27748D01*
X32602Y27598D01*
X32637Y27563D01*
Y19037D01*
X32577Y18977D01*
X32491Y18827D01*
X32446Y18661D01*
Y18489D01*
X32491Y18323D01*
X32577Y18173D01*
X32698Y18052D01*
X32848Y17966D01*
X33014Y17921D01*
X33186D01*
X33352Y17966D01*
X33502Y18052D01*
X33623Y18173D01*
X33709Y18323D01*
X33754Y18489D01*
Y18661D01*
X33709Y18827D01*
X33623Y18977D01*
X33563Y19037D01*
Y27513D01*
X33648Y27598D01*
X33734Y27748D01*
X33779Y27914D01*
Y28086D01*
X33734Y28252D01*
X33648Y28402D01*
X33527Y28523D01*
X33377Y28609D01*
X33211Y28654D01*
D02*
G37*
G36*
X30461D02*
X30289D01*
X30123Y28609D01*
X29973Y28523D01*
X29852Y28402D01*
X29766Y28252D01*
X29721Y28086D01*
Y27914D01*
X29766Y27748D01*
X29852Y27598D01*
X29912Y27538D01*
Y18937D01*
X29852Y18877D01*
X29766Y18727D01*
X29721Y18561D01*
Y18389D01*
X29766Y18223D01*
X29852Y18073D01*
X29973Y17952D01*
X30123Y17866D01*
X30289Y17821D01*
X30461D01*
X30627Y17866D01*
X30777Y17952D01*
X30898Y18073D01*
X30984Y18223D01*
X31029Y18389D01*
Y18561D01*
X30984Y18727D01*
X30898Y18877D01*
X30838Y18937D01*
Y27538D01*
X30898Y27598D01*
X30984Y27748D01*
X31029Y27914D01*
Y28086D01*
X30984Y28252D01*
X30898Y28402D01*
X30777Y28523D01*
X30627Y28609D01*
X30461Y28654D01*
D02*
G37*
G36*
X27686Y28754D02*
X27514D01*
X27348Y28709D01*
X27198Y28623D01*
X27077Y28502D01*
X26991Y28352D01*
X26946Y28186D01*
Y28014D01*
X26991Y27848D01*
X27077Y27698D01*
X27137Y27638D01*
Y18912D01*
X27077Y18852D01*
X26991Y18702D01*
X26946Y18536D01*
Y18364D01*
X26991Y18198D01*
X27077Y18048D01*
X27198Y17927D01*
X27348Y17841D01*
X27514Y17796D01*
X27686D01*
X27852Y17841D01*
X28002Y17927D01*
X28123Y18048D01*
X28209Y18198D01*
X28254Y18364D01*
Y18536D01*
X28209Y18702D01*
X28123Y18852D01*
X28063Y18912D01*
Y27638D01*
X28123Y27698D01*
X28209Y27848D01*
X28254Y28014D01*
Y28186D01*
X28209Y28352D01*
X28123Y28502D01*
X28002Y28623D01*
X27852Y28709D01*
X27686Y28754D01*
D02*
G37*
G36*
X85382Y7254D02*
X85377D01*
Y6377D01*
X86254D01*
Y6382D01*
X86186Y6638D01*
X86053Y6866D01*
X85866Y7053D01*
X85638Y7186D01*
X85382Y7254D01*
D02*
G37*
G36*
X85123D02*
X85118D01*
X84862Y7186D01*
X84634Y7053D01*
X84447Y6866D01*
X84314Y6638D01*
X84246Y6382D01*
Y6377D01*
X85123D01*
Y7254D01*
D02*
G37*
G36*
X78882D02*
X78877D01*
Y6377D01*
X79754D01*
Y6382D01*
X79686Y6638D01*
X79553Y6866D01*
X79366Y7053D01*
X79138Y7186D01*
X78882Y7254D01*
D02*
G37*
G36*
X78623D02*
X78618D01*
X78362Y7186D01*
X78134Y7053D01*
X77947Y6866D01*
X77814Y6638D01*
X77746Y6382D01*
Y6377D01*
X78623D01*
Y7254D01*
D02*
G37*
G36*
X64382D02*
X64377D01*
Y6377D01*
X65254D01*
Y6382D01*
X65186Y6638D01*
X65053Y6866D01*
X64866Y7053D01*
X64638Y7186D01*
X64382Y7254D01*
D02*
G37*
G36*
X64123D02*
X64118D01*
X63862Y7186D01*
X63634Y7053D01*
X63447Y6866D01*
X63314Y6638D01*
X63246Y6382D01*
Y6377D01*
X64123D01*
Y7254D01*
D02*
G37*
G36*
X57882D02*
X57877D01*
Y6377D01*
X58754D01*
Y6382D01*
X58686Y6638D01*
X58553Y6866D01*
X58366Y7053D01*
X58138Y7186D01*
X57882Y7254D01*
D02*
G37*
G36*
X57623D02*
X57618D01*
X57362Y7186D01*
X57134Y7053D01*
X56947Y6866D01*
X56814Y6638D01*
X56746Y6382D01*
Y6377D01*
X57623D01*
Y7254D01*
D02*
G37*
G36*
X43382D02*
X43377D01*
Y6377D01*
X44254D01*
Y6382D01*
X44186Y6638D01*
X44053Y6866D01*
X43866Y7053D01*
X43638Y7186D01*
X43382Y7254D01*
D02*
G37*
G36*
X36882D02*
X36877D01*
Y6377D01*
X37754D01*
Y6382D01*
X37686Y6638D01*
X37553Y6866D01*
X37366Y7053D01*
X37138Y7186D01*
X36882Y7254D01*
D02*
G37*
G36*
X36623D02*
X36618D01*
X36362Y7186D01*
X36134Y7053D01*
X35947Y6866D01*
X35814Y6638D01*
X35746Y6382D01*
Y6377D01*
X36623D01*
Y7254D01*
D02*
G37*
G36*
X22382D02*
X22377D01*
Y6377D01*
X23254D01*
Y6382D01*
X23186Y6638D01*
X23053Y6866D01*
X22866Y7053D01*
X22638Y7186D01*
X22382Y7254D01*
D02*
G37*
G36*
X22123D02*
X22118D01*
X21862Y7186D01*
X21634Y7053D01*
X21447Y6866D01*
X21314Y6638D01*
X21246Y6382D01*
Y6377D01*
X22123D01*
Y7254D01*
D02*
G37*
G36*
X15882D02*
X15877D01*
Y6377D01*
X16754D01*
Y6382D01*
X16686Y6638D01*
X16553Y6866D01*
X16366Y7053D01*
X16138Y7186D01*
X15882Y7254D01*
D02*
G37*
G36*
X15623D02*
X15618D01*
X15362Y7186D01*
X15134Y7053D01*
X14947Y6866D01*
X14814Y6638D01*
X14746Y6382D01*
Y6377D01*
X15623D01*
Y7254D01*
D02*
G37*
G36*
X86254Y6123D02*
X85377D01*
Y5246D01*
X85382D01*
X85638Y5314D01*
X85866Y5447D01*
X86053Y5634D01*
X86186Y5862D01*
X86254Y6118D01*
Y6123D01*
D02*
G37*
G36*
X85123D02*
X84246D01*
Y6118D01*
X84314Y5862D01*
X84447Y5634D01*
X84634Y5447D01*
X84862Y5314D01*
X85118Y5246D01*
X85123D01*
Y6123D01*
D02*
G37*
G36*
X79754D02*
X78877D01*
Y5246D01*
X78882D01*
X79138Y5314D01*
X79366Y5447D01*
X79553Y5634D01*
X79686Y5862D01*
X79754Y6118D01*
Y6123D01*
D02*
G37*
G36*
X78623D02*
X77746D01*
Y6118D01*
X77814Y5862D01*
X77947Y5634D01*
X78134Y5447D01*
X78362Y5314D01*
X78618Y5246D01*
X78623D01*
Y6123D01*
D02*
G37*
G36*
X65254D02*
X64377D01*
Y5246D01*
X64382D01*
X64638Y5314D01*
X64866Y5447D01*
X65053Y5634D01*
X65186Y5862D01*
X65254Y6118D01*
Y6123D01*
D02*
G37*
G36*
X64123D02*
X63246D01*
Y6118D01*
X63314Y5862D01*
X63447Y5634D01*
X63634Y5447D01*
X63862Y5314D01*
X64118Y5246D01*
X64123D01*
Y6123D01*
D02*
G37*
G36*
X58754D02*
X57877D01*
Y5246D01*
X57882D01*
X58138Y5314D01*
X58366Y5447D01*
X58553Y5634D01*
X58686Y5862D01*
X58754Y6118D01*
Y6123D01*
D02*
G37*
G36*
X57623D02*
X56746D01*
Y6118D01*
X56814Y5862D01*
X56947Y5634D01*
X57134Y5447D01*
X57362Y5314D01*
X57618Y5246D01*
X57623D01*
Y6123D01*
D02*
G37*
G36*
X44254D02*
X43377D01*
Y5246D01*
X43382D01*
X43638Y5314D01*
X43866Y5447D01*
X44053Y5634D01*
X44186Y5862D01*
X44254Y6118D01*
Y6123D01*
D02*
G37*
G36*
X43123D02*
X42246D01*
Y6118D01*
X42314Y5862D01*
X42447Y5634D01*
X42634Y5447D01*
X42862Y5314D01*
X43118Y5246D01*
X43123D01*
Y6123D01*
D02*
G37*
G36*
X37754D02*
X36877D01*
Y5246D01*
X36882D01*
X37138Y5314D01*
X37366Y5447D01*
X37553Y5634D01*
X37686Y5862D01*
X37754Y6118D01*
Y6123D01*
D02*
G37*
G36*
X36623D02*
X35746D01*
Y6118D01*
X35814Y5862D01*
X35947Y5634D01*
X36134Y5447D01*
X36362Y5314D01*
X36618Y5246D01*
X36623D01*
Y6123D01*
D02*
G37*
G36*
X23254D02*
X22377D01*
Y5246D01*
X22382D01*
X22638Y5314D01*
X22866Y5447D01*
X23053Y5634D01*
X23186Y5862D01*
X23254Y6118D01*
Y6123D01*
D02*
G37*
G36*
X22123D02*
X21246D01*
Y6118D01*
X21314Y5862D01*
X21447Y5634D01*
X21634Y5447D01*
X21862Y5314D01*
X22118Y5246D01*
X22123D01*
Y6123D01*
D02*
G37*
G36*
X16754D02*
X15877D01*
Y5246D01*
X15882D01*
X16138Y5314D01*
X16366Y5447D01*
X16553Y5634D01*
X16686Y5862D01*
X16754Y6118D01*
Y6123D01*
D02*
G37*
G36*
X15623D02*
X14746D01*
Y6118D01*
X14814Y5862D01*
X14947Y5634D01*
X15134Y5447D01*
X15362Y5314D01*
X15618Y5246D01*
X15623D01*
Y6123D01*
D02*
G37*
G36*
X39486Y59154D02*
X39314D01*
X39148Y59109D01*
X38998Y59023D01*
X38877Y58902D01*
X38791Y58752D01*
X38746Y58586D01*
Y58414D01*
X38791Y58248D01*
X38877Y58098D01*
X38911Y58064D01*
Y19138D01*
X22497Y2723D01*
X22382Y2754D01*
X22118D01*
X21862Y2686D01*
X21634Y2553D01*
X21447Y2366D01*
X21314Y2138D01*
X21246Y1882D01*
Y1618D01*
X21314Y1362D01*
X21447Y1134D01*
X21634Y947D01*
X21862Y814D01*
X22118Y746D01*
X22382D01*
X22638Y814D01*
X22866Y947D01*
X23053Y1134D01*
X23186Y1362D01*
X23254Y1618D01*
Y1882D01*
X23223Y1997D01*
X39788Y18562D01*
X39900Y18728D01*
X39939Y18925D01*
Y58125D01*
X40009Y58248D01*
X40054Y58414D01*
Y58586D01*
X40009Y58752D01*
X39923Y58902D01*
X39802Y59023D01*
X39652Y59109D01*
X39486Y59154D01*
D02*
G37*
G36*
X85382Y2754D02*
X85118D01*
X84862Y2686D01*
X84634Y2553D01*
X84447Y2366D01*
X84314Y2138D01*
X84246Y1882D01*
Y1618D01*
X84314Y1362D01*
X84447Y1134D01*
X84634Y947D01*
X84862Y814D01*
X85118Y746D01*
X85382D01*
X85638Y814D01*
X85866Y947D01*
X86053Y1134D01*
X86186Y1362D01*
X86254Y1618D01*
Y1882D01*
X86186Y2138D01*
X86053Y2366D01*
X85866Y2553D01*
X85638Y2686D01*
X85382Y2754D01*
D02*
G37*
G36*
X64382D02*
X64118D01*
X63862Y2686D01*
X63634Y2553D01*
X63447Y2366D01*
X63314Y2138D01*
X63246Y1882D01*
Y1618D01*
X63314Y1362D01*
X63447Y1134D01*
X63634Y947D01*
X63862Y814D01*
X64118Y746D01*
X64382D01*
X64638Y814D01*
X64866Y947D01*
X65053Y1134D01*
X65186Y1362D01*
X65254Y1618D01*
Y1882D01*
X65186Y2138D01*
X65053Y2366D01*
X64866Y2553D01*
X64638Y2686D01*
X64382Y2754D01*
D02*
G37*
G36*
X43382D02*
X43118D01*
X42862Y2686D01*
X42634Y2553D01*
X42447Y2366D01*
X42314Y2138D01*
X42246Y1882D01*
Y1618D01*
X42314Y1362D01*
X42447Y1134D01*
X42634Y947D01*
X42862Y814D01*
X43118Y746D01*
X43382D01*
X43638Y814D01*
X43866Y947D01*
X44053Y1134D01*
X44186Y1362D01*
X44254Y1618D01*
Y1882D01*
X44186Y2138D01*
X44053Y2366D01*
X43866Y2553D01*
X43638Y2686D01*
X43382Y2754D01*
D02*
G37*
G36*
X15882D02*
X15618D01*
X15362Y2686D01*
X15134Y2553D01*
X14947Y2366D01*
X14814Y2138D01*
X14746Y1882D01*
Y1618D01*
X14814Y1362D01*
X14947Y1134D01*
X15134Y947D01*
X15362Y814D01*
X15618Y746D01*
X15882D01*
X16138Y814D01*
X16366Y947D01*
X16553Y1134D01*
X16686Y1362D01*
X16754Y1618D01*
Y1882D01*
X16686Y2138D01*
X16553Y2366D01*
X16366Y2553D01*
X16138Y2686D01*
X15882Y2754D01*
D02*
G37*
%LPD*%
D26*
X19350Y47075D02*
X22925D01*
X22900Y44225D02*
X23000Y44125D01*
X19250Y44225D02*
X22900D01*
X23000Y44125D02*
X24100D01*
X19225Y44250D02*
X19250Y44225D01*
X33100Y18575D02*
Y27975D01*
X27600Y18450D02*
Y28100D01*
X33100Y27975D02*
X33125Y28000D01*
X30375Y18475D02*
Y28000D01*
D27*
X24150Y78025D02*
X44550D01*
X24100Y77975D02*
X24150Y78025D01*
X58425Y55750D02*
Y65850D01*
X59475Y52425D02*
Y60475D01*
X65625Y66625D01*
X50575Y28525D02*
Y56650D01*
X50550Y28500D02*
X50575Y28525D01*
X41625Y65600D02*
X50575Y56650D01*
X41859Y75741D02*
X41875Y75725D01*
X41888Y66988D02*
Y75713D01*
X41875Y75725D02*
X41888Y75713D01*
X61825Y70925D02*
X61865Y70965D01*
X82875D01*
X28888Y80613D02*
X60213D01*
X28850Y80575D02*
X28888Y80613D01*
X60213D02*
X60250Y80650D01*
X13238Y75748D02*
X13450D01*
X13027D02*
X13238D01*
X41900Y66975D02*
X54087Y54788D01*
X41888Y66988D02*
X41900Y66975D01*
X13450Y75748D02*
X13457Y75741D01*
X41859D01*
X13027Y78161D02*
X18739D01*
X20150Y76750D02*
X43225D01*
X18739Y78161D02*
X20150Y76750D01*
X43188Y68188D02*
X43200Y68200D01*
X43175Y68175D02*
X43188Y68188D01*
X45925Y13575D02*
X57750Y1750D01*
X45925Y13575D02*
Y25325D01*
X65625Y66625D02*
Y68200D01*
X43188Y68188D02*
X65613D01*
X65625Y68200D01*
X54087Y52538D02*
Y54788D01*
X48725Y73850D02*
X52875D01*
X22250Y24250D02*
Y38475D01*
X28575Y44800D02*
Y65600D01*
X22250Y38475D02*
X28575Y44800D01*
X12413Y56763D02*
X14762D01*
X14775Y56775D01*
X12400Y56750D02*
X12413Y56763D01*
X10975Y59575D02*
X10988Y59588D01*
X14613D02*
X14625Y59600D01*
X10988Y59588D02*
X14613D01*
X66775Y49775D02*
X68750Y47800D01*
X72600D01*
X66775Y53925D02*
X67900Y55050D01*
X66775Y49775D02*
Y53925D01*
X71000Y23250D02*
Y33250D01*
X68814Y35436D02*
X71000Y33250D01*
X43100Y28150D02*
X45925Y25325D01*
X44550Y78025D02*
X48725Y73850D01*
X43200Y68200D02*
Y76725D01*
X44475Y29625D02*
Y58500D01*
X64700Y9400D02*
X64700D01*
X72350Y1750D01*
X78750D01*
X44475Y29625D02*
X64700Y9400D01*
X39400Y58450D02*
X39425Y58425D01*
Y18925D02*
Y58425D01*
X43100Y28150D02*
Y58450D01*
X41700Y58500D02*
X41700Y6700D01*
X36750Y1750D02*
X41700Y6700D01*
X22250Y1750D02*
X39425Y18925D01*
X41675Y84950D02*
Y91300D01*
X45375Y95000D01*
X43200Y76725D02*
X43225Y76750D01*
D31*
X66525Y94750D02*
D03*
X92000Y95000D02*
D03*
X87500D02*
D03*
X45375D02*
D03*
D32*
X13027Y80828D02*
D03*
Y75748D02*
D03*
Y83114D02*
D03*
Y78161D02*
D03*
D33*
X97500Y87500D02*
D03*
X4500Y32500D02*
D03*
X97500D02*
D03*
D34*
X4500Y87500D02*
D03*
D35*
X22000Y81082D02*
D03*
D36*
X82775Y61705D02*
D03*
X82550Y46190D02*
D03*
X82875Y70965D02*
D03*
D37*
X82775Y64245D02*
D03*
X82550Y48730D02*
D03*
Y51270D02*
D03*
Y53810D02*
D03*
X82875Y73505D02*
D03*
Y76045D02*
D03*
Y78585D02*
D03*
X15750Y6250D02*
D03*
Y1750D02*
D03*
X22250Y6250D02*
D03*
Y1750D02*
D03*
X85250D02*
D03*
Y6250D02*
D03*
X78750Y1750D02*
D03*
Y6250D02*
D03*
X43250Y1750D02*
D03*
Y6250D02*
D03*
X36750Y1750D02*
D03*
Y6250D02*
D03*
X64250Y1750D02*
D03*
Y6250D02*
D03*
X57750Y1750D02*
D03*
Y6250D02*
D03*
X78750Y24250D02*
D03*
Y19750D02*
D03*
X85250Y24250D02*
D03*
Y19750D02*
D03*
X57750Y24250D02*
D03*
Y19750D02*
D03*
X64250Y24250D02*
D03*
Y19750D02*
D03*
X36750Y24250D02*
D03*
Y19750D02*
D03*
X43250Y24250D02*
D03*
Y19750D02*
D03*
X15750Y24250D02*
D03*
Y19750D02*
D03*
X22250Y24250D02*
D03*
Y19750D02*
D03*
D38*
X69000Y35230D02*
D03*
Y37770D02*
D03*
Y40310D02*
D03*
D39*
Y42850D02*
D03*
D40*
X24100Y77975D02*
D03*
X76950Y69800D02*
D03*
X67925Y76925D02*
D03*
X85250Y92825D02*
D03*
X76650Y95150D02*
D03*
X55150Y95200D02*
D03*
X45225Y92125D02*
D03*
X36150Y95625D02*
D03*
X23550Y95500D02*
D03*
X58425Y65850D02*
D03*
X59475Y52425D02*
D03*
X58425Y55750D02*
D03*
X50575Y56650D02*
D03*
X50550Y28500D02*
D03*
X41625Y65600D02*
D03*
X41900Y66975D02*
D03*
X61825Y70925D02*
D03*
X60250Y80650D02*
D03*
X67325Y49175D02*
D03*
X34775Y58375D02*
D03*
X34625Y73650D02*
D03*
X65625Y68200D02*
D03*
X54087Y52538D02*
D03*
X45125Y72325D02*
D03*
X52875Y73850D02*
D03*
X24100Y44125D02*
D03*
X19225Y44250D02*
D03*
X22925Y47075D02*
D03*
X19325Y47050D02*
D03*
X12400Y56750D02*
D03*
X10975Y59575D02*
D03*
X14625Y59600D02*
D03*
X14775Y56775D02*
D03*
X72600Y47800D02*
D03*
X67900Y55050D02*
D03*
X71000Y23250D02*
D03*
X43175Y68175D02*
D03*
X39400Y58500D02*
D03*
X41700D02*
D03*
X43100D02*
D03*
X44475D02*
D03*
X33100Y18575D02*
D03*
X28850Y80575D02*
D03*
X28575Y65600D02*
D03*
X33125Y28000D02*
D03*
X30375D02*
D03*
X27600Y28100D02*
D03*
X30375Y18475D02*
D03*
X27600Y18450D02*
D03*
X41675Y84950D02*
D03*
X41875Y75725D02*
D03*
X43225Y76750D02*
D03*
%TF.MD5,3acf6530fc1b477ae1ac4351f6290eeb*%
M02*
