%TF.GenerationSoftware,Altium Limited,Altium Designer,21.6.4 (81)*%
G04 Layer_Color=8388736*
%FSLAX43Y43*%
%MOMM*%
%TF.SameCoordinates,6460C9BA-4ACB-47D4-91E6-0B69D92CFE26*%
%TF.FilePolarity,Negative*%
%TF.FileFunction,Soldermask,Top*%
%TF.Part,Single*%
G01*
G75*
%TA.AperFunction,SMDPad,CuDef*%
%ADD10R,1.200X1.100*%
%ADD11R,1.508X1.207*%
%ADD12R,1.250X2.000*%
%ADD13R,2.000X1.250*%
%ADD14R,0.950X1.450*%
%ADD15R,1.600X1.000*%
%ADD16R,1.000X0.600*%
%ADD17R,1.207X1.508*%
%ADD18O,1.450X0.600*%
%ADD19R,1.556X1.505*%
%ADD20R,1.505X1.556*%
%ADD21R,1.450X0.950*%
%ADD22R,2.200X2.350*%
%ADD23R,2.400X0.800*%
%ADD24R,2.400X0.700*%
%ADD25R,1.100X1.200*%
%TA.AperFunction,ComponentPad*%
%ADD32O,2.540X1.778*%
%ADD33C,5.588*%
%ADD34C,5.842*%
%ADD35C,1.524*%
G04:AMPARAMS|DCode=36|XSize=1.5mm|YSize=1.5mm|CornerRadius=0.375mm|HoleSize=0mm|Usage=FLASHONLY|Rotation=90.000|XOffset=0mm|YOffset=0mm|HoleType=Round|Shape=RoundedRectangle|*
%AMROUNDEDRECTD36*
21,1,1.500,0.750,0,0,90.0*
21,1,0.750,1.500,0,0,90.0*
1,1,0.750,0.375,0.375*
1,1,0.750,0.375,-0.375*
1,1,0.750,-0.375,-0.375*
1,1,0.750,-0.375,0.375*
%
%ADD36ROUNDEDRECTD36*%
%ADD37C,1.500*%
%ADD38C,1.550*%
%ADD39R,1.550X1.550*%
%TA.AperFunction,ViaPad*%
%ADD40C,0.800*%
%TA.AperFunction,ComponentPad*%
%ADD43C,2.489*%
D10*
X50500Y23050D02*
D03*
Y20950D02*
D03*
D11*
X57425Y76999D02*
D03*
Y79101D02*
D03*
X58125Y50399D02*
D03*
Y52501D02*
D03*
X55375Y50399D02*
D03*
Y52501D02*
D03*
X53250Y77049D02*
D03*
Y79151D02*
D03*
X60300Y79101D02*
D03*
Y76999D02*
D03*
X11625Y17051D02*
D03*
Y14949D02*
D03*
X6175Y17051D02*
D03*
Y14949D02*
D03*
X8900Y17051D02*
D03*
Y14949D02*
D03*
X30400Y17051D02*
D03*
Y14949D02*
D03*
X33125Y17051D02*
D03*
Y14949D02*
D03*
X27650Y17051D02*
D03*
Y14949D02*
D03*
D12*
X50700Y65375D02*
D03*
X46950D02*
D03*
D13*
X76725Y46025D02*
D03*
Y42275D02*
D03*
D14*
X66475Y64250D02*
D03*
X64525D02*
D03*
X32975Y22900D02*
D03*
X31025D02*
D03*
X27025Y22875D02*
D03*
X28975D02*
D03*
X27025Y3150D02*
D03*
X28975D02*
D03*
X32975Y3100D02*
D03*
X31025D02*
D03*
X73975Y23300D02*
D03*
X72025D02*
D03*
X68025Y23250D02*
D03*
X69975D02*
D03*
X73975Y3100D02*
D03*
X72025D02*
D03*
X68025Y3050D02*
D03*
X69975D02*
D03*
X39025Y93000D02*
D03*
X40975D02*
D03*
X81025D02*
D03*
X82975D02*
D03*
X70525D02*
D03*
X72475D02*
D03*
X60025D02*
D03*
X61975D02*
D03*
X18025D02*
D03*
X19975D02*
D03*
X28525D02*
D03*
X30475D02*
D03*
X49525D02*
D03*
X51475D02*
D03*
D15*
X69650Y64265D02*
D03*
X78800Y61725D02*
D03*
X69650D02*
D03*
X78800Y64265D02*
D03*
D16*
X58450Y74800D02*
D03*
Y72900D02*
D03*
X60850Y73850D02*
D03*
X54275D02*
D03*
X56675Y74800D02*
D03*
Y72900D02*
D03*
D17*
X18101Y44300D02*
D03*
X15999D02*
D03*
X18100Y47025D02*
D03*
X15998D02*
D03*
X18076Y49725D02*
D03*
X15974D02*
D03*
X15899Y59625D02*
D03*
X18001D02*
D03*
X15849Y53925D02*
D03*
X17951D02*
D03*
X15849Y56775D02*
D03*
X17951D02*
D03*
D18*
X66600Y51230D02*
D03*
Y52500D02*
D03*
Y53770D02*
D03*
Y55040D02*
D03*
X61150Y51230D02*
D03*
Y52500D02*
D03*
Y53770D02*
D03*
Y55040D02*
D03*
D19*
X46000Y21099D02*
D03*
Y22901D02*
D03*
X25000Y4901D02*
D03*
Y3099D02*
D03*
Y21099D02*
D03*
Y22901D02*
D03*
X55000Y21099D02*
D03*
Y22901D02*
D03*
X46000Y4901D02*
D03*
Y3099D02*
D03*
X55000Y4901D02*
D03*
Y3099D02*
D03*
X76000Y21099D02*
D03*
Y22901D02*
D03*
X76000Y4901D02*
D03*
Y3099D02*
D03*
D20*
X56323Y47725D02*
D03*
X58125D02*
D03*
X71251D02*
D03*
X69449D02*
D03*
X84625Y41325D02*
D03*
X82823D02*
D03*
X13049Y71600D02*
D03*
X14851D02*
D03*
X45051Y85050D02*
D03*
X43249D02*
D03*
X44426Y70025D02*
D03*
X42624D02*
D03*
D21*
X50600Y25425D02*
D03*
Y27375D02*
D03*
D22*
X88300Y37200D02*
D03*
X82450D02*
D03*
D23*
X30600Y84495D02*
D03*
Y75505D02*
D03*
X39400D02*
D03*
Y84495D02*
D03*
X30600Y69495D02*
D03*
Y60505D02*
D03*
X39400D02*
D03*
Y69495D02*
D03*
D24*
X30600Y83175D02*
D03*
Y81905D02*
D03*
Y80635D02*
D03*
Y79365D02*
D03*
Y78095D02*
D03*
Y76825D02*
D03*
X39400D02*
D03*
Y78095D02*
D03*
Y79365D02*
D03*
Y80635D02*
D03*
Y81905D02*
D03*
Y83175D02*
D03*
X30600Y68175D02*
D03*
Y66905D02*
D03*
Y65635D02*
D03*
Y64365D02*
D03*
Y63095D02*
D03*
Y61825D02*
D03*
X39400D02*
D03*
Y63095D02*
D03*
Y64365D02*
D03*
Y65635D02*
D03*
Y66905D02*
D03*
Y68175D02*
D03*
D25*
X38950Y95000D02*
D03*
X41050D02*
D03*
X17950D02*
D03*
X20050D02*
D03*
X80950D02*
D03*
X83050D02*
D03*
X49450D02*
D03*
X51550D02*
D03*
X59950D02*
D03*
X62050D02*
D03*
X28450D02*
D03*
X30550D02*
D03*
X70450D02*
D03*
X72550D02*
D03*
D32*
X13027Y80828D02*
D03*
Y75748D02*
D03*
Y83114D02*
D03*
Y78161D02*
D03*
D33*
X97500Y87500D02*
D03*
X4500Y32500D02*
D03*
X97500D02*
D03*
D34*
X4500Y87500D02*
D03*
D35*
X22000Y81082D02*
D03*
D36*
X82775Y61705D02*
D03*
X82550Y46190D02*
D03*
X82875Y70965D02*
D03*
D37*
X82775Y64245D02*
D03*
X82550Y48730D02*
D03*
Y51270D02*
D03*
Y53810D02*
D03*
X82875Y73505D02*
D03*
Y76045D02*
D03*
Y78585D02*
D03*
X15750Y6250D02*
D03*
Y1750D02*
D03*
X22250Y6250D02*
D03*
Y1750D02*
D03*
X85250D02*
D03*
Y6250D02*
D03*
X78750Y1750D02*
D03*
Y6250D02*
D03*
X43250Y1750D02*
D03*
Y6250D02*
D03*
X36750Y1750D02*
D03*
Y6250D02*
D03*
X64250Y1750D02*
D03*
Y6250D02*
D03*
X57750Y1750D02*
D03*
Y6250D02*
D03*
X78750Y24250D02*
D03*
Y19750D02*
D03*
X85250Y24250D02*
D03*
Y19750D02*
D03*
X57750Y24250D02*
D03*
Y19750D02*
D03*
X64250Y24250D02*
D03*
Y19750D02*
D03*
X36750Y24250D02*
D03*
Y19750D02*
D03*
X43250Y24250D02*
D03*
Y19750D02*
D03*
X15750Y24250D02*
D03*
Y19750D02*
D03*
X22250Y24250D02*
D03*
Y19750D02*
D03*
D38*
X69000Y35230D02*
D03*
Y37770D02*
D03*
Y40310D02*
D03*
D39*
Y42850D02*
D03*
D40*
X24100Y77975D02*
D03*
X76950Y69800D02*
D03*
X67925Y76925D02*
D03*
X85250Y92825D02*
D03*
X76650Y95150D02*
D03*
X55150Y95200D02*
D03*
X45225Y92125D02*
D03*
X36150Y95625D02*
D03*
X23550Y95500D02*
D03*
X58425Y65850D02*
D03*
X59475Y52425D02*
D03*
X58425Y55750D02*
D03*
X50575Y56650D02*
D03*
X50550Y28500D02*
D03*
X41625Y65600D02*
D03*
X41900Y66975D02*
D03*
X61825Y70925D02*
D03*
X60250Y80650D02*
D03*
X67325Y49175D02*
D03*
X34775Y58375D02*
D03*
X34625Y73650D02*
D03*
X65625Y68200D02*
D03*
X54087Y52538D02*
D03*
X45125Y72325D02*
D03*
X52875Y73850D02*
D03*
X24100Y44125D02*
D03*
X19225Y44250D02*
D03*
X22925Y47075D02*
D03*
X19325Y47050D02*
D03*
X12400Y56750D02*
D03*
X10975Y59575D02*
D03*
X14625Y59600D02*
D03*
X14775Y56775D02*
D03*
X72600Y47800D02*
D03*
X67900Y55050D02*
D03*
X71000Y23250D02*
D03*
X43175Y68175D02*
D03*
X39400Y58500D02*
D03*
X41700D02*
D03*
X43100D02*
D03*
X44475D02*
D03*
X33100Y18575D02*
D03*
X28850Y80575D02*
D03*
X28575Y65600D02*
D03*
X33125Y28000D02*
D03*
X30375D02*
D03*
X27600Y28100D02*
D03*
X30375Y18475D02*
D03*
X27600Y18450D02*
D03*
X41675Y84950D02*
D03*
X41875Y75725D02*
D03*
X43225Y76750D02*
D03*
D43*
X66525Y94750D02*
D03*
X92000Y95000D02*
D03*
X87500D02*
D03*
X45375D02*
D03*
%TF.MD5,48ea985a9c0bbf976a1f2ce503439705*%
M02*
