%TF.GenerationSoftware,Altium Limited,Altium Designer,21.6.4 (81)*%
G04 Layer_Color=8388736*
%FSLAX43Y43*%
%MOMM*%
%TF.SameCoordinates,6460C9BA-4ACB-47D4-91E6-0B69D92CFE26*%
%TF.FilePolarity,Positive*%
%TF.FileFunction,Other,Top_Component_Outline*%
%TF.Part,Single*%
G01*
G75*
%TA.AperFunction,NonConductor*%
%ADD49C,0.100*%
%ADD50C,1.000*%
D49*
X84475Y65535D02*
X87775D01*
X84475Y60415D02*
Y65535D01*
Y60415D02*
X87775D01*
X95975Y61385D02*
Y64565D01*
X87775Y60415D02*
Y61385D01*
Y64565D02*
Y65535D01*
Y61385D02*
X95975D01*
X87775Y64565D02*
X95975D01*
X84250Y55100D02*
X87550D01*
X84250Y44900D02*
Y55100D01*
Y44900D02*
X87550D01*
X95750Y45870D02*
Y54130D01*
X87550Y44900D02*
Y45870D01*
Y54130D02*
Y55100D01*
Y45870D02*
X95750D01*
X87550Y54130D02*
X95750D01*
X84575Y79875D02*
X87875D01*
X84575Y69675D02*
Y79875D01*
Y69675D02*
X87875D01*
X96075Y70645D02*
Y78905D01*
X87875Y69675D02*
Y70645D01*
Y78905D02*
Y79875D01*
Y70645D02*
X96075D01*
X87875Y78905D02*
X96075D01*
X15900Y900D02*
Y7100D01*
X22100Y900D02*
Y7100D01*
X15900Y900D02*
X22100D01*
X15900Y7100D02*
X22100D01*
X78900D02*
X85100D01*
X78900Y900D02*
X85100D01*
Y7100D01*
X78900Y900D02*
Y7100D01*
X36900D02*
X43100D01*
X36900Y900D02*
X43100D01*
Y7100D01*
X36900Y900D02*
Y7100D01*
X57900D02*
X64100D01*
X57900Y900D02*
X64100D01*
Y7100D01*
X57900Y900D02*
Y7100D01*
X78900Y18900D02*
X85100D01*
X78900Y25100D02*
X85100D01*
X78900Y18900D02*
Y25100D01*
X85100Y18900D02*
Y25100D01*
X57900Y18900D02*
X64100D01*
X57900Y25100D02*
X64100D01*
X57900Y18900D02*
Y25100D01*
X64100Y18900D02*
Y25100D01*
X36900Y18900D02*
X43100D01*
X36900Y25100D02*
X43100D01*
X36900Y18900D02*
Y25100D01*
X43100Y18900D02*
Y25100D01*
X15900Y18900D02*
X22100D01*
X15900Y25100D02*
X22100D01*
X15900Y18900D02*
Y25100D01*
X22100Y18900D02*
Y25100D01*
D50*
X24748Y5153D02*
X25252Y4648D01*
%TF.MD5,71778f46b6ea02111273ae831f7c3a0b*%
M02*
