M48
;Layer_Color=9474304
;FILE_FORMAT=4:3
METRIC,LZ
;TYPE=PLATED
T1F00S00C0.300
T2F00S00C0.762
T3F00S00C1.000
T4F00S00C1.016
T5F00S00C2.794
T6F00S00C2.921
;TYPE=NON_PLATED
T7F00S00C0.762
T8F00S00C5.000
%
T01
X00276Y001845
X0030375Y0018475
X00331Y0018575
X0033125Y0028
X0030375
X00276Y00281
X0071Y002325
X00726Y00478
X0067325Y0049175
X00679Y005505
X0058425Y005575
X0059475Y0052425
X0054087Y0052538
X0050575Y005665
X0044475Y00585
X00431
X00417
X00394
X0034775Y0058375
X0028575Y00656
X0041625
X00419Y0066975
X0058425Y006585
X005055Y00285
X00241Y0044125
X0022925Y0047075
X0019325Y004705
X0019225Y004425
X0014775Y0056775
X00124Y005675
X0010975Y0059575
X0014625Y00596
X002355Y00955
X003615Y0095625
X0045225Y0092125
X0041675Y008495
X0041875Y0075725
X0043225Y007675
X0045125Y0072325
X0043175Y0068175
X0034625Y007365
X002885Y0080575
X00241Y0077975
X0052875Y007385
X0061825Y0070925
X006025Y008065
X005515Y00952
X007665Y009515
X008525Y0092825
X007695Y00698
X0065625Y00682
X0067925Y0076925
T02
X0045375Y0095
X00875
X0092
T03
X001575Y000175
Y000625
X002225
Y000175
Y001975
Y002425
X001575
Y001975
X003675
Y002425
X004325
Y001975
Y000625
Y000175
X003675
Y000625
X005775
Y000175
Y001975
Y002425
X006425
Y001975
Y000625
Y000175
X007875
Y000625
X008525
Y000175
Y001975
Y002425
X007875
Y001975
X0069Y003523
Y003777
Y004031
Y004285
X008255Y004619
Y004873
Y005127
Y005381
X0082775Y0061705
Y0064245
X0082875Y0070965
Y0073505
Y0076045
Y0078585
T04
X0013027Y0075748
Y0078161
Y0080828
Y0083114
T05
X00975Y00325
X00045
X00975Y00875
T06
X00045Y00875
T07
X0066525Y009475
T08
X0022Y0081082
M30
