%TF.GenerationSoftware,Altium Limited,Altium Designer,21.6.4 (81)*%
G04 Layer_Color=8421504*
%FSLAX43Y43*%
%MOMM*%
%TF.SameCoordinates,6460C9BA-4ACB-47D4-91E6-0B69D92CFE26*%
%TF.FilePolarity,Positive*%
%TF.FileFunction,Paste,Top*%
%TF.Part,Single*%
G01*
G75*
%TA.AperFunction,SMDPad,CuDef*%
%ADD10R,1.200X1.100*%
%ADD11R,1.508X1.207*%
%ADD12R,1.250X2.000*%
%ADD13R,2.000X1.250*%
%ADD14R,0.950X1.450*%
%ADD15R,1.600X1.000*%
%ADD16R,1.000X0.600*%
%ADD17R,1.207X1.508*%
%ADD18O,1.450X0.600*%
%ADD19R,1.556X1.505*%
%ADD20R,1.505X1.556*%
%ADD21R,1.450X0.950*%
%ADD22R,2.200X2.350*%
%ADD23R,2.400X0.800*%
%ADD24R,2.400X0.700*%
%ADD25R,1.100X1.200*%
D10*
X50500Y23050D02*
D03*
Y20950D02*
D03*
D11*
X57425Y76999D02*
D03*
Y79101D02*
D03*
X58125Y50399D02*
D03*
Y52501D02*
D03*
X55375Y50399D02*
D03*
Y52501D02*
D03*
X53250Y77049D02*
D03*
Y79151D02*
D03*
X60300Y79101D02*
D03*
Y76999D02*
D03*
X11625Y17051D02*
D03*
Y14949D02*
D03*
X6175Y17051D02*
D03*
Y14949D02*
D03*
X8900Y17051D02*
D03*
Y14949D02*
D03*
X30400Y17051D02*
D03*
Y14949D02*
D03*
X33125Y17051D02*
D03*
Y14949D02*
D03*
X27650Y17051D02*
D03*
Y14949D02*
D03*
D12*
X50700Y65375D02*
D03*
X46950D02*
D03*
D13*
X76725Y46025D02*
D03*
Y42275D02*
D03*
D14*
X66475Y64250D02*
D03*
X64525D02*
D03*
X32975Y22900D02*
D03*
X31025D02*
D03*
X27025Y22875D02*
D03*
X28975D02*
D03*
X27025Y3150D02*
D03*
X28975D02*
D03*
X32975Y3100D02*
D03*
X31025D02*
D03*
X73975Y23300D02*
D03*
X72025D02*
D03*
X68025Y23250D02*
D03*
X69975D02*
D03*
X73975Y3100D02*
D03*
X72025D02*
D03*
X68025Y3050D02*
D03*
X69975D02*
D03*
X39025Y93000D02*
D03*
X40975D02*
D03*
X81025D02*
D03*
X82975D02*
D03*
X70525D02*
D03*
X72475D02*
D03*
X60025D02*
D03*
X61975D02*
D03*
X18025D02*
D03*
X19975D02*
D03*
X28525D02*
D03*
X30475D02*
D03*
X49525D02*
D03*
X51475D02*
D03*
D15*
X69650Y64265D02*
D03*
X78800Y61725D02*
D03*
X69650D02*
D03*
X78800Y64265D02*
D03*
D16*
X58450Y74800D02*
D03*
Y72900D02*
D03*
X60850Y73850D02*
D03*
X54275D02*
D03*
X56675Y74800D02*
D03*
Y72900D02*
D03*
D17*
X18101Y44300D02*
D03*
X15999D02*
D03*
X18100Y47025D02*
D03*
X15998D02*
D03*
X18076Y49725D02*
D03*
X15974D02*
D03*
X15899Y59625D02*
D03*
X18001D02*
D03*
X15849Y53925D02*
D03*
X17951D02*
D03*
X15849Y56775D02*
D03*
X17951D02*
D03*
D18*
X66600Y51230D02*
D03*
Y52500D02*
D03*
Y53770D02*
D03*
Y55040D02*
D03*
X61150Y51230D02*
D03*
Y52500D02*
D03*
Y53770D02*
D03*
Y55040D02*
D03*
D19*
X46000Y21099D02*
D03*
Y22901D02*
D03*
X25000Y4901D02*
D03*
Y3099D02*
D03*
Y21099D02*
D03*
Y22901D02*
D03*
X55000Y21099D02*
D03*
Y22901D02*
D03*
X46000Y4901D02*
D03*
Y3099D02*
D03*
X55000Y4901D02*
D03*
Y3099D02*
D03*
X76000Y21099D02*
D03*
Y22901D02*
D03*
X76000Y4901D02*
D03*
Y3099D02*
D03*
D20*
X56323Y47725D02*
D03*
X58125D02*
D03*
X71251D02*
D03*
X69449D02*
D03*
X84625Y41325D02*
D03*
X82823D02*
D03*
X13049Y71600D02*
D03*
X14851D02*
D03*
X45051Y85050D02*
D03*
X43249D02*
D03*
X44426Y70025D02*
D03*
X42624D02*
D03*
D21*
X50600Y25425D02*
D03*
Y27375D02*
D03*
D22*
X88300Y37200D02*
D03*
X82450D02*
D03*
D23*
X30600Y84495D02*
D03*
Y75505D02*
D03*
X39400D02*
D03*
Y84495D02*
D03*
X30600Y69495D02*
D03*
Y60505D02*
D03*
X39400D02*
D03*
Y69495D02*
D03*
D24*
X30600Y83175D02*
D03*
Y81905D02*
D03*
Y80635D02*
D03*
Y79365D02*
D03*
Y78095D02*
D03*
Y76825D02*
D03*
X39400D02*
D03*
Y78095D02*
D03*
Y79365D02*
D03*
Y80635D02*
D03*
Y81905D02*
D03*
Y83175D02*
D03*
X30600Y68175D02*
D03*
Y66905D02*
D03*
Y65635D02*
D03*
Y64365D02*
D03*
Y63095D02*
D03*
Y61825D02*
D03*
X39400D02*
D03*
Y63095D02*
D03*
Y64365D02*
D03*
Y65635D02*
D03*
Y66905D02*
D03*
Y68175D02*
D03*
D25*
X38950Y95000D02*
D03*
X41050D02*
D03*
X17950D02*
D03*
X20050D02*
D03*
X80950D02*
D03*
X83050D02*
D03*
X49450D02*
D03*
X51550D02*
D03*
X59950D02*
D03*
X62050D02*
D03*
X28450D02*
D03*
X30550D02*
D03*
X70450D02*
D03*
X72550D02*
D03*
%TF.MD5,8424c5d8b47ef8aa9b760f4f0cc4503f*%
M02*
