%TF.GenerationSoftware,Altium Limited,Altium Designer,21.6.4 (81)*%
G04 Layer_Color=32896*
%FSLAX43Y43*%
%MOMM*%
%TF.SameCoordinates,6460C9BA-4ACB-47D4-91E6-0B69D92CFE26*%
%TF.FilePolarity,Positive*%
%TF.FileFunction,Other,Top_Courtyard*%
%TF.Part,Single*%
G01*
G75*
%TA.AperFunction,NonConductor*%
%ADD41C,0.200*%
%ADD48C,0.050*%
D41*
X46225Y64275D02*
Y66475D01*
Y64275D02*
X51425D01*
Y66475D01*
X46225D02*
X51425D01*
X75625Y41550D02*
X77825D01*
Y46750D01*
X75625D02*
X77825D01*
X75625Y41550D02*
Y46750D01*
X63950Y63425D02*
Y65075D01*
Y63425D02*
X67050D01*
Y65075D01*
X63950D02*
X67050D01*
X67875Y45065D02*
X74325D01*
X67875Y33015D02*
Y45065D01*
Y33015D02*
X74325D01*
Y45065D01*
X44722Y19847D02*
Y24153D01*
X47278D01*
Y19847D02*
Y24153D01*
X44722Y19847D02*
X47278D01*
X26278Y1847D02*
Y6153D01*
X23722Y1847D02*
X26278D01*
X23722D02*
Y6153D01*
X26278D01*
X23722Y19847D02*
Y24153D01*
X26278D01*
Y19847D02*
Y24153D01*
X23722Y19847D02*
X26278D01*
X30450Y22075D02*
X33550D01*
X30450D02*
Y23725D01*
X33550D01*
Y22075D02*
Y23725D01*
X26450Y23700D02*
X29550D01*
Y22050D02*
Y23700D01*
X26450Y22050D02*
X29550D01*
X26450D02*
Y23700D01*
X53722Y19847D02*
Y24153D01*
X56278D01*
Y19847D02*
Y24153D01*
X53722Y19847D02*
X56278D01*
X26450Y3975D02*
X29550D01*
Y2325D02*
Y3975D01*
X26450Y2325D02*
X29550D01*
X26450D02*
Y3975D01*
X30450Y2275D02*
X33550D01*
X30450D02*
Y3925D01*
X33550D01*
Y2275D02*
Y3925D01*
X47278Y1847D02*
Y6153D01*
X44722Y1847D02*
X47278D01*
X44722D02*
Y6153D01*
X47278D01*
X56278Y1847D02*
Y6153D01*
X53722Y1847D02*
X56278D01*
X53722D02*
Y6153D01*
X56278D01*
X74722Y19847D02*
Y24153D01*
X77278D01*
Y19847D02*
Y24153D01*
X74722Y19847D02*
X77278D01*
X71450Y22475D02*
X74550D01*
X71450D02*
Y24125D01*
X74550D01*
Y22475D02*
Y24125D01*
X67450Y24075D02*
X70550D01*
Y22425D02*
Y24075D01*
X67450Y22425D02*
X70550D01*
X67450D02*
Y24075D01*
X77278Y1847D02*
Y6153D01*
X74722Y1847D02*
X77278D01*
X74722D02*
Y6153D01*
X77278D01*
X71450Y2275D02*
X74550D01*
X71450D02*
Y3925D01*
X74550D01*
Y2275D02*
Y3925D01*
X67450Y3875D02*
X70550D01*
Y2225D02*
Y3875D01*
X67450Y2225D02*
X70550D01*
X67450D02*
Y3875D01*
X59377Y46447D02*
Y49003D01*
X55071D02*
X59377D01*
X55071Y46447D02*
Y49003D01*
Y46447D02*
X59377D01*
X68197D02*
Y49003D01*
Y46447D02*
X72503D01*
Y49003D01*
X68197D02*
X72503D01*
X49775Y24850D02*
Y27950D01*
X51425D01*
Y24850D02*
Y27950D01*
X49775Y24850D02*
X51425D01*
X81571Y40047D02*
X85877D01*
X81571D02*
Y42603D01*
X85877D01*
Y40047D02*
Y42603D01*
X11797Y72878D02*
X16103D01*
Y70322D02*
Y72878D01*
X11797Y70322D02*
X16103D01*
X11797D02*
Y72878D01*
X41997Y83772D02*
X46303D01*
X41997D02*
Y86328D01*
X46303D01*
Y83772D02*
Y86328D01*
X41372Y68747D02*
X45678D01*
X41372D02*
Y71303D01*
X45678D01*
Y68747D02*
Y71303D01*
X29275Y85950D02*
X40725D01*
Y74050D02*
Y85950D01*
X29275Y74050D02*
X40725D01*
X29275D02*
Y85950D01*
X38450Y93825D02*
X41550D01*
Y92175D02*
Y93825D01*
X38450Y92175D02*
X41550D01*
X38450D02*
Y93825D01*
X80450D02*
X83550D01*
Y92175D02*
Y93825D01*
X80450Y92175D02*
X83550D01*
X80450D02*
Y93825D01*
X69950D02*
X73050D01*
Y92175D02*
Y93825D01*
X69950Y92175D02*
X73050D01*
X69950D02*
Y93825D01*
X59450D02*
X62550D01*
Y92175D02*
Y93825D01*
X59450Y92175D02*
X62550D01*
X59450D02*
Y93825D01*
X17450D02*
X20550D01*
Y92175D02*
Y93825D01*
X17450Y92175D02*
X20550D01*
X17450D02*
Y93825D01*
X27950D02*
X31050D01*
Y92175D02*
Y93825D01*
X27950Y92175D02*
X31050D01*
X27950D02*
Y93825D01*
X48950D02*
X52050D01*
Y92175D02*
Y93825D01*
X48950Y92175D02*
X52050D01*
X48950D02*
Y93825D01*
X29275Y70950D02*
X40725D01*
Y59050D02*
Y70950D01*
X29275Y59050D02*
X40725D01*
X29275D02*
Y70950D01*
D48*
X89725Y62975D02*
X90725D01*
X90225Y62475D02*
Y63475D01*
X81825Y60065D02*
Y65885D01*
X96250D01*
Y60065D02*
Y65885D01*
X81825Y60065D02*
X96250D01*
X89500Y50000D02*
X90500D01*
X90000Y49500D02*
Y50500D01*
X81600Y44550D02*
Y55450D01*
X96025D01*
Y44550D02*
Y55450D01*
X81600Y44550D02*
X96025D01*
X89825Y74775D02*
X90825D01*
X90325Y74275D02*
Y75275D01*
X81925Y69325D02*
Y80225D01*
X96350D01*
Y69325D02*
Y80225D01*
X81925Y69325D02*
X96350D01*
X14800Y7300D02*
X23200D01*
Y700D02*
Y7300D01*
X14800Y700D02*
X23200D01*
X14800D02*
Y7300D01*
X18500Y4000D02*
X19500D01*
X19000Y3500D02*
Y4500D01*
X82000Y3500D02*
Y4500D01*
X81500Y4000D02*
X82500D01*
X77800Y700D02*
Y7300D01*
Y700D02*
X86200D01*
Y7300D01*
X77800D02*
X86200D01*
X40000Y3500D02*
Y4500D01*
X39500Y4000D02*
X40500D01*
X35800Y700D02*
Y7300D01*
Y700D02*
X44200D01*
Y7300D01*
X35800D02*
X44200D01*
X61000Y3500D02*
Y4500D01*
X60500Y4000D02*
X61500D01*
X56800Y700D02*
Y7300D01*
Y700D02*
X65200D01*
Y7300D01*
X56800D02*
X65200D01*
X82000Y21500D02*
Y22500D01*
X81500Y22000D02*
X82500D01*
X86200Y18700D02*
Y25300D01*
X77800D02*
X86200D01*
X77800Y18700D02*
Y25300D01*
Y18700D02*
X86200D01*
X61000Y21500D02*
Y22500D01*
X60500Y22000D02*
X61500D01*
X65200Y18700D02*
Y25300D01*
X56800D02*
X65200D01*
X56800Y18700D02*
Y25300D01*
Y18700D02*
X65200D01*
X40000Y21500D02*
Y22500D01*
X39500Y22000D02*
X40500D01*
X44200Y18700D02*
Y25300D01*
X35800D02*
X44200D01*
X35800Y18700D02*
Y25300D01*
Y18700D02*
X44200D01*
X19000Y21500D02*
Y22500D01*
X18500Y22000D02*
X19500D01*
X23200Y18700D02*
Y25300D01*
X14800D02*
X23200D01*
X14800Y18700D02*
Y25300D01*
Y18700D02*
X23200D01*
%TF.MD5,f4749fc86ecf1d79a3e47af4c9a777af*%
M02*
