%TF.GenerationSoftware,Altium Limited,Altium Designer,21.6.4 (81)*%
G04 Layer_Color=8388736*
%FSLAX43Y43*%
%MOMM*%
%TF.SameCoordinates,6460C9BA-4ACB-47D4-91E6-0B69D92CFE26*%
%TF.FilePolarity,Positive*%
%TF.FileFunction,Other,Top_Designator*%
%TF.Part,Single*%
G01*
G75*
%TA.AperFunction,NonConductor*%
%ADD52C,0.150*%
D52*
X90975Y61725D02*
X89475D01*
Y62475D01*
X89725Y62725D01*
X90225D01*
X90475Y62475D01*
Y61725D01*
X89725Y63225D02*
X89475Y63475D01*
Y63975D01*
X89725Y64225D01*
X89975D01*
X90225Y63975D01*
Y63725D01*
Y63975D01*
X90475Y64225D01*
X90725D01*
X90975Y63975D01*
Y63475D01*
X90725Y63225D01*
X90750Y48750D02*
X89250D01*
Y49500D01*
X89500Y49750D01*
X90000D01*
X90250Y49500D01*
Y48750D01*
X90750Y51250D02*
Y50250D01*
X89750Y51250D01*
X89500D01*
X89250Y51000D01*
Y50500D01*
X89500Y50250D01*
X91075Y73775D02*
X89575D01*
Y74525D01*
X89825Y74775D01*
X90325D01*
X90575Y74525D01*
Y73775D01*
X91075Y75275D02*
Y75775D01*
Y75525D01*
X89575D01*
X89825Y75275D01*
X17975Y4550D02*
X17725Y4800D01*
X17226D01*
X16976Y4550D01*
Y4300D01*
X17226Y4050D01*
X17725D01*
X17975Y3800D01*
Y3550D01*
X17725Y3300D01*
X17226D01*
X16976Y3550D01*
X18475Y4800D02*
Y3300D01*
X18975Y3800D01*
X19475Y3300D01*
Y4800D01*
X19975Y4550D02*
X20225Y4800D01*
X20724D01*
X20974Y4550D01*
Y4300D01*
X20724Y4050D01*
X20974Y3800D01*
Y3550D01*
X20724Y3300D01*
X20225D01*
X19975Y3550D01*
Y3800D01*
X20225Y4050D01*
X19975Y4300D01*
Y4550D01*
X20225Y4050D02*
X20724D01*
X81000Y4500D02*
X80750Y4750D01*
X80251D01*
X80001Y4500D01*
Y4250D01*
X80251Y4000D01*
X80750D01*
X81000Y3750D01*
Y3500D01*
X80750Y3250D01*
X80251D01*
X80001Y3500D01*
X81500Y4750D02*
Y3250D01*
X82000Y3750D01*
X82500Y3250D01*
Y4750D01*
X83999D02*
X83000D01*
Y4000D01*
X83500Y4250D01*
X83749D01*
X83999Y4000D01*
Y3500D01*
X83749Y3250D01*
X83250D01*
X83000Y3500D01*
X39000Y4500D02*
X38750Y4750D01*
X38251D01*
X38001Y4500D01*
Y4250D01*
X38251Y4000D01*
X38750D01*
X39000Y3750D01*
Y3500D01*
X38750Y3250D01*
X38251D01*
X38001Y3500D01*
X39500Y4750D02*
Y3250D01*
X40000Y3750D01*
X40500Y3250D01*
Y4750D01*
X41000D02*
X41999D01*
Y4500D01*
X41000Y3500D01*
Y3250D01*
X60000Y4500D02*
X59750Y4750D01*
X59251D01*
X59001Y4500D01*
Y4250D01*
X59251Y4000D01*
X59750D01*
X60000Y3750D01*
Y3500D01*
X59750Y3250D01*
X59251D01*
X59001Y3500D01*
X60500Y4750D02*
Y3250D01*
X61000Y3750D01*
X61500Y3250D01*
Y4750D01*
X62999D02*
X62500Y4500D01*
X62000Y4000D01*
Y3500D01*
X62250Y3250D01*
X62749D01*
X62999Y3500D01*
Y3750D01*
X62749Y4000D01*
X62000D01*
X83000Y21500D02*
X83250Y21250D01*
X83749D01*
X83999Y21500D01*
Y21750D01*
X83749Y22000D01*
X83250D01*
X83000Y22250D01*
Y22500D01*
X83250Y22750D01*
X83749D01*
X83999Y22500D01*
X82500Y21250D02*
Y22750D01*
X82000Y22250D01*
X81500Y22750D01*
Y21250D01*
X80251Y22750D02*
Y21250D01*
X81000Y22000D01*
X80001D01*
X61750Y21500D02*
X62000Y21250D01*
X62500D01*
X62749Y21500D01*
Y21750D01*
X62500Y22000D01*
X62000D01*
X61750Y22250D01*
Y22500D01*
X62000Y22750D01*
X62500D01*
X62749Y22500D01*
X61250Y21250D02*
Y22750D01*
X60750Y22250D01*
X60250Y22750D01*
Y21250D01*
X59750Y22750D02*
X59251D01*
X59500D01*
Y21250D01*
X59750Y21500D01*
X41000D02*
X41250Y21250D01*
X41749D01*
X41999Y21500D01*
Y21750D01*
X41749Y22000D01*
X41250D01*
X41000Y22250D01*
Y22500D01*
X41250Y22750D01*
X41749D01*
X41999Y22500D01*
X40500Y21250D02*
Y22750D01*
X40000Y22250D01*
X39500Y22750D01*
Y21250D01*
X38001Y22750D02*
X39000D01*
X38001Y21750D01*
Y21500D01*
X38251Y21250D01*
X38750D01*
X39000Y21500D01*
X20000D02*
X20250Y21250D01*
X20749D01*
X20999Y21500D01*
Y21750D01*
X20749Y22000D01*
X20250D01*
X20000Y22250D01*
Y22500D01*
X20250Y22750D01*
X20749D01*
X20999Y22500D01*
X19500Y21250D02*
Y22750D01*
X19000Y22250D01*
X18500Y22750D01*
Y21250D01*
X18000Y21500D02*
X17750Y21250D01*
X17251D01*
X17001Y21500D01*
Y21750D01*
X17251Y22000D01*
X17500D01*
X17251D01*
X17001Y22250D01*
Y22500D01*
X17251Y22750D01*
X17750D01*
X18000Y22500D01*
%TF.MD5,818ae78d1c3f47b5f0cf47278ed72121*%
M02*
