%TF.GenerationSoftware,Altium Limited,Altium Designer,21.6.4 (81)*%
G04 Layer_Color=32896*
%FSLAX43Y43*%
%MOMM*%
%TF.SameCoordinates,6460C9BA-4ACB-47D4-91E6-0B69D92CFE26*%
%TF.FilePolarity,Positive*%
%TF.FileFunction,Legend,Bot*%
%TF.Part,Single*%
G01*
G75*
%TA.AperFunction,NonConductor*%
%ADD41C,0.200*%
%ADD42C,0.254*%
D41*
X88700Y66375D02*
X90525D01*
X86525Y64200D02*
X88700Y66375D01*
X83950Y64200D02*
X86525D01*
X83950Y61675D02*
X86475D01*
X88725Y59425D01*
X90650D01*
D42*
X18996Y81590D02*
Y80574D01*
X18488Y80066D01*
X17980Y80574D01*
Y81590D01*
X16457Y81336D02*
X16711Y81590D01*
X17219D01*
X17472Y81336D01*
Y80320D01*
X17219Y80066D01*
X16711D01*
X16457Y80320D01*
X14933Y81336D02*
X15187Y81590D01*
X15695D01*
X15949Y81336D01*
Y80320D01*
X15695Y80066D01*
X15187D01*
X14933Y80320D01*
X17980Y78923D02*
X18234Y79177D01*
X18742D01*
X18996Y78923D01*
Y78669D01*
X18742Y78415D01*
X18234D01*
X17980Y78161D01*
Y77907D01*
X18234Y77653D01*
X18742D01*
X18996Y77907D01*
X17472Y79177D02*
Y77653D01*
X16711D01*
X16457Y77907D01*
Y78923D01*
X16711Y79177D01*
X17472D01*
X15949Y77653D02*
Y78669D01*
X15441Y79177D01*
X14933Y78669D01*
Y77653D01*
Y78415D01*
X15949D01*
X18107Y83749D02*
X18361Y84003D01*
X18869D01*
X19123Y83749D01*
Y82733D01*
X18869Y82479D01*
X18361D01*
X18107Y82733D01*
Y83241D01*
X18615D01*
X17599Y82479D02*
Y84003D01*
X16584Y82479D01*
Y84003D01*
X16076D02*
Y82479D01*
X15314D01*
X15060Y82733D01*
Y83749D01*
X15314Y84003D01*
X16076D01*
X17980Y76129D02*
X18234Y76383D01*
X18742D01*
X18996Y76129D01*
Y75875D01*
X18742Y75621D01*
X18234D01*
X17980Y75367D01*
Y75113D01*
X18234Y74859D01*
X18742D01*
X18996Y75113D01*
X16457Y76129D02*
X16711Y76383D01*
X17219D01*
X17472Y76129D01*
Y75113D01*
X17219Y74859D01*
X16711D01*
X16457Y75113D01*
X15949Y76383D02*
Y74859D01*
X14933D01*
X95771Y59945D02*
X95438D01*
X95604D01*
Y58946D01*
X95771D01*
X95438D01*
X94938D02*
Y59945D01*
X94271Y58946D01*
Y59945D01*
X93938D02*
X93272D01*
X93605D01*
Y58946D01*
X92939Y58779D02*
X92272D01*
X91272Y59945D02*
X91939D01*
Y58946D01*
X91272D01*
X91939Y59445D02*
X91606D01*
X95596Y66895D02*
X95263D01*
X95429D01*
Y65896D01*
X95596D01*
X95263D01*
X94763D02*
Y66895D01*
X94096Y65896D01*
Y66895D01*
X93763D02*
X93097D01*
X93430D01*
Y65896D01*
X92764Y65729D02*
X92097D01*
X91097Y66729D02*
X91264Y66895D01*
X91597D01*
X91764Y66729D01*
Y66062D01*
X91597Y65896D01*
X91264D01*
X91097Y66062D01*
X80038Y81805D02*
X79871Y81971D01*
Y82304D01*
X80038Y82471D01*
X80704D01*
X80871Y82304D01*
Y81971D01*
X80704Y81805D01*
X80371D01*
Y82138D01*
X80871Y81471D02*
X79871D01*
X80871Y80805D01*
X79871D01*
Y80472D02*
X80871D01*
Y79972D01*
X80704Y79805D01*
X80038D01*
X79871Y79972D01*
Y80472D01*
X80038Y77806D02*
X79871Y77972D01*
Y78306D01*
X80038Y78472D01*
X80205D01*
X80371Y78306D01*
Y77972D01*
X80538Y77806D01*
X80704D01*
X80871Y77972D01*
Y78306D01*
X80704Y78472D01*
X80038Y76806D02*
X79871Y76973D01*
Y77306D01*
X80038Y77473D01*
X80704D01*
X80871Y77306D01*
Y76973D01*
X80704Y76806D01*
X79871Y76473D02*
X80871D01*
Y75806D01*
X80038Y73807D02*
X79871Y73974D01*
Y74307D01*
X80038Y74474D01*
X80205D01*
X80371Y74307D01*
Y73974D01*
X80538Y73807D01*
X80704D01*
X80871Y73974D01*
Y74307D01*
X80704Y74474D01*
X79871Y73474D02*
X80871D01*
Y72974D01*
X80704Y72807D01*
X80038D01*
X79871Y72974D01*
Y73474D01*
X80871Y72474D02*
X80205D01*
X79871Y72141D01*
X80205Y71808D01*
X80871D01*
X80371D01*
Y72474D01*
X79871Y69808D02*
Y70475D01*
X80371D01*
X80205Y70142D01*
Y69975D01*
X80371Y69808D01*
X80704D01*
X80871Y69975D01*
Y70308D01*
X80704Y70475D01*
X79871Y69475D02*
X80538D01*
X80871Y69142D01*
X80538Y68809D01*
X79871D01*
X79763Y56055D02*
X79596Y56221D01*
Y56554D01*
X79763Y56721D01*
X80429D01*
X80596Y56554D01*
Y56221D01*
X80429Y56055D01*
X80096D01*
Y56388D01*
X80596Y55721D02*
X79596D01*
X80596Y55055D01*
X79596D01*
Y54722D02*
X80596D01*
Y54222D01*
X80429Y54055D01*
X79763D01*
X79596Y54222D01*
Y54722D01*
X79763Y52056D02*
X79596Y52222D01*
Y52556D01*
X79763Y52722D01*
X79930D01*
X80096Y52556D01*
Y52222D01*
X80263Y52056D01*
X80429D01*
X80596Y52222D01*
Y52556D01*
X80429Y52722D01*
X79763Y51056D02*
X79596Y51223D01*
Y51556D01*
X79763Y51723D01*
X80429D01*
X80596Y51556D01*
Y51223D01*
X80429Y51056D01*
X79596Y50723D02*
X80596D01*
Y50056D01*
X79763Y48057D02*
X79596Y48224D01*
Y48557D01*
X79763Y48724D01*
X79930D01*
X80096Y48557D01*
Y48224D01*
X80263Y48057D01*
X80429D01*
X80596Y48224D01*
Y48557D01*
X80429Y48724D01*
X79596Y47724D02*
X80596D01*
Y47224D01*
X80429Y47057D01*
X79763D01*
X79596Y47224D01*
Y47724D01*
X80596Y46724D02*
X79930D01*
X79596Y46391D01*
X79930Y46058D01*
X80596D01*
X80096D01*
Y46724D01*
X79596Y44058D02*
Y44725D01*
X80096D01*
X79930Y44392D01*
Y44225D01*
X80096Y44058D01*
X80429D01*
X80596Y44225D01*
Y44558D01*
X80429Y44725D01*
X79596Y43725D02*
X80263D01*
X80596Y43392D01*
X80263Y43059D01*
X79596D01*
X76746Y51496D02*
Y51163D01*
Y51329D01*
X77746D01*
Y51496D01*
Y51163D01*
X76913Y49996D02*
X76746Y50163D01*
Y50496D01*
X76913Y50663D01*
X77080D01*
X77246Y50496D01*
Y50163D01*
X77413Y49996D01*
X77579D01*
X77746Y50163D01*
Y50496D01*
X77579Y50663D01*
X76746Y49163D02*
Y49497D01*
X76913Y49663D01*
X77579D01*
X77746Y49497D01*
Y49163D01*
X77579Y48997D01*
X76913D01*
X76746Y49163D01*
X87821Y50846D02*
Y50513D01*
Y50679D01*
X88821D01*
Y50846D01*
Y50513D01*
X87988Y49346D02*
X87821Y49513D01*
Y49846D01*
X87988Y50013D01*
X88155D01*
X88321Y49846D01*
Y49513D01*
X88488Y49346D01*
X88654D01*
X88821Y49513D01*
Y49846D01*
X88654Y50013D01*
X87821Y48513D02*
Y48847D01*
X87988Y49013D01*
X88654D01*
X88821Y48847D01*
Y48513D01*
X88654Y48347D01*
X87988D01*
X87821Y48513D01*
X85163Y81330D02*
X84996Y81496D01*
Y81829D01*
X85163Y81996D01*
X85829D01*
X85996Y81829D01*
Y81496D01*
X85829Y81330D01*
X85496D01*
Y81663D01*
X85996Y80996D02*
X84996D01*
X85996Y80330D01*
X84996D01*
Y79997D02*
X85996D01*
Y79497D01*
X85829Y79330D01*
X85163D01*
X84996Y79497D01*
Y79997D01*
X85163Y77331D02*
X84996Y77497D01*
Y77831D01*
X85163Y77997D01*
X85330D01*
X85496Y77831D01*
Y77497D01*
X85663Y77331D01*
X85829D01*
X85996Y77497D01*
Y77831D01*
X85829Y77997D01*
X85163Y76331D02*
X84996Y76498D01*
Y76831D01*
X85163Y76998D01*
X85829D01*
X85996Y76831D01*
Y76498D01*
X85829Y76331D01*
X84996Y75998D02*
X85996D01*
Y75331D01*
X85163Y73332D02*
X84996Y73499D01*
Y73832D01*
X85163Y73999D01*
X85330D01*
X85496Y73832D01*
Y73499D01*
X85663Y73332D01*
X85829D01*
X85996Y73499D01*
Y73832D01*
X85829Y73999D01*
X84996Y72999D02*
X85996D01*
Y72499D01*
X85829Y72332D01*
X85163D01*
X84996Y72499D01*
Y72999D01*
X85996Y71999D02*
X85330D01*
X84996Y71666D01*
X85330Y71333D01*
X85996D01*
X85496D01*
Y71999D01*
X84996Y69333D02*
Y70000D01*
X85496D01*
X85330Y69667D01*
Y69500D01*
X85496Y69333D01*
X85829D01*
X85996Y69500D01*
Y69833D01*
X85829Y70000D01*
X84996Y69000D02*
X85663D01*
X85996Y68667D01*
X85663Y68334D01*
X84996D01*
X85688Y56205D02*
X85521Y56371D01*
Y56704D01*
X85688Y56871D01*
X86354D01*
X86521Y56704D01*
Y56371D01*
X86354Y56205D01*
X86021D01*
Y56538D01*
X86521Y55871D02*
X85521D01*
X86521Y55205D01*
X85521D01*
Y54872D02*
X86521D01*
Y54372D01*
X86354Y54205D01*
X85688D01*
X85521Y54372D01*
Y54872D01*
X85688Y52206D02*
X85521Y52372D01*
Y52706D01*
X85688Y52872D01*
X85855D01*
X86021Y52706D01*
Y52372D01*
X86188Y52206D01*
X86354D01*
X86521Y52372D01*
Y52706D01*
X86354Y52872D01*
X85688Y51206D02*
X85521Y51373D01*
Y51706D01*
X85688Y51873D01*
X86354D01*
X86521Y51706D01*
Y51373D01*
X86354Y51206D01*
X85521Y50873D02*
X86521D01*
Y50206D01*
X85688Y48207D02*
X85521Y48374D01*
Y48707D01*
X85688Y48874D01*
X85855D01*
X86021Y48707D01*
Y48374D01*
X86188Y48207D01*
X86354D01*
X86521Y48374D01*
Y48707D01*
X86354Y48874D01*
X85521Y47874D02*
X86521D01*
Y47374D01*
X86354Y47207D01*
X85688D01*
X85521Y47374D01*
Y47874D01*
X86521Y46874D02*
X85855D01*
X85521Y46541D01*
X85855Y46208D01*
X86521D01*
X86021D01*
Y46874D01*
X85521Y44208D02*
Y44875D01*
X86021D01*
X85855Y44542D01*
Y44375D01*
X86021Y44208D01*
X86354D01*
X86521Y44375D01*
Y44708D01*
X86354Y44875D01*
X85521Y43875D02*
X86188D01*
X86521Y43542D01*
X86188Y43209D01*
X85521D01*
%TF.MD5,afdbc6dd33e912af8e77d2905271729f*%
M02*
