%TF.GenerationSoftware,Altium Limited,Altium Designer,21.6.4 (81)*%
G04 Layer_Color=32768*
%FSLAX43Y43*%
%MOMM*%
%TF.SameCoordinates,B094594F-E5AE-4C03-B854-EF891E02AD71*%
%TF.FilePolarity,Positive*%
%TF.FileFunction,Other,Top_3D_Body*%
%TF.Part,Single*%
G01*
G75*
%TA.AperFunction,NonConductor*%
%ADD156C,0.200*%
%ADD207C,0.100*%
D156*
X221450Y126100D02*
X227700D01*
Y137950D01*
X221450D02*
X227700D01*
X221450Y126100D02*
Y137950D01*
X211100Y89925D02*
X212450D01*
X211100Y88125D02*
Y89925D01*
Y88125D02*
X212450D01*
Y89925D01*
X163000Y7075D02*
Y11175D01*
X165600D01*
Y7075D02*
Y11175D01*
X163000Y7075D02*
X165600D01*
X209075Y91300D02*
X210525D01*
Y93500D01*
X209075D02*
X210525D01*
X209075Y91300D02*
Y93500D01*
X101001Y106250D02*
X106501D01*
X101001Y94250D02*
Y106250D01*
Y94250D02*
X106501D01*
Y106250D01*
X151875Y12350D02*
X160375D01*
X151875Y3850D02*
Y12350D01*
Y3850D02*
X160375D01*
Y12350D01*
D207*
X127254Y191603D02*
G03*
X136254Y191603I4500J1490D01*
G01*
Y195103D02*
G03*
X127254Y195103I-4500J-1490D01*
G01*
X132254Y197153D02*
G03*
X132254Y197153I-500J0D01*
G01*
X145050Y32125D02*
G03*
X145050Y32125I-500J0D01*
G01*
X142500Y27625D02*
G03*
X142500Y36625I-1490J4500D01*
G01*
X139000D02*
G03*
X139000Y27625I1490J-4500D01*
G01*
X143525Y167275D02*
G03*
X143525Y167275I-500J0D01*
G01*
X140975Y162775D02*
G03*
X140975Y171775I-1490J4500D01*
G01*
X137475D02*
G03*
X137475Y162775I1490J-4500D01*
G01*
X241075Y92975D02*
G03*
X232075Y92975I-4500J-1490D01*
G01*
Y89475D02*
G03*
X241075Y89475I4500J1490D01*
G01*
X237075Y87425D02*
G03*
X237075Y87425I-500J0D01*
G01*
X220064Y112286D02*
G03*
X220064Y112286I-500J0D01*
G01*
X215064Y114336D02*
G03*
X224064Y114336I4500J1490D01*
G01*
Y117836D02*
G03*
X215064Y117836I-4500J-1490D01*
G01*
X198443Y92900D02*
G03*
X207443Y92900I4500J1490D01*
G01*
Y96400D02*
G03*
X198443Y96400I-4500J-1490D01*
G01*
X203443Y98450D02*
G03*
X203443Y98450I-500J0D01*
G01*
X168539Y22550D02*
G03*
X168539Y22550I-500J0D01*
G01*
X170089Y27050D02*
G03*
X170089Y18050I1490J-4500D01*
G01*
X173589D02*
G03*
X173589Y27050I-1490J4500D01*
G01*
X241475Y154175D02*
X241725Y154775D01*
X242425D02*
X242675Y154175D01*
X241475D02*
X242675D01*
X235575Y154775D02*
X241725D01*
X242425D02*
X244575D01*
Y169775D01*
X235575Y154775D02*
Y169775D01*
X237225D02*
X244575D01*
X235575D02*
X236525D01*
X236275Y170375D02*
X236525Y169775D01*
X236275Y170375D02*
X237475D01*
X237225Y169775D02*
X237475Y170375D01*
X127254Y191603D02*
Y195103D01*
X136254Y191603D02*
Y195103D01*
X139000Y27625D02*
X142500D01*
X139000Y36625D02*
X142500D01*
X137475Y162775D02*
X140975D01*
X137475Y171775D02*
X140975D01*
X241075Y89475D02*
Y92975D01*
X232075Y89475D02*
Y92975D01*
X215064Y114336D02*
Y117836D01*
X224064Y114336D02*
Y117836D01*
X198443Y92900D02*
Y96400D01*
X207443Y92900D02*
Y96400D01*
X170089Y27050D02*
X173589D01*
X170089Y18050D02*
X173589D01*
X140000Y9850D02*
X140600Y9600D01*
Y10800D01*
X140000Y10550D02*
X140600Y10800D01*
X129400Y5600D02*
X130000Y5350D01*
X129400Y4400D02*
X130000Y4650D01*
X129400Y4400D02*
Y5600D01*
X130000Y5350D02*
Y11500D01*
Y2500D02*
Y4650D01*
Y2500D02*
X140000D01*
X130000Y11500D02*
X140000D01*
Y10550D02*
Y11500D01*
Y2500D02*
Y9850D01*
X216104Y124509D02*
Y137209D01*
X213564Y124509D02*
Y137209D01*
X216104D01*
X213564Y124509D02*
X216104D01*
X202865Y192947D02*
Y195487D01*
X215565Y192947D02*
Y195487D01*
X202865D02*
X215565D01*
X202865Y192947D02*
X215565D01*
X204850Y124530D02*
X207390D01*
X204850Y137230D02*
X207390D01*
X204850Y124530D02*
Y137230D01*
X207390Y124530D02*
Y137230D01*
X197375Y2200D02*
Y9550D01*
Y10250D02*
Y11200D01*
X187375D02*
X197375D01*
X187375Y2200D02*
X197375D01*
X187375D02*
Y4350D01*
Y5050D02*
Y11200D01*
X186775Y4100D02*
Y5300D01*
Y4100D02*
X187375Y4350D01*
X186775Y5300D02*
X187375Y5050D01*
X197375Y10250D02*
X197975Y10500D01*
Y9300D02*
Y10500D01*
X197375Y9550D02*
X197975Y9300D01*
X234050Y51575D02*
X241400D01*
X232400D02*
X233350D01*
X232400Y41575D02*
Y51575D01*
X241400Y41575D02*
Y51575D01*
X239250Y41575D02*
X241400D01*
X232400D02*
X238550D01*
X238300Y40975D02*
X239500D01*
X239250Y41575D02*
X239500Y40975D01*
X238300D02*
X238550Y41575D01*
X233100Y52175D02*
X233350Y51575D01*
X233100Y52175D02*
X234300D01*
X234050Y51575D02*
X234300Y52175D01*
X150000Y9850D02*
X150600Y9600D01*
Y10800D01*
X150000Y10550D02*
X150600Y10800D01*
X139400Y5600D02*
X140000Y5350D01*
X139400Y4400D02*
X140000Y4650D01*
X139400Y4400D02*
Y5600D01*
X140000Y5350D02*
Y11500D01*
Y2500D02*
Y4650D01*
Y2500D02*
X150000D01*
X140000Y11500D02*
X150000D01*
Y10550D02*
Y11500D01*
Y2500D02*
Y9850D01*
%TF.MD5,15f07ed640352117337be25b658826b3*%
M02*
