%TF.GenerationSoftware,Altium Limited,Altium Designer,21.6.4 (81)*%
G04 Layer_Color=32896*
%FSLAX43Y43*%
%MOMM*%
%TF.SameCoordinates,B094594F-E5AE-4C03-B854-EF891E02AD71*%
%TF.FilePolarity,Positive*%
%TF.FileFunction,Legend,Bot*%
%TF.Part,Single*%
G01*
G75*
%TA.AperFunction,NonConductor*%
%ADD130C,0.254*%
%ADD152C,0.250*%
%ADD153C,1.016*%
%ADD154C,0.152*%
%ADD155C,0.600*%
%ADD156C,0.200*%
%ADD157C,0.762*%
%ADD158C,0.150*%
%ADD159C,0.076*%
%ADD160C,1.000*%
G36*
X184323Y121710D02*
X184143Y121531D01*
X184413Y121261D01*
X184592Y121441D01*
X184323Y121710D01*
D02*
G37*
G36*
X183262Y127947D02*
X183532Y128217D01*
X183352Y128396D01*
X183083Y128127D01*
X183262Y127947D01*
D02*
G37*
G36*
X190830Y121087D02*
X191099Y121357D01*
X191279Y121177D01*
X191009Y120908D01*
X190830Y121087D01*
D02*
G37*
G36*
X192597Y127863D02*
X192777Y128043D01*
X193046Y127774D01*
X192867Y127594D01*
X192597Y127863D01*
D02*
G37*
D130*
X951Y165965D02*
Y186539D01*
X20001Y165965D02*
Y186539D01*
X951Y165965D02*
X20001D01*
X951Y186539D02*
X20001D01*
X951Y176000D02*
X20001Y176125D01*
X951Y61115D02*
Y81689D01*
X20001Y61115D02*
Y81689D01*
X951Y61115D02*
X20001D01*
X951Y81689D02*
X20001D01*
X951Y71150D02*
X20001Y71275D01*
X951Y121565D02*
Y142139D01*
X20001Y121565D02*
Y142139D01*
X951Y121565D02*
X20001D01*
X951Y142139D02*
X20001D01*
X951Y131600D02*
X20001Y131725D01*
X951Y15615D02*
Y36189D01*
X20001Y15615D02*
Y36189D01*
X951Y15615D02*
X20001D01*
X951Y36189D02*
X20001D01*
X951Y25650D02*
X20001Y25775D01*
X220924Y64725D02*
X239974Y64850D01*
X220924Y54311D02*
X239974D01*
X220924Y74885D02*
X239974D01*
X220924Y54311D02*
Y74885D01*
X239974Y54311D02*
Y74885D01*
X210227Y42646D02*
X215307D01*
X210227D02*
Y45186D01*
X215307D01*
Y42646D02*
Y45186D01*
X52721Y1004D02*
X52467D01*
X52213Y1258D01*
Y2528D01*
X50436Y1512D02*
X50944D01*
X51197Y1766D01*
Y2274D01*
X50944Y2528D01*
X50436D01*
X50182Y2274D01*
Y2020D01*
X51197D01*
X49674Y1512D02*
Y3035D01*
Y2020D02*
X48912Y2528D01*
X49674Y2020D02*
X48912Y1512D01*
X47897Y2528D02*
X47389D01*
X47135Y2274D01*
Y1512D01*
X47897D01*
X48150Y1766D01*
X47897Y2020D01*
X47135D01*
X45611Y3035D02*
Y1512D01*
X46373D01*
X46627Y1766D01*
Y2274D01*
X46373Y2528D01*
X45611D01*
X44342Y1512D02*
X44850D01*
X45103Y1766D01*
Y2274D01*
X44850Y2528D01*
X44342D01*
X44088Y2274D01*
Y2020D01*
X45103D01*
X43580Y1512D02*
X42818D01*
X42564Y1766D01*
X42818Y2020D01*
X43326D01*
X43580Y2274D01*
X43326Y2528D01*
X42564D01*
X42056Y1512D02*
X41549D01*
X41803D01*
Y2528D01*
X42056D01*
X40279Y1004D02*
X40025D01*
X39771Y1258D01*
Y2528D01*
X40533D01*
X40787Y2274D01*
Y1766D01*
X40533Y1512D01*
X39771D01*
X39263D02*
Y2528D01*
X38502D01*
X38248Y2274D01*
Y1512D01*
X36978D02*
X37486D01*
X37740Y1766D01*
Y2274D01*
X37486Y2528D01*
X36978D01*
X36724Y2274D01*
Y2020D01*
X37740D01*
X36216Y2528D02*
Y1512D01*
Y2020D01*
X35962Y2274D01*
X35708Y2528D01*
X35455D01*
X34693Y3035D02*
X33677D01*
Y2781D01*
X34693Y1766D01*
Y1512D01*
X33169Y3035D02*
X32154D01*
Y2781D01*
X33169Y1766D01*
Y1512D01*
X31646Y3035D02*
X30630D01*
Y2781D01*
X31646Y1766D01*
Y1512D01*
X29361Y2020D02*
Y2274D01*
X29614D01*
Y2020D01*
X29361D01*
X29107Y2274D01*
Y2781D01*
X29361Y3035D01*
X29868D01*
X30122Y2781D01*
Y1766D01*
X29868Y1512D01*
X29107D01*
X28091Y1004D02*
X27837D01*
X27583Y1258D01*
Y2528D01*
X28345D01*
X28599Y2274D01*
Y1766D01*
X28345Y1512D01*
X27583D01*
X27075D02*
Y2528D01*
X26821D01*
X26567Y2274D01*
Y1512D01*
Y2274D01*
X26314Y2528D01*
X26060Y2274D01*
Y1512D01*
X25298Y2528D02*
X24790D01*
X24536Y2274D01*
Y1512D01*
X25298D01*
X25552Y1766D01*
X25298Y2020D01*
X24536D01*
X24028Y1512D02*
X23520D01*
X23774D01*
Y2528D01*
X24028D01*
X22759Y1512D02*
X22251D01*
X22505D01*
Y3035D01*
X22759D01*
X21489Y1512D02*
Y1766D01*
X21235D01*
Y1512D01*
X21489D01*
X19204Y2528D02*
X19966D01*
X20220Y2274D01*
Y1766D01*
X19966Y1512D01*
X19204D01*
X18442D02*
X17934D01*
X17680Y1766D01*
Y2274D01*
X17934Y2528D01*
X18442D01*
X18696Y2274D01*
Y1766D01*
X18442Y1512D01*
X17173D02*
Y2528D01*
X16919D01*
X16665Y2274D01*
Y1512D01*
Y2274D01*
X16411Y2528D01*
X16157Y2274D01*
Y1512D01*
X119526Y71558D02*
X119393Y71691D01*
Y71958D01*
X119526Y72091D01*
X120060D01*
X120193Y71958D01*
Y71691D01*
X120060Y71558D01*
X119393Y70758D02*
X119526Y71025D01*
X119793Y71292D01*
X120060D01*
X120193Y71158D01*
Y70892D01*
X120060Y70758D01*
X119926D01*
X119793Y70892D01*
Y71292D01*
X120193Y69959D02*
Y70492D01*
X119660Y69959D01*
X119526D01*
X119393Y70092D01*
Y70359D01*
X119526Y70492D01*
X240175Y160250D02*
X239641D01*
Y160117D01*
X240175Y159583D01*
Y159450D01*
X239641D01*
X239375Y160250D02*
Y159450D01*
X238975D01*
X238842Y159583D01*
Y160117D01*
X238975Y160250D01*
X239375D01*
X238575Y159450D02*
X238308D01*
X238442D01*
Y160250D01*
X238575Y160117D01*
X237909Y159583D02*
X237775Y159450D01*
X237509D01*
X237375Y159583D01*
Y160117D01*
X237509Y160250D01*
X237775D01*
X237909Y160117D01*
Y159983D01*
X237775Y159850D01*
X237375D01*
X240175Y164450D02*
X239641D01*
Y164317D01*
X240175Y163783D01*
Y163650D01*
X239641D01*
X239375Y164450D02*
Y163650D01*
X238975D01*
X238842Y163783D01*
Y164317D01*
X238975Y164450D01*
X239375D01*
X238575Y163650D02*
X238308D01*
X238442D01*
Y164450D01*
X238575Y164317D01*
X237909D02*
X237775Y164450D01*
X237509D01*
X237375Y164317D01*
Y164183D01*
X237509Y164050D01*
X237375Y163917D01*
Y163783D01*
X237509Y163650D01*
X237775D01*
X237909Y163783D01*
Y163917D01*
X237775Y164050D01*
X237909Y164183D01*
Y164317D01*
X237775Y164050D02*
X237509D01*
X119890Y132338D02*
X119757Y132471D01*
Y132738D01*
X119890Y132871D01*
X120424D01*
X120557Y132738D01*
Y132471D01*
X120424Y132338D01*
X119757Y131538D02*
X119890Y131805D01*
X120157Y132072D01*
X120424D01*
X120557Y131938D01*
Y131672D01*
X120424Y131538D01*
X120290D01*
X120157Y131672D01*
Y132072D01*
X119890Y131272D02*
X119757Y131139D01*
Y130872D01*
X119890Y130739D01*
X120024D01*
X120157Y130872D01*
Y131005D01*
Y130872D01*
X120290Y130739D01*
X120424D01*
X120557Y130872D01*
Y131139D01*
X120424Y131272D01*
X118265Y25271D02*
X118132Y25404D01*
Y25671D01*
X118265Y25804D01*
X118799D01*
X118932Y25671D01*
Y25404D01*
X118799Y25271D01*
X118132Y24471D02*
X118265Y24738D01*
X118532Y25004D01*
X118799D01*
X118932Y24871D01*
Y24605D01*
X118799Y24471D01*
X118665D01*
X118532Y24605D01*
Y25004D01*
X118932Y24205D02*
Y23938D01*
Y24071D01*
X118132D01*
X118265Y24205D01*
X119333Y175719D02*
X119200Y175852D01*
Y176118D01*
X119333Y176252D01*
X119867D01*
X120000Y176118D01*
Y175852D01*
X119867Y175719D01*
X119200Y174919D02*
X119333Y175185D01*
X119600Y175452D01*
X119867D01*
X120000Y175319D01*
Y175052D01*
X119867Y174919D01*
X119733D01*
X119600Y175052D01*
Y175452D01*
X120000Y174252D02*
X119200D01*
X119600Y174652D01*
Y174119D01*
X92150Y56670D02*
X91350D01*
Y56270D01*
X91483Y56137D01*
X91750D01*
X91883Y56270D01*
Y56670D01*
Y56403D02*
X92150Y56137D01*
Y55870D02*
Y55603D01*
Y55737D01*
X91350D01*
X91483Y55870D01*
X92150Y54804D02*
X91350D01*
X91750Y55204D01*
Y54670D01*
X92150Y53871D02*
Y54404D01*
X91617Y53871D01*
X91483D01*
X91350Y54004D01*
Y54271D01*
X91483Y54404D01*
X91950Y162266D02*
X91150D01*
Y161866D01*
X91283Y161733D01*
X91550D01*
X91683Y161866D01*
Y162266D01*
Y162000D02*
X91950Y161733D01*
Y161467D02*
Y161200D01*
Y161333D01*
X91150D01*
X91283Y161467D01*
X91950Y160400D02*
X91150D01*
X91550Y160800D01*
Y160267D01*
X91950Y160000D02*
Y159734D01*
Y159867D01*
X91150D01*
X91283Y160000D01*
X114232Y64850D02*
Y65650D01*
X113832D01*
X113698Y65517D01*
Y65250D01*
X113832Y65117D01*
X114232D01*
X113965D02*
X113698Y64850D01*
X113432D02*
X113165D01*
X113299D01*
Y65650D01*
X113432Y65517D01*
X112366Y64850D02*
Y65650D01*
X112765Y65250D01*
X112232D01*
X111966Y65517D02*
X111832Y65650D01*
X111566D01*
X111432Y65517D01*
Y64983D01*
X111566Y64850D01*
X111832D01*
X111966Y64983D01*
Y65517D01*
X114680Y169800D02*
Y170600D01*
X114280D01*
X114146Y170467D01*
Y170200D01*
X114280Y170067D01*
X114680D01*
X114413D02*
X114146Y169800D01*
X113880D02*
X113613D01*
X113746D01*
Y170600D01*
X113880Y170467D01*
X113213D02*
X113080Y170600D01*
X112813D01*
X112680Y170467D01*
Y170333D01*
X112813Y170200D01*
X112947D01*
X112813D01*
X112680Y170067D01*
Y169933D01*
X112813Y169800D01*
X113080D01*
X113213Y169933D01*
X112414D02*
X112280Y169800D01*
X112014D01*
X111880Y169933D01*
Y170467D01*
X112014Y170600D01*
X112280D01*
X112414Y170467D01*
Y170333D01*
X112280Y170200D01*
X111880D01*
X92275Y80025D02*
X91475D01*
Y79625D01*
X91608Y79491D01*
X91875D01*
X92008Y79625D01*
Y80025D01*
Y79758D02*
X92275Y79491D01*
Y79225D02*
Y78958D01*
Y79092D01*
X91475D01*
X91608Y79225D01*
Y78558D02*
X91475Y78425D01*
Y78158D01*
X91608Y78025D01*
X91742D01*
X91875Y78158D01*
Y78292D01*
Y78158D01*
X92008Y78025D01*
X92142D01*
X92275Y78158D01*
Y78425D01*
X92142Y78558D01*
X91608Y77759D02*
X91475Y77625D01*
Y77359D01*
X91608Y77225D01*
X91742D01*
X91875Y77359D01*
X92008Y77225D01*
X92142D01*
X92275Y77359D01*
Y77625D01*
X92142Y77759D01*
X92008D01*
X91875Y77625D01*
X91742Y77759D01*
X91608D01*
X91875Y77625D02*
Y77359D01*
X91350Y184125D02*
X90550D01*
Y183725D01*
X90683Y183591D01*
X90950D01*
X91083Y183725D01*
Y184125D01*
Y183858D02*
X91350Y183591D01*
Y183325D02*
Y183058D01*
Y183192D01*
X90550D01*
X90683Y183325D01*
Y182658D02*
X90550Y182525D01*
Y182258D01*
X90683Y182125D01*
X90817D01*
X90950Y182258D01*
Y182392D01*
Y182258D01*
X91083Y182125D01*
X91217D01*
X91350Y182258D01*
Y182525D01*
X91217Y182658D01*
X90550Y181859D02*
Y181325D01*
X90683D01*
X91217Y181859D01*
X91350D01*
X91400Y192750D02*
X90600D01*
Y192350D01*
X90733Y192216D01*
X91000D01*
X91133Y192350D01*
Y192750D01*
Y192483D02*
X91400Y192216D01*
Y191950D02*
Y191683D01*
Y191817D01*
X90600D01*
X90733Y191950D01*
Y191283D02*
X90600Y191150D01*
Y190883D01*
X90733Y190750D01*
X90867D01*
X91000Y190883D01*
Y191017D01*
Y190883D01*
X91133Y190750D01*
X91267D01*
X91400Y190883D01*
Y191150D01*
X91267Y191283D01*
X90600Y189950D02*
X90733Y190217D01*
X91000Y190484D01*
X91267D01*
X91400Y190350D01*
Y190084D01*
X91267Y189950D01*
X91133D01*
X91000Y190084D01*
Y190484D01*
X110750Y95375D02*
Y96175D01*
X110350D01*
X110216Y96042D01*
Y95775D01*
X110350Y95642D01*
X110750D01*
X110483D02*
X110216Y95375D01*
X109950D02*
X109683D01*
X109817D01*
Y96175D01*
X109950Y96042D01*
X109283D02*
X109150Y96175D01*
X108883D01*
X108750Y96042D01*
Y95908D01*
X108883Y95775D01*
X109017D01*
X108883D01*
X108750Y95642D01*
Y95508D01*
X108883Y95375D01*
X109150D01*
X109283Y95508D01*
X107950Y96175D02*
X108484D01*
Y95775D01*
X108217Y95908D01*
X108084D01*
X107950Y95775D01*
Y95508D01*
X108084Y95375D01*
X108350D01*
X108484Y95508D01*
X91567Y111276D02*
Y112075D01*
X91168D01*
X91034Y111942D01*
Y111676D01*
X91168Y111542D01*
X91567D01*
X91301D02*
X91034Y111276D01*
X90768D02*
X90501D01*
X90634D01*
Y112075D01*
X90768Y111942D01*
X90101D02*
X89968Y112075D01*
X89701D01*
X89568Y111942D01*
Y111809D01*
X89701Y111676D01*
X89835D01*
X89701D01*
X89568Y111542D01*
Y111409D01*
X89701Y111276D01*
X89968D01*
X90101Y111409D01*
X88902Y111276D02*
Y112075D01*
X89301Y111676D01*
X88768D01*
X113050Y123446D02*
Y124246D01*
X112650D01*
X112516Y124113D01*
Y123846D01*
X112650Y123713D01*
X113050D01*
X112783D02*
X112516Y123446D01*
X112250D02*
X111983D01*
X112117D01*
Y124246D01*
X112250Y124113D01*
X111583D02*
X111450Y124246D01*
X111183D01*
X111050Y124113D01*
Y123979D01*
X111183Y123846D01*
X111317D01*
X111183D01*
X111050Y123713D01*
Y123579D01*
X111183Y123446D01*
X111450D01*
X111583Y123579D01*
X110784Y124113D02*
X110650Y124246D01*
X110384D01*
X110250Y124113D01*
Y123979D01*
X110384Y123846D01*
X110517D01*
X110384D01*
X110250Y123713D01*
Y123579D01*
X110384Y123446D01*
X110650D01*
X110784Y123579D01*
X92225Y139075D02*
X91425D01*
Y138675D01*
X91558Y138541D01*
X91825D01*
X91958Y138675D01*
Y139075D01*
Y138808D02*
X92225Y138541D01*
Y138275D02*
Y138008D01*
Y138142D01*
X91425D01*
X91558Y138275D01*
Y137608D02*
X91425Y137475D01*
Y137208D01*
X91558Y137075D01*
X91692D01*
X91825Y137208D01*
Y137342D01*
Y137208D01*
X91958Y137075D01*
X92092D01*
X92225Y137208D01*
Y137475D01*
X92092Y137608D01*
X92225Y136275D02*
Y136809D01*
X91692Y136275D01*
X91558D01*
X91425Y136409D01*
Y136675D01*
X91558Y136809D01*
X95211Y151675D02*
Y152475D01*
X94811D01*
X94678Y152342D01*
Y152075D01*
X94811Y151942D01*
X95211D01*
X94944D02*
X94678Y151675D01*
X94411D02*
X94144D01*
X94278D01*
Y152475D01*
X94411Y152342D01*
X93745D02*
X93611Y152475D01*
X93345D01*
X93211Y152342D01*
Y152208D01*
X93345Y152075D01*
X93478D01*
X93345D01*
X93211Y151942D01*
Y151808D01*
X93345Y151675D01*
X93611D01*
X93745Y151808D01*
X92945Y151675D02*
X92678D01*
X92811D01*
Y152475D01*
X92945Y152342D01*
X90800Y7755D02*
X90000D01*
Y7356D01*
X90133Y7222D01*
X90400D01*
X90533Y7356D01*
Y7755D01*
Y7489D02*
X90800Y7222D01*
Y6956D02*
Y6689D01*
Y6822D01*
X90000D01*
X90133Y6956D01*
Y6289D02*
X90000Y6156D01*
Y5889D01*
X90133Y5756D01*
X90267D01*
X90400Y5889D01*
Y6023D01*
Y5889D01*
X90533Y5756D01*
X90667D01*
X90800Y5889D01*
Y6156D01*
X90667Y6289D01*
X90133Y5490D02*
X90000Y5356D01*
Y5090D01*
X90133Y4956D01*
X90667D01*
X90800Y5090D01*
Y5356D01*
X90667Y5490D01*
X90133D01*
X110529Y21000D02*
Y21800D01*
X110130D01*
X109996Y21667D01*
Y21400D01*
X110130Y21267D01*
X110529D01*
X110263D02*
X109996Y21000D01*
X109730D02*
X109463D01*
X109596D01*
Y21800D01*
X109730Y21667D01*
X108530Y21000D02*
X109063D01*
X108530Y21533D01*
Y21667D01*
X108663Y21800D01*
X108930D01*
X109063Y21667D01*
X108263Y21133D02*
X108130Y21000D01*
X107864D01*
X107730Y21133D01*
Y21667D01*
X107864Y21800D01*
X108130D01*
X108263Y21667D01*
Y21533D01*
X108130Y21400D01*
X107730D01*
X91898Y34425D02*
X91098D01*
Y34025D01*
X91231Y33891D01*
X91498D01*
X91631Y34025D01*
Y34425D01*
Y34158D02*
X91898Y33891D01*
Y33625D02*
Y33358D01*
Y33492D01*
X91098D01*
X91231Y33625D01*
X91898Y32425D02*
Y32958D01*
X91364Y32425D01*
X91231D01*
X91098Y32558D01*
Y32825D01*
X91231Y32958D01*
Y32159D02*
X91098Y32025D01*
Y31759D01*
X91231Y31625D01*
X91364D01*
X91498Y31759D01*
X91631Y31625D01*
X91764D01*
X91898Y31759D01*
Y32025D01*
X91764Y32159D01*
X91631D01*
X91498Y32025D01*
X91364Y32159D01*
X91231D01*
X91498Y32025D02*
Y31759D01*
X92000Y44125D02*
X91200D01*
Y43725D01*
X91333Y43591D01*
X91600D01*
X91733Y43725D01*
Y44125D01*
Y43858D02*
X92000Y43591D01*
Y43325D02*
Y43058D01*
Y43192D01*
X91200D01*
X91333Y43325D01*
X92000Y42125D02*
Y42658D01*
X91467Y42125D01*
X91333D01*
X91200Y42258D01*
Y42525D01*
X91333Y42658D01*
X91200Y41859D02*
Y41325D01*
X91333D01*
X91867Y41859D01*
X92000D01*
X116978Y137742D02*
X117112Y137609D01*
Y137342D01*
X116978Y137209D01*
X116445D01*
X116312Y137342D01*
Y137609D01*
X116445Y137742D01*
Y138008D02*
X116312Y138142D01*
Y138408D01*
X116445Y138542D01*
X116978D01*
X117112Y138408D01*
Y138142D01*
X116978Y138008D01*
X116845D01*
X116712Y138142D01*
Y138542D01*
X117112Y139341D02*
X116978Y139075D01*
X116712Y138808D01*
X116445D01*
X116312Y138941D01*
Y139208D01*
X116445Y139341D01*
X116579D01*
X116712Y139208D01*
Y138808D01*
X116030Y184461D02*
X115896Y184328D01*
X115630D01*
X115496Y184461D01*
Y184994D01*
X115630Y185127D01*
X115896D01*
X116030Y184994D01*
X116296D02*
X116429Y185127D01*
X116696D01*
X116829Y184994D01*
Y184461D01*
X116696Y184328D01*
X116429D01*
X116296Y184461D01*
Y184594D01*
X116429Y184728D01*
X116829D01*
X117629Y184328D02*
X117096D01*
Y184728D01*
X117362Y184594D01*
X117496D01*
X117629Y184728D01*
Y184994D01*
X117496Y185127D01*
X117229D01*
X117096Y184994D01*
X118608Y32633D02*
X118475Y32766D01*
Y33033D01*
X118608Y33166D01*
X119141D01*
X119275Y33033D01*
Y32766D01*
X119141Y32633D01*
Y32367D02*
X119275Y32233D01*
Y31967D01*
X119141Y31833D01*
X118608D01*
X118475Y31967D01*
Y32233D01*
X118608Y32367D01*
X118742D01*
X118875Y32233D01*
Y31833D01*
X119275Y31167D02*
X118475D01*
X118875Y31567D01*
Y31034D01*
X116630Y80240D02*
X116763Y80374D01*
X117030D01*
X117163Y80240D01*
Y79707D01*
X117030Y79574D01*
X116763D01*
X116630Y79707D01*
X116363D02*
X116230Y79574D01*
X115964D01*
X115830Y79707D01*
Y80240D01*
X115964Y80374D01*
X116230D01*
X116363Y80240D01*
Y80107D01*
X116230Y79974D01*
X115830D01*
X115564Y80240D02*
X115430Y80374D01*
X115164D01*
X115030Y80240D01*
Y80107D01*
X115164Y79974D01*
X115297D01*
X115164D01*
X115030Y79840D01*
Y79707D01*
X115164Y79574D01*
X115430D01*
X115564Y79707D01*
X219633Y102492D02*
X219766Y102625D01*
X220033D01*
X220166Y102492D01*
Y101958D01*
X220033Y101825D01*
X219766D01*
X219633Y101958D01*
X219367D02*
X219233Y101825D01*
X218967D01*
X218833Y101958D01*
Y102492D01*
X218967Y102625D01*
X219233D01*
X219367Y102492D01*
Y102358D01*
X219233Y102225D01*
X218833D01*
X218034Y101825D02*
X218567D01*
X218034Y102358D01*
Y102492D01*
X218167Y102625D01*
X218434D01*
X218567Y102492D01*
X123458Y181921D02*
X123591Y182054D01*
X123858D01*
X123991Y181921D01*
Y181388D01*
X123858Y181254D01*
X123591D01*
X123458Y181388D01*
X123192Y181921D02*
X123058Y182054D01*
X122792D01*
X122658Y181921D01*
Y181788D01*
X122792Y181654D01*
X122658Y181521D01*
Y181388D01*
X122792Y181254D01*
X123058D01*
X123192Y181388D01*
Y181521D01*
X123058Y181654D01*
X123192Y181788D01*
Y181921D01*
X123058Y181654D02*
X122792D01*
X122392Y181388D02*
X122259Y181254D01*
X121992D01*
X121859Y181388D01*
Y181921D01*
X121992Y182054D01*
X122259D01*
X122392Y181921D01*
Y181788D01*
X122259Y181654D01*
X121859D01*
X229464Y123058D02*
X229330Y123191D01*
Y123458D01*
X229464Y123591D01*
X229997D01*
X230130Y123458D01*
Y123191D01*
X229997Y123058D01*
X229464Y122792D02*
X229330Y122658D01*
Y122392D01*
X229464Y122258D01*
X229597D01*
X229730Y122392D01*
X229864Y122258D01*
X229997D01*
X230130Y122392D01*
Y122658D01*
X229997Y122792D01*
X229864D01*
X229730Y122658D01*
X229597Y122792D01*
X229464D01*
X229730Y122658D02*
Y122392D01*
X229330Y121459D02*
Y121992D01*
X229730D01*
X229597Y121725D01*
Y121592D01*
X229730Y121459D01*
X229997D01*
X230130Y121592D01*
Y121859D01*
X229997Y121992D01*
X110858Y172642D02*
X110991Y172775D01*
X111258D01*
X111391Y172642D01*
Y172108D01*
X111258Y171975D01*
X110991D01*
X110858Y172108D01*
X110058Y172775D02*
X110325Y172642D01*
X110592Y172375D01*
Y172108D01*
X110458Y171975D01*
X110192D01*
X110058Y172108D01*
Y172242D01*
X110192Y172375D01*
X110592D01*
X109792Y172642D02*
X109659Y172775D01*
X109392D01*
X109259Y172642D01*
Y172508D01*
X109392Y172375D01*
X109259Y172242D01*
Y172108D01*
X109392Y171975D01*
X109659D01*
X109792Y172108D01*
Y172242D01*
X109659Y172375D01*
X109792Y172508D01*
Y172642D01*
X109659Y172375D02*
X109392D01*
X109960Y126976D02*
X110093Y127109D01*
X110360D01*
X110493Y126976D01*
Y126443D01*
X110360Y126310D01*
X110093D01*
X109960Y126443D01*
X109160Y127109D02*
X109427Y126976D01*
X109694Y126710D01*
Y126443D01*
X109560Y126310D01*
X109294D01*
X109160Y126443D01*
Y126576D01*
X109294Y126710D01*
X109694D01*
X108894Y127109D02*
X108361D01*
Y126976D01*
X108894Y126443D01*
Y126310D01*
X109014Y22333D02*
X108880Y22200D01*
X108614D01*
X108481Y22333D01*
Y22867D01*
X108614Y23000D01*
X108880D01*
X109014Y22867D01*
X109813Y22200D02*
X109547Y22333D01*
X109280Y22600D01*
Y22867D01*
X109414Y23000D01*
X109680D01*
X109813Y22867D01*
Y22733D01*
X109680Y22600D01*
X109280D01*
X110613Y22200D02*
X110347Y22333D01*
X110080Y22600D01*
Y22867D01*
X110213Y23000D01*
X110480D01*
X110613Y22867D01*
Y22733D01*
X110480Y22600D01*
X110080D01*
X110356Y67787D02*
X110489Y67921D01*
X110756D01*
X110889Y67787D01*
Y67254D01*
X110756Y67121D01*
X110489D01*
X110356Y67254D01*
X109556Y67921D02*
X109822Y67787D01*
X110089Y67521D01*
Y67254D01*
X109956Y67121D01*
X109689D01*
X109556Y67254D01*
Y67388D01*
X109689Y67521D01*
X110089D01*
X108756Y67921D02*
X109289D01*
Y67521D01*
X109023Y67654D01*
X108889D01*
X108756Y67521D01*
Y67254D01*
X108889Y67121D01*
X109156D01*
X109289Y67254D01*
X98425Y50921D02*
X97891D01*
Y50788D01*
X98425Y50255D01*
Y50121D01*
X97891D01*
X97625Y50921D02*
Y50121D01*
X97225D01*
X97092Y50255D01*
Y50788D01*
X97225Y50921D01*
X97625D01*
X96825Y50121D02*
X96558D01*
X96692D01*
Y50921D01*
X96825Y50788D01*
X96159Y50921D02*
X95625D01*
Y50788D01*
X96159Y50255D01*
Y50121D01*
X97864Y156261D02*
X97331D01*
Y156128D01*
X97864Y155595D01*
Y155461D01*
X97331D01*
X97065Y156261D02*
Y155461D01*
X96665D01*
X96531Y155595D01*
Y156128D01*
X96665Y156261D01*
X97065D01*
X96265Y155461D02*
X95998D01*
X96132D01*
Y156261D01*
X96265Y156128D01*
X95065Y156261D02*
X95332Y156128D01*
X95598Y155861D01*
Y155595D01*
X95465Y155461D01*
X95199D01*
X95065Y155595D01*
Y155728D01*
X95199Y155861D01*
X95598D01*
X105199Y63707D02*
X104666D01*
Y63574D01*
X105199Y63041D01*
Y62907D01*
X104666D01*
X104400Y63707D02*
Y62907D01*
X104000D01*
X103867Y63041D01*
Y63574D01*
X104000Y63707D01*
X104400D01*
X103600Y62907D02*
X103333D01*
X103467D01*
Y63707D01*
X103600Y63574D01*
X102400Y63707D02*
X102933D01*
Y63307D01*
X102667Y63440D01*
X102534D01*
X102400Y63307D01*
Y63041D01*
X102534Y62907D01*
X102800D01*
X102933Y63041D01*
X108193Y165257D02*
X107659D01*
Y165124D01*
X108193Y164591D01*
Y164457D01*
X107659D01*
X107393Y165257D02*
Y164457D01*
X106993D01*
X106860Y164591D01*
Y165124D01*
X106993Y165257D01*
X107393D01*
X106593Y164457D02*
X106326D01*
X106460D01*
Y165257D01*
X106593Y165124D01*
X105527Y164457D02*
Y165257D01*
X105927Y164857D01*
X105393D01*
X97940Y83858D02*
X97407D01*
Y83725D01*
X97940Y83192D01*
Y83058D01*
X97407D01*
X97140Y83858D02*
Y83058D01*
X96740D01*
X96607Y83192D01*
Y83725D01*
X96740Y83858D01*
X97140D01*
X96340Y83058D02*
X96074D01*
X96207D01*
Y83858D01*
X96340Y83725D01*
X95674D02*
X95541Y83858D01*
X95274D01*
X95141Y83725D01*
Y83592D01*
X95274Y83458D01*
X95407D01*
X95274D01*
X95141Y83325D01*
Y83192D01*
X95274Y83058D01*
X95541D01*
X95674Y83192D01*
X97525Y178565D02*
X96992D01*
Y178431D01*
X97525Y177898D01*
Y177765D01*
X96992D01*
X96725Y178565D02*
Y177765D01*
X96325D01*
X96192Y177898D01*
Y178431D01*
X96325Y178565D01*
X96725D01*
X95925Y177765D02*
X95659D01*
X95792D01*
Y178565D01*
X95925Y178431D01*
X94726Y177765D02*
X95259D01*
X94726Y178298D01*
Y178431D01*
X94859Y178565D01*
X95125D01*
X95259Y178431D01*
X97466Y196600D02*
X96933D01*
Y196467D01*
X97466Y195933D01*
Y195800D01*
X96933D01*
X96667Y196600D02*
Y195800D01*
X96267D01*
X96133Y195933D01*
Y196467D01*
X96267Y196600D01*
X96667D01*
X95867Y195800D02*
X95600D01*
X95733D01*
Y196600D01*
X95867Y196467D01*
X95200Y195800D02*
X94934D01*
X95067D01*
Y196600D01*
X95200Y196467D01*
X104825Y92550D02*
X104291D01*
Y92417D01*
X104825Y91883D01*
Y91750D01*
X104291D01*
X104025Y92550D02*
Y91750D01*
X103625D01*
X103492Y91883D01*
Y92417D01*
X103625Y92550D01*
X104025D01*
X103225Y91750D02*
X102958D01*
X103092D01*
Y92550D01*
X103225Y92417D01*
X102559D02*
X102425Y92550D01*
X102159D01*
X102025Y92417D01*
Y91883D01*
X102159Y91750D01*
X102425D01*
X102559Y91883D01*
Y92417D01*
X96791Y1675D02*
X96258D01*
Y1542D01*
X96791Y1008D01*
Y875D01*
X96258D01*
X95992Y1675D02*
Y875D01*
X95592D01*
X95458Y1008D01*
Y1542D01*
X95592Y1675D01*
X95992D01*
X95192Y1008D02*
X95059Y875D01*
X94792D01*
X94659Y1008D01*
Y1542D01*
X94792Y1675D01*
X95059D01*
X95192Y1542D01*
Y1408D01*
X95059Y1275D01*
X94659D01*
X97211Y109958D02*
X96678D01*
Y109825D01*
X97211Y109291D01*
Y109158D01*
X96678D01*
X96411Y109958D02*
Y109158D01*
X96011D01*
X95878Y109291D01*
Y109825D01*
X96011Y109958D01*
X96411D01*
X95611Y109825D02*
X95478Y109958D01*
X95211D01*
X95078Y109825D01*
Y109691D01*
X95211Y109558D01*
X95078Y109425D01*
Y109291D01*
X95211Y109158D01*
X95478D01*
X95611Y109291D01*
Y109425D01*
X95478Y109558D01*
X95611Y109691D01*
Y109825D01*
X95478Y109558D02*
X95211D01*
X103659Y16707D02*
X103126D01*
Y16574D01*
X103659Y16040D01*
Y15907D01*
X103126D01*
X102860Y16707D02*
Y15907D01*
X102460D01*
X102326Y16040D01*
Y16574D01*
X102460Y16707D01*
X102860D01*
X102060D02*
X101527D01*
Y16574D01*
X102060Y16040D01*
Y15907D01*
X103727Y121785D02*
X103194D01*
Y121651D01*
X103727Y121118D01*
Y120985D01*
X103194D01*
X102927Y121785D02*
Y120985D01*
X102527D01*
X102394Y121118D01*
Y121651D01*
X102527Y121785D01*
X102927D01*
X101594D02*
X101861Y121651D01*
X102127Y121385D01*
Y121118D01*
X101994Y120985D01*
X101727D01*
X101594Y121118D01*
Y121251D01*
X101727Y121385D01*
X102127D01*
X98216Y133400D02*
X97683D01*
Y133267D01*
X98216Y132733D01*
Y132600D01*
X97683D01*
X97417Y133400D02*
Y132600D01*
X97017D01*
X96883Y132733D01*
Y133267D01*
X97017Y133400D01*
X97417D01*
X96084D02*
X96617D01*
Y133000D01*
X96350Y133133D01*
X96217D01*
X96084Y133000D01*
Y132733D01*
X96217Y132600D01*
X96484D01*
X96617Y132733D01*
X170801Y11616D02*
X170268D01*
Y11482D01*
X170801Y10949D01*
Y10816D01*
X170268D01*
X170001Y11616D02*
Y10816D01*
X169601D01*
X169468Y10949D01*
Y11482D01*
X169601Y11616D01*
X170001D01*
X168802Y10816D02*
Y11616D01*
X169202Y11216D01*
X168668D01*
X97866Y153075D02*
X97333D01*
Y152942D01*
X97866Y152408D01*
Y152275D01*
X97333D01*
X97067Y153075D02*
Y152275D01*
X96667D01*
X96533Y152408D01*
Y152942D01*
X96667Y153075D01*
X97067D01*
X96267Y152942D02*
X96134Y153075D01*
X95867D01*
X95734Y152942D01*
Y152808D01*
X95867Y152675D01*
X96000D01*
X95867D01*
X95734Y152542D01*
Y152408D01*
X95867Y152275D01*
X96134D01*
X96267Y152408D01*
X97916Y28650D02*
X97383D01*
Y28517D01*
X97916Y27983D01*
Y27850D01*
X97383D01*
X97117Y28650D02*
Y27850D01*
X96717D01*
X96583Y27983D01*
Y28517D01*
X96717Y28650D01*
X97117D01*
X95784Y27850D02*
X96317D01*
X95784Y28383D01*
Y28517D01*
X95917Y28650D01*
X96184D01*
X96317Y28517D01*
X97958Y48000D02*
X97425D01*
Y47867D01*
X97958Y47333D01*
Y47200D01*
X97425D01*
X97158Y48000D02*
Y47200D01*
X96758D01*
X96625Y47333D01*
Y47867D01*
X96758Y48000D01*
X97158D01*
X96359Y47200D02*
X96092D01*
X96225D01*
Y48000D01*
X96359Y47867D01*
X231086Y153269D02*
X231753D01*
X231886Y153135D01*
Y152869D01*
X231753Y152735D01*
X231086D01*
X231886Y152469D02*
Y152202D01*
Y152335D01*
X231086D01*
X231220Y152469D01*
Y151802D02*
X231086Y151669D01*
Y151402D01*
X231220Y151269D01*
X231353D01*
X231486Y151402D01*
X231620Y151269D01*
X231753D01*
X231886Y151402D01*
Y151669D01*
X231753Y151802D01*
X231620D01*
X231486Y151669D01*
X231353Y151802D01*
X231220D01*
X231486Y151669D02*
Y151402D01*
X107892Y138375D02*
Y139175D01*
X107493D01*
X107359Y139042D01*
Y138775D01*
X107493Y138642D01*
X107892D01*
X107626D02*
X107359Y138375D01*
X107093D02*
X106826D01*
X106959D01*
Y139175D01*
X107093Y139042D01*
X106026Y138375D02*
Y139175D01*
X106426Y138775D01*
X105893D01*
X105626Y139042D02*
X105493Y139175D01*
X105227D01*
X105093Y139042D01*
Y138908D01*
X105227Y138775D01*
X105093Y138642D01*
Y138508D01*
X105227Y138375D01*
X105493D01*
X105626Y138508D01*
Y138642D01*
X105493Y138775D01*
X105626Y138908D01*
Y139042D01*
X105493Y138775D02*
X105227D01*
X116117Y33951D02*
Y34751D01*
X115717D01*
X115584Y34618D01*
Y34351D01*
X115717Y34218D01*
X116117D01*
X115850D02*
X115584Y33951D01*
X115317D02*
X115051D01*
X115184D01*
Y34751D01*
X115317Y34618D01*
X114251Y33951D02*
Y34751D01*
X114651Y34351D01*
X114118D01*
X113851Y34751D02*
X113318D01*
Y34618D01*
X113851Y34084D01*
Y33951D01*
X111272Y80475D02*
Y81275D01*
X110872D01*
X110739Y81142D01*
Y80875D01*
X110872Y80742D01*
X111272D01*
X111005D02*
X110739Y80475D01*
X110472D02*
X110206D01*
X110339D01*
Y81275D01*
X110472Y81142D01*
X109406Y80475D02*
Y81275D01*
X109806Y80875D01*
X109273D01*
X108473Y81275D02*
X108739Y81142D01*
X109006Y80875D01*
Y80609D01*
X108873Y80475D01*
X108606D01*
X108473Y80609D01*
Y80742D01*
X108606Y80875D01*
X109006D01*
X108565Y184450D02*
Y185250D01*
X108165D01*
X108032Y185117D01*
Y184850D01*
X108165Y184717D01*
X108565D01*
X108299D02*
X108032Y184450D01*
X107765D02*
X107499D01*
X107632D01*
Y185250D01*
X107765Y185117D01*
X106699Y184450D02*
Y185250D01*
X107099Y184850D01*
X106566D01*
X105766Y185250D02*
X106299D01*
Y184850D01*
X106033Y184984D01*
X105899D01*
X105766Y184850D01*
Y184584D01*
X105899Y184450D01*
X106166D01*
X106299Y184584D01*
X112469Y34200D02*
Y35000D01*
X112069D01*
X111936Y34867D01*
Y34600D01*
X112069Y34467D01*
X112469D01*
X112202D02*
X111936Y34200D01*
X111669D02*
X111402D01*
X111536D01*
Y35000D01*
X111669Y34867D01*
X110603Y34200D02*
Y35000D01*
X111003Y34600D01*
X110469D01*
X109803Y34200D02*
Y35000D01*
X110203Y34600D01*
X109670D01*
X111947Y138030D02*
X112747D01*
Y138429D01*
X112614Y138563D01*
X112347D01*
X112214Y138429D01*
Y138030D01*
Y138296D02*
X111947Y138563D01*
Y138829D02*
Y139096D01*
Y138963D01*
X112747D01*
X112614Y138829D01*
X111947Y139896D02*
X112747D01*
X112347Y139496D01*
Y140029D01*
X112614Y140296D02*
X112747Y140429D01*
Y140695D01*
X112614Y140829D01*
X112480D01*
X112347Y140695D01*
Y140562D01*
Y140695D01*
X112214Y140829D01*
X112080D01*
X111947Y140695D01*
Y140429D01*
X112080Y140296D01*
X235375Y120350D02*
X234575D01*
Y119950D01*
X234708Y119816D01*
X234975D01*
X235108Y119950D01*
Y120350D01*
Y120083D02*
X235375Y119816D01*
Y119550D02*
Y119283D01*
Y119417D01*
X234575D01*
X234708Y119550D01*
X235375Y118350D02*
Y118883D01*
X234842Y118350D01*
X234708D01*
X234575Y118483D01*
Y118750D01*
X234708Y118883D01*
X234575Y117550D02*
X234708Y117817D01*
X234975Y118084D01*
X235242D01*
X235375Y117950D01*
Y117684D01*
X235242Y117550D01*
X235108D01*
X234975Y117684D01*
Y118084D01*
X243700Y151250D02*
X242900D01*
Y150850D01*
X243033Y150716D01*
X243300D01*
X243433Y150850D01*
Y151250D01*
Y150983D02*
X243700Y150716D01*
Y150450D02*
Y150183D01*
Y150317D01*
X242900D01*
X243033Y150450D01*
X243700Y149250D02*
Y149783D01*
X243167Y149250D01*
X243033D01*
X242900Y149383D01*
Y149650D01*
X243033Y149783D01*
X242900Y148450D02*
Y148984D01*
X243300D01*
X243167Y148717D01*
Y148584D01*
X243300Y148450D01*
X243567D01*
X243700Y148584D01*
Y148850D01*
X243567Y148984D01*
X237250Y155573D02*
X238050D01*
Y155973D01*
X237917Y156106D01*
X237650D01*
X237517Y155973D01*
Y155573D01*
Y155840D02*
X237250Y156106D01*
Y156373D02*
Y156639D01*
Y156506D01*
X238050D01*
X237917Y156373D01*
X237250Y157572D02*
Y157039D01*
X237783Y157572D01*
X237917D01*
X238050Y157439D01*
Y157173D01*
X237917Y157039D01*
X237250Y158239D02*
X238050D01*
X237650Y157839D01*
Y158372D01*
X242325Y146229D02*
Y147029D01*
X241925D01*
X241791Y146895D01*
Y146629D01*
X241925Y146495D01*
X242325D01*
X242058D02*
X241791Y146229D01*
X241525D02*
X241258D01*
X241392D01*
Y147029D01*
X241525Y146895D01*
X240325Y146229D02*
X240858D01*
X240325Y146762D01*
Y146895D01*
X240458Y147029D01*
X240725D01*
X240858Y146895D01*
X239525Y146229D02*
X240059D01*
X239525Y146762D01*
Y146895D01*
X239659Y147029D01*
X239925D01*
X240059Y146895D01*
X131939Y123522D02*
X132073Y123655D01*
X132339D01*
X132472Y123522D01*
Y122989D01*
X132339Y122855D01*
X132073D01*
X131939Y122989D01*
X131673Y123522D02*
X131539Y123655D01*
X131273D01*
X131139Y123522D01*
Y123389D01*
X131273Y123255D01*
X131139Y123122D01*
Y122989D01*
X131273Y122855D01*
X131539D01*
X131673Y122989D01*
Y123122D01*
X131539Y123255D01*
X131673Y123389D01*
Y123522D01*
X131539Y123255D02*
X131273D01*
X130873Y123655D02*
X130340D01*
Y123522D01*
X130873Y122989D01*
Y122855D01*
X129508Y46683D02*
X129375Y46816D01*
Y47083D01*
X129508Y47216D01*
X130042D01*
X130175Y47083D01*
Y46816D01*
X130042Y46683D01*
X129508Y46417D02*
X129375Y46283D01*
Y46017D01*
X129508Y45883D01*
X129642D01*
X129775Y46017D01*
X129908Y45883D01*
X130042D01*
X130175Y46017D01*
Y46283D01*
X130042Y46417D01*
X129908D01*
X129775Y46283D01*
X129642Y46417D01*
X129508D01*
X129775Y46283D02*
Y46017D01*
X129375Y45084D02*
X129508Y45350D01*
X129775Y45617D01*
X130042D01*
X130175Y45484D01*
Y45217D01*
X130042Y45084D01*
X129908D01*
X129775Y45217D01*
Y45617D01*
X47008Y55958D02*
X46875Y56091D01*
Y56358D01*
X47008Y56491D01*
X47542D01*
X47675Y56358D01*
Y56091D01*
X47542Y55958D01*
X47008Y55692D02*
X46875Y55558D01*
Y55292D01*
X47008Y55158D01*
X47142D01*
X47275Y55292D01*
X47408Y55158D01*
X47542D01*
X47675Y55292D01*
Y55558D01*
X47542Y55692D01*
X47408D01*
X47275Y55558D01*
X47142Y55692D01*
X47008D01*
X47275Y55558D02*
Y55292D01*
X47675Y54492D02*
X46875D01*
X47275Y54892D01*
Y54359D01*
X47073Y161047D02*
X46940Y161180D01*
Y161447D01*
X47073Y161580D01*
X47606D01*
X47740Y161447D01*
Y161180D01*
X47606Y161047D01*
X47073Y160781D02*
X46940Y160647D01*
Y160381D01*
X47073Y160247D01*
X47206D01*
X47340Y160381D01*
X47473Y160247D01*
X47606D01*
X47740Y160381D01*
Y160647D01*
X47606Y160781D01*
X47473D01*
X47340Y160647D01*
X47206Y160781D01*
X47073D01*
X47340Y160647D02*
Y160381D01*
X47073Y159981D02*
X46940Y159848D01*
Y159581D01*
X47073Y159448D01*
X47206D01*
X47340Y159581D01*
Y159714D01*
Y159581D01*
X47473Y159448D01*
X47606D01*
X47740Y159581D01*
Y159848D01*
X47606Y159981D01*
X60925Y52850D02*
X60791Y52983D01*
Y53250D01*
X60925Y53383D01*
X61458D01*
X61591Y53250D01*
Y52983D01*
X61458Y52850D01*
X60925Y52583D02*
X60791Y52450D01*
Y52183D01*
X60925Y52050D01*
X61058D01*
X61191Y52183D01*
X61325Y52050D01*
X61458D01*
X61591Y52183D01*
Y52450D01*
X61458Y52583D01*
X61325D01*
X61191Y52450D01*
X61058Y52583D01*
X60925D01*
X61191Y52450D02*
Y52183D01*
X61591Y51784D02*
Y51517D01*
Y51650D01*
X60791D01*
X60925Y51784D01*
X61663Y157883D02*
X61530Y158016D01*
Y158283D01*
X61663Y158416D01*
X62197D01*
X62330Y158283D01*
Y158016D01*
X62197Y157883D01*
X61530Y157617D02*
Y157083D01*
X61663D01*
X62197Y157617D01*
X62330D01*
X62197Y156817D02*
X62330Y156684D01*
Y156417D01*
X62197Y156284D01*
X61663D01*
X61530Y156417D01*
Y156684D01*
X61663Y156817D01*
X61797D01*
X61930Y156684D01*
Y156284D01*
X47508Y188133D02*
X47375Y188266D01*
Y188533D01*
X47508Y188666D01*
X48042D01*
X48175Y188533D01*
Y188266D01*
X48042Y188133D01*
X47375Y187867D02*
Y187333D01*
X47508D01*
X48042Y187867D01*
X48175D01*
X47508Y187067D02*
X47375Y186934D01*
Y186667D01*
X47508Y186534D01*
X47642D01*
X47775Y186667D01*
X47908Y186534D01*
X48042D01*
X48175Y186667D01*
Y186934D01*
X48042Y187067D01*
X47908D01*
X47775Y186934D01*
X47642Y187067D01*
X47508D01*
X47775Y186934D02*
Y186667D01*
X46895Y83241D02*
X46761Y83374D01*
Y83641D01*
X46895Y83774D01*
X47428D01*
X47561Y83641D01*
Y83374D01*
X47428Y83241D01*
X46761Y82974D02*
Y82441D01*
X46895D01*
X47428Y82974D01*
X47561D01*
X46761Y82174D02*
Y81641D01*
X46895D01*
X47428Y82174D01*
X47561D01*
X62208Y184883D02*
X62075Y185016D01*
Y185283D01*
X62208Y185416D01*
X62742D01*
X62875Y185283D01*
Y185016D01*
X62742Y184883D01*
X62075Y184617D02*
Y184083D01*
X62208D01*
X62742Y184617D01*
X62875D01*
Y183417D02*
X62075D01*
X62475Y183817D01*
Y183284D01*
X62014Y79883D02*
X61881Y80016D01*
Y80283D01*
X62014Y80416D01*
X62547D01*
X62680Y80283D01*
Y80016D01*
X62547Y79883D01*
X61881Y79617D02*
Y79083D01*
X62014D01*
X62547Y79617D01*
X62680D01*
X62014Y78817D02*
X61881Y78684D01*
Y78417D01*
X62014Y78284D01*
X62147D01*
X62280Y78417D01*
Y78550D01*
Y78417D01*
X62414Y78284D01*
X62547D01*
X62680Y78417D01*
Y78684D01*
X62547Y78817D01*
X46887Y115847D02*
X46753Y115980D01*
Y116247D01*
X46887Y116380D01*
X47420D01*
X47553Y116247D01*
Y115980D01*
X47420Y115847D01*
X46753Y115580D02*
Y115047D01*
X46887D01*
X47420Y115580D01*
X47553D01*
Y114247D02*
Y114780D01*
X47020Y114247D01*
X46887D01*
X46753Y114381D01*
Y114647D01*
X46887Y114780D01*
X62433Y112416D02*
X62300Y112549D01*
Y112816D01*
X62433Y112949D01*
X62967D01*
X63100Y112816D01*
Y112549D01*
X62967Y112416D01*
X62300Y112149D02*
Y111616D01*
X62433D01*
X62967Y112149D01*
X63100D01*
X62433Y111349D02*
X62300Y111216D01*
Y110950D01*
X62433Y110816D01*
X62967D01*
X63100Y110950D01*
Y111216D01*
X62967Y111349D01*
X62433D01*
X46708Y11047D02*
X46575Y11180D01*
Y11447D01*
X46708Y11580D01*
X47242D01*
X47375Y11447D01*
Y11180D01*
X47242Y11047D01*
X46575Y10247D02*
X46708Y10514D01*
X46975Y10781D01*
X47242D01*
X47375Y10647D01*
Y10381D01*
X47242Y10247D01*
X47108D01*
X46975Y10381D01*
Y10781D01*
X46708Y9981D02*
X46575Y9848D01*
Y9581D01*
X46708Y9448D01*
X47242D01*
X47375Y9581D01*
Y9848D01*
X47242Y9981D01*
X46708D01*
X62033Y7661D02*
X61900Y7794D01*
Y8061D01*
X62033Y8194D01*
X62566D01*
X62700Y8061D01*
Y7794D01*
X62566Y7661D01*
X61900Y6861D02*
Y7394D01*
X62300D01*
X62166Y7128D01*
Y6995D01*
X62300Y6861D01*
X62566D01*
X62700Y6995D01*
Y7261D01*
X62566Y7394D01*
X61900Y6061D02*
X62033Y6328D01*
X62300Y6595D01*
X62566D01*
X62700Y6461D01*
Y6195D01*
X62566Y6061D01*
X62433D01*
X62300Y6195D01*
Y6595D01*
X46758Y38547D02*
X46625Y38680D01*
Y38947D01*
X46758Y39080D01*
X47292D01*
X47425Y38947D01*
Y38680D01*
X47292Y38547D01*
X46625Y37747D02*
Y38281D01*
X47025D01*
X46892Y38014D01*
Y37881D01*
X47025Y37747D01*
X47292D01*
X47425Y37881D01*
Y38147D01*
X47292Y38281D01*
X46625Y36948D02*
Y37481D01*
X47025D01*
X46892Y37214D01*
Y37081D01*
X47025Y36948D01*
X47292D01*
X47425Y37081D01*
Y37348D01*
X47292Y37481D01*
X62083Y35083D02*
X61950Y35216D01*
Y35483D01*
X62083Y35616D01*
X62617D01*
X62750Y35483D01*
Y35216D01*
X62617Y35083D01*
X62750Y34417D02*
X61950D01*
X62350Y34817D01*
Y34283D01*
X62083Y34017D02*
X61950Y33884D01*
Y33617D01*
X62083Y33484D01*
X62217D01*
X62350Y33617D01*
X62483Y33484D01*
X62617D01*
X62750Y33617D01*
Y33884D01*
X62617Y34017D01*
X62483D01*
X62350Y33884D01*
X62217Y34017D01*
X62083D01*
X62350Y33884D02*
Y33617D01*
X204486Y46172D02*
Y46972D01*
X204086D01*
X203953Y46838D01*
Y46572D01*
X204086Y46439D01*
X204486D01*
X204219D02*
X203953Y46172D01*
X203686D02*
X203419D01*
X203553D01*
Y46972D01*
X203686Y46838D01*
X116404Y123468D02*
X116537Y123601D01*
X116804D01*
X116937Y123468D01*
Y122935D01*
X116804Y122802D01*
X116537D01*
X116404Y122935D01*
X115737Y122802D02*
Y123601D01*
X116137Y123201D01*
X115604D01*
X115337Y122802D02*
X115071D01*
X115204D01*
Y123601D01*
X115337Y123468D01*
X116680Y165860D02*
X116813Y165993D01*
X117080D01*
X117213Y165860D01*
Y165326D01*
X117080Y165193D01*
X116813D01*
X116680Y165326D01*
X116413Y165860D02*
X116280Y165993D01*
X116014D01*
X115880Y165860D01*
Y165726D01*
X116014Y165593D01*
X116147D01*
X116014D01*
X115880Y165460D01*
Y165326D01*
X116014Y165193D01*
X116280D01*
X116413Y165326D01*
X115614Y165993D02*
X115080D01*
Y165860D01*
X115614Y165326D01*
Y165193D01*
X127601Y163492D02*
X127734Y163625D01*
X128001D01*
X128134Y163492D01*
Y162958D01*
X128001Y162825D01*
X127734D01*
X127601Y162958D01*
X127335Y163492D02*
X127201Y163625D01*
X126935D01*
X126801Y163492D01*
Y163358D01*
X126935Y163225D01*
X127068D01*
X126935D01*
X126801Y163092D01*
Y162958D01*
X126935Y162825D01*
X127201D01*
X127335Y162958D01*
X126002Y163625D02*
X126268Y163492D01*
X126535Y163225D01*
Y162958D01*
X126402Y162825D01*
X126135D01*
X126002Y162958D01*
Y163092D01*
X126135Y163225D01*
X126535D01*
X117108Y65092D02*
X117241Y65225D01*
X117508D01*
X117641Y65092D01*
Y64558D01*
X117508Y64425D01*
X117241D01*
X117108Y64558D01*
X116842Y65092D02*
X116708Y65225D01*
X116442D01*
X116308Y65092D01*
Y64958D01*
X116442Y64825D01*
X116575D01*
X116442D01*
X116308Y64692D01*
Y64558D01*
X116442Y64425D01*
X116708D01*
X116842Y64558D01*
X115509Y65225D02*
X116042D01*
Y64825D01*
X115775Y64958D01*
X115642D01*
X115509Y64825D01*
Y64558D01*
X115642Y64425D01*
X115909D01*
X116042Y64558D01*
X127612Y59299D02*
X127746Y59432D01*
X128012D01*
X128146Y59299D01*
Y58765D01*
X128012Y58632D01*
X127746D01*
X127612Y58765D01*
X127346Y59299D02*
X127213Y59432D01*
X126946D01*
X126813Y59299D01*
Y59165D01*
X126946Y59032D01*
X127079D01*
X126946D01*
X126813Y58899D01*
Y58765D01*
X126946Y58632D01*
X127213D01*
X127346Y58765D01*
X126146Y58632D02*
Y59432D01*
X126546Y59032D01*
X126013D01*
X47408Y143408D02*
X47275Y143541D01*
Y143808D01*
X47408Y143941D01*
X47942D01*
X48075Y143808D01*
Y143541D01*
X47942Y143408D01*
X47408Y143142D02*
X47275Y143008D01*
Y142742D01*
X47408Y142608D01*
X47542D01*
X47675Y142742D01*
Y142875D01*
Y142742D01*
X47808Y142608D01*
X47942D01*
X48075Y142742D01*
Y143008D01*
X47942Y143142D01*
X47408Y142342D02*
X47275Y142209D01*
Y141942D01*
X47408Y141809D01*
X47542D01*
X47675Y141942D01*
Y142075D01*
Y141942D01*
X47808Y141809D01*
X47942D01*
X48075Y141942D01*
Y142209D01*
X47942Y142342D01*
X112093Y198852D02*
X112226Y198986D01*
X112493D01*
X112626Y198852D01*
Y198319D01*
X112493Y198186D01*
X112226D01*
X112093Y198319D01*
X111826Y198852D02*
X111693Y198986D01*
X111426D01*
X111293Y198852D01*
Y198719D01*
X111426Y198586D01*
X111560D01*
X111426D01*
X111293Y198452D01*
Y198319D01*
X111426Y198186D01*
X111693D01*
X111826Y198319D01*
X111027Y198186D02*
X110760D01*
X110893D01*
Y198986D01*
X111027Y198852D01*
X128226Y193292D02*
X128359Y193425D01*
X128626D01*
X128759Y193292D01*
Y192758D01*
X128626Y192625D01*
X128359D01*
X128226Y192758D01*
X127960Y193292D02*
X127826Y193425D01*
X127560D01*
X127426Y193292D01*
Y193158D01*
X127560Y193025D01*
X127693D01*
X127560D01*
X127426Y192892D01*
Y192758D01*
X127560Y192625D01*
X127826D01*
X127960Y192758D01*
X127160Y193292D02*
X127027Y193425D01*
X126760D01*
X126627Y193292D01*
Y192758D01*
X126760Y192625D01*
X127027D01*
X127160Y192758D01*
Y193292D01*
X117893Y93524D02*
X118026Y93658D01*
X118293D01*
X118426Y93524D01*
Y92991D01*
X118293Y92858D01*
X118026D01*
X117893Y92991D01*
X117093Y92858D02*
X117626D01*
X117093Y93391D01*
Y93524D01*
X117227Y93658D01*
X117493D01*
X117626Y93524D01*
X116827Y92991D02*
X116693Y92858D01*
X116427D01*
X116294Y92991D01*
Y93524D01*
X116427Y93658D01*
X116693D01*
X116827Y93524D01*
Y93391D01*
X116693Y93258D01*
X116294D01*
X128394Y87442D02*
X128527Y87575D01*
X128794D01*
X128927Y87442D01*
Y86908D01*
X128794Y86775D01*
X128527D01*
X128394Y86908D01*
X127594Y86775D02*
X128127D01*
X127594Y87308D01*
Y87442D01*
X127727Y87575D01*
X127994D01*
X128127Y87442D01*
X126794Y87575D02*
X127328D01*
Y87175D01*
X127061Y87308D01*
X126928D01*
X126794Y87175D01*
Y86908D01*
X126928Y86775D01*
X127194D01*
X127328Y86908D01*
X116533Y19042D02*
X116666Y19175D01*
X116933D01*
X117066Y19042D01*
Y18508D01*
X116933Y18375D01*
X116666D01*
X116533Y18508D01*
X115733Y18375D02*
X116267D01*
X115733Y18908D01*
Y19042D01*
X115867Y19175D01*
X116133D01*
X116267Y19042D01*
X115067Y18375D02*
Y19175D01*
X115467Y18775D01*
X114934D01*
X127185Y117215D02*
X127318Y117349D01*
X127584D01*
X127718Y117215D01*
Y116682D01*
X127584Y116549D01*
X127318D01*
X127185Y116682D01*
X126918Y116549D02*
X126651D01*
X126785D01*
Y117349D01*
X126918Y117215D01*
X125718Y117349D02*
X125985Y117215D01*
X126251Y116949D01*
Y116682D01*
X126118Y116549D01*
X125852D01*
X125718Y116682D01*
Y116815D01*
X125852Y116949D01*
X126251D01*
X131435Y11790D02*
X131568Y11923D01*
X131834D01*
X131968Y11790D01*
Y11256D01*
X131834Y11123D01*
X131568D01*
X131435Y11256D01*
X131168Y11123D02*
X130901D01*
X131035D01*
Y11923D01*
X131168Y11790D01*
X129968Y11923D02*
X130501D01*
Y11523D01*
X130235Y11656D01*
X130102D01*
X129968Y11523D01*
Y11256D01*
X130102Y11123D01*
X130368D01*
X130501Y11256D01*
X112681Y152081D02*
X112548Y152214D01*
Y152481D01*
X112681Y152614D01*
X113214D01*
X113348Y152481D01*
Y152214D01*
X113214Y152081D01*
X113348Y151814D02*
Y151548D01*
Y151681D01*
X112548D01*
X112681Y151814D01*
Y151148D02*
X112548Y151015D01*
Y150748D01*
X112681Y150615D01*
X112815D01*
X112948Y150748D01*
Y150881D01*
Y150748D01*
X113081Y150615D01*
X113214D01*
X113348Y150748D01*
Y151015D01*
X113214Y151148D01*
X119251Y47858D02*
X119385Y47725D01*
Y47459D01*
X119251Y47325D01*
X118718D01*
X118585Y47459D01*
Y47725D01*
X118718Y47858D01*
X118585Y48125D02*
Y48392D01*
Y48258D01*
X119385D01*
X119251Y48125D01*
X118585Y49325D02*
Y48792D01*
X119118Y49325D01*
X119251D01*
X119385Y49191D01*
Y48925D01*
X119251Y48792D01*
X127609Y148567D02*
X127743Y148700D01*
X128009D01*
X128143Y148567D01*
Y148034D01*
X128009Y147900D01*
X127743D01*
X127609Y148034D01*
X127343Y147900D02*
X127076D01*
X127210D01*
Y148700D01*
X127343Y148567D01*
X126676Y147900D02*
X126410D01*
X126543D01*
Y148700D01*
X126676Y148567D01*
X127426Y41992D02*
X127560Y42125D01*
X127826D01*
X127959Y41992D01*
Y41458D01*
X127826Y41325D01*
X127560D01*
X127426Y41458D01*
X127160D02*
X127026Y41325D01*
X126760D01*
X126627Y41458D01*
Y41992D01*
X126760Y42125D01*
X127026D01*
X127160Y41992D01*
Y41858D01*
X127026Y41725D01*
X126627D01*
X61847Y139739D02*
X61713Y139873D01*
Y140139D01*
X61847Y140272D01*
X62380D01*
X62513Y140139D01*
Y139873D01*
X62380Y139739D01*
X61713Y139473D02*
Y138940D01*
X61847D01*
X62380Y139473D01*
X62513D01*
X124893Y52591D02*
X124093D01*
Y52191D01*
X124226Y52058D01*
X124493D01*
X124626Y52191D01*
Y52591D01*
Y52325D02*
X124893Y52058D01*
X124093Y51792D02*
Y51258D01*
X124226D01*
X124760Y51792D01*
X124893D01*
X124760Y50992D02*
X124893Y50859D01*
Y50592D01*
X124760Y50459D01*
X124226D01*
X124093Y50592D01*
Y50859D01*
X124226Y50992D01*
X124360D01*
X124493Y50859D01*
Y50459D01*
X121237Y142025D02*
X120437D01*
Y141625D01*
X120571Y141492D01*
X120837D01*
X120970Y141625D01*
Y142025D01*
Y141758D02*
X121237Y141492D01*
Y141225D02*
Y140958D01*
Y141092D01*
X120437D01*
X120571Y141225D01*
Y140558D02*
X120437Y140425D01*
Y140159D01*
X120571Y140025D01*
X120704D01*
X120837Y140159D01*
Y140292D01*
Y140159D01*
X120970Y140025D01*
X121104D01*
X121237Y140159D01*
Y140425D01*
X121104Y140558D01*
X104175Y78725D02*
Y77925D01*
X103775D01*
X103642Y78058D01*
Y78592D01*
X103775Y78725D01*
X104175D01*
X103375Y77925D02*
X103108D01*
X103242D01*
Y78725D01*
X103375Y78592D01*
X102708Y78725D02*
X102175D01*
Y78592D01*
X102708Y78058D01*
Y77925D01*
X107400Y29831D02*
X106733D01*
X106600Y29964D01*
Y30231D01*
X106733Y30364D01*
X107400D01*
X106600Y30631D02*
Y30897D01*
Y30764D01*
X107400D01*
X107267Y30631D01*
X107400Y31830D02*
X107267Y31564D01*
X107000Y31297D01*
X106733D01*
X106600Y31430D01*
Y31697D01*
X106733Y31830D01*
X106867D01*
X107000Y31697D01*
Y31297D01*
X107768Y182118D02*
X108435D01*
X108568Y181985D01*
Y181719D01*
X108435Y181585D01*
X107768D01*
X108568Y181319D02*
Y181052D01*
Y181185D01*
X107768D01*
X107901Y181319D01*
X107768Y180119D02*
Y180652D01*
X108168D01*
X108035Y180386D01*
Y180252D01*
X108168Y180119D01*
X108435D01*
X108568Y180252D01*
Y180519D01*
X108435Y180652D01*
X107251Y76809D02*
X107918D01*
X108051Y76676D01*
Y76410D01*
X107918Y76276D01*
X107251D01*
X108051Y76010D02*
Y75743D01*
Y75876D01*
X107251D01*
X107384Y76010D01*
X108051Y74943D02*
X107251D01*
X107651Y75343D01*
Y74810D01*
X118238Y182750D02*
Y183550D01*
X117839D01*
X117705Y183417D01*
Y183150D01*
X117839Y183017D01*
X118238D01*
X117972D02*
X117705Y182750D01*
X117439D02*
X117172D01*
X117305D01*
Y183550D01*
X117439Y183417D01*
X116239Y182750D02*
X116772D01*
X116239Y183283D01*
Y183417D01*
X116372Y183550D01*
X116639D01*
X116772Y183417D01*
X115973D02*
X115839Y183550D01*
X115573D01*
X115439Y183417D01*
Y182883D01*
X115573Y182750D01*
X115839D01*
X115973Y182883D01*
Y183417D01*
X108559Y182693D02*
Y183492D01*
X108159D01*
X108026Y183359D01*
Y183093D01*
X108159Y182959D01*
X108559D01*
X108293D02*
X108026Y182693D01*
X107760Y183492D02*
X107226D01*
Y183359D01*
X107760Y182826D01*
Y182693D01*
X106960Y183492D02*
X106427D01*
Y183359D01*
X106960Y182826D01*
Y182693D01*
X107864Y77384D02*
Y78184D01*
X107464D01*
X107331Y78050D01*
Y77784D01*
X107464Y77651D01*
X107864D01*
X107597D02*
X107331Y77384D01*
X107064Y78184D02*
X106531D01*
Y78050D01*
X107064Y77517D01*
Y77384D01*
X105731Y78184D02*
X105998Y78050D01*
X106264Y77784D01*
Y77517D01*
X106131Y77384D01*
X105864D01*
X105731Y77517D01*
Y77651D01*
X105864Y77784D01*
X106264D01*
X102822Y179214D02*
X102022D01*
Y178814D01*
X102156Y178681D01*
X102422D01*
X102555Y178814D01*
Y179214D01*
Y178947D02*
X102822Y178681D01*
X102022Y178414D02*
Y177881D01*
X102156D01*
X102689Y178414D01*
X102822D01*
Y177215D02*
X102022D01*
X102422Y177614D01*
Y177081D01*
X104297Y76613D02*
X103498D01*
Y76213D01*
X103631Y76080D01*
X103897D01*
X104031Y76213D01*
Y76613D01*
Y76347D02*
X104297Y76080D01*
X103498Y75813D02*
Y75280D01*
X103631D01*
X104164Y75813D01*
X104297D01*
X103631Y75014D02*
X103498Y74880D01*
Y74614D01*
X103631Y74480D01*
X103764D01*
X103897Y74614D01*
Y74747D01*
Y74614D01*
X104031Y74480D01*
X104164D01*
X104297Y74614D01*
Y74880D01*
X104164Y75014D01*
X107768Y136620D02*
Y137419D01*
X107368D01*
X107235Y137286D01*
Y137020D01*
X107368Y136886D01*
X107768D01*
X107502D02*
X107235Y136620D01*
X106969Y137419D02*
X106435D01*
Y137286D01*
X106969Y136753D01*
Y136620D01*
X105636D02*
X106169D01*
X105636Y137153D01*
Y137286D01*
X105769Y137419D01*
X106035D01*
X106169Y137286D01*
X104704Y134470D02*
Y135269D01*
X104304D01*
X104171Y135136D01*
Y134869D01*
X104304Y134736D01*
X104704D01*
X104438D02*
X104171Y134470D01*
X103905Y135269D02*
X103371D01*
Y135136D01*
X103905Y134603D01*
Y134470D01*
X103105D02*
X102838D01*
X102972D01*
Y135269D01*
X103105Y135136D01*
X107533Y32550D02*
Y33350D01*
X107134D01*
X107000Y33217D01*
Y32950D01*
X107134Y32817D01*
X107533D01*
X107267D02*
X107000Y32550D01*
X106734Y33350D02*
X106201D01*
Y33217D01*
X106734Y32684D01*
Y32550D01*
X105934Y33217D02*
X105801Y33350D01*
X105534D01*
X105401Y33217D01*
Y32684D01*
X105534Y32550D01*
X105801D01*
X105934Y32684D01*
Y33217D01*
X102369Y28594D02*
X101569D01*
Y28194D01*
X101702Y28061D01*
X101969D01*
X102102Y28194D01*
Y28594D01*
Y28327D02*
X102369Y28061D01*
X101569Y27261D02*
X101702Y27527D01*
X101969Y27794D01*
X102236D01*
X102369Y27661D01*
Y27394D01*
X102236Y27261D01*
X102102D01*
X101969Y27394D01*
Y27794D01*
X102236Y26994D02*
X102369Y26861D01*
Y26594D01*
X102236Y26461D01*
X101702D01*
X101569Y26594D01*
Y26861D01*
X101702Y26994D01*
X101836D01*
X101969Y26861D01*
Y26461D01*
X114004Y181512D02*
X114137Y181645D01*
X114404D01*
X114537Y181512D01*
Y180979D01*
X114404Y180846D01*
X114137D01*
X114004Y180979D01*
X113204Y181645D02*
X113737D01*
Y181246D01*
X113471Y181379D01*
X113337D01*
X113204Y181246D01*
Y180979D01*
X113337Y180846D01*
X113604D01*
X113737Y180979D01*
X112538Y180846D02*
Y181645D01*
X112938Y181246D01*
X112404D01*
X106151Y181652D02*
X106018Y181785D01*
Y182052D01*
X106151Y182185D01*
X106685D01*
X106818Y182052D01*
Y181785D01*
X106685Y181652D01*
X106018Y180852D02*
Y181385D01*
X106418D01*
X106285Y181119D01*
Y180985D01*
X106418Y180852D01*
X106685D01*
X106818Y180985D01*
Y181252D01*
X106685Y181385D01*
X106151Y180586D02*
X106018Y180452D01*
Y180186D01*
X106151Y180052D01*
X106285D01*
X106418Y180186D01*
Y180319D01*
Y180186D01*
X106551Y180052D01*
X106685D01*
X106818Y180186D01*
Y180452D01*
X106685Y180586D01*
X113130Y76076D02*
X113264Y76210D01*
X113530D01*
X113663Y76076D01*
Y75543D01*
X113530Y75410D01*
X113264D01*
X113130Y75543D01*
X112331Y76210D02*
X112864D01*
Y75810D01*
X112597Y75943D01*
X112464D01*
X112331Y75810D01*
Y75543D01*
X112464Y75410D01*
X112730D01*
X112864Y75543D01*
X111531Y75410D02*
X112064D01*
X111531Y75943D01*
Y76076D01*
X111664Y76210D01*
X111931D01*
X112064Y76076D01*
X105806Y75947D02*
X105673Y76080D01*
Y76347D01*
X105806Y76480D01*
X106339D01*
X106472Y76347D01*
Y76080D01*
X106339Y75947D01*
X105673Y75147D02*
Y75680D01*
X106072D01*
X105939Y75414D01*
Y75280D01*
X106072Y75147D01*
X106339D01*
X106472Y75280D01*
Y75547D01*
X106339Y75680D01*
X106472Y74880D02*
Y74614D01*
Y74747D01*
X105673D01*
X105806Y74880D01*
X113101Y134467D02*
X113234Y134600D01*
X113501D01*
X113634Y134467D01*
Y133933D01*
X113501Y133800D01*
X113234D01*
X113101Y133933D01*
X112301Y134600D02*
X112835D01*
Y134200D01*
X112568Y134333D01*
X112435D01*
X112301Y134200D01*
Y133933D01*
X112435Y133800D01*
X112701D01*
X112835Y133933D01*
X112035Y134467D02*
X111902Y134600D01*
X111635D01*
X111502Y134467D01*
Y133933D01*
X111635Y133800D01*
X111902D01*
X112035Y133933D01*
Y134467D01*
X105826Y135358D02*
X105693Y135491D01*
Y135758D01*
X105826Y135891D01*
X106360D01*
X106493Y135758D01*
Y135491D01*
X106360Y135358D01*
X106493Y134692D02*
X105693D01*
X106093Y135092D01*
Y134558D01*
X106360Y134292D02*
X106493Y134159D01*
Y133892D01*
X106360Y133759D01*
X105826D01*
X105693Y133892D01*
Y134159D01*
X105826Y134292D01*
X105960D01*
X106093Y134159D01*
Y133759D01*
X112601Y30422D02*
X112734Y30555D01*
X113001D01*
X113134Y30422D01*
Y29889D01*
X113001Y29756D01*
X112734D01*
X112601Y29889D01*
X111935Y29756D02*
Y30555D01*
X112335Y30156D01*
X111801D01*
X111535Y30555D02*
X111002D01*
Y30422D01*
X111535Y29889D01*
Y29756D01*
X105243Y31074D02*
X105110Y31208D01*
Y31474D01*
X105243Y31607D01*
X105776D01*
X105910Y31474D01*
Y31208D01*
X105776Y31074D01*
X105910Y30408D02*
X105110D01*
X105510Y30808D01*
Y30275D01*
X105110Y29475D02*
X105243Y29741D01*
X105510Y30008D01*
X105776D01*
X105910Y29875D01*
Y29608D01*
X105776Y29475D01*
X105643D01*
X105510Y29608D01*
Y30008D01*
X189326Y104342D02*
X189459Y104475D01*
X189726D01*
X189859Y104342D01*
Y103808D01*
X189726Y103675D01*
X189459D01*
X189326Y103808D01*
X188660Y103675D02*
Y104475D01*
X189060Y104075D01*
X188526D01*
X187860Y103675D02*
Y104475D01*
X188260Y104075D01*
X187727D01*
X210951Y114417D02*
X211084Y114550D01*
X211351D01*
X211484Y114417D01*
Y113883D01*
X211351Y113750D01*
X211084D01*
X210951Y113883D01*
X210285Y113750D02*
Y114550D01*
X210685Y114150D01*
X210151D01*
X209885Y114417D02*
X209752Y114550D01*
X209485D01*
X209352Y114417D01*
Y114283D01*
X209485Y114150D01*
X209618D01*
X209485D01*
X209352Y114017D01*
Y113883D01*
X209485Y113750D01*
X209752D01*
X209885Y113883D01*
X212583Y77323D02*
X212716Y77456D01*
X212983D01*
X213116Y77323D01*
Y76789D01*
X212983Y76656D01*
X212716D01*
X212583Y76789D01*
X211917Y76656D02*
Y77456D01*
X212317Y77056D01*
X211783D01*
X211517Y77323D02*
X211384Y77456D01*
X211117D01*
X210984Y77323D01*
Y76789D01*
X211117Y76656D01*
X211384D01*
X211517Y76789D01*
Y77323D01*
X229275Y145133D02*
X228475D01*
Y144733D01*
X228609Y144600D01*
X228875D01*
X229009Y144733D01*
Y145133D01*
Y144866D02*
X229275Y144600D01*
Y144333D02*
Y144067D01*
Y144200D01*
X228475D01*
X228609Y144333D01*
X229275Y143667D02*
Y143400D01*
Y143533D01*
X228475D01*
X228609Y143667D01*
X229142Y143000D02*
X229275Y142867D01*
Y142600D01*
X229142Y142467D01*
X228609D01*
X228475Y142600D01*
Y142867D01*
X228609Y143000D01*
X228742D01*
X228875Y142867D01*
Y142467D01*
X128677Y117375D02*
X129210D01*
X128943D01*
Y116575D01*
X129477D02*
Y117375D01*
X129876D01*
X130010Y117242D01*
Y116975D01*
X129876Y116842D01*
X129477D01*
X130276Y117242D02*
X130410Y117375D01*
X130676D01*
X130809Y117242D01*
Y117108D01*
X130676Y116975D01*
X130543D01*
X130676D01*
X130809Y116842D01*
Y116708D01*
X130676Y116575D01*
X130410D01*
X130276Y116708D01*
X131076Y117242D02*
X131209Y117375D01*
X131476D01*
X131609Y117242D01*
Y117108D01*
X131476Y116975D01*
X131609Y116842D01*
Y116708D01*
X131476Y116575D01*
X131209D01*
X131076Y116708D01*
Y116842D01*
X131209Y116975D01*
X131076Y117108D01*
Y117242D01*
X131209Y116975D02*
X131476D01*
X241338Y153783D02*
X241204Y153916D01*
Y154183D01*
X241338Y154316D01*
X241871D01*
X242004Y154183D01*
Y153916D01*
X241871Y153783D01*
X242004Y152983D02*
Y153516D01*
X241471Y152983D01*
X241338D01*
X241204Y153116D01*
Y153383D01*
X241338Y153516D01*
Y152716D02*
X241204Y152583D01*
Y152316D01*
X241338Y152183D01*
X241471D01*
X241604Y152316D01*
X241737Y152183D01*
X241871D01*
X242004Y152316D01*
Y152583D01*
X241871Y152716D01*
X241737D01*
X241604Y152583D01*
X241471Y152716D01*
X241338D01*
X241604Y152583D02*
Y152316D01*
X164233Y181724D02*
X164366Y181857D01*
X164633D01*
X164766Y181724D01*
Y181191D01*
X164633Y181058D01*
X164366D01*
X164233Y181191D01*
X163433Y181058D02*
X163966D01*
X163433Y181591D01*
Y181724D01*
X163566Y181857D01*
X163833D01*
X163966Y181724D01*
X163166Y181857D02*
X162633D01*
Y181724D01*
X163166Y181191D01*
Y181058D01*
X167045Y177288D02*
X167178Y177421D01*
X167444D01*
X167578Y177288D01*
Y176755D01*
X167444Y176622D01*
X167178D01*
X167045Y176755D01*
X166245Y176622D02*
X166778D01*
X166245Y177155D01*
Y177288D01*
X166378Y177421D01*
X166645D01*
X166778Y177288D01*
X165445Y177421D02*
X165712Y177288D01*
X165978Y177021D01*
Y176755D01*
X165845Y176622D01*
X165578D01*
X165445Y176755D01*
Y176888D01*
X165578Y177021D01*
X165978D01*
X102074Y70017D02*
X102207Y70150D01*
X102474D01*
X102607Y70017D01*
Y69483D01*
X102474Y69350D01*
X102207D01*
X102074Y69483D01*
X101274Y69350D02*
X101807D01*
X101274Y69883D01*
Y70017D01*
X101407Y70150D01*
X101674D01*
X101807Y70017D01*
X101007D02*
X100874Y70150D01*
X100608D01*
X100474Y70017D01*
Y69883D01*
X100608Y69750D01*
X100741D01*
X100608D01*
X100474Y69617D01*
Y69483D01*
X100608Y69350D01*
X100874D01*
X101007Y69483D01*
X102577Y175311D02*
X102710Y175444D01*
X102977D01*
X103110Y175311D01*
Y174778D01*
X102977Y174644D01*
X102710D01*
X102577Y174778D01*
X101777Y174644D02*
X102310D01*
X101777Y175178D01*
Y175311D01*
X101911Y175444D01*
X102177D01*
X102310Y175311D01*
X100978Y174644D02*
X101511D01*
X100978Y175178D01*
Y175311D01*
X101111Y175444D01*
X101377D01*
X101511Y175311D01*
X102016Y129237D02*
X102149Y129370D01*
X102416D01*
X102549Y129237D01*
Y128703D01*
X102416Y128570D01*
X102149D01*
X102016Y128703D01*
X101216Y128570D02*
X101750D01*
X101216Y129103D01*
Y129237D01*
X101350Y129370D01*
X101616D01*
X101750Y129237D01*
X100950Y128570D02*
X100683D01*
X100817D01*
Y129370D01*
X100950Y129237D01*
X101871Y24492D02*
X102004Y24625D01*
X102271D01*
X102404Y24492D01*
Y23958D01*
X102271Y23825D01*
X102004D01*
X101871Y23958D01*
X101071Y23825D02*
X101605D01*
X101071Y24358D01*
Y24492D01*
X101205Y24625D01*
X101471D01*
X101605Y24492D01*
X100805D02*
X100672Y24625D01*
X100405D01*
X100272Y24492D01*
Y23958D01*
X100405Y23825D01*
X100672D01*
X100805Y23958D01*
Y24492D01*
X183781Y141627D02*
X184346Y141062D01*
X184064Y140779D01*
X183875Y140779D01*
X183498Y141156D01*
Y141345D01*
X183781Y141627D01*
X183404Y140119D02*
X183781Y140496D01*
X183027D01*
X182933Y140591D01*
Y140779D01*
X183121Y140968D01*
X183310Y140968D01*
X182650Y140496D02*
X182273Y140119D01*
X182367Y140025D01*
X183121D01*
X183215Y139931D01*
X115996Y157350D02*
Y156683D01*
X115863Y156550D01*
X115597D01*
X115463Y156683D01*
Y157350D01*
X115197Y156550D02*
X114930D01*
X115063D01*
Y157350D01*
X115197Y157217D01*
X113997Y156550D02*
X114530D01*
X113997Y157083D01*
Y157217D01*
X114130Y157350D01*
X114397D01*
X114530Y157217D01*
X115316Y53175D02*
Y52508D01*
X115183Y52375D01*
X114917D01*
X114783Y52508D01*
Y53175D01*
X114517Y52375D02*
X114250D01*
X114383D01*
Y53175D01*
X114517Y53042D01*
X113850Y52375D02*
X113584D01*
X113717D01*
Y53175D01*
X113850Y53042D01*
X115400Y187625D02*
Y186958D01*
X115266Y186825D01*
X115000D01*
X114867Y186958D01*
Y187625D01*
X114600Y186825D02*
X114333D01*
X114467D01*
Y187625D01*
X114600Y187492D01*
X113933D02*
X113800Y187625D01*
X113534D01*
X113400Y187492D01*
Y186958D01*
X113534Y186825D01*
X113800D01*
X113933Y186958D01*
Y187492D01*
X115511Y81820D02*
Y81153D01*
X115378Y81020D01*
X115112D01*
X114978Y81153D01*
Y81820D01*
X114712Y81153D02*
X114578Y81020D01*
X114312D01*
X114179Y81153D01*
Y81687D01*
X114312Y81820D01*
X114578D01*
X114712Y81687D01*
Y81553D01*
X114578Y81420D01*
X114179D01*
X115484Y6150D02*
Y5483D01*
X115351Y5350D01*
X115085D01*
X114951Y5483D01*
Y6150D01*
X114685Y6017D02*
X114551Y6150D01*
X114285D01*
X114152Y6017D01*
Y5883D01*
X114285Y5750D01*
X114152Y5617D01*
Y5483D01*
X114285Y5350D01*
X114551D01*
X114685Y5483D01*
Y5617D01*
X114551Y5750D01*
X114685Y5883D01*
Y6017D01*
X114551Y5750D02*
X114285D01*
X115484Y111575D02*
Y110908D01*
X115351Y110775D01*
X115085D01*
X114951Y110908D01*
Y111575D01*
X114685D02*
X114152D01*
Y111442D01*
X114685Y110908D01*
Y110775D01*
X115484Y142425D02*
Y141758D01*
X115351Y141625D01*
X115085D01*
X114951Y141758D01*
Y142425D01*
X114152D02*
X114418Y142292D01*
X114685Y142025D01*
Y141758D01*
X114551Y141625D01*
X114285D01*
X114152Y141758D01*
Y141892D01*
X114285Y142025D01*
X114685D01*
X115384Y43496D02*
Y42830D01*
X115251Y42697D01*
X114985D01*
X114851Y42830D01*
Y43496D01*
X114052D02*
X114585D01*
Y43096D01*
X114318Y43230D01*
X114185D01*
X114052Y43096D01*
Y42830D01*
X114185Y42697D01*
X114451D01*
X114585Y42830D01*
X181834Y125650D02*
Y124983D01*
X181701Y124850D01*
X181435D01*
X181301Y124983D01*
Y125650D01*
X180635Y124850D02*
Y125650D01*
X181035Y125250D01*
X180502D01*
X238793Y129476D02*
Y130142D01*
X238926Y130275D01*
X239193D01*
X239326Y130142D01*
Y129476D01*
X239593Y129609D02*
X239726Y129476D01*
X239993D01*
X240126Y129609D01*
Y129742D01*
X239993Y129876D01*
X239859D01*
X239993D01*
X240126Y130009D01*
Y130142D01*
X239993Y130275D01*
X239726D01*
X239593Y130142D01*
X214633Y82666D02*
X215300D01*
X215433Y82533D01*
Y82267D01*
X215300Y82133D01*
X214633D01*
X215433Y81867D02*
Y81600D01*
Y81733D01*
X214633D01*
X214766Y81867D01*
X192740Y169109D02*
X191941D01*
Y168709D01*
X192074Y168576D01*
X192340D01*
X192474Y168709D01*
Y169109D01*
Y168842D02*
X192740Y168576D01*
Y168309D02*
Y168043D01*
Y168176D01*
X191941D01*
X192074Y168309D01*
X192740Y167643D02*
Y167376D01*
Y167509D01*
X191941D01*
X192074Y167643D01*
Y166976D02*
X191941Y166843D01*
Y166576D01*
X192074Y166443D01*
X192207D01*
X192340Y166576D01*
X192474Y166443D01*
X192607D01*
X192740Y166576D01*
Y166843D01*
X192607Y166976D01*
X192474D01*
X192340Y166843D01*
X192207Y166976D01*
X192074D01*
X192340Y166843D02*
Y166576D01*
X182567Y169093D02*
X181767D01*
Y168693D01*
X181900Y168560D01*
X182167D01*
X182300Y168693D01*
Y169093D01*
Y168826D02*
X182567Y168560D01*
Y168293D02*
Y168026D01*
Y168160D01*
X181767D01*
X181900Y168293D01*
X182567Y167627D02*
Y167360D01*
Y167493D01*
X181767D01*
X181900Y167627D01*
X181767Y166960D02*
Y166427D01*
X181900D01*
X182434Y166960D01*
X182567D01*
X214658Y170058D02*
X213858D01*
Y169658D01*
X213991Y169525D01*
X214258D01*
X214391Y169658D01*
Y170058D01*
Y169791D02*
X214658Y169525D01*
Y169258D02*
Y168992D01*
Y169125D01*
X213858D01*
X213991Y169258D01*
X214658Y168592D02*
Y168325D01*
Y168458D01*
X213858D01*
X213991Y168592D01*
X213858Y167392D02*
X213991Y167659D01*
X214258Y167925D01*
X214524D01*
X214658Y167792D01*
Y167525D01*
X214524Y167392D01*
X214391D01*
X214258Y167525D01*
Y167925D01*
X212155Y187233D02*
X211355D01*
Y186833D01*
X211489Y186700D01*
X211755D01*
X211889Y186833D01*
Y187233D01*
Y186966D02*
X212155Y186700D01*
Y186433D02*
Y186167D01*
Y186300D01*
X211355D01*
X211489Y186433D01*
X212155Y185767D02*
Y185500D01*
Y185633D01*
X211355D01*
X211489Y185767D01*
X211355Y184567D02*
Y185100D01*
X211755D01*
X211622Y184834D01*
Y184700D01*
X211755Y184567D01*
X212022D01*
X212155Y184700D01*
Y184967D01*
X212022Y185100D01*
X209615Y187233D02*
X208815D01*
Y186833D01*
X208949Y186700D01*
X209215D01*
X209349Y186833D01*
Y187233D01*
Y186966D02*
X209615Y186700D01*
Y186433D02*
Y186167D01*
Y186300D01*
X208815D01*
X208949Y186433D01*
X209615Y185767D02*
Y185500D01*
Y185633D01*
X208815D01*
X208949Y185767D01*
X209615Y184700D02*
X208815D01*
X209215Y185100D01*
Y184567D01*
X207075Y187233D02*
X206275D01*
Y186833D01*
X206409Y186700D01*
X206675D01*
X206809Y186833D01*
Y187233D01*
Y186966D02*
X207075Y186700D01*
Y186433D02*
Y186167D01*
Y186300D01*
X206275D01*
X206409Y186433D01*
X207075Y185767D02*
Y185500D01*
Y185633D01*
X206275D01*
X206409Y185767D01*
Y185100D02*
X206275Y184967D01*
Y184700D01*
X206409Y184567D01*
X206542D01*
X206675Y184700D01*
Y184834D01*
Y184700D01*
X206809Y184567D01*
X206942D01*
X207075Y184700D01*
Y184967D01*
X206942Y185100D01*
X106183Y170700D02*
Y171500D01*
X105783D01*
X105650Y171367D01*
Y171100D01*
X105783Y170967D01*
X106183D01*
X105916D02*
X105650Y170700D01*
X105383D02*
X105117D01*
X105250D01*
Y171500D01*
X105383Y171367D01*
X104717Y170700D02*
X104450D01*
X104584D01*
Y171500D01*
X104717Y171367D01*
X103517Y170700D02*
X104050D01*
X103517Y171233D01*
Y171367D01*
X103650Y171500D01*
X103917D01*
X104050Y171367D01*
X105943Y65300D02*
Y66100D01*
X105543D01*
X105409Y65967D01*
Y65700D01*
X105543Y65567D01*
X105943D01*
X105676D02*
X105409Y65300D01*
X105143D02*
X104876D01*
X105010D01*
Y66100D01*
X105143Y65967D01*
X104476Y65300D02*
X104210D01*
X104343D01*
Y66100D01*
X104476Y65967D01*
X103810Y65300D02*
X103543D01*
X103677D01*
Y66100D01*
X103810Y65967D01*
X99284Y172450D02*
Y173250D01*
X98884D01*
X98751Y173117D01*
Y172850D01*
X98884Y172717D01*
X99284D01*
X99018D02*
X98751Y172450D01*
X98484D02*
X98218D01*
X98351D01*
Y173250D01*
X98484Y173117D01*
X97818Y172450D02*
X97551D01*
X97685D01*
Y173250D01*
X97818Y173117D01*
X97151D02*
X97018Y173250D01*
X96752D01*
X96618Y173117D01*
Y172583D01*
X96752Y172450D01*
X97018D01*
X97151Y172583D01*
Y173117D01*
X99383Y67000D02*
Y67800D01*
X98983D01*
X98850Y67667D01*
Y67400D01*
X98983Y67267D01*
X99383D01*
X99116D02*
X98850Y67000D01*
X98583D02*
X98316D01*
X98450D01*
Y67800D01*
X98583Y67667D01*
X97917D02*
X97783Y67800D01*
X97517D01*
X97383Y67667D01*
Y67133D01*
X97517Y67000D01*
X97783D01*
X97917Y67133D01*
Y67667D01*
X97117D02*
X96984Y67800D01*
X96717D01*
X96584Y67667D01*
Y67533D01*
X96717Y67400D01*
X96584Y67267D01*
Y67133D01*
X96717Y67000D01*
X96984D01*
X97117Y67133D01*
Y67267D01*
X96984Y67400D01*
X97117Y67533D01*
Y67667D01*
X96984Y67400D02*
X96717D01*
X102045Y160175D02*
Y160975D01*
X101645D01*
X101512Y160842D01*
Y160575D01*
X101645Y160442D01*
X102045D01*
X101778D02*
X101512Y160175D01*
X101245D02*
X100979D01*
X101112D01*
Y160975D01*
X101245Y160842D01*
X100579D02*
X100445Y160975D01*
X100179D01*
X100046Y160842D01*
Y160308D01*
X100179Y160175D01*
X100445D01*
X100579Y160308D01*
Y160842D01*
X99246Y160975D02*
X99512Y160842D01*
X99779Y160575D01*
Y160308D01*
X99646Y160175D01*
X99379D01*
X99246Y160308D01*
Y160442D01*
X99379Y160575D01*
X99779D01*
X102058Y52600D02*
Y53400D01*
X101658D01*
X101525Y53267D01*
Y53000D01*
X101658Y52867D01*
X102058D01*
X101792D02*
X101525Y52600D01*
X101258D02*
X100992D01*
X101125D01*
Y53400D01*
X101258Y53267D01*
X100592D02*
X100459Y53400D01*
X100192D01*
X100059Y53267D01*
Y52733D01*
X100192Y52600D01*
X100459D01*
X100592Y52733D01*
Y53267D01*
X99259Y53400D02*
X99792D01*
Y53000D01*
X99526Y53133D01*
X99392D01*
X99259Y53000D01*
Y52733D01*
X99392Y52600D01*
X99659D01*
X99792Y52733D01*
X108190Y156400D02*
Y157200D01*
X107790D01*
X107657Y157067D01*
Y156800D01*
X107790Y156667D01*
X108190D01*
X107924D02*
X107657Y156400D01*
X107390D02*
X107124D01*
X107257D01*
Y157200D01*
X107390Y157067D01*
X106724D02*
X106591Y157200D01*
X106324D01*
X106191Y157067D01*
Y156533D01*
X106324Y156400D01*
X106591D01*
X106724Y156533D01*
Y157067D01*
X105524Y156400D02*
Y157200D01*
X105924Y156800D01*
X105391D01*
X108343Y52663D02*
Y53463D01*
X107943D01*
X107809Y53330D01*
Y53063D01*
X107943Y52930D01*
X108343D01*
X108076D02*
X107809Y52663D01*
X107543D02*
X107276D01*
X107410D01*
Y53463D01*
X107543Y53330D01*
X106876D02*
X106743Y53463D01*
X106476D01*
X106343Y53330D01*
Y52797D01*
X106476Y52663D01*
X106743D01*
X106876Y52797D01*
Y53330D01*
X106077D02*
X105943Y53463D01*
X105677D01*
X105543Y53330D01*
Y53196D01*
X105677Y53063D01*
X105810D01*
X105677D01*
X105543Y52930D01*
Y52797D01*
X105677Y52663D01*
X105943D01*
X106077Y52797D01*
X170025Y183227D02*
Y184027D01*
X169625D01*
X169492Y183893D01*
Y183627D01*
X169625Y183493D01*
X170025D01*
X169759D02*
X169492Y183227D01*
X169225D02*
X168959D01*
X169092D01*
Y184027D01*
X169225Y183893D01*
X168559D02*
X168426Y184027D01*
X168159D01*
X168026Y183893D01*
Y183360D01*
X168159Y183227D01*
X168426D01*
X168559Y183360D01*
Y183893D01*
X167226Y183227D02*
X167759D01*
X167226Y183760D01*
Y183893D01*
X167359Y184027D01*
X167626D01*
X167759Y183893D01*
X150588Y183099D02*
Y183898D01*
X150188D01*
X150055Y183765D01*
Y183498D01*
X150188Y183365D01*
X150588D01*
X150321D02*
X150055Y183099D01*
X149788D02*
X149522D01*
X149655D01*
Y183898D01*
X149788Y183765D01*
X149122D02*
X148988Y183898D01*
X148722D01*
X148589Y183765D01*
Y183232D01*
X148722Y183099D01*
X148988D01*
X149122Y183232D01*
Y183765D01*
X148322Y183099D02*
X148055D01*
X148189D01*
Y183898D01*
X148322Y183765D01*
X164691Y183226D02*
Y184025D01*
X164291D01*
X164158Y183892D01*
Y183625D01*
X164291Y183492D01*
X164691D01*
X164425D02*
X164158Y183226D01*
X163891D02*
X163625D01*
X163758D01*
Y184025D01*
X163891Y183892D01*
X163225D02*
X163092Y184025D01*
X162825D01*
X162692Y183892D01*
Y183359D01*
X162825Y183226D01*
X163092D01*
X163225Y183359D01*
Y183892D01*
X162425D02*
X162292Y184025D01*
X162025D01*
X161892Y183892D01*
Y183359D01*
X162025Y183226D01*
X162292D01*
X162425Y183359D01*
Y183892D01*
X143403Y183226D02*
Y184025D01*
X143003D01*
X142870Y183892D01*
Y183625D01*
X143003Y183492D01*
X143403D01*
X143136D02*
X142870Y183226D01*
X142603Y183359D02*
X142470Y183226D01*
X142203D01*
X142070Y183359D01*
Y183892D01*
X142203Y184025D01*
X142470D01*
X142603Y183892D01*
Y183759D01*
X142470Y183625D01*
X142070D01*
X141803Y183359D02*
X141670Y183226D01*
X141404D01*
X141270Y183359D01*
Y183892D01*
X141404Y184025D01*
X141670D01*
X141803Y183892D01*
Y183759D01*
X141670Y183625D01*
X141270D01*
X165851Y191804D02*
X165051D01*
Y191404D01*
X165184Y191271D01*
X165451D01*
X165584Y191404D01*
Y191804D01*
Y191537D02*
X165851Y191271D01*
X165717Y191004D02*
X165851Y190871D01*
Y190604D01*
X165717Y190471D01*
X165184D01*
X165051Y190604D01*
Y190871D01*
X165184Y191004D01*
X165317D01*
X165451Y190871D01*
Y190471D01*
X165184Y190204D02*
X165051Y190071D01*
Y189804D01*
X165184Y189671D01*
X165317D01*
X165451Y189804D01*
X165584Y189671D01*
X165717D01*
X165851Y189804D01*
Y190071D01*
X165717Y190204D01*
X165584D01*
X165451Y190071D01*
X165317Y190204D01*
X165184D01*
X165451Y190071D02*
Y189804D01*
X145531Y191804D02*
X144731D01*
Y191404D01*
X144864Y191271D01*
X145131D01*
X145264Y191404D01*
Y191804D01*
Y191537D02*
X145531Y191271D01*
X145397Y191004D02*
X145531Y190871D01*
Y190604D01*
X145397Y190471D01*
X144864D01*
X144731Y190604D01*
Y190871D01*
X144864Y191004D01*
X144997D01*
X145131Y190871D01*
Y190471D01*
X144731Y190204D02*
Y189671D01*
X144864D01*
X145397Y190204D01*
X145531D01*
X172232Y176360D02*
X171432D01*
Y175960D01*
X171565Y175827D01*
X171832D01*
X171965Y175960D01*
Y176360D01*
Y176094D02*
X172232Y175827D01*
X172099Y175561D02*
X172232Y175427D01*
Y175161D01*
X172099Y175027D01*
X171565D01*
X171432Y175161D01*
Y175427D01*
X171565Y175561D01*
X171699D01*
X171832Y175427D01*
Y175027D01*
X171432Y174228D02*
X171565Y174494D01*
X171832Y174761D01*
X172099D01*
X172232Y174628D01*
Y174361D01*
X172099Y174228D01*
X171965D01*
X171832Y174361D01*
Y174761D01*
X149214Y176564D02*
X148414D01*
Y176164D01*
X148547Y176031D01*
X148814D01*
X148947Y176164D01*
Y176564D01*
Y176297D02*
X149214Y176031D01*
X149080Y175764D02*
X149214Y175631D01*
Y175364D01*
X149080Y175231D01*
X148547D01*
X148414Y175364D01*
Y175631D01*
X148547Y175764D01*
X148680D01*
X148814Y175631D01*
Y175231D01*
X148414Y174431D02*
Y174964D01*
X148814D01*
X148680Y174698D01*
Y174564D01*
X148814Y174431D01*
X149080D01*
X149214Y174564D01*
Y174831D01*
X149080Y174964D01*
X179725Y183226D02*
Y184025D01*
X179325D01*
X179192Y183892D01*
Y183625D01*
X179325Y183492D01*
X179725D01*
X179458D02*
X179192Y183226D01*
X178925Y183359D02*
X178792Y183226D01*
X178525D01*
X178392Y183359D01*
Y183892D01*
X178525Y184025D01*
X178792D01*
X178925Y183892D01*
Y183759D01*
X178792Y183625D01*
X178392D01*
X177726Y183226D02*
Y184025D01*
X178125Y183625D01*
X177592D01*
X159107Y183417D02*
Y184216D01*
X158707D01*
X158574Y184083D01*
Y183817D01*
X158707Y183683D01*
X159107D01*
X158841D02*
X158574Y183417D01*
X158307Y183550D02*
X158174Y183417D01*
X157908D01*
X157774Y183550D01*
Y184083D01*
X157908Y184216D01*
X158174D01*
X158307Y184083D01*
Y183950D01*
X158174Y183817D01*
X157774D01*
X157508Y184083D02*
X157374Y184216D01*
X157108D01*
X156975Y184083D01*
Y183950D01*
X157108Y183817D01*
X157241D01*
X157108D01*
X156975Y183683D01*
Y183550D01*
X157108Y183417D01*
X157374D01*
X157508Y183550D01*
X167408Y168916D02*
X166609D01*
Y168516D01*
X166742Y168383D01*
X167008D01*
X167142Y168516D01*
Y168916D01*
Y168650D02*
X167408Y168383D01*
X167275Y168117D02*
X167408Y167983D01*
Y167717D01*
X167275Y167583D01*
X166742D01*
X166609Y167717D01*
Y167983D01*
X166742Y168117D01*
X166875D01*
X167008Y167983D01*
Y167583D01*
X167408Y166784D02*
Y167317D01*
X166875Y166784D01*
X166742D01*
X166609Y166917D01*
Y167184D01*
X166742Y167317D01*
X148850Y169508D02*
X148050D01*
Y169108D01*
X148183Y168975D01*
X148450D01*
X148583Y169108D01*
Y169508D01*
Y169241D02*
X148850Y168975D01*
X148717Y168708D02*
X148850Y168575D01*
Y168308D01*
X148717Y168175D01*
X148183D01*
X148050Y168308D01*
Y168575D01*
X148183Y168708D01*
X148317D01*
X148450Y168575D01*
Y168175D01*
X148850Y167909D02*
Y167642D01*
Y167775D01*
X148050D01*
X148183Y167909D01*
X175833Y169862D02*
X175033D01*
Y169462D01*
X175166Y169329D01*
X175433D01*
X175566Y169462D01*
Y169862D01*
Y169596D02*
X175833Y169329D01*
X175699Y169063D02*
X175833Y168929D01*
Y168663D01*
X175699Y168529D01*
X175166D01*
X175033Y168663D01*
Y168929D01*
X175166Y169063D01*
X175300D01*
X175433Y168929D01*
Y168529D01*
X175166Y168263D02*
X175033Y168130D01*
Y167863D01*
X175166Y167730D01*
X175699D01*
X175833Y167863D01*
Y168130D01*
X175699Y168263D01*
X175166D01*
X156148Y169687D02*
X155348D01*
Y169287D01*
X155481Y169154D01*
X155748D01*
X155881Y169287D01*
Y169687D01*
Y169421D02*
X156148Y169154D01*
X155481Y168887D02*
X155348Y168754D01*
Y168488D01*
X155481Y168354D01*
X155615D01*
X155748Y168488D01*
X155881Y168354D01*
X156014D01*
X156148Y168488D01*
Y168754D01*
X156014Y168887D01*
X155881D01*
X155748Y168754D01*
X155615Y168887D01*
X155481D01*
X155748Y168754D02*
Y168488D01*
X156014Y168088D02*
X156148Y167954D01*
Y167688D01*
X156014Y167554D01*
X155481D01*
X155348Y167688D01*
Y167954D01*
X155481Y168088D01*
X155615D01*
X155748Y167954D01*
Y167554D01*
X174772Y183226D02*
Y184025D01*
X174372D01*
X174239Y183892D01*
Y183625D01*
X174372Y183492D01*
X174772D01*
X174505D02*
X174239Y183226D01*
X173972Y183892D02*
X173839Y184025D01*
X173572D01*
X173439Y183892D01*
Y183759D01*
X173572Y183625D01*
X173439Y183492D01*
Y183359D01*
X173572Y183226D01*
X173839D01*
X173972Y183359D01*
Y183492D01*
X173839Y183625D01*
X173972Y183759D01*
Y183892D01*
X173839Y183625D02*
X173572D01*
X173172Y183892D02*
X173039Y184025D01*
X172773D01*
X172639Y183892D01*
Y183759D01*
X172773Y183625D01*
X172639Y183492D01*
Y183359D01*
X172773Y183226D01*
X173039D01*
X173172Y183359D01*
Y183492D01*
X173039Y183625D01*
X173172Y183759D01*
Y183892D01*
X173039Y183625D02*
X172773D01*
X154213Y183099D02*
Y183898D01*
X153813D01*
X153680Y183765D01*
Y183498D01*
X153813Y183365D01*
X154213D01*
X153946D02*
X153680Y183099D01*
X153413Y183765D02*
X153280Y183898D01*
X153013D01*
X152880Y183765D01*
Y183632D01*
X153013Y183498D01*
X152880Y183365D01*
Y183232D01*
X153013Y183099D01*
X153280D01*
X153413Y183232D01*
Y183365D01*
X153280Y183498D01*
X153413Y183632D01*
Y183765D01*
X153280Y183498D02*
X153013D01*
X152613Y183898D02*
X152080D01*
Y183765D01*
X152613Y183232D01*
Y183099D01*
X174106Y191804D02*
X173306D01*
Y191404D01*
X173439Y191271D01*
X173706D01*
X173839Y191404D01*
Y191804D01*
Y191537D02*
X174106Y191271D01*
X173439Y191004D02*
X173306Y190871D01*
Y190604D01*
X173439Y190471D01*
X173572D01*
X173706Y190604D01*
X173839Y190471D01*
X173972D01*
X174106Y190604D01*
Y190871D01*
X173972Y191004D01*
X173839D01*
X173706Y190871D01*
X173572Y191004D01*
X173439D01*
X173706Y190871D02*
Y190604D01*
X173306Y189671D02*
X173439Y189938D01*
X173706Y190204D01*
X173972D01*
X174106Y190071D01*
Y189804D01*
X173972Y189671D01*
X173839D01*
X173706Y189804D01*
Y190204D01*
X153786Y191677D02*
X152986D01*
Y191277D01*
X153119Y191144D01*
X153386D01*
X153519Y191277D01*
Y191677D01*
Y191410D02*
X153786Y191144D01*
X153119Y190877D02*
X152986Y190744D01*
Y190477D01*
X153119Y190344D01*
X153252D01*
X153386Y190477D01*
X153519Y190344D01*
X153652D01*
X153786Y190477D01*
Y190744D01*
X153652Y190877D01*
X153519D01*
X153386Y190744D01*
X153252Y190877D01*
X153119D01*
X153386Y190744D02*
Y190477D01*
X152986Y189544D02*
Y190077D01*
X153386D01*
X153252Y189811D01*
Y189677D01*
X153386Y189544D01*
X153652D01*
X153786Y189677D01*
Y189944D01*
X153652Y190077D01*
X168644Y180649D02*
Y181448D01*
X168244D01*
X168111Y181315D01*
Y181048D01*
X168244Y180915D01*
X168644D01*
X168377D02*
X168111Y180649D01*
X167844Y181315D02*
X167711Y181448D01*
X167444D01*
X167311Y181315D01*
Y181182D01*
X167444Y181048D01*
X167311Y180915D01*
Y180782D01*
X167444Y180649D01*
X167711D01*
X167844Y180782D01*
Y180915D01*
X167711Y181048D01*
X167844Y181182D01*
Y181315D01*
X167711Y181048D02*
X167444D01*
X166645Y180649D02*
Y181448D01*
X167045Y181048D01*
X166511D01*
X161716Y177333D02*
Y178132D01*
X161316D01*
X161183Y177999D01*
Y177732D01*
X161316Y177599D01*
X161716D01*
X161449D02*
X161183Y177333D01*
X160916Y177999D02*
X160783Y178132D01*
X160516D01*
X160383Y177999D01*
Y177866D01*
X160516Y177732D01*
X160383Y177599D01*
Y177466D01*
X160516Y177333D01*
X160783D01*
X160916Y177466D01*
Y177599D01*
X160783Y177732D01*
X160916Y177866D01*
Y177999D01*
X160783Y177732D02*
X160516D01*
X160116Y177999D02*
X159983Y178132D01*
X159717D01*
X159583Y177999D01*
Y177866D01*
X159717Y177732D01*
X159850D01*
X159717D01*
X159583Y177599D01*
Y177466D01*
X159717Y177333D01*
X159983D01*
X160116Y177466D01*
X120229Y160153D02*
X119429D01*
Y159753D01*
X119563Y159620D01*
X119829D01*
X119962Y159753D01*
Y160153D01*
Y159886D02*
X120229Y159620D01*
X119563Y159353D02*
X119429Y159220D01*
Y158953D01*
X119563Y158820D01*
X119696D01*
X119829Y158953D01*
X119962Y158820D01*
X120096D01*
X120229Y158953D01*
Y159220D01*
X120096Y159353D01*
X119962D01*
X119829Y159220D01*
X119696Y159353D01*
X119563D01*
X119829Y159220D02*
Y158953D01*
X120229Y158020D02*
Y158553D01*
X119696Y158020D01*
X119563D01*
X119429Y158153D01*
Y158420D01*
X119563Y158553D01*
X125458Y156000D02*
Y156800D01*
X125058D01*
X124925Y156667D01*
Y156400D01*
X125058Y156267D01*
X125458D01*
X125191D02*
X124925Y156000D01*
X124658Y156667D02*
X124525Y156800D01*
X124258D01*
X124125Y156667D01*
Y156533D01*
X124258Y156400D01*
X124125Y156267D01*
Y156133D01*
X124258Y156000D01*
X124525D01*
X124658Y156133D01*
Y156267D01*
X124525Y156400D01*
X124658Y156533D01*
Y156667D01*
X124525Y156400D02*
X124258D01*
X123859Y156000D02*
X123592D01*
X123725D01*
Y156800D01*
X123859Y156667D01*
X121654Y53037D02*
X120854D01*
Y52637D01*
X120987Y52504D01*
X121254D01*
X121387Y52637D01*
Y53037D01*
Y52771D02*
X121654Y52504D01*
X120987Y52237D02*
X120854Y52104D01*
Y51838D01*
X120987Y51704D01*
X121121D01*
X121254Y51838D01*
X121387Y51704D01*
X121520D01*
X121654Y51838D01*
Y52104D01*
X121520Y52237D01*
X121387D01*
X121254Y52104D01*
X121121Y52237D01*
X120987D01*
X121254Y52104D02*
Y51838D01*
X120987Y51438D02*
X120854Y51304D01*
Y51038D01*
X120987Y50904D01*
X121520D01*
X121654Y51038D01*
Y51304D01*
X121520Y51438D01*
X120987D01*
X107541Y160400D02*
Y161200D01*
X107141D01*
X107008Y161067D01*
Y160800D01*
X107141Y160667D01*
X107541D01*
X107275D02*
X107008Y160400D01*
X106742Y161200D02*
X106208D01*
Y161067D01*
X106742Y160533D01*
Y160400D01*
X105942Y161067D02*
X105809Y161200D01*
X105542D01*
X105409Y161067D01*
Y160933D01*
X105542Y160800D01*
X105409Y160667D01*
Y160533D01*
X105542Y160400D01*
X105809D01*
X105942Y160533D01*
Y160667D01*
X105809Y160800D01*
X105942Y160933D01*
Y161067D01*
X105809Y160800D02*
X105542D01*
X107712Y58633D02*
Y59433D01*
X107312D01*
X107179Y59300D01*
Y59033D01*
X107312Y58900D01*
X107712D01*
X107445D02*
X107179Y58633D01*
X106912Y59433D02*
X106379D01*
Y59300D01*
X106912Y58767D01*
Y58633D01*
X105579Y59433D02*
X106112D01*
Y59033D01*
X105846Y59167D01*
X105712D01*
X105579Y59033D01*
Y58767D01*
X105712Y58633D01*
X105979D01*
X106112Y58767D01*
X101784Y161657D02*
Y162457D01*
X101384D01*
X101251Y162324D01*
Y162057D01*
X101384Y161924D01*
X101784D01*
X101518D02*
X101251Y161657D01*
X100451Y162457D02*
X100718Y162324D01*
X100985Y162057D01*
Y161790D01*
X100851Y161657D01*
X100585D01*
X100451Y161790D01*
Y161924D01*
X100585Y162057D01*
X100985D01*
X100185Y162324D02*
X100052Y162457D01*
X99785D01*
X99652Y162324D01*
Y162190D01*
X99785Y162057D01*
X99652Y161924D01*
Y161790D01*
X99785Y161657D01*
X100052D01*
X100185Y161790D01*
Y161924D01*
X100052Y162057D01*
X100185Y162190D01*
Y162324D01*
X100052Y162057D02*
X99785D01*
X101857Y58318D02*
Y59118D01*
X101457D01*
X101324Y58985D01*
Y58718D01*
X101457Y58585D01*
X101857D01*
X101590D02*
X101324Y58318D01*
X100524Y59118D02*
X100791Y58985D01*
X101057Y58718D01*
Y58451D01*
X100924Y58318D01*
X100657D01*
X100524Y58451D01*
Y58585D01*
X100657Y58718D01*
X101057D01*
X99724Y59118D02*
X100257D01*
Y58718D01*
X99991Y58851D01*
X99858D01*
X99724Y58718D01*
Y58451D01*
X99858Y58318D01*
X100124D01*
X100257Y58451D01*
X117366Y76884D02*
Y77684D01*
X116966D01*
X116833Y77550D01*
Y77284D01*
X116966Y77151D01*
X117366D01*
X117100D02*
X116833Y76884D01*
X116033Y77684D02*
X116300Y77550D01*
X116566Y77284D01*
Y77017D01*
X116433Y76884D01*
X116166D01*
X116033Y77017D01*
Y77151D01*
X116166Y77284D01*
X116566D01*
X115233Y76884D02*
X115767D01*
X115233Y77417D01*
Y77550D01*
X115367Y77684D01*
X115633D01*
X115767Y77550D01*
X207567Y133799D02*
Y132999D01*
X207967D01*
X208100Y133133D01*
Y133399D01*
X207967Y133532D01*
X207567D01*
X207834D02*
X208100Y133799D01*
X208900Y132999D02*
X208633Y133133D01*
X208367Y133399D01*
Y133666D01*
X208500Y133799D01*
X208767D01*
X208900Y133666D01*
Y133532D01*
X208767Y133399D01*
X208367D01*
X209166Y133799D02*
X209433D01*
X209300D01*
Y132999D01*
X209166Y133133D01*
X102241Y190650D02*
Y191450D01*
X101841D01*
X101708Y191317D01*
Y191050D01*
X101841Y190917D01*
X102241D01*
X101975D02*
X101708Y190650D01*
X100908Y191450D02*
X101175Y191317D01*
X101442Y191050D01*
Y190783D01*
X101308Y190650D01*
X101042D01*
X100908Y190783D01*
Y190917D01*
X101042Y191050D01*
X101442D01*
X100642Y191317D02*
X100509Y191450D01*
X100242D01*
X100109Y191317D01*
Y190783D01*
X100242Y190650D01*
X100509D01*
X100642Y190783D01*
Y191317D01*
X102284Y84525D02*
Y85325D01*
X101884D01*
X101751Y85192D01*
Y84925D01*
X101884Y84792D01*
X102284D01*
X102018D02*
X101751Y84525D01*
X100951Y85325D02*
X101485D01*
Y84925D01*
X101218Y85058D01*
X101085D01*
X100951Y84925D01*
Y84658D01*
X101085Y84525D01*
X101351D01*
X101485Y84658D01*
X100685D02*
X100552Y84525D01*
X100285D01*
X100152Y84658D01*
Y85192D01*
X100285Y85325D01*
X100552D01*
X100685Y85192D01*
Y85058D01*
X100552Y84925D01*
X100152D01*
X207311Y131259D02*
Y130459D01*
X207711D01*
X207844Y130592D01*
Y130859D01*
X207711Y130992D01*
X207311D01*
X207578D02*
X207844Y131259D01*
X208644Y130459D02*
X208111D01*
Y130859D01*
X208377Y130726D01*
X208511D01*
X208644Y130859D01*
Y131126D01*
X208511Y131259D01*
X208244D01*
X208111Y131126D01*
X208911Y130592D02*
X209044Y130459D01*
X209310D01*
X209444Y130592D01*
Y130726D01*
X209310Y130859D01*
X209444Y130992D01*
Y131126D01*
X209310Y131259D01*
X209044D01*
X208911Y131126D01*
Y130992D01*
X209044Y130859D01*
X208911Y130726D01*
Y130592D01*
X209044Y130859D02*
X209310D01*
X196193Y101025D02*
Y101825D01*
X195793D01*
X195660Y101692D01*
Y101425D01*
X195793Y101292D01*
X196193D01*
X195926D02*
X195660Y101025D01*
X194860Y101825D02*
X195393D01*
Y101425D01*
X195126Y101558D01*
X194993D01*
X194860Y101425D01*
Y101158D01*
X194993Y101025D01*
X195260D01*
X195393Y101158D01*
X194060Y101825D02*
X194327Y101692D01*
X194593Y101425D01*
Y101158D01*
X194460Y101025D01*
X194193D01*
X194060Y101158D01*
Y101292D01*
X194193Y101425D01*
X194593D01*
X212009Y116575D02*
Y117375D01*
X211609D01*
X211476Y117242D01*
Y116975D01*
X211609Y116842D01*
X212009D01*
X211743D02*
X211476Y116575D01*
X210676Y117375D02*
X211210D01*
Y116975D01*
X210943Y117108D01*
X210810D01*
X210676Y116975D01*
Y116708D01*
X210810Y116575D01*
X211076D01*
X211210Y116708D01*
X209877Y117375D02*
X210410D01*
Y116975D01*
X210143Y117108D01*
X210010D01*
X209877Y116975D01*
Y116708D01*
X210010Y116575D01*
X210277D01*
X210410Y116708D01*
X189259Y98284D02*
Y99084D01*
X188859D01*
X188726Y98950D01*
Y98684D01*
X188859Y98550D01*
X189259D01*
X188993D02*
X188726Y98284D01*
X187926Y99084D02*
X188460D01*
Y98684D01*
X188193Y98817D01*
X188060D01*
X187926Y98684D01*
Y98417D01*
X188060Y98284D01*
X188326D01*
X188460Y98417D01*
X187260Y98284D02*
Y99084D01*
X187660Y98684D01*
X187127D01*
X201284Y116475D02*
Y117275D01*
X200884D01*
X200751Y117142D01*
Y116875D01*
X200884Y116742D01*
X201284D01*
X201018D02*
X200751Y116475D01*
X199951Y117275D02*
X200485D01*
Y116875D01*
X200218Y117008D01*
X200085D01*
X199951Y116875D01*
Y116608D01*
X200085Y116475D01*
X200351D01*
X200485Y116608D01*
X199685Y117142D02*
X199552Y117275D01*
X199285D01*
X199152Y117142D01*
Y117008D01*
X199285Y116875D01*
X199418D01*
X199285D01*
X199152Y116742D01*
Y116608D01*
X199285Y116475D01*
X199552D01*
X199685Y116608D01*
X107641Y190575D02*
Y191375D01*
X107241D01*
X107108Y191242D01*
Y190975D01*
X107241Y190842D01*
X107641D01*
X107375D02*
X107108Y190575D01*
X106308Y191375D02*
X106842D01*
Y190975D01*
X106575Y191108D01*
X106442D01*
X106308Y190975D01*
Y190708D01*
X106442Y190575D01*
X106708D01*
X106842Y190708D01*
X105509Y190575D02*
X106042D01*
X105509Y191108D01*
Y191242D01*
X105642Y191375D01*
X105909D01*
X106042Y191242D01*
X107651Y80875D02*
Y81675D01*
X107251D01*
X107118Y81542D01*
Y81275D01*
X107251Y81142D01*
X107651D01*
X107384D02*
X107118Y80875D01*
X106318Y81675D02*
X106851D01*
Y81275D01*
X106585Y81408D01*
X106451D01*
X106318Y81275D01*
Y81008D01*
X106451Y80875D01*
X106718D01*
X106851Y81008D01*
X106052Y80875D02*
X105785D01*
X105918D01*
Y81675D01*
X106052Y81542D01*
X123693Y189897D02*
X122893D01*
Y189497D01*
X123026Y189364D01*
X123293D01*
X123426Y189497D01*
Y189897D01*
Y189631D02*
X123693Y189364D01*
X122893Y188564D02*
Y189098D01*
X123293D01*
X123160Y188831D01*
Y188698D01*
X123293Y188564D01*
X123560D01*
X123693Y188698D01*
Y188964D01*
X123560Y189098D01*
X123026Y188298D02*
X122893Y188165D01*
Y187898D01*
X123026Y187765D01*
X123560D01*
X123693Y187898D01*
Y188165D01*
X123560Y188298D01*
X123026D01*
X126800Y189897D02*
X126000D01*
Y189497D01*
X126133Y189364D01*
X126400D01*
X126533Y189497D01*
Y189897D01*
Y189631D02*
X126800Y189364D01*
Y188698D02*
X126000D01*
X126400Y189098D01*
Y188564D01*
X126667Y188298D02*
X126800Y188165D01*
Y187898D01*
X126667Y187765D01*
X126133D01*
X126000Y187898D01*
Y188165D01*
X126133Y188298D01*
X126267D01*
X126400Y188165D01*
Y187765D01*
X98625Y7966D02*
X97825D01*
Y7566D01*
X97958Y7433D01*
X98225D01*
X98358Y7566D01*
Y7966D01*
Y7700D02*
X98625Y7433D01*
Y6767D02*
X97825D01*
X98225Y7167D01*
Y6633D01*
X97958Y6367D02*
X97825Y6234D01*
Y5967D01*
X97958Y5834D01*
X98092D01*
X98225Y5967D01*
X98358Y5834D01*
X98492D01*
X98625Y5967D01*
Y6234D01*
X98492Y6367D01*
X98358D01*
X98225Y6234D01*
X98092Y6367D01*
X97958D01*
X98225Y6234D02*
Y5967D01*
X122093Y80916D02*
X121293D01*
Y80516D01*
X121426Y80383D01*
X121693D01*
X121826Y80516D01*
Y80916D01*
Y80650D02*
X122093Y80383D01*
Y79717D02*
X121293D01*
X121693Y80117D01*
Y79583D01*
X121293Y79317D02*
Y78784D01*
X121426D01*
X121960Y79317D01*
X122093D01*
X125468Y81016D02*
X124668D01*
Y80616D01*
X124801Y80483D01*
X125068D01*
X125201Y80616D01*
Y81016D01*
Y80750D02*
X125468Y80483D01*
Y79817D02*
X124668D01*
X125068Y80217D01*
Y79683D01*
X124668Y78884D02*
X124801Y79150D01*
X125068Y79417D01*
X125335D01*
X125468Y79284D01*
Y79017D01*
X125335Y78884D01*
X125201D01*
X125068Y79017D01*
Y79417D01*
X108038Y5209D02*
Y6009D01*
X107638D01*
X107505Y5876D01*
Y5609D01*
X107638Y5476D01*
X108038D01*
X107772D02*
X107505Y5209D01*
X106839D02*
Y6009D01*
X107239Y5609D01*
X106705D01*
X105906Y6009D02*
X106439D01*
Y5609D01*
X106172Y5742D01*
X106039D01*
X105906Y5609D01*
Y5342D01*
X106039Y5209D01*
X106306D01*
X106439Y5342D01*
X107784Y194457D02*
Y195257D01*
X107384D01*
X107251Y195124D01*
Y194857D01*
X107384Y194724D01*
X107784D01*
X107518D02*
X107251Y194457D01*
X106585D02*
Y195257D01*
X106985Y194857D01*
X106451D01*
X105785Y194457D02*
Y195257D01*
X106185Y194857D01*
X105652D01*
X107712Y84932D02*
Y85732D01*
X107312D01*
X107179Y85599D01*
Y85332D01*
X107312Y85199D01*
X107712D01*
X107445D02*
X107179Y84932D01*
X106512D02*
Y85732D01*
X106912Y85332D01*
X106379D01*
X106112Y85599D02*
X105979Y85732D01*
X105712D01*
X105579Y85599D01*
Y85465D01*
X105712Y85332D01*
X105846D01*
X105712D01*
X105579Y85199D01*
Y85065D01*
X105712Y84932D01*
X105979D01*
X106112Y85065D01*
X101710Y194555D02*
Y195355D01*
X101310D01*
X101177Y195222D01*
Y194955D01*
X101310Y194822D01*
X101710D01*
X101443D02*
X101177Y194555D01*
X100510D02*
Y195355D01*
X100910Y194955D01*
X100377D01*
X99577Y194555D02*
X100110D01*
X99577Y195088D01*
Y195222D01*
X99710Y195355D01*
X99977D01*
X100110Y195222D01*
X98900Y86570D02*
Y87370D01*
X98500D01*
X98366Y87236D01*
Y86970D01*
X98500Y86837D01*
X98900D01*
X98633D02*
X98366Y86570D01*
X97700D02*
Y87370D01*
X98100Y86970D01*
X97567D01*
X97300Y86570D02*
X97034D01*
X97167D01*
Y87370D01*
X97300Y87236D01*
X120768Y3159D02*
X121568D01*
Y3559D01*
X121435Y3692D01*
X121168D01*
X121035Y3559D01*
Y3159D01*
Y3425D02*
X120768Y3692D01*
Y4358D02*
X121568D01*
X121168Y3958D01*
Y4492D01*
X121435Y4758D02*
X121568Y4891D01*
Y5158D01*
X121435Y5291D01*
X120901D01*
X120768Y5158D01*
Y4891D01*
X120901Y4758D01*
X121435D01*
X231991Y185100D02*
Y185900D01*
X231591D01*
X231458Y185767D01*
Y185500D01*
X231591Y185367D01*
X231991D01*
X231725D02*
X231458Y185100D01*
X231192Y185767D02*
X231058Y185900D01*
X230792D01*
X230658Y185767D01*
Y185633D01*
X230792Y185500D01*
X230925D01*
X230792D01*
X230658Y185367D01*
Y185233D01*
X230792Y185100D01*
X231058D01*
X231192Y185233D01*
X230392D02*
X230259Y185100D01*
X229992D01*
X229859Y185233D01*
Y185767D01*
X229992Y185900D01*
X230259D01*
X230392Y185767D01*
Y185633D01*
X230259Y185500D01*
X229859D01*
X231991Y187725D02*
Y188525D01*
X231591D01*
X231458Y188392D01*
Y188125D01*
X231591Y187992D01*
X231991D01*
X231725D02*
X231458Y187725D01*
X231192Y188392D02*
X231058Y188525D01*
X230792D01*
X230658Y188392D01*
Y188258D01*
X230792Y188125D01*
X230925D01*
X230792D01*
X230658Y187992D01*
Y187858D01*
X230792Y187725D01*
X231058D01*
X231192Y187858D01*
X230392Y188392D02*
X230259Y188525D01*
X229992D01*
X229859Y188392D01*
Y188258D01*
X229992Y188125D01*
X229859Y187992D01*
Y187858D01*
X229992Y187725D01*
X230259D01*
X230392Y187858D01*
Y187992D01*
X230259Y188125D01*
X230392Y188258D01*
Y188392D01*
X230259Y188125D02*
X229992D01*
X128359Y112125D02*
Y112925D01*
X127959D01*
X127826Y112792D01*
Y112525D01*
X127959Y112392D01*
X128359D01*
X128093D02*
X127826Y112125D01*
X127560Y112792D02*
X127426Y112925D01*
X127160D01*
X127026Y112792D01*
Y112658D01*
X127160Y112525D01*
X127293D01*
X127160D01*
X127026Y112392D01*
Y112258D01*
X127160Y112125D01*
X127426D01*
X127560Y112258D01*
X126760Y112925D02*
X126227D01*
Y112792D01*
X126760Y112258D01*
Y112125D01*
X104857Y124350D02*
Y125150D01*
X104457D01*
X104323Y125017D01*
Y124750D01*
X104457Y124617D01*
X104857D01*
X104590D02*
X104323Y124350D01*
X104057Y125017D02*
X103924Y125150D01*
X103657D01*
X103524Y125017D01*
Y124883D01*
X103657Y124750D01*
X103790D01*
X103657D01*
X103524Y124617D01*
Y124483D01*
X103657Y124350D01*
X103924D01*
X104057Y124483D01*
X102724Y125150D02*
X102991Y125017D01*
X103257Y124750D01*
Y124483D01*
X103124Y124350D01*
X102857D01*
X102724Y124483D01*
Y124617D01*
X102857Y124750D01*
X103257D01*
X105712Y19625D02*
Y20425D01*
X105312D01*
X105179Y20291D01*
Y20025D01*
X105312Y19892D01*
X105712D01*
X105445D02*
X105179Y19625D01*
X104912Y20291D02*
X104779Y20425D01*
X104512D01*
X104379Y20291D01*
Y20158D01*
X104512Y20025D01*
X104645D01*
X104512D01*
X104379Y19892D01*
Y19758D01*
X104512Y19625D01*
X104779D01*
X104912Y19758D01*
X103579Y20425D02*
X104112D01*
Y20025D01*
X103846Y20158D01*
X103712D01*
X103579Y20025D01*
Y19758D01*
X103712Y19625D01*
X103979D01*
X104112Y19758D01*
X107657Y11559D02*
Y12359D01*
X107257D01*
X107124Y12226D01*
Y11959D01*
X107257Y11826D01*
X107657D01*
X107391D02*
X107124Y11559D01*
X106858Y12226D02*
X106724Y12359D01*
X106458D01*
X106324Y12226D01*
Y12092D01*
X106458Y11959D01*
X106591D01*
X106458D01*
X106324Y11826D01*
Y11692D01*
X106458Y11559D01*
X106724D01*
X106858Y11692D01*
X105658Y11559D02*
Y12359D01*
X106058Y11959D01*
X105525D01*
X98966Y126279D02*
Y127079D01*
X98566D01*
X98433Y126946D01*
Y126679D01*
X98566Y126546D01*
X98966D01*
X98700D02*
X98433Y126279D01*
X98167Y126946D02*
X98033Y127079D01*
X97767D01*
X97633Y126946D01*
Y126812D01*
X97767Y126679D01*
X97900D01*
X97767D01*
X97633Y126546D01*
Y126413D01*
X97767Y126279D01*
X98033D01*
X98167Y126413D01*
X97367Y126946D02*
X97234Y127079D01*
X96967D01*
X96834Y126946D01*
Y126812D01*
X96967Y126679D01*
X97100D01*
X96967D01*
X96834Y126546D01*
Y126413D01*
X96967Y126279D01*
X97234D01*
X97367Y126413D01*
X98800Y10733D02*
X98000D01*
Y10333D01*
X98133Y10200D01*
X98400D01*
X98533Y10333D01*
Y10733D01*
Y10466D02*
X98800Y10200D01*
X98133Y9933D02*
X98000Y9800D01*
Y9533D01*
X98133Y9400D01*
X98266D01*
X98400Y9533D01*
Y9667D01*
Y9533D01*
X98533Y9400D01*
X98666D01*
X98800Y9533D01*
Y9800D01*
X98666Y9933D01*
X98800Y9134D02*
Y8867D01*
Y9000D01*
X98000D01*
X98133Y9134D01*
X97841Y22079D02*
Y22879D01*
X97441D01*
X97308Y22745D01*
Y22479D01*
X97441Y22345D01*
X97841D01*
X97575D02*
X97308Y22079D01*
X97042Y22745D02*
X96908Y22879D01*
X96642D01*
X96508Y22745D01*
Y22612D01*
X96642Y22479D01*
X96775D01*
X96642D01*
X96508Y22345D01*
Y22212D01*
X96642Y22079D01*
X96908D01*
X97042Y22212D01*
X96242Y22745D02*
X96109Y22879D01*
X95842D01*
X95709Y22745D01*
Y22212D01*
X95842Y22079D01*
X96109D01*
X96242Y22212D01*
Y22745D01*
X102182Y36803D02*
Y37603D01*
X101782D01*
X101649Y37470D01*
Y37203D01*
X101782Y37070D01*
X102182D01*
X101916D02*
X101649Y36803D01*
X100849D02*
X101383D01*
X100849Y37336D01*
Y37470D01*
X100983Y37603D01*
X101249D01*
X101383Y37470D01*
X100583D02*
X100449Y37603D01*
X100183D01*
X100050Y37470D01*
Y37336D01*
X100183Y37203D01*
X100050Y37070D01*
Y36936D01*
X100183Y36803D01*
X100449D01*
X100583Y36936D01*
Y37070D01*
X100449Y37203D01*
X100583Y37336D01*
Y37470D01*
X100449Y37203D02*
X100183D01*
X101712Y110942D02*
Y111742D01*
X101312D01*
X101179Y111609D01*
Y111342D01*
X101312Y111209D01*
X101712D01*
X101445D02*
X101179Y110942D01*
X100379D02*
X100912D01*
X100379Y111475D01*
Y111609D01*
X100512Y111742D01*
X100779D01*
X100912Y111609D01*
X100112Y111742D02*
X99579D01*
Y111609D01*
X100112Y111076D01*
Y110942D01*
X109559Y109500D02*
Y110300D01*
X109159D01*
X109026Y110167D01*
Y109900D01*
X109159Y109767D01*
X109559D01*
X109293D02*
X109026Y109500D01*
X108226D02*
X108760D01*
X108226Y110033D01*
Y110167D01*
X108360Y110300D01*
X108626D01*
X108760Y110167D01*
X107427Y110300D02*
X107693Y110167D01*
X107960Y109900D01*
Y109633D01*
X107827Y109500D01*
X107560D01*
X107427Y109633D01*
Y109767D01*
X107560Y109900D01*
X107960D01*
X107712Y34964D02*
Y35764D01*
X107312D01*
X107179Y35630D01*
Y35364D01*
X107312Y35231D01*
X107712D01*
X107445D02*
X107179Y34964D01*
X106379D02*
X106912D01*
X106379Y35497D01*
Y35630D01*
X106512Y35764D01*
X106779D01*
X106912Y35630D01*
X105579Y35764D02*
X106112D01*
Y35364D01*
X105846Y35497D01*
X105712D01*
X105579Y35364D01*
Y35097D01*
X105712Y34964D01*
X105979D01*
X106112Y35097D01*
X122143Y111166D02*
X121343D01*
Y110766D01*
X121476Y110633D01*
X121743D01*
X121876Y110766D01*
Y111166D01*
Y110900D02*
X122143Y110633D01*
Y109833D02*
Y110367D01*
X121610Y109833D01*
X121476D01*
X121343Y109967D01*
Y110233D01*
X121476Y110367D01*
X122143Y109167D02*
X121343D01*
X121743Y109567D01*
Y109034D01*
X124243Y2734D02*
X125043D01*
Y3134D01*
X124910Y3267D01*
X124643D01*
X124510Y3134D01*
Y2734D01*
Y3000D02*
X124243Y3267D01*
Y4067D02*
Y3533D01*
X124776Y4067D01*
X124910D01*
X125043Y3933D01*
Y3667D01*
X124910Y3533D01*
Y4333D02*
X125043Y4466D01*
Y4733D01*
X124910Y4866D01*
X124776D01*
X124643Y4733D01*
Y4600D01*
Y4733D01*
X124510Y4866D01*
X124376D01*
X124243Y4733D01*
Y4466D01*
X124376Y4333D01*
X223885Y187106D02*
X223085D01*
Y186706D01*
X223218Y186573D01*
X223485D01*
X223618Y186706D01*
Y187106D01*
Y186839D02*
X223885Y186573D01*
Y185773D02*
Y186306D01*
X223352Y185773D01*
X223218D01*
X223085Y185906D01*
Y186173D01*
X223218Y186306D01*
X223885Y184973D02*
Y185506D01*
X223352Y184973D01*
X223218D01*
X223085Y185106D01*
Y185373D01*
X223218Y185506D01*
X107578Y116513D02*
Y117313D01*
X107179D01*
X107045Y117179D01*
Y116913D01*
X107179Y116780D01*
X107578D01*
X107312D02*
X107045Y116513D01*
X106246D02*
X106779D01*
X106246Y117046D01*
Y117179D01*
X106379Y117313D01*
X106645D01*
X106779Y117179D01*
X105979Y116513D02*
X105712D01*
X105846D01*
Y117313D01*
X105979Y117179D01*
X221220Y187106D02*
X220420D01*
Y186706D01*
X220553Y186573D01*
X220820D01*
X220953Y186706D01*
Y187106D01*
Y186839D02*
X221220Y186573D01*
Y185773D02*
Y186306D01*
X220687Y185773D01*
X220553D01*
X220420Y185906D01*
Y186173D01*
X220553Y186306D01*
Y185506D02*
X220420Y185373D01*
Y185106D01*
X220553Y184973D01*
X221087D01*
X221220Y185106D01*
Y185373D01*
X221087Y185506D01*
X220553D01*
X98698Y116375D02*
X97898D01*
Y115975D01*
X98031Y115842D01*
X98298D01*
X98431Y115975D01*
Y116375D01*
Y116108D02*
X98698Y115842D01*
Y115575D02*
Y115308D01*
Y115442D01*
X97898D01*
X98031Y115575D01*
X98565Y114908D02*
X98698Y114775D01*
Y114509D01*
X98565Y114375D01*
X98031D01*
X97898Y114509D01*
Y114775D01*
X98031Y114908D01*
X98165D01*
X98298Y114775D01*
Y114375D01*
X122048Y35400D02*
X121249D01*
Y35000D01*
X121382Y34867D01*
X121649D01*
X121782Y35000D01*
Y35400D01*
Y35133D02*
X122048Y34867D01*
Y34600D02*
Y34333D01*
Y34467D01*
X121249D01*
X121382Y34600D01*
Y33933D02*
X121249Y33800D01*
Y33534D01*
X121382Y33400D01*
X121515D01*
X121649Y33534D01*
X121782Y33400D01*
X121915D01*
X122048Y33534D01*
Y33800D01*
X121915Y33933D01*
X121782D01*
X121649Y33800D01*
X121515Y33933D01*
X121382D01*
X121649Y33800D02*
Y33534D01*
X124522Y141650D02*
X123722D01*
Y141250D01*
X123856Y141117D01*
X124122D01*
X124255Y141250D01*
Y141650D01*
Y141383D02*
X124522Y141117D01*
Y140850D02*
Y140583D01*
Y140717D01*
X123722D01*
X123856Y140850D01*
X123722Y140183D02*
Y139650D01*
X123856D01*
X124389Y140183D01*
X124522D01*
X101909Y142007D02*
Y142807D01*
X101510D01*
X101376Y142674D01*
Y142407D01*
X101510Y142274D01*
X101909D01*
X101643D02*
X101376Y142007D01*
X101110D02*
X100843D01*
X100976D01*
Y142807D01*
X101110Y142674D01*
X99910Y142807D02*
X100177Y142674D01*
X100443Y142407D01*
Y142140D01*
X100310Y142007D01*
X100043D01*
X99910Y142140D01*
Y142274D01*
X100043Y142407D01*
X100443D01*
X107845Y141919D02*
Y142719D01*
X107445D01*
X107312Y142586D01*
Y142319D01*
X107445Y142186D01*
X107845D01*
X107578D02*
X107312Y141919D01*
X107045D02*
X106778D01*
X106912D01*
Y142719D01*
X107045Y142586D01*
X105845Y142719D02*
X106378D01*
Y142319D01*
X106112Y142452D01*
X105979D01*
X105845Y142319D01*
Y142053D01*
X105979Y141919D01*
X106245D01*
X106378Y142053D01*
X107600Y40125D02*
Y40925D01*
X107200D01*
X107067Y40792D01*
Y40525D01*
X107200Y40392D01*
X107600D01*
X107333D02*
X107067Y40125D01*
X106800D02*
X106533D01*
X106667D01*
Y40925D01*
X106800Y40792D01*
X105734Y40125D02*
Y40925D01*
X106133Y40525D01*
X105600D01*
X126868Y36283D02*
X126068D01*
Y35883D01*
X126201Y35750D01*
X126468D01*
X126601Y35883D01*
Y36283D01*
Y36016D02*
X126868Y35750D01*
Y35483D02*
Y35217D01*
Y35350D01*
X126068D01*
X126201Y35483D01*
X126868Y34284D02*
Y34817D01*
X126335Y34284D01*
X126201D01*
X126068Y34417D01*
Y34683D01*
X126201Y34817D01*
X102584Y43243D02*
Y44043D01*
X102185D01*
X102051Y43909D01*
Y43643D01*
X102185Y43510D01*
X102584D01*
X102318D02*
X102051Y43243D01*
X101785D02*
X101518D01*
X101651D01*
Y44043D01*
X101785Y43909D01*
X101118Y43243D02*
X100852D01*
X100985D01*
Y44043D01*
X101118Y43909D01*
X199556Y136645D02*
X200122Y137211D01*
X199839Y137494D01*
X199651D01*
X199462Y137305D01*
X199462Y137117D01*
X199745Y136834D01*
X199556Y137022D02*
X199179D01*
X198991Y137211D02*
X198802Y137399D01*
X198897Y137305D01*
X199462Y137871D01*
X199462Y137682D01*
X198991Y138153D02*
X198991Y138342D01*
X198802Y138530D01*
X198614D01*
X198237Y138153D01*
X198237Y137965D01*
X198425Y137776D01*
X198614D01*
X198991Y138153D01*
X229300Y148986D02*
X228500D01*
Y148586D01*
X228633Y148452D01*
X228900D01*
X229033Y148586D01*
Y148986D01*
Y148719D02*
X229300Y148452D01*
X229167Y148186D02*
X229300Y148053D01*
Y147786D01*
X229167Y147653D01*
X228633D01*
X228500Y147786D01*
Y148053D01*
X228633Y148186D01*
X228767D01*
X228900Y148053D01*
Y147653D01*
X244586Y141263D02*
X243786D01*
Y140863D01*
X243919Y140730D01*
X244186D01*
X244319Y140863D01*
Y141263D01*
Y140996D02*
X244586Y140730D01*
X243919Y140463D02*
X243786Y140330D01*
Y140063D01*
X243919Y139930D01*
X244053D01*
X244186Y140063D01*
X244319Y139930D01*
X244453D01*
X244586Y140063D01*
Y140330D01*
X244453Y140463D01*
X244319D01*
X244186Y140330D01*
X244053Y140463D01*
X243919D01*
X244186Y140330D02*
Y140063D01*
X107418Y148015D02*
Y148815D01*
X107019D01*
X106885Y148682D01*
Y148415D01*
X107019Y148282D01*
X107418D01*
X107152D02*
X106885Y148015D01*
X106619Y148815D02*
X106086D01*
Y148682D01*
X106619Y148149D01*
Y148015D01*
X102282Y147799D02*
Y148599D01*
X101883D01*
X101749Y148466D01*
Y148199D01*
X101883Y148066D01*
X102282D01*
X102016D02*
X101749Y147799D01*
X100949Y148599D02*
X101216Y148466D01*
X101483Y148199D01*
Y147933D01*
X101349Y147799D01*
X101083D01*
X100949Y147933D01*
Y148066D01*
X101083Y148199D01*
X101483D01*
X240000Y122091D02*
X239200D01*
Y121692D01*
X239333Y121558D01*
X239600D01*
X239733Y121692D01*
Y122091D01*
Y121825D02*
X240000Y121558D01*
X239200Y120759D02*
Y121292D01*
X239600D01*
X239467Y121025D01*
Y120892D01*
X239600Y120759D01*
X239867D01*
X240000Y120892D01*
Y121158D01*
X239867Y121292D01*
X233666Y188486D02*
Y189285D01*
X233267D01*
X233133Y189152D01*
Y188885D01*
X233267Y188752D01*
X233666D01*
X233400D02*
X233133Y188486D01*
X232467D02*
Y189285D01*
X232867Y188885D01*
X232334D01*
X236767Y170820D02*
Y171620D01*
X236367D01*
X236233Y171487D01*
Y171220D01*
X236367Y171087D01*
X236767D01*
X236500D02*
X236233Y170820D01*
X235967Y171487D02*
X235834Y171620D01*
X235567D01*
X235434Y171487D01*
Y171354D01*
X235567Y171220D01*
X235700D01*
X235567D01*
X235434Y171087D01*
Y170954D01*
X235567Y170820D01*
X235834D01*
X235967Y170954D01*
X179747Y134360D02*
X179182Y134925D01*
X178899Y134643D01*
Y134454D01*
X179087Y134266D01*
X179276Y134266D01*
X179559Y134548D01*
X179370Y134360D02*
Y133983D01*
X178805Y133417D02*
X179182Y133794D01*
X178428D01*
X178333Y133889D01*
Y134077D01*
X178522Y134266D01*
X178710Y134266D01*
X103291Y154100D02*
Y153300D01*
X102891D01*
X102758Y153433D01*
Y153967D01*
X102891Y154100D01*
X103291D01*
X101958Y153300D02*
X102492D01*
X101958Y153833D01*
Y153967D01*
X102092Y154100D01*
X102358D01*
X102492Y153967D01*
X101159Y154100D02*
X101425Y153967D01*
X101692Y153700D01*
Y153433D01*
X101559Y153300D01*
X101292D01*
X101159Y153433D01*
Y153567D01*
X101292Y153700D01*
X101692D01*
X102791Y49925D02*
Y49125D01*
X102391D01*
X102258Y49258D01*
Y49792D01*
X102391Y49925D01*
X102791D01*
X101458Y49125D02*
X101992D01*
X101458Y49658D01*
Y49792D01*
X101592Y49925D01*
X101858D01*
X101992Y49792D01*
X100659Y49925D02*
X101192D01*
Y49525D01*
X100925Y49658D01*
X100792D01*
X100659Y49525D01*
Y49258D01*
X100792Y49125D01*
X101059D01*
X101192Y49258D01*
X98884Y167655D02*
Y166855D01*
X98484D01*
X98351Y166989D01*
Y167522D01*
X98484Y167655D01*
X98884D01*
X97551Y166855D02*
X98084D01*
X97551Y167388D01*
Y167522D01*
X97685Y167655D01*
X97951D01*
X98084Y167522D01*
X96885Y166855D02*
Y167655D01*
X97285Y167255D01*
X96752D01*
X166386Y172175D02*
Y171375D01*
X165986D01*
X165853Y171508D01*
Y172042D01*
X165986Y172175D01*
X166386D01*
X165053Y171375D02*
X165587D01*
X165053Y171908D01*
Y172042D01*
X165187Y172175D01*
X165453D01*
X165587Y172042D01*
X164787D02*
X164654Y172175D01*
X164387D01*
X164254Y172042D01*
Y171908D01*
X164387Y171775D01*
X164520D01*
X164387D01*
X164254Y171642D01*
Y171508D01*
X164387Y171375D01*
X164654D01*
X164787Y171508D01*
X98626Y61000D02*
Y60200D01*
X98226D01*
X98093Y60333D01*
Y60867D01*
X98226Y61000D01*
X98626D01*
X97293Y60200D02*
X97826D01*
X97293Y60733D01*
Y60867D01*
X97426Y61000D01*
X97693D01*
X97826Y60867D01*
X97027Y60200D02*
X96760D01*
X96893D01*
Y61000D01*
X97027Y60867D01*
X123884Y169375D02*
Y168575D01*
X123484D01*
X123351Y168708D01*
Y169242D01*
X123484Y169375D01*
X123884D01*
X122551Y168575D02*
X123085D01*
X122551Y169108D01*
Y169242D01*
X122685Y169375D01*
X122951D01*
X123085Y169242D01*
X122285D02*
X122152Y169375D01*
X121885D01*
X121752Y169242D01*
Y168708D01*
X121885Y168575D01*
X122152D01*
X122285Y168708D01*
Y169242D01*
X123693Y65400D02*
Y64600D01*
X123293D01*
X123160Y64733D01*
Y65267D01*
X123293Y65400D01*
X123693D01*
X122893Y64600D02*
X122626D01*
X122760D01*
Y65400D01*
X122893Y65267D01*
X122226Y64733D02*
X122093Y64600D01*
X121827D01*
X121693Y64733D01*
Y65267D01*
X121827Y65400D01*
X122093D01*
X122226Y65267D01*
Y65133D01*
X122093Y65000D01*
X121693D01*
X102400Y184925D02*
Y184125D01*
X102000D01*
X101867Y184258D01*
Y184792D01*
X102000Y184925D01*
X102400D01*
X101600Y184125D02*
X101333D01*
X101467D01*
Y184925D01*
X101600Y184792D01*
X100933D02*
X100800Y184925D01*
X100534D01*
X100400Y184792D01*
Y184658D01*
X100534Y184525D01*
X100400Y184392D01*
Y184258D01*
X100534Y184125D01*
X100800D01*
X100933Y184258D01*
Y184392D01*
X100800Y184525D01*
X100933Y184658D01*
Y184792D01*
X100800Y184525D02*
X100534D01*
X102600Y2150D02*
Y1350D01*
X102200D01*
X102067Y1483D01*
Y2017D01*
X102200Y2150D01*
X102600D01*
X101800Y1350D02*
X101533D01*
X101667D01*
Y2150D01*
X101800Y2017D01*
X100600Y2150D02*
X100867Y2017D01*
X101133Y1750D01*
Y1483D01*
X101000Y1350D01*
X100734D01*
X100600Y1483D01*
Y1617D01*
X100734Y1750D01*
X101133D01*
X102718Y198900D02*
Y198100D01*
X102318D01*
X102185Y198233D01*
Y198767D01*
X102318Y198900D01*
X102718D01*
X101918Y198100D02*
X101651D01*
X101785D01*
Y198900D01*
X101918Y198767D01*
X100718Y198900D02*
X101251D01*
Y198500D01*
X100985Y198633D01*
X100852D01*
X100718Y198500D01*
Y198233D01*
X100852Y198100D01*
X101118D01*
X101251Y198233D01*
X98518Y90075D02*
Y89275D01*
X98118D01*
X97985Y89408D01*
Y89942D01*
X98118Y90075D01*
X98518D01*
X97718Y89275D02*
X97451D01*
X97585D01*
Y90075D01*
X97718Y89942D01*
X96652Y89275D02*
Y90075D01*
X97051Y89675D01*
X96518D01*
X97736Y13975D02*
X98536D01*
Y13575D01*
X98403Y13442D01*
X97870D01*
X97736Y13575D01*
Y13975D01*
X98536Y13175D02*
Y12908D01*
Y13042D01*
X97736D01*
X97870Y13175D01*
Y12508D02*
X97736Y12375D01*
Y12109D01*
X97870Y11975D01*
X98003D01*
X98136Y12109D01*
Y12242D01*
Y12109D01*
X98270Y11975D01*
X98403D01*
X98536Y12109D01*
Y12375D01*
X98403Y12508D01*
X122393Y199525D02*
Y198725D01*
X121993D01*
X121860Y198858D01*
Y199392D01*
X121993Y199525D01*
X122393D01*
X121593Y198725D02*
X121326D01*
X121460D01*
Y199525D01*
X121593Y199392D01*
X120393Y198725D02*
X120926D01*
X120393Y199258D01*
Y199392D01*
X120527Y199525D01*
X120793D01*
X120926Y199392D01*
X123629Y93448D02*
Y92648D01*
X123230D01*
X123096Y92781D01*
Y93315D01*
X123230Y93448D01*
X123629D01*
X122830Y92648D02*
X122563D01*
X122696D01*
Y93448D01*
X122830Y93315D01*
X122163Y92648D02*
X121897D01*
X122030D01*
Y93448D01*
X122163Y93315D01*
X122750Y18050D02*
Y17250D01*
X122350D01*
X122217Y17383D01*
Y17917D01*
X122350Y18050D01*
X122750D01*
X121950Y17250D02*
X121683D01*
X121817D01*
Y18050D01*
X121950Y17917D01*
X121283D02*
X121150Y18050D01*
X120884D01*
X120750Y17917D01*
Y17383D01*
X120884Y17250D01*
X121150D01*
X121283Y17383D01*
Y17917D01*
X101052Y107223D02*
Y108023D01*
X101451D01*
X101585Y107890D01*
Y107357D01*
X101451Y107223D01*
X101052D01*
X101851Y107890D02*
X101985Y108023D01*
X102251D01*
X102384Y107890D01*
Y107357D01*
X102251Y107223D01*
X101985D01*
X101851Y107357D01*
Y107490D01*
X101985Y107623D01*
X102384D01*
X98698Y117599D02*
X97898D01*
Y117999D01*
X98031Y118132D01*
X98565D01*
X98698Y117999D01*
Y117599D01*
X98565Y118399D02*
X98698Y118532D01*
Y118799D01*
X98565Y118932D01*
X98431D01*
X98298Y118799D01*
X98165Y118932D01*
X98031D01*
X97898Y118799D01*
Y118532D01*
X98031Y118399D01*
X98165D01*
X98298Y118532D01*
X98431Y118399D01*
X98565D01*
X98298Y118532D02*
Y118799D01*
X102291Y33750D02*
Y32950D01*
X101892D01*
X101758Y33083D01*
Y33617D01*
X101892Y33750D01*
X102291D01*
X101492D02*
X100959D01*
Y33617D01*
X101492Y33083D01*
Y32950D01*
X123559Y123925D02*
Y123125D01*
X123160D01*
X123026Y123258D01*
Y123792D01*
X123160Y123925D01*
X123559D01*
X122227D02*
X122493Y123792D01*
X122760Y123525D01*
Y123258D01*
X122626Y123125D01*
X122360D01*
X122227Y123258D01*
Y123392D01*
X122360Y123525D01*
X122760D01*
X107159Y140880D02*
Y140080D01*
X106759D01*
X106626Y140213D01*
Y140746D01*
X106759Y140880D01*
X107159D01*
X105826D02*
X106360D01*
Y140480D01*
X106093Y140613D01*
X105960D01*
X105826Y140480D01*
Y140213D01*
X105960Y140080D01*
X106226D01*
X106360Y140213D01*
X102691Y48000D02*
Y47200D01*
X102291D01*
X102157Y47333D01*
Y47867D01*
X102291Y48000D01*
X102691D01*
X101491Y47200D02*
Y48000D01*
X101891Y47600D01*
X101358D01*
X102466Y152125D02*
Y151325D01*
X102067D01*
X101933Y151458D01*
Y151992D01*
X102067Y152125D01*
X102466D01*
X101667Y151992D02*
X101533Y152125D01*
X101267D01*
X101134Y151992D01*
Y151858D01*
X101267Y151725D01*
X101400D01*
X101267D01*
X101134Y151592D01*
Y151458D01*
X101267Y151325D01*
X101533D01*
X101667Y151458D01*
X123511Y154113D02*
Y153313D01*
X123112D01*
X122978Y153446D01*
Y153980D01*
X123112Y154113D01*
X123511D01*
X122179Y153313D02*
X122712D01*
X122179Y153846D01*
Y153980D01*
X122312Y154113D01*
X122578D01*
X122712Y153980D01*
X123501Y47900D02*
Y47100D01*
X123101D01*
X122968Y47234D01*
Y47767D01*
X123101Y47900D01*
X123501D01*
X122701Y47100D02*
X122435D01*
X122568D01*
Y47900D01*
X122701Y47767D01*
X193280Y176032D02*
X193146Y175898D01*
X192880D01*
X192746Y176032D01*
Y176565D01*
X192880Y176698D01*
X193146D01*
X193280Y176565D01*
X193546Y176698D02*
X193813D01*
X193679D01*
Y175898D01*
X193546Y176032D01*
X194213Y176565D02*
X194346Y176698D01*
X194612D01*
X194746Y176565D01*
Y176032D01*
X194612Y175898D01*
X194346D01*
X194213Y176032D01*
Y176165D01*
X194346Y176298D01*
X194746D01*
X184412Y176204D02*
X184545Y176337D01*
X184811D01*
X184945Y176204D01*
Y175671D01*
X184811Y175537D01*
X184545D01*
X184412Y175671D01*
X184145Y175537D02*
X183878D01*
X184012D01*
Y176337D01*
X184145Y176204D01*
X183478D02*
X183345Y176337D01*
X183079D01*
X182945Y176204D01*
Y176070D01*
X183079Y175937D01*
X182945Y175804D01*
Y175671D01*
X183079Y175537D01*
X183345D01*
X183478Y175671D01*
Y175804D01*
X183345Y175937D01*
X183478Y176070D01*
Y176204D01*
X183345Y175937D02*
X183079D01*
X212179Y177064D02*
X212312Y177198D01*
X212579D01*
X212712Y177064D01*
Y176531D01*
X212579Y176398D01*
X212312D01*
X212179Y176531D01*
X211912Y176398D02*
X211646D01*
X211779D01*
Y177198D01*
X211912Y177064D01*
X211246Y177198D02*
X210713D01*
Y177064D01*
X211246Y176531D01*
Y176398D01*
X198259Y131118D02*
Y131307D01*
X198448Y131495D01*
X198636Y131495D01*
X199013Y131118D01*
Y130930D01*
X198825Y130741D01*
X198636Y130741D01*
X198542Y130459D02*
X198354Y130270D01*
X198448Y130364D01*
X197882Y130930D01*
X198071Y130930D01*
X197600Y130459D02*
X197411Y130459D01*
X197223Y130270D01*
Y130082D01*
X197600Y129705D01*
X197788Y129705D01*
X197977Y129893D01*
Y130082D01*
X197600Y130459D01*
X197324Y108983D02*
Y109171D01*
X197512Y109360D01*
X197701Y109360D01*
X198078Y108983D01*
Y108794D01*
X197889Y108606D01*
X197701Y108606D01*
X197135Y108794D02*
X196947Y108794D01*
X196758Y108606D01*
Y108417D01*
X196852Y108323D01*
X197041D01*
X197041Y108134D01*
X197135Y108040D01*
X197324Y108040D01*
X197512Y108229D01*
Y108417D01*
X197418Y108511D01*
X197230D01*
X197230Y108700D01*
X197135Y108794D01*
X197230Y108511D02*
X197041Y108323D01*
X205701Y105819D02*
X205889D01*
X206078Y105631D01*
X206078Y105442D01*
X205701Y105065D01*
X205512D01*
X205324Y105254D01*
X205324Y105442D01*
X205230Y106479D02*
X205324Y106196D01*
Y105819D01*
X205135Y105631D01*
X204947D01*
X204758Y105819D01*
X204758Y106008D01*
X204852Y106102D01*
X205041Y106102D01*
X205324Y105819D01*
D152*
X105043Y80275D02*
G03*
X105043Y80275I-125J0D01*
G01*
X108352Y129998D02*
G03*
X108352Y129998I-125J0D01*
G01*
X107980Y25825D02*
G03*
X107980Y25825I-125J0D01*
G01*
X108843Y176048D02*
G03*
X108843Y176048I-125J0D01*
G01*
X108397Y70975D02*
G03*
X108397Y70975I-125J0D01*
G01*
X187056Y141363D02*
G03*
X187056Y141363I-125J0D01*
G01*
X241095Y127550D02*
G03*
X241095Y127550I-125J0D01*
G01*
X221475Y88525D02*
G03*
X221475Y88525I-125J0D01*
G01*
X105043Y155569D02*
G03*
X105043Y155569I-125J0D01*
G01*
Y51321D02*
G03*
X105043Y51321I-125J0D01*
G01*
Y167130D02*
G03*
X105043Y167130I-125J0D01*
G01*
Y60719D02*
G03*
X105043Y60719I-125J0D01*
G01*
X119043Y166652D02*
G03*
X119043Y166652I-125J0D01*
G01*
Y62215D02*
G03*
X119043Y62215I-125J0D01*
G01*
X104793Y186475D02*
G03*
X104793Y186475I-125J0D01*
G01*
X105043Y3704D02*
G03*
X105043Y3704I-125J0D01*
G01*
Y196635D02*
G03*
X105043Y196635I-125J0D01*
G01*
Y89477D02*
G03*
X105043Y89477I-125J0D01*
G01*
Y12975D02*
G03*
X105043Y12975I-125J0D01*
G01*
X119043Y196451D02*
G03*
X119043Y196451I-125J0D01*
G01*
Y90691D02*
G03*
X119043Y90691I-125J0D01*
G01*
Y14897D02*
G03*
X119043Y14897I-125J0D01*
G01*
X105043Y109558D02*
G03*
X105043Y109558I-125J0D01*
G01*
X105041Y118302D02*
G03*
X105041Y118302I-125J0D01*
G01*
X105043Y35364D02*
G03*
X105043Y35364I-125J0D01*
G01*
X119043Y120698D02*
G03*
X119043Y120698I-125J0D01*
G01*
X105043Y140668D02*
G03*
X105043Y140668I-125J0D01*
G01*
Y45524D02*
G03*
X105043Y45524I-125J0D01*
G01*
Y149939D02*
G03*
X105043Y149939I-125J0D01*
G01*
X119043Y151427D02*
G03*
X119043Y151427I-125J0D01*
G01*
Y44946D02*
G03*
X119043Y44946I-125J0D01*
G01*
D153*
X133465Y144673D02*
G03*
X133465Y144793I18288J120D01*
G01*
X133465Y144673D02*
G03*
X133465Y144793I18288J120D01*
G01*
X242038Y20541D02*
G03*
X242038Y20421I-18288J-120D01*
G01*
X242038Y20541D02*
G03*
X242038Y20421I-18288J-120D01*
G01*
X151753Y117234D02*
Y125362D01*
X223750Y47980D02*
X223750Y39852D01*
D154*
X189803Y131087D02*
G03*
X189803Y131087I-76J0D01*
G01*
X112597Y163439D02*
X116839D01*
X112597Y158181D02*
X116839D01*
X112597Y53871D02*
X116839D01*
X112597Y59129D02*
X116839D01*
X112597Y193365D02*
X116839D01*
X112597Y188107D02*
X116839D01*
X112597Y87605D02*
X116839D01*
X112597Y82347D02*
X116839D01*
X112597Y6680D02*
X116839D01*
X112597Y11938D02*
X116839D01*
X112597Y117358D02*
X116839D01*
X112597Y112100D02*
X116839D01*
X112597Y148214D02*
X116839D01*
X112597Y142956D02*
X116839D01*
X112597Y41860D02*
X116839D01*
X112597Y36602D02*
X116839D01*
X187544Y130278D02*
X187888Y130622D01*
X192807Y125016D02*
X193150Y125359D01*
X187544Y120440D02*
X187888Y120097D01*
X182625Y125359D02*
X182969Y125703D01*
X187888Y130622D02*
X188231Y130278D01*
X192807Y125703D02*
X193150Y125359D01*
X187888Y120097D02*
X188231Y120440D01*
X182625Y125359D02*
X182969Y125016D01*
D155*
X240175Y130250D02*
G03*
X240175Y130250I-300J0D01*
G01*
D156*
X94150Y32852D02*
Y32997D01*
X92900Y32852D02*
Y32997D01*
X105048Y173350D02*
X105293D01*
X105048Y172100D02*
X105293D01*
X118550Y66925D02*
Y74225D01*
X114250Y66925D02*
Y74875D01*
X232175Y160100D02*
X232775D01*
Y160800D01*
Y160100D02*
X234075D01*
X232775Y159400D02*
Y160100D01*
X233482Y159393D02*
Y160807D01*
X232775Y160100D02*
X233482Y160807D01*
X232775Y160100D02*
X233482Y159393D01*
X229425Y158600D02*
Y161600D01*
Y158600D02*
X236825D01*
X229425Y161600D02*
X236825D01*
Y158600D02*
Y161600D01*
X232250Y163925D02*
X232850D01*
Y164625D01*
Y163925D02*
X234150D01*
X232850Y163225D02*
Y163925D01*
X233557Y163218D02*
Y164632D01*
X232850Y163925D02*
X233557Y164632D01*
X232850Y163925D02*
X233557Y163218D01*
X229500Y162425D02*
Y165425D01*
Y162425D02*
X236900D01*
X229500Y165425D02*
X236900D01*
Y162425D02*
Y165425D01*
X118600Y125484D02*
Y132784D01*
X114300Y125484D02*
Y133434D01*
X117600Y20900D02*
Y28200D01*
X113300Y20900D02*
Y28850D01*
X114050Y171660D02*
Y179610D01*
X118350Y171660D02*
Y178960D01*
X93125Y55125D02*
Y55270D01*
X94375Y55125D02*
Y55270D01*
X93768Y160760D02*
Y160905D01*
X92518Y160760D02*
Y160905D01*
X109250Y65925D02*
X109395D01*
X109250Y64675D02*
X109395D01*
X109695Y169850D02*
X109841D01*
X109695Y171100D02*
X109841D01*
X93125Y78327D02*
Y78473D01*
X94375Y78327D02*
Y78473D01*
X92600Y182677D02*
Y182823D01*
X93850Y182677D02*
Y182823D01*
X92464Y191255D02*
Y191400D01*
X93714Y191255D02*
Y191400D01*
X109102Y93425D02*
X109248D01*
X109102Y94675D02*
X109248D01*
X92850Y114402D02*
Y114548D01*
X91600Y114402D02*
Y114548D01*
X107877Y123574D02*
X108023D01*
X107877Y124824D02*
X108023D01*
X93193Y137552D02*
Y137698D01*
X94443Y137552D02*
Y137698D01*
X93065Y147777D02*
Y147923D01*
X94315Y147777D02*
Y147923D01*
X93134Y6283D02*
Y6429D01*
X91884Y6283D02*
Y6429D01*
X109027Y18900D02*
X109172D01*
X109027Y20150D02*
X109172D01*
X93075Y42702D02*
Y42848D01*
X94325Y42702D02*
Y42848D01*
X115793Y137175D02*
Y139375D01*
X113643Y137175D02*
Y139375D01*
X112493Y185925D02*
X114693D01*
X112493Y183775D02*
X114693D01*
X118075Y31000D02*
Y33200D01*
X115925Y31000D02*
Y33200D01*
X112366Y80575D02*
X114566D01*
X112366Y78425D02*
X114566D01*
X217950Y101175D02*
X220150D01*
X217950Y99025D02*
X220150D01*
X118865Y182793D02*
X121065D01*
X118865Y180643D02*
X121065D01*
X230430Y121425D02*
Y123625D01*
X232580Y121425D02*
Y123625D01*
X109168Y173285D02*
X111368D01*
X109168Y175435D02*
X111368D01*
X108327Y127404D02*
X110527D01*
X108327Y129554D02*
X110527D01*
X108305Y23200D02*
X110505D01*
X108305Y25350D02*
X110505D01*
X108722Y68200D02*
X110922D01*
X108722Y70350D02*
X110922D01*
X97025Y55873D02*
Y56473D01*
Y55873D02*
X97725D01*
X97025Y54573D02*
Y55873D01*
X96325D02*
X97025D01*
X96318Y55166D02*
X97732D01*
X97025Y55873D02*
X97732Y55166D01*
X96318D02*
X97025Y55873D01*
X95525Y59223D02*
X98525D01*
X95525Y51823D02*
Y59223D01*
X98525Y51823D02*
Y59223D01*
X95525Y51823D02*
X98525D01*
X96318Y161282D02*
Y161882D01*
Y161282D02*
X97018D01*
X96318Y159982D02*
Y161282D01*
X95618D02*
X96318D01*
X95611Y160575D02*
X97025D01*
X96318Y161282D02*
X97025Y160575D01*
X95611D02*
X96318Y161282D01*
X94818Y164632D02*
X97818D01*
X94818Y157232D02*
Y164632D01*
X97818Y157232D02*
Y164632D01*
X94818Y157232D02*
X97818D01*
X109643Y62600D02*
X110243D01*
X109643Y61900D02*
Y62600D01*
X108343D02*
X109643D01*
Y63300D01*
X108936Y61893D02*
Y63307D01*
Y61893D02*
X109643Y62600D01*
X108936Y63307D02*
X109643Y62600D01*
X112993Y61100D02*
Y64100D01*
X105593D02*
X112993D01*
X105593Y61100D02*
X112993D01*
X105593D02*
Y64100D01*
X109950Y167675D02*
X110550D01*
X109950Y166975D02*
Y167675D01*
X108650D02*
X109950D01*
Y168375D01*
X109243Y166968D02*
Y168382D01*
Y166968D02*
X109950Y167675D01*
X109243Y168382D02*
X109950Y167675D01*
X113300Y166175D02*
Y169175D01*
X105900D02*
X113300D01*
X105900Y166175D02*
X113300D01*
X105900D02*
Y169175D01*
X96700Y77450D02*
Y78050D01*
X96000D02*
X96700D01*
Y79350D01*
Y78050D02*
X97400D01*
X95993Y78757D02*
X97407D01*
X95993D02*
X96700Y78050D01*
X97407Y78757D01*
X95200Y74700D02*
X98200D01*
Y82100D01*
X95200Y74700D02*
Y82100D01*
X98200D01*
X96300Y181800D02*
Y182400D01*
X95600D02*
X96300D01*
Y183700D01*
Y182400D02*
X97000D01*
X95593Y183107D02*
X97007D01*
X95593D02*
X96300Y182400D01*
X97007Y183107D01*
X94800Y179050D02*
X97800D01*
Y186450D01*
X94800Y179050D02*
Y186450D01*
X97800D01*
X96188Y190305D02*
Y190905D01*
X95488D02*
X96188D01*
Y192205D01*
Y190905D02*
X96888D01*
X95481Y191612D02*
X96895D01*
X95481D02*
X96188Y190905D01*
X96895Y191612D01*
X94688Y187555D02*
X97688D01*
Y194955D01*
X94688Y187555D02*
Y194955D01*
X97688D01*
X105475Y89800D02*
Y92800D01*
Y89800D02*
X112875D01*
X105475Y92800D02*
X112875D01*
Y89800D02*
Y92800D01*
X108818Y92007D02*
X109525Y91300D01*
X108818Y90593D02*
X109525Y91300D01*
X108818Y90593D02*
Y92007D01*
X109525Y91300D02*
Y92000D01*
X108225Y91300D02*
X109525D01*
Y90600D02*
Y91300D01*
X110125D01*
X95743Y6356D02*
Y6956D01*
Y6356D02*
X96443D01*
X95743Y5056D02*
Y6356D01*
X95043D02*
X95743D01*
X95036Y5649D02*
X96450D01*
X95743Y6356D02*
X96450Y5649D01*
X95036D02*
X95743Y6356D01*
X94243Y9706D02*
X97243D01*
X94243Y2306D02*
Y9706D01*
X97243Y2306D02*
Y9706D01*
X94243Y2306D02*
X97243D01*
X95450Y114825D02*
Y115425D01*
Y114825D02*
X96150D01*
X95450Y113525D02*
Y114825D01*
X94750D02*
X95450D01*
X94743Y114118D02*
X96157D01*
X95450Y114825D02*
X96157Y114118D01*
X94743D02*
X95450Y114825D01*
X93950Y118175D02*
X96950D01*
X93950Y110775D02*
Y118175D01*
X96950Y110775D02*
Y118175D01*
X93950Y110775D02*
X96950D01*
X108399Y16432D02*
X108999D01*
X108399Y15732D02*
Y16432D01*
X107099D02*
X108399D01*
Y17132D01*
X107692Y15725D02*
Y17139D01*
Y15725D02*
X108399Y16432D01*
X107692Y17139D02*
X108399Y16432D01*
X111749Y14932D02*
Y17932D01*
X104349D02*
X111749D01*
X104349Y14932D02*
X111749D01*
X104349D02*
Y17932D01*
X108300Y121385D02*
X108900D01*
X108300Y120685D02*
Y121385D01*
X107000D02*
X108300D01*
Y122085D01*
X107593Y120678D02*
Y122092D01*
Y120678D02*
X108300Y121385D01*
X107593Y122092D02*
X108300Y121385D01*
X111650Y119885D02*
Y122885D01*
X104250D02*
X111650D01*
X104250Y119885D02*
X111650D01*
X104250D02*
Y122885D01*
X97100Y137025D02*
Y137625D01*
X96400D02*
X97100D01*
Y138925D01*
Y137625D02*
X97800D01*
X96393Y138332D02*
X97807D01*
X96393D02*
X97100Y137625D01*
X97807Y138332D01*
X95600Y134275D02*
X98600D01*
Y141675D01*
X95600Y134275D02*
Y141675D01*
X98600D01*
X169250Y6500D02*
Y7100D01*
Y6500D02*
X169950D01*
X169250Y5200D02*
Y6500D01*
X168550D02*
X169250D01*
X168543Y5793D02*
X169957D01*
X169250Y6500D02*
X169957Y5793D01*
X168543D02*
X169250Y6500D01*
X167750Y9850D02*
X170750D01*
X167750Y2450D02*
Y9850D01*
X170750Y2450D02*
Y9850D01*
X167750Y2450D02*
X170750D01*
X96850Y146900D02*
Y147500D01*
X96150D02*
X96850D01*
Y148800D01*
Y147500D02*
X97550D01*
X96143Y148207D02*
X97557D01*
X96143D02*
X96850Y147500D01*
X97557Y148207D01*
X95350Y144150D02*
X98350D01*
Y151550D01*
X95350Y144150D02*
Y151550D01*
X98350D01*
X96775Y32075D02*
Y32675D01*
X96075D02*
X96775D01*
Y33975D01*
Y32675D02*
X97475D01*
X96068Y33382D02*
X97482D01*
X96068D02*
X96775Y32675D01*
X97482Y33382D01*
X95275Y29325D02*
X98275D01*
Y36725D01*
X95275Y29325D02*
Y36725D01*
X98275D01*
X97025Y41825D02*
Y42425D01*
X96325D02*
X97025D01*
Y43725D01*
Y42425D02*
X97725D01*
X96318Y43132D02*
X97732D01*
X96318D02*
X97025Y42425D01*
X97732Y43132D01*
X95525Y39075D02*
X98525D01*
Y46475D01*
X95525Y39075D02*
Y46475D01*
X98525D01*
X237650Y148175D02*
Y151375D01*
X232750D02*
X237650D01*
X232750Y148175D02*
Y151375D01*
Y148175D02*
X237650D01*
X237780Y146300D02*
Y147825D01*
X109652Y138150D02*
X109898D01*
X109652Y139400D02*
X109898D01*
X114097Y32275D02*
X114342D01*
X114097Y33525D02*
X114342D01*
X109752Y78875D02*
X109998D01*
X109752Y80125D02*
X109998D01*
X110328Y184225D02*
X110573D01*
X110328Y185475D02*
X110573D01*
X112293Y32153D02*
Y32398D01*
X111043Y32153D02*
Y32398D01*
X112972Y136097D02*
Y136342D01*
X111722Y136097D02*
Y136342D01*
X234327Y122777D02*
Y122923D01*
X235577Y122777D02*
Y122923D01*
X240302Y149150D02*
X240548D01*
X240302Y150400D02*
X240548D01*
X234442Y156589D02*
X234688D01*
X234442Y155339D02*
X234688D01*
X240900Y145124D02*
X241145D01*
X240900Y143874D02*
X241145D01*
X127768Y119498D02*
Y121898D01*
X132518D01*
Y119498D02*
Y121898D01*
X127768Y119498D02*
X132518D01*
X130750Y43500D02*
Y48250D01*
Y43500D02*
X133150D01*
Y48250D01*
X130750D02*
X133150D01*
X48257Y57330D02*
Y62080D01*
X45857D02*
X48257D01*
X45857Y57330D02*
Y62080D01*
Y57330D02*
X48257D01*
X48300Y162175D02*
Y166925D01*
X45900D02*
X48300D01*
X45900Y162175D02*
Y166925D01*
Y162175D02*
X48300D01*
X60600Y53850D02*
Y58600D01*
Y53850D02*
X63000D01*
Y58600D01*
X60600D02*
X63000D01*
X60525Y158850D02*
Y163600D01*
Y158850D02*
X62925D01*
Y163600D01*
X60525D02*
X62925D01*
X45825Y189850D02*
X48225D01*
X45825D02*
Y194600D01*
X48225D01*
Y189850D02*
Y194600D01*
X48250Y84700D02*
Y89450D01*
X45850D02*
X48250D01*
X45850Y84700D02*
Y89450D01*
Y84700D02*
X48250D01*
X60375Y190815D02*
X62775D01*
Y186065D02*
Y190815D01*
X60375Y186065D02*
X62775D01*
X60375D02*
Y190815D01*
X60400Y81100D02*
Y85850D01*
Y81100D02*
X62800D01*
Y85850D01*
X60400D02*
X62800D01*
X45873Y117130D02*
X48273D01*
X45873D02*
Y121880D01*
X48273D01*
Y117130D02*
Y121880D01*
X60600Y113775D02*
Y118525D01*
Y113775D02*
X63000D01*
Y118525D01*
X60600D02*
X63000D01*
X48175Y12275D02*
Y17025D01*
X45775D02*
X48175D01*
X45775Y12275D02*
Y17025D01*
Y12275D02*
X48175D01*
X61100Y8814D02*
Y13564D01*
Y8814D02*
X63500D01*
Y13564D01*
X61100D02*
X63500D01*
X48225Y39750D02*
Y44500D01*
X45825D02*
X48225D01*
X45825Y39750D02*
Y44500D01*
Y39750D02*
X48225D01*
X60825Y36325D02*
Y41075D01*
Y36325D02*
X63225D01*
Y41075D01*
X60825D02*
X63225D01*
X207675Y36450D02*
Y44975D01*
X203575Y36450D02*
X207675D01*
X203625Y44975D02*
X207675D01*
X203575Y36450D02*
Y44975D01*
X118472Y120048D02*
Y122448D01*
X113722Y120048D02*
X118472D01*
X113722D02*
Y122448D01*
X118472D01*
X113747Y168875D02*
X118497D01*
X113747Y166475D02*
Y168875D01*
Y166475D02*
X118497D01*
Y168875D01*
X120670Y162150D02*
X125420D01*
Y164550D01*
X120670D02*
X125420D01*
X120670Y162150D02*
Y164550D01*
X113825Y63800D02*
X118575D01*
X113825Y61400D02*
Y63800D01*
Y61400D02*
X118575D01*
Y63800D01*
X120643Y57875D02*
X125393D01*
Y60275D01*
X120643D02*
X125393D01*
X120643Y57875D02*
Y60275D01*
X48275Y144830D02*
Y149580D01*
X45875D02*
X48275D01*
X45875Y144830D02*
Y149580D01*
Y144830D02*
X48275D01*
X113843Y194436D02*
Y199186D01*
Y194436D02*
X116243D01*
Y199186D01*
X113843D02*
X116243D01*
X121393Y191975D02*
X126143D01*
Y194375D01*
X121393D02*
X126143D01*
X121393Y191975D02*
Y194375D01*
X118472Y89491D02*
Y91891D01*
X113722Y89491D02*
X118472D01*
X113722D02*
Y91891D01*
X118472D01*
X121493Y86204D02*
X126243D01*
Y88604D01*
X121493D02*
X126243D01*
X121493Y86204D02*
Y88604D01*
X118475Y15375D02*
Y17775D01*
X113725Y15375D02*
X118475D01*
X113725D02*
Y17775D01*
X118475D01*
X120261Y115865D02*
X125011D01*
Y118265D01*
X120261D02*
X125011D01*
X120261Y115865D02*
Y118265D01*
X124618Y10523D02*
X129368D01*
Y12923D01*
X124618D02*
X129368D01*
X124618Y10523D02*
Y12923D01*
X113823Y154089D02*
X116223D01*
Y149339D02*
Y154089D01*
X113823Y149339D02*
X116223D01*
X113823D02*
Y154089D01*
X118100Y47200D02*
Y49600D01*
X113350Y47200D02*
X118100D01*
X113350D02*
Y49600D01*
X118100D01*
X121409Y147085D02*
Y149485D01*
X126159D01*
Y147085D02*
Y149485D01*
X121409Y147085D02*
X126159D01*
X121318Y40579D02*
Y42979D01*
X126068D01*
Y40579D02*
Y42979D01*
X121318Y40579D02*
X126068D01*
X60013Y145675D02*
X62413D01*
Y140925D02*
Y145675D01*
X60013Y140925D02*
X62413D01*
X60013D02*
Y145675D01*
X123768Y54776D02*
Y54922D01*
X125018Y54776D02*
Y54922D01*
X120399Y143886D02*
Y144032D01*
X121649Y143886D02*
Y144032D01*
X100843Y79475D02*
X102593D01*
X100843Y81075D02*
X102593D01*
X109077Y130273D02*
X109777D01*
X109077Y133373D02*
X109777D01*
X109077Y130273D02*
Y133373D01*
X109777Y130273D02*
Y133373D01*
X108705Y26100D02*
X109405D01*
X108705Y29200D02*
X109405D01*
X108705Y26100D02*
Y29200D01*
X109405Y26100D02*
Y29200D01*
X110268Y176323D02*
Y179423D01*
X109568Y176323D02*
Y179423D01*
X110268D01*
X109568Y176323D02*
X110268D01*
X109822Y71250D02*
Y74350D01*
X109122Y71250D02*
Y74350D01*
X109822D01*
X109122Y71250D02*
X109822D01*
X113471Y182468D02*
X113716D01*
X113471Y183718D02*
X113716D01*
X110295Y182468D02*
X110541D01*
X110295Y183718D02*
X110541D01*
X109750Y77197D02*
X109995D01*
X109750Y78447D02*
X109995D01*
X103593Y178025D02*
Y178270D01*
X104843Y178025D02*
Y178270D01*
X103272Y72677D02*
Y72923D01*
X104522Y72677D02*
Y72923D01*
X109656Y136395D02*
X109901D01*
X109656Y137645D02*
X109901D01*
X103146Y131902D02*
Y132148D01*
X104396Y131902D02*
Y132148D01*
X109282Y32275D02*
X109527D01*
X109282Y33525D02*
X109527D01*
X103093Y27527D02*
Y27773D01*
X104343Y27527D02*
Y27773D01*
X109318Y182068D02*
X111518D01*
X109318Y179918D02*
X111518D01*
X105343Y177048D02*
Y179248D01*
X107493Y177048D02*
Y179248D01*
X108722Y76847D02*
X110922D01*
X108722Y74697D02*
X110922D01*
X107147Y71700D02*
Y73900D01*
X104997Y71700D02*
Y73900D01*
X108678Y135944D02*
X110878D01*
X108678Y133794D02*
X110878D01*
X104777Y130925D02*
Y133125D01*
X106927Y130925D02*
Y133125D01*
X108305Y31906D02*
X110505D01*
X108305Y29756D02*
X110505D01*
X104717Y26550D02*
Y28750D01*
X106867Y26550D02*
Y28750D01*
X190891Y105075D02*
X193091D01*
X190891Y102925D02*
X193091D01*
X206443Y113076D02*
X208643D01*
X206443Y115226D02*
X208643D01*
X210900Y78186D02*
Y80386D01*
X213050Y78186D02*
Y80386D01*
X229925Y143677D02*
Y143923D01*
X231175Y143677D02*
Y143923D01*
X238275Y151387D02*
Y153587D01*
X240425Y151387D02*
Y153587D01*
X162700Y178359D02*
X164900D01*
X162700Y180509D02*
X164900D01*
X162700Y175946D02*
X164900D01*
X162700Y178096D02*
X164900D01*
X103518Y70850D02*
X105718D01*
X103518Y68700D02*
X105718D01*
X103750Y173910D02*
X105950D01*
X103750Y176060D02*
X105950D01*
X103421Y130054D02*
X105621D01*
X103421Y127904D02*
X105621D01*
X103310Y23300D02*
X105510D01*
X103310Y25450D02*
X105510D01*
X184615Y137916D02*
X185852Y139153D01*
X183484Y139047D02*
X184721Y140284D01*
X230375Y129250D02*
X240875D01*
X230375Y135100D02*
X240875D01*
Y129250D02*
Y135100D01*
X230375Y129250D02*
Y135100D01*
X220325Y81875D02*
Y88575D01*
X216225Y81875D02*
Y88575D01*
X220325D01*
X216225Y81875D02*
X220325D01*
X194489Y169227D02*
Y169373D01*
X193239Y169227D02*
Y169373D01*
X183320Y169211D02*
Y169357D01*
X184570Y169211D02*
Y169357D01*
X211116Y169277D02*
Y169423D01*
X212366Y169277D02*
Y169423D01*
X212380Y190603D02*
Y190848D01*
X211130Y190603D02*
Y190848D01*
X208590Y190480D02*
Y190725D01*
X209840Y190480D02*
Y190725D01*
X206050Y190357D02*
Y190603D01*
X207300Y190357D02*
Y190603D01*
X104753Y68075D02*
X104998D01*
X104753Y66825D02*
X104998D01*
X101045Y172179D02*
X101291D01*
X101045Y173429D02*
X101291D01*
X100920Y66725D02*
X101166D01*
X100920Y67975D02*
X101166D01*
X100645Y158246D02*
X100791D01*
X100645Y159496D02*
X100791D01*
X100645Y55121D02*
X100791D01*
X100645Y53871D02*
X100791D01*
X106645Y158246D02*
X106791D01*
X106645Y159496D02*
X106791D01*
X106645Y53998D02*
X106791D01*
X106645Y55248D02*
X106791D01*
X168172Y184524D02*
X168317D01*
X168172Y185774D02*
X168317D01*
X147852Y184524D02*
X147997D01*
X147852Y185774D02*
X147997D01*
X163854Y184524D02*
X163999D01*
X163854Y185774D02*
X163999D01*
X143534Y184524D02*
X143679D01*
X143534Y185774D02*
X143679D01*
X166350Y190665D02*
Y190810D01*
X167600Y190665D02*
Y190810D01*
X146030Y190538D02*
Y190683D01*
X147280Y190538D02*
Y190683D01*
X170648Y175425D02*
Y175570D01*
X169398Y175425D02*
Y175570D01*
X149857Y175407D02*
Y175553D01*
X151107Y175407D02*
Y175553D01*
X178205Y184524D02*
X178350D01*
X178205Y185774D02*
X178350D01*
X157885Y184524D02*
X158030D01*
X157885Y185774D02*
X158030D01*
X170648Y168777D02*
Y168923D01*
X169398Y168777D02*
Y168923D01*
X149789Y168675D02*
Y168820D01*
X151039Y168675D02*
Y168820D01*
X174407Y168850D02*
Y168996D01*
X173157Y168850D02*
Y168996D01*
X153599Y168675D02*
Y168820D01*
X154849Y168675D02*
Y168820D01*
X173887Y184524D02*
X174032D01*
X173887Y185774D02*
X174032D01*
X153567Y184524D02*
X153712D01*
X153567Y185774D02*
X153712D01*
X174605Y190665D02*
Y190810D01*
X175855Y190665D02*
Y190810D01*
X154285Y190573D02*
Y190718D01*
X155535Y190573D02*
Y190718D01*
X167156Y180186D02*
X167301D01*
X167156Y178936D02*
X167301D01*
X160552Y179932D02*
X160697D01*
X160552Y178682D02*
X160697D01*
X122221Y159086D02*
Y159232D01*
X120971Y159086D02*
Y159232D01*
X125221Y159086D02*
Y159232D01*
X123971Y159086D02*
Y159232D01*
X121918Y54776D02*
Y54922D01*
X120668Y54776D02*
Y54922D01*
X106068Y161761D02*
X106518D01*
X106068Y163111D02*
X106518D01*
X106493Y57965D02*
X106943D01*
X106493Y56615D02*
X106943D01*
X99512Y165157D02*
X101924D01*
X99512Y163007D02*
X101924D01*
X99512Y58111D02*
X101924D01*
X99512Y55961D02*
X101924D01*
X113342Y77159D02*
X113587D01*
X113342Y78409D02*
X113587D01*
X211077Y132774D02*
X211323D01*
X211077Y134024D02*
X211323D01*
X100643Y190081D02*
X100789D01*
X100643Y188831D02*
X100789D01*
X100645Y83744D02*
X100791D01*
X100645Y82494D02*
X100791D01*
X211077Y131484D02*
X211323D01*
X211077Y130234D02*
X211323D01*
X191845Y102050D02*
X191991D01*
X191845Y100800D02*
X191991D01*
X207695Y116250D02*
X207841D01*
X207695Y117500D02*
X207841D01*
X191840Y98050D02*
X191986D01*
X191840Y99300D02*
X191986D01*
X203170Y116250D02*
X203316D01*
X203170Y117500D02*
X203316D01*
X106645Y189456D02*
X106791D01*
X106645Y188206D02*
X106791D01*
X106645Y83590D02*
X106791D01*
X106645Y82340D02*
X106791D01*
X121143Y188877D02*
Y189023D01*
X122393Y188877D02*
Y189023D01*
X125393Y188877D02*
Y189023D01*
X124143Y188877D02*
Y189023D01*
X100645Y7885D02*
X100791D01*
X100645Y6635D02*
X100791D01*
X121225Y83177D02*
Y83323D01*
X122475Y83177D02*
Y83323D01*
X125475Y83177D02*
Y83323D01*
X124225Y83177D02*
Y83323D01*
X106645Y6635D02*
X106791D01*
X106645Y7885D02*
X106791D01*
X106493Y193881D02*
X106943D01*
X106493Y192531D02*
X106943D01*
X106493Y86247D02*
X106943D01*
X106493Y87597D02*
X106943D01*
X99512Y194281D02*
X101924D01*
X99512Y192131D02*
X101924D01*
X99512Y87997D02*
X101924D01*
X99512Y85847D02*
X101924D01*
X122011Y7332D02*
Y7477D01*
X120761Y7332D02*
Y7477D01*
X227352Y186000D02*
X227498D01*
X227352Y184750D02*
X227498D01*
X227352Y188750D02*
X227498D01*
X227352Y187500D02*
X227498D01*
X125118Y113005D02*
Y113150D01*
X123868Y113005D02*
Y113150D01*
X104669Y127335D02*
X104914D01*
X104669Y126085D02*
X104914D01*
X104645Y22725D02*
X104891D01*
X104645Y21475D02*
X104891D01*
X106493Y11110D02*
X106943D01*
X106493Y9760D02*
X106943D01*
X100994Y126165D02*
X101239D01*
X100994Y127415D02*
X101239D01*
X99512Y8725D02*
X101924D01*
X99512Y10875D02*
X101924D01*
X100971Y21361D02*
X101216D01*
X100971Y22611D02*
X101216D01*
X100645Y39545D02*
X100791D01*
X100645Y38295D02*
X100791D01*
X100645Y112235D02*
X100791D01*
X100645Y113485D02*
X100791D01*
X106645Y113612D02*
X106791D01*
X106645Y112362D02*
X106791D01*
X106645Y36272D02*
X106791D01*
X106645Y37522D02*
X106791D01*
X120943Y113005D02*
Y113150D01*
X122193Y113005D02*
Y113150D01*
X125073Y7332D02*
Y7477D01*
X123823Y7332D02*
Y7477D01*
X223985Y189227D02*
Y189373D01*
X222735Y189227D02*
Y189373D01*
X106493Y114725D02*
X106943D01*
X106493Y116075D02*
X106943D01*
X221445Y189227D02*
Y189373D01*
X220195Y189227D02*
Y189373D01*
X99512Y116475D02*
X101924D01*
X99512Y114325D02*
X101924D01*
X121024Y37350D02*
Y37495D01*
X122274Y37350D02*
Y37495D01*
X124482Y143886D02*
Y144032D01*
X123232Y143886D02*
Y144032D01*
X100645Y143218D02*
X100791D01*
X100645Y144468D02*
X100791D01*
X106645D02*
X106791D01*
X106645Y143218D02*
X106791D01*
X106493Y41407D02*
X106943D01*
X106493Y42757D02*
X106943D01*
X125318Y37350D02*
Y37495D01*
X124068Y37350D02*
Y37495D01*
X99512Y43043D02*
X101924D01*
X99512Y40893D02*
X101924D01*
X198003Y134834D02*
X198105Y134732D01*
X198886Y135718D02*
X198989Y135616D01*
X231175Y148052D02*
Y148298D01*
X229925Y148052D02*
Y148298D01*
X240900Y141226D02*
X241145D01*
X240900Y142476D02*
X241145D01*
X106493Y146216D02*
X106943D01*
X106493Y147566D02*
X106943D01*
X99512Y147585D02*
X101924D01*
X99512Y145435D02*
X101924D01*
X236905Y122777D02*
Y122923D01*
X238155Y122777D02*
Y122923D01*
X232375Y186277D02*
Y186423D01*
X233625Y186277D02*
Y186423D01*
X236717Y168177D02*
Y168323D01*
X235467Y168177D02*
Y168323D01*
X181659Y135381D02*
X181761Y135484D01*
X180775Y136265D02*
X180877Y136367D01*
X100843Y154769D02*
X102593D01*
X100843Y156369D02*
X102593D01*
X100843Y52121D02*
X102593D01*
X100843Y50521D02*
X102593D01*
X100843Y166330D02*
X102593D01*
X100843Y167930D02*
X102593D01*
X100843Y61519D02*
X102593D01*
X100843Y59919D02*
X102593D01*
X120418Y165192D02*
Y165427D01*
Y167877D02*
Y168112D01*
X125018D01*
Y165192D02*
Y165427D01*
Y167877D02*
Y168112D01*
X120418Y165192D02*
X125018D01*
X120418Y60755D02*
X125018D01*
Y63440D02*
Y63675D01*
Y60755D02*
Y60990D01*
X120418Y63675D02*
X125018D01*
X120418Y63440D02*
Y63675D01*
Y60755D02*
Y60990D01*
X100593Y187275D02*
X102343D01*
X100593Y185675D02*
X102343D01*
X100843Y2904D02*
X102593D01*
X100843Y4504D02*
X102593D01*
X100843Y195835D02*
X102593D01*
X100843Y197435D02*
X102593D01*
X100843Y88677D02*
X102593D01*
X100843Y90277D02*
X102593D01*
X100843Y13775D02*
X102593D01*
X100843Y12175D02*
X102593D01*
X120418Y194991D02*
Y195226D01*
Y197676D02*
Y197911D01*
X125018D01*
Y194991D02*
Y195226D01*
Y197676D02*
Y197911D01*
X120418Y194991D02*
X125018D01*
X120418Y89231D02*
Y89466D01*
Y91916D02*
Y92151D01*
X125018D01*
Y89231D02*
Y89466D01*
Y91916D02*
Y92151D01*
X120418Y89231D02*
X125018D01*
X120418Y13437D02*
Y13672D01*
Y16122D02*
Y16357D01*
X125018D01*
Y13437D02*
Y13672D01*
Y16122D02*
Y16357D01*
X120418Y13437D02*
X125018D01*
X100843Y108758D02*
X102593D01*
X100843Y110358D02*
X102593D01*
X100841Y117502D02*
X102591D01*
X100841Y119102D02*
X102591D01*
X100843Y36164D02*
X102593D01*
X100843Y34564D02*
X102593D01*
X120418Y119238D02*
X125018D01*
Y121923D02*
Y122158D01*
Y119238D02*
Y119473D01*
X120418Y122158D02*
X125018D01*
X120418Y121923D02*
Y122158D01*
Y119238D02*
Y119473D01*
X100843Y139868D02*
X102593D01*
X100843Y141468D02*
X102593D01*
X100843Y44724D02*
X102593D01*
X100843Y46324D02*
X102593D01*
X100843Y149139D02*
X102593D01*
X100843Y150739D02*
X102593D01*
X120418Y149967D02*
Y150202D01*
Y152652D02*
Y152887D01*
X125018D01*
Y149967D02*
Y150202D01*
Y152652D02*
Y152887D01*
X120418Y149967D02*
X125018D01*
X120418Y43486D02*
Y43721D01*
Y46171D02*
Y46406D01*
X125018D01*
Y43486D02*
Y43721D01*
Y46171D02*
Y46406D01*
X120418Y43486D02*
X125018D01*
X192695Y171978D02*
Y175284D01*
X195051Y171978D02*
Y175284D01*
X182767Y171744D02*
Y175050D01*
X185123Y171744D02*
Y175050D01*
X210534Y171947D02*
Y175253D01*
X212891Y171947D02*
Y175253D01*
X196887Y134517D02*
X198443Y132962D01*
X195367Y132997D02*
X196923Y131441D01*
X198161Y110482D02*
X199717Y112038D01*
X199681Y108962D02*
X201237Y110518D01*
X200863Y103671D02*
X206467Y109275D01*
X198265Y107154D02*
X203426Y112315D01*
X107368Y135869D02*
X108035D01*
X108168Y135736D01*
Y135469D01*
X108035Y135336D01*
X107368D01*
X108168Y135069D02*
Y134803D01*
Y134936D01*
X107368D01*
X107502Y135069D01*
X107368Y134403D02*
Y133870D01*
X107502D01*
X108035Y134403D01*
X108168D01*
D157*
X191745Y70269D02*
Y79794D01*
X183109Y79921D02*
X191745D01*
Y80048D02*
Y89700D01*
D158*
X162756Y170441D02*
Y173441D01*
X158506Y170441D02*
X163506D01*
X158506Y173441D02*
X163506D01*
Y170441D02*
Y173441D01*
X158506Y170441D02*
Y173441D01*
D159*
X117803Y163812D02*
X117270Y163279D01*
X117803D02*
X117270Y163812D01*
X117803Y163546D02*
X117270D01*
X117537Y163279D02*
Y163812D01*
X117803Y59502D02*
X117270Y58969D01*
X117803D02*
X117270Y59502D01*
X117803Y59236D02*
X117270D01*
X117537Y58969D02*
Y59502D01*
X117803Y193738D02*
X117270Y193205D01*
X117803D02*
X117270Y193738D01*
X117803Y193472D02*
X117270D01*
X117537Y193205D02*
Y193738D01*
X117803Y87978D02*
X117270Y87445D01*
X117803D02*
X117270Y87978D01*
X117803Y87712D02*
X117270D01*
X117537Y87445D02*
Y87978D01*
X117803Y12312D02*
X117270Y11778D01*
X117803D02*
X117270Y12312D01*
X117803Y12045D02*
X117270D01*
X117537Y11778D02*
Y12312D01*
X117803Y117731D02*
X117270Y117198D01*
X117803D02*
X117270Y117731D01*
X117803Y117465D02*
X117270D01*
X117537Y117198D02*
Y117731D01*
X117803Y148587D02*
X117270Y148054D01*
X117803D02*
X117270Y148587D01*
X117803Y148321D02*
X117270D01*
X117537Y148054D02*
Y148587D01*
X117803Y42233D02*
X117270Y41700D01*
X117803D02*
X117270Y42233D01*
X117803Y41967D02*
X117270D01*
X117537Y41700D02*
Y42233D01*
D160*
X11312Y147853D02*
X10812Y148352D01*
X9812D01*
X9312Y147853D01*
Y147353D01*
X9812Y146853D01*
X10312D01*
X9812D01*
X9312Y146353D01*
Y145853D01*
X9812Y145353D01*
X10812D01*
X11312Y145853D01*
X9937Y84353D02*
X11937D01*
X9937Y86353D01*
Y86853D01*
X10437Y87352D01*
X11437D01*
X11937Y86853D01*
X12937Y38603D02*
X11937D01*
X12437D01*
Y41602D01*
X12937Y41103D01*
X12262Y188078D02*
Y191077D01*
X13762Y189578D01*
X11762D01*
%TF.MD5,37bf90a212abc8e2af0f37e9fd08fcf8*%
M02*
