%TF.GenerationSoftware,Altium Limited,Altium Designer,21.6.4 (81)*%
G04 Layer_Color=8388736*
%FSLAX43Y43*%
%MOMM*%
%TF.SameCoordinates,B094594F-E5AE-4C03-B854-EF891E02AD71*%
%TF.FilePolarity,Positive*%
%TF.FileFunction,Other,Bottom_Component_Center*%
%TF.Part,Single*%
G01*
G75*
%TA.AperFunction,NonConductor*%
%ADD207C,0.100*%
D207*
X93525Y32424D02*
Y33424D01*
X93025Y32924D02*
X94025D01*
X93750Y54698D02*
Y55698D01*
X93250Y55198D02*
X94250D01*
X92643Y160833D02*
X93643D01*
X93143Y160333D02*
Y161333D01*
X108822Y65300D02*
X109822D01*
X109322Y64800D02*
Y65800D01*
X109768Y169975D02*
Y170975D01*
X109268Y170475D02*
X110268D01*
X93250Y78400D02*
X94250D01*
X93750Y77900D02*
Y78900D01*
X92725Y182750D02*
X93725D01*
X93225Y182250D02*
Y183250D01*
X92589Y191328D02*
X93589D01*
X93089Y190828D02*
Y191828D01*
X109175Y93550D02*
Y94550D01*
X108675Y94050D02*
X109675D01*
X91725Y114475D02*
X92725D01*
X92225Y113975D02*
Y114975D01*
X107950Y123699D02*
Y124699D01*
X107450Y124199D02*
X108450D01*
X93318Y137625D02*
X94318D01*
X93818Y137125D02*
Y138125D01*
X93190Y147850D02*
X94190D01*
X93690Y147350D02*
Y148350D01*
X92009Y6356D02*
X93009D01*
X92509Y5856D02*
Y6856D01*
X109099Y19025D02*
Y20025D01*
X108599Y19525D02*
X109599D01*
X93200Y42775D02*
X94200D01*
X93700Y42275D02*
Y43275D01*
X114218Y138275D02*
X115218D01*
X114718Y137775D02*
Y138775D01*
X113593Y184350D02*
Y185350D01*
X113093Y184850D02*
X114093D01*
X116500Y32100D02*
X117500D01*
X117000Y31600D02*
Y32600D01*
X113466Y79000D02*
Y80000D01*
X112966Y79500D02*
X113966D01*
X219050Y99600D02*
Y100600D01*
X218550Y100100D02*
X219550D01*
X119965Y181218D02*
Y182218D01*
X119465Y181718D02*
X120465D01*
X231505Y122025D02*
Y123025D01*
X231005Y122525D02*
X232005D01*
X110268Y173860D02*
Y174860D01*
X109768Y174360D02*
X110768D01*
X109427Y127979D02*
Y128979D01*
X108927Y128479D02*
X109927D01*
X109405Y23775D02*
Y24775D01*
X108905Y24275D02*
X109905D01*
X109822Y68775D02*
Y69775D01*
X109322Y69275D02*
X110322D01*
X123893Y54849D02*
X124893D01*
X124393Y54349D02*
Y55349D01*
X120524Y143959D02*
X121524D01*
X121024Y143459D02*
Y144459D01*
X101718Y79775D02*
Y80775D01*
X101218Y80275D02*
X102218D01*
X109918Y180993D02*
X110918D01*
X110418Y180493D02*
Y181493D01*
X106418Y177648D02*
Y178648D01*
X105918Y178148D02*
X106918D01*
X109322Y75772D02*
X110322D01*
X109822Y75272D02*
Y76272D01*
X105572Y72800D02*
X106572D01*
X106072Y72300D02*
Y73300D01*
X109278Y134869D02*
X110278D01*
X109778Y134369D02*
Y135369D01*
X105852Y131525D02*
Y132525D01*
X105352Y132025D02*
X106352D01*
X108905Y30831D02*
X109905D01*
X109405Y30331D02*
Y31331D01*
X105792Y27150D02*
Y28150D01*
X105292Y27650D02*
X106292D01*
X191991Y103500D02*
Y104500D01*
X191491Y104000D02*
X192491D01*
X207543Y113651D02*
Y114651D01*
X207043Y114151D02*
X208043D01*
X211475Y79286D02*
X212475D01*
X211975Y78786D02*
Y79786D01*
X239350Y151987D02*
Y152987D01*
X238850Y152487D02*
X239850D01*
X163300Y179434D02*
X164300D01*
X163800Y178934D02*
Y179934D01*
X163300Y177021D02*
X164300D01*
X163800Y176521D02*
Y177521D01*
X104618Y69275D02*
Y70275D01*
X104118Y69775D02*
X105118D01*
X104350Y174985D02*
X105350D01*
X104850Y174485D02*
Y175485D01*
X104521Y128479D02*
Y129479D01*
X104021Y128979D02*
X105021D01*
X103910Y24375D02*
X104910D01*
X104410Y23875D02*
Y24875D01*
X184314Y139454D02*
X185022Y138746D01*
X184314D02*
X185022Y139454D01*
X193364Y169300D02*
X194364D01*
X193864Y168800D02*
Y169800D01*
X183945Y168784D02*
Y169784D01*
X183445Y169284D02*
X184445D01*
X211741Y168850D02*
Y169850D01*
X211241Y169350D02*
X212241D01*
X166975Y190237D02*
Y191237D01*
X166475Y190737D02*
X167475D01*
X173960Y184649D02*
Y185649D01*
X173460Y185149D02*
X174460D01*
X121596Y158659D02*
Y159659D01*
X121096Y159159D02*
X122096D01*
X124596Y158659D02*
Y159659D01*
X124096Y159159D02*
X125096D01*
X121293Y54349D02*
Y55349D01*
X120793Y54849D02*
X121793D01*
X106293Y161936D02*
Y162936D01*
X105793Y162436D02*
X106793D01*
X106218Y57290D02*
X107218D01*
X106718Y56790D02*
Y57790D01*
X100718Y163582D02*
Y164582D01*
X100218Y164082D02*
X101218D01*
X100718Y56536D02*
Y57536D01*
X100218Y57036D02*
X101218D01*
X100718Y82619D02*
Y83619D01*
X100218Y83119D02*
X101218D01*
X121268Y188950D02*
X122268D01*
X121768Y188450D02*
Y189450D01*
X124768Y188450D02*
Y189450D01*
X124268Y188950D02*
X125268D01*
X121350Y83250D02*
X122350D01*
X121850Y82750D02*
Y83750D01*
X124850Y82750D02*
Y83750D01*
X124350Y83250D02*
X125350D01*
X106218Y193206D02*
X107218D01*
X106718Y192706D02*
Y193706D01*
Y86422D02*
Y87422D01*
X106218Y86922D02*
X107218D01*
X100718Y192706D02*
Y193706D01*
X100218Y193206D02*
X101218D01*
X100718Y86422D02*
Y87422D01*
X100218Y86922D02*
X101218D01*
X121386Y6904D02*
Y7904D01*
X120886Y7404D02*
X121886D01*
X124493Y112578D02*
Y113578D01*
X123993Y113078D02*
X124993D01*
X106218Y10435D02*
X107218D01*
X106718Y9935D02*
Y10935D01*
X100218Y9800D02*
X101218D01*
X100718Y9300D02*
Y10300D01*
Y38420D02*
Y39420D01*
X100218Y38920D02*
X101218D01*
X121068Y113078D02*
X122068D01*
X121568Y112578D02*
Y113578D01*
X124448Y6904D02*
Y7904D01*
X123948Y7404D02*
X124948D01*
X106718Y114900D02*
Y115900D01*
X106218Y115400D02*
X107218D01*
X100718Y114900D02*
Y115900D01*
X100218Y115400D02*
X101218D01*
X121149Y37423D02*
X122149D01*
X121649Y36923D02*
Y37923D01*
X123857Y143459D02*
Y144459D01*
X123357Y143959D02*
X124357D01*
X106718Y41582D02*
Y42582D01*
X106218Y42082D02*
X107218D01*
X124693Y36923D02*
Y37923D01*
X124193Y37423D02*
X125193D01*
X100718Y41468D02*
Y42468D01*
X100218Y41968D02*
X101218D01*
X106718Y146391D02*
Y147391D01*
X106218Y146891D02*
X107218D01*
X100718Y146010D02*
Y147010D01*
X100218Y146510D02*
X101218D01*
X101718Y155069D02*
Y156069D01*
X101218Y155569D02*
X102218D01*
X101218Y51321D02*
X102218D01*
X101718Y50821D02*
Y51821D01*
Y166630D02*
Y167630D01*
X101218Y167130D02*
X102218D01*
X101218Y60719D02*
X102218D01*
X101718Y60219D02*
Y61219D01*
X122718Y166152D02*
Y167152D01*
X122218Y166652D02*
X123218D01*
X122218Y62215D02*
X123218D01*
X122718Y61715D02*
Y62715D01*
X100968Y186475D02*
X101968D01*
X101468Y185975D02*
Y186975D01*
X101718Y3204D02*
Y4204D01*
X101218Y3704D02*
X102218D01*
X101718Y196135D02*
Y197135D01*
X101218Y196635D02*
X102218D01*
X101718Y88977D02*
Y89977D01*
X101218Y89477D02*
X102218D01*
X101218Y12975D02*
X102218D01*
X101718Y12475D02*
Y13475D01*
X122718Y195951D02*
Y196951D01*
X122218Y196451D02*
X123218D01*
X122718Y90191D02*
Y91191D01*
X122218Y90691D02*
X123218D01*
X122718Y14397D02*
Y15397D01*
X122218Y14897D02*
X123218D01*
X101718Y109058D02*
Y110058D01*
X101218Y109558D02*
X102218D01*
X101716Y117802D02*
Y118802D01*
X101216Y118302D02*
X102216D01*
X101218Y35364D02*
X102218D01*
X101718Y34864D02*
Y35864D01*
X122218Y120698D02*
X123218D01*
X122718Y120198D02*
Y121198D01*
X101718Y140168D02*
Y141168D01*
X101218Y140668D02*
X102218D01*
X101718Y45024D02*
Y46024D01*
X101218Y45524D02*
X102218D01*
X101718Y149439D02*
Y150439D01*
X101218Y149939D02*
X102218D01*
X122718Y150927D02*
Y151927D01*
X122218Y151427D02*
X123218D01*
X122718Y44446D02*
Y45446D01*
X122218Y44946D02*
X123218D01*
X193373Y173631D02*
X194373D01*
X193873Y173131D02*
Y174131D01*
X183445Y173397D02*
X184445D01*
X183945Y172897D02*
Y173897D01*
X211212Y173600D02*
X212212D01*
X211712Y173100D02*
Y174100D01*
X196551Y133333D02*
X197258Y132626D01*
X196551D02*
X197258Y133333D01*
X199345Y110854D02*
X200052Y110147D01*
X199345D02*
X200052Y110854D01*
%TF.MD5,f880ed12b7077ecb2f1d03cb33a897f3*%
M02*
