%TF.GenerationSoftware,Altium Limited,Altium Designer,21.6.4 (81)*%
G04 Layer_Color=32768*
%FSLAX43Y43*%
%MOMM*%
%TF.SameCoordinates,B094594F-E5AE-4C03-B854-EF891E02AD71*%
%TF.FilePolarity,Positive*%
%TF.FileFunction,Other,Mechanical_15*%
%TF.Part,Single*%
G01*
G75*
%TA.AperFunction,NonConductor*%
%ADD154C,0.152*%
%ADD156C,0.200*%
%ADD207C,0.100*%
%ADD227C,0.050*%
G36*
X117220Y6617D02*
X118875D01*
Y12001D01*
X117220D01*
Y12319D01*
X112216D01*
Y12001D01*
X110561D01*
Y6617D01*
X112216D01*
Y6299D01*
X117220D01*
Y6617D01*
D02*
G37*
G36*
Y36539D02*
X118875D01*
Y41923D01*
X117220D01*
Y42241D01*
X112216D01*
Y41923D01*
X110561D01*
Y36539D01*
X112216D01*
Y36221D01*
X117220D01*
Y36539D01*
D02*
G37*
G36*
Y53808D02*
X118875D01*
Y59192D01*
X117220D01*
Y59510D01*
X112216D01*
Y59192D01*
X110561D01*
Y53808D01*
X112216D01*
Y53490D01*
X117220D01*
Y53808D01*
D02*
G37*
G36*
Y82284D02*
X118875D01*
Y87668D01*
X117220D01*
Y87986D01*
X112216D01*
Y87668D01*
X110561D01*
Y82284D01*
X112216D01*
Y81966D01*
X117220D01*
Y82284D01*
D02*
G37*
G36*
Y112037D02*
X118875D01*
Y117421D01*
X117220D01*
Y117739D01*
X112216D01*
Y117421D01*
X110561D01*
Y112037D01*
X112216D01*
Y111719D01*
X117220D01*
Y112037D01*
D02*
G37*
G36*
X192913Y124942D02*
X193330Y125359D01*
X192913Y125776D01*
X193798Y126662D01*
X189191Y131270D01*
X188305Y130384D01*
X187888Y130801D01*
X187471Y130384D01*
X186585Y131270D01*
X181977Y126662D01*
X182863Y125776D01*
X182446Y125359D01*
X182863Y124942D01*
X181977Y124056D01*
X186585Y119449D01*
X187471Y120334D01*
X187888Y119917D01*
X188305Y120334D01*
X189191Y119449D01*
X193798Y124056D01*
X192913Y124942D01*
D02*
G37*
G36*
X117220Y142893D02*
X118875D01*
Y148277D01*
X117220D01*
Y148595D01*
X112216D01*
Y148277D01*
X110561D01*
Y142893D01*
X112216D01*
Y142575D01*
X117220D01*
Y142893D01*
D02*
G37*
G36*
Y158118D02*
X118875D01*
Y163502D01*
X117220D01*
Y163820D01*
X112216D01*
Y163502D01*
X110561D01*
Y158118D01*
X112216D01*
Y157800D01*
X117220D01*
Y158118D01*
D02*
G37*
G36*
Y188044D02*
X118875D01*
Y193428D01*
X117220D01*
Y193746D01*
X112216D01*
Y193428D01*
X110561D01*
Y188044D01*
X112216D01*
Y187726D01*
X117220D01*
Y188044D01*
D02*
G37*
G36*
X187193Y170138D02*
X180691D01*
Y170252D01*
X178087D01*
Y176526D01*
X180691D01*
Y176640D01*
X187193D01*
Y176526D01*
X189797D01*
Y170252D01*
X187193D01*
Y170138D01*
D02*
G37*
G36*
X204846D02*
X198344D01*
Y170252D01*
X195740D01*
Y176526D01*
X198344D01*
Y176640D01*
X204846D01*
Y176526D01*
X207450D01*
Y170252D01*
X204846D01*
Y170138D01*
D02*
G37*
G36*
X222499D02*
X215997D01*
Y170252D01*
X213393D01*
Y176526D01*
X215997D01*
Y176640D01*
X222499D01*
Y176526D01*
X225103D01*
Y170252D01*
X222499D01*
Y170138D01*
D02*
G37*
D154*
X198344D02*
X204846D01*
Y170252D01*
X207450D01*
Y176526D01*
X204846D02*
X207450D01*
X204846D02*
Y176640D01*
X198344D02*
X204846D01*
X198344Y176526D02*
Y176640D01*
X195740Y176526D02*
X198344D01*
X195740Y170252D02*
Y176526D01*
Y170252D02*
X198344D01*
Y170138D02*
Y170252D01*
X180691Y170138D02*
X187193D01*
Y170252D01*
X189797D01*
Y176526D01*
X187193D02*
X189797D01*
X187193D02*
Y176640D01*
X180691D02*
X187193D01*
X180691Y176526D02*
Y176640D01*
X178087Y176526D02*
X180691D01*
X178087Y170252D02*
Y176526D01*
Y170252D02*
X180691D01*
Y170138D02*
Y170252D01*
X215997Y170138D02*
X222499D01*
Y170252D01*
X225103D01*
Y176526D01*
X222499D02*
X225103D01*
X222499D02*
Y176640D01*
X215997D02*
X222499D01*
X215997Y176526D02*
Y176640D01*
X213393Y176526D02*
X215997D01*
X213393Y170252D02*
Y176526D01*
Y170252D02*
X215997D01*
Y170138D02*
Y170252D01*
X117220Y158118D02*
X118875D01*
X117220Y157800D02*
Y158118D01*
X112216Y157800D02*
X117220D01*
X112216D02*
Y158118D01*
X110561D02*
X112216D01*
X110561D02*
Y163502D01*
X112216D01*
Y163820D01*
X117220D01*
Y163502D02*
Y163820D01*
Y163502D02*
X118875D01*
Y158118D02*
Y163502D01*
Y53808D02*
Y59192D01*
X117220D02*
X118875D01*
X117220D02*
Y59510D01*
X112216D02*
X117220D01*
X112216Y59192D02*
Y59510D01*
X110561Y59192D02*
X112216D01*
X110561Y53808D02*
Y59192D01*
Y53808D02*
X112216D01*
Y53490D02*
Y53808D01*
Y53490D02*
X117220D01*
Y53808D01*
X118875D01*
X117220Y188044D02*
X118875D01*
X117220Y187726D02*
Y188044D01*
X112216Y187726D02*
X117220D01*
X112216D02*
Y188044D01*
X110561D02*
X112216D01*
X110561D02*
Y193428D01*
X112216D01*
Y193746D01*
X117220D01*
Y193428D02*
Y193746D01*
Y193428D02*
X118875D01*
Y188044D02*
Y193428D01*
X117220Y82284D02*
X118875D01*
X117220Y81966D02*
Y82284D01*
X112216Y81966D02*
X117220D01*
X112216D02*
Y82284D01*
X110561D02*
X112216D01*
X110561D02*
Y87668D01*
X112216D01*
Y87986D01*
X117220D01*
Y87668D02*
Y87986D01*
Y87668D02*
X118875D01*
Y82284D02*
Y87668D01*
Y6617D02*
Y12001D01*
X117220D02*
X118875D01*
X117220D02*
Y12319D01*
X112216D02*
X117220D01*
X112216Y12001D02*
Y12319D01*
X110561Y12001D02*
X112216D01*
X110561Y6617D02*
Y12001D01*
Y6617D02*
X112216D01*
Y6299D02*
Y6617D01*
Y6299D02*
X117220D01*
Y6617D01*
X118875D01*
X117220Y112037D02*
X118875D01*
X117220Y111719D02*
Y112037D01*
X112216Y111719D02*
X117220D01*
X112216D02*
Y112037D01*
X110561D02*
X112216D01*
X110561D02*
Y117421D01*
X112216D01*
Y117739D01*
X117220D01*
Y117421D02*
Y117739D01*
Y117421D02*
X118875D01*
Y112037D02*
Y117421D01*
X117220Y142893D02*
X118875D01*
X117220Y142575D02*
Y142893D01*
X112216Y142575D02*
X117220D01*
X112216D02*
Y142893D01*
X110561D02*
X112216D01*
X110561D02*
Y148277D01*
X112216D01*
Y148595D01*
X117220D01*
Y148277D02*
Y148595D01*
Y148277D02*
X118875D01*
Y142893D02*
Y148277D01*
X117220Y36539D02*
X118875D01*
X117220Y36221D02*
Y36539D01*
X112216Y36221D02*
X117220D01*
X112216D02*
Y36539D01*
X110561D02*
X112216D01*
X110561D02*
Y41923D01*
X112216D01*
Y42241D01*
X117220D01*
Y41923D02*
Y42241D01*
Y41923D02*
X118875D01*
Y36539D02*
Y41923D01*
X192913Y125776D02*
X193330Y125359D01*
X192913Y125776D02*
X193798Y126662D01*
X189191Y131270D02*
X193798Y126662D01*
X188305Y130384D02*
X189191Y131270D01*
X187888Y130801D02*
X188305Y130384D01*
X187471D02*
X187888Y130801D01*
X186585Y131270D02*
X187471Y130384D01*
X181977Y126662D02*
X186585Y131270D01*
X181977Y126662D02*
X182863Y125776D01*
X182446Y125359D02*
X182863Y125776D01*
X182446Y125359D02*
X182863Y124942D01*
X181977Y124056D02*
X182863Y124942D01*
X181977Y124056D02*
X186585Y119449D01*
X187471Y120334D01*
X187888Y119917D01*
X188305Y120334D01*
X189191Y119449D01*
X193798Y124056D01*
X192913Y124942D02*
X193798Y124056D01*
X192913Y124942D02*
X193330Y125359D01*
X174252Y177834D02*
X175052D01*
X174785D01*
X174252Y178367D01*
X174652Y177967D01*
X175052Y178367D01*
X172982Y175294D02*
X173782D01*
Y175827D01*
X172982Y176627D02*
Y176094D01*
X173782D01*
Y176627D01*
X173382Y176094D02*
Y176360D01*
X172982Y176893D02*
X173782D01*
Y177293D01*
X173649Y177427D01*
X173116D01*
X172982Y177293D01*
Y176893D01*
X173782Y178093D02*
X172982D01*
X173382Y177693D01*
Y178226D01*
X154694Y177834D02*
X155494D01*
X155227D01*
X154694Y178367D01*
X155094Y177967D01*
X155494Y178367D01*
X153424Y175294D02*
X154224D01*
Y175827D01*
X153424Y176627D02*
Y176094D01*
X154224D01*
Y176627D01*
X153824Y176094D02*
Y176360D01*
X153424Y176893D02*
X154224D01*
Y177293D01*
X154091Y177427D01*
X153558D01*
X153424Y177293D01*
Y176893D01*
X153558Y177693D02*
X153424Y177827D01*
Y178093D01*
X153558Y178226D01*
X153691D01*
X153824Y178093D01*
Y177960D01*
Y178093D01*
X153957Y178226D01*
X154091D01*
X154224Y178093D01*
Y177827D01*
X154091Y177693D01*
D156*
X172424Y177453D02*
G03*
X175162Y177433I1355J-2016D01*
G01*
X152866Y177453D02*
G03*
X155604Y177433I1355J-2016D01*
G01*
X103016Y173979D02*
X107324D01*
X103016Y171471D02*
Y173979D01*
Y171471D02*
X107324D01*
Y173979D01*
X111129Y137975D02*
Y139575D01*
X108421Y137975D02*
X111129D01*
X108421D02*
Y139575D01*
X111129D01*
X115574Y32100D02*
Y33700D01*
X112866Y32100D02*
X115574D01*
X112866D02*
Y33700D01*
X115574D01*
X111229Y78700D02*
Y80300D01*
X108521Y78700D02*
X111229D01*
X108521D02*
Y80300D01*
X111229D01*
X111805Y184050D02*
Y185650D01*
X109097Y184050D02*
X111805D01*
X109097D02*
Y185650D01*
X111805D01*
X110868Y33629D02*
X112468D01*
Y30921D02*
Y33629D01*
X110868Y30921D02*
X112468D01*
X110868D02*
Y33629D01*
X111547Y137574D02*
X113147D01*
Y134865D02*
Y137574D01*
X111547Y134865D02*
X113147D01*
X111547D02*
Y137574D01*
X233698Y120696D02*
X236206D01*
X233698D02*
Y125004D01*
X236206D01*
Y120696D02*
Y125004D01*
X242579Y148521D02*
Y151029D01*
X238271Y148521D02*
X242579D01*
X238271D02*
Y151029D01*
X242579D01*
X232411Y154710D02*
Y157218D01*
X236719D01*
Y154710D02*
Y157218D01*
X232411Y154710D02*
X236719D01*
X213596Y145296D02*
X216104D01*
Y149604D01*
X213596D02*
X216104D01*
X213596Y145296D02*
Y149604D01*
X238868Y143245D02*
Y145753D01*
X243177D01*
Y143245D02*
Y145753D01*
X238868Y143245D02*
X243177D01*
X214050Y144258D02*
X215600D01*
X214050Y140859D02*
Y144258D01*
Y140859D02*
X215600D01*
Y144258D01*
X201929Y40271D02*
Y44579D01*
X199421Y40271D02*
X201929D01*
X199421D02*
Y44579D01*
X201929D01*
X112239Y182293D02*
X114947D01*
Y183893D01*
X112239D02*
X114947D01*
X112239Y182293D02*
Y183893D01*
X109064Y182293D02*
X111772D01*
Y183893D01*
X109064D02*
X111772D01*
X109064Y182293D02*
Y183893D01*
X108518Y77022D02*
X111227D01*
Y78622D01*
X108518D02*
X111227D01*
X108518Y77022D02*
Y78622D01*
X103418Y176793D02*
Y179502D01*
Y176793D02*
X105018D01*
Y179502D01*
X103418D02*
X105018D01*
X103097Y71446D02*
Y74154D01*
Y71446D02*
X104697D01*
Y74154D01*
X103097D02*
X104697D01*
X108424Y136219D02*
X111132D01*
Y137820D01*
X108424D02*
X111132D01*
X108424Y136219D02*
Y137820D01*
X102971Y130671D02*
Y133379D01*
Y130671D02*
X104571D01*
Y133379D01*
X102971D02*
X104571D01*
X108051Y32100D02*
X110759D01*
Y33700D01*
X108051D02*
X110759D01*
X108051Y32100D02*
Y33700D01*
X102918Y26296D02*
Y29004D01*
Y26296D02*
X104518D01*
Y29004D01*
X102918D02*
X104518D01*
X229296Y141646D02*
Y145954D01*
Y141646D02*
X231804D01*
Y145954D01*
X229296D02*
X231804D01*
X173163Y144275D02*
Y150575D01*
Y144275D02*
X188963D01*
Y150575D01*
X173163D02*
X188963D01*
X184424Y196813D02*
X200224D01*
Y190513D02*
Y196813D01*
X184424Y190513D02*
X200224D01*
X184424D02*
Y196813D01*
X171025Y184530D02*
Y189690D01*
X161045Y184530D02*
X171025D01*
X161045D02*
Y189690D01*
X171025D01*
X150705Y184530D02*
Y189690D01*
X140725Y184530D02*
X150705D01*
X140725D02*
Y189690D01*
X150705D01*
X181058Y184530D02*
Y189690D01*
X171078Y184530D02*
X181058D01*
X171078D02*
Y189690D01*
X181058D01*
X160738Y184530D02*
Y189690D01*
X150758Y184530D02*
X160738D01*
X150758D02*
Y189690D01*
X160738D01*
X172424Y177453D02*
X175161D01*
X152866D02*
X155603D01*
X237775Y189200D02*
X244075D01*
X237775Y173400D02*
Y189200D01*
Y173400D02*
X244075D01*
Y189200D01*
X210980Y187100D02*
X212530D01*
X210980Y183700D02*
Y187100D01*
Y183700D02*
X212530D01*
Y187100D01*
X209990Y183700D02*
Y187100D01*
X208440Y183700D02*
X209990D01*
X208440D02*
Y187100D01*
X209990D01*
X207450Y183700D02*
Y187100D01*
X205900Y183700D02*
X207450D01*
X205900D02*
Y187100D01*
X207450D01*
X213009Y188571D02*
Y192879D01*
X210501D02*
X213009D01*
X210501Y188571D02*
Y192879D01*
Y188571D02*
X213009D01*
X207961Y188449D02*
X210469D01*
X207961D02*
Y192757D01*
X210469D01*
Y188449D02*
Y192757D01*
X205875Y189126D02*
X207475D01*
X205875D02*
Y191834D01*
X207475D01*
Y189126D02*
Y191834D01*
X102722Y68704D02*
X107030D01*
X102722Y66196D02*
Y68704D01*
Y66196D02*
X107030D01*
Y68704D01*
X102522Y172004D02*
Y173604D01*
X99814Y172004D02*
X102522D01*
X99814D02*
Y173604D01*
X102522D01*
X102397Y66550D02*
Y68150D01*
X99689Y66550D02*
X102397D01*
X99689D02*
Y68150D01*
X102397D01*
X98564Y157617D02*
X102872D01*
Y160126D01*
X98564D02*
X102872D01*
X98564Y157617D02*
Y160126D01*
Y53242D02*
Y55750D01*
X102872D01*
Y53242D02*
Y55750D01*
X98564Y53242D02*
X102872D01*
X104564Y157617D02*
X108872D01*
Y160126D01*
X104564D02*
X108872D01*
X104564Y157617D02*
Y160126D01*
Y53369D02*
X108872D01*
Y55877D01*
X104564D02*
X108872D01*
X104564Y53369D02*
Y55877D01*
X166091Y183895D02*
X170399D01*
Y186404D01*
X166091D02*
X170399D01*
X166091Y183895D02*
Y186404D01*
X145771Y183895D02*
X150079D01*
Y186404D01*
X145771D02*
X150079D01*
X145771Y183895D02*
Y186404D01*
X166081Y183895D02*
Y186404D01*
X161773Y183895D02*
X166081D01*
X161773D02*
Y186404D01*
X166081D01*
X145761Y183895D02*
Y186404D01*
X141453Y183895D02*
X145761D01*
X141453D02*
Y186404D01*
X145761D01*
X145401Y188456D02*
Y192765D01*
Y188456D02*
X147909D01*
Y192765D01*
X145401D02*
X147909D01*
X168769Y177652D02*
X171277D01*
Y173343D02*
Y177652D01*
X168769Y173343D02*
X171277D01*
X168769D02*
Y177652D01*
X149228Y173326D02*
Y177634D01*
Y173326D02*
X151736D01*
Y177634D01*
X149228D02*
X151736D01*
X180432Y183895D02*
Y186404D01*
X176124Y183895D02*
X180432D01*
X176124D02*
Y186404D01*
X180432D01*
X160112Y183895D02*
Y186404D01*
X155804Y183895D02*
X160112D01*
X155804D02*
Y186404D01*
X160112D01*
X168769Y171004D02*
X171277D01*
Y166696D02*
Y171004D01*
X168769Y166696D02*
X171277D01*
X168769D02*
Y171004D01*
X149160Y166594D02*
Y170902D01*
Y166594D02*
X151668D01*
Y170902D01*
X149160D02*
X151668D01*
X172528Y171077D02*
X175036D01*
Y166769D02*
Y171077D01*
X172528Y166769D02*
X175036D01*
X172528D02*
Y171077D01*
X152970Y166594D02*
Y170902D01*
Y166594D02*
X155478D01*
Y170902D01*
X152970D02*
X155478D01*
X155794Y183895D02*
Y186404D01*
X151486Y183895D02*
X155794D01*
X151486D02*
Y186404D01*
X155794D01*
X173976Y188583D02*
Y192892D01*
Y188583D02*
X176484D01*
Y192892D01*
X173976D02*
X176484D01*
X153656Y188491D02*
Y192799D01*
Y188491D02*
X156164D01*
Y192799D01*
X153656D02*
X156164D01*
X165075Y178307D02*
Y180816D01*
X169383D01*
Y178307D02*
Y180816D01*
X165075Y178307D02*
X169383D01*
X158471Y178053D02*
Y180562D01*
X162779D01*
Y178053D02*
Y180562D01*
X158471Y178053D02*
X162779D01*
X112111Y76984D02*
X114819D01*
Y78584D01*
X112111D02*
X114819D01*
X112111Y76984D02*
Y78584D01*
X209846Y132599D02*
X212554D01*
Y134199D01*
X209846D02*
X212554D01*
X209846Y132599D02*
Y134199D01*
X98562Y188202D02*
Y190710D01*
X102870D01*
Y188202D02*
Y190710D01*
X98562Y188202D02*
X102870D01*
X209846Y130059D02*
Y131659D01*
X212554D01*
Y130059D02*
Y131659D01*
X209846Y130059D02*
X212554D01*
X218737Y183246D02*
Y187554D01*
X216229Y183246D02*
X218737D01*
X216229D02*
Y187554D01*
X218737D01*
X189764Y100171D02*
Y102679D01*
X194072D01*
Y100171D02*
Y102679D01*
X189764Y100171D02*
X194072D01*
X209922Y115621D02*
Y118129D01*
X205614Y115621D02*
X209922D01*
X205614D02*
Y118129D01*
X209922D01*
X194067Y97421D02*
Y99929D01*
X189759Y97421D02*
X194067D01*
X189759D02*
Y99929D01*
X194067D01*
X205397Y115621D02*
Y118129D01*
X201089Y115621D02*
X205397D01*
X201089D02*
Y118129D01*
X205397D01*
X104564Y187577D02*
Y190085D01*
X108872D01*
Y187577D02*
Y190085D01*
X104564Y187577D02*
X108872D01*
X104564Y81710D02*
Y84219D01*
X108872D01*
Y81710D02*
Y84219D01*
X104564Y81710D02*
X108872D01*
X98564Y6006D02*
Y8514D01*
X102872D01*
Y6006D02*
Y8514D01*
X98564Y6006D02*
X102872D01*
X104564D02*
X108872D01*
Y8514D01*
X104564D02*
X108872D01*
X104564Y6006D02*
Y8514D01*
X225271Y184121D02*
Y186629D01*
X229579D01*
Y184121D02*
Y186629D01*
X225271Y184121D02*
X229579D01*
X225271Y186871D02*
Y189379D01*
X229579D01*
Y186871D02*
Y189379D01*
X225271Y186871D02*
X229579D01*
X102637Y127964D02*
X106946D01*
X102637Y125455D02*
Y127964D01*
Y125455D02*
X106946D01*
Y127964D01*
X102614Y23354D02*
X106922D01*
X102614Y20846D02*
Y23354D01*
Y20846D02*
X106922D01*
Y23354D01*
X102470Y125990D02*
Y127590D01*
X99762Y125990D02*
X102470D01*
X99762D02*
Y127590D01*
X102470D01*
X102447Y21186D02*
Y22786D01*
X99739Y21186D02*
X102447D01*
X99739D02*
Y22786D01*
X102447D01*
X98564Y111606D02*
X102872D01*
Y114114D01*
X98564D02*
X102872D01*
X98564Y111606D02*
Y114114D01*
X104564Y111733D02*
Y114241D01*
X108872D01*
Y111733D02*
Y114241D01*
X104564Y111733D02*
X108872D01*
X104564Y35643D02*
X108872D01*
Y38151D01*
X104564D02*
X108872D01*
X104564Y35643D02*
Y38151D01*
X224614Y187146D02*
Y191454D01*
X222106D02*
X224614D01*
X222106Y187146D02*
Y191454D01*
Y187146D02*
X224614D01*
X222074D02*
Y191454D01*
X219566D02*
X222074D01*
X219566Y187146D02*
Y191454D01*
Y187146D02*
X222074D01*
X98564Y142589D02*
X102872D01*
Y145097D01*
X98564D02*
X102872D01*
X98564Y142589D02*
Y145097D01*
X104564Y142589D02*
Y145097D01*
X108872D01*
Y142589D02*
Y145097D01*
X104564Y142589D02*
X108872D01*
X196086Y135861D02*
X199132Y132815D01*
X200906Y134589D01*
X197859Y137635D02*
X200906Y134589D01*
X196086Y135861D02*
X197859Y137635D01*
X231804Y146021D02*
Y150329D01*
X229296D02*
X231804D01*
X229296Y146021D02*
Y150329D01*
Y146021D02*
X231804D01*
X238868Y140597D02*
X243177D01*
Y143105D01*
X238868D02*
X243177D01*
X238868Y140597D02*
Y143105D01*
X236276Y120696D02*
Y125004D01*
Y120696D02*
X238784D01*
Y125004D01*
X236276D02*
X238784D01*
X231746Y184196D02*
X234254D01*
X231746D02*
Y188504D01*
X234254D01*
Y184196D02*
Y188504D01*
X237346Y166096D02*
Y170404D01*
X234837D02*
X237346D01*
X234837Y166096D02*
Y170404D01*
Y166096D02*
X237346D01*
X180632Y133464D02*
X183678Y136511D01*
X181904Y138284D02*
X183678Y136511D01*
X178858Y135238D02*
X181904Y138284D01*
X178858Y135238D02*
X180632Y133464D01*
X215695Y183825D02*
Y187225D01*
X214145Y183825D02*
X215695D01*
X214145D02*
Y187225D01*
X215695D01*
D207*
X104670Y172725D02*
X105670D01*
X105170Y172225D02*
Y173225D01*
X109775Y138275D02*
Y139275D01*
X109275Y138775D02*
X110275D01*
X114220Y32400D02*
Y33400D01*
X113720Y32900D02*
X114720D01*
X109875Y79000D02*
Y80000D01*
X109375Y79500D02*
X110375D01*
X110451Y184350D02*
Y185350D01*
X109951Y184850D02*
X110951D01*
X111168Y32275D02*
X112168D01*
X111668Y31775D02*
Y32775D01*
X111847Y136219D02*
X112847D01*
X112347Y135720D02*
Y136719D01*
X234452Y122850D02*
X235452D01*
X234952Y122350D02*
Y123350D01*
X240425Y149275D02*
Y150275D01*
X239925Y149775D02*
X240925D01*
X234565Y155464D02*
Y156464D01*
X234065Y155964D02*
X235065D01*
X214350Y147450D02*
X215350D01*
X214850Y146950D02*
Y147950D01*
X241023Y143999D02*
Y144999D01*
X240523Y144499D02*
X241523D01*
X214325Y142559D02*
X215325D01*
X214825Y142059D02*
Y143059D01*
X200675Y41925D02*
Y42925D01*
X200175Y42425D02*
X201175D01*
X108927Y131823D02*
X109927D01*
X109427Y131323D02*
Y132323D01*
X108555Y27650D02*
X109555D01*
X109055Y27150D02*
Y28150D01*
X109918Y177373D02*
Y178373D01*
X109418Y177873D02*
X110418D01*
X109472Y72300D02*
Y73300D01*
X108972Y72800D02*
X109972D01*
X113093Y183093D02*
X114093D01*
X113593Y182593D02*
Y183593D01*
X109918Y183093D02*
X110918D01*
X110418Y182593D02*
Y183593D01*
X109372Y77822D02*
X110372D01*
X109872Y77322D02*
Y78322D01*
X104218Y177648D02*
Y178648D01*
X103718Y178148D02*
X104718D01*
X103897Y72300D02*
Y73300D01*
X103397Y72800D02*
X104397D01*
X109278Y137020D02*
X110278D01*
X109778Y136520D02*
Y137520D01*
X103771Y131525D02*
Y132525D01*
X103271Y132025D02*
X104271D01*
X108905Y32900D02*
X109905D01*
X109405Y32400D02*
Y33400D01*
X103718Y27150D02*
Y28150D01*
X103218Y27650D02*
X104218D01*
X230550Y143300D02*
Y144300D01*
X230050Y143800D02*
X231050D01*
X181063Y146925D02*
Y147925D01*
X180563Y147425D02*
X181563D01*
X191824Y193663D02*
X192824D01*
X192324Y193163D02*
Y194163D01*
X166035Y186610D02*
Y187610D01*
X165535Y187110D02*
X166535D01*
X145715Y186610D02*
Y187610D01*
X145215Y187110D02*
X146215D01*
X176068Y186610D02*
Y187610D01*
X175568Y187110D02*
X176568D01*
X155748Y186610D02*
Y187610D01*
X155248Y187110D02*
X156248D01*
X240425Y181300D02*
X241425D01*
X240925Y180800D02*
Y181800D01*
X211255Y185400D02*
X212255D01*
X211755Y184900D02*
Y185900D01*
X209215Y184900D02*
Y185900D01*
X208715Y185400D02*
X209715D01*
X206675Y184900D02*
Y185900D01*
X206175Y185400D02*
X207175D01*
X235625Y131675D02*
Y132675D01*
X235125Y132175D02*
X236125D01*
X217775Y85225D02*
X218775D01*
X218275Y84725D02*
Y85725D01*
X211755Y190225D02*
Y191225D01*
X211255Y190725D02*
X212255D01*
X208715Y190603D02*
X209715D01*
X209215Y190103D02*
Y191103D01*
X206175Y190480D02*
X207175D01*
X206675Y189980D02*
Y190980D01*
X104376Y67450D02*
X105376D01*
X104876Y66950D02*
Y67950D01*
X101168Y172304D02*
Y173304D01*
X100668Y172804D02*
X101668D01*
X101043Y66850D02*
Y67850D01*
X100543Y67350D02*
X101543D01*
X100218Y158871D02*
X101218D01*
X100718Y158371D02*
Y159371D01*
Y53996D02*
Y54996D01*
X100218Y54496D02*
X101218D01*
X106218Y158871D02*
X107218D01*
X106718Y158371D02*
Y159371D01*
X106218Y54623D02*
X107218D01*
X106718Y54123D02*
Y55123D01*
X167745Y185149D02*
X168745D01*
X168245Y184649D02*
Y185649D01*
X147425Y185149D02*
X148425D01*
X147925Y184649D02*
Y185649D01*
X163927Y184649D02*
Y185649D01*
X163427Y185149D02*
X164427D01*
X143607Y184649D02*
Y185649D01*
X143107Y185149D02*
X144107D01*
X146655Y190110D02*
Y191110D01*
X146155Y190610D02*
X147155D01*
X169523Y175497D02*
X170523D01*
X170023Y174997D02*
Y175997D01*
X150482Y174980D02*
Y175980D01*
X149982Y175480D02*
X150982D01*
X178278Y184649D02*
Y185649D01*
X177778Y185149D02*
X178778D01*
X157958Y184649D02*
Y185649D01*
X157458Y185149D02*
X158458D01*
X169523Y168850D02*
X170523D01*
X170023Y168350D02*
Y169350D01*
X150414Y168248D02*
Y169248D01*
X149914Y168748D02*
X150914D01*
X173282Y168923D02*
X174282D01*
X173782Y168423D02*
Y169423D01*
X154224Y168248D02*
Y169248D01*
X153724Y168748D02*
X154724D01*
X153640Y184649D02*
Y185649D01*
X153140Y185149D02*
X154140D01*
X175230Y190237D02*
Y191237D01*
X174730Y190737D02*
X175730D01*
X154910Y190145D02*
Y191145D01*
X154410Y190645D02*
X155410D01*
X167229Y179061D02*
Y180061D01*
X166729Y179561D02*
X167729D01*
X160625Y178807D02*
Y179807D01*
X160125Y179307D02*
X161125D01*
X112965Y77784D02*
X113965D01*
X113465Y77284D02*
Y78284D01*
X210700Y133399D02*
X211700D01*
X211200Y132899D02*
Y133899D01*
X100716Y188956D02*
Y189956D01*
X100216Y189456D02*
X101216D01*
X211200Y130359D02*
Y131359D01*
X210700Y130859D02*
X211700D01*
X217483Y184900D02*
Y185900D01*
X216983Y185400D02*
X217983D01*
X191918Y100925D02*
Y101925D01*
X191418Y101425D02*
X192418D01*
X207768Y116375D02*
Y117375D01*
X207268Y116875D02*
X208268D01*
X191913Y98175D02*
Y99175D01*
X191413Y98675D02*
X192413D01*
X203243Y116375D02*
Y117375D01*
X202743Y116875D02*
X203743D01*
X106718Y188331D02*
Y189331D01*
X106218Y188831D02*
X107218D01*
X106718Y82465D02*
Y83465D01*
X106218Y82965D02*
X107218D01*
X100718Y6760D02*
Y7760D01*
X100218Y7260D02*
X101218D01*
X106218D02*
X107218D01*
X106718Y6760D02*
Y7760D01*
X227425Y184875D02*
Y185875D01*
X226925Y185375D02*
X227925D01*
X227425Y187625D02*
Y188625D01*
X226925Y188125D02*
X227925D01*
X104291Y126710D02*
X105291D01*
X104791Y126210D02*
Y127210D01*
X104268Y22100D02*
X105268D01*
X104768Y21600D02*
Y22600D01*
X101116Y126290D02*
Y127290D01*
X100616Y126790D02*
X101616D01*
X101093Y21486D02*
Y22486D01*
X100593Y21986D02*
X101593D01*
X100218Y112860D02*
X101218D01*
X100718Y112360D02*
Y113360D01*
X106718Y112487D02*
Y113487D01*
X106218Y112987D02*
X107218D01*
X106218Y36897D02*
X107218D01*
X106718Y36397D02*
Y37397D01*
X223360Y188800D02*
Y189800D01*
X222860Y189300D02*
X223860D01*
X220820Y188800D02*
Y189800D01*
X220320Y189300D02*
X221320D01*
X100218Y143843D02*
X101218D01*
X100718Y143343D02*
Y144343D01*
X106718Y143343D02*
Y144343D01*
X106218Y143843D02*
X107218D01*
X198142Y135579D02*
X198849Y134871D01*
X198142D02*
X198849Y135579D01*
X230550Y147675D02*
Y148675D01*
X230050Y148175D02*
X231050D01*
X240523Y141851D02*
X241523D01*
X241023Y141351D02*
Y142351D01*
X237530Y122350D02*
Y123350D01*
X237030Y122850D02*
X238030D01*
X232500Y186350D02*
X233500D01*
X233000Y185850D02*
Y186850D01*
X236092Y167750D02*
Y168750D01*
X235592Y168250D02*
X236592D01*
X180914Y135521D02*
X181622Y136228D01*
X180914D02*
X181622Y135521D01*
X214920Y185025D02*
Y186025D01*
X214420Y185525D02*
X215420D01*
D227*
X113850Y75125D02*
X118950D01*
Y66025D02*
Y75125D01*
X113850Y66025D02*
X118950D01*
X113850D02*
Y75125D01*
X113900Y133684D02*
X119000D01*
Y124584D02*
Y133684D01*
X113900Y124584D02*
X119000D01*
X113900D02*
Y133684D01*
X112900Y29100D02*
X118000D01*
Y20000D02*
Y29100D01*
X112900Y20000D02*
X118000D01*
X112900D02*
Y29100D01*
X113650Y170760D02*
Y179860D01*
Y170760D02*
X118750D01*
Y179860D01*
X113650D02*
X118750D01*
X237950Y146050D02*
Y153500D01*
X232450D02*
X237950D01*
X232450Y146050D02*
Y153500D01*
Y146050D02*
X237950D01*
X107677Y130173D02*
Y133473D01*
X111177Y130173D02*
Y133473D01*
X107677Y130173D02*
X111177D01*
X107677Y133473D02*
X111177D01*
X107305Y26000D02*
Y29300D01*
X110805Y26000D02*
Y29300D01*
X107305Y26000D02*
X110805D01*
X107305Y29300D02*
X110805D01*
X108168Y179523D02*
X111668D01*
X108168Y176223D02*
X111668D01*
Y179523D01*
X108168Y176223D02*
Y179523D01*
X107722Y74450D02*
X111222D01*
X107722Y71150D02*
X111222D01*
Y74450D01*
X107722Y71150D02*
Y74450D01*
X166924Y193163D02*
Y194163D01*
X166424Y193663D02*
X167424D01*
X162744Y196838D02*
X171104D01*
Y190488D02*
Y196838D01*
X162744Y190488D02*
X171104D01*
X162744D02*
Y196838D01*
X142424Y190488D02*
Y196838D01*
Y190488D02*
X150784D01*
Y196838D01*
X142424D02*
X150784D01*
X146104Y193663D02*
X147104D01*
X146604Y193163D02*
Y194163D01*
X170999Y190488D02*
Y196838D01*
Y190488D02*
X179359D01*
Y196838D01*
X170999D02*
X179359D01*
X174679Y193663D02*
X175679D01*
X175179Y193163D02*
Y194163D01*
X154859Y193163D02*
Y194163D01*
X154359Y193663D02*
X155359D01*
X150679Y196838D02*
X159039D01*
Y190488D02*
Y196838D01*
X150679Y190488D02*
X159039D01*
X150679D02*
Y196838D01*
X224930Y190750D02*
Y197100D01*
Y190750D02*
X233290D01*
Y197100D01*
X224930D02*
X233290D01*
X228610Y193925D02*
X229610D01*
X229110Y193425D02*
Y194425D01*
X216640Y190750D02*
Y197100D01*
Y190750D02*
X225000D01*
Y197100D01*
X216640D02*
X225000D01*
X220320Y193925D02*
X221320D01*
X220820Y193425D02*
Y194425D01*
X184018Y154253D02*
Y157243D01*
X173028Y154253D02*
X184018D01*
X173028D02*
Y157243D01*
X184018D01*
X229875Y125775D02*
X241375D01*
X229875Y138575D02*
X241375D01*
Y125775D02*
Y138575D01*
X229875Y125775D02*
Y138575D01*
X222175Y81775D02*
Y88675D01*
X214375Y81775D02*
Y88675D01*
X222175D01*
X214375Y81775D02*
X222175D01*
X200969Y103211D02*
X207369Y109611D01*
X203762Y113217D02*
X207369Y109611D01*
X197363Y106818D02*
X203762Y113217D01*
X197363Y106818D02*
X200969Y103211D01*
%TF.MD5,ce6edd3a0dc296622455ebb0b543f52b*%
M02*
