M48
;Layer_Color=9474304
;FILE_FORMAT=4:3
METRIC,LZ
;TYPE=PLATED
T1F00S00C0.254
T2F00S00C0.300
T3F00S00C0.500
T4F00S00C0.700
T5F00S00C0.711
T6F00S00C0.800
T7F00S00C0.900
T8F00S00C1.000
T9F00S00C1.016
T10F00S00C1.020
T11F00S00C1.050
T12F00S00C1.100
T13F00S00C1.143
T14F00S00C1.200
T15F00S00C1.270
T16F00S00C1.300
T17F00S00C1.400
T18F00S00C1.524
T19F00S00C1.800
T20F00S00C2.159
T22F00S00C2.540
T23F00S00C3.048
T24F00S00C3.556
%
T01
X0092744Y0000441
X0169464Y000097
Y001279
X0210348Y0013956
Y0010417
Y0006733
Y0004102
Y0000817
Y0019066
Y0024868
Y0029206
Y0032865
Y0038616
X0169464Y0034213
X0173482Y0052603
X0092744Y0045509
Y0075753
X0210348Y007639
Y008484
Y0090391
Y009685
Y0107063
X0190255Y0124259
X0187455Y0123523
Y0126559
X0169464Y0128932
Y0131282
Y0134449
Y0121831
Y0118157
Y0114713
Y0110784
X0093015Y0125247
X0092735Y0135128
X0169464Y0138849
Y0143033
Y0145162
Y0147163
Y0151307
Y0160389
Y0178096
Y018453
Y0190388
Y0199304
T02
X0103593Y0001093
X0099667Y000555
X0099868Y0011243
X0103593Y0014782
Y0018885
X0113189Y0018671
Y0013918
X0113856Y0011235
X0113189Y000575
Y0000907
X0109468Y0008674
X0120043
X0118875Y0007404
X0122943Y000505
X0126696Y000665
X0131754Y0009263
Y0014258
X0140915Y001442
Y00115
Y0018794
Y00025
X0131754
X011736Y0014897
X012005Y00192
X0152169Y0018231
X0152195Y0015779
Y00096
X0152195Y00065
Y0002779
Y0000735
X0187455Y00022
Y0007931
Y0014427
X0227472Y0011593
Y0009225
Y0003274
Y0000724
X0243302Y0013601
X0227472Y0029955
Y0033542
Y0038326
Y0051575
X0187455Y0045262
Y0031956
Y0022184
X0193789Y0028006
X0152195Y0028438
Y0032885
Y0038714
X0140915Y0038934
Y0042234
Y0045834
Y0050381
Y0054245
Y0057765
X0131754Y0054202
Y0049375
Y0040424
Y003665
X0126793
X0124693Y0035268
X01288Y0033225
Y0032025
X0140915Y0031452
Y0027919
Y0024096
Y0020646
Y0035276
X0118875Y0037326
X0120018Y00386
X0114697Y0041139
X0113189Y0042508
X01169Y0044946
X011695Y0052425
X0113189Y0051417
X0113966Y0057389
X0114697Y0058479
X0120039Y0055865
X0122893Y0052725
X0125647Y0054261
X0109293Y0055825
X0109333Y0038596
X0112549Y003584
X0115925Y0032875
Y0030156
X011372Y0030106
X0113189Y002875
Y0025774
Y002215
X01173Y0020154
X0099075Y0021986
X0103593Y0033025
X0099767Y0037158
X0097025Y0038575
X0099949Y0043543
X0103593Y00476
Y004935
X0099716Y0053
X009988Y0058718
X0103593Y00624
Y0064675
X0098727Y006735
X0103593Y0077168
X0099767Y0081908
X0099916Y0087997
X0103593Y0090995
X0108461Y0088377
X0113189Y0088349
X0114697Y0087383
X011736Y0089131
X0120018Y0084425
X0118875Y0083071
X012Y008035
X0121775Y008135
X0123596
X0123343Y00781
X011765Y0079225
X0113966Y00795
X0113189Y008171
X0109493Y008435
X0113189Y0074697
Y0071067
X0113125Y0067121
X0115025Y0064425
X012012Y0064835
X0117232Y0060655
X0113189Y0059949
X0131754Y0059384
Y0062169
X0140915Y0060868
Y006353
X0138891Y0069125
X0140475Y007675
X014135Y007605
X0142475Y0075975
X0142968Y0077675
X0140915Y0079791
X0131754Y0080241
Y0082368
Y0084508
Y0086775
X0126718Y0084301
Y008248
X0131754Y0076282
X0116514Y0076285
X0113189Y0094904
X0152195Y0098335
Y008698
Y0083215
X0151693Y00814
X0152195Y0080389
X0152418Y00794
X0153275Y0081575
X0150543Y0080625
X0149678Y0080575
X0147643Y0078875
X0146718Y00782
X01514Y0073425
X015845Y0085425
X01598Y0086775
X0187455Y0091603
Y009702
X0208137Y0091525
X0187455Y0067891
X0227472Y0076584
Y0081299
Y0087451
X02307Y00881
X0243302Y0088315
Y0077284
Y0101585
Y0114747
Y0122502
X0241375Y0121142
X0237521Y01197
X023753Y0124504
X0238784Y0125775
X02337Y012535
X023073
Y0128375
X0227472Y012515
Y0121133
X0229149Y0121125
X0227472Y0118247
Y0116086
Y0111662
Y010435
Y0099432
X0233331Y012225
X0243302Y0128375
Y0133793
X0227472Y0136985
X02218Y013595
Y0132313
Y0128045
Y0125391
X021865Y0126579
X0210348Y0127167
X0208175Y012834
X0210348Y0134921
X0208225Y01378
X0200257Y013549
X0195388Y0134684
X0195225Y013815
X0191Y0136154
X0187455Y0131719
X0183442Y0132385
X0183821Y0133525
X020295Y01325
X0199693Y0127125
X0198771Y012655
X0197393
X0196608Y0124121
X0195692
X0194701Y0121292
X019387
X0194251Y0120125
X0193718Y0119349
X0192918Y011675
X0192268Y0116075
X0190716Y0117375
Y0118125
X0191254Y0112287
X0190568Y0111875
X0191093Y0110075
X0191968Y01101
X0192493Y01094
X0193436Y0108058
X0195211Y0111649
X0196377Y0114516
X0197118Y0115
X0202192Y0114776
X0202793Y0118765
Y0119675
X0198268Y012075
X01986Y01216
X019935Y01224
X0200093Y0123476
X0199668Y01242
X0197143Y012095
X0210348Y0121368
X0211814Y0119136
X0210348Y0113076
X02187Y010365
X02231Y01042
X0200863Y0102693
X0187455Y0102925
Y0105
Y010875
X0189068Y01092
X0175097Y0108632
X0174579Y01078
X0176329Y0113614
X0177046Y0114452
Y0117825
X0177993Y011745
X0176469Y0121658
X0176693Y012255
X0180443Y012285
Y0123984
X0178418Y0126025
X0178138Y012695
X0179093Y0130675
X0181508Y012918
X0182857Y0133126
X0169318Y0127825
X0169464Y0126606
X0161668Y0128875
Y0129725
X0152195Y013044
X0152195Y0131789
X0152195Y0133223
Y013457
Y0128601
Y0126383
X0152104Y01093
X0152195Y0104109
Y0101439
X0171543Y0114925
X0172469Y0114713
X0140915Y0104479
Y0099519
X0131754Y0116575
X0127293Y0115364
X0125575Y0118265
X0116648Y011925
X0113189Y011812
X0114022Y0116655
X0113189Y0111719
Y01095
X0109543Y0114075
X0119768Y0114094
X0118875Y0112824
X011975Y0123425
X011735Y012395
X0113189Y0122945
Y012689
Y013037
Y013349
Y0136394
X0117857Y0135305
X0120768Y0137575
X0141009Y0137241
X013385Y0122325
X0103593Y0123396
Y0120235
X0099916Y011688
X0099843Y0111342
X0098433Y012679
X0103593Y0135832
Y0138512
X0099718Y014225
X0095086Y0143404
X0099868Y0148151
X0103593Y0152825
X0099768Y015735
X0099868Y016535
X0103593Y0161971
Y0170221
X0099118Y0172804
X0113189Y0173512
Y017611
X012015Y0173175
X01207Y01697
X0119043Y0167675
X0113189Y0165193
X0114047Y0162715
X0113966Y0161699
X0113189Y01578
Y015465
Y0148595
Y0142575
Y0140105
X0117817Y0139025
X0118761Y014368
X011977Y014501
X0122393Y0141425
X0131754Y0141589
Y0138754
Y0146628
Y0151427
Y015675
Y0162325
Y0166601
X012745Y0160225
X0127475Y0159232
X0123118Y0156875
X0120229Y0160153
X0118875Y0158905
X0109368Y0160175
X0109587Y014495
X0126768Y0146875
X0141Y0157775
Y0161975
X0140915Y0173644
Y0176443
X0152195Y0177453
Y0173135
Y0169927
X0152195Y0166594
X0152195Y0164325
Y0162327
Y0160275
Y0158012
Y0154754
X0148814Y0171011
X0160371Y0171941
X015913Y0167732
X0161641Y0176894
X0164736Y0174795
X0171842Y0170724
X0180132Y0168282
X0187455Y0166853
X0191875Y01631
X0193Y0162275
X0194325Y0161175
X019555Y0160575
X0196215Y0164236
X0195119Y01683
X0210487Y0168299
X0210348Y0166976
Y016505
X0210987Y0164043
X0210348Y0162689
Y0159017
Y0152504
X020585Y0151475
X02023Y0151875
X0201575Y01528
X0200475Y01482
X0195572Y0145979
X0194318Y0145975
X0193068
X0191818Y014595
X0190568Y0145952
X0187455Y0142496
X0187621Y0140337
X0195165Y014164
X0183593Y01467
X02218Y0147314
Y0150655
Y0154247
Y0157482
Y01606
X02191Y015835
X02171Y01558
X02218Y0143654
Y0139942
X022215Y0168325
X0210348Y0171482
Y0175281
X0227472Y0170389
Y0167825
Y0163461
Y0151625
X0233295Y0154175
X0234566
X0243302Y0153487
X0241407Y0151487
X0243302Y0147257
X0243762Y0144499
X0243302Y0142605
X0240722Y0139534
X0237777Y0141097
X023365Y0139225
X023125Y0139279
X023275Y0142817
X0230575Y0145954
X0243302Y0169775
Y01735
Y01813
Y018631
X0240225Y0178815
X0227472Y0181762
Y0183813
Y0186629
X0226374
X0227472Y019095
Y0199072
X0223325Y01814
X0216229Y0181971
X0210348Y0181971
Y017934
X02077Y018055
X0210348Y0185025
X0209215Y018823
X0211755Y0188352
X0206595Y0188107
X0210348Y0192947
Y0197419
Y0199264
X0187455Y0199341
Y0197407
Y0191691
Y0183698
X0158095Y0180675
X0153132Y0180704
X0152195Y0180172
Y0182914
Y0199482
X0140915Y0199329
Y019726
Y0194813
Y0191804
Y0189168
Y0182914
Y0180725
Y0178407
X0131754Y0184532
Y0186818
Y0193353
Y0199204
X0113189Y0199181
Y0196536
Y0193746
X0118875Y0188831
X01177Y01862
X0119275Y0183175
X0115634Y0181843
X0113189Y0179523
X0123543Y01839
X0123293Y01867
X0099699Y0188202
X0099512Y0191255
X0099943Y019485
X0103593Y0199143
X0094431Y0187334
T03
X0227472Y00917
X0138354Y0196478
T04
X0145715Y0187105
X0148255
X0153208
X0155748
X0158288
X0163495
X0166035
X0168575
X0173528
X0176068
X0178608
X0143175
T05
X0092744Y000324
Y0009406
Y0015307
Y0036725
Y0052212
Y0060958
Y0065659
X0092769Y0084872
X0116402Y0078438
X013357Y0069125
X0141569
X0151077
X0154798
X0158715
X0162264
X0166221
X0169947
X0173668
X0178
X01805Y0067025
X0182825Y00647
X0185158Y0061967
X0189254Y00596
X0194039
X0198687
X0204429
X0210348
X021646
X0092744Y0117514
Y0121994
Y0143293
Y015084
Y0157128
Y016671
X0158926Y0164575
X0162831
X0169464Y0164531
X0160906Y0193963
X0181684
X0092744Y019855
Y0187943
T06
X0103751Y009525
Y010525
T07
X00536Y0019675
X00636
X0063675Y0047
X0053675
X0053825Y006465
X0063825
X006385Y0092075
X005385
X0053625Y0124425
X0063625
X0063775Y0152025
X0053775
X0053675Y0169675
X0063675
Y0197075
X0053675
T08
X01387Y001925
X01437
X0201586Y0007385
X0203211
X0204836
X0206411
Y000571
X0204836
X0203211
X0201586
X0233945Y0026258
X023557
X0237195
X023877
Y0027933
X0237195
X023557
X0233945
X0195463Y0051303
X0193888
X0192263
X0190638
Y0052978
X0192263
X0193888
X0195463
Y0054628
X0193888
X0192263
X0190638
Y0056278
X0192263
X0193888
X0195463
X0154925Y00561
X015335
X0151725
X01501
Y005445
X0151725
X015335
X0154925
Y00528
X015335
X0151725
X01501
Y0051125
X0151725
X015335
X0154925
X0134575Y0048375
Y0043375
X013335Y0029375
X013185
X0131875Y0027875
X0133375
Y0026375
X0131875
X013035
Y0027875
X012885
Y0026375
X01288Y0024875
X01303
Y0023375
Y00219
X01288
Y0023375
X0131825
Y00219
X0133325
Y0023375
Y0024875
X0131825
X0130325Y0029375
X0128825
X0056993Y0028232
X0055418
X0053793
X0052168
Y0026582
X0053793
X0055418
X0056993
Y0024932
X0055418
X0053793
X0052168
Y0023257
X0053793
X0055418
X0056993
X0056193Y0068657
X0054618
X0052993
X0051368
Y0070332
X0052993
X0054618
X0056193
Y0071982
X0054618
X0052993
X0051368
Y0073632
X0052993
X0054618
X0056193
X0126825Y007295
X0128325
Y007145
X0126825
X0126775Y006995
X0128275
Y006845
Y0066975
X0126775
Y006845
X01298
Y0066975
X01313
Y006845
Y006995
X01298
X012985Y007145
Y007295
X013135
Y007145
X0131325Y007445
X0129825
X01283
X01268
X0125018Y00952
X0123443
X0121818
X0120193
Y009685
X0121818
X0123443
X0125018
X0137068Y009555
X0138693
X0140318
X0141893
Y00939
X0140318
X0138693
X0137068
Y009225
X0138693
X0140318
X0141893
Y0090575
X0140318
X0138693
X0137068
X016135Y008575
X0162975
X01646
X0166175
Y00841
X01646
X0162975
X016135
Y008245
X0162975
X01646
X0166175
Y0080775
X01646
X0162975
X016135
X0226675Y0128215
Y0130755
Y0133295
Y0135835
X0165073Y0136856
X0163398
X01308Y0133425
X01293
X0129325Y0131925
X0130825
Y0130425
X0129325
X01278
Y0131925
X01263
Y0130425
X012625Y0128925
X012775
Y0127425
Y012595
X012625
Y0127425
X0129275
Y012595
X0130775
Y0127425
Y0128925
X0129275
X0127775Y0133425
X0126275
X0121143Y0105875
X0119568
X0117943
X0116318
Y0104225
X0117943
X0119568
X0121143
Y0102575
X0119568
X0117943
X0116318
Y01009
X0116368Y009935
X0117993
X0117943Y01009
X0119568
X0121143
X0121193Y009935
X0119618
X0114718Y00994
X0113218Y009935
X0113168Y01009
X0114668Y010095
Y0102625
X0113168Y0102575
Y0104225
X0114668Y0104275
Y0105925
X0113168Y0105875
X0056193Y0127982
X0054618
X0052993
X0051368
Y0129657
X0052993
X0054618
X0056193
Y0131307
X0054618
X0052993
X0051368
Y0132957
X0052993
X0054618
X0056193
X0056568Y01747
X0054993
X0053368
X0051743
Y0176375
X0053368
X0054993
X0056568
Y0178025
X0054993
X0053368
X0051743
X01268Y0177
X01283
X0129825
X0131325
X0131275Y01755
Y0174
Y0172525
X0129775
Y0174
Y01755
X012825
Y0174
Y0172525
X012675
Y0174
Y01755
X0129025Y015455
X0124025
X0135992Y0147523
Y0145948
Y0144323
Y0142698
X0137667
Y0144323
Y0145948
Y0147523
X0163398Y0141681
Y0140106
Y0138481
X0165073
Y0140106
Y0141681
X0174713Y0147725
X0177253Y0147725
X0179793
X0182333
X0173782Y0174024
Y0176564
X0154224
Y0174024
X0186665Y0164084
Y0162509
Y0160884
Y0159259
X018834
Y0160884
Y0162509
Y0164084
X0187413Y0147725
X0184873Y0147725
X0241225Y017495
Y017749
Y018003
Y018257
Y018511
Y018765
X023165Y0194225
X022911
X022657
X022336
X022082
X021828
X0198674Y0193963
X0196134
X0193594
X0191054
X0188514
X0185974
X0177719
X0175179
X0172639
X0169464
X0166924
X0164384
X0157399
X0154859
X0152319
X0149144
X0146604
X0144064
X01313Y018
X01298
X0129825Y01785
X0131325
X01283
X01268
X0126775Y018
X0128275
X0056568Y0179675
X0054993
X0053368
X0051743
T09
X017352Y00039
X017606
X01786
X0180132Y0171103
Y0175675
X0187752
Y0171103
X0197785
Y0175675
X0205405
Y0171103
X0215438
Y0175675
X0223058
Y0171103
T10
X0174713Y0155748
X0177253
X0179793
X0182333
T11
X01643Y0004237
Y0014013
T12
X020612Y01258
Y012834
Y013088
Y013342
Y013596
X0214834Y0135939
Y0133399
Y0130859
Y0128319
Y0125779
X0214295Y0194217
X0211755
X0209215
X0206675
X0204135
T13
X0044451Y0010514
Y0013054
Y0015594
X0065117Y0015086
Y0012546
Y0010006
X0064834Y0037506
Y0040046
Y0042586
X0064317Y0055006
Y0057546
X0044451Y0058054
Y0055514
Y0043094
Y0040554
Y0038014
Y0060594
X0064317Y0060086
X0064217Y0082506
Y0085046
Y0087586
X0044451Y0088094
Y0085554
Y0083014
X0064617Y0115006
Y0117546
Y0120086
X0044451Y0120594
Y0118054
Y0115514
Y0143014
Y0145554
Y0148094
Y0160514
Y0163054
Y0165594
X0064117Y0147386
Y0144846
Y0142306
X0064417Y0160006
Y0162546
Y0165086
X0064317Y0187506
Y0190046
Y0192586
X0044451Y0193094
Y0190554
Y0188014
T14
X0124718Y0018757
X0211537Y0043916
X0214037
X0168825Y0030667
X0143875Y0043342
X013195Y0033625
X012535Y004825
X0101969Y0030875
X0106922Y00795
X0126718Y0077525
X012785Y0063775
X019475Y00923
X0209779Y0081953
Y0080048
Y0078143
X02289Y0113325
X019575Y0104325
X012705Y0122825
X0101718Y0137075
X0109525Y0153875
X0129488Y0146113
X0129225Y0168112
X0125218Y0169873
X0150469Y0172181
X0170023Y0171867
X0174825Y0162975
X0208225Y0142862
X0228079Y0139778
X023499Y0141097
X023712Y0144379
X022875Y01552
X02268Y0158625
X0232799Y0167199
X0232302Y0176342
X0230757Y0179815
X0233Y018257
X0176068Y0182914
X0171115
X0166035
X0160193
X0155748
X0145715
X013535Y0185675
X0104501Y01833
T15
X0054Y0013054
X0103868Y0010843
X0103593Y000676
X0109193Y0012775
X0126993Y0008455
X0126718Y0038401
X0126932Y0055825
X0109293Y0059002
X0108418Y0044724
X0103593Y0042065
Y0037966
X0103769Y0053859
X0103605Y005789
X0100596Y00194
X0059243Y0025875
X0054Y0058
X0058993Y007135
X0097983Y0063208
X0103694Y0083051
X0103715Y0086929
X0095368Y0086649
X0145256Y00814
X0190862Y0095445
X0195229Y0098675
X0205517Y0120125
X0141043Y0119425
X0126718Y0117025
X0109093Y0117702
X0103605Y0116025
X0103593Y0112106
X0101325Y0123875
X0058993Y01302
X0054Y0118054
Y0163054
X0058993Y0176775
X009715Y017035
X0103593Y016384
X0103718Y0158871
X0103605Y0147391
X0103768Y014355
X0109173Y014941
X0109693Y0164125
X013733Y0160275
X0126468Y01451
X0234827Y0189798
X0181684Y01963
X01269Y01857
X0106818Y0196648
X0103693Y0193481
Y0189088
T16
X01325Y00065
X01375
X01425
X01475
X0189875Y00062
X0194875
X02374Y0044075
Y0049075
X0240575Y0157275
Y0162275
Y0167275
T17
X00495Y00132
X0059Y00128
Y000635
X00495Y001965
Y0040691
Y0047141
Y0058054
X0059Y00578
Y005135
Y00408
Y003435
X00495Y0064504
Y0085525
Y0091975
X0059Y00858
Y007935
Y011135
Y01178
X00495Y0118075
Y0124525
Y01456
Y015205
Y0163175
Y0169625
X0059Y01638
Y015735
Y0145025
Y0138575
Y018435
Y01908
X00495Y0190525
Y0196975
T18
X0175933Y0009361
X0187218Y0116076
Y0136015
T19
X0200675Y0025125
Y0037125
T20
X0007Y0020775
Y0030775
X0017
Y0020775
Y0066275
X0007
Y0076275
X0017
X0223925Y0069725
Y0059725
X0233925
Y0069725
X0017Y0126725
X0007
Y0136725
X0017
Y0171125
X0007
Y0181125
X0017
T22
X0024258Y0013054
X008531Y0012546
X0085027Y0040046
X008451Y0057546
X0024258Y0058054
Y0040554
Y0085554
X008441Y0085046
X0132893Y0096339
X0162593Y0095
X0172593
X0125822Y0103411
X008481Y0117546
X0024258Y0118054
Y0145554
Y0163054
X008461Y0162546
X008431Y0144846
X008451Y0190046
X0024258Y0190554
T23
X0226671Y0044043
X0220829Y0043916
X0154674Y0121298
X0148832Y0121171
T24
X022375Y0020675
X0151753Y0144539
M30
