%TF.GenerationSoftware,Altium Limited,Altium Designer,21.6.4 (81)*%
G04 Layer_Color=8388736*
%FSLAX43Y43*%
%MOMM*%
%TF.SameCoordinates,B094594F-E5AE-4C03-B854-EF891E02AD71*%
%TF.FilePolarity,Negative*%
%TF.FileFunction,Soldermask,Top*%
%TF.Part,Single*%
G01*
G75*
%TA.AperFunction,SMDPad,CuDef*%
%ADD17R,0.600X0.600*%
%ADD18R,1.350X0.950*%
%ADD19R,1.508X1.157*%
%ADD20R,1.200X1.100*%
%ADD23R,2.000X4.000*%
%ADD24R,2.108X1.397*%
%TA.AperFunction,ComponentPad*%
%ADD60C,1.800*%
%ADD62C,1.550*%
%ADD63R,1.550X1.550*%
%ADD64R,1.600X1.600*%
%ADD65C,1.600*%
%ADD66C,1.300*%
%ADD67R,1.300X1.300*%
%ADD69C,2.500*%
%ADD79R,1.550X1.550*%
%ADD83R,1.200X1.200*%
%ADD84C,1.200*%
%TA.AperFunction,NonConductor*%
%ADD130C,0.254*%
%ADD161C,4.000*%
%ADD162C,3.000*%
%ADD163C,2.000*%
%ADD164C,5.000*%
%TA.AperFunction,ComponentPad*%
%ADD179C,2.489*%
%ADD180C,2.300*%
%ADD181C,2.250*%
G04:AMPARAMS|DCode=182|XSize=2.25mm|YSize=2.25mm|CornerRadius=0.638mm|HoleSize=0mm|Usage=FLASHONLY|Rotation=90.000|XOffset=0mm|YOffset=0mm|HoleType=Round|Shape=RoundedRectangle|*
%AMROUNDEDRECTD182*
21,1,2.250,0.975,0,0,90.0*
21,1,0.975,2.250,0,0,90.0*
1,1,1.275,0.488,0.488*
1,1,1.275,0.488,-0.488*
1,1,1.275,-0.488,-0.488*
1,1,1.275,-0.488,0.488*
%
%ADD182ROUNDEDRECTD182*%
%ADD183C,2.100*%
%ADD184O,5.888X5.380*%
%ADD185C,2.800*%
%ADD186C,6.650*%
G04:AMPARAMS|DCode=187|XSize=2.25mm|YSize=2.25mm|CornerRadius=0.638mm|HoleSize=0mm|Usage=FLASHONLY|Rotation=0.000|XOffset=0mm|YOffset=0mm|HoleType=Round|Shape=RoundedRectangle|*
%AMROUNDEDRECTD187*
21,1,2.250,0.975,0,0,0.0*
21,1,0.975,2.250,0,0,0.0*
1,1,1.275,0.488,-0.488*
1,1,1.275,-0.488,-0.488*
1,1,1.275,-0.488,0.488*
1,1,1.275,0.488,0.488*
%
%ADD187ROUNDEDRECTD187*%
%ADD188C,1.824*%
%ADD189O,5.380X9.190*%
%ADD190C,1.900*%
G04:AMPARAMS|DCode=191|XSize=1.9mm|YSize=1.9mm|CornerRadius=0.55mm|HoleSize=0mm|Usage=FLASHONLY|Rotation=270.000|XOffset=0mm|YOffset=0mm|HoleType=Round|Shape=RoundedRectangle|*
%AMROUNDEDRECTD191*
21,1,1.900,0.800,0,0,270.0*
21,1,0.800,1.900,0,0,270.0*
1,1,1.100,-0.400,-0.400*
1,1,1.100,-0.400,0.400*
1,1,1.100,0.400,0.400*
1,1,1.100,0.400,-0.400*
%
%ADD191ROUNDEDRECTD191*%
%ADD192O,5.126X6.650*%
%ADD193C,6.904*%
%ADD195C,3.348*%
%ADD196O,2.586X2.078*%
%ADD197C,4.872*%
%ADD198R,2.586X2.586*%
G04:AMPARAMS|DCode=199|XSize=1.9mm|YSize=1.9mm|CornerRadius=0.55mm|HoleSize=0mm|Usage=FLASHONLY|Rotation=180.000|XOffset=0mm|YOffset=0mm|HoleType=Round|Shape=RoundedRectangle|*
%AMROUNDEDRECTD199*
21,1,1.900,0.800,0,0,180.0*
21,1,0.800,1.900,0,0,180.0*
1,1,1.100,-0.400,0.400*
1,1,1.100,0.400,0.400*
1,1,1.100,0.400,-0.400*
1,1,1.100,-0.400,-0.400*
%
%ADD199ROUNDEDRECTD199*%
%ADD200R,1.800X1.800*%
%ADD201R,1.850X1.850*%
%ADD202C,1.850*%
%TA.AperFunction,ViaPad*%
%ADD203C,1.570*%
%ADD204C,1.300*%
%ADD205C,1.800*%
%TA.AperFunction,NonConductor*%
%ADD209R,20.066X10.668*%
%TA.AperFunction,SMDPad,CuDef*%
%ADD218R,2.800X5.800*%
%ADD219R,5.800X2.800*%
G04:AMPARAMS|DCode=220|XSize=5.8mm|YSize=2.8mm|CornerRadius=0mm|HoleSize=0mm|Usage=FLASHONLY|Rotation=225.000|XOffset=0mm|YOffset=0mm|HoleType=Round|Shape=Rectangle|*
%AMROTATEDRECTD220*
4,1,4,1.061,3.041,3.041,1.061,-1.061,-3.041,-3.041,-1.061,1.061,3.041,0.0*
%
%ADD220ROTATEDRECTD220*%

%ADD221R,9.800X4.050*%
%ADD222R,4.050X9.800*%
%ADD223R,1.200X1.150*%
%ADD224R,3.050X6.500*%
%TA.AperFunction,ComponentPad*%
%ADD225O,1.824X2.332*%
G36*
X79210Y25522D02*
X79220D01*
X79230Y25521D01*
X79254Y25517D01*
X79280Y25509D01*
X79306Y25498D01*
X79333Y25484D01*
X79356Y25464D01*
X79358Y25462D01*
X79364Y25453D01*
X79374Y25440D01*
X79378Y25431D01*
X79384Y25421D01*
X79390Y25408D01*
X79394Y25395D01*
X79399Y25381D01*
X79404Y25364D01*
X79406Y25347D01*
X79409Y25328D01*
X79412Y25308D01*
Y25285D01*
Y24800D01*
X79292D01*
Y25244D01*
Y25246D01*
Y25247D01*
Y25256D01*
Y25268D01*
X79291Y25284D01*
X79289Y25301D01*
X79288Y25318D01*
X79285Y25335D01*
X79281Y25347D01*
Y25349D01*
X79278Y25353D01*
X79275Y25359D01*
X79271Y25366D01*
X79265Y25374D01*
X79258Y25383D01*
X79250Y25391D01*
X79239Y25400D01*
X79237Y25401D01*
X79233Y25402D01*
X79227Y25405D01*
X79218Y25409D01*
X79208Y25414D01*
X79195Y25416D01*
X79182Y25418D01*
X79167Y25419D01*
X79160D01*
X79154Y25418D01*
X79140Y25416D01*
X79123Y25414D01*
X79103Y25407D01*
X79082Y25398D01*
X79061Y25385D01*
X79041Y25369D01*
X79040Y25366D01*
X79034Y25359D01*
X79026Y25347D01*
X79017Y25330D01*
X79007Y25308D01*
X79000Y25281D01*
X78995Y25249D01*
X78992Y25211D01*
Y24800D01*
X78872D01*
Y25259D01*
Y25260D01*
Y25263D01*
Y25266D01*
Y25271D01*
X78871Y25287D01*
X78868Y25304D01*
X78865Y25323D01*
X78859Y25343D01*
X78852Y25361D01*
X78843Y25378D01*
X78841Y25380D01*
X78837Y25385D01*
X78830Y25391D01*
X78820Y25400D01*
X78807Y25407D01*
X78790Y25414D01*
X78771Y25418D01*
X78747Y25419D01*
X78738D01*
X78728Y25418D01*
X78717Y25416D01*
X78703Y25412D01*
X78686Y25408D01*
X78671Y25401D01*
X78654Y25392D01*
X78652Y25391D01*
X78647Y25387D01*
X78640Y25381D01*
X78630Y25373D01*
X78620Y25361D01*
X78610Y25347D01*
X78600Y25332D01*
X78592Y25314D01*
X78590Y25311D01*
X78589Y25304D01*
X78586Y25292D01*
X78582Y25277D01*
X78578Y25256D01*
X78575Y25230D01*
X78573Y25201D01*
X78572Y25167D01*
Y24800D01*
X78452D01*
Y25508D01*
X78559D01*
Y25407D01*
X78561Y25409D01*
X78565Y25415D01*
X78573Y25425D01*
X78583Y25436D01*
X78596Y25450D01*
X78611Y25464D01*
X78628Y25478D01*
X78648Y25491D01*
X78651Y25493D01*
X78658Y25497D01*
X78669Y25501D01*
X78685Y25508D01*
X78703Y25514D01*
X78724Y25518D01*
X78748Y25522D01*
X78773Y25524D01*
X78786D01*
X78802Y25522D01*
X78819Y25519D01*
X78840Y25515D01*
X78861Y25509D01*
X78882Y25501D01*
X78902Y25490D01*
X78905Y25488D01*
X78910Y25484D01*
X78919Y25477D01*
X78930Y25466D01*
X78941Y25453D01*
X78954Y25438D01*
X78965Y25419D01*
X78974Y25398D01*
X78975Y25400D01*
X78978Y25404D01*
X78982Y25409D01*
X78989Y25418D01*
X78998Y25428D01*
X79007Y25438D01*
X79019Y25449D01*
X79033Y25462D01*
X79048Y25473D01*
X79064Y25484D01*
X79082Y25494D01*
X79102Y25504D01*
X79123Y25512D01*
X79146Y25518D01*
X79168Y25522D01*
X79194Y25524D01*
X79203D01*
X79210Y25522D01*
D02*
G37*
G36*
X78074D02*
X78084D01*
X78094Y25521D01*
X78118Y25517D01*
X78143Y25509D01*
X78170Y25498D01*
X78197Y25484D01*
X78219Y25464D01*
X78222Y25462D01*
X78228Y25453D01*
X78238Y25440D01*
X78242Y25431D01*
X78248Y25421D01*
X78253Y25408D01*
X78258Y25395D01*
X78263Y25381D01*
X78267Y25364D01*
X78270Y25347D01*
X78273Y25328D01*
X78276Y25308D01*
Y25285D01*
Y24800D01*
X78156D01*
Y25244D01*
Y25246D01*
Y25247D01*
Y25256D01*
Y25268D01*
X78155Y25284D01*
X78153Y25301D01*
X78152Y25318D01*
X78149Y25335D01*
X78145Y25347D01*
Y25349D01*
X78142Y25353D01*
X78139Y25359D01*
X78135Y25366D01*
X78129Y25374D01*
X78122Y25383D01*
X78114Y25391D01*
X78102Y25400D01*
X78101Y25401D01*
X78097Y25402D01*
X78091Y25405D01*
X78081Y25409D01*
X78071Y25414D01*
X78059Y25416D01*
X78046Y25418D01*
X78031Y25419D01*
X78024D01*
X78018Y25418D01*
X78004Y25416D01*
X77987Y25414D01*
X77967Y25407D01*
X77946Y25398D01*
X77925Y25385D01*
X77905Y25369D01*
X77904Y25366D01*
X77898Y25359D01*
X77890Y25347D01*
X77881Y25330D01*
X77871Y25308D01*
X77864Y25281D01*
X77859Y25249D01*
X77856Y25211D01*
Y24800D01*
X77736D01*
Y25259D01*
Y25260D01*
Y25263D01*
Y25266D01*
Y25271D01*
X77735Y25287D01*
X77732Y25304D01*
X77729Y25323D01*
X77723Y25343D01*
X77716Y25361D01*
X77706Y25378D01*
X77705Y25380D01*
X77701Y25385D01*
X77694Y25391D01*
X77684Y25400D01*
X77671Y25407D01*
X77654Y25414D01*
X77634Y25418D01*
X77610Y25419D01*
X77602D01*
X77592Y25418D01*
X77581Y25416D01*
X77567Y25412D01*
X77550Y25408D01*
X77534Y25401D01*
X77517Y25392D01*
X77516Y25391D01*
X77510Y25387D01*
X77503Y25381D01*
X77493Y25373D01*
X77484Y25361D01*
X77474Y25347D01*
X77464Y25332D01*
X77455Y25314D01*
X77454Y25311D01*
X77453Y25304D01*
X77450Y25292D01*
X77446Y25277D01*
X77441Y25256D01*
X77438Y25230D01*
X77437Y25201D01*
X77436Y25167D01*
Y24800D01*
X77316D01*
Y25508D01*
X77423D01*
Y25407D01*
X77424Y25409D01*
X77429Y25415D01*
X77437Y25425D01*
X77447Y25436D01*
X77460Y25450D01*
X77475Y25464D01*
X77492Y25478D01*
X77512Y25491D01*
X77515Y25493D01*
X77522Y25497D01*
X77533Y25501D01*
X77548Y25508D01*
X77567Y25514D01*
X77588Y25518D01*
X77612Y25522D01*
X77637Y25524D01*
X77650D01*
X77665Y25522D01*
X77682Y25519D01*
X77704Y25515D01*
X77725Y25509D01*
X77746Y25501D01*
X77766Y25490D01*
X77768Y25488D01*
X77774Y25484D01*
X77782Y25477D01*
X77794Y25466D01*
X77805Y25453D01*
X77818Y25438D01*
X77829Y25419D01*
X77837Y25398D01*
X77839Y25400D01*
X77842Y25404D01*
X77846Y25409D01*
X77853Y25418D01*
X77861Y25428D01*
X77871Y25438D01*
X77883Y25449D01*
X77897Y25462D01*
X77912Y25473D01*
X77928Y25484D01*
X77946Y25494D01*
X77966Y25504D01*
X77987Y25512D01*
X78009Y25518D01*
X78032Y25522D01*
X78057Y25524D01*
X78067D01*
X78074Y25522D01*
D02*
G37*
G36*
X77126Y25649D02*
X76735D01*
X76683Y25385D01*
X76684Y25387D01*
X76687Y25388D01*
X76691Y25391D01*
X76698Y25395D01*
X76707Y25400D01*
X76717Y25405D01*
X76739Y25416D01*
X76767Y25428D01*
X76798Y25438D01*
X76832Y25445D01*
X76849Y25447D01*
X76880D01*
X76889Y25446D01*
X76900Y25445D01*
X76913Y25443D01*
X76927Y25440D01*
X76942Y25436D01*
X76976Y25426D01*
X76994Y25419D01*
X77013Y25409D01*
X77031Y25400D01*
X77049Y25388D01*
X77066Y25374D01*
X77083Y25359D01*
X77085Y25357D01*
X77087Y25354D01*
X77092Y25350D01*
X77097Y25343D01*
X77104Y25333D01*
X77111Y25323D01*
X77120Y25311D01*
X77128Y25297D01*
X77135Y25281D01*
X77144Y25264D01*
X77151Y25244D01*
X77158Y25225D01*
X77164Y25204D01*
X77168Y25180D01*
X77171Y25156D01*
X77172Y25130D01*
Y25129D01*
Y25125D01*
Y25118D01*
X77171Y25108D01*
X77169Y25096D01*
X77168Y25084D01*
X77165Y25068D01*
X77162Y25053D01*
X77154Y25016D01*
X77140Y24978D01*
X77131Y24958D01*
X77120Y24940D01*
X77109Y24920D01*
X77095Y24902D01*
X77093Y24900D01*
X77090Y24896D01*
X77085Y24891D01*
X77078Y24884D01*
X77068Y24875D01*
X77056Y24864D01*
X77042Y24854D01*
X77027Y24843D01*
X77010Y24831D01*
X76990Y24822D01*
X76969Y24812D01*
X76947Y24802D01*
X76923Y24795D01*
X76896Y24789D01*
X76868Y24785D01*
X76838Y24783D01*
X76825D01*
X76815Y24785D01*
X76804Y24786D01*
X76791Y24788D01*
X76776Y24789D01*
X76760Y24793D01*
X76725Y24802D01*
X76690Y24815D01*
X76672Y24823D01*
X76653Y24833D01*
X76636Y24844D01*
X76619Y24857D01*
X76618Y24858D01*
X76615Y24860D01*
X76612Y24865D01*
X76607Y24871D01*
X76600Y24878D01*
X76593Y24886D01*
X76584Y24898D01*
X76577Y24910D01*
X76569Y24923D01*
X76560Y24939D01*
X76545Y24972D01*
X76532Y25012D01*
X76528Y25033D01*
X76525Y25056D01*
X76650Y25065D01*
Y25064D01*
Y25061D01*
X76652Y25057D01*
X76653Y25050D01*
X76658Y25034D01*
X76663Y25013D01*
X76672Y24992D01*
X76683Y24968D01*
X76697Y24947D01*
X76714Y24927D01*
X76717Y24926D01*
X76722Y24920D01*
X76734Y24913D01*
X76749Y24905D01*
X76766Y24896D01*
X76787Y24889D01*
X76811Y24884D01*
X76838Y24882D01*
X76846D01*
X76852Y24884D01*
X76869Y24885D01*
X76889Y24891D01*
X76913Y24898D01*
X76937Y24909D01*
X76962Y24926D01*
X76973Y24936D01*
X76985Y24947D01*
X76986Y24948D01*
X76987Y24950D01*
X76990Y24954D01*
X76994Y24958D01*
X77004Y24974D01*
X77016Y24994D01*
X77025Y25017D01*
X77035Y25047D01*
X77042Y25082D01*
X77045Y25101D01*
Y25120D01*
Y25122D01*
Y25125D01*
Y25130D01*
X77044Y25137D01*
Y25146D01*
X77042Y25156D01*
X77038Y25178D01*
X77031Y25205D01*
X77021Y25232D01*
X77007Y25257D01*
X76987Y25281D01*
Y25283D01*
X76985Y25284D01*
X76978Y25291D01*
X76965Y25301D01*
X76948Y25312D01*
X76925Y25322D01*
X76900Y25332D01*
X76870Y25339D01*
X76853Y25342D01*
X76827D01*
X76815Y25340D01*
X76801Y25339D01*
X76784Y25335D01*
X76767Y25330D01*
X76749Y25323D01*
X76731Y25315D01*
X76729Y25314D01*
X76724Y25311D01*
X76715Y25304D01*
X76704Y25297D01*
X76693Y25287D01*
X76681Y25274D01*
X76669Y25261D01*
X76659Y25246D01*
X76546Y25261D01*
X76641Y25763D01*
X77126D01*
Y25649D01*
D02*
G37*
D17*
X211775Y87925D02*
D03*
Y90125D02*
D03*
D18*
X209800Y93150D02*
D03*
Y91650D02*
D03*
D19*
X214850Y148526D02*
D03*
Y146374D02*
D03*
X200675Y43501D02*
D03*
Y41349D02*
D03*
X217483Y186476D02*
D03*
Y184324D02*
D03*
D20*
X214825Y141509D02*
D03*
Y143609D02*
D03*
X211755Y184350D02*
D03*
Y186450D02*
D03*
X209215D02*
D03*
Y184350D02*
D03*
X206675Y186450D02*
D03*
Y184350D02*
D03*
X214920Y186575D02*
D03*
Y184475D02*
D03*
D23*
X156125Y4550D02*
D03*
Y11650D02*
D03*
D24*
X206142Y175624D02*
D03*
Y171154D02*
D03*
X197048D02*
D03*
Y175624D02*
D03*
X188489D02*
D03*
Y171154D02*
D03*
X179395D02*
D03*
Y175624D02*
D03*
X223795D02*
D03*
Y171154D02*
D03*
X214701D02*
D03*
Y175624D02*
D03*
D60*
X166924Y193963D02*
D03*
X164384D02*
D03*
X144064D02*
D03*
X146604D02*
D03*
X172639D02*
D03*
X175179D02*
D03*
X154859D02*
D03*
X152319D02*
D03*
X226570Y194225D02*
D03*
X229110D02*
D03*
X218280D02*
D03*
X220820D02*
D03*
D62*
X226675Y135835D02*
D03*
Y133295D02*
D03*
Y130755D02*
D03*
X187413Y147725D02*
D03*
X184873Y147725D02*
D03*
X182333D02*
D03*
X179793D02*
D03*
X177253D02*
D03*
X188514Y193963D02*
D03*
X191054D02*
D03*
X193594D02*
D03*
X196134D02*
D03*
X198674D02*
D03*
X241225Y174950D02*
D03*
Y177490D02*
D03*
Y180030D02*
D03*
Y182570D02*
D03*
Y185110D02*
D03*
D63*
X226675Y128215D02*
D03*
X241225Y187650D02*
D03*
D64*
X164300Y4237D02*
D03*
D65*
Y14013D02*
D03*
D66*
X103751Y95250D02*
D03*
D67*
Y105250D02*
D03*
D69*
X49500Y64504D02*
D03*
Y58054D02*
D03*
Y169625D02*
D03*
Y163175D02*
D03*
X59000Y51350D02*
D03*
Y57800D02*
D03*
Y163800D02*
D03*
Y157350D02*
D03*
X49500Y190525D02*
D03*
Y196975D02*
D03*
Y91975D02*
D03*
Y85525D02*
D03*
X59000Y190800D02*
D03*
Y184350D02*
D03*
Y79350D02*
D03*
Y85800D02*
D03*
X49500Y124525D02*
D03*
Y118075D02*
D03*
Y19650D02*
D03*
Y13200D02*
D03*
X59000Y117800D02*
D03*
Y111350D02*
D03*
Y6350D02*
D03*
Y12800D02*
D03*
X49500Y40691D02*
D03*
Y47141D02*
D03*
Y152050D02*
D03*
Y145600D02*
D03*
X59000Y145025D02*
D03*
Y138575D02*
D03*
Y34350D02*
D03*
Y40800D02*
D03*
D79*
X174713Y147725D02*
D03*
X185974Y193963D02*
D03*
D83*
X163495Y187105D02*
D03*
X143175D02*
D03*
X173528D02*
D03*
X153208D02*
D03*
D84*
X166035D02*
D03*
X168575D02*
D03*
X145715D02*
D03*
X148255D02*
D03*
X176068D02*
D03*
X178608D02*
D03*
X155748D02*
D03*
X158288D02*
D03*
D130*
X223800Y59600D02*
X223925Y59725D01*
D161*
X162593Y69454D02*
Y95000D01*
X151859Y69125D02*
X178113Y69125D01*
X187637Y59600D01*
X209488D01*
X223800D01*
X223925Y59725D02*
X233925D01*
D162*
X154450Y117025D02*
Y119850D01*
X148250Y122125D02*
X148768D01*
X125468Y103525D02*
X125864Y103129D01*
X129254D01*
X148250Y122125D01*
X125468Y103525D02*
X126396D01*
X154450Y117025D02*
X177525Y93950D01*
Y83168D02*
Y93950D01*
Y83168D02*
X185535Y75158D01*
X189193D01*
D163*
X60569Y115006D02*
X64617D01*
D164*
X117575Y25450D02*
X130283Y25478D01*
X117225Y70800D02*
X129529Y70914D01*
X117198Y130034D02*
X128875Y130100D01*
X117425Y176788D02*
X129350Y176800D01*
X59644Y176730D02*
X106576D01*
X59344Y130205D02*
X106276D01*
X59244Y70905D02*
X106176D01*
X60068Y25450D02*
X107000D01*
X188189Y84636D02*
X194002D01*
X208913Y69725D01*
X233925D01*
D179*
X126718Y77525D02*
D03*
X109525Y153875D02*
D03*
X131950Y33625D02*
D03*
X143875Y43342D02*
D03*
X129225Y168112D02*
D03*
X194750Y92300D02*
D03*
X127850Y63775D02*
D03*
X125218Y169873D02*
D03*
X135350Y185675D02*
D03*
X124718Y18757D02*
D03*
X127050Y122825D02*
D03*
X125350Y48250D02*
D03*
X129488Y146113D02*
D03*
X101969Y30875D02*
D03*
X101718Y137075D02*
D03*
X106922Y79500D02*
D03*
X104501Y183300D02*
D03*
X174825Y162975D02*
D03*
X228900Y113325D02*
D03*
X195750Y104325D02*
D03*
X168825Y30667D02*
D03*
X226800Y158625D02*
D03*
X233000Y182570D02*
D03*
X237120Y144379D02*
D03*
X234990Y141097D02*
D03*
X232799Y167199D02*
D03*
X230757Y179815D02*
D03*
X232302Y176342D02*
D03*
X228750Y155200D02*
D03*
X208225Y142862D02*
D03*
X228079Y139778D02*
D03*
X103718Y158871D02*
D03*
X103593Y6760D02*
D03*
X103693Y189088D02*
D03*
X103694Y83051D02*
D03*
X103768Y143550D02*
D03*
X103593Y37966D02*
D03*
X58993Y176775D02*
D03*
Y71350D02*
D03*
Y130200D02*
D03*
X59243Y25875D02*
D03*
X141043Y119425D02*
D03*
X97150Y170350D02*
D03*
X97983Y63208D02*
D03*
X103769Y53859D02*
D03*
X54000Y163054D02*
D03*
Y58000D02*
D03*
X137330Y160275D02*
D03*
X126932Y55825D02*
D03*
X103593Y163840D02*
D03*
X103605Y57890D02*
D03*
X109693Y164125D02*
D03*
X109293Y59002D02*
D03*
X126900Y185700D02*
D03*
X145256Y81400D02*
D03*
X103693Y193481D02*
D03*
X103715Y86929D02*
D03*
X106818Y196648D02*
D03*
X95368Y86649D02*
D03*
X101325Y123875D02*
D03*
X100596Y19400D02*
D03*
X103593Y112106D02*
D03*
X54000Y118054D02*
D03*
Y13054D02*
D03*
X126718Y117025D02*
D03*
X126993Y8455D02*
D03*
X103605Y116025D02*
D03*
X103868Y10843D02*
D03*
X109093Y117702D02*
D03*
X109193Y12775D02*
D03*
X126468Y145100D02*
D03*
X126718Y38401D02*
D03*
X103605Y147391D02*
D03*
X103593Y42065D02*
D03*
X109173Y149410D02*
D03*
X108418Y44724D02*
D03*
X166035Y182914D02*
D03*
X145715D02*
D03*
X176068D02*
D03*
X155748D02*
D03*
X170023Y171867D02*
D03*
X150469Y172181D02*
D03*
X171115Y182914D02*
D03*
X160193D02*
D03*
X181684Y196300D02*
D03*
X234827Y189798D02*
D03*
X195229Y98675D02*
D03*
X205517Y120125D02*
D03*
X190862Y95445D02*
D03*
D180*
X138700Y19250D02*
D03*
X143700D02*
D03*
X129025Y154550D02*
D03*
X124025D02*
D03*
X134575Y43375D02*
D03*
Y48375D02*
D03*
D181*
X240575Y167275D02*
D03*
Y162275D02*
D03*
X137500Y6500D02*
D03*
X194875Y6200D02*
D03*
X237400Y49075D02*
D03*
X147500Y6500D02*
D03*
D182*
X240575Y157275D02*
D03*
X237400Y44075D02*
D03*
D183*
X63850Y92075D02*
D03*
X53850D02*
D03*
X63675Y197075D02*
D03*
X53675D02*
D03*
X63675Y169675D02*
D03*
X53675D02*
D03*
X63825Y64650D02*
D03*
X53825D02*
D03*
X63625Y124425D02*
D03*
X53625D02*
D03*
X63600Y19675D02*
D03*
X53600D02*
D03*
X63775Y152025D02*
D03*
X53775D02*
D03*
X63675Y47000D02*
D03*
X53675D02*
D03*
D184*
X7000Y181125D02*
D03*
Y171125D02*
D03*
X17000D02*
D03*
Y181125D02*
D03*
X7000Y76275D02*
D03*
Y66275D02*
D03*
X17000D02*
D03*
Y76275D02*
D03*
X7000Y136725D02*
D03*
Y126725D02*
D03*
X17000D02*
D03*
Y136725D02*
D03*
X7000Y30775D02*
D03*
Y20775D02*
D03*
X17000D02*
D03*
Y30775D02*
D03*
X223925Y59725D02*
D03*
Y69725D02*
D03*
X233925D02*
D03*
Y59725D02*
D03*
D185*
X200675Y25125D02*
D03*
Y37125D02*
D03*
D186*
X132893Y96339D02*
D03*
X125822Y103411D02*
D03*
X162593Y95000D02*
D03*
X172593D02*
D03*
D187*
X132500Y6500D02*
D03*
X189875Y6200D02*
D03*
X142500Y6500D02*
D03*
D188*
X209779Y81953D02*
D03*
Y80048D02*
D03*
Y78143D02*
D03*
X214037Y43916D02*
D03*
X211537D02*
D03*
D189*
X188316Y84874D02*
D03*
X188189Y74968D02*
D03*
D190*
X214834Y130859D02*
D03*
Y133399D02*
D03*
Y128319D02*
D03*
Y125779D02*
D03*
X204135Y194217D02*
D03*
X206675D02*
D03*
X211755D02*
D03*
X209215D02*
D03*
X206120Y125800D02*
D03*
Y128340D02*
D03*
Y133420D02*
D03*
Y130880D02*
D03*
X173782Y174024D02*
D03*
Y176564D02*
D03*
X154224Y174024D02*
D03*
Y176564D02*
D03*
D191*
X214834Y135939D02*
D03*
X206120Y135960D02*
D03*
D192*
X154674Y121298D02*
D03*
X148832Y121171D02*
D03*
X226671Y44043D02*
D03*
X220829Y43916D02*
D03*
D193*
X151753Y144539D02*
D03*
X223750Y20675D02*
D03*
D195*
X175933Y9361D02*
D03*
X187218Y116076D02*
D03*
Y136015D02*
D03*
D196*
X44451Y165594D02*
D03*
Y163054D02*
D03*
Y160514D02*
D03*
Y55514D02*
D03*
Y58054D02*
D03*
Y60594D02*
D03*
X64417Y160006D02*
D03*
Y162546D02*
D03*
Y165086D02*
D03*
X64317Y60086D02*
D03*
Y57546D02*
D03*
Y55006D02*
D03*
X44451Y193094D02*
D03*
Y190554D02*
D03*
Y188014D02*
D03*
Y88094D02*
D03*
Y85554D02*
D03*
Y83014D02*
D03*
Y15594D02*
D03*
Y13054D02*
D03*
Y10514D02*
D03*
X64317Y187506D02*
D03*
Y190046D02*
D03*
Y192586D02*
D03*
X64217Y82506D02*
D03*
Y85046D02*
D03*
Y87586D02*
D03*
X65117Y15086D02*
D03*
Y12546D02*
D03*
Y10006D02*
D03*
X44451Y115514D02*
D03*
Y118054D02*
D03*
Y120594D02*
D03*
X64617Y120086D02*
D03*
Y117546D02*
D03*
Y115006D02*
D03*
X44451Y43094D02*
D03*
Y40554D02*
D03*
Y38014D02*
D03*
Y143014D02*
D03*
Y145554D02*
D03*
Y148094D02*
D03*
X64117Y147386D02*
D03*
Y144846D02*
D03*
Y142306D02*
D03*
X64834Y42586D02*
D03*
Y40046D02*
D03*
Y37506D02*
D03*
D197*
X24258Y163054D02*
D03*
Y58054D02*
D03*
X84610Y162546D02*
D03*
X84510Y57546D02*
D03*
X24258Y190554D02*
D03*
Y85554D02*
D03*
Y13054D02*
D03*
X84510Y190046D02*
D03*
X84410Y85046D02*
D03*
X85310Y12546D02*
D03*
X24258Y118054D02*
D03*
X84810Y117546D02*
D03*
X24258Y40554D02*
D03*
Y145554D02*
D03*
X84310Y144846D02*
D03*
X85027Y40046D02*
D03*
D198*
X197785Y175675D02*
D03*
Y171103D02*
D03*
X205405D02*
D03*
Y175675D02*
D03*
X180132D02*
D03*
Y171103D02*
D03*
X187752D02*
D03*
Y175675D02*
D03*
X215438D02*
D03*
Y171103D02*
D03*
X223058D02*
D03*
Y175675D02*
D03*
D199*
X214295Y194217D02*
D03*
D200*
X169464Y193963D02*
D03*
X149144D02*
D03*
X177719D02*
D03*
X157399D02*
D03*
X231650Y194225D02*
D03*
X223360D02*
D03*
D201*
X174713Y155748D02*
D03*
D202*
X177253D02*
D03*
X179793D02*
D03*
X182333D02*
D03*
D203*
X151077Y69125D02*
D03*
X154798D02*
D03*
X158715D02*
D03*
X162264D02*
D03*
X166221D02*
D03*
X169947D02*
D03*
X173668D02*
D03*
X178000D02*
D03*
X180500Y67025D02*
D03*
X182825Y64700D02*
D03*
X185158Y61967D02*
D03*
X189254Y59600D02*
D03*
X194039D02*
D03*
X198687D02*
D03*
X204429D02*
D03*
X210348D02*
D03*
X216460D02*
D03*
D204*
X227472Y91700D02*
D03*
X138354Y196478D02*
D03*
D205*
X131300Y66975D02*
D03*
Y68450D02*
D03*
Y69950D02*
D03*
X129800Y66975D02*
D03*
X129275Y125950D02*
D03*
X126825Y72950D02*
D03*
X126800Y74450D02*
D03*
X128325Y72950D02*
D03*
X128300Y74450D02*
D03*
X126825Y71450D02*
D03*
X133350Y29375D02*
D03*
X128825D02*
D03*
X130325D02*
D03*
X131850D02*
D03*
X131875Y27875D02*
D03*
X130350D02*
D03*
X128850D02*
D03*
X133375D02*
D03*
X131875Y26375D02*
D03*
X130350D02*
D03*
X128850D02*
D03*
X133375D02*
D03*
X131825Y24875D02*
D03*
X130300D02*
D03*
X128800D02*
D03*
X133325D02*
D03*
X131825Y23375D02*
D03*
X130300D02*
D03*
X128800D02*
D03*
X133325D02*
D03*
X131825Y21900D02*
D03*
X130300D02*
D03*
X128800D02*
D03*
X133325D02*
D03*
X131325Y74450D02*
D03*
X129825D02*
D03*
X129850Y72950D02*
D03*
X131350D02*
D03*
X129850Y71450D02*
D03*
X128325D02*
D03*
X131350D02*
D03*
X129800Y69950D02*
D03*
X128275D02*
D03*
X126775D02*
D03*
X129800Y68450D02*
D03*
X128275D02*
D03*
X126775D02*
D03*
X128275Y66975D02*
D03*
X126775D02*
D03*
X130800Y133425D02*
D03*
X126275D02*
D03*
X127775D02*
D03*
X129300D02*
D03*
X129325Y131925D02*
D03*
X127800D02*
D03*
X126300D02*
D03*
X130825D02*
D03*
X129325Y130425D02*
D03*
X127800D02*
D03*
X126300D02*
D03*
X130825D02*
D03*
X129275Y128925D02*
D03*
X127750D02*
D03*
X126250D02*
D03*
X130775D02*
D03*
X129275Y127425D02*
D03*
X127750D02*
D03*
X126250D02*
D03*
X130775D02*
D03*
X127750Y125950D02*
D03*
X126250D02*
D03*
X130775D02*
D03*
X131275Y172525D02*
D03*
X126750D02*
D03*
X128250D02*
D03*
X129775D02*
D03*
X131275Y174000D02*
D03*
X126750D02*
D03*
X128250D02*
D03*
X129775D02*
D03*
X131275Y175500D02*
D03*
X126750D02*
D03*
X128250D02*
D03*
X129775D02*
D03*
X131325Y177000D02*
D03*
X126800D02*
D03*
X128300D02*
D03*
X129825D02*
D03*
X131325Y178500D02*
D03*
X126800D02*
D03*
X128300D02*
D03*
X129825D02*
D03*
X129800Y180000D02*
D03*
X128275D02*
D03*
X126775D02*
D03*
X131300D02*
D03*
D209*
X30862Y163054D02*
D03*
X78005Y162546D02*
D03*
X30862Y190554D02*
D03*
Y13054D02*
D03*
X77905Y190046D02*
D03*
X30862Y145555D02*
D03*
X77707Y144846D02*
D03*
X30862Y58053D02*
D03*
X77906Y57546D02*
D03*
X30862Y85553D02*
D03*
X77806Y85046D02*
D03*
X78706Y12546D02*
D03*
X30862Y118053D02*
D03*
X78206Y117546D02*
D03*
X30862Y40553D02*
D03*
X78422Y40046D02*
D03*
D218*
X114299Y187762D02*
D03*
Y196762D02*
D03*
D219*
X151700Y22850D02*
D03*
X160700D02*
D03*
X225500Y104350D02*
D03*
X216500D02*
D03*
Y91700D02*
D03*
X225500D02*
D03*
X191350Y22550D02*
D03*
X182350D02*
D03*
X232000Y104350D02*
D03*
X241000D02*
D03*
D220*
X208788Y111031D02*
D03*
X202425Y104667D02*
D03*
D221*
X131754Y190228D02*
D03*
Y196478D02*
D03*
X236575Y94350D02*
D03*
Y88100D02*
D03*
X219564Y112961D02*
D03*
Y119211D02*
D03*
X202943Y91525D02*
D03*
Y97775D02*
D03*
D222*
X143875Y32125D02*
D03*
X137625D02*
D03*
X142350Y167275D02*
D03*
X136100D02*
D03*
X168714Y22550D02*
D03*
X174964D02*
D03*
D223*
X200675Y47576D02*
D03*
Y46026D02*
D03*
D224*
X116200Y70975D02*
D03*
X107800D02*
D03*
X116200Y176812D02*
D03*
X107800D02*
D03*
X116200Y130190D02*
D03*
X107800D02*
D03*
X116200Y25450D02*
D03*
X107800D02*
D03*
D225*
X173520Y3900D02*
D03*
X176060D02*
D03*
X178600D02*
D03*
%TF.MD5,65d78253322a3785b68acc1c731368b2*%
M02*
