%TF.GenerationSoftware,Altium Limited,Altium Designer,21.6.4 (81)*%
G04 Layer_Color=255*
%FSLAX43Y43*%
%MOMM*%
%TF.SameCoordinates,B094594F-E5AE-4C03-B854-EF891E02AD71*%
%TF.FilePolarity,Positive*%
%TF.FileFunction,Pads,Bot*%
%TF.Part,Single*%
G01*
G75*
%TA.AperFunction,SMDPad,CuDef*%
%ADD18R,1.350X0.950*%
%ADD19R,1.508X1.157*%
%TA.AperFunction,ComponentPad*%
%ADD56C,2.286*%
%ADD57C,2.000*%
%ADD58C,1.950*%
G04:AMPARAMS|DCode=59|XSize=1.95mm|YSize=1.95mm|CornerRadius=0.488mm|HoleSize=0mm|Usage=FLASHONLY|Rotation=90.000|XOffset=0mm|YOffset=0mm|HoleType=Round|Shape=RoundedRectangle|*
%AMROUNDEDRECTD59*
21,1,1.950,0.975,0,0,90.0*
21,1,0.975,1.950,0,0,90.0*
1,1,0.975,0.488,0.488*
1,1,0.975,0.488,-0.488*
1,1,0.975,-0.488,-0.488*
1,1,0.975,-0.488,0.488*
%
%ADD59ROUNDEDRECTD59*%
%ADD60C,1.800*%
%ADD61C,2.200*%
%ADD62C,1.550*%
%ADD63R,1.550X1.550*%
%ADD64R,1.600X1.600*%
%ADD65C,1.600*%
%ADD66C,1.300*%
%ADD67R,1.300X1.300*%
%ADD68O,5.588X5.080*%
%ADD69C,2.500*%
%ADD70C,6.350*%
G04:AMPARAMS|DCode=71|XSize=1.95mm|YSize=1.95mm|CornerRadius=0.488mm|HoleSize=0mm|Usage=FLASHONLY|Rotation=0.000|XOffset=0mm|YOffset=0mm|HoleType=Round|Shape=RoundedRectangle|*
%AMROUNDEDRECTD71*
21,1,1.950,0.975,0,0,0.0*
21,1,0.975,1.950,0,0,0.0*
1,1,0.975,0.488,-0.488*
1,1,0.975,-0.488,-0.488*
1,1,0.975,-0.488,0.488*
1,1,0.975,0.488,0.488*
%
%ADD71ROUNDEDRECTD71*%
%ADD72C,1.524*%
%ADD73O,5.080X8.890*%
G04:AMPARAMS|DCode=74|XSize=1.6mm|YSize=1.6mm|CornerRadius=0.4mm|HoleSize=0mm|Usage=FLASHONLY|Rotation=270.000|XOffset=0mm|YOffset=0mm|HoleType=Round|Shape=RoundedRectangle|*
%AMROUNDEDRECTD74*
21,1,1.600,0.800,0,0,270.0*
21,1,0.800,1.600,0,0,270.0*
1,1,0.800,-0.400,-0.400*
1,1,0.800,-0.400,0.400*
1,1,0.800,0.400,0.400*
1,1,0.800,0.400,-0.400*
%
%ADD74ROUNDEDRECTD74*%
%ADD75O,4.826X6.350*%
%ADD76C,6.604*%
%ADD78C,3.048*%
%ADD79R,1.550X1.550*%
%ADD80O,2.286X1.778*%
%ADD81C,4.572*%
%ADD82R,2.286X2.286*%
%ADD83R,1.200X1.200*%
%ADD84C,1.200*%
G04:AMPARAMS|DCode=85|XSize=1.6mm|YSize=1.6mm|CornerRadius=0.4mm|HoleSize=0mm|Usage=FLASHONLY|Rotation=180.000|XOffset=0mm|YOffset=0mm|HoleType=Round|Shape=RoundedRectangle|*
%AMROUNDEDRECTD85*
21,1,1.600,0.800,0,0,180.0*
21,1,0.800,1.600,0,0,180.0*
1,1,0.800,-0.400,0.400*
1,1,0.800,0.400,0.400*
1,1,0.800,0.400,-0.400*
1,1,0.800,-0.400,-0.400*
%
%ADD85ROUNDEDRECTD85*%
%ADD86R,1.500X1.500*%
%ADD87C,1.500*%
%TA.AperFunction,SMDPad,CuDef*%
%ADD96R,1.508X1.207*%
%ADD97R,1.157X1.508*%
%ADD98R,2.450X3.400*%
%ADD99R,2.500X2.300*%
%ADD100R,1.207X1.508*%
%ADD101R,0.950X1.350*%
%ADD102R,2.300X2.500*%
%ADD103R,0.650X1.525*%
%ADD104R,0.757X1.308*%
%ADD105R,1.308X0.757*%
%ADD106R,1.300X1.800*%
%ADD107R,1.800X1.300*%
%ADD108R,1.450X1.800*%
%ADD109R,1.250X2.000*%
%ADD110R,0.900X0.650*%
G04:AMPARAMS|DCode=111|XSize=1.25mm|YSize=2mm|CornerRadius=0mm|HoleSize=0mm|Usage=FLASHONLY|Rotation=225.000|XOffset=0mm|YOffset=0mm|HoleType=Round|Shape=Rectangle|*
%AMROTATEDRECTD111*
4,1,4,-0.265,1.149,1.149,-0.265,0.265,-1.149,-1.149,0.265,-0.265,1.149,0.0*
%
%ADD111ROTATEDRECTD111*%

%ADD112R,2.270X0.558*%
G04:AMPARAMS|DCode=113|XSize=1.194mm|YSize=0.305mm|CornerRadius=0mm|HoleSize=0mm|Usage=FLASHONLY|Rotation=225.000|XOffset=0mm|YOffset=0mm|HoleType=Round|Shape=Rectangle|*
%AMROTATEDRECTD113*
4,1,4,0.314,0.530,0.530,0.314,-0.314,-0.530,-0.530,-0.314,0.314,0.530,0.0*
%
%ADD113ROTATEDRECTD113*%

G04:AMPARAMS|DCode=114|XSize=1.194mm|YSize=0.305mm|CornerRadius=0mm|HoleSize=0mm|Usage=FLASHONLY|Rotation=135.000|XOffset=0mm|YOffset=0mm|HoleType=Round|Shape=Rectangle|*
%AMROTATEDRECTD114*
4,1,4,0.530,-0.314,0.314,-0.530,-0.530,0.314,-0.314,0.530,0.530,-0.314,0.0*
%
%ADD114ROTATEDRECTD114*%

%ADD115O,0.700X2.600*%
G04:AMPARAMS|DCode=116|XSize=0.9mm|YSize=1.45mm|CornerRadius=0.05mm|HoleSize=0mm|Usage=FLASHONLY|Rotation=90.000|XOffset=0mm|YOffset=0mm|HoleType=Round|Shape=RoundedRectangle|*
%AMROUNDEDRECTD116*
21,1,0.900,1.351,0,0,90.0*
21,1,0.801,1.450,0,0,90.0*
1,1,0.099,0.676,0.401*
1,1,0.099,0.676,-0.401*
1,1,0.099,-0.676,-0.401*
1,1,0.099,-0.676,0.401*
%
%ADD116ROUNDEDRECTD116*%
G04:AMPARAMS|DCode=117|XSize=3.15mm|YSize=1.45mm|CornerRadius=0.051mm|HoleSize=0mm|Usage=FLASHONLY|Rotation=90.000|XOffset=0mm|YOffset=0mm|HoleType=Round|Shape=RoundedRectangle|*
%AMROUNDEDRECTD117*
21,1,3.150,1.349,0,0,90.0*
21,1,3.049,1.450,0,0,90.0*
1,1,0.102,0.674,1.524*
1,1,0.102,0.674,-1.524*
1,1,0.102,-0.674,-1.524*
1,1,0.102,-0.674,1.524*
%
%ADD117ROUNDEDRECTD117*%
%ADD118R,0.900X1.200*%
%ADD119R,0.808X1.262*%
%ADD120R,1.007X1.408*%
G04:AMPARAMS|DCode=121|XSize=1.207mm|YSize=1.508mm|CornerRadius=0mm|HoleSize=0mm|Usage=FLASHONLY|Rotation=315.000|XOffset=0mm|YOffset=0mm|HoleType=Round|Shape=Rectangle|*
%AMROTATEDRECTD121*
4,1,4,-0.960,-0.107,0.107,0.960,0.960,0.107,-0.107,-0.960,-0.960,-0.107,0.0*
%
%ADD121ROTATEDRECTD121*%

G04:AMPARAMS|DCode=122|XSize=1.207mm|YSize=1.508mm|CornerRadius=0mm|HoleSize=0mm|Usage=FLASHONLY|Rotation=45.000|XOffset=0mm|YOffset=0mm|HoleType=Round|Shape=Rectangle|*
%AMROTATEDRECTD122*
4,1,4,0.107,-0.960,-0.960,0.107,-0.107,0.960,0.960,-0.107,0.107,-0.960,0.0*
%
%ADD122ROTATEDRECTD122*%

G04:AMPARAMS|DCode=123|XSize=0.8mm|YSize=1.6mm|CornerRadius=0.2mm|HoleSize=0mm|Usage=FLASHONLY|Rotation=0.000|XOffset=0mm|YOffset=0mm|HoleType=Round|Shape=RoundedRectangle|*
%AMROUNDEDRECTD123*
21,1,0.800,1.200,0,0,0.0*
21,1,0.400,1.600,0,0,0.0*
1,1,0.400,0.200,-0.600*
1,1,0.400,-0.200,-0.600*
1,1,0.400,-0.200,0.600*
1,1,0.400,0.200,0.600*
%
%ADD123ROUNDEDRECTD123*%
G04:AMPARAMS|DCode=124|XSize=0.6mm|YSize=1.6mm|CornerRadius=0.15mm|HoleSize=0mm|Usage=FLASHONLY|Rotation=0.000|XOffset=0mm|YOffset=0mm|HoleType=Round|Shape=RoundedRectangle|*
%AMROUNDEDRECTD124*
21,1,0.600,1.300,0,0,0.0*
21,1,0.300,1.600,0,0,0.0*
1,1,0.300,0.150,-0.650*
1,1,0.300,-0.150,-0.650*
1,1,0.300,-0.150,0.650*
1,1,0.300,0.150,0.650*
%
%ADD124ROUNDEDRECTD124*%
%ADD125R,2.500X1.700*%
%ADD126R,1.556X1.505*%
G04:AMPARAMS|DCode=127|XSize=0.95mm|YSize=1.35mm|CornerRadius=0mm|HoleSize=0mm|Usage=FLASHONLY|Rotation=135.000|XOffset=0mm|YOffset=0mm|HoleType=Round|Shape=Rectangle|*
%AMROTATEDRECTD127*
4,1,4,0.813,0.141,-0.141,-0.813,-0.813,-0.141,0.141,0.813,0.813,0.141,0.0*
%
%ADD127ROTATEDRECTD127*%

G04:AMPARAMS|DCode=128|XSize=0.95mm|YSize=1.35mm|CornerRadius=0mm|HoleSize=0mm|Usage=FLASHONLY|Rotation=45.000|XOffset=0mm|YOffset=0mm|HoleType=Round|Shape=Rectangle|*
%AMROTATEDRECTD128*
4,1,4,0.141,-0.813,-0.813,0.141,-0.141,0.813,0.813,-0.141,0.141,-0.813,0.0*
%
%ADD128ROTATEDRECTD128*%

G04:AMPARAMS|DCode=129|XSize=2.45mm|YSize=2.35mm|CornerRadius=0mm|HoleSize=0mm|Usage=FLASHONLY|Rotation=315.000|XOffset=0mm|YOffset=0mm|HoleType=Round|Shape=Rectangle|*
%AMROTATEDRECTD129*
4,1,4,-1.697,0.035,-0.035,1.697,1.697,-0.035,0.035,-1.697,-1.697,0.035,0.0*
%
%ADD129ROTATEDRECTD129*%

%TA.AperFunction,ComponentPad*%
%ADD136O,2.032X2.540*%
D18*
X114718Y137525D02*
D03*
Y139025D02*
D03*
X117000Y31350D02*
D03*
Y32850D02*
D03*
X231505Y123275D02*
D03*
Y121775D02*
D03*
X106418Y178898D02*
D03*
Y177398D02*
D03*
X106072Y72050D02*
D03*
Y73550D02*
D03*
X105852Y132775D02*
D03*
Y131275D02*
D03*
X105792Y28400D02*
D03*
Y26900D02*
D03*
X211975Y80036D02*
D03*
Y78536D02*
D03*
X239350Y153237D02*
D03*
Y151737D02*
D03*
D19*
X230550Y144876D02*
D03*
Y142724D02*
D03*
X211755Y189649D02*
D03*
Y191801D02*
D03*
X209215Y191679D02*
D03*
Y189527D02*
D03*
X230550Y147099D02*
D03*
Y149251D02*
D03*
D56*
X126718Y77525D02*
D03*
X109525Y153875D02*
D03*
X131950Y33625D02*
D03*
X143875Y43342D02*
D03*
X129225Y168112D02*
D03*
X194750Y92300D02*
D03*
X127850Y63775D02*
D03*
X125218Y169873D02*
D03*
X135350Y185675D02*
D03*
X124718Y18757D02*
D03*
X127050Y122825D02*
D03*
X125350Y48250D02*
D03*
X129488Y146113D02*
D03*
X101969Y30875D02*
D03*
X101718Y137075D02*
D03*
X106922Y79500D02*
D03*
X104501Y183300D02*
D03*
X174825Y162975D02*
D03*
X228900Y113325D02*
D03*
X195750Y104325D02*
D03*
X168825Y30667D02*
D03*
X226800Y158625D02*
D03*
X233000Y182570D02*
D03*
X237120Y144379D02*
D03*
X234990Y141097D02*
D03*
X232799Y167199D02*
D03*
X230757Y179815D02*
D03*
X232302Y176342D02*
D03*
X228750Y155200D02*
D03*
X208225Y142862D02*
D03*
X228079Y139778D02*
D03*
X103718Y158871D02*
D03*
X103593Y6760D02*
D03*
X103693Y189088D02*
D03*
X103694Y83051D02*
D03*
X103768Y143550D02*
D03*
X103593Y37966D02*
D03*
X58993Y176775D02*
D03*
Y71350D02*
D03*
Y130200D02*
D03*
X59243Y25875D02*
D03*
X141043Y119425D02*
D03*
X97150Y170350D02*
D03*
X97983Y63208D02*
D03*
X103769Y53859D02*
D03*
X54000Y163054D02*
D03*
Y58000D02*
D03*
X137330Y160275D02*
D03*
X126932Y55825D02*
D03*
X103593Y163840D02*
D03*
X103605Y57890D02*
D03*
X109693Y164125D02*
D03*
X109293Y59002D02*
D03*
X126900Y185700D02*
D03*
X145256Y81400D02*
D03*
X103693Y193481D02*
D03*
X103715Y86929D02*
D03*
X106818Y196648D02*
D03*
X95368Y86649D02*
D03*
X101325Y123875D02*
D03*
X100596Y19400D02*
D03*
X103593Y112106D02*
D03*
X54000Y118054D02*
D03*
Y13054D02*
D03*
X126718Y117025D02*
D03*
X126993Y8455D02*
D03*
X103605Y116025D02*
D03*
X103868Y10843D02*
D03*
X109093Y117702D02*
D03*
X109193Y12775D02*
D03*
X126468Y145100D02*
D03*
X126718Y38401D02*
D03*
X103605Y147391D02*
D03*
X103593Y42065D02*
D03*
X109173Y149410D02*
D03*
X108418Y44724D02*
D03*
X166035Y182914D02*
D03*
X145715D02*
D03*
X176068D02*
D03*
X155748D02*
D03*
X170023Y171867D02*
D03*
X150469Y172181D02*
D03*
X171115Y182914D02*
D03*
X160193D02*
D03*
X181684Y196300D02*
D03*
X234827Y189798D02*
D03*
X195229Y98675D02*
D03*
X205517Y120125D02*
D03*
X190862Y95445D02*
D03*
D57*
X138700Y19250D02*
D03*
X143700D02*
D03*
X129025Y154550D02*
D03*
X124025D02*
D03*
X134575Y43375D02*
D03*
Y48375D02*
D03*
D58*
X240575Y167275D02*
D03*
Y162275D02*
D03*
X137500Y6500D02*
D03*
X194875Y6200D02*
D03*
X237400Y49075D02*
D03*
X147500Y6500D02*
D03*
D59*
X240575Y157275D02*
D03*
X237400Y44075D02*
D03*
D60*
X63850Y92075D02*
D03*
X53850D02*
D03*
X63675Y197075D02*
D03*
X53675D02*
D03*
X63675Y169675D02*
D03*
X53675D02*
D03*
X63825Y64650D02*
D03*
X53825D02*
D03*
X63625Y124425D02*
D03*
X53625D02*
D03*
X63600Y19675D02*
D03*
X53600D02*
D03*
X63775Y152025D02*
D03*
X53775D02*
D03*
X63675Y47000D02*
D03*
X53675D02*
D03*
D61*
X49500Y64504D02*
D03*
Y58054D02*
D03*
Y169625D02*
D03*
Y163175D02*
D03*
X59000Y51350D02*
D03*
Y57800D02*
D03*
Y163800D02*
D03*
Y157350D02*
D03*
X49500Y190525D02*
D03*
Y196975D02*
D03*
Y91975D02*
D03*
Y85525D02*
D03*
X59000Y190800D02*
D03*
Y184350D02*
D03*
Y79350D02*
D03*
Y85800D02*
D03*
X49500Y124525D02*
D03*
Y118075D02*
D03*
Y19650D02*
D03*
Y13200D02*
D03*
X59000Y117800D02*
D03*
Y111350D02*
D03*
Y6350D02*
D03*
Y12800D02*
D03*
X49500Y40691D02*
D03*
Y47141D02*
D03*
Y152050D02*
D03*
Y145600D02*
D03*
X59000Y145025D02*
D03*
Y138575D02*
D03*
Y34350D02*
D03*
Y40800D02*
D03*
D62*
X226675Y135835D02*
D03*
Y133295D02*
D03*
Y130755D02*
D03*
X187413Y147725D02*
D03*
X184873Y147725D02*
D03*
X182333D02*
D03*
X179793D02*
D03*
X177253D02*
D03*
X188514Y193963D02*
D03*
X191054D02*
D03*
X193594D02*
D03*
X196134D02*
D03*
X198674D02*
D03*
X177253Y155748D02*
D03*
X179793D02*
D03*
X182333D02*
D03*
X241225Y174950D02*
D03*
Y177490D02*
D03*
Y180030D02*
D03*
Y182570D02*
D03*
Y185110D02*
D03*
D63*
X226675Y128215D02*
D03*
X241225Y187650D02*
D03*
D64*
X164300Y4237D02*
D03*
D65*
Y14013D02*
D03*
X214834Y130859D02*
D03*
Y133399D02*
D03*
Y128319D02*
D03*
Y125779D02*
D03*
X204135Y194217D02*
D03*
X206675D02*
D03*
X211755D02*
D03*
X209215D02*
D03*
X206120Y125800D02*
D03*
Y128340D02*
D03*
Y133420D02*
D03*
Y130880D02*
D03*
X173782Y174024D02*
D03*
Y176564D02*
D03*
X154224Y174024D02*
D03*
Y176564D02*
D03*
D66*
X103751Y95250D02*
D03*
D67*
Y105250D02*
D03*
D68*
X7000Y181125D02*
D03*
Y171125D02*
D03*
X17000D02*
D03*
Y181125D02*
D03*
X7000Y76275D02*
D03*
Y66275D02*
D03*
X17000D02*
D03*
Y76275D02*
D03*
X7000Y136725D02*
D03*
Y126725D02*
D03*
X17000D02*
D03*
Y136725D02*
D03*
X7000Y30775D02*
D03*
Y20775D02*
D03*
X17000D02*
D03*
Y30775D02*
D03*
X223925Y59725D02*
D03*
Y69725D02*
D03*
X233925D02*
D03*
Y59725D02*
D03*
D69*
X200675Y25125D02*
D03*
Y37125D02*
D03*
D70*
X132893Y96339D02*
D03*
X125822Y103411D02*
D03*
X162593Y95000D02*
D03*
X172593D02*
D03*
D71*
X132500Y6500D02*
D03*
X189875Y6200D02*
D03*
X142500Y6500D02*
D03*
D72*
X209779Y81953D02*
D03*
Y80048D02*
D03*
Y78143D02*
D03*
X214037Y43916D02*
D03*
X211537D02*
D03*
D73*
X188316Y84874D02*
D03*
X188189Y74968D02*
D03*
D74*
X214834Y135939D02*
D03*
X206120Y135960D02*
D03*
D75*
X154674Y121298D02*
D03*
X148832Y121171D02*
D03*
X226671Y44043D02*
D03*
X220829Y43916D02*
D03*
D76*
X151753Y144539D02*
D03*
X223750Y20675D02*
D03*
D78*
X175933Y9361D02*
D03*
X187218Y116076D02*
D03*
Y136015D02*
D03*
D79*
X174713Y147725D02*
D03*
X185974Y193963D02*
D03*
X174713Y155748D02*
D03*
D80*
X44451Y165594D02*
D03*
Y163054D02*
D03*
Y160514D02*
D03*
Y55514D02*
D03*
Y58054D02*
D03*
Y60594D02*
D03*
X64417Y160006D02*
D03*
Y162546D02*
D03*
Y165086D02*
D03*
X64317Y60086D02*
D03*
Y57546D02*
D03*
Y55006D02*
D03*
X44451Y193094D02*
D03*
Y190554D02*
D03*
Y188014D02*
D03*
Y88094D02*
D03*
Y85554D02*
D03*
Y83014D02*
D03*
Y15594D02*
D03*
Y13054D02*
D03*
Y10514D02*
D03*
X64317Y187506D02*
D03*
Y190046D02*
D03*
Y192586D02*
D03*
X64217Y82506D02*
D03*
Y85046D02*
D03*
Y87586D02*
D03*
X65117Y15086D02*
D03*
Y12546D02*
D03*
Y10006D02*
D03*
X44451Y115514D02*
D03*
Y118054D02*
D03*
Y120594D02*
D03*
X64617Y120086D02*
D03*
Y117546D02*
D03*
Y115006D02*
D03*
X44451Y43094D02*
D03*
Y40554D02*
D03*
Y38014D02*
D03*
Y143014D02*
D03*
Y145554D02*
D03*
Y148094D02*
D03*
X64117Y147386D02*
D03*
Y144846D02*
D03*
Y142306D02*
D03*
X64834Y42586D02*
D03*
Y40046D02*
D03*
Y37506D02*
D03*
D81*
X24258Y163054D02*
D03*
Y58054D02*
D03*
X84610Y162546D02*
D03*
X84510Y57546D02*
D03*
X24258Y190554D02*
D03*
Y85554D02*
D03*
Y13054D02*
D03*
X84510Y190046D02*
D03*
X84410Y85046D02*
D03*
X85310Y12546D02*
D03*
X24258Y118054D02*
D03*
X84810Y117546D02*
D03*
X24258Y40554D02*
D03*
Y145554D02*
D03*
X84310Y144846D02*
D03*
X85027Y40046D02*
D03*
D82*
X197785Y175675D02*
D03*
Y171103D02*
D03*
X205405D02*
D03*
Y175675D02*
D03*
X180132D02*
D03*
Y171103D02*
D03*
X187752D02*
D03*
Y175675D02*
D03*
X215438D02*
D03*
Y171103D02*
D03*
X223058D02*
D03*
Y175675D02*
D03*
D83*
X163495Y187105D02*
D03*
X143175D02*
D03*
X173528D02*
D03*
X153208D02*
D03*
D84*
X166035D02*
D03*
X168575D02*
D03*
X145715D02*
D03*
X148255D02*
D03*
X176068D02*
D03*
X178608D02*
D03*
X155748D02*
D03*
X158288D02*
D03*
D85*
X214295Y194217D02*
D03*
D86*
X169464Y193963D02*
D03*
X149144D02*
D03*
X177719D02*
D03*
X157399D02*
D03*
X231650Y194225D02*
D03*
X223360D02*
D03*
D87*
X166924Y193963D02*
D03*
X164384D02*
D03*
X144064D02*
D03*
X146604D02*
D03*
X172639D02*
D03*
X175179D02*
D03*
X154859D02*
D03*
X152319D02*
D03*
X226570Y194225D02*
D03*
X229110D02*
D03*
X218280D02*
D03*
X220820D02*
D03*
D96*
X93525Y31873D02*
D03*
Y33975D02*
D03*
X93750Y56248D02*
D03*
Y54147D02*
D03*
X93143Y159782D02*
D03*
Y161883D02*
D03*
X93750Y79451D02*
D03*
Y77349D02*
D03*
X93225Y183801D02*
D03*
Y181699D02*
D03*
X93089Y192378D02*
D03*
Y190277D02*
D03*
X92225Y113424D02*
D03*
Y115526D02*
D03*
X93818Y138676D02*
D03*
Y136574D02*
D03*
X93690Y148901D02*
D03*
Y146799D02*
D03*
X92509Y5305D02*
D03*
Y7407D02*
D03*
X93700Y43826D02*
D03*
Y41724D02*
D03*
X234952Y123901D02*
D03*
Y121799D02*
D03*
X124393Y55900D02*
D03*
Y53798D02*
D03*
X121024Y145010D02*
D03*
Y142908D02*
D03*
X193864Y168249D02*
D03*
Y170351D02*
D03*
X183945Y170335D02*
D03*
Y168233D02*
D03*
X211741Y170401D02*
D03*
Y168299D02*
D03*
X166975Y191788D02*
D03*
Y189687D02*
D03*
X146655Y191661D02*
D03*
Y189560D02*
D03*
X170023Y174447D02*
D03*
Y176548D02*
D03*
X150482Y176531D02*
D03*
Y174429D02*
D03*
X170023Y167799D02*
D03*
Y169901D02*
D03*
X150414Y169799D02*
D03*
Y167697D02*
D03*
X173782Y167872D02*
D03*
Y169974D02*
D03*
X154224Y169799D02*
D03*
Y167697D02*
D03*
X175230Y191788D02*
D03*
Y189687D02*
D03*
X154910Y191696D02*
D03*
Y189594D02*
D03*
X121596Y158108D02*
D03*
Y160210D02*
D03*
X124596Y158108D02*
D03*
Y160210D02*
D03*
X121293Y53798D02*
D03*
Y55900D02*
D03*
X121768Y190001D02*
D03*
Y187899D02*
D03*
X124768D02*
D03*
Y190001D02*
D03*
X121850Y84301D02*
D03*
Y82199D02*
D03*
X124850D02*
D03*
Y84301D02*
D03*
X121386Y6353D02*
D03*
Y8455D02*
D03*
X124493Y112027D02*
D03*
Y114129D02*
D03*
X121568D02*
D03*
Y112027D02*
D03*
X124448Y6353D02*
D03*
Y8455D02*
D03*
X223360Y188249D02*
D03*
Y190351D02*
D03*
X220820Y188249D02*
D03*
Y190351D02*
D03*
X121649Y38473D02*
D03*
Y36372D02*
D03*
X123857Y142908D02*
D03*
Y145010D02*
D03*
X124693Y36372D02*
D03*
Y38473D02*
D03*
X237530Y123901D02*
D03*
Y121799D02*
D03*
X233000Y187401D02*
D03*
Y185299D02*
D03*
X236092Y167199D02*
D03*
Y169301D02*
D03*
D97*
X106246Y172725D02*
D03*
X104094D02*
D03*
X239349Y149775D02*
D03*
X241501D02*
D03*
X235641Y155964D02*
D03*
X233489D02*
D03*
X242098Y144499D02*
D03*
X239947D02*
D03*
X105952Y67450D02*
D03*
X103800D02*
D03*
X105867Y126710D02*
D03*
X103716D02*
D03*
X105844Y22100D02*
D03*
X103692D02*
D03*
X239947Y141851D02*
D03*
X242098D02*
D03*
D98*
X116400Y67975D02*
D03*
Y73175D02*
D03*
X116450Y126534D02*
D03*
Y131734D02*
D03*
X115450Y21950D02*
D03*
Y27150D02*
D03*
X116200Y177910D02*
D03*
Y172710D02*
D03*
D99*
X235275Y160100D02*
D03*
X230975D02*
D03*
X235350Y163925D02*
D03*
X231050D02*
D03*
X107143Y62600D02*
D03*
X111443D02*
D03*
X107450Y167675D02*
D03*
X111750D02*
D03*
X111325Y91300D02*
D03*
X107025D02*
D03*
X105899Y16432D02*
D03*
X110199D02*
D03*
X105800Y121385D02*
D03*
X110100D02*
D03*
D100*
X110373Y65300D02*
D03*
X108272D02*
D03*
X108717Y170475D02*
D03*
X110819D02*
D03*
X108124Y94050D02*
D03*
X110226D02*
D03*
X106899Y124199D02*
D03*
X109001D02*
D03*
X108048Y19525D02*
D03*
X110150D02*
D03*
X99667Y158871D02*
D03*
X101769D02*
D03*
Y54496D02*
D03*
X99667D02*
D03*
X105667Y158871D02*
D03*
X107769D02*
D03*
X105667Y54623D02*
D03*
X107769D02*
D03*
X167194Y185149D02*
D03*
X169295D02*
D03*
X146874D02*
D03*
X148975D02*
D03*
X162876D02*
D03*
X164977D02*
D03*
X142556D02*
D03*
X144657D02*
D03*
X177227D02*
D03*
X179328D02*
D03*
X156907D02*
D03*
X159008D02*
D03*
X172909D02*
D03*
X175010D02*
D03*
X152589D02*
D03*
X154690D02*
D03*
X168279Y179561D02*
D03*
X166178D02*
D03*
X161675Y179307D02*
D03*
X159574D02*
D03*
X101767Y189456D02*
D03*
X99665D02*
D03*
X192969Y101425D02*
D03*
X190867D02*
D03*
X206717Y116875D02*
D03*
X208819D02*
D03*
X190862Y98675D02*
D03*
X192964D02*
D03*
X202192Y116875D02*
D03*
X204294D02*
D03*
X107769Y188831D02*
D03*
X105667D02*
D03*
X107769Y82965D02*
D03*
X105667D02*
D03*
X101769Y7260D02*
D03*
X99667D02*
D03*
X105667D02*
D03*
X107769D02*
D03*
X228476Y185375D02*
D03*
X226374D02*
D03*
X228476Y188125D02*
D03*
X226374D02*
D03*
X99667Y112860D02*
D03*
X101769D02*
D03*
X107769Y112987D02*
D03*
X105667D02*
D03*
Y36897D02*
D03*
X107769D02*
D03*
X99667Y143843D02*
D03*
X101769D02*
D03*
X107769D02*
D03*
X105667D02*
D03*
D101*
X114343Y184850D02*
D03*
X112843D02*
D03*
X114216Y79500D02*
D03*
X112716D02*
D03*
X219800Y100100D02*
D03*
X218300D02*
D03*
X120715Y181718D02*
D03*
X119215D02*
D03*
X109518Y174360D02*
D03*
X111018D02*
D03*
X108677Y128479D02*
D03*
X110177D02*
D03*
X108655Y24275D02*
D03*
X110155D02*
D03*
X109072Y69275D02*
D03*
X110572D02*
D03*
X111168Y180993D02*
D03*
X109668D02*
D03*
X110572Y75772D02*
D03*
X109072D02*
D03*
X110528Y134869D02*
D03*
X109028D02*
D03*
X110155Y30831D02*
D03*
X108655D02*
D03*
X192741Y104000D02*
D03*
X191241D02*
D03*
X206793Y114151D02*
D03*
X208293D02*
D03*
X163050Y179434D02*
D03*
X164550D02*
D03*
X163050Y177021D02*
D03*
X164550D02*
D03*
X105368Y69775D02*
D03*
X103868D02*
D03*
X104100Y174985D02*
D03*
X105600D02*
D03*
X105271Y128979D02*
D03*
X103771D02*
D03*
X103660Y24375D02*
D03*
X105160D02*
D03*
D102*
X97025Y53373D02*
D03*
Y57673D02*
D03*
X96318Y158782D02*
D03*
Y163082D02*
D03*
X96700Y80550D02*
D03*
Y76250D02*
D03*
X96300Y184900D02*
D03*
Y180600D02*
D03*
X96188Y193405D02*
D03*
Y189105D02*
D03*
X95743Y3856D02*
D03*
Y8156D02*
D03*
X95450Y112325D02*
D03*
Y116625D02*
D03*
X97100Y140125D02*
D03*
Y135825D02*
D03*
X169250Y4000D02*
D03*
Y8300D02*
D03*
X96850Y150000D02*
D03*
Y145700D02*
D03*
X96775Y35175D02*
D03*
Y30875D02*
D03*
X97025Y44925D02*
D03*
Y40625D02*
D03*
D103*
X237105Y147063D02*
D03*
X235835D02*
D03*
X234565D02*
D03*
X233295D02*
D03*
Y152487D02*
D03*
X234565D02*
D03*
X235835D02*
D03*
X237105D02*
D03*
D104*
X108899Y138775D02*
D03*
X110651D02*
D03*
X113344Y32900D02*
D03*
X115096D02*
D03*
X108999Y79500D02*
D03*
X110751D02*
D03*
X109575Y184850D02*
D03*
X111327D02*
D03*
X112717Y183093D02*
D03*
X114469D02*
D03*
X109542Y183093D02*
D03*
X111294D02*
D03*
X108997Y77822D02*
D03*
X110748D02*
D03*
X108902Y137020D02*
D03*
X110654D02*
D03*
X108529Y32900D02*
D03*
X110281D02*
D03*
X100292Y172804D02*
D03*
X102044D02*
D03*
X100167Y67350D02*
D03*
X101919D02*
D03*
X112589Y77784D02*
D03*
X114341D02*
D03*
X210324Y133399D02*
D03*
X212076D02*
D03*
Y130859D02*
D03*
X210324D02*
D03*
X100240Y126790D02*
D03*
X101992D02*
D03*
X100217Y21986D02*
D03*
X101969D02*
D03*
D105*
X111668Y31399D02*
D03*
Y33151D02*
D03*
X112347Y135344D02*
D03*
Y137095D02*
D03*
X104218Y179023D02*
D03*
Y177272D02*
D03*
X103897Y73676D02*
D03*
Y71924D02*
D03*
X103771Y132901D02*
D03*
Y131149D02*
D03*
X103718Y28526D02*
D03*
Y26774D02*
D03*
X206675Y191356D02*
D03*
Y189604D02*
D03*
D106*
X128718Y120698D02*
D03*
X131568D02*
D03*
X117522Y121248D02*
D03*
X114672D02*
D03*
X114697Y167675D02*
D03*
X117547D02*
D03*
X124470Y163350D02*
D03*
X121620D02*
D03*
X114775Y62600D02*
D03*
X117625D02*
D03*
X124443Y59075D02*
D03*
X121593D02*
D03*
X125193Y193175D02*
D03*
X122343D02*
D03*
X117522Y90691D02*
D03*
X114672D02*
D03*
X125293Y87404D02*
D03*
X122443D02*
D03*
X117525Y16575D02*
D03*
X114675D02*
D03*
X124061Y117065D02*
D03*
X121211D02*
D03*
X128418Y11723D02*
D03*
X125568D02*
D03*
X117150Y48400D02*
D03*
X114300D02*
D03*
X122359Y148285D02*
D03*
X125209D02*
D03*
X122268Y41779D02*
D03*
X125118D02*
D03*
D107*
X131950Y44450D02*
D03*
Y47300D02*
D03*
X47057Y61130D02*
D03*
Y58280D02*
D03*
X47100Y165975D02*
D03*
Y163125D02*
D03*
X61800Y54800D02*
D03*
Y57650D02*
D03*
X61725Y159800D02*
D03*
Y162650D02*
D03*
X47025Y190800D02*
D03*
Y193650D02*
D03*
X47050Y88500D02*
D03*
Y85650D02*
D03*
X61575Y189865D02*
D03*
Y187015D02*
D03*
X61600Y82050D02*
D03*
Y84900D02*
D03*
X47073Y118080D02*
D03*
Y120930D02*
D03*
X61800Y114725D02*
D03*
Y117575D02*
D03*
X46975Y16075D02*
D03*
Y13225D02*
D03*
X62300Y9764D02*
D03*
Y12614D02*
D03*
X47025Y43550D02*
D03*
Y40700D02*
D03*
X62025Y37275D02*
D03*
Y40125D02*
D03*
X47075Y148630D02*
D03*
Y145780D02*
D03*
X115043Y195386D02*
D03*
Y198236D02*
D03*
X115023Y153139D02*
D03*
Y150289D02*
D03*
X61213Y144725D02*
D03*
Y141875D02*
D03*
D108*
X204400Y37450D02*
D03*
Y44000D02*
D03*
X206850Y37450D02*
D03*
Y44000D02*
D03*
D109*
X99843Y80275D02*
D03*
X103593D02*
D03*
X99843Y155569D02*
D03*
X103593D02*
D03*
Y51321D02*
D03*
X99843D02*
D03*
Y167130D02*
D03*
X103593D02*
D03*
Y60719D02*
D03*
X99843D02*
D03*
X103343Y186475D02*
D03*
X99593D02*
D03*
X99843Y3704D02*
D03*
X103593D02*
D03*
X99843Y196635D02*
D03*
X103593D02*
D03*
X99843Y89477D02*
D03*
X103593D02*
D03*
Y12975D02*
D03*
X99843D02*
D03*
Y109558D02*
D03*
X103593D02*
D03*
X99841Y118302D02*
D03*
X103591D02*
D03*
X103593Y35364D02*
D03*
X99843D02*
D03*
Y140668D02*
D03*
X103593D02*
D03*
X99843Y45524D02*
D03*
X103593D02*
D03*
X99843Y149939D02*
D03*
X103593D02*
D03*
D110*
X108227Y130873D02*
D03*
Y131823D02*
D03*
Y132773D02*
D03*
X110627D02*
D03*
Y130873D02*
D03*
X107855Y26700D02*
D03*
Y27650D02*
D03*
Y28600D02*
D03*
X110255D02*
D03*
Y26700D02*
D03*
X111118Y176923D02*
D03*
Y178823D02*
D03*
X108718D02*
D03*
Y177873D02*
D03*
Y176923D02*
D03*
X110672Y71850D02*
D03*
Y73750D02*
D03*
X108272D02*
D03*
Y72800D02*
D03*
Y71850D02*
D03*
D111*
X183342Y137774D02*
D03*
X185994Y140426D02*
D03*
D112*
X112204Y162715D02*
D03*
Y161445D02*
D03*
Y160175D02*
D03*
Y158905D02*
D03*
X117232D02*
D03*
Y160175D02*
D03*
Y161445D02*
D03*
Y162715D02*
D03*
Y58405D02*
D03*
Y57135D02*
D03*
Y55865D02*
D03*
Y54595D02*
D03*
X112204D02*
D03*
Y55865D02*
D03*
Y57135D02*
D03*
Y58405D02*
D03*
Y192641D02*
D03*
Y191371D02*
D03*
Y190101D02*
D03*
Y188831D02*
D03*
X117232D02*
D03*
Y190101D02*
D03*
Y191371D02*
D03*
Y192641D02*
D03*
X112204Y86881D02*
D03*
Y85611D02*
D03*
Y84341D02*
D03*
Y83071D02*
D03*
X117232D02*
D03*
Y84341D02*
D03*
Y85611D02*
D03*
Y86881D02*
D03*
Y11214D02*
D03*
Y9944D02*
D03*
Y8674D02*
D03*
Y7404D02*
D03*
X112204D02*
D03*
Y8674D02*
D03*
Y9944D02*
D03*
Y11214D02*
D03*
Y116634D02*
D03*
Y115364D02*
D03*
Y114094D02*
D03*
Y112824D02*
D03*
X117232D02*
D03*
Y114094D02*
D03*
Y115364D02*
D03*
Y116634D02*
D03*
X112204Y147490D02*
D03*
Y146220D02*
D03*
Y144950D02*
D03*
Y143680D02*
D03*
X117232D02*
D03*
Y144950D02*
D03*
Y146220D02*
D03*
Y147490D02*
D03*
X112204Y41136D02*
D03*
Y39866D02*
D03*
Y38596D02*
D03*
Y37326D02*
D03*
X117232D02*
D03*
Y38596D02*
D03*
Y39866D02*
D03*
Y41136D02*
D03*
D113*
X188948Y130309D02*
D03*
X189302Y129955D02*
D03*
X189656Y129602D02*
D03*
X190009Y129248D02*
D03*
X190363Y128895D02*
D03*
X190716Y128541D02*
D03*
X191070Y128188D02*
D03*
X191423Y127834D02*
D03*
X191777Y127480D02*
D03*
X192130Y127127D02*
D03*
X192484Y126773D02*
D03*
X192838Y126420D02*
D03*
X186827Y120409D02*
D03*
X186474Y120763D02*
D03*
X186120Y121117D02*
D03*
X185766Y121470D02*
D03*
X185413Y121824D02*
D03*
X185059Y122177D02*
D03*
X184706Y122531D02*
D03*
X184352Y122884D02*
D03*
X183999Y123238D02*
D03*
X183645Y123591D02*
D03*
X183292Y123945D02*
D03*
X182938Y124299D02*
D03*
D114*
X192838D02*
D03*
X192484Y123945D02*
D03*
X192130Y123591D02*
D03*
X191777Y123238D02*
D03*
X191423Y122884D02*
D03*
X191070Y122531D02*
D03*
X190716Y122177D02*
D03*
X190363Y121824D02*
D03*
X190009Y121470D02*
D03*
X189656Y121117D02*
D03*
X189302Y120763D02*
D03*
X188948Y120409D02*
D03*
X182938Y126420D02*
D03*
X183292Y126773D02*
D03*
X183645Y127127D02*
D03*
X183999Y127480D02*
D03*
X184352Y127834D02*
D03*
X184706Y128188D02*
D03*
X185059Y128541D02*
D03*
X185413Y128895D02*
D03*
X185766Y129248D02*
D03*
X186120Y129602D02*
D03*
X186474Y129955D02*
D03*
X186827Y130309D02*
D03*
D115*
X240070Y127550D02*
D03*
X238800D02*
D03*
X237530D02*
D03*
X236260D02*
D03*
X234990D02*
D03*
X233720D02*
D03*
X232450D02*
D03*
X231180D02*
D03*
X240070Y136800D02*
D03*
X238800D02*
D03*
X237530D02*
D03*
X236260D02*
D03*
X234990D02*
D03*
X233720D02*
D03*
X232450D02*
D03*
X231180D02*
D03*
D116*
X221350Y87525D02*
D03*
Y85225D02*
D03*
Y82925D02*
D03*
D117*
X215200Y85225D02*
D03*
D118*
X105243Y162436D02*
D03*
X107343D02*
D03*
X107768Y57290D02*
D03*
X105668D02*
D03*
X107768Y193206D02*
D03*
X105668D02*
D03*
Y86922D02*
D03*
X107768D02*
D03*
Y10435D02*
D03*
X105668D02*
D03*
Y115400D02*
D03*
X107768D02*
D03*
X105668Y42082D02*
D03*
X107768D02*
D03*
X105668Y146891D02*
D03*
X107768D02*
D03*
D119*
X99916Y164082D02*
D03*
X101520D02*
D03*
X99916Y57036D02*
D03*
X101520D02*
D03*
X99916Y193206D02*
D03*
X101520D02*
D03*
X99916Y86922D02*
D03*
X101520D02*
D03*
Y9800D02*
D03*
X99916D02*
D03*
Y115400D02*
D03*
X101520D02*
D03*
X99916Y41968D02*
D03*
X101520D02*
D03*
X99916Y146510D02*
D03*
X101520D02*
D03*
D120*
X101669Y83119D02*
D03*
X99767D02*
D03*
X101669Y38920D02*
D03*
X99767D02*
D03*
D121*
X197753Y135968D02*
D03*
X199239Y134482D02*
D03*
D122*
X180525Y135131D02*
D03*
X182011Y136617D02*
D03*
D123*
X163031Y169341D02*
D03*
X158981D02*
D03*
X163031Y174541D02*
D03*
X158981D02*
D03*
D124*
X161641Y169341D02*
D03*
X160371D02*
D03*
X161641Y174541D02*
D03*
X160371D02*
D03*
D125*
X124718Y166652D02*
D03*
X120718D02*
D03*
Y62215D02*
D03*
X124718D02*
D03*
Y196451D02*
D03*
X120718D02*
D03*
X124718Y90691D02*
D03*
X120718D02*
D03*
X124718Y14897D02*
D03*
X120718D02*
D03*
Y120698D02*
D03*
X124718D02*
D03*
Y151427D02*
D03*
X120718D02*
D03*
X124718Y44946D02*
D03*
X120718D02*
D03*
D126*
X193873Y172730D02*
D03*
Y174532D02*
D03*
X183945Y172496D02*
D03*
Y174298D02*
D03*
X211712Y172699D02*
D03*
Y174501D02*
D03*
D127*
X197435Y132449D02*
D03*
X196374Y133510D02*
D03*
D128*
X200229Y111031D02*
D03*
X199168Y109970D02*
D03*
D129*
X200174Y106022D02*
D03*
X204558Y110406D02*
D03*
D136*
X173520Y3900D02*
D03*
X176060D02*
D03*
X178600D02*
D03*
%TF.MD5,2fbf40f940b808fea27485fd971a6ce9*%
M02*
