%TF.GenerationSoftware,Altium Limited,Altium Designer,21.6.4 (81)*%
G04 Layer_Color=32896*
%FSLAX43Y43*%
%MOMM*%
%TF.SameCoordinates,B094594F-E5AE-4C03-B854-EF891E02AD71*%
%TF.FilePolarity,Positive*%
%TF.FileFunction,Other,Mechanical_12*%
%TF.Part,Single*%
G01*
G75*
%TA.AperFunction,NonConductor*%
%ADD156C,0.200*%
%ADD158C,0.150*%
D156*
X234327Y121850D02*
X235577D01*
X234327D02*
Y123850D01*
X235577D01*
Y121850D02*
Y123850D01*
X214150Y143609D02*
X215500D01*
X214150Y141509D02*
Y143609D01*
Y141509D02*
X215500D01*
Y143609D01*
X173263Y144375D02*
Y150475D01*
Y144375D02*
X188863D01*
Y150475D01*
X173263D02*
X188863D01*
X184524Y196713D02*
X200124D01*
Y190613D02*
Y196713D01*
X184524Y190613D02*
X200124D01*
X184524D02*
Y196713D01*
X170925Y184630D02*
Y189590D01*
X161145Y184630D02*
X170925D01*
X161145D02*
Y189590D01*
X170925D01*
X150605Y184630D02*
Y189590D01*
X140825Y184630D02*
X150605D01*
X140825D02*
Y189590D01*
X150605D01*
X180958Y184630D02*
Y189590D01*
X171178Y184630D02*
X180958D01*
X171178D02*
Y189590D01*
X180958D01*
X160638Y184630D02*
Y189590D01*
X150858Y184630D02*
X160638D01*
X150858D02*
Y189590D01*
X160638D01*
X237875Y189100D02*
X243975D01*
X237875Y173500D02*
Y189100D01*
Y173500D02*
X243975D01*
Y189100D01*
X211080Y186450D02*
X212430D01*
X211080Y184350D02*
Y186450D01*
Y184350D02*
X212430D01*
Y186450D01*
X209890Y184350D02*
Y186450D01*
X208540Y184350D02*
X209890D01*
X208540D02*
Y186450D01*
X209890D01*
X207350Y184350D02*
Y186450D01*
X206000Y184350D02*
X207350D01*
X206000D02*
Y186450D01*
X207350D01*
X99718Y158246D02*
X101718D01*
Y159496D01*
X99718D02*
X101718D01*
X99718Y158246D02*
Y159496D01*
Y53871D02*
Y55121D01*
X101718D01*
Y53871D02*
Y55121D01*
X99718Y53871D02*
X101718D01*
X105718Y158246D02*
X107718D01*
Y159496D01*
X105718D02*
X107718D01*
X105718Y158246D02*
Y159496D01*
Y53998D02*
X107718D01*
Y55248D01*
X105718D02*
X107718D01*
X105718Y53998D02*
Y55248D01*
X167245Y184524D02*
X169245D01*
Y185774D01*
X167245D02*
X169245D01*
X167245Y184524D02*
Y185774D01*
X146925Y184524D02*
X148925D01*
Y185774D01*
X146925D02*
X148925D01*
X146925Y184524D02*
Y185774D01*
X164927Y184524D02*
Y185774D01*
X162927Y184524D02*
X164927D01*
X162927D02*
Y185774D01*
X164927D01*
X144607Y184524D02*
Y185774D01*
X142607Y184524D02*
X144607D01*
X142607D02*
Y185774D01*
X144607D01*
X146030Y189610D02*
Y191610D01*
Y189610D02*
X147280D01*
Y191610D01*
X146030D02*
X147280D01*
X169398Y176497D02*
X170648D01*
Y174497D02*
Y176497D01*
X169398Y174497D02*
X170648D01*
X169398D02*
Y176497D01*
X149857Y174480D02*
Y176480D01*
Y174480D02*
X151107D01*
Y176480D01*
X149857D02*
X151107D01*
X179278Y184524D02*
Y185774D01*
X177278Y184524D02*
X179278D01*
X177278D02*
Y185774D01*
X179278D01*
X158958Y184524D02*
Y185774D01*
X156958Y184524D02*
X158958D01*
X156958D02*
Y185774D01*
X158958D01*
X169398Y169850D02*
X170648D01*
Y167850D02*
Y169850D01*
X169398Y167850D02*
X170648D01*
X169398D02*
Y169850D01*
X149789Y167748D02*
Y169748D01*
Y167748D02*
X151039D01*
Y169748D01*
X149789D02*
X151039D01*
X173157Y169923D02*
X174407D01*
Y167923D02*
Y169923D01*
X173157Y167923D02*
X174407D01*
X173157D02*
Y169923D01*
X153599Y167748D02*
Y169748D01*
Y167748D02*
X154849D01*
Y169748D01*
X153599D02*
X154849D01*
X154640Y184524D02*
Y185774D01*
X152640Y184524D02*
X154640D01*
X152640D02*
Y185774D01*
X154640D01*
X174605Y189737D02*
Y191737D01*
Y189737D02*
X175855D01*
Y191737D01*
X174605D02*
X175855D01*
X154285Y189645D02*
Y191645D01*
Y189645D02*
X155535D01*
Y191645D01*
X154285D02*
X155535D01*
X166229Y178936D02*
Y180186D01*
X168229D01*
Y178936D02*
Y180186D01*
X166229Y178936D02*
X168229D01*
X159625Y178682D02*
Y179932D01*
X161625D01*
Y178682D02*
Y179932D01*
X159625Y178682D02*
X161625D01*
X99716Y188831D02*
Y190081D01*
X101716D01*
Y188831D02*
Y190081D01*
X99716Y188831D02*
X101716D01*
X190918Y100800D02*
Y102050D01*
X192918D01*
Y100800D02*
Y102050D01*
X190918Y100800D02*
X192918D01*
X208768Y116250D02*
Y117500D01*
X206768Y116250D02*
X208768D01*
X206768D02*
Y117500D01*
X208768D01*
X192913Y98050D02*
Y99300D01*
X190913Y98050D02*
X192913D01*
X190913D02*
Y99300D01*
X192913D01*
X204243Y116250D02*
Y117500D01*
X202243Y116250D02*
X204243D01*
X202243D02*
Y117500D01*
X204243D01*
X105718Y188206D02*
Y189456D01*
X107718D01*
Y188206D02*
Y189456D01*
X105718Y188206D02*
X107718D01*
X105718Y82340D02*
Y83590D01*
X107718D01*
Y82340D02*
Y83590D01*
X105718Y82340D02*
X107718D01*
X99718Y6635D02*
Y7885D01*
X101718D01*
Y6635D02*
Y7885D01*
X99718Y6635D02*
X101718D01*
X105718D02*
X107718D01*
Y7885D01*
X105718D02*
X107718D01*
X105718Y6635D02*
Y7885D01*
X226425Y184750D02*
Y186000D01*
X228425D01*
Y184750D02*
Y186000D01*
X226425Y184750D02*
X228425D01*
X226425Y187500D02*
Y188750D01*
X228425D01*
Y187500D02*
Y188750D01*
X226425Y187500D02*
X228425D01*
X99718Y112235D02*
X101718D01*
Y113485D01*
X99718D02*
X101718D01*
X99718Y112235D02*
Y113485D01*
X105718Y112362D02*
Y113612D01*
X107718D01*
Y112362D02*
Y113612D01*
X105718Y112362D02*
X107718D01*
X105718Y36272D02*
X107718D01*
Y37522D01*
X105718D02*
X107718D01*
X105718Y36272D02*
Y37522D01*
X223985Y188300D02*
Y190300D01*
X222735D02*
X223985D01*
X222735Y188300D02*
Y190300D01*
Y188300D02*
X223985D01*
X221445D02*
Y190300D01*
X220195D02*
X221445D01*
X220195Y188300D02*
Y190300D01*
Y188300D02*
X221445D01*
X99718Y143218D02*
X101718D01*
Y144468D01*
X99718D02*
X101718D01*
X99718Y143218D02*
Y144468D01*
X105718Y143218D02*
Y144468D01*
X107718D01*
Y143218D02*
Y144468D01*
X105718Y143218D02*
X107718D01*
X197347Y135490D02*
X198761Y134076D01*
X199645Y134960D01*
X198231Y136374D02*
X199645Y134960D01*
X197347Y135490D02*
X198231Y136374D01*
X236905Y121850D02*
Y123850D01*
Y121850D02*
X238155D01*
Y123850D01*
X236905D02*
X238155D01*
X232375Y185350D02*
X233625D01*
X232375D02*
Y187350D01*
X233625D01*
Y185350D02*
Y187350D01*
X236717Y167250D02*
Y169250D01*
X235467D02*
X236717D01*
X235467Y167250D02*
Y169250D01*
Y167250D02*
X236717D01*
X181003Y134725D02*
X182417Y136139D01*
X181533Y137023D02*
X182417Y136139D01*
X180119Y135609D02*
X181533Y137023D01*
X180119Y135609D02*
X181003Y134725D01*
X215595Y184475D02*
Y186575D01*
X214245Y184475D02*
X215595D01*
X214245D02*
Y186575D01*
X215595D01*
D158*
X104170Y173350D02*
X106170D01*
X104170Y172100D02*
Y173350D01*
Y172100D02*
X106170D01*
Y173350D01*
X110775Y138150D02*
Y139400D01*
X108775Y138150D02*
X110775D01*
X108775D02*
Y139400D01*
X110775D01*
X115220Y32275D02*
Y33525D01*
X113220Y32275D02*
X115220D01*
X113220D02*
Y33525D01*
X115220D01*
X110875Y78875D02*
Y80125D01*
X108875Y78875D02*
X110875D01*
X108875D02*
Y80125D01*
X110875D01*
X111451Y184225D02*
Y185475D01*
X109451Y184225D02*
X111451D01*
X109451D02*
Y185475D01*
X111451D01*
X111043Y33275D02*
X112293D01*
Y31275D02*
Y33275D01*
X111043Y31275D02*
X112293D01*
X111043D02*
Y33275D01*
X111722Y137219D02*
X112972D01*
Y135219D02*
Y137219D01*
X111722Y135219D02*
X112972D01*
X111722D02*
Y137219D01*
X241425Y149150D02*
Y150400D01*
X239425Y149150D02*
X241425D01*
X239425D02*
Y150400D01*
X241425D01*
X233565Y155339D02*
Y156589D01*
X235565D01*
Y155339D02*
Y156589D01*
X233565Y155339D02*
X235565D01*
X214225Y146450D02*
X215475D01*
Y148450D01*
X214225D02*
X215475D01*
X214225Y146450D02*
Y148450D01*
X240023Y143874D02*
Y145124D01*
X242023D01*
Y143874D02*
Y145124D01*
X240023Y143874D02*
X242023D01*
X201300Y41425D02*
Y43425D01*
X200050Y41425D02*
X201300D01*
X200050D02*
Y43425D01*
X201300D01*
X112593Y182468D02*
X114593D01*
Y183718D01*
X112593D02*
X114593D01*
X112593Y182468D02*
Y183718D01*
X109418Y182468D02*
X111418D01*
Y183718D01*
X109418D02*
X111418D01*
X109418Y182468D02*
Y183718D01*
X108872Y77197D02*
X110872D01*
Y78447D01*
X108872D02*
X110872D01*
X108872Y77197D02*
Y78447D01*
X103593Y177148D02*
Y179148D01*
Y177148D02*
X104843D01*
Y179148D01*
X103593D02*
X104843D01*
X103272Y71800D02*
Y73800D01*
Y71800D02*
X104522D01*
Y73800D01*
X103272D02*
X104522D01*
X108778Y136395D02*
X110778D01*
Y137645D01*
X108778D02*
X110778D01*
X108778Y136395D02*
Y137645D01*
X103146Y131025D02*
Y133025D01*
Y131025D02*
X104396D01*
Y133025D01*
X103146D02*
X104396D01*
X108405Y32275D02*
X110405D01*
Y33525D01*
X108405D02*
X110405D01*
X108405Y32275D02*
Y33525D01*
X103093Y26650D02*
Y28650D01*
Y26650D02*
X104343D01*
Y28650D01*
X103093D02*
X104343D01*
X229925Y142800D02*
Y144800D01*
Y142800D02*
X231175D01*
Y144800D01*
X229925D02*
X231175D01*
X212380Y189725D02*
Y191725D01*
X211130D02*
X212380D01*
X211130Y189725D02*
Y191725D01*
Y189725D02*
X212380D01*
X208590Y189603D02*
X209840D01*
X208590D02*
Y191603D01*
X209840D01*
Y189603D02*
Y191603D01*
X206050Y189480D02*
X207300D01*
X206050D02*
Y191480D01*
X207300D01*
Y189480D02*
Y191480D01*
X103876Y68075D02*
X105876D01*
X103876Y66825D02*
Y68075D01*
Y66825D02*
X105876D01*
Y68075D01*
X102168Y172179D02*
Y173429D01*
X100168Y172179D02*
X102168D01*
X100168D02*
Y173429D01*
X102168D01*
X102043Y66725D02*
Y67975D01*
X100043Y66725D02*
X102043D01*
X100043D02*
Y67975D01*
X102043D01*
X112465Y77159D02*
X114465D01*
Y78409D01*
X112465D02*
X114465D01*
X112465Y77159D02*
Y78409D01*
X210200Y132774D02*
X212200D01*
Y134024D01*
X210200D02*
X212200D01*
X210200Y132774D02*
Y134024D01*
Y130234D02*
Y131484D01*
X212200D01*
Y130234D02*
Y131484D01*
X210200Y130234D02*
X212200D01*
X218108Y184400D02*
Y186400D01*
X216858Y184400D02*
X218108D01*
X216858D02*
Y186400D01*
X218108D01*
X103791Y127335D02*
X105791D01*
X103791Y126085D02*
Y127335D01*
Y126085D02*
X105791D01*
Y127335D01*
X103768Y22725D02*
X105768D01*
X103768Y21475D02*
Y22725D01*
Y21475D02*
X105768D01*
Y22725D01*
X102116Y126165D02*
Y127415D01*
X100116Y126165D02*
X102116D01*
X100116D02*
Y127415D01*
X102116D01*
X102093Y21361D02*
Y22611D01*
X100093Y21361D02*
X102093D01*
X100093D02*
Y22611D01*
X102093D01*
X231175Y147175D02*
Y149175D01*
X229925D02*
X231175D01*
X229925Y147175D02*
Y149175D01*
Y147175D02*
X231175D01*
X240023Y141226D02*
X242023D01*
Y142476D01*
X240023D02*
X242023D01*
X240023Y141226D02*
Y142476D01*
%TF.MD5,41b47bb99a8dc20db09bcdf96571d244*%
M02*
