%TF.GenerationSoftware,Altium Limited,Altium Designer,21.6.4 (81)*%
G04 Layer_Color=8388736*
%FSLAX43Y43*%
%MOMM*%
%TF.SameCoordinates,B094594F-E5AE-4C03-B854-EF891E02AD71*%
%TF.FilePolarity,Positive*%
%TF.FileFunction,Other,Top_Assembly*%
%TF.Part,Single*%
G01*
G75*
%TA.AperFunction,NonConductor*%
%ADD156C,0.200*%
%ADD158C,0.150*%
%ADD207C,0.100*%
%ADD226R,3.675X1.300*%
G36*
X224564Y132626D02*
X224563D01*
X224559D01*
X224554D01*
X224546Y132627D01*
X224538Y132628D01*
X224529Y132630D01*
X224520Y132632D01*
X224509Y132635D01*
X224508D01*
X224508Y132636D01*
X224502Y132638D01*
X224494Y132642D01*
X224483Y132647D01*
X224470Y132655D01*
X224455Y132664D01*
X224440Y132674D01*
X224424Y132687D01*
X224423D01*
X224422Y132689D01*
X224417Y132693D01*
X224409Y132702D01*
X224397Y132714D01*
X224383Y132728D01*
X224366Y132745D01*
X224348Y132766D01*
X224328Y132790D01*
X224327Y132791D01*
X224324Y132794D01*
X224320Y132800D01*
X224314Y132806D01*
X224307Y132815D01*
X224299Y132825D01*
X224289Y132835D01*
X224279Y132847D01*
X224257Y132870D01*
X224235Y132893D01*
X224224Y132904D01*
X224213Y132914D01*
X224202Y132924D01*
X224192Y132931D01*
X224191D01*
X224190Y132933D01*
X224188Y132935D01*
X224184Y132937D01*
X224174Y132943D01*
X224162Y132950D01*
X224147Y132957D01*
X224131Y132963D01*
X224114Y132967D01*
X224097Y132969D01*
X224096D01*
X224095D01*
X224090Y132968D01*
X224080Y132967D01*
X224070Y132964D01*
X224057Y132961D01*
X224044Y132954D01*
X224031Y132946D01*
X224018Y132935D01*
X224017Y132933D01*
X224013Y132928D01*
X224008Y132922D01*
X224002Y132912D01*
X223996Y132899D01*
X223991Y132884D01*
X223987Y132866D01*
X223986Y132847D01*
Y132841D01*
X223987Y132838D01*
X223988Y132827D01*
X223991Y132814D01*
X223994Y132800D01*
X224001Y132784D01*
X224009Y132769D01*
X224020Y132755D01*
X224022Y132754D01*
X224027Y132750D01*
X224034Y132744D01*
X224045Y132739D01*
X224058Y132732D01*
X224075Y132727D01*
X224093Y132723D01*
X224115Y132721D01*
X224106Y132641D01*
X224105D01*
X224103Y132642D01*
X224098D01*
X224091Y132643D01*
X224084Y132644D01*
X224076Y132646D01*
X224066Y132649D01*
X224055Y132652D01*
X224033Y132659D01*
X224011Y132670D01*
X224000Y132677D01*
X223989Y132685D01*
X223979Y132693D01*
X223969Y132703D01*
X223969Y132704D01*
X223968Y132705D01*
X223965Y132708D01*
X223962Y132713D01*
X223958Y132718D01*
X223955Y132725D01*
X223950Y132732D01*
X223945Y132742D01*
X223941Y132752D01*
X223936Y132763D01*
X223932Y132775D01*
X223929Y132788D01*
X223926Y132802D01*
X223923Y132816D01*
X223922Y132832D01*
X223921Y132849D01*
Y132858D01*
X223922Y132864D01*
X223923Y132872D01*
X223924Y132881D01*
X223926Y132891D01*
X223928Y132901D01*
X223934Y132926D01*
X223944Y132950D01*
X223949Y132962D01*
X223956Y132974D01*
X223964Y132985D01*
X223973Y132995D01*
X223974Y132996D01*
X223975Y132998D01*
X223979Y132999D01*
X223982Y133003D01*
X223987Y133008D01*
X223993Y133012D01*
X224000Y133017D01*
X224008Y133023D01*
X224026Y133032D01*
X224048Y133041D01*
X224059Y133045D01*
X224072Y133047D01*
X224085Y133048D01*
X224099Y133049D01*
X224101D01*
X224105D01*
X224113Y133048D01*
X224123Y133048D01*
X224134Y133046D01*
X224147Y133042D01*
X224161Y133038D01*
X224175Y133033D01*
X224177Y133032D01*
X224181Y133030D01*
X224189Y133026D01*
X224199Y133021D01*
X224210Y133013D01*
X224224Y133004D01*
X224238Y132993D01*
X224253Y132980D01*
X224255Y132978D01*
X224261Y132974D01*
X224265Y132969D01*
X224270Y132964D01*
X224275Y132959D01*
X224283Y132951D01*
X224290Y132944D01*
X224299Y132935D01*
X224308Y132926D01*
X224318Y132914D01*
X224328Y132902D01*
X224340Y132889D01*
X224352Y132875D01*
X224365Y132860D01*
X224366Y132859D01*
X224368Y132857D01*
X224371Y132853D01*
X224374Y132849D01*
X224380Y132843D01*
X224385Y132837D01*
X224398Y132822D01*
X224411Y132806D01*
X224425Y132791D01*
X224437Y132779D01*
X224442Y132773D01*
X224447Y132768D01*
X224447Y132767D01*
X224450Y132765D01*
X224454Y132761D01*
X224459Y132756D01*
X224466Y132752D01*
X224472Y132746D01*
X224488Y132735D01*
Y133050D01*
X224564D01*
Y132626D01*
D02*
G37*
G36*
X224318Y132527D02*
X224327D01*
X224338Y132526D01*
X224349Y132525D01*
X224374Y132522D01*
X224400Y132519D01*
X224425Y132513D01*
X224437Y132509D01*
X224448Y132506D01*
X224449D01*
X224451Y132505D01*
X224454Y132503D01*
X224458Y132501D01*
X224468Y132496D01*
X224481Y132487D01*
X224495Y132476D01*
X224510Y132463D01*
X224526Y132447D01*
X224540Y132426D01*
Y132425D01*
X224542Y132423D01*
X224543Y132421D01*
X224545Y132416D01*
X224548Y132411D01*
X224551Y132403D01*
X224554Y132396D01*
X224557Y132386D01*
X224561Y132376D01*
X224564Y132365D01*
X224567Y132353D01*
X224569Y132339D01*
X224571Y132325D01*
X224573Y132311D01*
X224575Y132277D01*
Y132269D01*
X224574Y132263D01*
Y132255D01*
X224573Y132246D01*
X224572Y132236D01*
X224571Y132226D01*
X224568Y132202D01*
X224562Y132178D01*
X224555Y132154D01*
X224544Y132130D01*
Y132129D01*
X224543Y132128D01*
X224541Y132125D01*
X224539Y132121D01*
X224532Y132111D01*
X224521Y132099D01*
X224508Y132085D01*
X224494Y132072D01*
X224475Y132059D01*
X224455Y132049D01*
X224454D01*
X224452Y132048D01*
X224448Y132047D01*
X224444Y132045D01*
X224438Y132043D01*
X224431Y132042D01*
X224422Y132039D01*
X224412Y132037D01*
X224401Y132035D01*
X224389Y132032D01*
X224376Y132031D01*
X224362Y132029D01*
X224347Y132027D01*
X224330Y132026D01*
X224312Y132025D01*
X224294D01*
X223924D01*
Y132110D01*
X224294D01*
X224295D01*
X224298D01*
X224302D01*
X224308D01*
X224314Y132111D01*
X224323D01*
X224340Y132112D01*
X224361Y132114D01*
X224381Y132117D01*
X224400Y132120D01*
X224409Y132122D01*
X224417Y132125D01*
X224419Y132126D01*
X224423Y132128D01*
X224430Y132132D01*
X224439Y132138D01*
X224448Y132144D01*
X224459Y132154D01*
X224469Y132165D01*
X224477Y132178D01*
X224478Y132179D01*
X224481Y132184D01*
X224483Y132192D01*
X224487Y132203D01*
X224492Y132216D01*
X224495Y132233D01*
X224497Y132251D01*
X224498Y132270D01*
Y132279D01*
X224497Y132285D01*
Y132293D01*
X224496Y132301D01*
X224493Y132322D01*
X224488Y132344D01*
X224481Y132365D01*
X224471Y132386D01*
X224464Y132395D01*
X224457Y132403D01*
X224456Y132404D01*
X224455Y132405D01*
X224452Y132407D01*
X224448Y132410D01*
X224443Y132412D01*
X224437Y132416D01*
X224429Y132420D01*
X224421Y132423D01*
X224410Y132427D01*
X224398Y132430D01*
X224385Y132434D01*
X224370Y132436D01*
X224353Y132439D01*
X224336Y132441D01*
X224315Y132443D01*
X224294D01*
X223924D01*
Y132528D01*
X224294D01*
X224295D01*
X224299D01*
X224303D01*
X224310D01*
X224318Y132527D01*
D02*
G37*
G36*
X212426Y88779D02*
X212425Y88762D01*
X212424Y88744D01*
X212422Y88725D01*
X212419Y88707D01*
X212417Y88691D01*
Y88690D01*
X212416Y88688D01*
Y88686D01*
X212414Y88682D01*
X212411Y88672D01*
X212406Y88659D01*
X212400Y88644D01*
X212392Y88628D01*
X212382Y88613D01*
X212370Y88598D01*
X212369Y88597D01*
X212369Y88596D01*
X212366Y88593D01*
X212363Y88590D01*
X212354Y88580D01*
X212341Y88569D01*
X212325Y88557D01*
X212307Y88544D01*
X212285Y88532D01*
X212261Y88522D01*
X212260D01*
X212259Y88521D01*
X212255Y88519D01*
X212249Y88518D01*
X212243Y88516D01*
X212235Y88514D01*
X212227Y88512D01*
X212217Y88509D01*
X212207Y88506D01*
X212195Y88504D01*
X212169Y88500D01*
X212140Y88497D01*
X212109Y88496D01*
X212108D01*
X212106D01*
X212101D01*
X212097D01*
X212090Y88497D01*
X212083D01*
X212065Y88498D01*
X212045Y88501D01*
X212024Y88504D01*
X212001Y88508D01*
X211979Y88514D01*
X211978D01*
X211977Y88515D01*
X211974Y88516D01*
X211970Y88517D01*
X211960Y88520D01*
X211947Y88526D01*
X211932Y88531D01*
X211917Y88539D01*
X211902Y88548D01*
X211887Y88557D01*
X211885Y88558D01*
X211880Y88562D01*
X211874Y88567D01*
X211866Y88575D01*
X211856Y88583D01*
X211847Y88593D01*
X211837Y88603D01*
X211829Y88615D01*
X211828Y88617D01*
X211825Y88621D01*
X211821Y88627D01*
X211817Y88637D01*
X211811Y88648D01*
X211806Y88661D01*
X211801Y88676D01*
X211796Y88692D01*
Y88694D01*
X211795Y88697D01*
X211794Y88700D01*
X211793Y88709D01*
X211792Y88722D01*
X211790Y88737D01*
X211788Y88754D01*
X211787Y88774D01*
X211786Y88795D01*
Y89025D01*
X212426D01*
Y88779D01*
D02*
G37*
G36*
X211965Y88333D02*
X211965D01*
X211963Y88332D01*
X211959Y88331D01*
X211954Y88330D01*
X211949Y88329D01*
X211942Y88327D01*
X211928Y88322D01*
X211912Y88316D01*
X211896Y88308D01*
X211881Y88298D01*
X211868Y88287D01*
X211867Y88285D01*
X211864Y88282D01*
X211859Y88274D01*
X211855Y88265D01*
X211849Y88254D01*
X211844Y88240D01*
X211841Y88224D01*
X211840Y88208D01*
Y88202D01*
X211841Y88198D01*
X211842Y88188D01*
X211844Y88175D01*
X211849Y88161D01*
X211855Y88145D01*
X211865Y88129D01*
X211878Y88114D01*
X211879Y88112D01*
X211885Y88108D01*
X211893Y88102D01*
X211904Y88095D01*
X211918Y88088D01*
X211934Y88082D01*
X211952Y88077D01*
X211973Y88075D01*
X211974D01*
X211976D01*
X211978D01*
X211982Y88076D01*
X211992Y88077D01*
X212004Y88080D01*
X212019Y88084D01*
X212034Y88090D01*
X212049Y88100D01*
X212063Y88112D01*
X212064Y88113D01*
X212068Y88118D01*
X212074Y88125D01*
X212080Y88136D01*
X212087Y88149D01*
X212092Y88164D01*
X212096Y88182D01*
X212098Y88201D01*
Y88210D01*
X212097Y88216D01*
X212096Y88224D01*
X212094Y88234D01*
X212092Y88245D01*
X212089Y88257D01*
X212159Y88247D01*
Y88243D01*
X212158Y88239D01*
Y88227D01*
X212160Y88217D01*
X212161Y88205D01*
X212164Y88191D01*
X212169Y88175D01*
X212175Y88161D01*
X212184Y88145D01*
Y88144D01*
X212185Y88143D01*
X212188Y88138D01*
X212195Y88132D01*
X212203Y88124D01*
X212215Y88117D01*
X212229Y88111D01*
X212245Y88106D01*
X212254Y88104D01*
X212264D01*
X212265D01*
X212266D01*
X212271D01*
X212279Y88106D01*
X212289Y88108D01*
X212300Y88112D01*
X212312Y88116D01*
X212324Y88124D01*
X212335Y88134D01*
X212336Y88135D01*
X212340Y88139D01*
X212345Y88146D01*
X212350Y88154D01*
X212355Y88165D01*
X212359Y88178D01*
X212363Y88193D01*
X212364Y88210D01*
Y88217D01*
X212362Y88225D01*
X212360Y88236D01*
X212357Y88248D01*
X212352Y88260D01*
X212345Y88273D01*
X212335Y88285D01*
X212334Y88286D01*
X212330Y88290D01*
X212323Y88296D01*
X212314Y88302D01*
X212302Y88308D01*
X212287Y88315D01*
X212270Y88320D01*
X212249Y88324D01*
X212263Y88403D01*
X212264D01*
X212267Y88402D01*
X212271Y88401D01*
X212276Y88400D01*
X212283Y88398D01*
X212290Y88395D01*
X212308Y88390D01*
X212328Y88381D01*
X212348Y88369D01*
X212368Y88356D01*
X212385Y88338D01*
X212386Y88337D01*
X212387Y88335D01*
X212389Y88333D01*
X212392Y88329D01*
X212395Y88324D01*
X212399Y88318D01*
X212403Y88311D01*
X212407Y88303D01*
X212415Y88284D01*
X212422Y88263D01*
X212427Y88238D01*
X212429Y88225D01*
Y88202D01*
X212428Y88192D01*
X212426Y88180D01*
X212423Y88165D01*
X212418Y88149D01*
X212413Y88132D01*
X212406Y88115D01*
Y88114D01*
X212405Y88113D01*
X212402Y88108D01*
X212396Y88100D01*
X212390Y88090D01*
X212381Y88079D01*
X212370Y88068D01*
X212358Y88057D01*
X212345Y88048D01*
X212343Y88047D01*
X212338Y88044D01*
X212330Y88040D01*
X212320Y88036D01*
X212308Y88031D01*
X212294Y88027D01*
X212278Y88025D01*
X212262Y88024D01*
X212260D01*
X212255D01*
X212247Y88025D01*
X212237Y88026D01*
X212225Y88029D01*
X212212Y88034D01*
X212199Y88039D01*
X212186Y88047D01*
X212185Y88048D01*
X212181Y88051D01*
X212174Y88056D01*
X212167Y88063D01*
X212159Y88073D01*
X212149Y88084D01*
X212141Y88097D01*
X212133Y88112D01*
Y88112D01*
X212132Y88110D01*
X212131Y88107D01*
X212130Y88103D01*
X212126Y88093D01*
X212121Y88080D01*
X212113Y88065D01*
X212104Y88051D01*
X212092Y88037D01*
X212078Y88024D01*
X212076Y88023D01*
X212071Y88019D01*
X212062Y88014D01*
X212050Y88008D01*
X212035Y88002D01*
X212017Y87997D01*
X211997Y87993D01*
X211975Y87992D01*
X211974D01*
X211971D01*
X211966D01*
X211961Y87993D01*
X211953Y87994D01*
X211945Y87996D01*
X211936Y87998D01*
X211926Y88000D01*
X211904Y88007D01*
X211891Y88013D01*
X211880Y88018D01*
X211868Y88026D01*
X211856Y88034D01*
X211844Y88043D01*
X211833Y88054D01*
X211832Y88055D01*
X211830Y88057D01*
X211828Y88061D01*
X211824Y88065D01*
X211819Y88071D01*
X211815Y88078D01*
X211809Y88087D01*
X211805Y88097D01*
X211799Y88107D01*
X211793Y88119D01*
X211789Y88131D01*
X211784Y88145D01*
X211781Y88160D01*
X211778Y88175D01*
X211776Y88191D01*
X211775Y88209D01*
Y88217D01*
X211776Y88222D01*
X211777Y88230D01*
X211778Y88238D01*
X211780Y88247D01*
X211781Y88258D01*
X211787Y88280D01*
X211796Y88303D01*
X211802Y88315D01*
X211808Y88326D01*
X211817Y88337D01*
X211825Y88348D01*
X211826Y88349D01*
X211828Y88351D01*
X211830Y88354D01*
X211834Y88357D01*
X211839Y88361D01*
X211845Y88366D01*
X211852Y88371D01*
X211860Y88377D01*
X211869Y88382D01*
X211879Y88388D01*
X211901Y88398D01*
X211927Y88406D01*
X211940Y88409D01*
X211955Y88411D01*
X211965Y88333D01*
D02*
G37*
G36*
Y87835D02*
X211965D01*
X211963Y87834D01*
X211959Y87833D01*
X211954Y87832D01*
X211949Y87831D01*
X211942Y87830D01*
X211928Y87825D01*
X211912Y87818D01*
X211896Y87810D01*
X211881Y87801D01*
X211868Y87790D01*
X211867Y87788D01*
X211864Y87784D01*
X211859Y87777D01*
X211855Y87768D01*
X211849Y87757D01*
X211844Y87743D01*
X211841Y87727D01*
X211840Y87710D01*
Y87705D01*
X211841Y87701D01*
X211842Y87691D01*
X211844Y87678D01*
X211849Y87663D01*
X211855Y87647D01*
X211865Y87632D01*
X211878Y87617D01*
X211879Y87615D01*
X211885Y87610D01*
X211893Y87605D01*
X211904Y87597D01*
X211918Y87590D01*
X211934Y87585D01*
X211952Y87580D01*
X211973Y87578D01*
X211974D01*
X211976D01*
X211978D01*
X211982Y87579D01*
X211992Y87580D01*
X212004Y87583D01*
X212019Y87586D01*
X212034Y87593D01*
X212049Y87602D01*
X212063Y87614D01*
X212064Y87616D01*
X212068Y87621D01*
X212074Y87628D01*
X212080Y87638D01*
X212087Y87651D01*
X212092Y87667D01*
X212096Y87684D01*
X212098Y87704D01*
Y87712D01*
X212097Y87719D01*
X212096Y87727D01*
X212094Y87736D01*
X212092Y87747D01*
X212089Y87759D01*
X212159Y87750D01*
Y87745D01*
X212158Y87742D01*
Y87730D01*
X212160Y87720D01*
X212161Y87708D01*
X212164Y87694D01*
X212169Y87678D01*
X212175Y87663D01*
X212184Y87647D01*
Y87646D01*
X212185Y87646D01*
X212188Y87641D01*
X212195Y87634D01*
X212203Y87627D01*
X212215Y87620D01*
X212229Y87613D01*
X212245Y87609D01*
X212254Y87607D01*
X212264D01*
X212265D01*
X212266D01*
X212271D01*
X212279Y87609D01*
X212289Y87610D01*
X212300Y87614D01*
X212312Y87619D01*
X212324Y87626D01*
X212335Y87636D01*
X212336Y87637D01*
X212340Y87642D01*
X212345Y87648D01*
X212350Y87657D01*
X212355Y87668D01*
X212359Y87681D01*
X212363Y87695D01*
X212364Y87712D01*
Y87720D01*
X212362Y87728D01*
X212360Y87739D01*
X212357Y87751D01*
X212352Y87763D01*
X212345Y87776D01*
X212335Y87788D01*
X212334Y87789D01*
X212330Y87793D01*
X212323Y87798D01*
X212314Y87805D01*
X212302Y87811D01*
X212287Y87818D01*
X212270Y87823D01*
X212249Y87827D01*
X212263Y87905D01*
X212264D01*
X212267Y87904D01*
X212271Y87904D01*
X212276Y87903D01*
X212283Y87901D01*
X212290Y87898D01*
X212308Y87892D01*
X212328Y87883D01*
X212348Y87872D01*
X212368Y87858D01*
X212385Y87841D01*
X212386Y87840D01*
X212387Y87838D01*
X212389Y87835D01*
X212392Y87831D01*
X212395Y87827D01*
X212399Y87820D01*
X212403Y87814D01*
X212407Y87806D01*
X212415Y87787D01*
X212422Y87766D01*
X212427Y87741D01*
X212429Y87728D01*
Y87705D01*
X212428Y87695D01*
X212426Y87683D01*
X212423Y87668D01*
X212418Y87651D01*
X212413Y87634D01*
X212406Y87618D01*
Y87617D01*
X212405Y87616D01*
X212402Y87610D01*
X212396Y87602D01*
X212390Y87593D01*
X212381Y87582D01*
X212370Y87571D01*
X212358Y87560D01*
X212345Y87550D01*
X212343Y87549D01*
X212338Y87547D01*
X212330Y87543D01*
X212320Y87538D01*
X212308Y87534D01*
X212294Y87530D01*
X212278Y87527D01*
X212262Y87526D01*
X212260D01*
X212255D01*
X212247Y87527D01*
X212237Y87529D01*
X212225Y87532D01*
X212212Y87536D01*
X212199Y87542D01*
X212186Y87549D01*
X212185Y87550D01*
X212181Y87553D01*
X212174Y87559D01*
X212167Y87566D01*
X212159Y87575D01*
X212149Y87586D01*
X212141Y87599D01*
X212133Y87615D01*
Y87614D01*
X212132Y87612D01*
X212131Y87610D01*
X212130Y87606D01*
X212126Y87596D01*
X212121Y87583D01*
X212113Y87568D01*
X212104Y87553D01*
X212092Y87539D01*
X212078Y87526D01*
X212076Y87525D01*
X212071Y87522D01*
X212062Y87516D01*
X212050Y87511D01*
X212035Y87505D01*
X212017Y87499D01*
X211997Y87496D01*
X211975Y87495D01*
X211974D01*
X211971D01*
X211966D01*
X211961Y87496D01*
X211953Y87497D01*
X211945Y87499D01*
X211936Y87500D01*
X211926Y87502D01*
X211904Y87510D01*
X211891Y87515D01*
X211880Y87521D01*
X211868Y87528D01*
X211856Y87536D01*
X211844Y87546D01*
X211833Y87557D01*
X211832Y87558D01*
X211830Y87560D01*
X211828Y87563D01*
X211824Y87568D01*
X211819Y87573D01*
X211815Y87581D01*
X211809Y87589D01*
X211805Y87599D01*
X211799Y87610D01*
X211793Y87622D01*
X211789Y87634D01*
X211784Y87647D01*
X211781Y87662D01*
X211778Y87678D01*
X211776Y87694D01*
X211775Y87711D01*
Y87720D01*
X211776Y87725D01*
X211777Y87732D01*
X211778Y87741D01*
X211780Y87750D01*
X211781Y87760D01*
X211787Y87782D01*
X211796Y87806D01*
X211802Y87818D01*
X211808Y87829D01*
X211817Y87840D01*
X211825Y87851D01*
X211826Y87852D01*
X211828Y87854D01*
X211830Y87856D01*
X211834Y87859D01*
X211839Y87864D01*
X211845Y87868D01*
X211852Y87874D01*
X211860Y87879D01*
X211869Y87885D01*
X211879Y87891D01*
X211901Y87901D01*
X211927Y87909D01*
X211940Y87912D01*
X211955Y87914D01*
X211965Y87835D01*
D02*
G37*
G36*
X164289Y10224D02*
X164288D01*
X164284D01*
X164279D01*
X164271Y10225D01*
X164263Y10226D01*
X164254Y10228D01*
X164245Y10230D01*
X164234Y10234D01*
X164233D01*
X164233Y10234D01*
X164227Y10236D01*
X164219Y10240D01*
X164208Y10246D01*
X164195Y10253D01*
X164180Y10262D01*
X164165Y10272D01*
X164149Y10285D01*
X164148D01*
X164147Y10287D01*
X164142Y10292D01*
X164134Y10300D01*
X164122Y10312D01*
X164108Y10326D01*
X164091Y10344D01*
X164073Y10365D01*
X164053Y10388D01*
X164052Y10389D01*
X164049Y10393D01*
X164045Y10398D01*
X164039Y10405D01*
X164032Y10413D01*
X164024Y10423D01*
X164014Y10433D01*
X164004Y10445D01*
X163982Y10468D01*
X163960Y10491D01*
X163949Y10503D01*
X163938Y10513D01*
X163927Y10522D01*
X163917Y10529D01*
X163916D01*
X163915Y10531D01*
X163913Y10533D01*
X163909Y10535D01*
X163899Y10541D01*
X163887Y10549D01*
X163872Y10555D01*
X163856Y10562D01*
X163839Y10565D01*
X163822Y10567D01*
X163821D01*
X163820D01*
X163815Y10566D01*
X163805Y10565D01*
X163795Y10563D01*
X163782Y10559D01*
X163769Y10553D01*
X163756Y10544D01*
X163743Y10533D01*
X163742Y10531D01*
X163738Y10527D01*
X163733Y10520D01*
X163727Y10510D01*
X163721Y10497D01*
X163716Y10482D01*
X163712Y10465D01*
X163711Y10445D01*
Y10440D01*
X163712Y10436D01*
X163713Y10425D01*
X163716Y10412D01*
X163719Y10398D01*
X163726Y10382D01*
X163734Y10368D01*
X163745Y10354D01*
X163747Y10352D01*
X163752Y10348D01*
X163759Y10343D01*
X163770Y10337D01*
X163783Y10331D01*
X163800Y10325D01*
X163818Y10321D01*
X163840Y10320D01*
X163831Y10239D01*
X163830D01*
X163828Y10240D01*
X163823D01*
X163816Y10241D01*
X163809Y10243D01*
X163801Y10245D01*
X163791Y10247D01*
X163780Y10250D01*
X163758Y10258D01*
X163736Y10269D01*
X163725Y10275D01*
X163714Y10283D01*
X163704Y10292D01*
X163694Y10301D01*
X163693Y10302D01*
X163693Y10304D01*
X163690Y10307D01*
X163687Y10311D01*
X163683Y10317D01*
X163680Y10323D01*
X163675Y10331D01*
X163670Y10340D01*
X163666Y10350D01*
X163661Y10361D01*
X163657Y10373D01*
X163654Y10386D01*
X163651Y10400D01*
X163648Y10415D01*
X163647Y10430D01*
X163646Y10447D01*
Y10456D01*
X163647Y10463D01*
X163648Y10470D01*
X163649Y10479D01*
X163651Y10490D01*
X163653Y10500D01*
X163659Y10524D01*
X163669Y10548D01*
X163674Y10560D01*
X163681Y10572D01*
X163689Y10583D01*
X163698Y10593D01*
X163699Y10594D01*
X163700Y10596D01*
X163704Y10598D01*
X163707Y10602D01*
X163712Y10606D01*
X163718Y10611D01*
X163725Y10615D01*
X163733Y10621D01*
X163751Y10630D01*
X163773Y10639D01*
X163784Y10643D01*
X163797Y10645D01*
X163810Y10647D01*
X163824Y10648D01*
X163826D01*
X163830D01*
X163838Y10647D01*
X163848Y10646D01*
X163859Y10644D01*
X163872Y10640D01*
X163886Y10637D01*
X163900Y10631D01*
X163902Y10630D01*
X163906Y10628D01*
X163914Y10625D01*
X163924Y10619D01*
X163935Y10612D01*
X163949Y10602D01*
X163963Y10591D01*
X163978Y10578D01*
X163980Y10577D01*
X163986Y10572D01*
X163990Y10567D01*
X163995Y10563D01*
X164000Y10557D01*
X164008Y10550D01*
X164015Y10542D01*
X164024Y10533D01*
X164033Y10524D01*
X164043Y10513D01*
X164053Y10501D01*
X164065Y10488D01*
X164077Y10473D01*
X164090Y10458D01*
X164091Y10457D01*
X164093Y10455D01*
X164096Y10452D01*
X164099Y10447D01*
X164105Y10442D01*
X164110Y10435D01*
X164122Y10420D01*
X164136Y10405D01*
X164150Y10390D01*
X164162Y10377D01*
X164167Y10371D01*
X164171Y10367D01*
X164172Y10366D01*
X164175Y10363D01*
X164179Y10359D01*
X164184Y10355D01*
X164191Y10350D01*
X164197Y10344D01*
X164213Y10333D01*
Y10649D01*
X164289D01*
Y10224D01*
D02*
G37*
G36*
X164114Y10157D02*
X164122Y10156D01*
X164130Y10154D01*
X164139Y10152D01*
X164149Y10150D01*
X164171Y10143D01*
X164184Y10137D01*
X164195Y10132D01*
X164207Y10124D01*
X164219Y10116D01*
X164231Y10107D01*
X164242Y10096D01*
X164243Y10095D01*
X164245Y10093D01*
X164247Y10089D01*
X164251Y10085D01*
X164256Y10079D01*
X164260Y10072D01*
X164266Y10063D01*
X164270Y10053D01*
X164276Y10043D01*
X164282Y10031D01*
X164286Y10019D01*
X164291Y10005D01*
X164294Y9990D01*
X164297Y9975D01*
X164299Y9959D01*
X164300Y9941D01*
Y9933D01*
X164299Y9927D01*
X164298Y9920D01*
X164297Y9912D01*
X164295Y9903D01*
X164294Y9892D01*
X164288Y9870D01*
X164279Y9847D01*
X164273Y9835D01*
X164267Y9824D01*
X164258Y9813D01*
X164250Y9802D01*
X164249Y9801D01*
X164247Y9799D01*
X164245Y9796D01*
X164241Y9793D01*
X164236Y9789D01*
X164230Y9784D01*
X164223Y9779D01*
X164215Y9773D01*
X164206Y9768D01*
X164196Y9762D01*
X164174Y9752D01*
X164148Y9744D01*
X164135Y9741D01*
X164120Y9739D01*
X164110Y9817D01*
X164110D01*
X164112Y9818D01*
X164116Y9819D01*
X164121Y9820D01*
X164126Y9821D01*
X164133Y9823D01*
X164147Y9828D01*
X164163Y9834D01*
X164179Y9842D01*
X164194Y9852D01*
X164207Y9863D01*
X164208Y9865D01*
X164211Y9868D01*
X164216Y9876D01*
X164221Y9885D01*
X164226Y9896D01*
X164231Y9910D01*
X164234Y9926D01*
X164235Y9942D01*
Y9948D01*
X164234Y9952D01*
X164233Y9962D01*
X164231Y9975D01*
X164226Y9989D01*
X164220Y10005D01*
X164210Y10021D01*
X164197Y10036D01*
X164196Y10038D01*
X164190Y10042D01*
X164182Y10048D01*
X164171Y10055D01*
X164157Y10062D01*
X164141Y10068D01*
X164122Y10073D01*
X164102Y10075D01*
X164101D01*
X164099D01*
X164097D01*
X164093Y10074D01*
X164083Y10073D01*
X164071Y10070D01*
X164056Y10066D01*
X164041Y10060D01*
X164026Y10050D01*
X164012Y10038D01*
X164011Y10037D01*
X164007Y10032D01*
X164001Y10025D01*
X163995Y10014D01*
X163988Y10001D01*
X163983Y9986D01*
X163979Y9968D01*
X163977Y9949D01*
Y9940D01*
X163978Y9934D01*
X163979Y9926D01*
X163981Y9916D01*
X163983Y9905D01*
X163986Y9893D01*
X163916Y9903D01*
Y9907D01*
X163917Y9911D01*
Y9923D01*
X163915Y9933D01*
X163914Y9945D01*
X163911Y9959D01*
X163906Y9975D01*
X163900Y9989D01*
X163891Y10005D01*
Y10006D01*
X163890Y10007D01*
X163887Y10012D01*
X163880Y10018D01*
X163872Y10026D01*
X163860Y10033D01*
X163846Y10039D01*
X163830Y10044D01*
X163821Y10046D01*
X163811D01*
X163810D01*
X163809D01*
X163804D01*
X163796Y10044D01*
X163786Y10042D01*
X163775Y10038D01*
X163763Y10034D01*
X163751Y10026D01*
X163740Y10016D01*
X163739Y10015D01*
X163735Y10011D01*
X163730Y10004D01*
X163725Y9996D01*
X163720Y9985D01*
X163716Y9972D01*
X163712Y9957D01*
X163711Y9940D01*
Y9933D01*
X163713Y9925D01*
X163715Y9914D01*
X163718Y9902D01*
X163723Y9890D01*
X163730Y9877D01*
X163740Y9865D01*
X163741Y9864D01*
X163745Y9860D01*
X163752Y9854D01*
X163761Y9848D01*
X163773Y9842D01*
X163788Y9835D01*
X163805Y9830D01*
X163826Y9826D01*
X163812Y9747D01*
X163811D01*
X163808Y9748D01*
X163804Y9749D01*
X163799Y9750D01*
X163792Y9752D01*
X163785Y9755D01*
X163767Y9760D01*
X163747Y9769D01*
X163727Y9781D01*
X163707Y9794D01*
X163690Y9812D01*
X163689Y9813D01*
X163688Y9815D01*
X163686Y9817D01*
X163683Y9821D01*
X163680Y9826D01*
X163676Y9832D01*
X163672Y9839D01*
X163668Y9847D01*
X163660Y9866D01*
X163653Y9887D01*
X163648Y9912D01*
X163646Y9925D01*
Y9948D01*
X163647Y9958D01*
X163649Y9970D01*
X163652Y9985D01*
X163657Y10001D01*
X163662Y10018D01*
X163669Y10035D01*
Y10036D01*
X163670Y10037D01*
X163673Y10042D01*
X163679Y10050D01*
X163685Y10060D01*
X163694Y10071D01*
X163705Y10082D01*
X163717Y10093D01*
X163730Y10102D01*
X163732Y10103D01*
X163737Y10106D01*
X163745Y10110D01*
X163755Y10114D01*
X163767Y10119D01*
X163781Y10123D01*
X163797Y10125D01*
X163813Y10126D01*
X163815D01*
X163820D01*
X163828Y10125D01*
X163838Y10124D01*
X163850Y10121D01*
X163863Y10116D01*
X163876Y10111D01*
X163889Y10103D01*
X163890Y10102D01*
X163894Y10099D01*
X163901Y10094D01*
X163908Y10087D01*
X163916Y10077D01*
X163926Y10066D01*
X163934Y10053D01*
X163942Y10038D01*
Y10038D01*
X163943Y10040D01*
X163944Y10043D01*
X163945Y10047D01*
X163949Y10057D01*
X163954Y10070D01*
X163962Y10085D01*
X163971Y10099D01*
X163983Y10113D01*
X163997Y10126D01*
X163999Y10127D01*
X164004Y10131D01*
X164013Y10136D01*
X164025Y10142D01*
X164040Y10148D01*
X164058Y10153D01*
X164078Y10157D01*
X164100Y10158D01*
X164101D01*
X164104D01*
X164109D01*
X164114Y10157D01*
D02*
G37*
G36*
X163985Y9653D02*
X163992D01*
X164010Y9652D01*
X164030Y9649D01*
X164051Y9646D01*
X164073Y9642D01*
X164096Y9636D01*
X164097D01*
X164098Y9635D01*
X164101Y9634D01*
X164105Y9633D01*
X164115Y9630D01*
X164128Y9624D01*
X164143Y9619D01*
X164158Y9611D01*
X164173Y9602D01*
X164188Y9593D01*
X164190Y9592D01*
X164195Y9588D01*
X164201Y9583D01*
X164209Y9575D01*
X164219Y9567D01*
X164228Y9557D01*
X164238Y9547D01*
X164246Y9535D01*
X164247Y9533D01*
X164250Y9529D01*
X164254Y9523D01*
X164258Y9513D01*
X164264Y9502D01*
X164269Y9489D01*
X164274Y9474D01*
X164279Y9458D01*
Y9456D01*
X164280Y9453D01*
X164281Y9450D01*
X164282Y9441D01*
X164283Y9428D01*
X164285Y9413D01*
X164287Y9396D01*
X164288Y9376D01*
X164289Y9355D01*
Y9125D01*
X163649D01*
Y9371D01*
X163650Y9388D01*
X163651Y9406D01*
X163653Y9425D01*
X163656Y9443D01*
X163658Y9459D01*
Y9460D01*
X163659Y9462D01*
Y9464D01*
X163661Y9468D01*
X163664Y9478D01*
X163669Y9491D01*
X163675Y9506D01*
X163683Y9522D01*
X163693Y9537D01*
X163705Y9552D01*
X163706Y9553D01*
X163706Y9554D01*
X163709Y9557D01*
X163712Y9560D01*
X163721Y9570D01*
X163734Y9581D01*
X163750Y9593D01*
X163768Y9606D01*
X163790Y9618D01*
X163814Y9628D01*
X163815D01*
X163816Y9629D01*
X163820Y9631D01*
X163826Y9632D01*
X163832Y9634D01*
X163840Y9636D01*
X163848Y9638D01*
X163858Y9641D01*
X163868Y9644D01*
X163880Y9646D01*
X163906Y9650D01*
X163935Y9653D01*
X163966Y9654D01*
X163967D01*
X163969D01*
X163974D01*
X163978D01*
X163985Y9653D01*
D02*
G37*
G36*
X209487Y93955D02*
X209499D01*
X209512Y93954D01*
X209526Y93952D01*
X209558Y93950D01*
X209591Y93945D01*
X209622Y93938D01*
X209638Y93934D01*
X209652Y93929D01*
X209653D01*
X209655Y93928D01*
X209659Y93926D01*
X209664Y93925D01*
X209670Y93922D01*
X209677Y93918D01*
X209693Y93909D01*
X209710Y93898D01*
X209729Y93885D01*
X209746Y93868D01*
X209762Y93850D01*
Y93849D01*
X209764Y93847D01*
X209766Y93844D01*
X209768Y93840D01*
X209770Y93835D01*
X209774Y93829D01*
X209778Y93822D01*
X209781Y93815D01*
X209788Y93797D01*
X209794Y93776D01*
X209798Y93753D01*
X209800Y93727D01*
Y93719D01*
X209799Y93715D01*
Y93708D01*
X209798Y93701D01*
X209794Y93683D01*
X209790Y93664D01*
X209782Y93644D01*
X209772Y93623D01*
X209766Y93613D01*
X209758Y93604D01*
X209757Y93603D01*
X209757Y93602D01*
X209754Y93599D01*
X209751Y93596D01*
X209746Y93593D01*
X209741Y93588D01*
X209728Y93579D01*
X209711Y93570D01*
X209691Y93560D01*
X209668Y93553D01*
X209641Y93547D01*
X209635Y93623D01*
X209635D01*
X209637Y93624D01*
X209639D01*
X209643Y93625D01*
X209653Y93628D01*
X209664Y93632D01*
X209677Y93636D01*
X209690Y93643D01*
X209702Y93650D01*
X209712Y93659D01*
X209713Y93660D01*
X209716Y93664D01*
X209720Y93670D01*
X209723Y93678D01*
X209728Y93688D01*
X209732Y93700D01*
X209734Y93714D01*
X209735Y93729D01*
Y93735D01*
X209734Y93742D01*
X209733Y93750D01*
X209732Y93760D01*
X209729Y93770D01*
X209725Y93781D01*
X209720Y93791D01*
X209719Y93792D01*
X209717Y93796D01*
X209713Y93802D01*
X209708Y93807D01*
X209701Y93815D01*
X209694Y93822D01*
X209685Y93829D01*
X209675Y93837D01*
X209674Y93838D01*
X209670Y93840D01*
X209663Y93843D01*
X209655Y93847D01*
X209644Y93852D01*
X209631Y93856D01*
X209616Y93861D01*
X209599Y93865D01*
X209598D01*
X209598Y93866D01*
X209595D01*
X209591Y93867D01*
X209582Y93869D01*
X209570Y93872D01*
X209555Y93874D01*
X209539Y93876D01*
X209522Y93877D01*
X209503Y93877D01*
X209502D01*
X209500D01*
X209495D01*
X209488D01*
X209489Y93877D01*
X209494Y93873D01*
X209500Y93867D01*
X209510Y93861D01*
X209519Y93852D01*
X209529Y93840D01*
X209539Y93828D01*
X209549Y93813D01*
X209549Y93811D01*
X209552Y93805D01*
X209556Y93797D01*
X209560Y93787D01*
X209564Y93773D01*
X209568Y93758D01*
X209571Y93742D01*
X209572Y93724D01*
Y93717D01*
X209571Y93711D01*
X209570Y93704D01*
X209569Y93696D01*
X209567Y93687D01*
X209564Y93678D01*
X209558Y93656D01*
X209553Y93645D01*
X209548Y93634D01*
X209541Y93622D01*
X209533Y93611D01*
X209524Y93600D01*
X209514Y93590D01*
X209513Y93589D01*
X209512Y93587D01*
X209509Y93585D01*
X209504Y93582D01*
X209498Y93577D01*
X209491Y93572D01*
X209483Y93568D01*
X209474Y93563D01*
X209463Y93558D01*
X209452Y93553D01*
X209439Y93548D01*
X209426Y93544D01*
X209412Y93540D01*
X209396Y93538D01*
X209380Y93536D01*
X209363Y93535D01*
X209362D01*
X209358D01*
X209353D01*
X209347Y93536D01*
X209339Y93537D01*
X209328Y93538D01*
X209318Y93540D01*
X209306Y93543D01*
X209282Y93549D01*
X209269Y93554D01*
X209255Y93559D01*
X209242Y93566D01*
X209230Y93574D01*
X209218Y93582D01*
X209206Y93593D01*
X209206Y93594D01*
X209204Y93595D01*
X209201Y93598D01*
X209197Y93603D01*
X209193Y93608D01*
X209187Y93616D01*
X209182Y93623D01*
X209176Y93632D01*
X209170Y93642D01*
X209166Y93653D01*
X209156Y93678D01*
X209152Y93691D01*
X209149Y93705D01*
X209147Y93720D01*
X209146Y93736D01*
Y93742D01*
X209147Y93747D01*
Y93752D01*
X209148Y93758D01*
X209151Y93774D01*
X209155Y93791D01*
X209161Y93811D01*
X209169Y93830D01*
X209181Y93850D01*
Y93851D01*
X209182Y93852D01*
X209184Y93854D01*
X209187Y93858D01*
X209194Y93867D01*
X209205Y93879D01*
X209218Y93891D01*
X209235Y93905D01*
X209255Y93917D01*
X209277Y93928D01*
X209278D01*
X209279Y93929D01*
X209283Y93931D01*
X209288Y93933D01*
X209294Y93935D01*
X209303Y93938D01*
X209312Y93939D01*
X209322Y93942D01*
X209334Y93945D01*
X209348Y93948D01*
X209363Y93950D01*
X209378Y93951D01*
X209396Y93953D01*
X209414Y93955D01*
X209435Y93956D01*
X209456D01*
X209457D01*
X209462D01*
X209468D01*
X209476D01*
X209487Y93955D01*
D02*
G37*
G36*
X209587Y93461D02*
X209595Y93460D01*
X209603Y93460D01*
X209613Y93458D01*
X209623Y93456D01*
X209647Y93450D01*
X209672Y93441D01*
X209685Y93435D01*
X209697Y93428D01*
X209710Y93421D01*
X209722Y93411D01*
X209723Y93411D01*
X209726Y93409D01*
X209730Y93405D01*
X209734Y93400D01*
X209740Y93394D01*
X209747Y93386D01*
X209754Y93377D01*
X209761Y93367D01*
X209769Y93356D01*
X209775Y93343D01*
X209782Y93329D01*
X209788Y93314D01*
X209793Y93299D01*
X209796Y93281D01*
X209799Y93263D01*
X209800Y93243D01*
Y93235D01*
X209799Y93228D01*
X209798Y93221D01*
X209797Y93213D01*
X209796Y93202D01*
X209794Y93192D01*
X209788Y93169D01*
X209780Y93146D01*
X209774Y93134D01*
X209768Y93122D01*
X209760Y93111D01*
X209752Y93100D01*
X209751Y93099D01*
X209750Y93097D01*
X209746Y93095D01*
X209743Y93092D01*
X209738Y93087D01*
X209733Y93082D01*
X209725Y93077D01*
X209717Y93072D01*
X209708Y93067D01*
X209698Y93061D01*
X209676Y93051D01*
X209650Y93043D01*
X209636Y93040D01*
X209622Y93038D01*
X209615Y93120D01*
X209616D01*
X209618D01*
X209621Y93121D01*
X209625Y93122D01*
X209635Y93125D01*
X209649Y93129D01*
X209663Y93134D01*
X209679Y93141D01*
X209693Y93151D01*
X209706Y93162D01*
X209707Y93164D01*
X209710Y93167D01*
X209715Y93175D01*
X209721Y93185D01*
X209726Y93196D01*
X209731Y93210D01*
X209734Y93226D01*
X209735Y93243D01*
Y93249D01*
X209734Y93252D01*
X209733Y93264D01*
X209730Y93276D01*
X209725Y93292D01*
X209718Y93308D01*
X209707Y93325D01*
X209700Y93332D01*
X209693Y93339D01*
X209692Y93340D01*
X209691Y93341D01*
X209688Y93343D01*
X209685Y93346D01*
X209675Y93352D01*
X209662Y93360D01*
X209647Y93366D01*
X209627Y93373D01*
X209604Y93377D01*
X209592Y93379D01*
X209579D01*
X209578D01*
X209576D01*
X209573D01*
X209568Y93378D01*
X209562D01*
X209556Y93377D01*
X209541Y93374D01*
X209524Y93370D01*
X209506Y93363D01*
X209489Y93354D01*
X209474Y93341D01*
X209473D01*
X209472Y93339D01*
X209467Y93335D01*
X209461Y93326D01*
X209453Y93315D01*
X209447Y93301D01*
X209440Y93284D01*
X209436Y93264D01*
X209434Y93253D01*
Y93236D01*
X209435Y93228D01*
X209436Y93219D01*
X209439Y93208D01*
X209441Y93197D01*
X209446Y93185D01*
X209451Y93173D01*
X209452Y93172D01*
X209454Y93168D01*
X209459Y93163D01*
X209463Y93155D01*
X209470Y93148D01*
X209478Y93141D01*
X209487Y93132D01*
X209497Y93126D01*
X209487Y93052D01*
X209157Y93114D01*
Y93432D01*
X209232D01*
Y93176D01*
X209405Y93141D01*
X209404Y93142D01*
X209403Y93144D01*
X209402Y93147D01*
X209399Y93152D01*
X209396Y93157D01*
X209392Y93164D01*
X209385Y93178D01*
X209377Y93197D01*
X209371Y93217D01*
X209366Y93239D01*
X209365Y93251D01*
Y93271D01*
X209365Y93276D01*
X209366Y93284D01*
X209367Y93292D01*
X209369Y93301D01*
X209372Y93312D01*
X209378Y93334D01*
X209383Y93346D01*
X209390Y93358D01*
X209396Y93370D01*
X209403Y93382D01*
X209413Y93393D01*
X209423Y93404D01*
X209424Y93405D01*
X209426Y93407D01*
X209428Y93410D01*
X209433Y93413D01*
X209439Y93418D01*
X209446Y93423D01*
X209454Y93428D01*
X209463Y93434D01*
X209474Y93438D01*
X209485Y93444D01*
X209498Y93448D01*
X209511Y93453D01*
X209524Y93457D01*
X209540Y93460D01*
X209556Y93461D01*
X209573Y93462D01*
X209573D01*
X209576D01*
X209581D01*
X209587Y93461D01*
D02*
G37*
G36*
X209591Y92965D02*
X209597Y92963D01*
X209604Y92960D01*
X209612Y92957D01*
X209622Y92954D01*
X209634Y92949D01*
X209646Y92944D01*
X209671Y92931D01*
X209697Y92914D01*
X209710Y92904D01*
X209723Y92894D01*
X209734Y92883D01*
X209745Y92870D01*
X209746Y92869D01*
X209748Y92867D01*
X209750Y92862D01*
X209754Y92858D01*
X209758Y92850D01*
X209763Y92843D01*
X209768Y92833D01*
X209772Y92823D01*
X209778Y92810D01*
X209782Y92798D01*
X209787Y92784D01*
X209792Y92769D01*
X209795Y92753D01*
X209797Y92737D01*
X209799Y92719D01*
X209800Y92700D01*
Y92690D01*
X209799Y92683D01*
Y92675D01*
X209798Y92664D01*
X209796Y92653D01*
X209794Y92640D01*
X209790Y92614D01*
X209782Y92586D01*
X209772Y92558D01*
X209766Y92545D01*
X209758Y92532D01*
X209757Y92531D01*
X209757Y92529D01*
X209754Y92526D01*
X209750Y92522D01*
X209746Y92516D01*
X209741Y92510D01*
X209734Y92503D01*
X209727Y92495D01*
X209719Y92488D01*
X209710Y92479D01*
X209689Y92463D01*
X209664Y92447D01*
X209636Y92433D01*
X209635D01*
X209633Y92431D01*
X209628Y92430D01*
X209622Y92428D01*
X209615Y92426D01*
X209606Y92423D01*
X209596Y92419D01*
X209585Y92417D01*
X209573Y92414D01*
X209559Y92410D01*
X209530Y92406D01*
X209498Y92402D01*
X209464Y92400D01*
X209463D01*
X209460D01*
X209454D01*
X209448Y92401D01*
X209439D01*
X209429Y92402D01*
X209417Y92403D01*
X209405Y92405D01*
X209378Y92409D01*
X209349Y92416D01*
X209319Y92425D01*
X209291Y92438D01*
X209290Y92439D01*
X209287Y92440D01*
X209283Y92442D01*
X209279Y92445D01*
X209272Y92449D01*
X209265Y92454D01*
X209248Y92466D01*
X209230Y92481D01*
X209211Y92500D01*
X209193Y92521D01*
X209177Y92546D01*
X209176Y92547D01*
X209175Y92550D01*
X209173Y92553D01*
X209170Y92558D01*
X209168Y92565D01*
X209165Y92573D01*
X209161Y92582D01*
X209157Y92592D01*
X209154Y92603D01*
X209150Y92615D01*
X209145Y92641D01*
X209140Y92671D01*
X209138Y92701D01*
Y92711D01*
X209139Y92717D01*
X209140Y92725D01*
X209141Y92736D01*
X209142Y92746D01*
X209145Y92758D01*
X209150Y92783D01*
X209158Y92810D01*
X209164Y92824D01*
X209170Y92837D01*
X209179Y92850D01*
X209187Y92863D01*
X209188Y92864D01*
X209189Y92866D01*
X209192Y92870D01*
X209196Y92874D01*
X209201Y92879D01*
X209207Y92885D01*
X209215Y92892D01*
X209222Y92899D01*
X209231Y92907D01*
X209242Y92914D01*
X209254Y92922D01*
X209266Y92930D01*
X209279Y92936D01*
X209293Y92944D01*
X209308Y92949D01*
X209325Y92955D01*
X209344Y92872D01*
X209343D01*
X209341Y92871D01*
X209338Y92869D01*
X209333Y92867D01*
X209328Y92865D01*
X209320Y92862D01*
X209305Y92855D01*
X209289Y92846D01*
X209272Y92835D01*
X209256Y92821D01*
X209242Y92806D01*
X209241Y92804D01*
X209237Y92798D01*
X209232Y92789D01*
X209226Y92777D01*
X209220Y92761D01*
X209215Y92744D01*
X209211Y92723D01*
X209210Y92700D01*
Y92692D01*
X209211Y92688D01*
Y92681D01*
X209212Y92674D01*
X209215Y92656D01*
X209218Y92637D01*
X209225Y92616D01*
X209234Y92595D01*
X209246Y92576D01*
Y92575D01*
X209248Y92574D01*
X209253Y92567D01*
X209260Y92559D01*
X209271Y92549D01*
X209285Y92537D01*
X209301Y92526D01*
X209320Y92516D01*
X209341Y92506D01*
X209342D01*
X209344Y92505D01*
X209347Y92504D01*
X209352Y92504D01*
X209357Y92502D01*
X209364Y92500D01*
X209379Y92497D01*
X209398Y92493D01*
X209418Y92490D01*
X209440Y92488D01*
X209464Y92487D01*
X209465D01*
X209468D01*
X209473D01*
X209478D01*
X209485Y92488D01*
X209493D01*
X209502Y92489D01*
X209512Y92490D01*
X209535Y92492D01*
X209559Y92497D01*
X209583Y92503D01*
X209607Y92510D01*
X209608D01*
X209610Y92511D01*
X209612Y92513D01*
X209617Y92515D01*
X209628Y92520D01*
X209641Y92529D01*
X209656Y92539D01*
X209671Y92552D01*
X209685Y92566D01*
X209698Y92584D01*
Y92585D01*
X209699Y92587D01*
X209701Y92590D01*
X209703Y92593D01*
X209705Y92598D01*
X209708Y92603D01*
X209713Y92616D01*
X209719Y92633D01*
X209723Y92651D01*
X209727Y92672D01*
X209728Y92693D01*
Y92700D01*
X209727Y92705D01*
Y92712D01*
X209726Y92718D01*
X209722Y92735D01*
X209718Y92754D01*
X209710Y92774D01*
X209700Y92794D01*
X209695Y92804D01*
X209687Y92813D01*
X209686Y92814D01*
X209685Y92815D01*
X209683Y92818D01*
X209680Y92822D01*
X209675Y92825D01*
X209670Y92830D01*
X209664Y92835D01*
X209657Y92840D01*
X209648Y92846D01*
X209639Y92852D01*
X209630Y92858D01*
X209619Y92863D01*
X209607Y92868D01*
X209594Y92872D01*
X209580Y92877D01*
X209565Y92881D01*
X209586Y92966D01*
X209587D01*
X209591Y92965D01*
D02*
G37*
G36*
X104103Y100249D02*
X104113D01*
X104122Y100248D01*
X104134Y100247D01*
X104146Y100245D01*
X104173Y100241D01*
X104202Y100234D01*
X104232Y100225D01*
X104260Y100212D01*
X104261Y100211D01*
X104264Y100210D01*
X104268Y100208D01*
X104272Y100205D01*
X104279Y100201D01*
X104286Y100196D01*
X104303Y100184D01*
X104321Y100169D01*
X104340Y100150D01*
X104358Y100129D01*
X104374Y100104D01*
X104375Y100103D01*
X104376Y100100D01*
X104378Y100097D01*
X104381Y100092D01*
X104383Y100085D01*
X104386Y100077D01*
X104390Y100068D01*
X104394Y100058D01*
X104397Y100047D01*
X104401Y100035D01*
X104407Y100009D01*
X104411Y99979D01*
X104413Y99949D01*
Y99939D01*
X104412Y99933D01*
X104411Y99925D01*
X104410Y99914D01*
X104409Y99904D01*
X104407Y99892D01*
X104401Y99867D01*
X104393Y99840D01*
X104387Y99826D01*
X104381Y99813D01*
X104372Y99800D01*
X104364Y99787D01*
X104363Y99786D01*
X104362Y99784D01*
X104359Y99780D01*
X104355Y99776D01*
X104350Y99771D01*
X104344Y99765D01*
X104336Y99758D01*
X104329Y99751D01*
X104320Y99743D01*
X104309Y99736D01*
X104297Y99728D01*
X104285Y99720D01*
X104272Y99714D01*
X104258Y99706D01*
X104243Y99701D01*
X104226Y99695D01*
X104207Y99778D01*
X104208D01*
X104210Y99779D01*
X104213Y99781D01*
X104218Y99783D01*
X104223Y99785D01*
X104231Y99788D01*
X104246Y99795D01*
X104262Y99804D01*
X104279Y99815D01*
X104295Y99829D01*
X104309Y99844D01*
X104310Y99846D01*
X104314Y99852D01*
X104319Y99861D01*
X104325Y99873D01*
X104331Y99888D01*
X104336Y99906D01*
X104340Y99927D01*
X104341Y99950D01*
Y99958D01*
X104340Y99962D01*
Y99969D01*
X104339Y99976D01*
X104336Y99994D01*
X104333Y100013D01*
X104326Y100034D01*
X104317Y100055D01*
X104305Y100074D01*
Y100075D01*
X104303Y100076D01*
X104298Y100083D01*
X104291Y100091D01*
X104280Y100101D01*
X104266Y100113D01*
X104250Y100124D01*
X104231Y100134D01*
X104210Y100144D01*
X104209D01*
X104207Y100145D01*
X104204Y100146D01*
X104199Y100146D01*
X104194Y100148D01*
X104187Y100150D01*
X104172Y100153D01*
X104153Y100157D01*
X104133Y100160D01*
X104111Y100162D01*
X104087Y100163D01*
X104086D01*
X104083D01*
X104078D01*
X104073D01*
X104066Y100162D01*
X104058D01*
X104049Y100161D01*
X104039Y100160D01*
X104016Y100158D01*
X103992Y100153D01*
X103968Y100147D01*
X103944Y100140D01*
X103943D01*
X103941Y100139D01*
X103939Y100137D01*
X103934Y100135D01*
X103923Y100130D01*
X103910Y100121D01*
X103895Y100111D01*
X103880Y100098D01*
X103866Y100084D01*
X103853Y100066D01*
Y100065D01*
X103852Y100063D01*
X103850Y100060D01*
X103848Y100057D01*
X103846Y100052D01*
X103843Y100047D01*
X103838Y100034D01*
X103832Y100017D01*
X103828Y99999D01*
X103824Y99978D01*
X103823Y99957D01*
Y99950D01*
X103824Y99945D01*
Y99938D01*
X103825Y99932D01*
X103829Y99915D01*
X103833Y99896D01*
X103841Y99876D01*
X103851Y99856D01*
X103856Y99846D01*
X103864Y99837D01*
X103865Y99836D01*
X103866Y99835D01*
X103868Y99832D01*
X103871Y99828D01*
X103876Y99825D01*
X103881Y99820D01*
X103887Y99815D01*
X103894Y99810D01*
X103903Y99804D01*
X103912Y99798D01*
X103921Y99792D01*
X103932Y99787D01*
X103944Y99782D01*
X103957Y99778D01*
X103971Y99773D01*
X103986Y99769D01*
X103965Y99684D01*
X103964D01*
X103960Y99685D01*
X103954Y99687D01*
X103947Y99690D01*
X103939Y99692D01*
X103929Y99696D01*
X103917Y99701D01*
X103905Y99706D01*
X103880Y99719D01*
X103854Y99736D01*
X103841Y99746D01*
X103828Y99756D01*
X103817Y99767D01*
X103806Y99780D01*
X103805Y99781D01*
X103803Y99783D01*
X103801Y99788D01*
X103797Y99792D01*
X103793Y99800D01*
X103788Y99807D01*
X103783Y99817D01*
X103779Y99827D01*
X103773Y99840D01*
X103769Y99852D01*
X103764Y99866D01*
X103759Y99881D01*
X103756Y99897D01*
X103754Y99913D01*
X103752Y99931D01*
X103751Y99950D01*
Y99960D01*
X103752Y99967D01*
Y99975D01*
X103753Y99986D01*
X103755Y99997D01*
X103757Y100010D01*
X103761Y100036D01*
X103769Y100064D01*
X103779Y100092D01*
X103785Y100105D01*
X103793Y100118D01*
X103794Y100119D01*
X103794Y100121D01*
X103797Y100124D01*
X103801Y100128D01*
X103805Y100134D01*
X103810Y100140D01*
X103817Y100147D01*
X103824Y100155D01*
X103832Y100162D01*
X103841Y100170D01*
X103862Y100187D01*
X103887Y100203D01*
X103915Y100217D01*
X103916D01*
X103918Y100219D01*
X103923Y100219D01*
X103929Y100222D01*
X103936Y100224D01*
X103945Y100227D01*
X103955Y100231D01*
X103966Y100233D01*
X103978Y100236D01*
X103992Y100240D01*
X104021Y100244D01*
X104053Y100248D01*
X104087Y100250D01*
X104088D01*
X104091D01*
X104097D01*
X104103Y100249D01*
D02*
G37*
G36*
X104402Y99346D02*
Y99282D01*
X103988D01*
Y99195D01*
X103916D01*
Y99282D01*
X103762D01*
Y99361D01*
X103916D01*
Y99639D01*
X103988D01*
X104402Y99346D01*
D02*
G37*
G36*
X103780Y99125D02*
X103788Y99124D01*
X103797Y99122D01*
X103807Y99120D01*
X103817Y99116D01*
X103818D01*
X103819Y99116D01*
X103824Y99114D01*
X103832Y99110D01*
X103843Y99104D01*
X103856Y99097D01*
X103871Y99088D01*
X103886Y99078D01*
X103902Y99065D01*
X103903D01*
X103904Y99063D01*
X103909Y99058D01*
X103917Y99050D01*
X103929Y99038D01*
X103943Y99024D01*
X103960Y99006D01*
X103978Y98985D01*
X103998Y98962D01*
X103999Y98961D01*
X104002Y98957D01*
X104006Y98952D01*
X104012Y98945D01*
X104019Y98937D01*
X104027Y98927D01*
X104037Y98917D01*
X104047Y98905D01*
X104069Y98882D01*
X104091Y98859D01*
X104102Y98847D01*
X104113Y98837D01*
X104124Y98828D01*
X104134Y98821D01*
X104135D01*
X104136Y98819D01*
X104138Y98817D01*
X104142Y98815D01*
X104152Y98809D01*
X104164Y98801D01*
X104179Y98795D01*
X104195Y98788D01*
X104212Y98785D01*
X104229Y98783D01*
X104230D01*
X104231D01*
X104236Y98784D01*
X104246Y98785D01*
X104256Y98787D01*
X104269Y98791D01*
X104282Y98798D01*
X104295Y98806D01*
X104308Y98817D01*
X104309Y98819D01*
X104313Y98823D01*
X104318Y98830D01*
X104324Y98840D01*
X104330Y98853D01*
X104335Y98868D01*
X104339Y98885D01*
X104340Y98905D01*
Y98910D01*
X104339Y98914D01*
X104338Y98925D01*
X104335Y98938D01*
X104332Y98952D01*
X104325Y98968D01*
X104317Y98982D01*
X104306Y98996D01*
X104304Y98998D01*
X104299Y99002D01*
X104292Y99007D01*
X104281Y99013D01*
X104268Y99019D01*
X104251Y99025D01*
X104233Y99029D01*
X104211Y99031D01*
X104220Y99111D01*
X104221D01*
X104223Y99110D01*
X104228D01*
X104235Y99109D01*
X104242Y99107D01*
X104250Y99105D01*
X104260Y99103D01*
X104271Y99100D01*
X104293Y99092D01*
X104315Y99081D01*
X104326Y99075D01*
X104337Y99067D01*
X104347Y99058D01*
X104357Y99049D01*
X104358Y99048D01*
X104358Y99046D01*
X104361Y99043D01*
X104364Y99039D01*
X104368Y99033D01*
X104371Y99027D01*
X104376Y99019D01*
X104381Y99010D01*
X104385Y99000D01*
X104390Y98989D01*
X104394Y98977D01*
X104397Y98964D01*
X104400Y98950D01*
X104403Y98935D01*
X104404Y98920D01*
X104405Y98903D01*
Y98894D01*
X104404Y98887D01*
X104403Y98880D01*
X104402Y98871D01*
X104400Y98860D01*
X104398Y98850D01*
X104392Y98826D01*
X104383Y98802D01*
X104377Y98790D01*
X104370Y98778D01*
X104362Y98767D01*
X104353Y98757D01*
X104352Y98756D01*
X104351Y98754D01*
X104347Y98752D01*
X104344Y98749D01*
X104339Y98744D01*
X104333Y98739D01*
X104326Y98735D01*
X104318Y98729D01*
X104300Y98720D01*
X104278Y98711D01*
X104267Y98707D01*
X104254Y98705D01*
X104241Y98703D01*
X104227Y98702D01*
X104225D01*
X104221D01*
X104213Y98703D01*
X104203Y98704D01*
X104192Y98706D01*
X104179Y98710D01*
X104165Y98713D01*
X104151Y98719D01*
X104150Y98720D01*
X104145Y98722D01*
X104138Y98725D01*
X104127Y98731D01*
X104116Y98738D01*
X104102Y98748D01*
X104089Y98759D01*
X104073Y98772D01*
X104071Y98773D01*
X104065Y98778D01*
X104061Y98783D01*
X104056Y98787D01*
X104051Y98793D01*
X104043Y98800D01*
X104036Y98808D01*
X104027Y98817D01*
X104018Y98826D01*
X104008Y98837D01*
X103998Y98849D01*
X103986Y98862D01*
X103974Y98877D01*
X103961Y98892D01*
X103960Y98893D01*
X103958Y98895D01*
X103955Y98898D01*
X103952Y98903D01*
X103946Y98908D01*
X103941Y98915D01*
X103929Y98930D01*
X103915Y98945D01*
X103901Y98960D01*
X103889Y98973D01*
X103884Y98979D01*
X103880Y98983D01*
X103879Y98984D01*
X103876Y98987D01*
X103872Y98991D01*
X103867Y98995D01*
X103860Y99000D01*
X103854Y99006D01*
X103838Y99017D01*
Y98701D01*
X103762D01*
Y99126D01*
X103763D01*
X103767D01*
X103772D01*
X103780Y99125D01*
D02*
G37*
G36*
X156477Y8099D02*
X156486D01*
X156496Y8098D01*
X156508Y8097D01*
X156520Y8095D01*
X156547Y8091D01*
X156576Y8084D01*
X156606Y8075D01*
X156634Y8062D01*
X156635Y8061D01*
X156638Y8060D01*
X156642Y8058D01*
X156646Y8055D01*
X156653Y8051D01*
X156660Y8046D01*
X156677Y8034D01*
X156695Y8019D01*
X156714Y8000D01*
X156732Y7979D01*
X156748Y7954D01*
X156749Y7953D01*
X156750Y7950D01*
X156752Y7947D01*
X156755Y7942D01*
X156757Y7935D01*
X156760Y7927D01*
X156764Y7918D01*
X156768Y7908D01*
X156771Y7897D01*
X156775Y7885D01*
X156780Y7859D01*
X156785Y7829D01*
X156787Y7799D01*
Y7789D01*
X156786Y7783D01*
X156785Y7775D01*
X156784Y7764D01*
X156783Y7754D01*
X156780Y7742D01*
X156775Y7717D01*
X156767Y7689D01*
X156761Y7676D01*
X156755Y7663D01*
X156746Y7650D01*
X156738Y7637D01*
X156737Y7636D01*
X156736Y7634D01*
X156733Y7630D01*
X156729Y7626D01*
X156724Y7621D01*
X156718Y7615D01*
X156710Y7608D01*
X156703Y7601D01*
X156694Y7593D01*
X156682Y7586D01*
X156671Y7578D01*
X156659Y7570D01*
X156646Y7564D01*
X156632Y7556D01*
X156617Y7551D01*
X156600Y7545D01*
X156581Y7628D01*
X156582D01*
X156584Y7629D01*
X156587Y7631D01*
X156592Y7633D01*
X156597Y7635D01*
X156605Y7638D01*
X156620Y7645D01*
X156636Y7654D01*
X156653Y7665D01*
X156669Y7679D01*
X156682Y7694D01*
X156684Y7696D01*
X156688Y7702D01*
X156693Y7711D01*
X156699Y7723D01*
X156705Y7739D01*
X156710Y7756D01*
X156714Y7777D01*
X156715Y7800D01*
Y7808D01*
X156714Y7812D01*
Y7819D01*
X156713Y7826D01*
X156710Y7844D01*
X156707Y7863D01*
X156700Y7884D01*
X156691Y7905D01*
X156679Y7924D01*
Y7925D01*
X156677Y7926D01*
X156672Y7933D01*
X156665Y7941D01*
X156654Y7951D01*
X156640Y7963D01*
X156624Y7974D01*
X156605Y7984D01*
X156584Y7994D01*
X156583D01*
X156581Y7995D01*
X156578Y7996D01*
X156573Y7996D01*
X156568Y7998D01*
X156561Y8000D01*
X156546Y8003D01*
X156527Y8007D01*
X156507Y8010D01*
X156485Y8012D01*
X156461Y8013D01*
X156460D01*
X156457D01*
X156452D01*
X156447D01*
X156440Y8012D01*
X156432D01*
X156423Y8011D01*
X156413Y8010D01*
X156390Y8008D01*
X156366Y8003D01*
X156342Y7997D01*
X156318Y7990D01*
X156317D01*
X156315Y7989D01*
X156313Y7987D01*
X156308Y7985D01*
X156297Y7980D01*
X156284Y7971D01*
X156269Y7961D01*
X156253Y7948D01*
X156240Y7934D01*
X156227Y7916D01*
Y7915D01*
X156226Y7913D01*
X156224Y7910D01*
X156222Y7907D01*
X156220Y7902D01*
X156217Y7897D01*
X156212Y7884D01*
X156206Y7867D01*
X156202Y7849D01*
X156198Y7828D01*
X156197Y7807D01*
Y7800D01*
X156198Y7795D01*
Y7788D01*
X156199Y7782D01*
X156203Y7765D01*
X156207Y7746D01*
X156215Y7726D01*
X156225Y7706D01*
X156230Y7696D01*
X156238Y7687D01*
X156239Y7686D01*
X156240Y7685D01*
X156242Y7682D01*
X156245Y7678D01*
X156250Y7675D01*
X156255Y7670D01*
X156261Y7665D01*
X156268Y7660D01*
X156277Y7654D01*
X156286Y7648D01*
X156295Y7642D01*
X156306Y7637D01*
X156318Y7632D01*
X156331Y7628D01*
X156345Y7623D01*
X156360Y7619D01*
X156339Y7534D01*
X156338D01*
X156334Y7535D01*
X156328Y7537D01*
X156321Y7540D01*
X156313Y7543D01*
X156303Y7546D01*
X156291Y7551D01*
X156279Y7556D01*
X156253Y7569D01*
X156228Y7586D01*
X156215Y7596D01*
X156202Y7606D01*
X156191Y7617D01*
X156180Y7630D01*
X156179Y7631D01*
X156177Y7633D01*
X156175Y7638D01*
X156171Y7642D01*
X156167Y7650D01*
X156162Y7657D01*
X156157Y7667D01*
X156153Y7677D01*
X156147Y7689D01*
X156143Y7702D01*
X156138Y7716D01*
X156133Y7731D01*
X156130Y7747D01*
X156128Y7763D01*
X156126Y7781D01*
X156125Y7800D01*
Y7810D01*
X156126Y7817D01*
Y7825D01*
X156127Y7836D01*
X156129Y7847D01*
X156131Y7860D01*
X156135Y7886D01*
X156143Y7914D01*
X156153Y7942D01*
X156159Y7955D01*
X156167Y7968D01*
X156168Y7969D01*
X156168Y7971D01*
X156171Y7974D01*
X156175Y7978D01*
X156179Y7984D01*
X156184Y7990D01*
X156191Y7997D01*
X156198Y8005D01*
X156206Y8012D01*
X156215Y8020D01*
X156236Y8037D01*
X156261Y8053D01*
X156289Y8067D01*
X156290D01*
X156292Y8069D01*
X156297Y8069D01*
X156303Y8072D01*
X156310Y8074D01*
X156319Y8077D01*
X156329Y8081D01*
X156340Y8083D01*
X156352Y8086D01*
X156366Y8090D01*
X156395Y8094D01*
X156427Y8098D01*
X156461Y8100D01*
X156462D01*
X156465D01*
X156471D01*
X156477Y8099D01*
D02*
G37*
G36*
X156315Y7383D02*
X156315D01*
X156313Y7382D01*
X156309Y7381D01*
X156304Y7380D01*
X156299Y7379D01*
X156292Y7377D01*
X156278Y7372D01*
X156262Y7366D01*
X156246Y7358D01*
X156231Y7348D01*
X156218Y7337D01*
X156217Y7335D01*
X156214Y7332D01*
X156209Y7324D01*
X156204Y7315D01*
X156199Y7304D01*
X156194Y7290D01*
X156191Y7274D01*
X156190Y7258D01*
Y7252D01*
X156191Y7248D01*
X156192Y7238D01*
X156194Y7225D01*
X156199Y7211D01*
X156205Y7195D01*
X156215Y7179D01*
X156228Y7164D01*
X156229Y7162D01*
X156235Y7158D01*
X156243Y7152D01*
X156254Y7145D01*
X156268Y7138D01*
X156284Y7132D01*
X156303Y7127D01*
X156323Y7126D01*
X156324D01*
X156326D01*
X156328D01*
X156332Y7126D01*
X156342Y7127D01*
X156354Y7130D01*
X156369Y7134D01*
X156384Y7140D01*
X156399Y7150D01*
X156413Y7162D01*
X156414Y7163D01*
X156418Y7168D01*
X156424Y7175D01*
X156430Y7186D01*
X156437Y7199D01*
X156442Y7214D01*
X156446Y7232D01*
X156448Y7251D01*
Y7260D01*
X156447Y7266D01*
X156446Y7274D01*
X156444Y7284D01*
X156442Y7295D01*
X156439Y7307D01*
X156509Y7297D01*
Y7293D01*
X156508Y7289D01*
Y7277D01*
X156510Y7267D01*
X156511Y7255D01*
X156514Y7241D01*
X156519Y7225D01*
X156525Y7211D01*
X156534Y7195D01*
Y7194D01*
X156535Y7193D01*
X156538Y7188D01*
X156545Y7182D01*
X156553Y7175D01*
X156565Y7167D01*
X156579Y7161D01*
X156595Y7156D01*
X156604Y7154D01*
X156614D01*
X156615D01*
X156616D01*
X156621D01*
X156629Y7156D01*
X156639Y7158D01*
X156650Y7162D01*
X156662Y7166D01*
X156674Y7174D01*
X156685Y7184D01*
X156686Y7185D01*
X156690Y7189D01*
X156695Y7196D01*
X156700Y7204D01*
X156705Y7215D01*
X156709Y7228D01*
X156713Y7243D01*
X156714Y7260D01*
Y7267D01*
X156712Y7275D01*
X156710Y7286D01*
X156707Y7298D01*
X156702Y7310D01*
X156695Y7323D01*
X156685Y7335D01*
X156684Y7336D01*
X156680Y7340D01*
X156673Y7346D01*
X156664Y7352D01*
X156652Y7359D01*
X156637Y7365D01*
X156620Y7371D01*
X156599Y7374D01*
X156613Y7453D01*
X156614D01*
X156617Y7452D01*
X156621Y7451D01*
X156626Y7450D01*
X156633Y7448D01*
X156640Y7445D01*
X156658Y7440D01*
X156678Y7431D01*
X156698Y7420D01*
X156718Y7406D01*
X156735Y7388D01*
X156736Y7387D01*
X156737Y7385D01*
X156739Y7383D01*
X156742Y7379D01*
X156745Y7374D01*
X156749Y7368D01*
X156753Y7361D01*
X156757Y7353D01*
X156765Y7334D01*
X156772Y7313D01*
X156777Y7288D01*
X156779Y7275D01*
Y7252D01*
X156778Y7242D01*
X156776Y7230D01*
X156773Y7215D01*
X156768Y7199D01*
X156763Y7182D01*
X156756Y7165D01*
Y7164D01*
X156755Y7163D01*
X156752Y7158D01*
X156746Y7150D01*
X156740Y7140D01*
X156731Y7129D01*
X156720Y7118D01*
X156708Y7107D01*
X156695Y7098D01*
X156693Y7097D01*
X156688Y7094D01*
X156680Y7090D01*
X156670Y7086D01*
X156658Y7081D01*
X156644Y7077D01*
X156628Y7075D01*
X156612Y7074D01*
X156610D01*
X156605D01*
X156597Y7075D01*
X156587Y7077D01*
X156575Y7079D01*
X156562Y7084D01*
X156549Y7089D01*
X156536Y7097D01*
X156535Y7098D01*
X156531Y7101D01*
X156524Y7106D01*
X156517Y7114D01*
X156509Y7123D01*
X156499Y7134D01*
X156491Y7147D01*
X156483Y7162D01*
Y7162D01*
X156482Y7160D01*
X156481Y7157D01*
X156480Y7153D01*
X156476Y7143D01*
X156471Y7130D01*
X156463Y7115D01*
X156454Y7101D01*
X156442Y7087D01*
X156428Y7074D01*
X156426Y7073D01*
X156421Y7069D01*
X156412Y7064D01*
X156400Y7058D01*
X156385Y7052D01*
X156367Y7047D01*
X156347Y7043D01*
X156325Y7042D01*
X156324D01*
X156321D01*
X156316D01*
X156311Y7043D01*
X156303Y7044D01*
X156295Y7046D01*
X156286Y7048D01*
X156276Y7050D01*
X156253Y7057D01*
X156241Y7063D01*
X156230Y7068D01*
X156218Y7076D01*
X156206Y7084D01*
X156194Y7093D01*
X156183Y7104D01*
X156182Y7105D01*
X156180Y7107D01*
X156178Y7111D01*
X156174Y7115D01*
X156169Y7121D01*
X156165Y7128D01*
X156159Y7137D01*
X156155Y7147D01*
X156149Y7157D01*
X156143Y7169D01*
X156139Y7181D01*
X156134Y7195D01*
X156131Y7210D01*
X156128Y7225D01*
X156126Y7241D01*
X156125Y7259D01*
Y7267D01*
X156126Y7273D01*
X156127Y7280D01*
X156128Y7288D01*
X156130Y7297D01*
X156131Y7308D01*
X156137Y7330D01*
X156146Y7353D01*
X156152Y7365D01*
X156158Y7376D01*
X156167Y7387D01*
X156175Y7398D01*
X156176Y7399D01*
X156178Y7401D01*
X156180Y7404D01*
X156184Y7407D01*
X156189Y7411D01*
X156195Y7416D01*
X156202Y7421D01*
X156210Y7427D01*
X156219Y7432D01*
X156229Y7438D01*
X156251Y7448D01*
X156277Y7457D01*
X156290Y7459D01*
X156305Y7461D01*
X156315Y7383D01*
D02*
G37*
%LPC*%
G36*
X212350Y88940D02*
X211862D01*
Y88788D01*
X211863Y88782D01*
X211864Y88768D01*
X211865Y88752D01*
X211867Y88736D01*
X211869Y88719D01*
X211873Y88705D01*
X211874Y88703D01*
X211875Y88699D01*
X211878Y88692D01*
X211881Y88684D01*
X211887Y88675D01*
X211892Y88665D01*
X211899Y88656D01*
X211906Y88647D01*
X211908Y88646D01*
X211912Y88642D01*
X211918Y88637D01*
X211928Y88630D01*
X211940Y88623D01*
X211953Y88615D01*
X211969Y88607D01*
X211987Y88601D01*
X211988D01*
X211989Y88600D01*
X211992Y88599D01*
X211996Y88598D01*
X212001Y88597D01*
X212007Y88595D01*
X212014Y88593D01*
X212021Y88591D01*
X212039Y88589D01*
X212061Y88586D01*
X212085Y88584D01*
X212111Y88583D01*
X212112D01*
X212115D01*
X212120D01*
X212127Y88584D01*
X212136D01*
X212145Y88585D01*
X212156Y88586D01*
X212167Y88587D01*
X212192Y88591D01*
X212218Y88597D01*
X212242Y88605D01*
X212254Y88611D01*
X212264Y88616D01*
X212265D01*
X212267Y88618D01*
X212270Y88620D01*
X212273Y88622D01*
X212283Y88629D01*
X212294Y88639D01*
X212306Y88651D01*
X212318Y88664D01*
X212328Y88680D01*
X212336Y88697D01*
X212337Y88699D01*
X212338Y88703D01*
X212341Y88712D01*
X212344Y88724D01*
X212345Y88738D01*
X212348Y88757D01*
X212349Y88768D01*
Y88780D01*
X212350Y88792D01*
Y88940D01*
D02*
G37*
G36*
X163964Y9567D02*
X163963D01*
X163960D01*
X163955D01*
X163948Y9566D01*
X163939D01*
X163930Y9565D01*
X163919Y9564D01*
X163908Y9563D01*
X163883Y9559D01*
X163857Y9553D01*
X163833Y9545D01*
X163821Y9539D01*
X163811Y9534D01*
X163810D01*
X163808Y9532D01*
X163805Y9530D01*
X163802Y9528D01*
X163792Y9521D01*
X163781Y9511D01*
X163769Y9499D01*
X163757Y9486D01*
X163747Y9470D01*
X163739Y9453D01*
X163738Y9451D01*
X163737Y9447D01*
X163734Y9438D01*
X163731Y9426D01*
X163730Y9412D01*
X163727Y9393D01*
X163726Y9382D01*
Y9370D01*
X163725Y9358D01*
Y9210D01*
X164213D01*
Y9362D01*
X164212Y9368D01*
X164211Y9382D01*
X164210Y9398D01*
X164208Y9414D01*
X164206Y9431D01*
X164202Y9445D01*
X164201Y9447D01*
X164200Y9451D01*
X164197Y9458D01*
X164194Y9466D01*
X164188Y9475D01*
X164183Y9485D01*
X164176Y9494D01*
X164169Y9503D01*
X164167Y9504D01*
X164163Y9508D01*
X164157Y9513D01*
X164147Y9520D01*
X164135Y9527D01*
X164122Y9535D01*
X164106Y9543D01*
X164088Y9549D01*
X164087D01*
X164086Y9550D01*
X164083Y9551D01*
X164079Y9552D01*
X164074Y9553D01*
X164068Y9555D01*
X164061Y9557D01*
X164054Y9559D01*
X164036Y9561D01*
X164014Y9564D01*
X163990Y9566D01*
X163964Y9567D01*
D02*
G37*
G36*
X209359Y93869D02*
X209358D01*
X209356D01*
X209353D01*
X209348Y93868D01*
X209341D01*
X209335Y93867D01*
X209320Y93864D01*
X209303Y93861D01*
X209284Y93854D01*
X209267Y93845D01*
X209251Y93833D01*
X209250D01*
X209249Y93831D01*
X209244Y93827D01*
X209238Y93819D01*
X209230Y93809D01*
X209224Y93796D01*
X209218Y93781D01*
X209213Y93765D01*
X209211Y93755D01*
Y93741D01*
X209212Y93737D01*
X209213Y93727D01*
X209217Y93715D01*
X209221Y93700D01*
X209230Y93684D01*
X209240Y93668D01*
X209247Y93661D01*
X209255Y93654D01*
X209255D01*
X209256Y93652D01*
X209259Y93650D01*
X209262Y93648D01*
X209271Y93642D01*
X209284Y93635D01*
X209300Y93628D01*
X209319Y93621D01*
X209341Y93618D01*
X209365Y93616D01*
X209366D01*
X209368D01*
X209371D01*
X209376Y93617D01*
X209381D01*
X209387Y93618D01*
X209401Y93620D01*
X209416Y93625D01*
X209433Y93631D01*
X209450Y93640D01*
X209464Y93652D01*
X209466Y93654D01*
X209470Y93658D01*
X209476Y93667D01*
X209483Y93677D01*
X209490Y93691D01*
X209497Y93706D01*
X209500Y93724D01*
X209502Y93743D01*
Y93749D01*
X209501Y93753D01*
X209500Y93763D01*
X209498Y93775D01*
X209493Y93790D01*
X209487Y93804D01*
X209477Y93819D01*
X209464Y93833D01*
X209463Y93835D01*
X209457Y93839D01*
X209449Y93844D01*
X209437Y93852D01*
X209422Y93858D01*
X209404Y93864D01*
X209383Y93867D01*
X209359Y93869D01*
D02*
G37*
G36*
X103988Y99562D02*
Y99361D01*
X104274D01*
X103988Y99562D01*
D02*
G37*
%LPD*%
D156*
X221350Y126000D02*
X227800D01*
Y138050D01*
X221350D02*
X227800D01*
X221350Y126000D02*
Y138050D01*
X210950Y90550D02*
X212600D01*
X210950Y87500D02*
Y90550D01*
Y87500D02*
X212600D01*
Y90550D01*
X162900Y3337D02*
Y14913D01*
X165700D01*
Y3337D02*
Y14913D01*
X162900Y3337D02*
X165700D01*
X208950Y91000D02*
X210650D01*
Y93800D01*
X208950D02*
X210650D01*
X208950Y91000D02*
Y93800D01*
X100901Y106350D02*
X106601D01*
X100901Y94150D02*
Y106350D01*
Y94150D02*
X106601D01*
Y106350D01*
X151625Y13900D02*
X160625D01*
X151625Y2300D02*
Y13900D01*
Y2300D02*
X160625D01*
Y13900D01*
D158*
X239675Y162142D02*
Y161875D01*
Y162009D01*
X240342D01*
X240475Y161875D01*
Y161742D01*
X240342Y161609D01*
X239675Y162942D02*
Y162409D01*
X240075D01*
X239942Y162675D01*
Y162808D01*
X240075Y162942D01*
X240342D01*
X240475Y162808D01*
Y162542D01*
X240342Y162409D01*
X192242Y7100D02*
X191975D01*
X192109D01*
Y6433D01*
X191975Y6300D01*
X191842D01*
X191709Y6433D01*
X192908Y6300D02*
Y7100D01*
X192509Y6700D01*
X193042D01*
X236500Y46442D02*
Y46175D01*
Y46308D01*
X237167D01*
X237300Y46175D01*
Y46042D01*
X237167Y45909D01*
X237300Y47241D02*
Y46708D01*
X236767Y47241D01*
X236633D01*
X236500Y47108D01*
Y46842D01*
X236633Y46708D01*
X145000Y7400D02*
X144733D01*
X144867D01*
Y6733D01*
X144733Y6600D01*
X144600D01*
X144467Y6733D01*
X145267Y6600D02*
X145533D01*
X145400D01*
Y7400D01*
X145267Y7267D01*
D207*
X147700Y12750D02*
Y25750D01*
X134700Y12750D02*
X147700D01*
X134700Y25750D02*
X147700D01*
X134700Y12750D02*
Y25750D01*
X237225Y169775D02*
X237475Y170375D01*
X236275D02*
X237475D01*
X236275D02*
X236525Y169775D01*
X235575D02*
X236525D01*
X237225D02*
X244575D01*
X235575Y154775D02*
Y169775D01*
X244575Y154775D02*
Y169775D01*
X242425Y154775D02*
X244575D01*
X235575D02*
X241725D01*
X241475Y154175D02*
X242675D01*
X242425Y154775D02*
X242675Y154175D01*
X241475D02*
X241725Y154775D01*
X48969Y63129D02*
X50056D01*
X48425D02*
X48969D01*
X50056D02*
X50625D01*
Y59354D02*
Y63129D01*
X48400Y59354D02*
X50625D01*
X48400D02*
Y63129D01*
X48969Y168250D02*
X50056D01*
X48425D02*
X48969D01*
X50056D02*
X50625D01*
Y164475D02*
Y168250D01*
X48400Y164475D02*
X50625D01*
X48400D02*
Y168250D01*
X58444Y52725D02*
X59531D01*
X60075D01*
X57875D02*
X58444D01*
X57875D02*
Y56500D01*
X60100D01*
Y52725D02*
Y56500D01*
Y158725D02*
Y162500D01*
X57875D02*
X60100D01*
X57875Y158725D02*
Y162500D01*
Y158725D02*
X58444D01*
X59531D02*
X60075D01*
X58444D02*
X59531D01*
X48400Y191825D02*
Y195600D01*
Y191825D02*
X50625D01*
Y195600D01*
X50056D02*
X50625D01*
X48425D02*
X48969D01*
X50056D01*
X48969Y90600D02*
X50056D01*
X48425D02*
X48969D01*
X50056D02*
X50625D01*
Y86825D02*
Y90600D01*
X48400Y86825D02*
X50625D01*
X48400D02*
Y90600D01*
X60100Y185725D02*
Y189500D01*
X57875D02*
X60100D01*
X57875Y185725D02*
Y189500D01*
Y185725D02*
X58444D01*
X59531D02*
X60075D01*
X58444D02*
X59531D01*
X58444Y80725D02*
X59531D01*
X60075D01*
X57875D02*
X58444D01*
X57875D02*
Y84500D01*
X60100D01*
Y80725D02*
Y84500D01*
X48969Y123150D02*
X50056D01*
X48425D02*
X48969D01*
X50056D02*
X50625D01*
Y119375D02*
Y123150D01*
X48400Y119375D02*
X50625D01*
X48400D02*
Y123150D01*
X48969Y18275D02*
X50056D01*
X48425D02*
X48969D01*
X50056D02*
X50625D01*
Y14500D02*
Y18275D01*
X48400Y14500D02*
X50625D01*
X48400D02*
Y18275D01*
X60100Y112725D02*
Y116500D01*
X57875D02*
X60100D01*
X57875Y112725D02*
Y116500D01*
Y112725D02*
X58444D01*
X59531D02*
X60075D01*
X58444D02*
X59531D01*
X58444Y7725D02*
X59531D01*
X60075D01*
X57875D02*
X58444D01*
X57875D02*
Y11500D01*
X60100D01*
Y7725D02*
Y11500D01*
X48400Y41991D02*
Y45766D01*
Y41991D02*
X50625D01*
Y45766D01*
X50056D02*
X50625D01*
X48425D02*
X48969D01*
X50056D01*
X48969Y150675D02*
X50056D01*
X48425D02*
X48969D01*
X50056D02*
X50625D01*
Y146900D02*
Y150675D01*
X48400Y146900D02*
X50625D01*
X48400D02*
Y150675D01*
X60100Y139950D02*
Y143725D01*
X57875D02*
X60100D01*
X57875Y139950D02*
Y143725D01*
Y139950D02*
X58444D01*
X59531D02*
X60075D01*
X58444D02*
X59531D01*
X58444Y35725D02*
X59531D01*
X60075D01*
X57875D02*
X58444D01*
X57875D02*
Y39500D01*
X60100D01*
Y35725D02*
Y39500D01*
X120025Y148050D02*
Y161050D01*
X133025D01*
X120025Y148050D02*
X133025D01*
Y161050D01*
X202500Y23975D02*
Y38325D01*
X201412Y23975D02*
X202500D01*
X198825D02*
X199912D01*
X201412D01*
X198825D02*
Y38325D01*
X202500D01*
X106300Y74175D02*
X117700D01*
X106300Y67775D02*
X117700D01*
X106300D02*
Y74175D01*
X117700Y67775D02*
Y74175D01*
X106300Y180012D02*
X117700D01*
X106300Y173612D02*
X117700D01*
X106300D02*
Y180012D01*
X117700Y173612D02*
Y180012D01*
X128075Y52375D02*
X141075D01*
Y39375D02*
Y52375D01*
X128075Y39375D02*
Y52375D01*
Y39375D02*
X141075D01*
X106300Y133390D02*
X117700D01*
X106300Y126990D02*
X117700D01*
X106300D02*
Y133390D01*
X117700Y126990D02*
Y133390D01*
X106300Y28650D02*
X117700D01*
X106300Y22250D02*
X117700D01*
X106300D02*
Y28650D01*
X117700Y22250D02*
Y28650D01*
X197375Y9550D02*
X197975Y9300D01*
Y10500D01*
X197375Y10250D02*
X197975Y10500D01*
X186775Y5300D02*
X187375Y5050D01*
X186775Y4100D02*
X187375Y4350D01*
X186775Y4100D02*
Y5300D01*
X187375Y5050D02*
Y11200D01*
Y2200D02*
Y4350D01*
Y2200D02*
X197375D01*
X187375Y11200D02*
X197375D01*
Y10250D02*
Y11200D01*
Y2200D02*
Y9550D01*
X234050Y51575D02*
X234300Y52175D01*
X233100D02*
X234300D01*
X233100D02*
X233350Y51575D01*
X238300Y40975D02*
X238550Y41575D01*
X239250D02*
X239500Y40975D01*
X238300D02*
X239500D01*
X232400Y41575D02*
X238550D01*
X239250D02*
X241400D01*
Y51575D01*
X232400Y41575D02*
Y51575D01*
X233350D01*
X234050D02*
X241400D01*
X150000Y2500D02*
Y9850D01*
Y10550D02*
Y11500D01*
X140000D02*
X150000D01*
X140000Y2500D02*
X150000D01*
X140000D02*
Y4650D01*
Y5350D02*
Y11500D01*
X139400Y4400D02*
Y5600D01*
Y4400D02*
X140000Y4650D01*
X139400Y5600D02*
X140000Y5350D01*
X150000Y10550D02*
X150600Y10800D01*
Y9600D02*
Y10800D01*
X150000Y9850D02*
X150600Y9600D01*
X141658Y18992D02*
X141775Y18875D01*
X142008D01*
X142125Y18992D01*
Y19458D01*
X142008Y19575D01*
X141775D01*
X141658Y19458D01*
X140959Y18875D02*
X141425D01*
Y19225D01*
X141192Y19108D01*
X141075D01*
X140959Y19225D01*
Y19458D01*
X141075Y19575D01*
X141309D01*
X141425Y19458D01*
X49850Y61804D02*
X49383D01*
X49150Y61571D01*
X49383Y61337D01*
X49850D01*
Y61104D02*
X49150D01*
Y60754D01*
X49267Y60638D01*
X49733D01*
X49850Y60754D01*
Y61104D01*
X49150Y60404D02*
Y60171D01*
Y60288D01*
X49850D01*
X49733Y60404D01*
X49850Y59355D02*
X49733Y59588D01*
X49500Y59821D01*
X49267D01*
X49150Y59705D01*
Y59471D01*
X49267Y59355D01*
X49383D01*
X49500Y59471D01*
Y59821D01*
X49850Y166925D02*
X49383D01*
X49150Y166692D01*
X49383Y166458D01*
X49850D01*
Y166225D02*
X49150D01*
Y165875D01*
X49267Y165759D01*
X49733D01*
X49850Y165875D01*
Y166225D01*
X49150Y165525D02*
Y165292D01*
Y165409D01*
X49850D01*
X49733Y165525D01*
X49850Y164476D02*
Y164942D01*
X49500D01*
X49617Y164709D01*
Y164592D01*
X49500Y164476D01*
X49267D01*
X49150Y164592D01*
Y164826D01*
X49267Y164942D01*
X58650Y54050D02*
X59117D01*
X59350Y54283D01*
X59117Y54517D01*
X58650D01*
Y54750D02*
X59350D01*
Y55100D01*
X59233Y55216D01*
X58767D01*
X58650Y55100D01*
Y54750D01*
X59350Y55450D02*
Y55683D01*
Y55566D01*
X58650D01*
X58767Y55450D01*
X59350Y56383D02*
X58650D01*
X59000Y56033D01*
Y56499D01*
X58650Y160050D02*
X59117D01*
X59350Y160283D01*
X59117Y160517D01*
X58650D01*
Y160750D02*
X59350D01*
Y161100D01*
X59233Y161216D01*
X58767D01*
X58650Y161100D01*
Y160750D01*
X59350Y161450D02*
Y161683D01*
Y161566D01*
X58650D01*
X58767Y161450D01*
Y162033D02*
X58650Y162149D01*
Y162383D01*
X58767Y162499D01*
X58883D01*
X59000Y162383D01*
Y162266D01*
Y162383D01*
X59117Y162499D01*
X59233D01*
X59350Y162383D01*
Y162149D01*
X59233Y162033D01*
X49850Y194275D02*
X49383D01*
X49150Y194042D01*
X49383Y193808D01*
X49850D01*
Y193575D02*
X49150D01*
Y193225D01*
X49267Y193109D01*
X49733D01*
X49850Y193225D01*
Y193575D01*
X49150Y192875D02*
Y192642D01*
Y192759D01*
X49850D01*
X49733Y192875D01*
X49150Y191826D02*
Y192292D01*
X49617Y191826D01*
X49733D01*
X49850Y191942D01*
Y192176D01*
X49733Y192292D01*
X49850Y89275D02*
X49383D01*
X49150Y89042D01*
X49383Y88808D01*
X49850D01*
Y88575D02*
X49150D01*
Y88225D01*
X49267Y88109D01*
X49733D01*
X49850Y88225D01*
Y88575D01*
X49150Y87875D02*
Y87642D01*
Y87759D01*
X49850D01*
X49733Y87875D01*
X49150Y87292D02*
Y87059D01*
Y87176D01*
X49850D01*
X49733Y87292D01*
X58650Y187050D02*
X59117D01*
X59350Y187283D01*
X59117Y187517D01*
X58650D01*
Y187750D02*
X59350D01*
Y188100D01*
X59233Y188216D01*
X58767D01*
X58650Y188100D01*
Y187750D01*
X59350Y188450D02*
Y188683D01*
Y188566D01*
X58650D01*
X58767Y188450D01*
Y189033D02*
X58650Y189149D01*
Y189383D01*
X58767Y189499D01*
X59233D01*
X59350Y189383D01*
Y189149D01*
X59233Y189033D01*
X58767D01*
X58650Y82050D02*
X59117D01*
X59350Y82283D01*
X59117Y82517D01*
X58650D01*
Y82750D02*
X59350D01*
Y83100D01*
X59233Y83216D01*
X58767D01*
X58650Y83100D01*
Y82750D01*
X59233Y83450D02*
X59350Y83566D01*
Y83799D01*
X59233Y83916D01*
X58767D01*
X58650Y83799D01*
Y83566D01*
X58767Y83450D01*
X58883D01*
X59000Y83566D01*
Y83916D01*
X49850Y121825D02*
X49383D01*
X49150Y121592D01*
X49383Y121358D01*
X49850D01*
Y121125D02*
X49150D01*
Y120775D01*
X49267Y120659D01*
X49733D01*
X49850Y120775D01*
Y121125D01*
X49733Y120425D02*
X49850Y120309D01*
Y120076D01*
X49733Y119959D01*
X49617D01*
X49500Y120076D01*
X49383Y119959D01*
X49267D01*
X49150Y120076D01*
Y120309D01*
X49267Y120425D01*
X49383D01*
X49500Y120309D01*
X49617Y120425D01*
X49733D01*
X49500Y120309D02*
Y120076D01*
X49850Y16950D02*
X49383D01*
X49150Y16717D01*
X49383Y16483D01*
X49850D01*
Y16250D02*
X49150D01*
Y15900D01*
X49267Y15784D01*
X49733D01*
X49850Y15900D01*
Y16250D01*
Y15550D02*
Y15084D01*
X49733D01*
X49267Y15550D01*
X49150D01*
X58650Y114050D02*
X59117D01*
X59350Y114283D01*
X59117Y114517D01*
X58650D01*
Y114750D02*
X59350D01*
Y115100D01*
X59233Y115216D01*
X58767D01*
X58650Y115100D01*
Y114750D01*
Y115916D02*
X58767Y115683D01*
X59000Y115450D01*
X59233D01*
X59350Y115566D01*
Y115799D01*
X59233Y115916D01*
X59117D01*
X59000Y115799D01*
Y115450D01*
X58650Y9050D02*
X59117D01*
X59350Y9283D01*
X59117Y9517D01*
X58650D01*
Y9750D02*
X59350D01*
Y10100D01*
X59233Y10216D01*
X58767D01*
X58650Y10100D01*
Y9750D01*
Y10916D02*
Y10450D01*
X59000D01*
X58883Y10683D01*
Y10799D01*
X59000Y10916D01*
X59233D01*
X59350Y10799D01*
Y10566D01*
X59233Y10450D01*
X49850Y44441D02*
X49383D01*
X49150Y44207D01*
X49383Y43974D01*
X49850D01*
Y43741D02*
X49150D01*
Y43391D01*
X49267Y43274D01*
X49733D01*
X49850Y43391D01*
Y43741D01*
X49150Y42691D02*
X49850D01*
X49500Y43041D01*
Y42575D01*
X49850Y149350D02*
X49383D01*
X49150Y149117D01*
X49383Y148883D01*
X49850D01*
Y148650D02*
X49150D01*
Y148300D01*
X49267Y148184D01*
X49733D01*
X49850Y148300D01*
Y148650D01*
X49733Y147950D02*
X49850Y147834D01*
Y147601D01*
X49733Y147484D01*
X49617D01*
X49500Y147601D01*
Y147717D01*
Y147601D01*
X49383Y147484D01*
X49267D01*
X49150Y147601D01*
Y147834D01*
X49267Y147950D01*
X58650Y141275D02*
X59117D01*
X59350Y141508D01*
X59117Y141742D01*
X58650D01*
Y141975D02*
X59350D01*
Y142325D01*
X59233Y142441D01*
X58767D01*
X58650Y142325D01*
Y141975D01*
X59350Y143141D02*
Y142675D01*
X58883Y143141D01*
X58767D01*
X58650Y143024D01*
Y142791D01*
X58767Y142675D01*
X58650Y37050D02*
X59117D01*
X59350Y37283D01*
X59117Y37517D01*
X58650D01*
Y37750D02*
X59350D01*
Y38100D01*
X59233Y38216D01*
X58767D01*
X58650Y38100D01*
Y37750D01*
X59350Y38450D02*
Y38683D01*
Y38566D01*
X58650D01*
X58767Y38450D01*
X126983Y154292D02*
X127100Y154175D01*
X127333D01*
X127450Y154292D01*
Y154758D01*
X127333Y154875D01*
X127100D01*
X126983Y154758D01*
X126750Y154292D02*
X126634Y154175D01*
X126400D01*
X126284Y154292D01*
Y154408D01*
X126400Y154525D01*
X126284Y154642D01*
Y154758D01*
X126400Y154875D01*
X126634D01*
X126750Y154758D01*
Y154642D01*
X126634Y154525D01*
X126750Y154408D01*
Y154292D01*
X126634Y154525D02*
X126400D01*
X126050Y154292D02*
X125934Y154175D01*
X125701D01*
X125584Y154292D01*
Y154408D01*
X125701Y154525D01*
X125584Y154642D01*
Y154758D01*
X125701Y154875D01*
X125934D01*
X126050Y154758D01*
Y154642D01*
X125934Y154525D01*
X126050Y154408D01*
Y154292D01*
X125934Y154525D02*
X125701D01*
X201025Y32075D02*
X200558D01*
X200325Y31842D01*
X200558Y31608D01*
X201025D01*
Y31375D02*
X200325D01*
Y31025D01*
X200442Y30909D01*
X200908D01*
X201025Y31025D01*
Y31375D01*
X200325Y30675D02*
Y30442D01*
Y30559D01*
X201025D01*
X200908Y30675D01*
X201025Y30092D02*
Y29626D01*
X200908D01*
X200442Y30092D01*
X200325D01*
X112000Y70975D02*
Y70275D01*
X111650D01*
X111533Y70392D01*
Y70625D01*
X111650Y70742D01*
X112000D01*
X111767D02*
X111533Y70975D01*
X110834Y70275D02*
X111067Y70392D01*
X111300Y70625D01*
Y70858D01*
X111184Y70975D01*
X110950D01*
X110834Y70858D01*
Y70742D01*
X110950Y70625D01*
X111300D01*
X110251Y70975D02*
Y70275D01*
X110600Y70625D01*
X110134D01*
X114166Y178065D02*
Y177365D01*
X113816D01*
X113699Y177482D01*
Y177715D01*
X113816Y177832D01*
X114166D01*
X113932D02*
X113699Y178065D01*
X112999Y177365D02*
X113233Y177482D01*
X113466Y177715D01*
Y177948D01*
X113349Y178065D01*
X113116D01*
X112999Y177948D01*
Y177832D01*
X113116Y177715D01*
X113466D01*
X112766Y177482D02*
X112649Y177365D01*
X112416D01*
X112300Y177482D01*
Y177598D01*
X112416Y177715D01*
X112533D01*
X112416D01*
X112300Y177832D01*
Y177948D01*
X112416Y178065D01*
X112649D01*
X112766Y177948D01*
X134158Y45408D02*
X134275Y45525D01*
Y45758D01*
X134158Y45875D01*
X133692D01*
X133575Y45758D01*
Y45525D01*
X133692Y45408D01*
X133575Y44825D02*
X134275D01*
X133925Y45175D01*
Y44709D01*
X112000Y130190D02*
Y129490D01*
X111650D01*
X111533Y129607D01*
Y129840D01*
X111650Y129957D01*
X112000D01*
X111767D02*
X111533Y130190D01*
X111300Y129607D02*
X111184Y129490D01*
X110950D01*
X110834Y129607D01*
Y129723D01*
X110950Y129840D01*
X111067D01*
X110950D01*
X110834Y129957D01*
Y130073D01*
X110950Y130190D01*
X111184D01*
X111300Y130073D01*
X110134Y130190D02*
X110600D01*
X110134Y129723D01*
Y129607D01*
X110251Y129490D01*
X110484D01*
X110600Y129607D01*
X112000Y25450D02*
Y24750D01*
X111650D01*
X111533Y24867D01*
Y25100D01*
X111650Y25217D01*
X112000D01*
X111767D02*
X111533Y25450D01*
X110834D02*
X111300D01*
X110834Y24983D01*
Y24867D01*
X110950Y24750D01*
X111184D01*
X111300Y24867D01*
X110600Y25333D02*
X110484Y25450D01*
X110251D01*
X110134Y25333D01*
Y24867D01*
X110251Y24750D01*
X110484D01*
X110600Y24867D01*
Y24983D01*
X110484Y25100D01*
X110134D01*
D226*
X200637Y36250D02*
D03*
%TF.MD5,b3c5b910e67cfafb312a631c21558972*%
M02*
