%TF.GenerationSoftware,Altium Limited,Altium Designer,21.6.4 (81)*%
G04 Layer_Color=16711935*
%FSLAX43Y43*%
%MOMM*%
%TF.SameCoordinates,B094594F-E5AE-4C03-B854-EF891E02AD71*%
%TF.FilePolarity,Positive*%
%TF.FileFunction,Other,Mechanical_5*%
%TF.Part,Single*%
G01*
G75*
G36*
X110180Y5918D02*
X119256D01*
Y12700D01*
X110180D01*
Y5918D01*
D02*
G37*
G36*
Y35840D02*
X119256D01*
Y42622D01*
X110180D01*
Y35840D01*
D02*
G37*
G36*
Y53109D02*
X119256D01*
Y59891D01*
X110180D01*
Y53109D01*
D02*
G37*
G36*
Y81585D02*
X119256D01*
Y88367D01*
X110180D01*
Y81585D01*
D02*
G37*
G36*
Y111338D02*
X119256D01*
Y118120D01*
X110180D01*
Y111338D01*
D02*
G37*
G36*
Y142194D02*
X119256D01*
Y148976D01*
X110180D01*
Y142194D01*
D02*
G37*
G36*
Y157419D02*
X119256D01*
Y164201D01*
X110180D01*
Y157419D01*
D02*
G37*
G36*
Y187345D02*
X119256D01*
Y194127D01*
X110180D01*
Y187345D01*
D02*
G37*
G36*
X189936Y169757D02*
X177948D01*
Y177021D01*
X189936D01*
Y169757D01*
D02*
G37*
G36*
X207589D02*
X195601D01*
Y177021D01*
X207589D01*
Y169757D01*
D02*
G37*
G36*
X225242D02*
X213254D01*
Y177021D01*
X225242D01*
Y169757D01*
D02*
G37*
%TF.MD5,8b2d39af11d21959f7986cbf071d40ef*%
M02*
