%TF.GenerationSoftware,Altium Limited,Altium Designer,21.6.4 (81)*%
G04 Layer_Color=16711935*
%FSLAX43Y43*%
%MOMM*%
%TF.SameCoordinates,B094594F-E5AE-4C03-B854-EF891E02AD71*%
%TF.FilePolarity,Negative*%
%TF.FileFunction,Soldermask,Bot*%
%TF.Part,Single*%
G01*
G75*
%TA.AperFunction,SMDPad,CuDef*%
%ADD18R,1.350X0.950*%
%ADD19R,1.508X1.157*%
%TA.AperFunction,ComponentPad*%
%ADD60C,1.800*%
%ADD62C,1.550*%
%ADD63R,1.550X1.550*%
%ADD64R,1.600X1.600*%
%ADD65C,1.600*%
%ADD66C,1.300*%
%ADD67R,1.300X1.300*%
%ADD69C,2.500*%
%ADD79R,1.550X1.550*%
%ADD83R,1.200X1.200*%
%ADD84C,1.200*%
%TA.AperFunction,SMDPad,CuDef*%
%ADD96R,1.508X1.207*%
%ADD97R,1.157X1.508*%
%ADD100R,1.207X1.508*%
%ADD101R,0.950X1.350*%
%ADD104R,0.757X1.308*%
%ADD105R,1.308X0.757*%
%ADD109R,1.250X2.000*%
G04:AMPARAMS|DCode=111|XSize=1.25mm|YSize=2mm|CornerRadius=0mm|HoleSize=0mm|Usage=FLASHONLY|Rotation=225.000|XOffset=0mm|YOffset=0mm|HoleType=Round|Shape=Rectangle|*
%AMROTATEDRECTD111*
4,1,4,-0.265,1.149,1.149,-0.265,0.265,-1.149,-1.149,0.265,-0.265,1.149,0.0*
%
%ADD111ROTATEDRECTD111*%

%ADD112R,2.270X0.558*%
G04:AMPARAMS|DCode=113|XSize=1.194mm|YSize=0.305mm|CornerRadius=0mm|HoleSize=0mm|Usage=FLASHONLY|Rotation=225.000|XOffset=0mm|YOffset=0mm|HoleType=Round|Shape=Rectangle|*
%AMROTATEDRECTD113*
4,1,4,0.314,0.530,0.530,0.314,-0.314,-0.530,-0.530,-0.314,0.314,0.530,0.0*
%
%ADD113ROTATEDRECTD113*%

G04:AMPARAMS|DCode=114|XSize=1.194mm|YSize=0.305mm|CornerRadius=0mm|HoleSize=0mm|Usage=FLASHONLY|Rotation=135.000|XOffset=0mm|YOffset=0mm|HoleType=Round|Shape=Rectangle|*
%AMROTATEDRECTD114*
4,1,4,0.530,-0.314,0.314,-0.530,-0.530,0.314,-0.314,0.530,0.530,-0.314,0.0*
%
%ADD114ROTATEDRECTD114*%

%ADD118R,0.900X1.200*%
%ADD119R,0.808X1.262*%
%ADD120R,1.007X1.408*%
G04:AMPARAMS|DCode=121|XSize=1.207mm|YSize=1.508mm|CornerRadius=0mm|HoleSize=0mm|Usage=FLASHONLY|Rotation=315.000|XOffset=0mm|YOffset=0mm|HoleType=Round|Shape=Rectangle|*
%AMROTATEDRECTD121*
4,1,4,-0.960,-0.107,0.107,0.960,0.960,0.107,-0.107,-0.960,-0.960,-0.107,0.0*
%
%ADD121ROTATEDRECTD121*%

G04:AMPARAMS|DCode=122|XSize=1.207mm|YSize=1.508mm|CornerRadius=0mm|HoleSize=0mm|Usage=FLASHONLY|Rotation=45.000|XOffset=0mm|YOffset=0mm|HoleType=Round|Shape=Rectangle|*
%AMROTATEDRECTD122*
4,1,4,0.107,-0.960,-0.960,0.107,-0.107,0.960,0.960,-0.107,0.107,-0.960,0.0*
%
%ADD122ROTATEDRECTD122*%

%ADD125R,2.500X1.700*%
%ADD126R,1.556X1.505*%
G04:AMPARAMS|DCode=127|XSize=0.95mm|YSize=1.35mm|CornerRadius=0mm|HoleSize=0mm|Usage=FLASHONLY|Rotation=135.000|XOffset=0mm|YOffset=0mm|HoleType=Round|Shape=Rectangle|*
%AMROTATEDRECTD127*
4,1,4,0.813,0.141,-0.141,-0.813,-0.813,-0.141,0.141,0.813,0.813,0.141,0.0*
%
%ADD127ROTATEDRECTD127*%

G04:AMPARAMS|DCode=128|XSize=0.95mm|YSize=1.35mm|CornerRadius=0mm|HoleSize=0mm|Usage=FLASHONLY|Rotation=45.000|XOffset=0mm|YOffset=0mm|HoleType=Round|Shape=Rectangle|*
%AMROTATEDRECTD128*
4,1,4,0.141,-0.813,-0.813,0.141,-0.141,0.813,0.813,-0.141,0.141,-0.813,0.0*
%
%ADD128ROTATEDRECTD128*%

%TA.AperFunction,NonConductor*%
%ADD130C,0.254*%
%ADD161C,4.000*%
%ADD162C,3.000*%
%ADD163C,2.000*%
%ADD164C,5.000*%
%TA.AperFunction,SMDPad,CuDef*%
%ADD165R,2.750X3.700*%
%ADD166R,2.800X2.600*%
%ADD167R,2.600X2.800*%
%ADD168R,0.950X1.825*%
%ADD169R,1.600X2.100*%
%ADD170R,2.100X1.600*%
%ADD171R,1.750X2.100*%
%ADD172R,1.200X0.950*%
%ADD173O,1.000X2.900*%
G04:AMPARAMS|DCode=174|XSize=1.2mm|YSize=1.75mm|CornerRadius=0.2mm|HoleSize=0mm|Usage=FLASHONLY|Rotation=90.000|XOffset=0mm|YOffset=0mm|HoleType=Round|Shape=RoundedRectangle|*
%AMROUNDEDRECTD174*
21,1,1.200,1.351,0,0,90.0*
21,1,0.801,1.750,0,0,90.0*
1,1,0.399,0.676,0.401*
1,1,0.399,0.676,-0.401*
1,1,0.399,-0.676,-0.401*
1,1,0.399,-0.676,0.401*
%
%ADD174ROUNDEDRECTD174*%
G04:AMPARAMS|DCode=175|XSize=3.45mm|YSize=1.75mm|CornerRadius=0.201mm|HoleSize=0mm|Usage=FLASHONLY|Rotation=90.000|XOffset=0mm|YOffset=0mm|HoleType=Round|Shape=RoundedRectangle|*
%AMROUNDEDRECTD175*
21,1,3.450,1.349,0,0,90.0*
21,1,3.049,1.750,0,0,90.0*
1,1,0.402,0.674,1.524*
1,1,0.402,0.674,-1.524*
1,1,0.402,-0.674,-1.524*
1,1,0.402,-0.674,1.524*
%
%ADD175ROUNDEDRECTD175*%
G04:AMPARAMS|DCode=176|XSize=1.1mm|YSize=1.9mm|CornerRadius=0.35mm|HoleSize=0mm|Usage=FLASHONLY|Rotation=0.000|XOffset=0mm|YOffset=0mm|HoleType=Round|Shape=RoundedRectangle|*
%AMROUNDEDRECTD176*
21,1,1.100,1.200,0,0,0.0*
21,1,0.400,1.900,0,0,0.0*
1,1,0.700,0.200,-0.600*
1,1,0.700,-0.200,-0.600*
1,1,0.700,-0.200,0.600*
1,1,0.700,0.200,0.600*
%
%ADD176ROUNDEDRECTD176*%
G04:AMPARAMS|DCode=177|XSize=0.9mm|YSize=1.9mm|CornerRadius=0.3mm|HoleSize=0mm|Usage=FLASHONLY|Rotation=0.000|XOffset=0mm|YOffset=0mm|HoleType=Round|Shape=RoundedRectangle|*
%AMROUNDEDRECTD177*
21,1,0.900,1.300,0,0,0.0*
21,1,0.300,1.900,0,0,0.0*
1,1,0.600,0.150,-0.650*
1,1,0.600,-0.150,-0.650*
1,1,0.600,-0.150,0.650*
1,1,0.600,0.150,0.650*
%
%ADD177ROUNDEDRECTD177*%
G04:AMPARAMS|DCode=178|XSize=2.75mm|YSize=2.65mm|CornerRadius=0mm|HoleSize=0mm|Usage=FLASHONLY|Rotation=315.000|XOffset=0mm|YOffset=0mm|HoleType=Round|Shape=Rectangle|*
%AMROTATEDRECTD178*
4,1,4,-1.909,0.035,-0.035,1.909,1.909,-0.035,0.035,-1.909,-1.909,0.035,0.0*
%
%ADD178ROTATEDRECTD178*%

%TA.AperFunction,ComponentPad*%
%ADD179C,2.489*%
%ADD180C,2.300*%
%ADD181C,2.250*%
G04:AMPARAMS|DCode=182|XSize=2.25mm|YSize=2.25mm|CornerRadius=0.638mm|HoleSize=0mm|Usage=FLASHONLY|Rotation=90.000|XOffset=0mm|YOffset=0mm|HoleType=Round|Shape=RoundedRectangle|*
%AMROUNDEDRECTD182*
21,1,2.250,0.975,0,0,90.0*
21,1,0.975,2.250,0,0,90.0*
1,1,1.275,0.488,0.488*
1,1,1.275,0.488,-0.488*
1,1,1.275,-0.488,-0.488*
1,1,1.275,-0.488,0.488*
%
%ADD182ROUNDEDRECTD182*%
%ADD183C,2.100*%
%ADD184O,5.888X5.380*%
%ADD185C,2.800*%
%ADD186C,6.650*%
G04:AMPARAMS|DCode=187|XSize=2.25mm|YSize=2.25mm|CornerRadius=0.638mm|HoleSize=0mm|Usage=FLASHONLY|Rotation=0.000|XOffset=0mm|YOffset=0mm|HoleType=Round|Shape=RoundedRectangle|*
%AMROUNDEDRECTD187*
21,1,2.250,0.975,0,0,0.0*
21,1,0.975,2.250,0,0,0.0*
1,1,1.275,0.488,-0.488*
1,1,1.275,-0.488,-0.488*
1,1,1.275,-0.488,0.488*
1,1,1.275,0.488,0.488*
%
%ADD187ROUNDEDRECTD187*%
%ADD188C,1.824*%
%ADD189O,5.380X9.190*%
%ADD190C,1.900*%
G04:AMPARAMS|DCode=191|XSize=1.9mm|YSize=1.9mm|CornerRadius=0.55mm|HoleSize=0mm|Usage=FLASHONLY|Rotation=270.000|XOffset=0mm|YOffset=0mm|HoleType=Round|Shape=RoundedRectangle|*
%AMROUNDEDRECTD191*
21,1,1.900,0.800,0,0,270.0*
21,1,0.800,1.900,0,0,270.0*
1,1,1.100,-0.400,-0.400*
1,1,1.100,-0.400,0.400*
1,1,1.100,0.400,0.400*
1,1,1.100,0.400,-0.400*
%
%ADD191ROUNDEDRECTD191*%
%ADD192O,5.126X6.650*%
%ADD193C,6.904*%
%ADD194O,2.332X2.840*%
%ADD195C,3.348*%
%ADD196O,2.586X2.078*%
%ADD197C,4.872*%
%ADD198R,2.586X2.586*%
G04:AMPARAMS|DCode=199|XSize=1.9mm|YSize=1.9mm|CornerRadius=0.55mm|HoleSize=0mm|Usage=FLASHONLY|Rotation=180.000|XOffset=0mm|YOffset=0mm|HoleType=Round|Shape=RoundedRectangle|*
%AMROUNDEDRECTD199*
21,1,1.900,0.800,0,0,180.0*
21,1,0.800,1.900,0,0,180.0*
1,1,1.100,-0.400,0.400*
1,1,1.100,0.400,0.400*
1,1,1.100,0.400,-0.400*
1,1,1.100,-0.400,-0.400*
%
%ADD199ROUNDEDRECTD199*%
%ADD200R,1.800X1.800*%
%ADD201R,1.850X1.850*%
%ADD202C,1.850*%
%TA.AperFunction,ViaPad*%
%ADD203C,1.570*%
%ADD204C,1.300*%
%ADD205C,1.800*%
G36*
X184051Y146838D02*
Y146835D01*
Y146833D01*
Y146826D01*
Y146817D01*
Y146796D01*
X184053Y146770D01*
Y146743D01*
X184055Y146717D01*
X184058Y146696D01*
X184060Y146680D01*
Y146678D01*
X184062Y146676D01*
X184069Y146664D01*
X184083Y146648D01*
X184104Y146632D01*
X184106D01*
X184111Y146629D01*
X184120Y146627D01*
X184134Y146625D01*
X184150Y146620D01*
X184173Y146618D01*
X184203Y146615D01*
X184238D01*
Y146574D01*
X183676D01*
Y146615D01*
X183711D01*
X183731Y146618D01*
X183755Y146620D01*
X183775Y146622D01*
X183796Y146627D01*
X183810Y146632D01*
X183812D01*
X183815Y146634D01*
X183829Y146643D01*
X183842Y146657D01*
X183854Y146676D01*
Y146678D01*
X183856Y146683D01*
X183859Y146692D01*
X183861Y146706D01*
X183863Y146727D01*
X183866Y146757D01*
X183868Y146791D01*
Y146814D01*
Y146838D01*
Y147643D01*
Y147645D01*
Y147650D01*
Y147659D01*
Y147668D01*
Y147696D01*
X183866Y147731D01*
Y147765D01*
X183863Y147800D01*
X183861Y147828D01*
X183859Y147842D01*
X183856Y147851D01*
Y147853D01*
X183854Y147856D01*
X183849Y147870D01*
X183840Y147888D01*
X183826Y147902D01*
X183824Y147904D01*
X183815Y147911D01*
X183798Y147916D01*
X183780Y147918D01*
X183773D01*
X183764Y147916D01*
X183750Y147914D01*
X183734Y147911D01*
X183715Y147904D01*
X183692Y147897D01*
X183667Y147886D01*
X183650Y147920D01*
X184014Y148099D01*
X184051D01*
Y146838D01*
D02*
G37*
G36*
Y942726D02*
Y942724D01*
Y942722D01*
Y942715D01*
Y942706D01*
Y942685D01*
X184053Y942659D01*
Y942632D01*
X184055Y942606D01*
X184058Y942585D01*
X184060Y942569D01*
Y942567D01*
X184062Y942564D01*
X184069Y942553D01*
X184083Y942537D01*
X184104Y942521D01*
X184106D01*
X184111Y942518D01*
X184120Y942516D01*
X184134Y942514D01*
X184150Y942509D01*
X184173Y942507D01*
X184203Y942504D01*
X184238D01*
Y942463D01*
X183676D01*
Y942504D01*
X183711D01*
X183731Y942507D01*
X183755Y942509D01*
X183775Y942511D01*
X183796Y942516D01*
X183810Y942521D01*
X183812D01*
X183815Y942523D01*
X183829Y942532D01*
X183842Y942546D01*
X183854Y942564D01*
Y942567D01*
X183856Y942571D01*
X183859Y942581D01*
X183861Y942595D01*
X183863Y942615D01*
X183866Y942645D01*
X183868Y942680D01*
Y942703D01*
Y942726D01*
Y943532D01*
Y943534D01*
Y943539D01*
Y943548D01*
Y943557D01*
Y943585D01*
X183866Y943620D01*
Y943654D01*
X183863Y943689D01*
X183861Y943717D01*
X183859Y943731D01*
X183856Y943740D01*
Y943742D01*
X183854Y943745D01*
X183849Y943758D01*
X183840Y943777D01*
X183826Y943791D01*
X183824Y943793D01*
X183815Y943800D01*
X183798Y943805D01*
X183780Y943807D01*
X183773D01*
X183764Y943805D01*
X183750Y943802D01*
X183734Y943800D01*
X183715Y943793D01*
X183692Y943786D01*
X183667Y943775D01*
X183650Y943809D01*
X184014Y943988D01*
X184051D01*
Y942726D01*
D02*
G37*
G36*
X392242Y148096D02*
X392259Y148094D01*
X392277Y148092D01*
X392319Y148085D01*
X392367Y148071D01*
X392418Y148050D01*
X392444Y148036D01*
X392469Y148020D01*
X392495Y148001D01*
X392518Y147981D01*
X392520Y147978D01*
X392522Y147976D01*
X392529Y147969D01*
X392536Y147960D01*
X392557Y147937D01*
X392580Y147902D01*
X392601Y147863D01*
X392622Y147816D01*
X392636Y147763D01*
X392638Y147735D01*
X392640Y147705D01*
Y147703D01*
Y147701D01*
Y147694D01*
Y147687D01*
X392638Y147664D01*
X392633Y147634D01*
X392627Y147601D01*
X392617Y147562D01*
X392603Y147520D01*
X392585Y147479D01*
Y147476D01*
X392580Y147472D01*
X392576Y147460D01*
X392569Y147448D01*
X392559Y147432D01*
X392550Y147411D01*
X392536Y147391D01*
X392522Y147365D01*
X392504Y147337D01*
X392485Y147307D01*
X392439Y147245D01*
X392411Y147210D01*
X392384Y147175D01*
X392353Y147138D01*
X392319Y147101D01*
X392316Y147099D01*
X392307Y147087D01*
X392293Y147074D01*
X392275Y147053D01*
X392254Y147030D01*
X392229Y147004D01*
X392173Y146944D01*
X392115Y146882D01*
X392087Y146851D01*
X392060Y146824D01*
X392034Y146798D01*
X392011Y146775D01*
X391992Y146757D01*
X391979Y146743D01*
X392432D01*
X392458Y146745D01*
X392485D01*
X392511Y146747D01*
X392532Y146750D01*
X392534D01*
X392541Y146752D01*
X392550Y146754D01*
X392562Y146757D01*
X392589Y146768D01*
X392617Y146784D01*
X392620Y146787D01*
X392624Y146789D01*
X392631Y146796D01*
X392640Y146805D01*
X392652Y146817D01*
X392664Y146828D01*
X392687Y146863D01*
X392731D01*
X392624Y146574D01*
X391743D01*
Y146613D01*
X391747Y146618D01*
X391759Y146629D01*
X391780Y146648D01*
X391807Y146673D01*
X391837Y146703D01*
X391874Y146738D01*
X391916Y146777D01*
X391958Y146819D01*
X392004Y146865D01*
X392048Y146912D01*
X392141Y147009D01*
X392182Y147057D01*
X392224Y147104D01*
X392261Y147150D01*
X392293Y147194D01*
X392296Y147196D01*
X392300Y147203D01*
X392307Y147217D01*
X392319Y147231D01*
X392330Y147252D01*
X392344Y147275D01*
X392358Y147300D01*
X392374Y147330D01*
X392402Y147393D01*
X392428Y147462D01*
X392439Y147497D01*
X392446Y147532D01*
X392451Y147569D01*
X392453Y147603D01*
Y147606D01*
Y147610D01*
Y147617D01*
X392451Y147627D01*
X392448Y147654D01*
X392441Y147687D01*
X392432Y147724D01*
X392416Y147763D01*
X392395Y147800D01*
X392365Y147837D01*
X392360Y147842D01*
X392349Y147851D01*
X392330Y147867D01*
X392305Y147883D01*
X392275Y147900D01*
X392240Y147916D01*
X392198Y147925D01*
X392154Y147930D01*
X392136D01*
X392115Y147927D01*
X392087Y147923D01*
X392057Y147914D01*
X392025Y147902D01*
X391990Y147886D01*
X391955Y147865D01*
X391951Y147863D01*
X391942Y147853D01*
X391925Y147837D01*
X391907Y147816D01*
X391886Y147791D01*
X391863Y147759D01*
X391844Y147721D01*
X391826Y147678D01*
X391787D01*
Y147680D01*
X391789Y147687D01*
Y147696D01*
X391793Y147710D01*
X391796Y147728D01*
X391800Y147747D01*
X391814Y147791D01*
X391833Y147842D01*
X391856Y147893D01*
X391886Y147944D01*
X391925Y147988D01*
X391928Y147990D01*
X391930Y147992D01*
X391937Y147997D01*
X391946Y148006D01*
X391958Y148013D01*
X391972Y148022D01*
X392004Y148043D01*
X392046Y148064D01*
X392094Y148082D01*
X392150Y148094D01*
X392180Y148096D01*
X392212Y148099D01*
X392231D01*
X392242Y148096D01*
D02*
G37*
G36*
Y943985D02*
X392259Y943983D01*
X392277Y943981D01*
X392319Y943974D01*
X392367Y943960D01*
X392418Y943939D01*
X392444Y943925D01*
X392469Y943909D01*
X392495Y943890D01*
X392518Y943870D01*
X392520Y943867D01*
X392522Y943865D01*
X392529Y943858D01*
X392536Y943849D01*
X392557Y943826D01*
X392580Y943791D01*
X392601Y943752D01*
X392622Y943705D01*
X392636Y943652D01*
X392638Y943624D01*
X392640Y943594D01*
Y943592D01*
Y943590D01*
Y943583D01*
Y943576D01*
X392638Y943553D01*
X392633Y943522D01*
X392627Y943490D01*
X392617Y943451D01*
X392603Y943409D01*
X392585Y943367D01*
Y943365D01*
X392580Y943360D01*
X392576Y943349D01*
X392569Y943337D01*
X392559Y943321D01*
X392550Y943300D01*
X392536Y943279D01*
X392522Y943254D01*
X392504Y943226D01*
X392485Y943196D01*
X392439Y943134D01*
X392411Y943099D01*
X392384Y943064D01*
X392353Y943027D01*
X392319Y942990D01*
X392316Y942988D01*
X392307Y942976D01*
X392293Y942962D01*
X392275Y942942D01*
X392254Y942919D01*
X392229Y942893D01*
X392173Y942833D01*
X392115Y942770D01*
X392087Y942740D01*
X392060Y942713D01*
X392034Y942687D01*
X392011Y942664D01*
X391992Y942645D01*
X391979Y942632D01*
X392432D01*
X392458Y942634D01*
X392485D01*
X392511Y942636D01*
X392532Y942639D01*
X392534D01*
X392541Y942641D01*
X392550Y942643D01*
X392562Y942645D01*
X392589Y942657D01*
X392617Y942673D01*
X392620Y942676D01*
X392624Y942678D01*
X392631Y942685D01*
X392640Y942694D01*
X392652Y942706D01*
X392664Y942717D01*
X392687Y942752D01*
X392731D01*
X392624Y942463D01*
X391743D01*
Y942502D01*
X391747Y942507D01*
X391759Y942518D01*
X391780Y942537D01*
X391807Y942562D01*
X391837Y942592D01*
X391874Y942627D01*
X391916Y942666D01*
X391958Y942708D01*
X392004Y942754D01*
X392048Y942800D01*
X392141Y942898D01*
X392182Y942946D01*
X392224Y942993D01*
X392261Y943039D01*
X392293Y943083D01*
X392296Y943085D01*
X392300Y943092D01*
X392307Y943106D01*
X392319Y943120D01*
X392330Y943141D01*
X392344Y943164D01*
X392358Y943189D01*
X392374Y943219D01*
X392402Y943282D01*
X392428Y943351D01*
X392439Y943386D01*
X392446Y943421D01*
X392451Y943458D01*
X392453Y943492D01*
Y943495D01*
Y943499D01*
Y943506D01*
X392451Y943516D01*
X392448Y943543D01*
X392441Y943576D01*
X392432Y943613D01*
X392416Y943652D01*
X392395Y943689D01*
X392365Y943726D01*
X392360Y943731D01*
X392349Y943740D01*
X392330Y943756D01*
X392305Y943772D01*
X392275Y943789D01*
X392240Y943805D01*
X392198Y943814D01*
X392154Y943819D01*
X392136D01*
X392115Y943816D01*
X392087Y943812D01*
X392057Y943802D01*
X392025Y943791D01*
X391990Y943775D01*
X391955Y943754D01*
X391951Y943752D01*
X391942Y943742D01*
X391925Y943726D01*
X391907Y943705D01*
X391886Y943680D01*
X391863Y943647D01*
X391844Y943610D01*
X391826Y943566D01*
X391787D01*
Y943569D01*
X391789Y943576D01*
Y943585D01*
X391793Y943599D01*
X391796Y943617D01*
X391800Y943636D01*
X391814Y943680D01*
X391833Y943731D01*
X391856Y943782D01*
X391886Y943833D01*
X391925Y943876D01*
X391928Y943879D01*
X391930Y943881D01*
X391937Y943886D01*
X391946Y943895D01*
X391958Y943902D01*
X391972Y943911D01*
X392004Y943932D01*
X392046Y943953D01*
X392094Y943971D01*
X392150Y943983D01*
X392180Y943985D01*
X392212Y943988D01*
X392231D01*
X392242Y943985D01*
D02*
G37*
G36*
X600615Y148096D02*
X600629Y148094D01*
X600647Y148092D01*
X600687Y148085D01*
X600731Y148071D01*
X600777Y148050D01*
X600798Y148036D01*
X600821Y148020D01*
X600842Y148001D01*
X600860Y147981D01*
X600862Y147976D01*
X600872Y147964D01*
X600883Y147948D01*
X600897Y147925D01*
X600911Y147897D01*
X600923Y147865D01*
X600932Y147833D01*
X600934Y147796D01*
Y147793D01*
Y147789D01*
X600932Y147779D01*
Y147768D01*
X600927Y147752D01*
X600923Y147735D01*
X600918Y147715D01*
X600909Y147691D01*
X600897Y147668D01*
X600886Y147641D01*
X600867Y147613D01*
X600849Y147583D01*
X600825Y147553D01*
X600798Y147522D01*
X600768Y147490D01*
X600731Y147458D01*
X600733D01*
X600737Y147455D01*
X600744Y147453D01*
X600754Y147448D01*
X600777Y147435D01*
X600807Y147418D01*
X600842Y147398D01*
X600874Y147370D01*
X600909Y147340D01*
X600936Y147303D01*
X600939Y147298D01*
X600948Y147284D01*
X600960Y147263D01*
X600973Y147236D01*
X600985Y147201D01*
X600997Y147162D01*
X601006Y147118D01*
X601008Y147069D01*
Y147067D01*
Y147060D01*
Y147050D01*
X601006Y147037D01*
X601004Y147020D01*
X601001Y147000D01*
X600999Y146979D01*
X600992Y146953D01*
X600978Y146900D01*
X600955Y146845D01*
X600941Y146817D01*
X600925Y146787D01*
X600906Y146759D01*
X600883Y146731D01*
X600881Y146729D01*
X600876Y146724D01*
X600867Y146715D01*
X600853Y146703D01*
X600837Y146689D01*
X600816Y146673D01*
X600793Y146657D01*
X600765Y146641D01*
X600733Y146622D01*
X600698Y146606D01*
X600659Y146590D01*
X600617Y146576D01*
X600573Y146565D01*
X600525Y146555D01*
X600471Y146551D01*
X600416Y146548D01*
X600393D01*
X600365Y146551D01*
X600335Y146553D01*
X600300Y146558D01*
X600265Y146565D01*
X600235Y146574D01*
X600210Y146585D01*
X600208Y146588D01*
X600201Y146592D01*
X600194Y146599D01*
X600184Y146608D01*
X600173Y146622D01*
X600166Y146636D01*
X600159Y146650D01*
X600157Y146666D01*
Y146669D01*
Y146671D01*
X600159Y146685D01*
X600168Y146703D01*
X600173Y146713D01*
X600182Y146722D01*
X600184Y146724D01*
X600187Y146727D01*
X600201Y146736D01*
X600219Y146743D01*
X600231Y146747D01*
X600263D01*
X600279Y146743D01*
X600300Y146738D01*
X600305Y146736D01*
X600309Y146733D01*
X600319Y146731D01*
X600330Y146724D01*
X600344Y146717D01*
X600363Y146708D01*
X600386Y146696D01*
X600388Y146694D01*
X600397Y146692D01*
X600409Y146685D01*
X600423Y146678D01*
X600453Y146664D01*
X600467Y146659D01*
X600478Y146655D01*
X600481D01*
X600485Y146652D01*
X600492Y146650D01*
X600504D01*
X600531Y146646D01*
X600564Y146643D01*
X600569D01*
X600582Y146646D01*
X600603Y146648D01*
X600631Y146655D01*
X600661Y146664D01*
X600696Y146680D01*
X600728Y146701D01*
X600761Y146729D01*
X600765Y146733D01*
X600774Y146745D01*
X600788Y146764D01*
X600805Y146787D01*
X600818Y146817D01*
X600832Y146854D01*
X600842Y146893D01*
X600846Y146935D01*
Y146939D01*
Y146951D01*
X600844Y146967D01*
X600842Y146990D01*
X600837Y147016D01*
X600830Y147044D01*
X600821Y147076D01*
X600807Y147106D01*
X600805Y147108D01*
X600802Y147115D01*
X600795Y147127D01*
X600788Y147141D01*
X600768Y147171D01*
X600756Y147187D01*
X600744Y147199D01*
X600742Y147201D01*
X600735Y147205D01*
X600724Y147215D01*
X600710Y147226D01*
X600691Y147238D01*
X600668Y147252D01*
X600643Y147266D01*
X600612Y147280D01*
X600608Y147282D01*
X600599Y147286D01*
X600582Y147291D01*
X600562Y147298D01*
X600536Y147305D01*
X600506Y147312D01*
X600476Y147314D01*
X600444Y147317D01*
X600409D01*
Y147349D01*
X600414D01*
X600425Y147351D01*
X600441Y147354D01*
X600464Y147361D01*
X600490Y147367D01*
X600520Y147379D01*
X600550Y147393D01*
X600582Y147409D01*
X600587Y147411D01*
X600596Y147418D01*
X600612Y147430D01*
X600631Y147444D01*
X600652Y147462D01*
X600673Y147485D01*
X600693Y147509D01*
X600710Y147534D01*
X600712Y147536D01*
X600717Y147548D01*
X600724Y147562D01*
X600731Y147583D01*
X600737Y147606D01*
X600744Y147634D01*
X600749Y147661D01*
X600751Y147694D01*
Y147696D01*
Y147698D01*
Y147712D01*
X600747Y147733D01*
X600742Y147759D01*
X600733Y147789D01*
X600721Y147819D01*
X600703Y147849D01*
X600680Y147877D01*
X600677Y147879D01*
X600666Y147888D01*
X600652Y147900D01*
X600631Y147914D01*
X600606Y147925D01*
X600573Y147937D01*
X600541Y147946D01*
X600501Y147948D01*
X600485D01*
X600474Y147946D01*
X600457Y147944D01*
X600441Y147939D01*
X600402Y147925D01*
X600379Y147916D01*
X600356Y147904D01*
X600333Y147888D01*
X600309Y147872D01*
X600284Y147851D01*
X600261Y147826D01*
X600238Y147798D01*
X600214Y147765D01*
X600180Y147784D01*
Y147786D01*
X600182Y147791D01*
X600187Y147798D01*
X600191Y147809D01*
X600205Y147835D01*
X600224Y147870D01*
X600247Y147907D01*
X600275Y147946D01*
X600305Y147983D01*
X600339Y148015D01*
X600342D01*
X600344Y148020D01*
X600358Y148029D01*
X600379Y148041D01*
X600407Y148057D01*
X600444Y148073D01*
X600485Y148085D01*
X600531Y148094D01*
X600585Y148099D01*
X600601D01*
X600615Y148096D01*
D02*
G37*
G36*
Y943985D02*
X600629Y943983D01*
X600647Y943981D01*
X600687Y943974D01*
X600731Y943960D01*
X600777Y943939D01*
X600798Y943925D01*
X600821Y943909D01*
X600842Y943890D01*
X600860Y943870D01*
X600862Y943865D01*
X600872Y943853D01*
X600883Y943837D01*
X600897Y943814D01*
X600911Y943786D01*
X600923Y943754D01*
X600932Y943721D01*
X600934Y943684D01*
Y943682D01*
Y943677D01*
X600932Y943668D01*
Y943657D01*
X600927Y943640D01*
X600923Y943624D01*
X600918Y943603D01*
X600909Y943580D01*
X600897Y943557D01*
X600886Y943529D01*
X600867Y943502D01*
X600849Y943472D01*
X600825Y943441D01*
X600798Y943411D01*
X600768Y943379D01*
X600731Y943347D01*
X600733D01*
X600737Y943344D01*
X600744Y943342D01*
X600754Y943337D01*
X600777Y943323D01*
X600807Y943307D01*
X600842Y943286D01*
X600874Y943259D01*
X600909Y943229D01*
X600936Y943192D01*
X600939Y943187D01*
X600948Y943173D01*
X600960Y943152D01*
X600973Y943124D01*
X600985Y943090D01*
X600997Y943050D01*
X601006Y943006D01*
X601008Y942958D01*
Y942956D01*
Y942949D01*
Y942939D01*
X601006Y942925D01*
X601004Y942909D01*
X601001Y942888D01*
X600999Y942868D01*
X600992Y942842D01*
X600978Y942789D01*
X600955Y942733D01*
X600941Y942706D01*
X600925Y942676D01*
X600906Y942648D01*
X600883Y942620D01*
X600881Y942618D01*
X600876Y942613D01*
X600867Y942604D01*
X600853Y942592D01*
X600837Y942578D01*
X600816Y942562D01*
X600793Y942546D01*
X600765Y942530D01*
X600733Y942511D01*
X600698Y942495D01*
X600659Y942479D01*
X600617Y942465D01*
X600573Y942453D01*
X600525Y942444D01*
X600471Y942440D01*
X600416Y942437D01*
X600393D01*
X600365Y942440D01*
X600335Y942442D01*
X600300Y942446D01*
X600265Y942453D01*
X600235Y942463D01*
X600210Y942474D01*
X600208Y942477D01*
X600201Y942481D01*
X600194Y942488D01*
X600184Y942497D01*
X600173Y942511D01*
X600166Y942525D01*
X600159Y942539D01*
X600157Y942555D01*
Y942558D01*
Y942560D01*
X600159Y942574D01*
X600168Y942592D01*
X600173Y942602D01*
X600182Y942611D01*
X600184Y942613D01*
X600187Y942615D01*
X600201Y942625D01*
X600219Y942632D01*
X600231Y942636D01*
X600263D01*
X600279Y942632D01*
X600300Y942627D01*
X600305Y942625D01*
X600309Y942622D01*
X600319Y942620D01*
X600330Y942613D01*
X600344Y942606D01*
X600363Y942597D01*
X600386Y942585D01*
X600388Y942583D01*
X600397Y942581D01*
X600409Y942574D01*
X600423Y942567D01*
X600453Y942553D01*
X600467Y942548D01*
X600478Y942544D01*
X600481D01*
X600485Y942541D01*
X600492Y942539D01*
X600504D01*
X600531Y942534D01*
X600564Y942532D01*
X600569D01*
X600582Y942534D01*
X600603Y942537D01*
X600631Y942544D01*
X600661Y942553D01*
X600696Y942569D01*
X600728Y942590D01*
X600761Y942618D01*
X600765Y942622D01*
X600774Y942634D01*
X600788Y942652D01*
X600805Y942676D01*
X600818Y942706D01*
X600832Y942743D01*
X600842Y942782D01*
X600846Y942824D01*
Y942828D01*
Y942840D01*
X600844Y942856D01*
X600842Y942879D01*
X600837Y942905D01*
X600830Y942932D01*
X600821Y942965D01*
X600807Y942995D01*
X600805Y942997D01*
X600802Y943004D01*
X600795Y943016D01*
X600788Y943030D01*
X600768Y943060D01*
X600756Y943076D01*
X600744Y943087D01*
X600742Y943090D01*
X600735Y943094D01*
X600724Y943104D01*
X600710Y943115D01*
X600691Y943127D01*
X600668Y943141D01*
X600643Y943155D01*
X600612Y943168D01*
X600608Y943171D01*
X600599Y943175D01*
X600582Y943180D01*
X600562Y943187D01*
X600536Y943194D01*
X600506Y943201D01*
X600476Y943203D01*
X600444Y943205D01*
X600409D01*
Y943238D01*
X600414D01*
X600425Y943240D01*
X600441Y943242D01*
X600464Y943249D01*
X600490Y943256D01*
X600520Y943268D01*
X600550Y943282D01*
X600582Y943298D01*
X600587Y943300D01*
X600596Y943307D01*
X600612Y943319D01*
X600631Y943333D01*
X600652Y943351D01*
X600673Y943374D01*
X600693Y943398D01*
X600710Y943423D01*
X600712Y943425D01*
X600717Y943437D01*
X600724Y943451D01*
X600731Y943472D01*
X600737Y943495D01*
X600744Y943522D01*
X600749Y943550D01*
X600751Y943583D01*
Y943585D01*
Y943587D01*
Y943601D01*
X600747Y943622D01*
X600742Y943647D01*
X600733Y943677D01*
X600721Y943708D01*
X600703Y943738D01*
X600680Y943765D01*
X600677Y943768D01*
X600666Y943777D01*
X600652Y943789D01*
X600631Y943802D01*
X600606Y943814D01*
X600573Y943826D01*
X600541Y943835D01*
X600501Y943837D01*
X600485D01*
X600474Y943835D01*
X600457Y943833D01*
X600441Y943828D01*
X600402Y943814D01*
X600379Y943805D01*
X600356Y943793D01*
X600333Y943777D01*
X600309Y943761D01*
X600284Y943740D01*
X600261Y943715D01*
X600238Y943687D01*
X600214Y943654D01*
X600180Y943673D01*
Y943675D01*
X600182Y943680D01*
X600187Y943687D01*
X600191Y943698D01*
X600205Y943724D01*
X600224Y943758D01*
X600247Y943795D01*
X600275Y943835D01*
X600305Y943872D01*
X600339Y943904D01*
X600342D01*
X600344Y943909D01*
X600358Y943918D01*
X600379Y943930D01*
X600407Y943946D01*
X600444Y943962D01*
X600485Y943974D01*
X600531Y943983D01*
X600585Y943988D01*
X600601D01*
X600615Y943985D01*
D02*
G37*
G36*
X809224Y147124D02*
X809426D01*
Y146967D01*
X809224D01*
Y146574D01*
X809042D01*
Y146967D01*
X808410D01*
Y147108D01*
X809102Y148099D01*
X809224D01*
Y147124D01*
D02*
G37*
G36*
Y943013D02*
X809426D01*
Y942856D01*
X809224D01*
Y942463D01*
X809042D01*
Y942856D01*
X808410D01*
Y942997D01*
X809102Y943988D01*
X809224D01*
Y943013D01*
D02*
G37*
G36*
X1017606Y147881D02*
X1017155D01*
X1017058Y147680D01*
X1017060D01*
X1017071Y147678D01*
X1017085Y147675D01*
X1017106Y147671D01*
X1017132Y147664D01*
X1017159Y147657D01*
X1017192Y147647D01*
X1017226Y147636D01*
X1017301Y147608D01*
X1017340Y147590D01*
X1017377Y147569D01*
X1017416Y147548D01*
X1017453Y147522D01*
X1017490Y147492D01*
X1017523Y147462D01*
X1017525Y147460D01*
X1017530Y147455D01*
X1017537Y147446D01*
X1017546Y147437D01*
X1017557Y147421D01*
X1017569Y147404D01*
X1017583Y147384D01*
X1017597Y147363D01*
X1017611Y147337D01*
X1017624Y147310D01*
X1017648Y147249D01*
X1017657Y147217D01*
X1017664Y147185D01*
X1017668Y147148D01*
X1017671Y147111D01*
Y147108D01*
Y147106D01*
Y147099D01*
Y147090D01*
X1017668Y147069D01*
X1017664Y147039D01*
X1017659Y147004D01*
X1017650Y146967D01*
X1017638Y146930D01*
X1017622Y146891D01*
X1017620Y146886D01*
X1017613Y146875D01*
X1017604Y146856D01*
X1017590Y146833D01*
X1017571Y146805D01*
X1017550Y146777D01*
X1017525Y146747D01*
X1017500Y146720D01*
X1017497Y146717D01*
X1017488Y146708D01*
X1017472Y146696D01*
X1017453Y146680D01*
X1017430Y146662D01*
X1017402Y146643D01*
X1017372Y146625D01*
X1017340Y146608D01*
X1017338D01*
X1017335Y146606D01*
X1017328Y146604D01*
X1017319Y146599D01*
X1017294Y146590D01*
X1017259Y146578D01*
X1017220Y146567D01*
X1017176Y146558D01*
X1017129Y146551D01*
X1017078Y146548D01*
X1017058D01*
X1017032Y146551D01*
X1017004Y146553D01*
X1016972Y146560D01*
X1016940Y146567D01*
X1016909Y146578D01*
X1016884Y146592D01*
X1016882Y146595D01*
X1016875Y146602D01*
X1016865Y146611D01*
X1016854Y146622D01*
X1016842Y146639D01*
X1016833Y146655D01*
X1016826Y146673D01*
X1016824Y146694D01*
Y146696D01*
Y146699D01*
X1016826Y146713D01*
X1016833Y146729D01*
X1016847Y146747D01*
X1016849D01*
X1016852Y146752D01*
X1016865Y146759D01*
X1016884Y146766D01*
X1016912Y146770D01*
X1016930D01*
X1016946Y146766D01*
X1016963Y146761D01*
X1016967Y146759D01*
X1016972Y146757D01*
X1016979Y146754D01*
X1016990Y146747D01*
X1017002Y146740D01*
X1017018Y146729D01*
X1017037Y146717D01*
X1017041Y146715D01*
X1017051Y146708D01*
X1017067Y146699D01*
X1017088Y146689D01*
X1017113Y146678D01*
X1017141Y146669D01*
X1017171Y146664D01*
X1017203Y146662D01*
X1017215D01*
X1017224Y146664D01*
X1017250Y146666D01*
X1017280Y146673D01*
X1017314Y146685D01*
X1017351Y146703D01*
X1017391Y146727D01*
X1017428Y146759D01*
X1017430Y146761D01*
X1017432Y146764D01*
X1017444Y146777D01*
X1017460Y146796D01*
X1017479Y146826D01*
X1017495Y146858D01*
X1017511Y146900D01*
X1017523Y146944D01*
X1017527Y146969D01*
Y146995D01*
Y146997D01*
Y147002D01*
Y147009D01*
X1017525Y147018D01*
X1017523Y147044D01*
X1017516Y147078D01*
X1017506Y147118D01*
X1017490Y147159D01*
X1017469Y147203D01*
X1017439Y147247D01*
Y147249D01*
X1017435Y147252D01*
X1017423Y147266D01*
X1017405Y147289D01*
X1017377Y147314D01*
X1017342Y147344D01*
X1017301Y147374D01*
X1017252Y147404D01*
X1017199Y147430D01*
X1017196D01*
X1017194Y147432D01*
X1017187Y147435D01*
X1017178Y147437D01*
X1017164Y147442D01*
X1017150Y147446D01*
X1017132Y147451D01*
X1017113Y147455D01*
X1017090Y147460D01*
X1017067Y147465D01*
X1017011Y147474D01*
X1016946Y147483D01*
X1016872Y147488D01*
X1017157Y148069D01*
X1017694D01*
X1017606Y147881D01*
D02*
G37*
G36*
Y943770D02*
X1017155D01*
X1017058Y943569D01*
X1017060D01*
X1017071Y943566D01*
X1017085Y943564D01*
X1017106Y943559D01*
X1017132Y943553D01*
X1017159Y943546D01*
X1017192Y943536D01*
X1017226Y943525D01*
X1017301Y943497D01*
X1017340Y943479D01*
X1017377Y943458D01*
X1017416Y943437D01*
X1017453Y943411D01*
X1017490Y943381D01*
X1017523Y943351D01*
X1017525Y943349D01*
X1017530Y943344D01*
X1017537Y943335D01*
X1017546Y943326D01*
X1017557Y943310D01*
X1017569Y943293D01*
X1017583Y943273D01*
X1017597Y943252D01*
X1017611Y943226D01*
X1017624Y943198D01*
X1017648Y943138D01*
X1017657Y943106D01*
X1017664Y943074D01*
X1017668Y943036D01*
X1017671Y943000D01*
Y942997D01*
Y942995D01*
Y942988D01*
Y942979D01*
X1017668Y942958D01*
X1017664Y942928D01*
X1017659Y942893D01*
X1017650Y942856D01*
X1017638Y942819D01*
X1017622Y942780D01*
X1017620Y942775D01*
X1017613Y942763D01*
X1017604Y942745D01*
X1017590Y942722D01*
X1017571Y942694D01*
X1017550Y942666D01*
X1017525Y942636D01*
X1017500Y942608D01*
X1017497Y942606D01*
X1017488Y942597D01*
X1017472Y942585D01*
X1017453Y942569D01*
X1017430Y942551D01*
X1017402Y942532D01*
X1017372Y942514D01*
X1017340Y942497D01*
X1017338D01*
X1017335Y942495D01*
X1017328Y942493D01*
X1017319Y942488D01*
X1017294Y942479D01*
X1017259Y942467D01*
X1017220Y942456D01*
X1017176Y942446D01*
X1017129Y942440D01*
X1017078Y942437D01*
X1017058D01*
X1017032Y942440D01*
X1017004Y942442D01*
X1016972Y942449D01*
X1016940Y942456D01*
X1016909Y942467D01*
X1016884Y942481D01*
X1016882Y942484D01*
X1016875Y942490D01*
X1016865Y942500D01*
X1016854Y942511D01*
X1016842Y942527D01*
X1016833Y942544D01*
X1016826Y942562D01*
X1016824Y942583D01*
Y942585D01*
Y942588D01*
X1016826Y942602D01*
X1016833Y942618D01*
X1016847Y942636D01*
X1016849D01*
X1016852Y942641D01*
X1016865Y942648D01*
X1016884Y942655D01*
X1016912Y942659D01*
X1016930D01*
X1016946Y942655D01*
X1016963Y942650D01*
X1016967Y942648D01*
X1016972Y942645D01*
X1016979Y942643D01*
X1016990Y942636D01*
X1017002Y942629D01*
X1017018Y942618D01*
X1017037Y942606D01*
X1017041Y942604D01*
X1017051Y942597D01*
X1017067Y942588D01*
X1017088Y942578D01*
X1017113Y942567D01*
X1017141Y942558D01*
X1017171Y942553D01*
X1017203Y942551D01*
X1017215D01*
X1017224Y942553D01*
X1017250Y942555D01*
X1017280Y942562D01*
X1017314Y942574D01*
X1017351Y942592D01*
X1017391Y942615D01*
X1017428Y942648D01*
X1017430Y942650D01*
X1017432Y942652D01*
X1017444Y942666D01*
X1017460Y942685D01*
X1017479Y942715D01*
X1017495Y942747D01*
X1017511Y942789D01*
X1017523Y942833D01*
X1017527Y942858D01*
Y942884D01*
Y942886D01*
Y942891D01*
Y942898D01*
X1017525Y942907D01*
X1017523Y942932D01*
X1017516Y942967D01*
X1017506Y943006D01*
X1017490Y943048D01*
X1017469Y943092D01*
X1017439Y943136D01*
Y943138D01*
X1017435Y943141D01*
X1017423Y943155D01*
X1017405Y943178D01*
X1017377Y943203D01*
X1017342Y943233D01*
X1017301Y943263D01*
X1017252Y943293D01*
X1017199Y943319D01*
X1017196D01*
X1017194Y943321D01*
X1017187Y943323D01*
X1017178Y943326D01*
X1017164Y943330D01*
X1017150Y943335D01*
X1017132Y943340D01*
X1017113Y943344D01*
X1017090Y943349D01*
X1017067Y943354D01*
X1017011Y943363D01*
X1016946Y943372D01*
X1016872Y943377D01*
X1017157Y943957D01*
X1017694D01*
X1017606Y943770D01*
D02*
G37*
G36*
X1225991Y148055D02*
X1225984D01*
X1225977Y148052D01*
X1225968D01*
X1225940Y148048D01*
X1225908Y148041D01*
X1225868Y148034D01*
X1225829Y148022D01*
X1225790Y148011D01*
X1225753Y147995D01*
X1225748Y147992D01*
X1225736Y147988D01*
X1225718Y147976D01*
X1225695Y147962D01*
X1225667Y147944D01*
X1225637Y147920D01*
X1225604Y147895D01*
X1225570Y147863D01*
X1225565Y147858D01*
X1225556Y147846D01*
X1225540Y147830D01*
X1225519Y147805D01*
X1225496Y147777D01*
X1225470Y147742D01*
X1225445Y147705D01*
X1225422Y147666D01*
Y147664D01*
X1225419Y147661D01*
X1225417Y147654D01*
X1225412Y147647D01*
X1225401Y147624D01*
X1225387Y147592D01*
X1225373Y147555D01*
X1225357Y147511D01*
X1225341Y147462D01*
X1225325Y147407D01*
X1225327Y147409D01*
X1225332Y147411D01*
X1225341Y147416D01*
X1225352Y147423D01*
X1225366Y147432D01*
X1225382Y147442D01*
X1225401Y147451D01*
X1225424Y147462D01*
X1225470Y147481D01*
X1225526Y147499D01*
X1225581Y147511D01*
X1225611Y147516D01*
X1225655D01*
X1225667Y147513D01*
X1225681Y147511D01*
X1225695Y147509D01*
X1225732Y147499D01*
X1225773Y147485D01*
X1225817Y147462D01*
X1225841Y147448D01*
X1225864Y147432D01*
X1225887Y147414D01*
X1225908Y147391D01*
X1225910Y147388D01*
X1225912Y147386D01*
X1225919Y147379D01*
X1225926Y147367D01*
X1225933Y147356D01*
X1225945Y147342D01*
X1225954Y147326D01*
X1225966Y147305D01*
X1225986Y147261D01*
X1226003Y147205D01*
X1226016Y147145D01*
X1226019Y147111D01*
X1226021Y147076D01*
Y147074D01*
Y147067D01*
Y147057D01*
X1226019Y147044D01*
Y147027D01*
X1226014Y147009D01*
X1226012Y146986D01*
X1226007Y146963D01*
X1225993Y146909D01*
X1225972Y146851D01*
X1225959Y146824D01*
X1225945Y146794D01*
X1225926Y146764D01*
X1225905Y146733D01*
X1225903Y146731D01*
X1225898Y146727D01*
X1225891Y146717D01*
X1225880Y146706D01*
X1225866Y146689D01*
X1225850Y146676D01*
X1225831Y146657D01*
X1225808Y146641D01*
X1225785Y146625D01*
X1225757Y146606D01*
X1225727Y146592D01*
X1225695Y146578D01*
X1225660Y146565D01*
X1225625Y146555D01*
X1225586Y146551D01*
X1225544Y146548D01*
X1225531D01*
X1225519Y146551D01*
X1225505D01*
X1225491Y146553D01*
X1225454Y146560D01*
X1225415Y146574D01*
X1225371Y146590D01*
X1225327Y146615D01*
X1225306Y146629D01*
X1225285Y146648D01*
X1225283Y146650D01*
X1225276Y146657D01*
X1225267Y146669D01*
X1225253Y146683D01*
X1225237Y146703D01*
X1225220Y146727D01*
X1225200Y146754D01*
X1225181Y146787D01*
X1225163Y146821D01*
X1225144Y146858D01*
X1225126Y146902D01*
X1225109Y146946D01*
X1225095Y146995D01*
X1225086Y147046D01*
X1225079Y147101D01*
X1225077Y147159D01*
Y147162D01*
Y147168D01*
Y147180D01*
X1225079Y147194D01*
Y147212D01*
X1225082Y147233D01*
X1225084Y147256D01*
X1225086Y147282D01*
X1225095Y147342D01*
X1225109Y147404D01*
X1225130Y147474D01*
X1225156Y147541D01*
Y147543D01*
X1225160Y147550D01*
X1225165Y147560D01*
X1225172Y147571D01*
X1225179Y147587D01*
X1225188Y147606D01*
X1225216Y147650D01*
X1225248Y147698D01*
X1225287Y147752D01*
X1225332Y147807D01*
X1225385Y147860D01*
X1225387Y147863D01*
X1225392Y147867D01*
X1225399Y147874D01*
X1225410Y147883D01*
X1225424Y147895D01*
X1225440Y147907D01*
X1225477Y147937D01*
X1225521Y147969D01*
X1225570Y147999D01*
X1225621Y148027D01*
X1225672Y148050D01*
X1225674D01*
X1225679Y148052D01*
X1225686Y148055D01*
X1225695Y148057D01*
X1225720Y148066D01*
X1225755Y148076D01*
X1225794Y148082D01*
X1225836Y148092D01*
X1225882Y148096D01*
X1225926Y148099D01*
X1225991D01*
Y148055D01*
D02*
G37*
G36*
Y943944D02*
X1225984D01*
X1225977Y943941D01*
X1225968D01*
X1225940Y943937D01*
X1225908Y943930D01*
X1225868Y943923D01*
X1225829Y943911D01*
X1225790Y943900D01*
X1225753Y943883D01*
X1225748Y943881D01*
X1225736Y943876D01*
X1225718Y943865D01*
X1225695Y943851D01*
X1225667Y943833D01*
X1225637Y943809D01*
X1225604Y943784D01*
X1225570Y943752D01*
X1225565Y943747D01*
X1225556Y943735D01*
X1225540Y943719D01*
X1225519Y943694D01*
X1225496Y943666D01*
X1225470Y943631D01*
X1225445Y943594D01*
X1225422Y943555D01*
Y943553D01*
X1225419Y943550D01*
X1225417Y943543D01*
X1225412Y943536D01*
X1225401Y943513D01*
X1225387Y943481D01*
X1225373Y943444D01*
X1225357Y943400D01*
X1225341Y943351D01*
X1225325Y943296D01*
X1225327Y943298D01*
X1225332Y943300D01*
X1225341Y943305D01*
X1225352Y943312D01*
X1225366Y943321D01*
X1225382Y943330D01*
X1225401Y943340D01*
X1225424Y943351D01*
X1225470Y943370D01*
X1225526Y943388D01*
X1225581Y943400D01*
X1225611Y943404D01*
X1225655D01*
X1225667Y943402D01*
X1225681Y943400D01*
X1225695Y943398D01*
X1225732Y943388D01*
X1225773Y943374D01*
X1225817Y943351D01*
X1225841Y943337D01*
X1225864Y943321D01*
X1225887Y943303D01*
X1225908Y943279D01*
X1225910Y943277D01*
X1225912Y943275D01*
X1225919Y943268D01*
X1225926Y943256D01*
X1225933Y943245D01*
X1225945Y943231D01*
X1225954Y943215D01*
X1225966Y943194D01*
X1225986Y943150D01*
X1226003Y943094D01*
X1226016Y943034D01*
X1226019Y943000D01*
X1226021Y942965D01*
Y942962D01*
Y942956D01*
Y942946D01*
X1226019Y942932D01*
Y942916D01*
X1226014Y942898D01*
X1226012Y942875D01*
X1226007Y942851D01*
X1225993Y942798D01*
X1225972Y942740D01*
X1225959Y942713D01*
X1225945Y942682D01*
X1225926Y942652D01*
X1225905Y942622D01*
X1225903Y942620D01*
X1225898Y942615D01*
X1225891Y942606D01*
X1225880Y942595D01*
X1225866Y942578D01*
X1225850Y942564D01*
X1225831Y942546D01*
X1225808Y942530D01*
X1225785Y942514D01*
X1225757Y942495D01*
X1225727Y942481D01*
X1225695Y942467D01*
X1225660Y942453D01*
X1225625Y942444D01*
X1225586Y942440D01*
X1225544Y942437D01*
X1225531D01*
X1225519Y942440D01*
X1225505D01*
X1225491Y942442D01*
X1225454Y942449D01*
X1225415Y942463D01*
X1225371Y942479D01*
X1225327Y942504D01*
X1225306Y942518D01*
X1225285Y942537D01*
X1225283Y942539D01*
X1225276Y942546D01*
X1225267Y942558D01*
X1225253Y942571D01*
X1225237Y942592D01*
X1225220Y942615D01*
X1225200Y942643D01*
X1225181Y942676D01*
X1225163Y942710D01*
X1225144Y942747D01*
X1225126Y942791D01*
X1225109Y942835D01*
X1225095Y942884D01*
X1225086Y942935D01*
X1225079Y942990D01*
X1225077Y943048D01*
Y943050D01*
Y943057D01*
Y943069D01*
X1225079Y943083D01*
Y943101D01*
X1225082Y943122D01*
X1225084Y943145D01*
X1225086Y943171D01*
X1225095Y943231D01*
X1225109Y943293D01*
X1225130Y943363D01*
X1225156Y943430D01*
Y943432D01*
X1225160Y943439D01*
X1225165Y943448D01*
X1225172Y943460D01*
X1225179Y943476D01*
X1225188Y943495D01*
X1225216Y943539D01*
X1225248Y943587D01*
X1225287Y943640D01*
X1225332Y943696D01*
X1225385Y943749D01*
X1225387Y943752D01*
X1225392Y943756D01*
X1225399Y943763D01*
X1225410Y943772D01*
X1225424Y943784D01*
X1225440Y943795D01*
X1225477Y943826D01*
X1225521Y943858D01*
X1225570Y943888D01*
X1225621Y943916D01*
X1225672Y943939D01*
X1225674D01*
X1225679Y943941D01*
X1225686Y943944D01*
X1225695Y943946D01*
X1225720Y943955D01*
X1225755Y943964D01*
X1225794Y943971D01*
X1225836Y943981D01*
X1225882Y943985D01*
X1225926Y943988D01*
X1225991D01*
Y943944D01*
D02*
G37*
G36*
X1327801Y245700D02*
X1327833Y245697D01*
X1327868Y245695D01*
X1327905Y245693D01*
X1327988Y245683D01*
X1328072Y245670D01*
X1328153Y245651D01*
X1328190Y245639D01*
X1328224Y245626D01*
X1328227D01*
X1328231Y245621D01*
X1328241Y245616D01*
X1328254Y245612D01*
X1328268Y245602D01*
X1328287Y245593D01*
X1328326Y245565D01*
X1328370Y245531D01*
X1328419Y245487D01*
X1328465Y245434D01*
X1328486Y245403D01*
X1328507Y245371D01*
X1328509Y245369D01*
X1328511Y245364D01*
X1328516Y245353D01*
X1328523Y245339D01*
X1328532Y245322D01*
X1328541Y245302D01*
X1328551Y245278D01*
X1328560Y245253D01*
X1328569Y245225D01*
X1328578Y245193D01*
X1328588Y245158D01*
X1328597Y245123D01*
X1328609Y245045D01*
X1328613Y245003D01*
Y244961D01*
Y244957D01*
Y244948D01*
X1328611Y244931D01*
Y244911D01*
X1328609Y244883D01*
X1328604Y244853D01*
X1328597Y244818D01*
X1328590Y244779D01*
X1328578Y244739D01*
X1328567Y244698D01*
X1328551Y244654D01*
X1328532Y244610D01*
X1328511Y244566D01*
X1328486Y244524D01*
X1328456Y244480D01*
X1328423Y244441D01*
X1328421Y244439D01*
X1328414Y244432D01*
X1328400Y244420D01*
X1328384Y244404D01*
X1328361Y244388D01*
X1328333Y244367D01*
X1328301Y244346D01*
X1328264Y244325D01*
X1328220Y244302D01*
X1328171Y244281D01*
X1328118Y244260D01*
X1328060Y244244D01*
X1327998Y244228D01*
X1327928Y244216D01*
X1327854Y244209D01*
X1327775Y244207D01*
X1327111D01*
Y244249D01*
X1327183D01*
X1327199Y244251D01*
X1327218Y244256D01*
X1327241Y244263D01*
X1327262Y244274D01*
X1327283Y244288D01*
X1327299Y244309D01*
X1327301Y244311D01*
X1327303Y244316D01*
X1327308Y244327D01*
X1327313Y244341D01*
X1327317Y244364D01*
X1327320Y244392D01*
X1327324Y244427D01*
Y244471D01*
Y245438D01*
Y245440D01*
Y245445D01*
Y245452D01*
Y245461D01*
X1327322Y245484D01*
X1327320Y245512D01*
X1327317Y245542D01*
X1327310Y245570D01*
X1327303Y245595D01*
X1327297Y245605D01*
X1327292Y245612D01*
X1327290Y245614D01*
X1327285Y245619D01*
X1327273Y245628D01*
X1327262Y245637D01*
X1327243Y245644D01*
X1327222Y245653D01*
X1327197Y245658D01*
X1327167Y245660D01*
X1327111D01*
Y245702D01*
X1327773D01*
X1327801Y245700D01*
D02*
G37*
G36*
X83406Y445491D02*
X83372D01*
Y445493D01*
X83369Y445500D01*
X83365Y445512D01*
X83358Y445528D01*
X83351Y445547D01*
X83344Y445567D01*
X83321Y445616D01*
X83293Y445671D01*
X83260Y445725D01*
X83219Y445776D01*
X83198Y445796D01*
X83175Y445817D01*
X83173Y445820D01*
X83170Y445822D01*
X83163Y445827D01*
X83152Y445833D01*
X83140Y445840D01*
X83126Y445850D01*
X83092Y445868D01*
X83048Y445887D01*
X82994Y445903D01*
X82936Y445914D01*
X82906Y445919D01*
X82849D01*
X82837Y445917D01*
X82821Y445914D01*
X82786Y445910D01*
X82744Y445901D01*
X82698Y445887D01*
X82652Y445868D01*
X82606Y445843D01*
X82603D01*
X82601Y445838D01*
X82587Y445829D01*
X82564Y445810D01*
X82538Y445785D01*
X82508Y445750D01*
X82476Y445708D01*
X82446Y445658D01*
X82418Y445600D01*
Y445597D01*
X82416Y445593D01*
X82411Y445584D01*
X82409Y445570D01*
X82402Y445553D01*
X82397Y445535D01*
X82390Y445512D01*
X82386Y445486D01*
X82379Y445459D01*
X82372Y445428D01*
X82367Y445394D01*
X82363Y445357D01*
X82358Y445320D01*
X82353Y445278D01*
X82351Y445190D01*
Y445188D01*
Y445181D01*
Y445169D01*
Y445155D01*
X82353Y445139D01*
Y445118D01*
X82356Y445095D01*
X82358Y445070D01*
X82367Y445014D01*
X82377Y444954D01*
X82393Y444894D01*
X82414Y444836D01*
Y444834D01*
X82416Y444829D01*
X82420Y444822D01*
X82425Y444813D01*
X82441Y444785D01*
X82462Y444753D01*
X82490Y444716D01*
X82522Y444679D01*
X82562Y444642D01*
X82608Y444609D01*
X82610D01*
X82615Y444607D01*
X82622Y444602D01*
X82631Y444598D01*
X82643Y444591D01*
X82659Y444584D01*
X82696Y444570D01*
X82740Y444556D01*
X82791Y444542D01*
X82846Y444533D01*
X82906Y444531D01*
X82932D01*
X82943Y444533D01*
X82957D01*
X82992Y444538D01*
X83034Y444545D01*
X83075Y444556D01*
X83119Y444570D01*
X83161Y444591D01*
X83163D01*
X83166Y444593D01*
X83173Y444598D01*
X83179Y444605D01*
X83203Y444621D01*
X83233Y444646D01*
X83251Y444660D01*
X83270Y444679D01*
X83291Y444700D01*
X83311Y444723D01*
X83334Y444748D01*
X83358Y444776D01*
X83381Y444806D01*
X83406Y444841D01*
X83441Y444818D01*
X83439Y444815D01*
X83436Y444808D01*
X83429Y444799D01*
X83420Y444785D01*
X83411Y444769D01*
X83397Y444748D01*
X83365Y444707D01*
X83328Y444658D01*
X83281Y444609D01*
X83233Y444563D01*
X83205Y444542D01*
X83177Y444524D01*
X83175D01*
X83170Y444519D01*
X83163Y444514D01*
X83152Y444510D01*
X83135Y444503D01*
X83119Y444496D01*
X83101Y444487D01*
X83078Y444480D01*
X83052Y444471D01*
X83027Y444461D01*
X82964Y444447D01*
X82897Y444438D01*
X82823Y444434D01*
X82807D01*
X82788Y444436D01*
X82763Y444438D01*
X82731Y444443D01*
X82696Y444447D01*
X82657Y444457D01*
X82613Y444468D01*
X82566Y444482D01*
X82520Y444501D01*
X82474Y444524D01*
X82425Y444549D01*
X82379Y444582D01*
X82333Y444619D01*
X82289Y444660D01*
X82249Y444709D01*
X82247Y444711D01*
X82242Y444718D01*
X82235Y444730D01*
X82226Y444746D01*
X82215Y444764D01*
X82201Y444788D01*
X82189Y444815D01*
X82175Y444845D01*
X82159Y444880D01*
X82147Y444915D01*
X82134Y444956D01*
X82122Y444998D01*
X82113Y445042D01*
X82106Y445091D01*
X82101Y445139D01*
X82099Y445190D01*
Y445193D01*
Y445199D01*
Y445213D01*
X82101Y445227D01*
Y445248D01*
X82103Y445271D01*
X82108Y445297D01*
X82110Y445327D01*
X82124Y445389D01*
X82140Y445459D01*
X82166Y445530D01*
X82180Y445567D01*
X82198Y445602D01*
X82201Y445604D01*
X82203Y445611D01*
X82208Y445621D01*
X82217Y445632D01*
X82226Y445648D01*
X82240Y445667D01*
X82270Y445708D01*
X82309Y445755D01*
X82356Y445803D01*
X82409Y445852D01*
X82471Y445894D01*
X82474Y445896D01*
X82478Y445898D01*
X82490Y445903D01*
X82501Y445910D01*
X82518Y445917D01*
X82538Y445926D01*
X82559Y445935D01*
X82585Y445947D01*
X82613Y445956D01*
X82643Y445965D01*
X82707Y445982D01*
X82777Y445993D01*
X82816Y445998D01*
X82869D01*
X82881Y445995D01*
X82895D01*
X82913Y445993D01*
X82953Y445988D01*
X83001Y445977D01*
X83054Y445963D01*
X83112Y445945D01*
X83170Y445917D01*
X83173D01*
X83177Y445912D01*
X83186Y445910D01*
X83196Y445905D01*
X83219Y445898D01*
X83228Y445894D01*
X83242D01*
X83256Y445896D01*
X83272Y445903D01*
X83288Y445914D01*
X83291Y445917D01*
X83293Y445919D01*
X83297Y445926D01*
X83304Y445935D01*
X83311Y445949D01*
X83318Y445963D01*
X83325Y445979D01*
X83330Y445998D01*
X83372D01*
X83406Y445491D01*
D02*
G37*
G36*
X1328419D02*
X1328384D01*
Y445493D01*
X1328382Y445500D01*
X1328377Y445512D01*
X1328370Y445528D01*
X1328363Y445547D01*
X1328356Y445567D01*
X1328333Y445616D01*
X1328305Y445671D01*
X1328273Y445725D01*
X1328231Y445776D01*
X1328210Y445796D01*
X1328187Y445817D01*
X1328185Y445820D01*
X1328183Y445822D01*
X1328176Y445827D01*
X1328164Y445833D01*
X1328153Y445840D01*
X1328139Y445850D01*
X1328104Y445868D01*
X1328060Y445887D01*
X1328007Y445903D01*
X1327949Y445914D01*
X1327919Y445919D01*
X1327861D01*
X1327849Y445917D01*
X1327833Y445914D01*
X1327799Y445910D01*
X1327757Y445901D01*
X1327711Y445887D01*
X1327664Y445868D01*
X1327618Y445843D01*
X1327616D01*
X1327614Y445838D01*
X1327600Y445829D01*
X1327576Y445810D01*
X1327551Y445785D01*
X1327521Y445750D01*
X1327489Y445708D01*
X1327458Y445658D01*
X1327431Y445600D01*
Y445597D01*
X1327428Y445593D01*
X1327424Y445584D01*
X1327421Y445570D01*
X1327414Y445553D01*
X1327410Y445535D01*
X1327403Y445512D01*
X1327398Y445486D01*
X1327391Y445459D01*
X1327384Y445428D01*
X1327380Y445394D01*
X1327375Y445357D01*
X1327370Y445320D01*
X1327366Y445278D01*
X1327364Y445190D01*
Y445188D01*
Y445181D01*
Y445169D01*
Y445155D01*
X1327366Y445139D01*
Y445118D01*
X1327368Y445095D01*
X1327370Y445070D01*
X1327380Y445014D01*
X1327389Y444954D01*
X1327405Y444894D01*
X1327426Y444836D01*
Y444834D01*
X1327428Y444829D01*
X1327433Y444822D01*
X1327438Y444813D01*
X1327454Y444785D01*
X1327475Y444753D01*
X1327502Y444716D01*
X1327535Y444679D01*
X1327574Y444642D01*
X1327620Y444609D01*
X1327623D01*
X1327627Y444607D01*
X1327634Y444602D01*
X1327644Y444598D01*
X1327655Y444591D01*
X1327671Y444584D01*
X1327708Y444570D01*
X1327752Y444556D01*
X1327803Y444542D01*
X1327859Y444533D01*
X1327919Y444531D01*
X1327944D01*
X1327956Y444533D01*
X1327970D01*
X1328005Y444538D01*
X1328046Y444545D01*
X1328088Y444556D01*
X1328132Y444570D01*
X1328173Y444591D01*
X1328176D01*
X1328178Y444593D01*
X1328185Y444598D01*
X1328192Y444605D01*
X1328215Y444621D01*
X1328245Y444646D01*
X1328264Y444660D01*
X1328282Y444679D01*
X1328303Y444700D01*
X1328324Y444723D01*
X1328347Y444748D01*
X1328370Y444776D01*
X1328393Y444806D01*
X1328419Y444841D01*
X1328453Y444818D01*
X1328451Y444815D01*
X1328449Y444808D01*
X1328442Y444799D01*
X1328433Y444785D01*
X1328423Y444769D01*
X1328409Y444748D01*
X1328377Y444707D01*
X1328340Y444658D01*
X1328294Y444609D01*
X1328245Y444563D01*
X1328217Y444542D01*
X1328190Y444524D01*
X1328187D01*
X1328183Y444519D01*
X1328176Y444514D01*
X1328164Y444510D01*
X1328148Y444503D01*
X1328132Y444496D01*
X1328113Y444487D01*
X1328090Y444480D01*
X1328065Y444471D01*
X1328039Y444461D01*
X1327977Y444447D01*
X1327910Y444438D01*
X1327836Y444434D01*
X1327819D01*
X1327801Y444436D01*
X1327775Y444438D01*
X1327743Y444443D01*
X1327708Y444447D01*
X1327669Y444457D01*
X1327625Y444468D01*
X1327579Y444482D01*
X1327532Y444501D01*
X1327486Y444524D01*
X1327438Y444549D01*
X1327391Y444582D01*
X1327345Y444619D01*
X1327301Y444660D01*
X1327262Y444709D01*
X1327259Y444711D01*
X1327255Y444718D01*
X1327248Y444730D01*
X1327239Y444746D01*
X1327227Y444764D01*
X1327213Y444788D01*
X1327202Y444815D01*
X1327188Y444845D01*
X1327172Y444880D01*
X1327160Y444915D01*
X1327146Y444956D01*
X1327135Y444998D01*
X1327125Y445042D01*
X1327118Y445091D01*
X1327114Y445139D01*
X1327111Y445190D01*
Y445193D01*
Y445199D01*
Y445213D01*
X1327114Y445227D01*
Y445248D01*
X1327116Y445271D01*
X1327121Y445297D01*
X1327123Y445327D01*
X1327137Y445389D01*
X1327153Y445459D01*
X1327178Y445530D01*
X1327192Y445567D01*
X1327211Y445602D01*
X1327213Y445604D01*
X1327215Y445611D01*
X1327220Y445621D01*
X1327229Y445632D01*
X1327239Y445648D01*
X1327252Y445667D01*
X1327283Y445708D01*
X1327322Y445755D01*
X1327368Y445803D01*
X1327421Y445852D01*
X1327484Y445894D01*
X1327486Y445896D01*
X1327491Y445898D01*
X1327502Y445903D01*
X1327514Y445910D01*
X1327530Y445917D01*
X1327551Y445926D01*
X1327572Y445935D01*
X1327597Y445947D01*
X1327625Y445956D01*
X1327655Y445965D01*
X1327720Y445982D01*
X1327789Y445993D01*
X1327829Y445998D01*
X1327882D01*
X1327893Y445995D01*
X1327907D01*
X1327926Y445993D01*
X1327965Y445988D01*
X1328014Y445977D01*
X1328067Y445963D01*
X1328125Y445945D01*
X1328183Y445917D01*
X1328185D01*
X1328190Y445912D01*
X1328199Y445910D01*
X1328208Y445905D01*
X1328231Y445898D01*
X1328241Y445894D01*
X1328254D01*
X1328268Y445896D01*
X1328285Y445903D01*
X1328301Y445914D01*
X1328303Y445917D01*
X1328305Y445919D01*
X1328310Y445926D01*
X1328317Y445935D01*
X1328324Y445949D01*
X1328331Y445963D01*
X1328338Y445979D01*
X1328342Y445998D01*
X1328384D01*
X1328419Y445491D01*
D02*
G37*
G36*
X82805Y646222D02*
X82846D01*
X82893Y646217D01*
X82941Y646213D01*
X82987Y646206D01*
X83031Y646196D01*
X83034D01*
X83038Y646194D01*
X83048Y646192D01*
X83059Y646189D01*
X83073Y646185D01*
X83089Y646178D01*
X83124Y646164D01*
X83166Y646145D01*
X83207Y646120D01*
X83247Y646090D01*
X83284Y646055D01*
X83288Y646051D01*
X83297Y646037D01*
X83311Y646016D01*
X83328Y645988D01*
X83344Y645956D01*
X83358Y645916D01*
X83367Y645872D01*
X83372Y645824D01*
Y645822D01*
Y645819D01*
Y645805D01*
X83367Y645784D01*
X83362Y645757D01*
X83355Y645727D01*
X83341Y645692D01*
X83325Y645657D01*
X83302Y645622D01*
X83300Y645618D01*
X83288Y645609D01*
X83274Y645592D01*
X83251Y645574D01*
X83223Y645553D01*
X83189Y645530D01*
X83147Y645511D01*
X83101Y645493D01*
X83103D01*
X83108Y645491D01*
X83115Y645488D01*
X83126Y645486D01*
X83154Y645479D01*
X83189Y645467D01*
X83226Y645451D01*
X83263Y645433D01*
X83300Y645412D01*
X83332Y645386D01*
X83334D01*
X83337Y645382D01*
X83348Y645368D01*
X83367Y645347D01*
X83388Y645317D01*
X83406Y645282D01*
X83425Y645238D01*
X83436Y645192D01*
X83441Y645167D01*
Y645139D01*
Y645137D01*
Y645134D01*
Y645120D01*
X83436Y645097D01*
X83432Y645069D01*
X83422Y645037D01*
X83411Y645000D01*
X83392Y644963D01*
X83369Y644924D01*
X83367Y644919D01*
X83358Y644908D01*
X83341Y644889D01*
X83318Y644868D01*
X83293Y644843D01*
X83258Y644817D01*
X83221Y644796D01*
X83177Y644776D01*
X83175D01*
X83173Y644773D01*
X83163Y644771D01*
X83154Y644769D01*
X83140Y644764D01*
X83126Y644762D01*
X83105Y644757D01*
X83085Y644752D01*
X83059Y644748D01*
X83031Y644743D01*
X83001Y644741D01*
X82967Y644736D01*
X82930Y644734D01*
X82890Y644732D01*
X82849Y644729D01*
X82099D01*
Y644771D01*
X82168D01*
X82184Y644773D01*
X82203Y644778D01*
X82226Y644785D01*
X82247Y644796D01*
X82268Y644810D01*
X82286Y644829D01*
X82289Y644831D01*
X82291Y644838D01*
X82296Y644847D01*
X82300Y644864D01*
X82305Y644887D01*
X82307Y644914D01*
X82312Y644949D01*
Y644993D01*
Y645960D01*
Y645963D01*
Y645967D01*
Y645974D01*
Y645984D01*
X82309Y646007D01*
X82307Y646034D01*
X82305Y646062D01*
X82298Y646092D01*
X82291Y646115D01*
X82284Y646127D01*
X82279Y646134D01*
X82277Y646136D01*
X82272Y646141D01*
X82261Y646150D01*
X82247Y646159D01*
X82231Y646166D01*
X82208Y646176D01*
X82182Y646180D01*
X82152Y646182D01*
X82099D01*
Y646224D01*
X82788D01*
X82805Y646222D01*
D02*
G37*
G36*
X1327817D02*
X1327859D01*
X1327905Y646217D01*
X1327954Y646213D01*
X1328000Y646206D01*
X1328044Y646196D01*
X1328046D01*
X1328051Y646194D01*
X1328060Y646192D01*
X1328072Y646189D01*
X1328085Y646185D01*
X1328102Y646178D01*
X1328136Y646164D01*
X1328178Y646145D01*
X1328220Y646120D01*
X1328259Y646090D01*
X1328296Y646055D01*
X1328301Y646051D01*
X1328310Y646037D01*
X1328324Y646016D01*
X1328340Y645988D01*
X1328356Y645956D01*
X1328370Y645916D01*
X1328379Y645872D01*
X1328384Y645824D01*
Y645822D01*
Y645819D01*
Y645805D01*
X1328379Y645784D01*
X1328375Y645757D01*
X1328368Y645727D01*
X1328354Y645692D01*
X1328338Y645657D01*
X1328315Y645622D01*
X1328312Y645618D01*
X1328301Y645609D01*
X1328287Y645592D01*
X1328264Y645574D01*
X1328236Y645553D01*
X1328201Y645530D01*
X1328160Y645511D01*
X1328113Y645493D01*
X1328116D01*
X1328120Y645491D01*
X1328127Y645488D01*
X1328139Y645486D01*
X1328167Y645479D01*
X1328201Y645467D01*
X1328238Y645451D01*
X1328275Y645433D01*
X1328312Y645412D01*
X1328345Y645386D01*
X1328347D01*
X1328349Y645382D01*
X1328361Y645368D01*
X1328379Y645347D01*
X1328400Y645317D01*
X1328419Y645282D01*
X1328437Y645238D01*
X1328449Y645192D01*
X1328453Y645167D01*
Y645139D01*
Y645137D01*
Y645134D01*
Y645120D01*
X1328449Y645097D01*
X1328444Y645069D01*
X1328435Y645037D01*
X1328423Y645000D01*
X1328405Y644963D01*
X1328382Y644924D01*
X1328379Y644919D01*
X1328370Y644908D01*
X1328354Y644889D01*
X1328331Y644868D01*
X1328305Y644843D01*
X1328271Y644817D01*
X1328234Y644796D01*
X1328190Y644776D01*
X1328187D01*
X1328185Y644773D01*
X1328176Y644771D01*
X1328167Y644769D01*
X1328153Y644764D01*
X1328139Y644762D01*
X1328118Y644757D01*
X1328097Y644752D01*
X1328072Y644748D01*
X1328044Y644743D01*
X1328014Y644741D01*
X1327979Y644736D01*
X1327942Y644734D01*
X1327903Y644732D01*
X1327861Y644729D01*
X1327111D01*
Y644771D01*
X1327181D01*
X1327197Y644773D01*
X1327215Y644778D01*
X1327239Y644785D01*
X1327259Y644796D01*
X1327280Y644810D01*
X1327299Y644829D01*
X1327301Y644831D01*
X1327303Y644838D01*
X1327308Y644847D01*
X1327313Y644864D01*
X1327317Y644887D01*
X1327320Y644914D01*
X1327324Y644949D01*
Y644993D01*
Y645960D01*
Y645963D01*
Y645967D01*
Y645974D01*
Y645984D01*
X1327322Y646007D01*
X1327320Y646034D01*
X1327317Y646062D01*
X1327310Y646092D01*
X1327303Y646115D01*
X1327297Y646127D01*
X1327292Y646134D01*
X1327290Y646136D01*
X1327285Y646141D01*
X1327273Y646150D01*
X1327259Y646159D01*
X1327243Y646166D01*
X1327220Y646176D01*
X1327195Y646180D01*
X1327165Y646182D01*
X1327111D01*
Y646224D01*
X1327801D01*
X1327817Y646222D01*
D02*
G37*
G36*
X83266Y845114D02*
Y845112D01*
X83268Y845107D01*
X83273Y845100D01*
X83278Y845091D01*
X83289Y845063D01*
X83303Y845033D01*
X83322Y845001D01*
X83340Y844968D01*
X83361Y844940D01*
X83370Y844929D01*
X83379Y844920D01*
X83382Y844917D01*
X83389Y844913D01*
X83400Y844906D01*
X83417Y844896D01*
X83437Y844890D01*
X83460Y844880D01*
X83488Y844876D01*
X83521Y844871D01*
Y844829D01*
X82933D01*
Y844871D01*
X82947D01*
X82963Y844873D01*
X82981Y844876D01*
X83021Y844885D01*
X83037Y844890D01*
X83051Y844899D01*
X83053Y844901D01*
X83056Y844903D01*
X83067Y844917D01*
X83079Y844936D01*
X83081Y844947D01*
X83083Y844961D01*
Y844964D01*
Y844970D01*
X83081Y844982D01*
X83079Y844998D01*
X83072Y845019D01*
X83065Y845047D01*
X83053Y845077D01*
X83039Y845114D01*
X82951Y845329D01*
X82373D01*
X82273Y845093D01*
X82271Y845089D01*
X82266Y845079D01*
X82262Y845063D01*
X82255Y845045D01*
X82241Y845001D01*
X82236Y844982D01*
X82234Y844964D01*
Y844961D01*
Y844959D01*
X82239Y844943D01*
X82248Y844924D01*
X82255Y844913D01*
X82266Y844903D01*
X82269D01*
X82273Y844899D01*
X82283Y844894D01*
X82297Y844890D01*
X82315Y844885D01*
X82341Y844878D01*
X82371Y844873D01*
X82408Y844871D01*
Y844829D01*
X81936D01*
Y844871D01*
X81940D01*
X81952Y844873D01*
X81968Y844878D01*
X81987Y844883D01*
X82007Y844890D01*
X82026Y844896D01*
X82044Y844903D01*
X82056Y844913D01*
X82058Y844915D01*
X82065Y844924D01*
X82077Y844938D01*
X82093Y844959D01*
X82111Y844989D01*
X82132Y845026D01*
X82144Y845047D01*
X82155Y845072D01*
X82169Y845098D01*
X82181Y845128D01*
X82708Y846359D01*
X82745D01*
X83266Y845114D01*
D02*
G37*
G36*
X1328279D02*
Y845112D01*
X1328281Y845107D01*
X1328286Y845100D01*
X1328290Y845091D01*
X1328302Y845063D01*
X1328316Y845033D01*
X1328334Y845001D01*
X1328353Y844968D01*
X1328374Y844940D01*
X1328383Y844929D01*
X1328392Y844920D01*
X1328394Y844917D01*
X1328401Y844913D01*
X1328413Y844906D01*
X1328429Y844896D01*
X1328450Y844890D01*
X1328473Y844880D01*
X1328501Y844876D01*
X1328533Y844871D01*
Y844829D01*
X1327945D01*
Y844871D01*
X1327959D01*
X1327975Y844873D01*
X1327994Y844876D01*
X1328033Y844885D01*
X1328050Y844890D01*
X1328063Y844899D01*
X1328066Y844901D01*
X1328068Y844903D01*
X1328080Y844917D01*
X1328091Y844936D01*
X1328094Y844947D01*
X1328096Y844961D01*
Y844964D01*
Y844970D01*
X1328094Y844982D01*
X1328091Y844998D01*
X1328084Y845019D01*
X1328077Y845047D01*
X1328066Y845077D01*
X1328052Y845114D01*
X1327964Y845329D01*
X1327385D01*
X1327286Y845093D01*
X1327284Y845089D01*
X1327279Y845079D01*
X1327274Y845063D01*
X1327267Y845045D01*
X1327254Y845001D01*
X1327249Y844982D01*
X1327247Y844964D01*
Y844961D01*
Y844959D01*
X1327251Y844943D01*
X1327260Y844924D01*
X1327267Y844913D01*
X1327279Y844903D01*
X1327281D01*
X1327286Y844899D01*
X1327295Y844894D01*
X1327309Y844890D01*
X1327328Y844885D01*
X1327353Y844878D01*
X1327383Y844873D01*
X1327420Y844871D01*
Y844829D01*
X1326948D01*
Y844871D01*
X1326953D01*
X1326964Y844873D01*
X1326980Y844878D01*
X1326999Y844883D01*
X1327020Y844890D01*
X1327038Y844896D01*
X1327057Y844903D01*
X1327068Y844913D01*
X1327071Y844915D01*
X1327078Y844924D01*
X1327089Y844938D01*
X1327105Y844959D01*
X1327124Y844989D01*
X1327145Y845026D01*
X1327156Y845047D01*
X1327168Y845072D01*
X1327182Y845098D01*
X1327193Y845128D01*
X1327721Y846359D01*
X1327758D01*
X1328279Y845114D01*
D02*
G37*
G36*
X1185702Y520442D02*
X1185660D01*
Y520445D01*
X1185658Y520449D01*
X1185653Y520459D01*
X1185649Y520470D01*
X1185644Y520486D01*
X1185637Y520503D01*
X1185619Y520540D01*
X1185598Y520583D01*
X1185572Y520628D01*
X1185542Y520669D01*
X1185510Y520706D01*
X1185507Y520708D01*
X1185503Y520711D01*
X1185496Y520718D01*
X1185487Y520727D01*
X1185473Y520736D01*
X1185457Y520748D01*
X1185438Y520759D01*
X1185417Y520771D01*
X1185394Y520783D01*
X1185366Y520794D01*
X1185308Y520815D01*
X1185241Y520831D01*
X1185207Y520833D01*
X1185167Y520836D01*
X1185156D01*
X1185140Y520833D01*
X1185121D01*
X1185098Y520829D01*
X1185070Y520824D01*
X1185040Y520817D01*
X1185008Y520808D01*
X1184973Y520796D01*
X1184936Y520780D01*
X1184901Y520762D01*
X1184864Y520741D01*
X1184829Y520713D01*
X1184795Y520683D01*
X1184765Y520648D01*
X1184735Y520609D01*
X1184732Y520607D01*
X1184730Y520600D01*
X1184723Y520590D01*
X1184716Y520574D01*
X1184707Y520556D01*
X1184695Y520535D01*
X1184684Y520509D01*
X1184674Y520479D01*
X1184663Y520449D01*
X1184651Y520412D01*
X1184640Y520375D01*
X1184630Y520336D01*
X1184624Y520294D01*
X1184617Y520248D01*
X1184614Y520202D01*
X1184612Y520153D01*
Y520151D01*
Y520144D01*
Y520132D01*
X1184614Y520116D01*
Y520098D01*
X1184617Y520077D01*
X1184619Y520051D01*
X1184621Y520026D01*
X1184633Y519966D01*
X1184647Y519899D01*
X1184665Y519831D01*
X1184693Y519764D01*
Y519762D01*
X1184698Y519757D01*
X1184702Y519748D01*
X1184709Y519737D01*
X1184716Y519720D01*
X1184725Y519704D01*
X1184751Y519667D01*
X1184783Y519623D01*
X1184818Y519582D01*
X1184862Y519540D01*
X1184908Y519505D01*
X1184911D01*
X1184915Y519503D01*
X1184922Y519498D01*
X1184931Y519494D01*
X1184943Y519487D01*
X1184959Y519480D01*
X1184994Y519466D01*
X1185035Y519450D01*
X1185082Y519438D01*
X1185130Y519429D01*
X1185184Y519424D01*
X1185197D01*
X1185214Y519427D01*
X1185234D01*
X1185260Y519429D01*
X1185285Y519433D01*
X1185343Y519445D01*
X1185348D01*
X1185357Y519450D01*
X1185371Y519454D01*
X1185392Y519461D01*
X1185415Y519468D01*
X1185440Y519480D01*
X1185494Y519505D01*
Y519943D01*
Y519945D01*
Y519947D01*
Y519961D01*
Y519980D01*
X1185491Y520003D01*
X1185489Y520028D01*
X1185487Y520051D01*
X1185482Y520072D01*
X1185475Y520088D01*
Y520091D01*
X1185473Y520095D01*
X1185464Y520109D01*
X1185445Y520125D01*
X1185422Y520142D01*
X1185420D01*
X1185415Y520144D01*
X1185406Y520148D01*
X1185394Y520151D01*
X1185376Y520155D01*
X1185355Y520158D01*
X1185329Y520160D01*
X1185297D01*
Y520202D01*
X1185875D01*
Y520160D01*
X1185834D01*
X1185820Y520158D01*
X1185801Y520153D01*
X1185781Y520146D01*
X1185762Y520135D01*
X1185744Y520121D01*
X1185730Y520102D01*
Y520100D01*
X1185727Y520093D01*
X1185723Y520084D01*
X1185720Y520068D01*
X1185716Y520044D01*
X1185711Y520017D01*
X1185709Y519984D01*
Y519943D01*
Y519482D01*
X1185707D01*
X1185704Y519480D01*
X1185697Y519475D01*
X1185688Y519471D01*
X1185662Y519459D01*
X1185630Y519443D01*
X1185591Y519427D01*
X1185549Y519410D01*
X1185503Y519396D01*
X1185457Y519383D01*
X1185454D01*
X1185452Y519380D01*
X1185445D01*
X1185436Y519378D01*
X1185424Y519376D01*
X1185410Y519373D01*
X1185376Y519366D01*
X1185336Y519359D01*
X1185290Y519355D01*
X1185239Y519352D01*
X1185184Y519350D01*
X1185165D01*
X1185142Y519352D01*
X1185112Y519355D01*
X1185077Y519359D01*
X1185035Y519364D01*
X1184989Y519373D01*
X1184938Y519385D01*
X1184887Y519399D01*
X1184834Y519417D01*
X1184779Y519440D01*
X1184723Y519468D01*
X1184670Y519498D01*
X1184619Y519535D01*
X1184570Y519579D01*
X1184526Y519628D01*
X1184524Y519630D01*
X1184519Y519637D01*
X1184510Y519649D01*
X1184501Y519665D01*
X1184487Y519683D01*
X1184473Y519709D01*
X1184459Y519734D01*
X1184443Y519767D01*
X1184427Y519799D01*
X1184413Y519836D01*
X1184399Y519875D01*
X1184385Y519917D01*
X1184376Y519961D01*
X1184367Y520010D01*
X1184362Y520056D01*
X1184360Y520107D01*
Y520109D01*
Y520116D01*
Y520125D01*
X1184362Y520142D01*
Y520158D01*
X1184364Y520179D01*
X1184367Y520204D01*
X1184371Y520229D01*
X1184383Y520287D01*
X1184399Y520352D01*
X1184422Y520419D01*
X1184452Y520486D01*
X1184455Y520489D01*
X1184457Y520496D01*
X1184464Y520507D01*
X1184473Y520521D01*
X1184485Y520540D01*
X1184499Y520560D01*
X1184515Y520583D01*
X1184533Y520609D01*
X1184577Y520662D01*
X1184630Y520718D01*
X1184691Y520771D01*
X1184725Y520794D01*
X1184760Y520817D01*
X1184762Y520820D01*
X1184767Y520822D01*
X1184776Y520826D01*
X1184790Y520833D01*
X1184804Y520840D01*
X1184825Y520847D01*
X1184846Y520857D01*
X1184871Y520866D01*
X1184897Y520875D01*
X1184927Y520884D01*
X1184991Y520898D01*
X1185066Y520910D01*
X1185146Y520914D01*
X1185177D01*
X1185197Y520912D01*
X1185218D01*
X1185244Y520910D01*
X1185295Y520901D01*
X1185297D01*
X1185306Y520898D01*
X1185322Y520894D01*
X1185343Y520889D01*
X1185371Y520880D01*
X1185403Y520870D01*
X1185440Y520859D01*
X1185484Y520843D01*
X1185487D01*
X1185494Y520838D01*
X1185505Y520836D01*
X1185517Y520831D01*
X1185545Y520824D01*
X1185556Y520820D01*
X1185570D01*
X1185577Y520822D01*
X1185589Y520826D01*
X1185600Y520838D01*
X1185602Y520843D01*
X1185605Y520847D01*
X1185609Y520854D01*
X1185612Y520866D01*
X1185616Y520877D01*
X1185619Y520894D01*
X1185621Y520914D01*
X1185662D01*
X1185702Y520442D01*
D02*
G37*
G36*
X1188272Y520877D02*
X1188304Y520875D01*
X1188339Y520873D01*
X1188376Y520870D01*
X1188459Y520861D01*
X1188542Y520847D01*
X1188623Y520829D01*
X1188660Y520817D01*
X1188695Y520803D01*
X1188697D01*
X1188702Y520799D01*
X1188711Y520794D01*
X1188725Y520789D01*
X1188739Y520780D01*
X1188757Y520771D01*
X1188797Y520743D01*
X1188841Y520708D01*
X1188889Y520664D01*
X1188936Y520611D01*
X1188956Y520581D01*
X1188977Y520549D01*
X1188980Y520547D01*
X1188982Y520542D01*
X1188987Y520530D01*
X1188994Y520516D01*
X1189003Y520500D01*
X1189012Y520479D01*
X1189021Y520456D01*
X1189031Y520431D01*
X1189040Y520403D01*
X1189049Y520371D01*
X1189058Y520336D01*
X1189068Y520301D01*
X1189079Y520223D01*
X1189084Y520181D01*
Y520139D01*
Y520135D01*
Y520125D01*
X1189081Y520109D01*
Y520088D01*
X1189079Y520061D01*
X1189074Y520030D01*
X1189068Y519996D01*
X1189061Y519956D01*
X1189049Y519917D01*
X1189037Y519875D01*
X1189021Y519831D01*
X1189003Y519788D01*
X1188982Y519744D01*
X1188956Y519702D01*
X1188926Y519658D01*
X1188894Y519619D01*
X1188892Y519616D01*
X1188885Y519609D01*
X1188871Y519598D01*
X1188855Y519582D01*
X1188832Y519565D01*
X1188804Y519545D01*
X1188771Y519524D01*
X1188734Y519503D01*
X1188690Y519480D01*
X1188642Y519459D01*
X1188589Y519438D01*
X1188531Y519422D01*
X1188468Y519406D01*
X1188399Y519394D01*
X1188325Y519387D01*
X1188246Y519385D01*
X1187582D01*
Y519427D01*
X1187654D01*
X1187670Y519429D01*
X1187688Y519433D01*
X1187712Y519440D01*
X1187732Y519452D01*
X1187753Y519466D01*
X1187769Y519487D01*
X1187772Y519489D01*
X1187774Y519494D01*
X1187779Y519505D01*
X1187783Y519519D01*
X1187788Y519542D01*
X1187790Y519570D01*
X1187795Y519605D01*
Y519649D01*
Y520616D01*
Y520618D01*
Y520623D01*
Y520630D01*
Y520639D01*
X1187793Y520662D01*
X1187790Y520690D01*
X1187788Y520720D01*
X1187781Y520748D01*
X1187774Y520773D01*
X1187767Y520783D01*
X1187762Y520789D01*
X1187760Y520792D01*
X1187755Y520796D01*
X1187744Y520806D01*
X1187732Y520815D01*
X1187714Y520822D01*
X1187693Y520831D01*
X1187668Y520836D01*
X1187638Y520838D01*
X1187531D01*
X1187514Y520836D01*
X1187493Y520831D01*
X1187470Y520824D01*
X1187447Y520813D01*
X1187426Y520799D01*
X1187410Y520780D01*
Y520778D01*
X1187406Y520773D01*
X1187403Y520762D01*
X1187399Y520748D01*
X1187394Y520727D01*
X1187392Y520699D01*
X1187387Y520664D01*
Y520621D01*
Y519362D01*
X1187345D01*
X1186362Y520563D01*
Y519644D01*
Y519642D01*
Y519637D01*
Y519630D01*
Y519621D01*
X1186364Y519598D01*
X1186367Y519570D01*
X1186369Y519540D01*
X1186374Y519512D01*
X1186380Y519489D01*
X1186385Y519477D01*
X1186390Y519471D01*
X1186392Y519468D01*
X1186399Y519464D01*
X1186408Y519457D01*
X1186422Y519450D01*
X1186441Y519440D01*
X1186464Y519433D01*
X1186492Y519429D01*
X1186522Y519427D01*
X1186575D01*
Y519385D01*
X1186052D01*
Y519427D01*
X1186119D01*
X1186135Y519429D01*
X1186156Y519433D01*
X1186179Y519440D01*
X1186202Y519450D01*
X1186223Y519464D01*
X1186239Y519482D01*
X1186242Y519484D01*
X1186244Y519489D01*
X1186249Y519501D01*
X1186253Y519514D01*
X1186258Y519538D01*
X1186260Y519565D01*
X1186265Y519600D01*
Y519644D01*
Y520683D01*
X1186262Y520685D01*
X1186253Y520695D01*
X1186242Y520708D01*
X1186228Y520722D01*
X1186193Y520755D01*
X1186177Y520769D01*
X1186163Y520780D01*
X1186161Y520783D01*
X1186156Y520785D01*
X1186149Y520789D01*
X1186140Y520796D01*
X1186126Y520803D01*
X1186107Y520810D01*
X1186089Y520820D01*
X1186066Y520826D01*
X1186063D01*
X1186059Y520829D01*
X1186052Y520831D01*
X1186043Y520833D01*
X1186029D01*
X1186013Y520836D01*
X1185994Y520838D01*
X1185971D01*
Y520880D01*
X1186374D01*
X1187290Y519762D01*
Y520621D01*
Y520623D01*
Y520628D01*
Y520634D01*
Y520641D01*
X1187287Y520664D01*
X1187285Y520692D01*
X1187283Y520722D01*
X1187276Y520750D01*
X1187269Y520776D01*
X1187262Y520785D01*
X1187257Y520792D01*
X1187255Y520794D01*
X1187250Y520799D01*
X1187239Y520806D01*
X1187225Y520815D01*
X1187207Y520824D01*
X1187186Y520831D01*
X1187158Y520836D01*
X1187128Y520838D01*
X1187077D01*
Y520880D01*
X1188244D01*
X1188272Y520877D01*
D02*
G37*
G36*
X176472Y145692D02*
Y145689D01*
Y145687D01*
Y145680D01*
Y145671D01*
Y145650D01*
X176475Y145624D01*
Y145597D01*
X176477Y145571D01*
X176479Y145550D01*
X176481Y145534D01*
Y145532D01*
X176484Y145530D01*
X176491Y145518D01*
X176505Y145502D01*
X176525Y145486D01*
X176528D01*
X176532Y145483D01*
X176542Y145481D01*
X176555Y145479D01*
X176572Y145474D01*
X176595Y145472D01*
X176625Y145469D01*
X176660D01*
Y145428D01*
X176097D01*
Y145469D01*
X176132D01*
X176153Y145472D01*
X176176Y145474D01*
X176197Y145476D01*
X176218Y145481D01*
X176232Y145486D01*
X176234D01*
X176236Y145488D01*
X176250Y145497D01*
X176264Y145511D01*
X176275Y145530D01*
Y145532D01*
X176278Y145537D01*
X176280Y145546D01*
X176282Y145560D01*
X176285Y145581D01*
X176287Y145611D01*
X176289Y145645D01*
Y145668D01*
Y145692D01*
Y146497D01*
Y146499D01*
Y146504D01*
Y146513D01*
Y146522D01*
Y146550D01*
X176287Y146585D01*
Y146619D01*
X176285Y146654D01*
X176282Y146682D01*
X176280Y146696D01*
X176278Y146705D01*
Y146707D01*
X176275Y146710D01*
X176271Y146724D01*
X176262Y146742D01*
X176248Y146756D01*
X176245Y146758D01*
X176236Y146765D01*
X176220Y146770D01*
X176201Y146772D01*
X176195D01*
X176185Y146770D01*
X176171Y146768D01*
X176155Y146765D01*
X176137Y146758D01*
X176114Y146751D01*
X176088Y146740D01*
X176072Y146774D01*
X176435Y146953D01*
X176472D01*
Y145692D01*
D02*
G37*
G36*
Y941580D02*
Y941578D01*
Y941576D01*
Y941569D01*
Y941560D01*
Y941539D01*
X176475Y941513D01*
Y941486D01*
X176477Y941460D01*
X176479Y941439D01*
X176481Y941423D01*
Y941421D01*
X176484Y941418D01*
X176491Y941407D01*
X176505Y941391D01*
X176525Y941375D01*
X176528D01*
X176532Y941372D01*
X176542Y941370D01*
X176555Y941368D01*
X176572Y941363D01*
X176595Y941361D01*
X176625Y941358D01*
X176660D01*
Y941317D01*
X176097D01*
Y941358D01*
X176132D01*
X176153Y941361D01*
X176176Y941363D01*
X176197Y941365D01*
X176218Y941370D01*
X176232Y941375D01*
X176234D01*
X176236Y941377D01*
X176250Y941386D01*
X176264Y941400D01*
X176275Y941418D01*
Y941421D01*
X176278Y941425D01*
X176280Y941435D01*
X176282Y941449D01*
X176285Y941469D01*
X176287Y941499D01*
X176289Y941534D01*
Y941557D01*
Y941580D01*
Y942386D01*
Y942388D01*
Y942393D01*
Y942402D01*
Y942411D01*
Y942439D01*
X176287Y942474D01*
Y942508D01*
X176285Y942543D01*
X176282Y942571D01*
X176280Y942585D01*
X176278Y942594D01*
Y942596D01*
X176275Y942599D01*
X176271Y942612D01*
X176262Y942631D01*
X176248Y942645D01*
X176245Y942647D01*
X176236Y942654D01*
X176220Y942659D01*
X176201Y942661D01*
X176195D01*
X176185Y942659D01*
X176171Y942656D01*
X176155Y942654D01*
X176137Y942647D01*
X176114Y942640D01*
X176088Y942629D01*
X176072Y942663D01*
X176435Y942842D01*
X176472D01*
Y941580D01*
D02*
G37*
G36*
X384664Y146950D02*
X384680Y146948D01*
X384699Y146946D01*
X384740Y146939D01*
X384789Y146925D01*
X384840Y146904D01*
X384865Y146890D01*
X384891Y146874D01*
X384916Y146855D01*
X384939Y146835D01*
X384942Y146832D01*
X384944Y146830D01*
X384951Y146823D01*
X384958Y146814D01*
X384979Y146791D01*
X385002Y146756D01*
X385023Y146717D01*
X385043Y146670D01*
X385057Y146617D01*
X385060Y146589D01*
X385062Y146559D01*
Y146557D01*
Y146555D01*
Y146548D01*
Y146541D01*
X385060Y146518D01*
X385055Y146488D01*
X385048Y146455D01*
X385039Y146416D01*
X385025Y146374D01*
X385006Y146333D01*
Y146330D01*
X385002Y146326D01*
X384997Y146314D01*
X384990Y146302D01*
X384981Y146286D01*
X384972Y146265D01*
X384958Y146245D01*
X384944Y146219D01*
X384925Y146191D01*
X384907Y146161D01*
X384861Y146099D01*
X384833Y146064D01*
X384805Y146029D01*
X384775Y145992D01*
X384740Y145955D01*
X384738Y145953D01*
X384729Y145941D01*
X384715Y145928D01*
X384696Y145907D01*
X384675Y145884D01*
X384650Y145858D01*
X384594Y145798D01*
X384537Y145736D01*
X384509Y145705D01*
X384481Y145678D01*
X384456Y145652D01*
X384432Y145629D01*
X384414Y145611D01*
X384400Y145597D01*
X384854D01*
X384879Y145599D01*
X384907D01*
X384932Y145601D01*
X384953Y145604D01*
X384955D01*
X384962Y145606D01*
X384972Y145608D01*
X384983Y145611D01*
X385011Y145622D01*
X385039Y145638D01*
X385041Y145641D01*
X385046Y145643D01*
X385053Y145650D01*
X385062Y145659D01*
X385073Y145671D01*
X385085Y145682D01*
X385108Y145717D01*
X385152D01*
X385046Y145428D01*
X384164D01*
Y145467D01*
X384169Y145472D01*
X384180Y145483D01*
X384201Y145502D01*
X384229Y145527D01*
X384259Y145557D01*
X384296Y145592D01*
X384338Y145631D01*
X384379Y145673D01*
X384426Y145719D01*
X384470Y145766D01*
X384562Y145863D01*
X384604Y145911D01*
X384645Y145958D01*
X384682Y146004D01*
X384715Y146048D01*
X384717Y146050D01*
X384722Y146057D01*
X384729Y146071D01*
X384740Y146085D01*
X384752Y146106D01*
X384766Y146129D01*
X384780Y146154D01*
X384796Y146184D01*
X384824Y146247D01*
X384849Y146316D01*
X384861Y146351D01*
X384867Y146386D01*
X384872Y146423D01*
X384874Y146457D01*
Y146460D01*
Y146464D01*
Y146471D01*
X384872Y146481D01*
X384870Y146508D01*
X384863Y146541D01*
X384854Y146578D01*
X384837Y146617D01*
X384817Y146654D01*
X384786Y146691D01*
X384782Y146696D01*
X384770Y146705D01*
X384752Y146721D01*
X384726Y146737D01*
X384696Y146754D01*
X384662Y146770D01*
X384620Y146779D01*
X384576Y146784D01*
X384557D01*
X384537Y146781D01*
X384509Y146777D01*
X384479Y146768D01*
X384446Y146756D01*
X384412Y146740D01*
X384377Y146719D01*
X384372Y146717D01*
X384363Y146707D01*
X384347Y146691D01*
X384328Y146670D01*
X384308Y146645D01*
X384284Y146613D01*
X384266Y146575D01*
X384247Y146532D01*
X384208D01*
Y146534D01*
X384210Y146541D01*
Y146550D01*
X384215Y146564D01*
X384217Y146582D01*
X384222Y146601D01*
X384236Y146645D01*
X384254Y146696D01*
X384277Y146747D01*
X384308Y146798D01*
X384347Y146842D01*
X384349Y146844D01*
X384352Y146846D01*
X384358Y146851D01*
X384368Y146860D01*
X384379Y146867D01*
X384393Y146876D01*
X384426Y146897D01*
X384467Y146918D01*
X384516Y146936D01*
X384571Y146948D01*
X384601Y146950D01*
X384634Y146953D01*
X384652D01*
X384664Y146950D01*
D02*
G37*
G36*
Y942839D02*
X384680Y942837D01*
X384699Y942835D01*
X384740Y942828D01*
X384789Y942814D01*
X384840Y942793D01*
X384865Y942779D01*
X384891Y942763D01*
X384916Y942744D01*
X384939Y942724D01*
X384942Y942721D01*
X384944Y942719D01*
X384951Y942712D01*
X384958Y942703D01*
X384979Y942680D01*
X385002Y942645D01*
X385023Y942606D01*
X385043Y942559D01*
X385057Y942506D01*
X385060Y942478D01*
X385062Y942448D01*
Y942446D01*
Y942444D01*
Y942437D01*
Y942430D01*
X385060Y942407D01*
X385055Y942376D01*
X385048Y942344D01*
X385039Y942305D01*
X385025Y942263D01*
X385006Y942221D01*
Y942219D01*
X385002Y942214D01*
X384997Y942203D01*
X384990Y942191D01*
X384981Y942175D01*
X384972Y942154D01*
X384958Y942133D01*
X384944Y942108D01*
X384925Y942080D01*
X384907Y942050D01*
X384861Y941988D01*
X384833Y941953D01*
X384805Y941918D01*
X384775Y941881D01*
X384740Y941844D01*
X384738Y941842D01*
X384729Y941830D01*
X384715Y941816D01*
X384696Y941796D01*
X384675Y941773D01*
X384650Y941747D01*
X384594Y941687D01*
X384537Y941624D01*
X384509Y941594D01*
X384481Y941567D01*
X384456Y941541D01*
X384432Y941518D01*
X384414Y941499D01*
X384400Y941486D01*
X384854D01*
X384879Y941488D01*
X384907D01*
X384932Y941490D01*
X384953Y941493D01*
X384955D01*
X384962Y941495D01*
X384972Y941497D01*
X384983Y941499D01*
X385011Y941511D01*
X385039Y941527D01*
X385041Y941530D01*
X385046Y941532D01*
X385053Y941539D01*
X385062Y941548D01*
X385073Y941560D01*
X385085Y941571D01*
X385108Y941606D01*
X385152D01*
X385046Y941317D01*
X384164D01*
Y941356D01*
X384169Y941361D01*
X384180Y941372D01*
X384201Y941391D01*
X384229Y941416D01*
X384259Y941446D01*
X384296Y941481D01*
X384338Y941520D01*
X384379Y941562D01*
X384426Y941608D01*
X384470Y941654D01*
X384562Y941752D01*
X384604Y941800D01*
X384645Y941847D01*
X384682Y941893D01*
X384715Y941937D01*
X384717Y941939D01*
X384722Y941946D01*
X384729Y941960D01*
X384740Y941974D01*
X384752Y941995D01*
X384766Y942018D01*
X384780Y942043D01*
X384796Y942073D01*
X384824Y942136D01*
X384849Y942205D01*
X384861Y942240D01*
X384867Y942275D01*
X384872Y942312D01*
X384874Y942346D01*
Y942349D01*
Y942353D01*
Y942360D01*
X384872Y942370D01*
X384870Y942397D01*
X384863Y942430D01*
X384854Y942467D01*
X384837Y942506D01*
X384817Y942543D01*
X384786Y942580D01*
X384782Y942585D01*
X384770Y942594D01*
X384752Y942610D01*
X384726Y942626D01*
X384696Y942643D01*
X384662Y942659D01*
X384620Y942668D01*
X384576Y942673D01*
X384557D01*
X384537Y942670D01*
X384509Y942666D01*
X384479Y942656D01*
X384446Y942645D01*
X384412Y942629D01*
X384377Y942608D01*
X384372Y942606D01*
X384363Y942596D01*
X384347Y942580D01*
X384328Y942559D01*
X384308Y942534D01*
X384284Y942501D01*
X384266Y942464D01*
X384247Y942420D01*
X384208D01*
Y942423D01*
X384210Y942430D01*
Y942439D01*
X384215Y942453D01*
X384217Y942471D01*
X384222Y942490D01*
X384236Y942534D01*
X384254Y942585D01*
X384277Y942636D01*
X384308Y942687D01*
X384347Y942730D01*
X384349Y942733D01*
X384352Y942735D01*
X384358Y942740D01*
X384368Y942749D01*
X384379Y942756D01*
X384393Y942765D01*
X384426Y942786D01*
X384467Y942807D01*
X384516Y942825D01*
X384571Y942837D01*
X384601Y942839D01*
X384634Y942842D01*
X384652D01*
X384664Y942839D01*
D02*
G37*
G36*
X593036Y146950D02*
X593050Y146948D01*
X593069Y146946D01*
X593108Y146939D01*
X593152Y146925D01*
X593198Y146904D01*
X593219Y146890D01*
X593242Y146874D01*
X593263Y146855D01*
X593282Y146835D01*
X593284Y146830D01*
X593293Y146818D01*
X593305Y146802D01*
X593319Y146779D01*
X593332Y146751D01*
X593344Y146719D01*
X593353Y146687D01*
X593356Y146650D01*
Y146647D01*
Y146643D01*
X593353Y146633D01*
Y146622D01*
X593349Y146606D01*
X593344Y146589D01*
X593339Y146569D01*
X593330Y146545D01*
X593319Y146522D01*
X593307Y146495D01*
X593289Y146467D01*
X593270Y146437D01*
X593247Y146407D01*
X593219Y146376D01*
X593189Y146344D01*
X593152Y146312D01*
X593154D01*
X593159Y146309D01*
X593166Y146307D01*
X593175Y146302D01*
X593198Y146289D01*
X593228Y146272D01*
X593263Y146252D01*
X593295Y146224D01*
X593330Y146194D01*
X593358Y146157D01*
X593360Y146152D01*
X593370Y146138D01*
X593381Y146117D01*
X593395Y146090D01*
X593406Y146055D01*
X593418Y146016D01*
X593427Y145972D01*
X593430Y145923D01*
Y145921D01*
Y145914D01*
Y145904D01*
X593427Y145891D01*
X593425Y145874D01*
X593423Y145854D01*
X593420Y145833D01*
X593413Y145807D01*
X593400Y145754D01*
X593376Y145699D01*
X593363Y145671D01*
X593346Y145641D01*
X593328Y145613D01*
X593305Y145585D01*
X593302Y145583D01*
X593298Y145578D01*
X593289Y145569D01*
X593275Y145557D01*
X593258Y145543D01*
X593238Y145527D01*
X593214Y145511D01*
X593187Y145495D01*
X593154Y145476D01*
X593120Y145460D01*
X593080Y145444D01*
X593039Y145430D01*
X592995Y145419D01*
X592946Y145409D01*
X592893Y145405D01*
X592837Y145402D01*
X592814D01*
X592786Y145405D01*
X592756Y145407D01*
X592722Y145412D01*
X592687Y145419D01*
X592657Y145428D01*
X592631Y145439D01*
X592629Y145442D01*
X592622Y145446D01*
X592615Y145453D01*
X592606Y145462D01*
X592594Y145476D01*
X592587Y145490D01*
X592580Y145504D01*
X592578Y145520D01*
Y145523D01*
Y145525D01*
X592580Y145539D01*
X592590Y145557D01*
X592594Y145567D01*
X592604Y145576D01*
X592606Y145578D01*
X592608Y145581D01*
X592622Y145590D01*
X592641Y145597D01*
X592652Y145601D01*
X592685D01*
X592701Y145597D01*
X592722Y145592D01*
X592726Y145590D01*
X592731Y145587D01*
X592740Y145585D01*
X592752Y145578D01*
X592766Y145571D01*
X592784Y145562D01*
X592807Y145550D01*
X592810Y145548D01*
X592819Y145546D01*
X592830Y145539D01*
X592844Y145532D01*
X592874Y145518D01*
X592888Y145513D01*
X592900Y145509D01*
X592902D01*
X592907Y145506D01*
X592914Y145504D01*
X592925D01*
X592953Y145500D01*
X592985Y145497D01*
X592990D01*
X593004Y145500D01*
X593025Y145502D01*
X593052Y145509D01*
X593083Y145518D01*
X593117Y145534D01*
X593150Y145555D01*
X593182Y145583D01*
X593187Y145587D01*
X593196Y145599D01*
X593210Y145618D01*
X593226Y145641D01*
X593240Y145671D01*
X593254Y145708D01*
X593263Y145747D01*
X593268Y145789D01*
Y145793D01*
Y145805D01*
X593265Y145821D01*
X593263Y145844D01*
X593258Y145870D01*
X593251Y145898D01*
X593242Y145930D01*
X593228Y145960D01*
X593226Y145962D01*
X593224Y145969D01*
X593217Y145981D01*
X593210Y145995D01*
X593189Y146025D01*
X593177Y146041D01*
X593166Y146053D01*
X593164Y146055D01*
X593157Y146059D01*
X593145Y146069D01*
X593131Y146080D01*
X593113Y146092D01*
X593089Y146106D01*
X593064Y146120D01*
X593034Y146134D01*
X593029Y146136D01*
X593020Y146140D01*
X593004Y146145D01*
X592983Y146152D01*
X592958Y146159D01*
X592928Y146166D01*
X592897Y146168D01*
X592865Y146171D01*
X592830D01*
Y146203D01*
X592835D01*
X592847Y146205D01*
X592863Y146208D01*
X592886Y146215D01*
X592911Y146221D01*
X592941Y146233D01*
X592971Y146247D01*
X593004Y146263D01*
X593009Y146265D01*
X593018Y146272D01*
X593034Y146284D01*
X593052Y146298D01*
X593073Y146316D01*
X593094Y146339D01*
X593115Y146363D01*
X593131Y146388D01*
X593133Y146390D01*
X593138Y146402D01*
X593145Y146416D01*
X593152Y146437D01*
X593159Y146460D01*
X593166Y146488D01*
X593170Y146515D01*
X593173Y146548D01*
Y146550D01*
Y146552D01*
Y146566D01*
X593168Y146587D01*
X593164Y146613D01*
X593154Y146643D01*
X593143Y146673D01*
X593124Y146703D01*
X593101Y146731D01*
X593099Y146733D01*
X593087Y146742D01*
X593073Y146754D01*
X593052Y146768D01*
X593027Y146779D01*
X592995Y146791D01*
X592962Y146800D01*
X592923Y146802D01*
X592907D01*
X592895Y146800D01*
X592879Y146798D01*
X592863Y146793D01*
X592823Y146779D01*
X592800Y146770D01*
X592777Y146758D01*
X592754Y146742D01*
X592731Y146726D01*
X592705Y146705D01*
X592682Y146680D01*
X592659Y146652D01*
X592636Y146619D01*
X592601Y146638D01*
Y146640D01*
X592604Y146645D01*
X592608Y146652D01*
X592613Y146663D01*
X592627Y146689D01*
X592645Y146724D01*
X592668Y146761D01*
X592696Y146800D01*
X592726Y146837D01*
X592761Y146869D01*
X592763D01*
X592766Y146874D01*
X592779Y146883D01*
X592800Y146895D01*
X592828Y146911D01*
X592865Y146927D01*
X592907Y146939D01*
X592953Y146948D01*
X593006Y146953D01*
X593022D01*
X593036Y146950D01*
D02*
G37*
G36*
Y942839D02*
X593050Y942837D01*
X593069Y942835D01*
X593108Y942828D01*
X593152Y942814D01*
X593198Y942793D01*
X593219Y942779D01*
X593242Y942763D01*
X593263Y942744D01*
X593282Y942724D01*
X593284Y942719D01*
X593293Y942707D01*
X593305Y942691D01*
X593319Y942668D01*
X593332Y942640D01*
X593344Y942608D01*
X593353Y942575D01*
X593356Y942538D01*
Y942536D01*
Y942531D01*
X593353Y942522D01*
Y942511D01*
X593349Y942494D01*
X593344Y942478D01*
X593339Y942457D01*
X593330Y942434D01*
X593319Y942411D01*
X593307Y942383D01*
X593289Y942356D01*
X593270Y942326D01*
X593247Y942295D01*
X593219Y942265D01*
X593189Y942233D01*
X593152Y942201D01*
X593154D01*
X593159Y942198D01*
X593166Y942196D01*
X593175Y942191D01*
X593198Y942177D01*
X593228Y942161D01*
X593263Y942140D01*
X593295Y942113D01*
X593330Y942083D01*
X593358Y942046D01*
X593360Y942041D01*
X593370Y942027D01*
X593381Y942006D01*
X593395Y941978D01*
X593406Y941944D01*
X593418Y941904D01*
X593427Y941860D01*
X593430Y941812D01*
Y941810D01*
Y941803D01*
Y941793D01*
X593427Y941779D01*
X593425Y941763D01*
X593423Y941742D01*
X593420Y941722D01*
X593413Y941696D01*
X593400Y941643D01*
X593376Y941587D01*
X593363Y941560D01*
X593346Y941530D01*
X593328Y941502D01*
X593305Y941474D01*
X593302Y941472D01*
X593298Y941467D01*
X593289Y941458D01*
X593275Y941446D01*
X593258Y941432D01*
X593238Y941416D01*
X593214Y941400D01*
X593187Y941384D01*
X593154Y941365D01*
X593120Y941349D01*
X593080Y941333D01*
X593039Y941319D01*
X592995Y941307D01*
X592946Y941298D01*
X592893Y941294D01*
X592837Y941291D01*
X592814D01*
X592786Y941294D01*
X592756Y941296D01*
X592722Y941300D01*
X592687Y941307D01*
X592657Y941317D01*
X592631Y941328D01*
X592629Y941331D01*
X592622Y941335D01*
X592615Y941342D01*
X592606Y941351D01*
X592594Y941365D01*
X592587Y941379D01*
X592580Y941393D01*
X592578Y941409D01*
Y941412D01*
Y941414D01*
X592580Y941428D01*
X592590Y941446D01*
X592594Y941456D01*
X592604Y941465D01*
X592606Y941467D01*
X592608Y941469D01*
X592622Y941479D01*
X592641Y941486D01*
X592652Y941490D01*
X592685D01*
X592701Y941486D01*
X592722Y941481D01*
X592726Y941479D01*
X592731Y941476D01*
X592740Y941474D01*
X592752Y941467D01*
X592766Y941460D01*
X592784Y941451D01*
X592807Y941439D01*
X592810Y941437D01*
X592819Y941435D01*
X592830Y941428D01*
X592844Y941421D01*
X592874Y941407D01*
X592888Y941402D01*
X592900Y941398D01*
X592902D01*
X592907Y941395D01*
X592914Y941393D01*
X592925D01*
X592953Y941388D01*
X592985Y941386D01*
X592990D01*
X593004Y941388D01*
X593025Y941391D01*
X593052Y941398D01*
X593083Y941407D01*
X593117Y941423D01*
X593150Y941444D01*
X593182Y941472D01*
X593187Y941476D01*
X593196Y941488D01*
X593210Y941506D01*
X593226Y941530D01*
X593240Y941560D01*
X593254Y941597D01*
X593263Y941636D01*
X593268Y941678D01*
Y941682D01*
Y941694D01*
X593265Y941710D01*
X593263Y941733D01*
X593258Y941759D01*
X593251Y941786D01*
X593242Y941819D01*
X593228Y941849D01*
X593226Y941851D01*
X593224Y941858D01*
X593217Y941870D01*
X593210Y941884D01*
X593189Y941914D01*
X593177Y941930D01*
X593166Y941941D01*
X593164Y941944D01*
X593157Y941948D01*
X593145Y941958D01*
X593131Y941969D01*
X593113Y941981D01*
X593089Y941995D01*
X593064Y942009D01*
X593034Y942022D01*
X593029Y942025D01*
X593020Y942029D01*
X593004Y942034D01*
X592983Y942041D01*
X592958Y942048D01*
X592928Y942055D01*
X592897Y942057D01*
X592865Y942059D01*
X592830D01*
Y942092D01*
X592835D01*
X592847Y942094D01*
X592863Y942096D01*
X592886Y942103D01*
X592911Y942110D01*
X592941Y942122D01*
X592971Y942136D01*
X593004Y942152D01*
X593009Y942154D01*
X593018Y942161D01*
X593034Y942173D01*
X593052Y942187D01*
X593073Y942205D01*
X593094Y942228D01*
X593115Y942252D01*
X593131Y942277D01*
X593133Y942279D01*
X593138Y942291D01*
X593145Y942305D01*
X593152Y942326D01*
X593159Y942349D01*
X593166Y942376D01*
X593170Y942404D01*
X593173Y942437D01*
Y942439D01*
Y942441D01*
Y942455D01*
X593168Y942476D01*
X593164Y942501D01*
X593154Y942531D01*
X593143Y942562D01*
X593124Y942592D01*
X593101Y942619D01*
X593099Y942622D01*
X593087Y942631D01*
X593073Y942643D01*
X593052Y942656D01*
X593027Y942668D01*
X592995Y942680D01*
X592962Y942689D01*
X592923Y942691D01*
X592907D01*
X592895Y942689D01*
X592879Y942687D01*
X592863Y942682D01*
X592823Y942668D01*
X592800Y942659D01*
X592777Y942647D01*
X592754Y942631D01*
X592731Y942615D01*
X592705Y942594D01*
X592682Y942568D01*
X592659Y942541D01*
X592636Y942508D01*
X592601Y942527D01*
Y942529D01*
X592604Y942534D01*
X592608Y942541D01*
X592613Y942552D01*
X592627Y942578D01*
X592645Y942612D01*
X592668Y942649D01*
X592696Y942689D01*
X592726Y942726D01*
X592761Y942758D01*
X592763D01*
X592766Y942763D01*
X592779Y942772D01*
X592800Y942784D01*
X592828Y942800D01*
X592865Y942816D01*
X592907Y942828D01*
X592953Y942837D01*
X593006Y942842D01*
X593022D01*
X593036Y942839D01*
D02*
G37*
G36*
X801646Y145979D02*
X801847D01*
Y145821D01*
X801646D01*
Y145428D01*
X801463D01*
Y145821D01*
X800831D01*
Y145962D01*
X801523Y146953D01*
X801646D01*
Y145979D01*
D02*
G37*
G36*
Y941867D02*
X801847D01*
Y941710D01*
X801646D01*
Y941317D01*
X801463D01*
Y941710D01*
X800831D01*
Y941851D01*
X801523Y942842D01*
X801646D01*
Y941867D01*
D02*
G37*
G36*
X1010027Y146735D02*
X1009576D01*
X1009479Y146534D01*
X1009481D01*
X1009493Y146532D01*
X1009507Y146529D01*
X1009528Y146525D01*
X1009553Y146518D01*
X1009581Y146511D01*
X1009613Y146501D01*
X1009648Y146490D01*
X1009722Y146462D01*
X1009761Y146444D01*
X1009798Y146423D01*
X1009838Y146402D01*
X1009875Y146376D01*
X1009912Y146346D01*
X1009944Y146316D01*
X1009946Y146314D01*
X1009951Y146309D01*
X1009958Y146300D01*
X1009967Y146291D01*
X1009979Y146275D01*
X1009990Y146258D01*
X1010004Y146238D01*
X1010018Y146217D01*
X1010032Y146191D01*
X1010046Y146164D01*
X1010069Y146103D01*
X1010078Y146071D01*
X1010085Y146039D01*
X1010090Y146002D01*
X1010092Y145965D01*
Y145962D01*
Y145960D01*
Y145953D01*
Y145944D01*
X1010090Y145923D01*
X1010085Y145893D01*
X1010081Y145858D01*
X1010071Y145821D01*
X1010060Y145784D01*
X1010044Y145745D01*
X1010041Y145740D01*
X1010034Y145729D01*
X1010025Y145710D01*
X1010011Y145687D01*
X1009993Y145659D01*
X1009972Y145631D01*
X1009946Y145601D01*
X1009921Y145574D01*
X1009919Y145571D01*
X1009909Y145562D01*
X1009893Y145550D01*
X1009875Y145534D01*
X1009852Y145516D01*
X1009824Y145497D01*
X1009794Y145479D01*
X1009761Y145462D01*
X1009759D01*
X1009757Y145460D01*
X1009750Y145458D01*
X1009740Y145453D01*
X1009715Y145444D01*
X1009680Y145432D01*
X1009641Y145421D01*
X1009597Y145412D01*
X1009551Y145405D01*
X1009500Y145402D01*
X1009479D01*
X1009454Y145405D01*
X1009426Y145407D01*
X1009393Y145414D01*
X1009361Y145421D01*
X1009331Y145432D01*
X1009305Y145446D01*
X1009303Y145449D01*
X1009296Y145456D01*
X1009287Y145465D01*
X1009275Y145476D01*
X1009264Y145493D01*
X1009255Y145509D01*
X1009248Y145527D01*
X1009245Y145548D01*
Y145550D01*
Y145553D01*
X1009248Y145567D01*
X1009255Y145583D01*
X1009268Y145601D01*
X1009271D01*
X1009273Y145606D01*
X1009287Y145613D01*
X1009305Y145620D01*
X1009333Y145624D01*
X1009352D01*
X1009368Y145620D01*
X1009384Y145615D01*
X1009389Y145613D01*
X1009393Y145611D01*
X1009400Y145608D01*
X1009412Y145601D01*
X1009423Y145594D01*
X1009440Y145583D01*
X1009458Y145571D01*
X1009463Y145569D01*
X1009472Y145562D01*
X1009488Y145553D01*
X1009509Y145543D01*
X1009535Y145532D01*
X1009562Y145523D01*
X1009592Y145518D01*
X1009625Y145516D01*
X1009636D01*
X1009646Y145518D01*
X1009671Y145520D01*
X1009701Y145527D01*
X1009736Y145539D01*
X1009773Y145557D01*
X1009812Y145581D01*
X1009849Y145613D01*
X1009852Y145615D01*
X1009854Y145618D01*
X1009865Y145631D01*
X1009882Y145650D01*
X1009900Y145680D01*
X1009916Y145712D01*
X1009933Y145754D01*
X1009944Y145798D01*
X1009949Y145823D01*
Y145849D01*
Y145851D01*
Y145856D01*
Y145863D01*
X1009946Y145872D01*
X1009944Y145898D01*
X1009937Y145932D01*
X1009928Y145972D01*
X1009912Y146013D01*
X1009891Y146057D01*
X1009861Y146101D01*
Y146103D01*
X1009856Y146106D01*
X1009845Y146120D01*
X1009826Y146143D01*
X1009798Y146168D01*
X1009764Y146198D01*
X1009722Y146228D01*
X1009673Y146258D01*
X1009620Y146284D01*
X1009618D01*
X1009616Y146286D01*
X1009609Y146289D01*
X1009599Y146291D01*
X1009585Y146296D01*
X1009572Y146300D01*
X1009553Y146305D01*
X1009535Y146309D01*
X1009511Y146314D01*
X1009488Y146319D01*
X1009433Y146328D01*
X1009368Y146337D01*
X1009294Y146342D01*
X1009578Y146923D01*
X1010115D01*
X1010027Y146735D01*
D02*
G37*
G36*
Y942624D02*
X1009576D01*
X1009479Y942423D01*
X1009481D01*
X1009493Y942420D01*
X1009507Y942418D01*
X1009528Y942413D01*
X1009553Y942407D01*
X1009581Y942400D01*
X1009613Y942390D01*
X1009648Y942379D01*
X1009722Y942351D01*
X1009761Y942333D01*
X1009798Y942312D01*
X1009838Y942291D01*
X1009875Y942265D01*
X1009912Y942235D01*
X1009944Y942205D01*
X1009946Y942203D01*
X1009951Y942198D01*
X1009958Y942189D01*
X1009967Y942180D01*
X1009979Y942164D01*
X1009990Y942147D01*
X1010004Y942127D01*
X1010018Y942106D01*
X1010032Y942080D01*
X1010046Y942052D01*
X1010069Y941992D01*
X1010078Y941960D01*
X1010085Y941928D01*
X1010090Y941891D01*
X1010092Y941854D01*
Y941851D01*
Y941849D01*
Y941842D01*
Y941833D01*
X1010090Y941812D01*
X1010085Y941782D01*
X1010081Y941747D01*
X1010071Y941710D01*
X1010060Y941673D01*
X1010044Y941634D01*
X1010041Y941629D01*
X1010034Y941617D01*
X1010025Y941599D01*
X1010011Y941576D01*
X1009993Y941548D01*
X1009972Y941520D01*
X1009946Y941490D01*
X1009921Y941462D01*
X1009919Y941460D01*
X1009909Y941451D01*
X1009893Y941439D01*
X1009875Y941423D01*
X1009852Y941405D01*
X1009824Y941386D01*
X1009794Y941368D01*
X1009761Y941351D01*
X1009759D01*
X1009757Y941349D01*
X1009750Y941347D01*
X1009740Y941342D01*
X1009715Y941333D01*
X1009680Y941321D01*
X1009641Y941310D01*
X1009597Y941300D01*
X1009551Y941294D01*
X1009500Y941291D01*
X1009479D01*
X1009454Y941294D01*
X1009426Y941296D01*
X1009393Y941303D01*
X1009361Y941310D01*
X1009331Y941321D01*
X1009305Y941335D01*
X1009303Y941337D01*
X1009296Y941344D01*
X1009287Y941354D01*
X1009275Y941365D01*
X1009264Y941381D01*
X1009255Y941398D01*
X1009248Y941416D01*
X1009245Y941437D01*
Y941439D01*
Y941442D01*
X1009248Y941456D01*
X1009255Y941472D01*
X1009268Y941490D01*
X1009271D01*
X1009273Y941495D01*
X1009287Y941502D01*
X1009305Y941509D01*
X1009333Y941513D01*
X1009352D01*
X1009368Y941509D01*
X1009384Y941504D01*
X1009389Y941502D01*
X1009393Y941499D01*
X1009400Y941497D01*
X1009412Y941490D01*
X1009423Y941483D01*
X1009440Y941472D01*
X1009458Y941460D01*
X1009463Y941458D01*
X1009472Y941451D01*
X1009488Y941442D01*
X1009509Y941432D01*
X1009535Y941421D01*
X1009562Y941412D01*
X1009592Y941407D01*
X1009625Y941405D01*
X1009636D01*
X1009646Y941407D01*
X1009671Y941409D01*
X1009701Y941416D01*
X1009736Y941428D01*
X1009773Y941446D01*
X1009812Y941469D01*
X1009849Y941502D01*
X1009852Y941504D01*
X1009854Y941506D01*
X1009865Y941520D01*
X1009882Y941539D01*
X1009900Y941569D01*
X1009916Y941601D01*
X1009933Y941643D01*
X1009944Y941687D01*
X1009949Y941712D01*
Y941738D01*
Y941740D01*
Y941745D01*
Y941752D01*
X1009946Y941761D01*
X1009944Y941786D01*
X1009937Y941821D01*
X1009928Y941860D01*
X1009912Y941902D01*
X1009891Y941946D01*
X1009861Y941990D01*
Y941992D01*
X1009856Y941995D01*
X1009845Y942009D01*
X1009826Y942032D01*
X1009798Y942057D01*
X1009764Y942087D01*
X1009722Y942117D01*
X1009673Y942147D01*
X1009620Y942173D01*
X1009618D01*
X1009616Y942175D01*
X1009609Y942177D01*
X1009599Y942180D01*
X1009585Y942184D01*
X1009572Y942189D01*
X1009553Y942194D01*
X1009535Y942198D01*
X1009511Y942203D01*
X1009488Y942208D01*
X1009433Y942217D01*
X1009368Y942226D01*
X1009294Y942231D01*
X1009578Y942811D01*
X1010115D01*
X1010027Y942624D01*
D02*
G37*
G36*
X1218412Y146909D02*
X1218406D01*
X1218399Y146906D01*
X1218389D01*
X1218362Y146902D01*
X1218329Y146895D01*
X1218290Y146888D01*
X1218250Y146876D01*
X1218211Y146865D01*
X1218174Y146849D01*
X1218169Y146846D01*
X1218158Y146842D01*
X1218139Y146830D01*
X1218116Y146816D01*
X1218089Y146798D01*
X1218058Y146774D01*
X1218026Y146749D01*
X1217991Y146717D01*
X1217987Y146712D01*
X1217977Y146700D01*
X1217961Y146684D01*
X1217940Y146659D01*
X1217917Y146631D01*
X1217892Y146596D01*
X1217866Y146559D01*
X1217843Y146520D01*
Y146518D01*
X1217841Y146515D01*
X1217839Y146508D01*
X1217834Y146501D01*
X1217822Y146478D01*
X1217808Y146446D01*
X1217795Y146409D01*
X1217778Y146365D01*
X1217762Y146316D01*
X1217746Y146261D01*
X1217748Y146263D01*
X1217753Y146265D01*
X1217762Y146270D01*
X1217774Y146277D01*
X1217788Y146286D01*
X1217804Y146296D01*
X1217822Y146305D01*
X1217846Y146316D01*
X1217892Y146335D01*
X1217947Y146353D01*
X1218003Y146365D01*
X1218033Y146370D01*
X1218077D01*
X1218089Y146367D01*
X1218102Y146365D01*
X1218116Y146363D01*
X1218153Y146353D01*
X1218195Y146339D01*
X1218239Y146316D01*
X1218262Y146302D01*
X1218285Y146286D01*
X1218308Y146268D01*
X1218329Y146245D01*
X1218331Y146242D01*
X1218334Y146240D01*
X1218341Y146233D01*
X1218348Y146221D01*
X1218355Y146210D01*
X1218366Y146196D01*
X1218375Y146180D01*
X1218387Y146159D01*
X1218408Y146115D01*
X1218424Y146059D01*
X1218438Y145999D01*
X1218440Y145965D01*
X1218443Y145930D01*
Y145928D01*
Y145921D01*
Y145911D01*
X1218440Y145898D01*
Y145881D01*
X1218436Y145863D01*
X1218433Y145840D01*
X1218429Y145817D01*
X1218415Y145763D01*
X1218394Y145705D01*
X1218380Y145678D01*
X1218366Y145648D01*
X1218348Y145618D01*
X1218327Y145587D01*
X1218324Y145585D01*
X1218320Y145581D01*
X1218313Y145571D01*
X1218301Y145560D01*
X1218287Y145543D01*
X1218271Y145530D01*
X1218253Y145511D01*
X1218230Y145495D01*
X1218207Y145479D01*
X1218179Y145460D01*
X1218149Y145446D01*
X1218116Y145432D01*
X1218082Y145419D01*
X1218047Y145409D01*
X1218007Y145405D01*
X1217966Y145402D01*
X1217952D01*
X1217940Y145405D01*
X1217927D01*
X1217913Y145407D01*
X1217876Y145414D01*
X1217836Y145428D01*
X1217792Y145444D01*
X1217748Y145469D01*
X1217728Y145483D01*
X1217707Y145502D01*
X1217704Y145504D01*
X1217697Y145511D01*
X1217688Y145523D01*
X1217674Y145537D01*
X1217658Y145557D01*
X1217642Y145581D01*
X1217621Y145608D01*
X1217603Y145641D01*
X1217584Y145675D01*
X1217566Y145712D01*
X1217547Y145756D01*
X1217531Y145800D01*
X1217517Y145849D01*
X1217508Y145900D01*
X1217501Y145955D01*
X1217498Y146013D01*
Y146016D01*
Y146022D01*
Y146034D01*
X1217501Y146048D01*
Y146066D01*
X1217503Y146087D01*
X1217505Y146110D01*
X1217508Y146136D01*
X1217517Y146196D01*
X1217531Y146258D01*
X1217552Y146328D01*
X1217577Y146395D01*
Y146397D01*
X1217582Y146404D01*
X1217586Y146414D01*
X1217593Y146425D01*
X1217600Y146441D01*
X1217609Y146460D01*
X1217637Y146504D01*
X1217670Y146552D01*
X1217709Y146606D01*
X1217753Y146661D01*
X1217806Y146714D01*
X1217808Y146717D01*
X1217813Y146721D01*
X1217820Y146728D01*
X1217832Y146737D01*
X1217846Y146749D01*
X1217862Y146761D01*
X1217899Y146791D01*
X1217943Y146823D01*
X1217991Y146853D01*
X1218042Y146881D01*
X1218093Y146904D01*
X1218095D01*
X1218100Y146906D01*
X1218107Y146909D01*
X1218116Y146911D01*
X1218142Y146920D01*
X1218176Y146930D01*
X1218216Y146936D01*
X1218257Y146946D01*
X1218304Y146950D01*
X1218348Y146953D01*
X1218412D01*
Y146909D01*
D02*
G37*
G36*
Y942798D02*
X1218406D01*
X1218399Y942795D01*
X1218389D01*
X1218362Y942791D01*
X1218329Y942784D01*
X1218290Y942777D01*
X1218250Y942765D01*
X1218211Y942754D01*
X1218174Y942737D01*
X1218169Y942735D01*
X1218158Y942730D01*
X1218139Y942719D01*
X1218116Y942705D01*
X1218089Y942687D01*
X1218058Y942663D01*
X1218026Y942638D01*
X1217991Y942606D01*
X1217987Y942601D01*
X1217977Y942589D01*
X1217961Y942573D01*
X1217940Y942548D01*
X1217917Y942520D01*
X1217892Y942485D01*
X1217866Y942448D01*
X1217843Y942409D01*
Y942407D01*
X1217841Y942404D01*
X1217839Y942397D01*
X1217834Y942390D01*
X1217822Y942367D01*
X1217808Y942335D01*
X1217795Y942298D01*
X1217778Y942254D01*
X1217762Y942205D01*
X1217746Y942150D01*
X1217748Y942152D01*
X1217753Y942154D01*
X1217762Y942159D01*
X1217774Y942166D01*
X1217788Y942175D01*
X1217804Y942184D01*
X1217822Y942194D01*
X1217846Y942205D01*
X1217892Y942224D01*
X1217947Y942242D01*
X1218003Y942254D01*
X1218033Y942258D01*
X1218077D01*
X1218089Y942256D01*
X1218102Y942254D01*
X1218116Y942252D01*
X1218153Y942242D01*
X1218195Y942228D01*
X1218239Y942205D01*
X1218262Y942191D01*
X1218285Y942175D01*
X1218308Y942157D01*
X1218329Y942133D01*
X1218331Y942131D01*
X1218334Y942129D01*
X1218341Y942122D01*
X1218348Y942110D01*
X1218355Y942099D01*
X1218366Y942085D01*
X1218375Y942069D01*
X1218387Y942048D01*
X1218408Y942004D01*
X1218424Y941948D01*
X1218438Y941888D01*
X1218440Y941854D01*
X1218443Y941819D01*
Y941816D01*
Y941810D01*
Y941800D01*
X1218440Y941786D01*
Y941770D01*
X1218436Y941752D01*
X1218433Y941729D01*
X1218429Y941705D01*
X1218415Y941652D01*
X1218394Y941594D01*
X1218380Y941567D01*
X1218366Y941536D01*
X1218348Y941506D01*
X1218327Y941476D01*
X1218324Y941474D01*
X1218320Y941469D01*
X1218313Y941460D01*
X1218301Y941449D01*
X1218287Y941432D01*
X1218271Y941418D01*
X1218253Y941400D01*
X1218230Y941384D01*
X1218207Y941368D01*
X1218179Y941349D01*
X1218149Y941335D01*
X1218116Y941321D01*
X1218082Y941307D01*
X1218047Y941298D01*
X1218007Y941294D01*
X1217966Y941291D01*
X1217952D01*
X1217940Y941294D01*
X1217927D01*
X1217913Y941296D01*
X1217876Y941303D01*
X1217836Y941317D01*
X1217792Y941333D01*
X1217748Y941358D01*
X1217728Y941372D01*
X1217707Y941391D01*
X1217704Y941393D01*
X1217697Y941400D01*
X1217688Y941412D01*
X1217674Y941425D01*
X1217658Y941446D01*
X1217642Y941469D01*
X1217621Y941497D01*
X1217603Y941530D01*
X1217584Y941564D01*
X1217566Y941601D01*
X1217547Y941645D01*
X1217531Y941689D01*
X1217517Y941738D01*
X1217508Y941789D01*
X1217501Y941844D01*
X1217498Y941902D01*
Y941904D01*
Y941911D01*
Y941923D01*
X1217501Y941937D01*
Y941955D01*
X1217503Y941976D01*
X1217505Y941999D01*
X1217508Y942025D01*
X1217517Y942085D01*
X1217531Y942147D01*
X1217552Y942217D01*
X1217577Y942284D01*
Y942286D01*
X1217582Y942293D01*
X1217586Y942302D01*
X1217593Y942314D01*
X1217600Y942330D01*
X1217609Y942349D01*
X1217637Y942393D01*
X1217670Y942441D01*
X1217709Y942494D01*
X1217753Y942550D01*
X1217806Y942603D01*
X1217808Y942606D01*
X1217813Y942610D01*
X1217820Y942617D01*
X1217832Y942626D01*
X1217846Y942638D01*
X1217862Y942649D01*
X1217899Y942680D01*
X1217943Y942712D01*
X1217991Y942742D01*
X1218042Y942770D01*
X1218093Y942793D01*
X1218095D01*
X1218100Y942795D01*
X1218107Y942798D01*
X1218116Y942800D01*
X1218142Y942809D01*
X1218176Y942818D01*
X1218216Y942825D01*
X1218257Y942835D01*
X1218304Y942839D01*
X1218348Y942842D01*
X1218412D01*
Y942798D01*
D02*
G37*
G36*
X1320222Y244554D02*
X1320255Y244551D01*
X1320289Y244549D01*
X1320327Y244547D01*
X1320410Y244537D01*
X1320493Y244524D01*
X1320574Y244505D01*
X1320611Y244493D01*
X1320646Y244480D01*
X1320648D01*
X1320653Y244475D01*
X1320662Y244470D01*
X1320676Y244466D01*
X1320690Y244456D01*
X1320708Y244447D01*
X1320748Y244419D01*
X1320792Y244385D01*
X1320840Y244341D01*
X1320886Y244288D01*
X1320907Y244257D01*
X1320928Y244225D01*
X1320930Y244223D01*
X1320933Y244218D01*
X1320937Y244207D01*
X1320944Y244193D01*
X1320954Y244176D01*
X1320963Y244156D01*
X1320972Y244132D01*
X1320981Y244107D01*
X1320991Y244079D01*
X1321000Y244047D01*
X1321009Y244012D01*
X1321018Y243977D01*
X1321030Y243899D01*
X1321035Y243857D01*
Y243815D01*
Y243811D01*
Y243802D01*
X1321032Y243785D01*
Y243765D01*
X1321030Y243737D01*
X1321025Y243707D01*
X1321018Y243672D01*
X1321011Y243633D01*
X1321000Y243593D01*
X1320988Y243552D01*
X1320972Y243508D01*
X1320954Y243464D01*
X1320933Y243420D01*
X1320907Y243378D01*
X1320877Y243334D01*
X1320845Y243295D01*
X1320843Y243293D01*
X1320836Y243286D01*
X1320822Y243274D01*
X1320805Y243258D01*
X1320782Y243242D01*
X1320755Y243221D01*
X1320722Y243200D01*
X1320685Y243179D01*
X1320641Y243156D01*
X1320593Y243135D01*
X1320539Y243114D01*
X1320482Y243098D01*
X1320419Y243082D01*
X1320350Y243070D01*
X1320276Y243063D01*
X1320197Y243061D01*
X1319533D01*
Y243103D01*
X1319604D01*
X1319621Y243105D01*
X1319639Y243110D01*
X1319662Y243117D01*
X1319683Y243128D01*
X1319704Y243142D01*
X1319720Y243163D01*
X1319723Y243165D01*
X1319725Y243170D01*
X1319729Y243181D01*
X1319734Y243195D01*
X1319739Y243218D01*
X1319741Y243246D01*
X1319746Y243281D01*
Y243325D01*
Y244292D01*
Y244294D01*
Y244299D01*
Y244306D01*
Y244315D01*
X1319743Y244338D01*
X1319741Y244366D01*
X1319739Y244396D01*
X1319732Y244424D01*
X1319725Y244449D01*
X1319718Y244459D01*
X1319713Y244466D01*
X1319711Y244468D01*
X1319706Y244473D01*
X1319695Y244482D01*
X1319683Y244491D01*
X1319665Y244498D01*
X1319644Y244507D01*
X1319618Y244512D01*
X1319588Y244514D01*
X1319533D01*
Y244556D01*
X1320195D01*
X1320222Y244554D01*
D02*
G37*
G36*
X75828Y444345D02*
X75793D01*
Y444347D01*
X75791Y444354D01*
X75786Y444366D01*
X75779Y444382D01*
X75772Y444401D01*
X75765Y444421D01*
X75742Y444470D01*
X75714Y444525D01*
X75682Y444579D01*
X75640Y444630D01*
X75619Y444650D01*
X75596Y444671D01*
X75594Y444674D01*
X75592Y444676D01*
X75585Y444681D01*
X75573Y444687D01*
X75562Y444694D01*
X75548Y444704D01*
X75513Y444722D01*
X75469Y444741D01*
X75416Y444757D01*
X75358Y444768D01*
X75328Y444773D01*
X75270D01*
X75258Y444771D01*
X75242Y444768D01*
X75208Y444764D01*
X75166Y444755D01*
X75120Y444741D01*
X75073Y444722D01*
X75027Y444697D01*
X75025D01*
X75022Y444692D01*
X75009Y444683D01*
X74985Y444664D01*
X74960Y444639D01*
X74930Y444604D01*
X74897Y444562D01*
X74867Y444512D01*
X74840Y444454D01*
Y444451D01*
X74837Y444447D01*
X74833Y444438D01*
X74830Y444424D01*
X74823Y444407D01*
X74819Y444389D01*
X74812Y444366D01*
X74807Y444340D01*
X74800Y444313D01*
X74793Y444283D01*
X74789Y444248D01*
X74784Y444211D01*
X74779Y444174D01*
X74775Y444132D01*
X74773Y444044D01*
Y444042D01*
Y444035D01*
Y444023D01*
Y444009D01*
X74775Y443993D01*
Y443972D01*
X74777Y443949D01*
X74779Y443924D01*
X74789Y443868D01*
X74798Y443808D01*
X74814Y443748D01*
X74835Y443690D01*
Y443688D01*
X74837Y443683D01*
X74842Y443676D01*
X74847Y443667D01*
X74863Y443639D01*
X74884Y443607D01*
X74911Y443570D01*
X74944Y443533D01*
X74983Y443496D01*
X75029Y443463D01*
X75032D01*
X75036Y443461D01*
X75043Y443456D01*
X75053Y443452D01*
X75064Y443445D01*
X75080Y443438D01*
X75117Y443424D01*
X75161Y443410D01*
X75212Y443396D01*
X75268Y443387D01*
X75328Y443385D01*
X75353D01*
X75365Y443387D01*
X75379D01*
X75413Y443392D01*
X75455Y443399D01*
X75497Y443410D01*
X75541Y443424D01*
X75582Y443445D01*
X75585D01*
X75587Y443447D01*
X75594Y443452D01*
X75601Y443459D01*
X75624Y443475D01*
X75654Y443500D01*
X75673Y443514D01*
X75691Y443533D01*
X75712Y443554D01*
X75733Y443577D01*
X75756Y443602D01*
X75779Y443630D01*
X75802Y443660D01*
X75828Y443695D01*
X75862Y443672D01*
X75860Y443669D01*
X75858Y443662D01*
X75851Y443653D01*
X75842Y443639D01*
X75832Y443623D01*
X75818Y443602D01*
X75786Y443561D01*
X75749Y443512D01*
X75703Y443463D01*
X75654Y443417D01*
X75626Y443396D01*
X75599Y443378D01*
X75596D01*
X75592Y443373D01*
X75585Y443368D01*
X75573Y443364D01*
X75557Y443357D01*
X75541Y443350D01*
X75522Y443341D01*
X75499Y443334D01*
X75474Y443325D01*
X75448Y443315D01*
X75386Y443301D01*
X75319Y443292D01*
X75245Y443288D01*
X75228D01*
X75210Y443290D01*
X75184Y443292D01*
X75152Y443297D01*
X75117Y443301D01*
X75078Y443311D01*
X75034Y443322D01*
X74988Y443336D01*
X74941Y443355D01*
X74895Y443378D01*
X74847Y443403D01*
X74800Y443436D01*
X74754Y443473D01*
X74710Y443514D01*
X74671Y443563D01*
X74668Y443565D01*
X74664Y443572D01*
X74657Y443584D01*
X74648Y443600D01*
X74636Y443618D01*
X74622Y443642D01*
X74611Y443669D01*
X74597Y443699D01*
X74580Y443734D01*
X74569Y443769D01*
X74555Y443810D01*
X74543Y443852D01*
X74534Y443896D01*
X74527Y443945D01*
X74523Y443993D01*
X74520Y444044D01*
Y444046D01*
Y444053D01*
Y444067D01*
X74523Y444081D01*
Y444102D01*
X74525Y444125D01*
X74530Y444151D01*
X74532Y444181D01*
X74546Y444243D01*
X74562Y444313D01*
X74587Y444384D01*
X74601Y444421D01*
X74620Y444456D01*
X74622Y444458D01*
X74624Y444465D01*
X74629Y444475D01*
X74638Y444486D01*
X74648Y444502D01*
X74661Y444521D01*
X74692Y444562D01*
X74731Y444609D01*
X74777Y444657D01*
X74830Y444706D01*
X74893Y444748D01*
X74895Y444750D01*
X74900Y444752D01*
X74911Y444757D01*
X74923Y444764D01*
X74939Y444771D01*
X74960Y444780D01*
X74981Y444789D01*
X75006Y444801D01*
X75034Y444810D01*
X75064Y444819D01*
X75129Y444836D01*
X75198Y444847D01*
X75238Y444852D01*
X75291D01*
X75302Y444849D01*
X75316D01*
X75335Y444847D01*
X75374Y444842D01*
X75423Y444831D01*
X75476Y444817D01*
X75534Y444799D01*
X75592Y444771D01*
X75594D01*
X75599Y444766D01*
X75608Y444764D01*
X75617Y444759D01*
X75640Y444752D01*
X75650Y444748D01*
X75663D01*
X75677Y444750D01*
X75693Y444757D01*
X75710Y444768D01*
X75712Y444771D01*
X75714Y444773D01*
X75719Y444780D01*
X75726Y444789D01*
X75733Y444803D01*
X75740Y444817D01*
X75747Y444833D01*
X75751Y444852D01*
X75793D01*
X75828Y444345D01*
D02*
G37*
G36*
X1320840D02*
X1320805D01*
Y444347D01*
X1320803Y444354D01*
X1320799Y444366D01*
X1320792Y444382D01*
X1320785Y444401D01*
X1320778Y444421D01*
X1320755Y444470D01*
X1320727Y444525D01*
X1320694Y444579D01*
X1320653Y444630D01*
X1320632Y444650D01*
X1320609Y444671D01*
X1320606Y444674D01*
X1320604Y444676D01*
X1320597Y444681D01*
X1320586Y444687D01*
X1320574Y444694D01*
X1320560Y444704D01*
X1320526Y444722D01*
X1320482Y444741D01*
X1320428Y444757D01*
X1320370Y444768D01*
X1320340Y444773D01*
X1320282D01*
X1320271Y444771D01*
X1320255Y444768D01*
X1320220Y444764D01*
X1320178Y444755D01*
X1320132Y444741D01*
X1320086Y444722D01*
X1320040Y444697D01*
X1320037D01*
X1320035Y444692D01*
X1320021Y444683D01*
X1319998Y444664D01*
X1319972Y444639D01*
X1319942Y444604D01*
X1319910Y444562D01*
X1319880Y444512D01*
X1319852Y444454D01*
Y444451D01*
X1319850Y444447D01*
X1319845Y444438D01*
X1319843Y444424D01*
X1319836Y444407D01*
X1319831Y444389D01*
X1319824Y444366D01*
X1319820Y444340D01*
X1319813Y444313D01*
X1319806Y444283D01*
X1319801Y444248D01*
X1319797Y444211D01*
X1319792Y444174D01*
X1319787Y444132D01*
X1319785Y444044D01*
Y444042D01*
Y444035D01*
Y444023D01*
Y444009D01*
X1319787Y443993D01*
Y443972D01*
X1319790Y443949D01*
X1319792Y443924D01*
X1319801Y443868D01*
X1319810Y443808D01*
X1319827Y443748D01*
X1319848Y443690D01*
Y443688D01*
X1319850Y443683D01*
X1319854Y443676D01*
X1319859Y443667D01*
X1319875Y443639D01*
X1319896Y443607D01*
X1319924Y443570D01*
X1319956Y443533D01*
X1319996Y443496D01*
X1320042Y443463D01*
X1320044D01*
X1320049Y443461D01*
X1320056Y443456D01*
X1320065Y443452D01*
X1320077Y443445D01*
X1320093Y443438D01*
X1320130Y443424D01*
X1320174Y443410D01*
X1320225Y443396D01*
X1320280Y443387D01*
X1320340Y443385D01*
X1320366D01*
X1320377Y443387D01*
X1320391D01*
X1320426Y443392D01*
X1320468Y443399D01*
X1320509Y443410D01*
X1320553Y443424D01*
X1320595Y443445D01*
X1320597D01*
X1320599Y443447D01*
X1320606Y443452D01*
X1320613Y443459D01*
X1320637Y443475D01*
X1320667Y443500D01*
X1320685Y443514D01*
X1320704Y443533D01*
X1320724Y443554D01*
X1320745Y443577D01*
X1320768Y443602D01*
X1320792Y443630D01*
X1320815Y443660D01*
X1320840Y443695D01*
X1320875Y443672D01*
X1320873Y443669D01*
X1320870Y443662D01*
X1320863Y443653D01*
X1320854Y443639D01*
X1320845Y443623D01*
X1320831Y443602D01*
X1320799Y443561D01*
X1320761Y443512D01*
X1320715Y443463D01*
X1320667Y443417D01*
X1320639Y443396D01*
X1320611Y443378D01*
X1320609D01*
X1320604Y443373D01*
X1320597Y443368D01*
X1320586Y443364D01*
X1320569Y443357D01*
X1320553Y443350D01*
X1320535Y443341D01*
X1320512Y443334D01*
X1320486Y443325D01*
X1320461Y443315D01*
X1320398Y443301D01*
X1320331Y443292D01*
X1320257Y443288D01*
X1320241D01*
X1320222Y443290D01*
X1320197Y443292D01*
X1320165Y443297D01*
X1320130Y443301D01*
X1320090Y443311D01*
X1320047Y443322D01*
X1320000Y443336D01*
X1319954Y443355D01*
X1319908Y443378D01*
X1319859Y443403D01*
X1319813Y443436D01*
X1319766Y443473D01*
X1319723Y443514D01*
X1319683Y443563D01*
X1319681Y443565D01*
X1319676Y443572D01*
X1319669Y443584D01*
X1319660Y443600D01*
X1319649Y443618D01*
X1319635Y443642D01*
X1319623Y443669D01*
X1319609Y443699D01*
X1319593Y443734D01*
X1319581Y443769D01*
X1319568Y443810D01*
X1319556Y443852D01*
X1319547Y443896D01*
X1319540Y443945D01*
X1319535Y443993D01*
X1319533Y444044D01*
Y444046D01*
Y444053D01*
Y444067D01*
X1319535Y444081D01*
Y444102D01*
X1319537Y444125D01*
X1319542Y444151D01*
X1319544Y444181D01*
X1319558Y444243D01*
X1319574Y444313D01*
X1319600Y444384D01*
X1319614Y444421D01*
X1319632Y444456D01*
X1319635Y444458D01*
X1319637Y444465D01*
X1319642Y444475D01*
X1319651Y444486D01*
X1319660Y444502D01*
X1319674Y444521D01*
X1319704Y444562D01*
X1319743Y444609D01*
X1319790Y444657D01*
X1319843Y444706D01*
X1319905Y444748D01*
X1319908Y444750D01*
X1319912Y444752D01*
X1319924Y444757D01*
X1319935Y444764D01*
X1319952Y444771D01*
X1319972Y444780D01*
X1319993Y444789D01*
X1320019Y444801D01*
X1320047Y444810D01*
X1320077Y444819D01*
X1320141Y444836D01*
X1320211Y444847D01*
X1320250Y444852D01*
X1320303D01*
X1320315Y444849D01*
X1320329D01*
X1320347Y444847D01*
X1320387Y444842D01*
X1320435Y444831D01*
X1320489Y444817D01*
X1320546Y444799D01*
X1320604Y444771D01*
X1320606D01*
X1320611Y444766D01*
X1320620Y444764D01*
X1320630Y444759D01*
X1320653Y444752D01*
X1320662Y444748D01*
X1320676D01*
X1320690Y444750D01*
X1320706Y444757D01*
X1320722Y444768D01*
X1320724Y444771D01*
X1320727Y444773D01*
X1320731Y444780D01*
X1320738Y444789D01*
X1320745Y444803D01*
X1320752Y444817D01*
X1320759Y444833D01*
X1320764Y444852D01*
X1320805D01*
X1320840Y444345D01*
D02*
G37*
G36*
X75226Y645076D02*
X75268D01*
X75314Y645071D01*
X75363Y645067D01*
X75409Y645060D01*
X75453Y645050D01*
X75455D01*
X75460Y645048D01*
X75469Y645046D01*
X75481Y645043D01*
X75494Y645039D01*
X75511Y645032D01*
X75545Y645018D01*
X75587Y644999D01*
X75629Y644974D01*
X75668Y644944D01*
X75705Y644909D01*
X75710Y644905D01*
X75719Y644891D01*
X75733Y644870D01*
X75749Y644842D01*
X75765Y644810D01*
X75779Y644770D01*
X75788Y644726D01*
X75793Y644678D01*
Y644676D01*
Y644673D01*
Y644659D01*
X75788Y644638D01*
X75784Y644611D01*
X75777Y644581D01*
X75763Y644546D01*
X75747Y644511D01*
X75724Y644477D01*
X75721Y644472D01*
X75710Y644463D01*
X75696Y644446D01*
X75673Y644428D01*
X75645Y644407D01*
X75610Y644384D01*
X75569Y644365D01*
X75522Y644347D01*
X75525D01*
X75529Y644345D01*
X75536Y644342D01*
X75548Y644340D01*
X75575Y644333D01*
X75610Y644321D01*
X75647Y644305D01*
X75684Y644287D01*
X75721Y644266D01*
X75754Y644240D01*
X75756D01*
X75758Y644236D01*
X75770Y644222D01*
X75788Y644201D01*
X75809Y644171D01*
X75828Y644136D01*
X75846Y644092D01*
X75858Y644046D01*
X75862Y644021D01*
Y643993D01*
Y643991D01*
Y643988D01*
Y643974D01*
X75858Y643951D01*
X75853Y643923D01*
X75844Y643891D01*
X75832Y643854D01*
X75814Y643817D01*
X75791Y643778D01*
X75788Y643773D01*
X75779Y643762D01*
X75763Y643743D01*
X75740Y643722D01*
X75714Y643697D01*
X75680Y643671D01*
X75643Y643650D01*
X75599Y643630D01*
X75596D01*
X75594Y643627D01*
X75585Y643625D01*
X75575Y643623D01*
X75562Y643618D01*
X75548Y643616D01*
X75527Y643611D01*
X75506Y643606D01*
X75481Y643602D01*
X75453Y643597D01*
X75423Y643595D01*
X75388Y643590D01*
X75351Y643588D01*
X75312Y643586D01*
X75270Y643583D01*
X74520D01*
Y643625D01*
X74590D01*
X74606Y643627D01*
X74624Y643632D01*
X74648Y643639D01*
X74668Y643650D01*
X74689Y643664D01*
X74708Y643683D01*
X74710Y643685D01*
X74712Y643692D01*
X74717Y643701D01*
X74722Y643718D01*
X74726Y643741D01*
X74729Y643768D01*
X74733Y643803D01*
Y643847D01*
Y644814D01*
Y644817D01*
Y644821D01*
Y644828D01*
Y644837D01*
X74731Y644861D01*
X74729Y644888D01*
X74726Y644916D01*
X74719Y644946D01*
X74712Y644969D01*
X74705Y644981D01*
X74701Y644988D01*
X74698Y644990D01*
X74694Y644995D01*
X74682Y645004D01*
X74668Y645013D01*
X74652Y645020D01*
X74629Y645030D01*
X74604Y645034D01*
X74574Y645036D01*
X74520D01*
Y645078D01*
X75210D01*
X75226Y645076D01*
D02*
G37*
G36*
X1320239D02*
X1320280D01*
X1320327Y645071D01*
X1320375Y645067D01*
X1320421Y645060D01*
X1320465Y645050D01*
X1320468D01*
X1320472Y645048D01*
X1320482Y645046D01*
X1320493Y645043D01*
X1320507Y645039D01*
X1320523Y645032D01*
X1320558Y645018D01*
X1320599Y644999D01*
X1320641Y644974D01*
X1320681Y644944D01*
X1320718Y644909D01*
X1320722Y644905D01*
X1320731Y644891D01*
X1320745Y644870D01*
X1320761Y644842D01*
X1320778Y644810D01*
X1320792Y644770D01*
X1320801Y644726D01*
X1320805Y644678D01*
Y644676D01*
Y644673D01*
Y644659D01*
X1320801Y644638D01*
X1320796Y644611D01*
X1320789Y644581D01*
X1320775Y644546D01*
X1320759Y644511D01*
X1320736Y644477D01*
X1320734Y644472D01*
X1320722Y644463D01*
X1320708Y644446D01*
X1320685Y644428D01*
X1320657Y644407D01*
X1320623Y644384D01*
X1320581Y644365D01*
X1320535Y644347D01*
X1320537D01*
X1320542Y644345D01*
X1320549Y644342D01*
X1320560Y644340D01*
X1320588Y644333D01*
X1320623Y644321D01*
X1320660Y644305D01*
X1320697Y644287D01*
X1320734Y644266D01*
X1320766Y644240D01*
X1320768D01*
X1320771Y644236D01*
X1320782Y644222D01*
X1320801Y644201D01*
X1320822Y644171D01*
X1320840Y644136D01*
X1320859Y644092D01*
X1320870Y644046D01*
X1320875Y644021D01*
Y643993D01*
Y643991D01*
Y643988D01*
Y643974D01*
X1320870Y643951D01*
X1320866Y643923D01*
X1320856Y643891D01*
X1320845Y643854D01*
X1320826Y643817D01*
X1320803Y643778D01*
X1320801Y643773D01*
X1320792Y643762D01*
X1320775Y643743D01*
X1320752Y643722D01*
X1320727Y643697D01*
X1320692Y643671D01*
X1320655Y643650D01*
X1320611Y643630D01*
X1320609D01*
X1320606Y643627D01*
X1320597Y643625D01*
X1320588Y643623D01*
X1320574Y643618D01*
X1320560Y643616D01*
X1320539Y643611D01*
X1320519Y643606D01*
X1320493Y643602D01*
X1320465Y643597D01*
X1320435Y643595D01*
X1320401Y643590D01*
X1320364Y643588D01*
X1320324Y643586D01*
X1320282Y643583D01*
X1319533D01*
Y643625D01*
X1319602D01*
X1319618Y643627D01*
X1319637Y643632D01*
X1319660Y643639D01*
X1319681Y643650D01*
X1319702Y643664D01*
X1319720Y643683D01*
X1319723Y643685D01*
X1319725Y643692D01*
X1319729Y643701D01*
X1319734Y643718D01*
X1319739Y643741D01*
X1319741Y643768D01*
X1319746Y643803D01*
Y643847D01*
Y644814D01*
Y644817D01*
Y644821D01*
Y644828D01*
Y644837D01*
X1319743Y644861D01*
X1319741Y644888D01*
X1319739Y644916D01*
X1319732Y644946D01*
X1319725Y644969D01*
X1319718Y644981D01*
X1319713Y644988D01*
X1319711Y644990D01*
X1319706Y644995D01*
X1319695Y645004D01*
X1319681Y645013D01*
X1319665Y645020D01*
X1319642Y645030D01*
X1319616Y645034D01*
X1319586Y645036D01*
X1319533D01*
Y645078D01*
X1320222D01*
X1320239Y645076D01*
D02*
G37*
G36*
X75688Y843968D02*
Y843966D01*
X75690Y843961D01*
X75695Y843954D01*
X75699Y843945D01*
X75711Y843917D01*
X75725Y843887D01*
X75743Y843855D01*
X75762Y843822D01*
X75782Y843794D01*
X75792Y843783D01*
X75801Y843774D01*
X75803Y843771D01*
X75810Y843767D01*
X75822Y843760D01*
X75838Y843750D01*
X75859Y843744D01*
X75882Y843734D01*
X75910Y843730D01*
X75942Y843725D01*
Y843683D01*
X75354D01*
Y843725D01*
X75368D01*
X75384Y843727D01*
X75403Y843730D01*
X75442Y843739D01*
X75459Y843744D01*
X75472Y843753D01*
X75475Y843755D01*
X75477Y843757D01*
X75489Y843771D01*
X75500Y843790D01*
X75502Y843801D01*
X75505Y843815D01*
Y843818D01*
Y843824D01*
X75502Y843836D01*
X75500Y843852D01*
X75493Y843873D01*
X75486Y843901D01*
X75475Y843931D01*
X75461Y843968D01*
X75373Y844183D01*
X74794D01*
X74695Y843947D01*
X74693Y843943D01*
X74688Y843933D01*
X74683Y843917D01*
X74676Y843899D01*
X74662Y843855D01*
X74658Y843836D01*
X74656Y843818D01*
Y843815D01*
Y843813D01*
X74660Y843797D01*
X74669Y843778D01*
X74676Y843767D01*
X74688Y843757D01*
X74690D01*
X74695Y843753D01*
X74704Y843748D01*
X74718Y843744D01*
X74737Y843739D01*
X74762Y843732D01*
X74792Y843727D01*
X74829Y843725D01*
Y843683D01*
X74357D01*
Y843725D01*
X74362D01*
X74373Y843727D01*
X74389Y843732D01*
X74408Y843737D01*
X74429Y843744D01*
X74447Y843750D01*
X74466Y843757D01*
X74477Y843767D01*
X74480Y843769D01*
X74487Y843778D01*
X74498Y843792D01*
X74514Y843813D01*
X74533Y843843D01*
X74554Y843880D01*
X74565Y843901D01*
X74577Y843926D01*
X74591Y843952D01*
X74602Y843982D01*
X75130Y845213D01*
X75167D01*
X75688Y843968D01*
D02*
G37*
G36*
X1320700D02*
Y843966D01*
X1320702Y843961D01*
X1320707Y843954D01*
X1320712Y843945D01*
X1320723Y843917D01*
X1320737Y843887D01*
X1320756Y843855D01*
X1320774Y843822D01*
X1320795Y843794D01*
X1320804Y843783D01*
X1320813Y843774D01*
X1320816Y843771D01*
X1320823Y843767D01*
X1320834Y843760D01*
X1320850Y843750D01*
X1320871Y843744D01*
X1320894Y843734D01*
X1320922Y843730D01*
X1320955Y843725D01*
Y843683D01*
X1320367D01*
Y843725D01*
X1320381D01*
X1320397Y843727D01*
X1320415Y843730D01*
X1320455Y843739D01*
X1320471Y843744D01*
X1320485Y843753D01*
X1320487Y843755D01*
X1320490Y843757D01*
X1320501Y843771D01*
X1320513Y843790D01*
X1320515Y843801D01*
X1320517Y843815D01*
Y843818D01*
Y843824D01*
X1320515Y843836D01*
X1320513Y843852D01*
X1320506Y843873D01*
X1320499Y843901D01*
X1320487Y843931D01*
X1320473Y843968D01*
X1320385Y844183D01*
X1319807D01*
X1319707Y843947D01*
X1319705Y843943D01*
X1319700Y843933D01*
X1319696Y843917D01*
X1319689Y843899D01*
X1319675Y843855D01*
X1319670Y843836D01*
X1319668Y843818D01*
Y843815D01*
Y843813D01*
X1319673Y843797D01*
X1319682Y843778D01*
X1319689Y843767D01*
X1319700Y843757D01*
X1319703D01*
X1319707Y843753D01*
X1319717Y843748D01*
X1319731Y843744D01*
X1319749Y843739D01*
X1319775Y843732D01*
X1319805Y843727D01*
X1319842Y843725D01*
Y843683D01*
X1319370D01*
Y843725D01*
X1319374D01*
X1319386Y843727D01*
X1319402Y843732D01*
X1319420Y843737D01*
X1319441Y843744D01*
X1319460Y843750D01*
X1319478Y843757D01*
X1319490Y843767D01*
X1319492Y843769D01*
X1319499Y843778D01*
X1319511Y843792D01*
X1319527Y843813D01*
X1319545Y843843D01*
X1319566Y843880D01*
X1319578Y843901D01*
X1319589Y843926D01*
X1319603Y843952D01*
X1319615Y843982D01*
X1320142Y845213D01*
X1320179D01*
X1320700Y843968D01*
D02*
G37*
G36*
X1178123Y519296D02*
X1178082D01*
Y519299D01*
X1178079Y519303D01*
X1178075Y519313D01*
X1178070Y519324D01*
X1178065Y519340D01*
X1178059Y519357D01*
X1178040Y519394D01*
X1178019Y519438D01*
X1177994Y519482D01*
X1177964Y519523D01*
X1177931Y519560D01*
X1177929Y519562D01*
X1177924Y519565D01*
X1177917Y519572D01*
X1177908Y519581D01*
X1177894Y519590D01*
X1177878Y519602D01*
X1177859Y519613D01*
X1177839Y519625D01*
X1177816Y519637D01*
X1177788Y519648D01*
X1177730Y519669D01*
X1177663Y519685D01*
X1177628Y519687D01*
X1177589Y519690D01*
X1177577D01*
X1177561Y519687D01*
X1177542D01*
X1177519Y519683D01*
X1177492Y519678D01*
X1177462Y519671D01*
X1177429Y519662D01*
X1177394Y519650D01*
X1177357Y519634D01*
X1177323Y519616D01*
X1177286Y519595D01*
X1177251Y519567D01*
X1177216Y519537D01*
X1177186Y519502D01*
X1177156Y519463D01*
X1177154Y519461D01*
X1177151Y519454D01*
X1177145Y519444D01*
X1177138Y519428D01*
X1177128Y519410D01*
X1177117Y519389D01*
X1177105Y519363D01*
X1177096Y519333D01*
X1177084Y519303D01*
X1177073Y519266D01*
X1177061Y519229D01*
X1177052Y519190D01*
X1177045Y519148D01*
X1177038Y519102D01*
X1177036Y519056D01*
X1177033Y519007D01*
Y519005D01*
Y518998D01*
Y518986D01*
X1177036Y518970D01*
Y518952D01*
X1177038Y518931D01*
X1177040Y518905D01*
X1177043Y518880D01*
X1177054Y518820D01*
X1177068Y518753D01*
X1177087Y518685D01*
X1177115Y518618D01*
Y518616D01*
X1177119Y518611D01*
X1177124Y518602D01*
X1177131Y518591D01*
X1177138Y518574D01*
X1177147Y518558D01*
X1177172Y518521D01*
X1177205Y518477D01*
X1177239Y518436D01*
X1177283Y518394D01*
X1177330Y518359D01*
X1177332D01*
X1177337Y518357D01*
X1177344Y518352D01*
X1177353Y518348D01*
X1177364Y518341D01*
X1177381Y518334D01*
X1177415Y518320D01*
X1177457Y518304D01*
X1177503Y518292D01*
X1177552Y518283D01*
X1177605Y518278D01*
X1177619D01*
X1177635Y518281D01*
X1177656D01*
X1177681Y518283D01*
X1177707Y518287D01*
X1177765Y518299D01*
X1177769D01*
X1177779Y518304D01*
X1177792Y518308D01*
X1177813Y518315D01*
X1177836Y518322D01*
X1177862Y518334D01*
X1177915Y518359D01*
Y518797D01*
Y518799D01*
Y518801D01*
Y518815D01*
Y518834D01*
X1177913Y518857D01*
X1177910Y518882D01*
X1177908Y518905D01*
X1177904Y518926D01*
X1177897Y518942D01*
Y518945D01*
X1177894Y518949D01*
X1177885Y518963D01*
X1177866Y518979D01*
X1177843Y518996D01*
X1177841D01*
X1177836Y518998D01*
X1177827Y519003D01*
X1177816Y519005D01*
X1177797Y519009D01*
X1177776Y519012D01*
X1177751Y519014D01*
X1177718D01*
Y519056D01*
X1178297D01*
Y519014D01*
X1178255D01*
X1178241Y519012D01*
X1178223Y519007D01*
X1178202Y519000D01*
X1178183Y518989D01*
X1178165Y518975D01*
X1178151Y518956D01*
Y518954D01*
X1178149Y518947D01*
X1178144Y518938D01*
X1178142Y518922D01*
X1178137Y518898D01*
X1178133Y518871D01*
X1178130Y518838D01*
Y518797D01*
Y518336D01*
X1178128D01*
X1178126Y518334D01*
X1178119Y518329D01*
X1178109Y518325D01*
X1178084Y518313D01*
X1178052Y518297D01*
X1178012Y518281D01*
X1177971Y518264D01*
X1177924Y518250D01*
X1177878Y518237D01*
X1177876D01*
X1177873Y518234D01*
X1177866D01*
X1177857Y518232D01*
X1177846Y518230D01*
X1177832Y518227D01*
X1177797Y518220D01*
X1177758Y518213D01*
X1177711Y518209D01*
X1177661Y518206D01*
X1177605Y518204D01*
X1177587D01*
X1177563Y518206D01*
X1177533Y518209D01*
X1177499Y518213D01*
X1177457Y518218D01*
X1177411Y518227D01*
X1177360Y518239D01*
X1177309Y518253D01*
X1177256Y518271D01*
X1177200Y518294D01*
X1177145Y518322D01*
X1177091Y518352D01*
X1177040Y518389D01*
X1176992Y518433D01*
X1176948Y518482D01*
X1176946Y518484D01*
X1176941Y518491D01*
X1176932Y518503D01*
X1176922Y518519D01*
X1176909Y518537D01*
X1176895Y518563D01*
X1176881Y518588D01*
X1176865Y518621D01*
X1176848Y518653D01*
X1176834Y518690D01*
X1176821Y518729D01*
X1176807Y518771D01*
X1176797Y518815D01*
X1176788Y518864D01*
X1176784Y518910D01*
X1176781Y518961D01*
Y518963D01*
Y518970D01*
Y518979D01*
X1176784Y518996D01*
Y519012D01*
X1176786Y519033D01*
X1176788Y519058D01*
X1176793Y519083D01*
X1176804Y519141D01*
X1176821Y519206D01*
X1176844Y519273D01*
X1176874Y519340D01*
X1176876Y519343D01*
X1176878Y519350D01*
X1176885Y519361D01*
X1176895Y519375D01*
X1176906Y519394D01*
X1176920Y519414D01*
X1176936Y519438D01*
X1176955Y519463D01*
X1176999Y519516D01*
X1177052Y519572D01*
X1177112Y519625D01*
X1177147Y519648D01*
X1177182Y519671D01*
X1177184Y519674D01*
X1177188Y519676D01*
X1177198Y519680D01*
X1177212Y519687D01*
X1177225Y519694D01*
X1177246Y519701D01*
X1177267Y519711D01*
X1177293Y519720D01*
X1177318Y519729D01*
X1177348Y519738D01*
X1177413Y519752D01*
X1177487Y519764D01*
X1177568Y519768D01*
X1177598D01*
X1177619Y519766D01*
X1177640D01*
X1177665Y519764D01*
X1177716Y519755D01*
X1177718D01*
X1177728Y519752D01*
X1177744Y519748D01*
X1177765Y519743D01*
X1177792Y519734D01*
X1177825Y519724D01*
X1177862Y519713D01*
X1177906Y519697D01*
X1177908D01*
X1177915Y519692D01*
X1177927Y519690D01*
X1177938Y519685D01*
X1177966Y519678D01*
X1177978Y519674D01*
X1177991D01*
X1177998Y519676D01*
X1178010Y519680D01*
X1178021Y519692D01*
X1178024Y519697D01*
X1178026Y519701D01*
X1178031Y519708D01*
X1178033Y519720D01*
X1178038Y519731D01*
X1178040Y519748D01*
X1178042Y519768D01*
X1178084D01*
X1178123Y519296D01*
D02*
G37*
G36*
X1180693Y519731D02*
X1180725Y519729D01*
X1180760Y519727D01*
X1180797Y519724D01*
X1180880Y519715D01*
X1180964Y519701D01*
X1181045Y519683D01*
X1181082Y519671D01*
X1181116Y519657D01*
X1181119D01*
X1181123Y519653D01*
X1181133Y519648D01*
X1181147Y519643D01*
X1181160Y519634D01*
X1181179Y519625D01*
X1181218Y519597D01*
X1181262Y519562D01*
X1181311Y519518D01*
X1181357Y519465D01*
X1181378Y519435D01*
X1181399Y519403D01*
X1181401Y519401D01*
X1181403Y519396D01*
X1181408Y519384D01*
X1181415Y519370D01*
X1181424Y519354D01*
X1181433Y519333D01*
X1181443Y519310D01*
X1181452Y519285D01*
X1181461Y519257D01*
X1181470Y519225D01*
X1181480Y519190D01*
X1181489Y519155D01*
X1181501Y519077D01*
X1181505Y519035D01*
Y518993D01*
Y518989D01*
Y518979D01*
X1181503Y518963D01*
Y518942D01*
X1181501Y518915D01*
X1181496Y518884D01*
X1181489Y518850D01*
X1181482Y518810D01*
X1181470Y518771D01*
X1181459Y518729D01*
X1181443Y518685D01*
X1181424Y518642D01*
X1181403Y518598D01*
X1181378Y518556D01*
X1181348Y518512D01*
X1181315Y518473D01*
X1181313Y518470D01*
X1181306Y518463D01*
X1181292Y518452D01*
X1181276Y518436D01*
X1181253Y518419D01*
X1181225Y518399D01*
X1181193Y518378D01*
X1181156Y518357D01*
X1181112Y518334D01*
X1181063Y518313D01*
X1181010Y518292D01*
X1180952Y518276D01*
X1180890Y518260D01*
X1180820Y518248D01*
X1180746Y518241D01*
X1180668Y518239D01*
X1180003D01*
Y518281D01*
X1180075D01*
X1180091Y518283D01*
X1180110Y518287D01*
X1180133Y518294D01*
X1180154Y518306D01*
X1180175Y518320D01*
X1180191Y518341D01*
X1180193Y518343D01*
X1180196Y518348D01*
X1180200Y518359D01*
X1180205Y518373D01*
X1180209Y518396D01*
X1180212Y518424D01*
X1180216Y518459D01*
Y518503D01*
Y519470D01*
Y519472D01*
Y519477D01*
Y519484D01*
Y519493D01*
X1180214Y519516D01*
X1180212Y519544D01*
X1180209Y519574D01*
X1180203Y519602D01*
X1180196Y519627D01*
X1180189Y519637D01*
X1180184Y519643D01*
X1180182Y519646D01*
X1180177Y519650D01*
X1180165Y519660D01*
X1180154Y519669D01*
X1180135Y519676D01*
X1180115Y519685D01*
X1180089Y519690D01*
X1180059Y519692D01*
X1179952D01*
X1179936Y519690D01*
X1179915Y519685D01*
X1179892Y519678D01*
X1179869Y519667D01*
X1179848Y519653D01*
X1179832Y519634D01*
Y519632D01*
X1179827Y519627D01*
X1179825Y519616D01*
X1179820Y519602D01*
X1179815Y519581D01*
X1179813Y519553D01*
X1179808Y519518D01*
Y519475D01*
Y518216D01*
X1179767D01*
X1178783Y519417D01*
Y518498D01*
Y518496D01*
Y518491D01*
Y518484D01*
Y518475D01*
X1178786Y518452D01*
X1178788Y518424D01*
X1178790Y518394D01*
X1178795Y518366D01*
X1178802Y518343D01*
X1178807Y518331D01*
X1178811Y518325D01*
X1178813Y518322D01*
X1178820Y518318D01*
X1178830Y518311D01*
X1178844Y518304D01*
X1178862Y518294D01*
X1178885Y518287D01*
X1178913Y518283D01*
X1178943Y518281D01*
X1178996D01*
Y518239D01*
X1178473D01*
Y518281D01*
X1178540D01*
X1178557Y518283D01*
X1178578Y518287D01*
X1178601Y518294D01*
X1178624Y518304D01*
X1178645Y518318D01*
X1178661Y518336D01*
X1178663Y518338D01*
X1178665Y518343D01*
X1178670Y518355D01*
X1178675Y518368D01*
X1178679Y518392D01*
X1178682Y518419D01*
X1178686Y518454D01*
Y518498D01*
Y519537D01*
X1178684Y519539D01*
X1178675Y519549D01*
X1178663Y519562D01*
X1178649Y519576D01*
X1178615Y519609D01*
X1178598Y519623D01*
X1178584Y519634D01*
X1178582Y519637D01*
X1178578Y519639D01*
X1178571Y519643D01*
X1178561Y519650D01*
X1178547Y519657D01*
X1178529Y519664D01*
X1178510Y519674D01*
X1178487Y519680D01*
X1178485D01*
X1178480Y519683D01*
X1178473Y519685D01*
X1178464Y519687D01*
X1178450D01*
X1178434Y519690D01*
X1178416Y519692D01*
X1178392D01*
Y519734D01*
X1178795D01*
X1179711Y518616D01*
Y519475D01*
Y519477D01*
Y519482D01*
Y519488D01*
Y519495D01*
X1179709Y519518D01*
X1179707Y519546D01*
X1179704Y519576D01*
X1179697Y519604D01*
X1179690Y519630D01*
X1179684Y519639D01*
X1179679Y519646D01*
X1179677Y519648D01*
X1179672Y519653D01*
X1179660Y519660D01*
X1179646Y519669D01*
X1179628Y519678D01*
X1179607Y519685D01*
X1179579Y519690D01*
X1179549Y519692D01*
X1179498D01*
Y519734D01*
X1180665D01*
X1180693Y519731D01*
D02*
G37*
%LPC*%
G36*
X809042Y147865D02*
X808516Y147124D01*
X809042D01*
Y147865D01*
D02*
G37*
G36*
Y943754D02*
X808516Y943013D01*
X809042D01*
Y943754D01*
D02*
G37*
G36*
X1225535Y147421D02*
X1225519D01*
X1225507Y147418D01*
X1225480Y147414D01*
X1225445Y147402D01*
X1225443D01*
X1225436Y147398D01*
X1225426Y147393D01*
X1225410Y147386D01*
X1225392Y147374D01*
X1225366Y147363D01*
X1225339Y147347D01*
X1225306Y147326D01*
Y147324D01*
Y147319D01*
X1225304Y147312D01*
Y147300D01*
X1225299Y147275D01*
X1225297Y147240D01*
X1225292Y147203D01*
X1225287Y147164D01*
X1225285Y147124D01*
Y147087D01*
Y147083D01*
Y147069D01*
X1225287Y147048D01*
X1225290Y147018D01*
X1225294Y146983D01*
X1225301Y146944D01*
X1225311Y146902D01*
X1225322Y146856D01*
Y146854D01*
X1225325Y146851D01*
X1225327Y146845D01*
X1225329Y146835D01*
X1225339Y146814D01*
X1225352Y146787D01*
X1225369Y146754D01*
X1225389Y146722D01*
X1225412Y146692D01*
X1225440Y146662D01*
X1225443Y146659D01*
X1225449Y146655D01*
X1225461Y146646D01*
X1225477Y146636D01*
X1225498Y146627D01*
X1225521Y146618D01*
X1225547Y146613D01*
X1225577Y146611D01*
X1225581D01*
X1225593Y146613D01*
X1225611Y146615D01*
X1225635Y146622D01*
X1225660Y146632D01*
X1225690Y146648D01*
X1225718Y146669D01*
X1225748Y146699D01*
X1225750Y146703D01*
X1225760Y146715D01*
X1225771Y146736D01*
X1225787Y146766D01*
X1225801Y146803D01*
X1225813Y146847D01*
X1225822Y146898D01*
X1225824Y146958D01*
Y146960D01*
Y146967D01*
Y146976D01*
Y146990D01*
X1225822Y147006D01*
X1225820Y147025D01*
X1225815Y147069D01*
X1225806Y147120D01*
X1225792Y147173D01*
X1225773Y147229D01*
X1225748Y147282D01*
Y147284D01*
X1225746Y147289D01*
X1225741Y147296D01*
X1225734Y147303D01*
X1225718Y147326D01*
X1225695Y147351D01*
X1225665Y147377D01*
X1225628Y147400D01*
X1225607Y147407D01*
X1225584Y147414D01*
X1225561Y147418D01*
X1225535Y147421D01*
D02*
G37*
G36*
Y943310D02*
X1225519D01*
X1225507Y943307D01*
X1225480Y943303D01*
X1225445Y943291D01*
X1225443D01*
X1225436Y943286D01*
X1225426Y943282D01*
X1225410Y943275D01*
X1225392Y943263D01*
X1225366Y943252D01*
X1225339Y943236D01*
X1225306Y943215D01*
Y943212D01*
Y943208D01*
X1225304Y943201D01*
Y943189D01*
X1225299Y943164D01*
X1225297Y943129D01*
X1225292Y943092D01*
X1225287Y943053D01*
X1225285Y943013D01*
Y942976D01*
Y942972D01*
Y942958D01*
X1225287Y942937D01*
X1225290Y942907D01*
X1225294Y942872D01*
X1225301Y942833D01*
X1225311Y942791D01*
X1225322Y942745D01*
Y942743D01*
X1225325Y942740D01*
X1225327Y942733D01*
X1225329Y942724D01*
X1225339Y942703D01*
X1225352Y942676D01*
X1225369Y942643D01*
X1225389Y942611D01*
X1225412Y942581D01*
X1225440Y942551D01*
X1225443Y942548D01*
X1225449Y942544D01*
X1225461Y942534D01*
X1225477Y942525D01*
X1225498Y942516D01*
X1225521Y942507D01*
X1225547Y942502D01*
X1225577Y942500D01*
X1225581D01*
X1225593Y942502D01*
X1225611Y942504D01*
X1225635Y942511D01*
X1225660Y942521D01*
X1225690Y942537D01*
X1225718Y942558D01*
X1225748Y942588D01*
X1225750Y942592D01*
X1225760Y942604D01*
X1225771Y942625D01*
X1225787Y942655D01*
X1225801Y942692D01*
X1225813Y942736D01*
X1225822Y942787D01*
X1225824Y942847D01*
Y942849D01*
Y942856D01*
Y942865D01*
Y942879D01*
X1225822Y942895D01*
X1225820Y942914D01*
X1225815Y942958D01*
X1225806Y943009D01*
X1225792Y943062D01*
X1225773Y943117D01*
X1225748Y943171D01*
Y943173D01*
X1225746Y943178D01*
X1225741Y943185D01*
X1225734Y943192D01*
X1225718Y943215D01*
X1225695Y943240D01*
X1225665Y943266D01*
X1225628Y943289D01*
X1225607Y943296D01*
X1225584Y943303D01*
X1225561Y943307D01*
X1225535Y943310D01*
D02*
G37*
G36*
X1327759Y245619D02*
X1327741D01*
X1327722Y245616D01*
X1327694Y245614D01*
X1327660Y245612D01*
X1327623Y245605D01*
X1327581Y245598D01*
X1327535Y245586D01*
Y244316D01*
X1327537D01*
X1327542Y244314D01*
X1327549D01*
X1327558Y244311D01*
X1327583Y244307D01*
X1327616Y244302D01*
X1327653Y244295D01*
X1327692Y244290D01*
X1327731Y244288D01*
X1327769Y244286D01*
X1327780D01*
X1327794Y244288D01*
X1327810D01*
X1327833Y244290D01*
X1327859Y244295D01*
X1327886Y244300D01*
X1327917Y244309D01*
X1327949Y244318D01*
X1327984Y244330D01*
X1328018Y244344D01*
X1328055Y244362D01*
X1328090Y244381D01*
X1328125Y244406D01*
X1328160Y244432D01*
X1328192Y244464D01*
X1328194Y244466D01*
X1328199Y244473D01*
X1328208Y244482D01*
X1328217Y244496D01*
X1328231Y244515D01*
X1328245Y244538D01*
X1328261Y244563D01*
X1328278Y244594D01*
X1328292Y244626D01*
X1328308Y244663D01*
X1328322Y244702D01*
X1328335Y244746D01*
X1328345Y244793D01*
X1328354Y244843D01*
X1328359Y244897D01*
X1328361Y244952D01*
Y244957D01*
Y244966D01*
Y244982D01*
X1328359Y245003D01*
X1328356Y245029D01*
X1328352Y245059D01*
X1328347Y245093D01*
X1328340Y245128D01*
X1328331Y245167D01*
X1328319Y245207D01*
X1328305Y245246D01*
X1328289Y245288D01*
X1328271Y245327D01*
X1328247Y245366D01*
X1328222Y245403D01*
X1328192Y245438D01*
X1328190Y245440D01*
X1328185Y245445D01*
X1328176Y245454D01*
X1328162Y245466D01*
X1328146Y245480D01*
X1328125Y245496D01*
X1328102Y245512D01*
X1328074Y245528D01*
X1328044Y245545D01*
X1328011Y245561D01*
X1327977Y245577D01*
X1327937Y245591D01*
X1327898Y245602D01*
X1327854Y245612D01*
X1327808Y245616D01*
X1327759Y245619D01*
D02*
G37*
G36*
X82756Y646150D02*
X82700D01*
X82680Y646148D01*
X82654D01*
X82624Y646143D01*
X82589Y646139D01*
X82557Y646134D01*
X82522Y646125D01*
Y645553D01*
X82529D01*
X82538Y645551D01*
X82548Y645548D01*
X82562Y645546D01*
X82578D01*
X82613Y645542D01*
X82647D01*
X82666Y645539D01*
X82770D01*
X82786Y645542D01*
X82821Y645544D01*
X82860Y645546D01*
X82899Y645553D01*
X82939Y645560D01*
X82971Y645572D01*
X82976Y645574D01*
X82985Y645579D01*
X82999Y645586D01*
X83017Y645597D01*
X83038Y645613D01*
X83059Y645632D01*
X83080Y645653D01*
X83096Y645678D01*
X83098Y645680D01*
X83103Y645690D01*
X83110Y645706D01*
X83119Y645724D01*
X83126Y645747D01*
X83133Y645773D01*
X83138Y645803D01*
X83140Y645833D01*
Y645835D01*
Y645840D01*
Y645847D01*
X83138Y645856D01*
X83135Y645879D01*
X83126Y645912D01*
X83115Y645946D01*
X83094Y645984D01*
X83068Y646021D01*
X83050Y646039D01*
X83031Y646058D01*
X83029D01*
X83027Y646062D01*
X83020Y646067D01*
X83011Y646071D01*
X83001Y646078D01*
X82987Y646088D01*
X82971Y646095D01*
X82953Y646104D01*
X82932Y646113D01*
X82909Y646120D01*
X82883Y646129D01*
X82855Y646136D01*
X82825Y646141D01*
X82791Y646145D01*
X82756Y646150D01*
D02*
G37*
G36*
X82717Y645461D02*
X82638D01*
X82599Y645458D01*
X82582D01*
X82571Y645456D01*
X82545Y645454D01*
X82522Y645449D01*
Y644836D01*
X82529D01*
X82534Y644833D01*
X82543Y644831D01*
X82569Y644827D01*
X82601Y644822D01*
X82640Y644817D01*
X82682Y644813D01*
X82728Y644810D01*
X82775Y644808D01*
X82793D01*
X82807Y644810D01*
X82825D01*
X82844Y644813D01*
X82888Y644820D01*
X82939Y644829D01*
X82990Y644845D01*
X83038Y644866D01*
X83082Y644896D01*
X83085D01*
X83087Y644901D01*
X83098Y644912D01*
X83117Y644931D01*
X83135Y644958D01*
X83154Y644991D01*
X83173Y645028D01*
X83184Y645072D01*
X83189Y645095D01*
Y645118D01*
Y645123D01*
Y645134D01*
X83186Y645150D01*
X83182Y645171D01*
X83177Y645197D01*
X83168Y645225D01*
X83154Y645255D01*
X83138Y645285D01*
X83135Y645289D01*
X83129Y645299D01*
X83117Y645312D01*
X83101Y645331D01*
X83078Y645352D01*
X83050Y645373D01*
X83017Y645393D01*
X82980Y645412D01*
X82978D01*
X82976Y645414D01*
X82969Y645417D01*
X82962Y645419D01*
X82939Y645428D01*
X82909Y645437D01*
X82869Y645444D01*
X82825Y645454D01*
X82772Y645458D01*
X82717Y645461D01*
D02*
G37*
G36*
X1327769Y646150D02*
X1327713D01*
X1327692Y646148D01*
X1327667D01*
X1327637Y646143D01*
X1327602Y646139D01*
X1327569Y646134D01*
X1327535Y646125D01*
Y645553D01*
X1327542D01*
X1327551Y645551D01*
X1327560Y645548D01*
X1327574Y645546D01*
X1327590D01*
X1327625Y645542D01*
X1327660D01*
X1327678Y645539D01*
X1327782D01*
X1327799Y645542D01*
X1327833Y645544D01*
X1327873Y645546D01*
X1327912Y645553D01*
X1327951Y645560D01*
X1327984Y645572D01*
X1327988Y645574D01*
X1327998Y645579D01*
X1328011Y645586D01*
X1328030Y645597D01*
X1328051Y645613D01*
X1328072Y645632D01*
X1328092Y645653D01*
X1328109Y645678D01*
X1328111Y645680D01*
X1328116Y645690D01*
X1328123Y645706D01*
X1328132Y645724D01*
X1328139Y645747D01*
X1328146Y645773D01*
X1328150Y645803D01*
X1328153Y645833D01*
Y645835D01*
Y645840D01*
Y645847D01*
X1328150Y645856D01*
X1328148Y645879D01*
X1328139Y645912D01*
X1328127Y645946D01*
X1328106Y645984D01*
X1328081Y646021D01*
X1328062Y646039D01*
X1328044Y646058D01*
X1328042D01*
X1328039Y646062D01*
X1328032Y646067D01*
X1328023Y646071D01*
X1328014Y646078D01*
X1328000Y646088D01*
X1327984Y646095D01*
X1327965Y646104D01*
X1327944Y646113D01*
X1327921Y646120D01*
X1327896Y646129D01*
X1327868Y646136D01*
X1327838Y646141D01*
X1327803Y646145D01*
X1327769Y646150D01*
D02*
G37*
G36*
X1327729Y645461D02*
X1327651D01*
X1327611Y645458D01*
X1327595D01*
X1327583Y645456D01*
X1327558Y645454D01*
X1327535Y645449D01*
Y644836D01*
X1327542D01*
X1327546Y644833D01*
X1327556Y644831D01*
X1327581Y644827D01*
X1327614Y644822D01*
X1327653Y644817D01*
X1327694Y644813D01*
X1327741Y644810D01*
X1327787Y644808D01*
X1327806D01*
X1327819Y644810D01*
X1327838D01*
X1327856Y644813D01*
X1327900Y644820D01*
X1327951Y644829D01*
X1328002Y644845D01*
X1328051Y644866D01*
X1328095Y644896D01*
X1328097D01*
X1328099Y644901D01*
X1328111Y644912D01*
X1328130Y644931D01*
X1328148Y644958D01*
X1328167Y644991D01*
X1328185Y645028D01*
X1328197Y645072D01*
X1328201Y645095D01*
Y645118D01*
Y645123D01*
Y645134D01*
X1328199Y645150D01*
X1328194Y645171D01*
X1328190Y645197D01*
X1328180Y645225D01*
X1328167Y645255D01*
X1328150Y645285D01*
X1328148Y645289D01*
X1328141Y645299D01*
X1328130Y645312D01*
X1328113Y645331D01*
X1328090Y645352D01*
X1328062Y645373D01*
X1328030Y645393D01*
X1327993Y645412D01*
X1327991D01*
X1327988Y645414D01*
X1327981Y645417D01*
X1327974Y645419D01*
X1327951Y645428D01*
X1327921Y645437D01*
X1327882Y645444D01*
X1327838Y645454D01*
X1327785Y645458D01*
X1327729Y645461D01*
D02*
G37*
G36*
X82667Y846012D02*
X82408Y845410D01*
X82917D01*
X82667Y846012D01*
D02*
G37*
G36*
X1327679D02*
X1327420Y845410D01*
X1327929D01*
X1327679Y846012D01*
D02*
G37*
G36*
X1188230Y520796D02*
X1188211D01*
X1188193Y520794D01*
X1188165Y520792D01*
X1188130Y520789D01*
X1188093Y520783D01*
X1188052Y520776D01*
X1188005Y520764D01*
Y519494D01*
X1188008D01*
X1188012Y519491D01*
X1188019D01*
X1188029Y519489D01*
X1188054Y519484D01*
X1188086Y519480D01*
X1188123Y519473D01*
X1188163Y519468D01*
X1188202Y519466D01*
X1188239Y519464D01*
X1188251D01*
X1188265Y519466D01*
X1188281D01*
X1188304Y519468D01*
X1188329Y519473D01*
X1188357Y519477D01*
X1188387Y519487D01*
X1188420Y519496D01*
X1188454Y519508D01*
X1188489Y519521D01*
X1188526Y519540D01*
X1188561Y519558D01*
X1188595Y519584D01*
X1188630Y519609D01*
X1188663Y519642D01*
X1188665Y519644D01*
X1188670Y519651D01*
X1188679Y519660D01*
X1188688Y519674D01*
X1188702Y519693D01*
X1188716Y519716D01*
X1188732Y519741D01*
X1188748Y519771D01*
X1188762Y519804D01*
X1188778Y519841D01*
X1188792Y519880D01*
X1188806Y519924D01*
X1188815Y519970D01*
X1188825Y520021D01*
X1188829Y520074D01*
X1188832Y520130D01*
Y520135D01*
Y520144D01*
Y520160D01*
X1188829Y520181D01*
X1188827Y520206D01*
X1188822Y520236D01*
X1188818Y520271D01*
X1188811Y520306D01*
X1188801Y520345D01*
X1188790Y520385D01*
X1188776Y520424D01*
X1188760Y520466D01*
X1188741Y520505D01*
X1188718Y520544D01*
X1188693Y520581D01*
X1188663Y520616D01*
X1188660Y520618D01*
X1188656Y520623D01*
X1188646Y520632D01*
X1188633Y520644D01*
X1188616Y520658D01*
X1188595Y520674D01*
X1188572Y520690D01*
X1188545Y520706D01*
X1188515Y520722D01*
X1188482Y520739D01*
X1188447Y520755D01*
X1188408Y520769D01*
X1188369Y520780D01*
X1188325Y520789D01*
X1188278Y520794D01*
X1188230Y520796D01*
D02*
G37*
G36*
X801463Y146719D02*
X800938Y145979D01*
X801463D01*
Y146719D01*
D02*
G37*
G36*
Y942608D02*
X800938Y941867D01*
X801463D01*
Y942608D01*
D02*
G37*
G36*
X1217957Y146275D02*
X1217940D01*
X1217929Y146272D01*
X1217901Y146268D01*
X1217866Y146256D01*
X1217864D01*
X1217857Y146252D01*
X1217848Y146247D01*
X1217832Y146240D01*
X1217813Y146228D01*
X1217788Y146217D01*
X1217760Y146201D01*
X1217728Y146180D01*
Y146178D01*
Y146173D01*
X1217725Y146166D01*
Y146154D01*
X1217721Y146129D01*
X1217718Y146094D01*
X1217714Y146057D01*
X1217709Y146018D01*
X1217707Y145979D01*
Y145941D01*
Y145937D01*
Y145923D01*
X1217709Y145902D01*
X1217711Y145872D01*
X1217716Y145837D01*
X1217723Y145798D01*
X1217732Y145756D01*
X1217744Y145710D01*
Y145708D01*
X1217746Y145705D01*
X1217748Y145699D01*
X1217751Y145689D01*
X1217760Y145668D01*
X1217774Y145641D01*
X1217790Y145608D01*
X1217811Y145576D01*
X1217834Y145546D01*
X1217862Y145516D01*
X1217864Y145513D01*
X1217871Y145509D01*
X1217883Y145500D01*
X1217899Y145490D01*
X1217920Y145481D01*
X1217943Y145472D01*
X1217968Y145467D01*
X1217998Y145465D01*
X1218003D01*
X1218014Y145467D01*
X1218033Y145469D01*
X1218056Y145476D01*
X1218082Y145486D01*
X1218112Y145502D01*
X1218139Y145523D01*
X1218169Y145553D01*
X1218172Y145557D01*
X1218181Y145569D01*
X1218193Y145590D01*
X1218209Y145620D01*
X1218223Y145657D01*
X1218234Y145701D01*
X1218244Y145752D01*
X1218246Y145812D01*
Y145814D01*
Y145821D01*
Y145830D01*
Y145844D01*
X1218244Y145860D01*
X1218241Y145879D01*
X1218237Y145923D01*
X1218227Y145974D01*
X1218214Y146027D01*
X1218195Y146083D01*
X1218169Y146136D01*
Y146138D01*
X1218167Y146143D01*
X1218163Y146150D01*
X1218156Y146157D01*
X1218139Y146180D01*
X1218116Y146205D01*
X1218086Y146231D01*
X1218049Y146254D01*
X1218028Y146261D01*
X1218005Y146268D01*
X1217982Y146272D01*
X1217957Y146275D01*
D02*
G37*
G36*
Y942164D02*
X1217940D01*
X1217929Y942161D01*
X1217901Y942157D01*
X1217866Y942145D01*
X1217864D01*
X1217857Y942140D01*
X1217848Y942136D01*
X1217832Y942129D01*
X1217813Y942117D01*
X1217788Y942106D01*
X1217760Y942090D01*
X1217728Y942069D01*
Y942066D01*
Y942062D01*
X1217725Y942055D01*
Y942043D01*
X1217721Y942018D01*
X1217718Y941983D01*
X1217714Y941946D01*
X1217709Y941907D01*
X1217707Y941867D01*
Y941830D01*
Y941826D01*
Y941812D01*
X1217709Y941791D01*
X1217711Y941761D01*
X1217716Y941726D01*
X1217723Y941687D01*
X1217732Y941645D01*
X1217744Y941599D01*
Y941597D01*
X1217746Y941594D01*
X1217748Y941587D01*
X1217751Y941578D01*
X1217760Y941557D01*
X1217774Y941530D01*
X1217790Y941497D01*
X1217811Y941465D01*
X1217834Y941435D01*
X1217862Y941405D01*
X1217864Y941402D01*
X1217871Y941398D01*
X1217883Y941388D01*
X1217899Y941379D01*
X1217920Y941370D01*
X1217943Y941361D01*
X1217968Y941356D01*
X1217998Y941354D01*
X1218003D01*
X1218014Y941356D01*
X1218033Y941358D01*
X1218056Y941365D01*
X1218082Y941375D01*
X1218112Y941391D01*
X1218139Y941412D01*
X1218169Y941442D01*
X1218172Y941446D01*
X1218181Y941458D01*
X1218193Y941479D01*
X1218209Y941509D01*
X1218223Y941546D01*
X1218234Y941590D01*
X1218244Y941641D01*
X1218246Y941701D01*
Y941703D01*
Y941710D01*
Y941719D01*
Y941733D01*
X1218244Y941749D01*
X1218241Y941768D01*
X1218237Y941812D01*
X1218227Y941863D01*
X1218214Y941916D01*
X1218195Y941971D01*
X1218169Y942025D01*
Y942027D01*
X1218167Y942032D01*
X1218163Y942039D01*
X1218156Y942046D01*
X1218139Y942069D01*
X1218116Y942094D01*
X1218086Y942120D01*
X1218049Y942143D01*
X1218028Y942150D01*
X1218005Y942157D01*
X1217982Y942161D01*
X1217957Y942164D01*
D02*
G37*
G36*
X1320181Y244473D02*
X1320162D01*
X1320144Y244470D01*
X1320116Y244468D01*
X1320081Y244466D01*
X1320044Y244459D01*
X1320003Y244452D01*
X1319956Y244440D01*
Y243170D01*
X1319959D01*
X1319963Y243168D01*
X1319970D01*
X1319979Y243165D01*
X1320005Y243161D01*
X1320037Y243156D01*
X1320074Y243149D01*
X1320114Y243144D01*
X1320153Y243142D01*
X1320190Y243140D01*
X1320202D01*
X1320215Y243142D01*
X1320232D01*
X1320255Y243144D01*
X1320280Y243149D01*
X1320308Y243154D01*
X1320338Y243163D01*
X1320370Y243172D01*
X1320405Y243184D01*
X1320440Y243198D01*
X1320477Y243216D01*
X1320512Y243235D01*
X1320546Y243260D01*
X1320581Y243286D01*
X1320613Y243318D01*
X1320616Y243320D01*
X1320620Y243327D01*
X1320630Y243336D01*
X1320639Y243350D01*
X1320653Y243369D01*
X1320667Y243392D01*
X1320683Y243417D01*
X1320699Y243448D01*
X1320713Y243480D01*
X1320729Y243517D01*
X1320743Y243556D01*
X1320757Y243600D01*
X1320766Y243647D01*
X1320775Y243697D01*
X1320780Y243751D01*
X1320782Y243806D01*
Y243811D01*
Y243820D01*
Y243836D01*
X1320780Y243857D01*
X1320778Y243883D01*
X1320773Y243913D01*
X1320768Y243947D01*
X1320761Y243982D01*
X1320752Y244021D01*
X1320741Y244061D01*
X1320727Y244100D01*
X1320711Y244142D01*
X1320692Y244181D01*
X1320669Y244220D01*
X1320644Y244257D01*
X1320613Y244292D01*
X1320611Y244294D01*
X1320606Y244299D01*
X1320597Y244308D01*
X1320583Y244320D01*
X1320567Y244334D01*
X1320546Y244350D01*
X1320523Y244366D01*
X1320495Y244382D01*
X1320465Y244399D01*
X1320433Y244415D01*
X1320398Y244431D01*
X1320359Y244445D01*
X1320320Y244456D01*
X1320276Y244466D01*
X1320229Y244470D01*
X1320181Y244473D01*
D02*
G37*
G36*
X75177Y645004D02*
X75122D01*
X75101Y645002D01*
X75076D01*
X75046Y644997D01*
X75011Y644992D01*
X74978Y644988D01*
X74944Y644979D01*
Y644407D01*
X74951D01*
X74960Y644405D01*
X74969Y644402D01*
X74983Y644400D01*
X74999D01*
X75034Y644396D01*
X75069D01*
X75087Y644393D01*
X75191D01*
X75208Y644396D01*
X75242Y644398D01*
X75282Y644400D01*
X75321Y644407D01*
X75360Y644414D01*
X75393Y644426D01*
X75397Y644428D01*
X75407Y644433D01*
X75420Y644440D01*
X75439Y644451D01*
X75460Y644467D01*
X75481Y644486D01*
X75501Y644507D01*
X75518Y644532D01*
X75520Y644534D01*
X75525Y644544D01*
X75532Y644560D01*
X75541Y644578D01*
X75548Y644601D01*
X75555Y644627D01*
X75559Y644657D01*
X75562Y644687D01*
Y644689D01*
Y644694D01*
Y644701D01*
X75559Y644710D01*
X75557Y644733D01*
X75548Y644766D01*
X75536Y644800D01*
X75515Y644837D01*
X75490Y644875D01*
X75471Y644893D01*
X75453Y644912D01*
X75451D01*
X75448Y644916D01*
X75441Y644921D01*
X75432Y644925D01*
X75423Y644932D01*
X75409Y644942D01*
X75393Y644949D01*
X75374Y644958D01*
X75353Y644967D01*
X75330Y644974D01*
X75305Y644983D01*
X75277Y644990D01*
X75247Y644995D01*
X75212Y644999D01*
X75177Y645004D01*
D02*
G37*
G36*
X75138Y644315D02*
X75059D01*
X75020Y644312D01*
X75004D01*
X74992Y644310D01*
X74967Y644308D01*
X74944Y644303D01*
Y643690D01*
X74951D01*
X74955Y643687D01*
X74965Y643685D01*
X74990Y643681D01*
X75022Y643676D01*
X75062Y643671D01*
X75103Y643667D01*
X75150Y643664D01*
X75196Y643662D01*
X75214D01*
X75228Y643664D01*
X75247D01*
X75265Y643667D01*
X75309Y643674D01*
X75360Y643683D01*
X75411Y643699D01*
X75460Y643720D01*
X75504Y643750D01*
X75506D01*
X75508Y643755D01*
X75520Y643766D01*
X75538Y643785D01*
X75557Y643812D01*
X75575Y643845D01*
X75594Y643882D01*
X75606Y643926D01*
X75610Y643949D01*
Y643972D01*
Y643977D01*
Y643988D01*
X75608Y644004D01*
X75603Y644025D01*
X75599Y644051D01*
X75589Y644078D01*
X75575Y644109D01*
X75559Y644139D01*
X75557Y644143D01*
X75550Y644153D01*
X75538Y644166D01*
X75522Y644185D01*
X75499Y644206D01*
X75471Y644227D01*
X75439Y644247D01*
X75402Y644266D01*
X75400D01*
X75397Y644268D01*
X75390Y644271D01*
X75383Y644273D01*
X75360Y644282D01*
X75330Y644291D01*
X75291Y644298D01*
X75247Y644308D01*
X75194Y644312D01*
X75138Y644315D01*
D02*
G37*
G36*
X1320190Y645004D02*
X1320134D01*
X1320114Y645002D01*
X1320088D01*
X1320058Y644997D01*
X1320023Y644992D01*
X1319991Y644988D01*
X1319956Y644979D01*
Y644407D01*
X1319963D01*
X1319972Y644405D01*
X1319982Y644402D01*
X1319996Y644400D01*
X1320012D01*
X1320047Y644396D01*
X1320081D01*
X1320100Y644393D01*
X1320204D01*
X1320220Y644396D01*
X1320255Y644398D01*
X1320294Y644400D01*
X1320333Y644407D01*
X1320373Y644414D01*
X1320405Y644426D01*
X1320410Y644428D01*
X1320419Y644433D01*
X1320433Y644440D01*
X1320451Y644451D01*
X1320472Y644467D01*
X1320493Y644486D01*
X1320514Y644507D01*
X1320530Y644532D01*
X1320532Y644534D01*
X1320537Y644544D01*
X1320544Y644560D01*
X1320553Y644578D01*
X1320560Y644601D01*
X1320567Y644627D01*
X1320572Y644657D01*
X1320574Y644687D01*
Y644689D01*
Y644694D01*
Y644701D01*
X1320572Y644710D01*
X1320569Y644733D01*
X1320560Y644766D01*
X1320549Y644800D01*
X1320528Y644837D01*
X1320502Y644875D01*
X1320484Y644893D01*
X1320465Y644912D01*
X1320463D01*
X1320461Y644916D01*
X1320454Y644921D01*
X1320444Y644925D01*
X1320435Y644932D01*
X1320421Y644942D01*
X1320405Y644949D01*
X1320387Y644958D01*
X1320366Y644967D01*
X1320343Y644974D01*
X1320317Y644983D01*
X1320289Y644990D01*
X1320259Y644995D01*
X1320225Y644999D01*
X1320190Y645004D01*
D02*
G37*
G36*
X1320151Y644315D02*
X1320072D01*
X1320033Y644312D01*
X1320016D01*
X1320005Y644310D01*
X1319979Y644308D01*
X1319956Y644303D01*
Y643690D01*
X1319963D01*
X1319968Y643687D01*
X1319977Y643685D01*
X1320003Y643681D01*
X1320035Y643676D01*
X1320074Y643671D01*
X1320116Y643667D01*
X1320162Y643664D01*
X1320208Y643662D01*
X1320227D01*
X1320241Y643664D01*
X1320259D01*
X1320278Y643667D01*
X1320322Y643674D01*
X1320373Y643683D01*
X1320424Y643699D01*
X1320472Y643720D01*
X1320516Y643750D01*
X1320519D01*
X1320521Y643755D01*
X1320532Y643766D01*
X1320551Y643785D01*
X1320569Y643812D01*
X1320588Y643845D01*
X1320606Y643882D01*
X1320618Y643926D01*
X1320623Y643949D01*
Y643972D01*
Y643977D01*
Y643988D01*
X1320620Y644004D01*
X1320616Y644025D01*
X1320611Y644051D01*
X1320602Y644078D01*
X1320588Y644109D01*
X1320572Y644139D01*
X1320569Y644143D01*
X1320562Y644153D01*
X1320551Y644166D01*
X1320535Y644185D01*
X1320512Y644206D01*
X1320484Y644227D01*
X1320451Y644247D01*
X1320414Y644266D01*
X1320412D01*
X1320410Y644268D01*
X1320403Y644271D01*
X1320396Y644273D01*
X1320373Y644282D01*
X1320343Y644291D01*
X1320303Y644298D01*
X1320259Y644308D01*
X1320206Y644312D01*
X1320151Y644315D01*
D02*
G37*
G36*
X75088Y844866D02*
X74829Y844264D01*
X75338D01*
X75088Y844866D01*
D02*
G37*
G36*
X1320101D02*
X1319842Y844264D01*
X1320351D01*
X1320101Y844866D01*
D02*
G37*
G36*
X1180651Y519650D02*
X1180633D01*
X1180614Y519648D01*
X1180587Y519646D01*
X1180552Y519643D01*
X1180515Y519637D01*
X1180473Y519630D01*
X1180427Y519618D01*
Y518348D01*
X1180429D01*
X1180434Y518345D01*
X1180441D01*
X1180450Y518343D01*
X1180475Y518338D01*
X1180508Y518334D01*
X1180545Y518327D01*
X1180584Y518322D01*
X1180624Y518320D01*
X1180661Y518318D01*
X1180672D01*
X1180686Y518320D01*
X1180702D01*
X1180725Y518322D01*
X1180751Y518327D01*
X1180779Y518331D01*
X1180809Y518341D01*
X1180841Y518350D01*
X1180876Y518362D01*
X1180911Y518375D01*
X1180948Y518394D01*
X1180982Y518412D01*
X1181017Y518438D01*
X1181052Y518463D01*
X1181084Y518496D01*
X1181086Y518498D01*
X1181091Y518505D01*
X1181100Y518514D01*
X1181109Y518528D01*
X1181123Y518547D01*
X1181137Y518570D01*
X1181153Y518595D01*
X1181170Y518625D01*
X1181184Y518658D01*
X1181200Y518695D01*
X1181214Y518734D01*
X1181228Y518778D01*
X1181237Y518824D01*
X1181246Y518875D01*
X1181251Y518928D01*
X1181253Y518984D01*
Y518989D01*
Y518998D01*
Y519014D01*
X1181251Y519035D01*
X1181248Y519060D01*
X1181244Y519090D01*
X1181239Y519125D01*
X1181232Y519160D01*
X1181223Y519199D01*
X1181211Y519239D01*
X1181198Y519278D01*
X1181181Y519320D01*
X1181163Y519359D01*
X1181140Y519398D01*
X1181114Y519435D01*
X1181084Y519470D01*
X1181082Y519472D01*
X1181077Y519477D01*
X1181068Y519486D01*
X1181054Y519498D01*
X1181038Y519512D01*
X1181017Y519528D01*
X1180994Y519544D01*
X1180966Y519560D01*
X1180936Y519576D01*
X1180904Y519593D01*
X1180869Y519609D01*
X1180830Y519623D01*
X1180790Y519634D01*
X1180746Y519643D01*
X1180700Y519648D01*
X1180651Y519650D01*
D02*
G37*
%LPD*%
D18*
X114718Y137525D02*
D03*
Y139025D02*
D03*
X117000Y31350D02*
D03*
Y32850D02*
D03*
X231505Y123275D02*
D03*
Y121775D02*
D03*
X106418Y178898D02*
D03*
Y177398D02*
D03*
X106072Y72050D02*
D03*
Y73550D02*
D03*
X105852Y132775D02*
D03*
Y131275D02*
D03*
X105792Y28400D02*
D03*
Y26900D02*
D03*
X211975Y80036D02*
D03*
Y78536D02*
D03*
X239350Y153237D02*
D03*
Y151737D02*
D03*
D19*
X230550Y144876D02*
D03*
Y142724D02*
D03*
X211755Y189649D02*
D03*
Y191801D02*
D03*
X209215Y191679D02*
D03*
Y189527D02*
D03*
X230550Y147099D02*
D03*
Y149251D02*
D03*
D60*
X166924Y193963D02*
D03*
X164384D02*
D03*
X144064D02*
D03*
X146604D02*
D03*
X172639D02*
D03*
X175179D02*
D03*
X154859D02*
D03*
X152319D02*
D03*
X226570Y194225D02*
D03*
X229110D02*
D03*
X218280D02*
D03*
X220820D02*
D03*
D62*
X226675Y135835D02*
D03*
Y133295D02*
D03*
Y130755D02*
D03*
X187413Y147725D02*
D03*
X184873Y147725D02*
D03*
X182333D02*
D03*
X179793D02*
D03*
X177253D02*
D03*
X188514Y193963D02*
D03*
X191054D02*
D03*
X193594D02*
D03*
X196134D02*
D03*
X198674D02*
D03*
X241225Y174950D02*
D03*
Y177490D02*
D03*
Y180030D02*
D03*
Y182570D02*
D03*
Y185110D02*
D03*
D63*
X226675Y128215D02*
D03*
X241225Y187650D02*
D03*
D64*
X164300Y4237D02*
D03*
D65*
Y14013D02*
D03*
D66*
X103751Y95250D02*
D03*
D67*
Y105250D02*
D03*
D69*
X49500Y64504D02*
D03*
Y58054D02*
D03*
Y169625D02*
D03*
Y163175D02*
D03*
X59000Y51350D02*
D03*
Y57800D02*
D03*
Y163800D02*
D03*
Y157350D02*
D03*
X49500Y190525D02*
D03*
Y196975D02*
D03*
Y91975D02*
D03*
Y85525D02*
D03*
X59000Y190800D02*
D03*
Y184350D02*
D03*
Y79350D02*
D03*
Y85800D02*
D03*
X49500Y124525D02*
D03*
Y118075D02*
D03*
Y19650D02*
D03*
Y13200D02*
D03*
X59000Y117800D02*
D03*
Y111350D02*
D03*
Y6350D02*
D03*
Y12800D02*
D03*
X49500Y40691D02*
D03*
Y47141D02*
D03*
Y152050D02*
D03*
Y145600D02*
D03*
X59000Y145025D02*
D03*
Y138575D02*
D03*
Y34350D02*
D03*
Y40800D02*
D03*
D79*
X174713Y147725D02*
D03*
X185974Y193963D02*
D03*
D83*
X163495Y187105D02*
D03*
X143175D02*
D03*
X173528D02*
D03*
X153208D02*
D03*
D84*
X166035D02*
D03*
X168575D02*
D03*
X145715D02*
D03*
X148255D02*
D03*
X176068D02*
D03*
X178608D02*
D03*
X155748D02*
D03*
X158288D02*
D03*
D96*
X93525Y31873D02*
D03*
Y33975D02*
D03*
X93750Y56248D02*
D03*
Y54147D02*
D03*
X93143Y159782D02*
D03*
Y161883D02*
D03*
X93750Y79451D02*
D03*
Y77349D02*
D03*
X93225Y183801D02*
D03*
Y181699D02*
D03*
X93089Y192378D02*
D03*
Y190277D02*
D03*
X92225Y113424D02*
D03*
Y115526D02*
D03*
X93818Y138676D02*
D03*
Y136574D02*
D03*
X93690Y148901D02*
D03*
Y146799D02*
D03*
X92509Y5305D02*
D03*
Y7407D02*
D03*
X93700Y43826D02*
D03*
Y41724D02*
D03*
X234952Y123901D02*
D03*
Y121799D02*
D03*
X124393Y55900D02*
D03*
Y53798D02*
D03*
X121024Y145010D02*
D03*
Y142908D02*
D03*
X193864Y168249D02*
D03*
Y170351D02*
D03*
X183945Y170335D02*
D03*
Y168233D02*
D03*
X211741Y170401D02*
D03*
Y168299D02*
D03*
X166975Y191788D02*
D03*
Y189687D02*
D03*
X146655Y191661D02*
D03*
Y189560D02*
D03*
X170023Y174447D02*
D03*
Y176548D02*
D03*
X150482Y176531D02*
D03*
Y174429D02*
D03*
X170023Y167799D02*
D03*
Y169901D02*
D03*
X150414Y169799D02*
D03*
Y167697D02*
D03*
X173782Y167872D02*
D03*
Y169974D02*
D03*
X154224Y169799D02*
D03*
Y167697D02*
D03*
X175230Y191788D02*
D03*
Y189687D02*
D03*
X154910Y191696D02*
D03*
Y189594D02*
D03*
X121596Y158108D02*
D03*
Y160210D02*
D03*
X124596Y158108D02*
D03*
Y160210D02*
D03*
X121293Y53798D02*
D03*
Y55900D02*
D03*
X121768Y190001D02*
D03*
Y187899D02*
D03*
X124768D02*
D03*
Y190001D02*
D03*
X121850Y84301D02*
D03*
Y82199D02*
D03*
X124850D02*
D03*
Y84301D02*
D03*
X121386Y6353D02*
D03*
Y8455D02*
D03*
X124493Y112027D02*
D03*
Y114129D02*
D03*
X121568D02*
D03*
Y112027D02*
D03*
X124448Y6353D02*
D03*
Y8455D02*
D03*
X223360Y188249D02*
D03*
Y190351D02*
D03*
X220820Y188249D02*
D03*
Y190351D02*
D03*
X121649Y38473D02*
D03*
Y36372D02*
D03*
X123857Y142908D02*
D03*
Y145010D02*
D03*
X124693Y36372D02*
D03*
Y38473D02*
D03*
X237530Y123901D02*
D03*
Y121799D02*
D03*
X233000Y187401D02*
D03*
Y185299D02*
D03*
X236092Y167199D02*
D03*
Y169301D02*
D03*
D97*
X106246Y172725D02*
D03*
X104094D02*
D03*
X239349Y149775D02*
D03*
X241501D02*
D03*
X235641Y155964D02*
D03*
X233489D02*
D03*
X242098Y144499D02*
D03*
X239947D02*
D03*
X105952Y67450D02*
D03*
X103800D02*
D03*
X105867Y126710D02*
D03*
X103716D02*
D03*
X105844Y22100D02*
D03*
X103692D02*
D03*
X239947Y141851D02*
D03*
X242098D02*
D03*
D100*
X110373Y65300D02*
D03*
X108272D02*
D03*
X108717Y170475D02*
D03*
X110819D02*
D03*
X108124Y94050D02*
D03*
X110226D02*
D03*
X106899Y124199D02*
D03*
X109001D02*
D03*
X108048Y19525D02*
D03*
X110150D02*
D03*
X99667Y158871D02*
D03*
X101769D02*
D03*
Y54496D02*
D03*
X99667D02*
D03*
X105667Y158871D02*
D03*
X107769D02*
D03*
X105667Y54623D02*
D03*
X107769D02*
D03*
X167194Y185149D02*
D03*
X169295D02*
D03*
X146874D02*
D03*
X148975D02*
D03*
X162876D02*
D03*
X164977D02*
D03*
X142556D02*
D03*
X144657D02*
D03*
X177227D02*
D03*
X179328D02*
D03*
X156907D02*
D03*
X159008D02*
D03*
X172909D02*
D03*
X175010D02*
D03*
X152589D02*
D03*
X154690D02*
D03*
X168279Y179561D02*
D03*
X166178D02*
D03*
X161675Y179307D02*
D03*
X159574D02*
D03*
X101767Y189456D02*
D03*
X99665D02*
D03*
X192969Y101425D02*
D03*
X190867D02*
D03*
X206717Y116875D02*
D03*
X208819D02*
D03*
X190862Y98675D02*
D03*
X192964D02*
D03*
X202192Y116875D02*
D03*
X204294D02*
D03*
X107769Y188831D02*
D03*
X105667D02*
D03*
X107769Y82965D02*
D03*
X105667D02*
D03*
X101769Y7260D02*
D03*
X99667D02*
D03*
X105667D02*
D03*
X107769D02*
D03*
X228476Y185375D02*
D03*
X226374D02*
D03*
X228476Y188125D02*
D03*
X226374D02*
D03*
X99667Y112860D02*
D03*
X101769D02*
D03*
X107769Y112987D02*
D03*
X105667D02*
D03*
Y36897D02*
D03*
X107769D02*
D03*
X99667Y143843D02*
D03*
X101769D02*
D03*
X107769D02*
D03*
X105667D02*
D03*
D101*
X114343Y184850D02*
D03*
X112843D02*
D03*
X114216Y79500D02*
D03*
X112716D02*
D03*
X219800Y100100D02*
D03*
X218300D02*
D03*
X120715Y181718D02*
D03*
X119215D02*
D03*
X109518Y174360D02*
D03*
X111018D02*
D03*
X108677Y128479D02*
D03*
X110177D02*
D03*
X108655Y24275D02*
D03*
X110155D02*
D03*
X109072Y69275D02*
D03*
X110572D02*
D03*
X111168Y180993D02*
D03*
X109668D02*
D03*
X110572Y75772D02*
D03*
X109072D02*
D03*
X110528Y134869D02*
D03*
X109028D02*
D03*
X110155Y30831D02*
D03*
X108655D02*
D03*
X192741Y104000D02*
D03*
X191241D02*
D03*
X206793Y114151D02*
D03*
X208293D02*
D03*
X163050Y179434D02*
D03*
X164550D02*
D03*
X163050Y177021D02*
D03*
X164550D02*
D03*
X105368Y69775D02*
D03*
X103868D02*
D03*
X104100Y174985D02*
D03*
X105600D02*
D03*
X105271Y128979D02*
D03*
X103771D02*
D03*
X103660Y24375D02*
D03*
X105160D02*
D03*
D104*
X108899Y138775D02*
D03*
X110651D02*
D03*
X113344Y32900D02*
D03*
X115096D02*
D03*
X108999Y79500D02*
D03*
X110751D02*
D03*
X109575Y184850D02*
D03*
X111327D02*
D03*
X112717Y183093D02*
D03*
X114469D02*
D03*
X109542Y183093D02*
D03*
X111294D02*
D03*
X108997Y77822D02*
D03*
X110748D02*
D03*
X108902Y137020D02*
D03*
X110654D02*
D03*
X108529Y32900D02*
D03*
X110281D02*
D03*
X100292Y172804D02*
D03*
X102044D02*
D03*
X100167Y67350D02*
D03*
X101919D02*
D03*
X112589Y77784D02*
D03*
X114341D02*
D03*
X210324Y133399D02*
D03*
X212076D02*
D03*
Y130859D02*
D03*
X210324D02*
D03*
X100240Y126790D02*
D03*
X101992D02*
D03*
X100217Y21986D02*
D03*
X101969D02*
D03*
D105*
X111668Y31399D02*
D03*
Y33151D02*
D03*
X112347Y135344D02*
D03*
Y137095D02*
D03*
X104218Y179023D02*
D03*
Y177272D02*
D03*
X103897Y73676D02*
D03*
Y71924D02*
D03*
X103771Y132901D02*
D03*
Y131149D02*
D03*
X103718Y28526D02*
D03*
Y26774D02*
D03*
X206675Y191356D02*
D03*
Y189604D02*
D03*
D109*
X99843Y80275D02*
D03*
X103593D02*
D03*
X99843Y155569D02*
D03*
X103593D02*
D03*
Y51321D02*
D03*
X99843D02*
D03*
Y167130D02*
D03*
X103593D02*
D03*
Y60719D02*
D03*
X99843D02*
D03*
X103343Y186475D02*
D03*
X99593D02*
D03*
X99843Y3704D02*
D03*
X103593D02*
D03*
X99843Y196635D02*
D03*
X103593D02*
D03*
X99843Y89477D02*
D03*
X103593D02*
D03*
Y12975D02*
D03*
X99843D02*
D03*
Y109558D02*
D03*
X103593D02*
D03*
X99841Y118302D02*
D03*
X103591D02*
D03*
X103593Y35364D02*
D03*
X99843D02*
D03*
Y140668D02*
D03*
X103593D02*
D03*
X99843Y45524D02*
D03*
X103593D02*
D03*
X99843Y149939D02*
D03*
X103593D02*
D03*
D111*
X183342Y137774D02*
D03*
X185994Y140426D02*
D03*
D112*
X112204Y162715D02*
D03*
Y161445D02*
D03*
Y160175D02*
D03*
Y158905D02*
D03*
X117232D02*
D03*
Y160175D02*
D03*
Y161445D02*
D03*
Y162715D02*
D03*
Y58405D02*
D03*
Y57135D02*
D03*
Y55865D02*
D03*
Y54595D02*
D03*
X112204D02*
D03*
Y55865D02*
D03*
Y57135D02*
D03*
Y58405D02*
D03*
Y192641D02*
D03*
Y191371D02*
D03*
Y190101D02*
D03*
Y188831D02*
D03*
X117232D02*
D03*
Y190101D02*
D03*
Y191371D02*
D03*
Y192641D02*
D03*
X112204Y86881D02*
D03*
Y85611D02*
D03*
Y84341D02*
D03*
Y83071D02*
D03*
X117232D02*
D03*
Y84341D02*
D03*
Y85611D02*
D03*
Y86881D02*
D03*
Y11214D02*
D03*
Y9944D02*
D03*
Y8674D02*
D03*
Y7404D02*
D03*
X112204D02*
D03*
Y8674D02*
D03*
Y9944D02*
D03*
Y11214D02*
D03*
Y116634D02*
D03*
Y115364D02*
D03*
Y114094D02*
D03*
Y112824D02*
D03*
X117232D02*
D03*
Y114094D02*
D03*
Y115364D02*
D03*
Y116634D02*
D03*
X112204Y147490D02*
D03*
Y146220D02*
D03*
Y144950D02*
D03*
Y143680D02*
D03*
X117232D02*
D03*
Y144950D02*
D03*
Y146220D02*
D03*
Y147490D02*
D03*
X112204Y41136D02*
D03*
Y39866D02*
D03*
Y38596D02*
D03*
Y37326D02*
D03*
X117232D02*
D03*
Y38596D02*
D03*
Y39866D02*
D03*
Y41136D02*
D03*
D113*
X188948Y130309D02*
D03*
X189302Y129955D02*
D03*
X189656Y129602D02*
D03*
X190009Y129248D02*
D03*
X190363Y128895D02*
D03*
X190716Y128541D02*
D03*
X191070Y128188D02*
D03*
X191423Y127834D02*
D03*
X191777Y127480D02*
D03*
X192130Y127127D02*
D03*
X192484Y126773D02*
D03*
X192838Y126420D02*
D03*
X186827Y120409D02*
D03*
X186474Y120763D02*
D03*
X186120Y121117D02*
D03*
X185766Y121470D02*
D03*
X185413Y121824D02*
D03*
X185059Y122177D02*
D03*
X184706Y122531D02*
D03*
X184352Y122884D02*
D03*
X183999Y123238D02*
D03*
X183645Y123591D02*
D03*
X183292Y123945D02*
D03*
X182938Y124299D02*
D03*
D114*
X192838D02*
D03*
X192484Y123945D02*
D03*
X192130Y123591D02*
D03*
X191777Y123238D02*
D03*
X191423Y122884D02*
D03*
X191070Y122531D02*
D03*
X190716Y122177D02*
D03*
X190363Y121824D02*
D03*
X190009Y121470D02*
D03*
X189656Y121117D02*
D03*
X189302Y120763D02*
D03*
X188948Y120409D02*
D03*
X182938Y126420D02*
D03*
X183292Y126773D02*
D03*
X183645Y127127D02*
D03*
X183999Y127480D02*
D03*
X184352Y127834D02*
D03*
X184706Y128188D02*
D03*
X185059Y128541D02*
D03*
X185413Y128895D02*
D03*
X185766Y129248D02*
D03*
X186120Y129602D02*
D03*
X186474Y129955D02*
D03*
X186827Y130309D02*
D03*
D118*
X105243Y162436D02*
D03*
X107343D02*
D03*
X107768Y57290D02*
D03*
X105668D02*
D03*
X107768Y193206D02*
D03*
X105668D02*
D03*
Y86922D02*
D03*
X107768D02*
D03*
Y10435D02*
D03*
X105668D02*
D03*
Y115400D02*
D03*
X107768D02*
D03*
X105668Y42082D02*
D03*
X107768D02*
D03*
X105668Y146891D02*
D03*
X107768D02*
D03*
D119*
X99916Y164082D02*
D03*
X101520D02*
D03*
X99916Y57036D02*
D03*
X101520D02*
D03*
X99916Y193206D02*
D03*
X101520D02*
D03*
X99916Y86922D02*
D03*
X101520D02*
D03*
Y9800D02*
D03*
X99916D02*
D03*
Y115400D02*
D03*
X101520D02*
D03*
X99916Y41968D02*
D03*
X101520D02*
D03*
X99916Y146510D02*
D03*
X101520D02*
D03*
D120*
X101669Y83119D02*
D03*
X99767D02*
D03*
X101669Y38920D02*
D03*
X99767D02*
D03*
D121*
X197753Y135968D02*
D03*
X199239Y134482D02*
D03*
D122*
X180525Y135131D02*
D03*
X182011Y136617D02*
D03*
D125*
X124718Y166652D02*
D03*
X120718D02*
D03*
Y62215D02*
D03*
X124718D02*
D03*
Y196451D02*
D03*
X120718D02*
D03*
X124718Y90691D02*
D03*
X120718D02*
D03*
X124718Y14897D02*
D03*
X120718D02*
D03*
Y120698D02*
D03*
X124718D02*
D03*
Y151427D02*
D03*
X120718D02*
D03*
X124718Y44946D02*
D03*
X120718D02*
D03*
D126*
X193873Y172730D02*
D03*
Y174532D02*
D03*
X183945Y172496D02*
D03*
Y174298D02*
D03*
X211712Y172699D02*
D03*
Y174501D02*
D03*
D127*
X197435Y132449D02*
D03*
X196374Y133510D02*
D03*
D128*
X200229Y111031D02*
D03*
X199168Y109970D02*
D03*
D130*
X80329Y162546D02*
X84610D01*
X84848Y13008D02*
X85310Y12546D01*
X84510Y190046D02*
Y190046D01*
X84471Y190007D02*
X84510Y190046D01*
X83250Y190046D02*
X84510D01*
X80329Y187125D02*
X81589D01*
X80329D02*
X81829D01*
X132893Y98653D02*
X134050Y97496D01*
X129350Y176250D02*
X133175D01*
D161*
X80554Y40100D02*
X85250D01*
X80554Y57489D02*
X85250D01*
X80554Y85129D02*
X85250D01*
X80554Y117600D02*
X85250D01*
X80329Y144900D02*
X85026D01*
X80329Y162600D02*
X85025D01*
X80329Y13008D02*
Y187125D01*
Y13008D02*
X80593D01*
X83210Y190007D02*
X84471D01*
X80329Y187125D02*
X83210Y190007D01*
X131100Y25675D02*
X134275D01*
X138633Y30033D01*
Y61117D01*
X129075Y70675D02*
X138633Y61117D01*
X128900Y176250D02*
X133175D01*
X128673Y128100D02*
Y137223D01*
X128700Y137250D02*
X133025Y141575D01*
Y176100D01*
X133175Y176250D01*
X80549Y103125D02*
X125536D01*
X125822Y103411D01*
D162*
X80593Y12546D02*
Y13008D01*
Y12546D02*
X85114D01*
X131725Y70675D02*
X132268Y71218D01*
X129075Y70675D02*
X131725D01*
X128673Y129794D02*
X130506D01*
D163*
X80329Y13761D02*
X80593Y14025D01*
X79968Y13400D02*
Y103125D01*
X80549D01*
X60569Y115006D02*
X64617D01*
D164*
X156275Y69125D02*
X178000D01*
X233375Y59600D02*
X233775Y60000D01*
X224275Y59600D02*
X233375D01*
X178000Y69125D02*
X187525Y59600D01*
X224275D01*
X132911Y69125D02*
X156275D01*
X132900Y69136D02*
X132911Y69125D01*
X132900Y69136D02*
Y74634D01*
X162200Y95075D02*
X162975Y94300D01*
Y69375D02*
Y94300D01*
X132900Y74634D02*
Y96355D01*
X132893Y98653D02*
Y104593D01*
X135661Y107361D01*
Y124639D01*
X130506Y129794D02*
X135661Y124639D01*
D165*
X116400Y67975D02*
D03*
Y73175D02*
D03*
X116450Y126534D02*
D03*
Y131734D02*
D03*
X115450Y21950D02*
D03*
Y27150D02*
D03*
X116200Y177910D02*
D03*
Y172710D02*
D03*
D166*
X235275Y160100D02*
D03*
X230975D02*
D03*
X235350Y163925D02*
D03*
X231050D02*
D03*
X107143Y62600D02*
D03*
X111443D02*
D03*
X107450Y167675D02*
D03*
X111750D02*
D03*
X111325Y91300D02*
D03*
X107025D02*
D03*
X105899Y16432D02*
D03*
X110199D02*
D03*
X105800Y121385D02*
D03*
X110100D02*
D03*
D167*
X97025Y53373D02*
D03*
Y57673D02*
D03*
X96318Y158782D02*
D03*
Y163082D02*
D03*
X96700Y80550D02*
D03*
Y76250D02*
D03*
X96300Y184900D02*
D03*
Y180600D02*
D03*
X96188Y193405D02*
D03*
Y189105D02*
D03*
X95743Y3856D02*
D03*
Y8156D02*
D03*
X95450Y112325D02*
D03*
Y116625D02*
D03*
X97100Y140125D02*
D03*
Y135825D02*
D03*
X169250Y4000D02*
D03*
Y8300D02*
D03*
X96850Y150000D02*
D03*
Y145700D02*
D03*
X96775Y35175D02*
D03*
Y30875D02*
D03*
X97025Y44925D02*
D03*
Y40625D02*
D03*
D168*
X237105Y147063D02*
D03*
X235835D02*
D03*
X234565D02*
D03*
X233295D02*
D03*
Y152487D02*
D03*
X234565D02*
D03*
X235835D02*
D03*
X237105D02*
D03*
D169*
X128718Y120698D02*
D03*
X131568D02*
D03*
X117522Y121248D02*
D03*
X114672D02*
D03*
X114697Y167675D02*
D03*
X117547D02*
D03*
X124470Y163350D02*
D03*
X121620D02*
D03*
X114775Y62600D02*
D03*
X117625D02*
D03*
X124443Y59075D02*
D03*
X121593D02*
D03*
X125193Y193175D02*
D03*
X122343D02*
D03*
X117522Y90691D02*
D03*
X114672D02*
D03*
X125293Y87404D02*
D03*
X122443D02*
D03*
X117525Y16575D02*
D03*
X114675D02*
D03*
X124061Y117065D02*
D03*
X121211D02*
D03*
X128418Y11723D02*
D03*
X125568D02*
D03*
X117150Y48400D02*
D03*
X114300D02*
D03*
X122359Y148285D02*
D03*
X125209D02*
D03*
X122268Y41779D02*
D03*
X125118D02*
D03*
D170*
X131950Y44450D02*
D03*
Y47300D02*
D03*
X47057Y61130D02*
D03*
Y58280D02*
D03*
X47100Y165975D02*
D03*
Y163125D02*
D03*
X61800Y54800D02*
D03*
Y57650D02*
D03*
X61725Y159800D02*
D03*
Y162650D02*
D03*
X47025Y190800D02*
D03*
Y193650D02*
D03*
X47050Y88500D02*
D03*
Y85650D02*
D03*
X61575Y189865D02*
D03*
Y187015D02*
D03*
X61600Y82050D02*
D03*
Y84900D02*
D03*
X47073Y118080D02*
D03*
Y120930D02*
D03*
X61800Y114725D02*
D03*
Y117575D02*
D03*
X46975Y16075D02*
D03*
Y13225D02*
D03*
X62300Y9764D02*
D03*
Y12614D02*
D03*
X47025Y43550D02*
D03*
Y40700D02*
D03*
X62025Y37275D02*
D03*
Y40125D02*
D03*
X47075Y148630D02*
D03*
Y145780D02*
D03*
X115043Y195386D02*
D03*
Y198236D02*
D03*
X115023Y153139D02*
D03*
Y150289D02*
D03*
X61213Y144725D02*
D03*
Y141875D02*
D03*
D171*
X204400Y37450D02*
D03*
Y44000D02*
D03*
X206850Y37450D02*
D03*
Y44000D02*
D03*
D172*
X108227Y130873D02*
D03*
Y131823D02*
D03*
Y132773D02*
D03*
X110627D02*
D03*
Y130873D02*
D03*
X107855Y26700D02*
D03*
Y27650D02*
D03*
Y28600D02*
D03*
X110255D02*
D03*
Y26700D02*
D03*
X111118Y176923D02*
D03*
Y178823D02*
D03*
X108718D02*
D03*
Y177873D02*
D03*
Y176923D02*
D03*
X110672Y71850D02*
D03*
Y73750D02*
D03*
X108272D02*
D03*
Y72800D02*
D03*
Y71850D02*
D03*
D173*
X240070Y127550D02*
D03*
X238800D02*
D03*
X237530D02*
D03*
X236260D02*
D03*
X234990D02*
D03*
X233720D02*
D03*
X232450D02*
D03*
X231180D02*
D03*
X240070Y136800D02*
D03*
X238800D02*
D03*
X237530D02*
D03*
X236260D02*
D03*
X234990D02*
D03*
X233720D02*
D03*
X232450D02*
D03*
X231180D02*
D03*
D174*
X221350Y87525D02*
D03*
Y85225D02*
D03*
Y82925D02*
D03*
D175*
X215200Y85225D02*
D03*
D176*
X163031Y169341D02*
D03*
X158981D02*
D03*
X163031Y174541D02*
D03*
X158981D02*
D03*
D177*
X161641Y169341D02*
D03*
X160371D02*
D03*
X161641Y174541D02*
D03*
X160371D02*
D03*
D178*
X200174Y106022D02*
D03*
X204558Y110406D02*
D03*
D179*
X126718Y77525D02*
D03*
X109525Y153875D02*
D03*
X131950Y33625D02*
D03*
X143875Y43342D02*
D03*
X129225Y168112D02*
D03*
X194750Y92300D02*
D03*
X127850Y63775D02*
D03*
X125218Y169873D02*
D03*
X135350Y185675D02*
D03*
X124718Y18757D02*
D03*
X127050Y122825D02*
D03*
X125350Y48250D02*
D03*
X129488Y146113D02*
D03*
X101969Y30875D02*
D03*
X101718Y137075D02*
D03*
X106922Y79500D02*
D03*
X104501Y183300D02*
D03*
X174825Y162975D02*
D03*
X228900Y113325D02*
D03*
X195750Y104325D02*
D03*
X168825Y30667D02*
D03*
X226800Y158625D02*
D03*
X233000Y182570D02*
D03*
X237120Y144379D02*
D03*
X234990Y141097D02*
D03*
X232799Y167199D02*
D03*
X230757Y179815D02*
D03*
X232302Y176342D02*
D03*
X228750Y155200D02*
D03*
X208225Y142862D02*
D03*
X228079Y139778D02*
D03*
X103718Y158871D02*
D03*
X103593Y6760D02*
D03*
X103693Y189088D02*
D03*
X103694Y83051D02*
D03*
X103768Y143550D02*
D03*
X103593Y37966D02*
D03*
X58993Y176775D02*
D03*
Y71350D02*
D03*
Y130200D02*
D03*
X59243Y25875D02*
D03*
X141043Y119425D02*
D03*
X97150Y170350D02*
D03*
X97983Y63208D02*
D03*
X103769Y53859D02*
D03*
X54000Y163054D02*
D03*
Y58000D02*
D03*
X137330Y160275D02*
D03*
X126932Y55825D02*
D03*
X103593Y163840D02*
D03*
X103605Y57890D02*
D03*
X109693Y164125D02*
D03*
X109293Y59002D02*
D03*
X126900Y185700D02*
D03*
X145256Y81400D02*
D03*
X103693Y193481D02*
D03*
X103715Y86929D02*
D03*
X106818Y196648D02*
D03*
X95368Y86649D02*
D03*
X101325Y123875D02*
D03*
X100596Y19400D02*
D03*
X103593Y112106D02*
D03*
X54000Y118054D02*
D03*
Y13054D02*
D03*
X126718Y117025D02*
D03*
X126993Y8455D02*
D03*
X103605Y116025D02*
D03*
X103868Y10843D02*
D03*
X109093Y117702D02*
D03*
X109193Y12775D02*
D03*
X126468Y145100D02*
D03*
X126718Y38401D02*
D03*
X103605Y147391D02*
D03*
X103593Y42065D02*
D03*
X109173Y149410D02*
D03*
X108418Y44724D02*
D03*
X166035Y182914D02*
D03*
X145715D02*
D03*
X176068D02*
D03*
X155748D02*
D03*
X170023Y171867D02*
D03*
X150469Y172181D02*
D03*
X171115Y182914D02*
D03*
X160193D02*
D03*
X181684Y196300D02*
D03*
X234827Y189798D02*
D03*
X195229Y98675D02*
D03*
X205517Y120125D02*
D03*
X190862Y95445D02*
D03*
D180*
X138700Y19250D02*
D03*
X143700D02*
D03*
X129025Y154550D02*
D03*
X124025D02*
D03*
X134575Y43375D02*
D03*
Y48375D02*
D03*
D181*
X240575Y167275D02*
D03*
Y162275D02*
D03*
X137500Y6500D02*
D03*
X194875Y6200D02*
D03*
X237400Y49075D02*
D03*
X147500Y6500D02*
D03*
D182*
X240575Y157275D02*
D03*
X237400Y44075D02*
D03*
D183*
X63850Y92075D02*
D03*
X53850D02*
D03*
X63675Y197075D02*
D03*
X53675D02*
D03*
X63675Y169675D02*
D03*
X53675D02*
D03*
X63825Y64650D02*
D03*
X53825D02*
D03*
X63625Y124425D02*
D03*
X53625D02*
D03*
X63600Y19675D02*
D03*
X53600D02*
D03*
X63775Y152025D02*
D03*
X53775D02*
D03*
X63675Y47000D02*
D03*
X53675D02*
D03*
D184*
X7000Y181125D02*
D03*
Y171125D02*
D03*
X17000D02*
D03*
Y181125D02*
D03*
X7000Y76275D02*
D03*
Y66275D02*
D03*
X17000D02*
D03*
Y76275D02*
D03*
X7000Y136725D02*
D03*
Y126725D02*
D03*
X17000D02*
D03*
Y136725D02*
D03*
X7000Y30775D02*
D03*
Y20775D02*
D03*
X17000D02*
D03*
Y30775D02*
D03*
X223925Y59725D02*
D03*
Y69725D02*
D03*
X233925D02*
D03*
Y59725D02*
D03*
D185*
X200675Y25125D02*
D03*
Y37125D02*
D03*
D186*
X132893Y96339D02*
D03*
X125822Y103411D02*
D03*
X162593Y95000D02*
D03*
X172593D02*
D03*
D187*
X132500Y6500D02*
D03*
X189875Y6200D02*
D03*
X142500Y6500D02*
D03*
D188*
X209779Y81953D02*
D03*
Y80048D02*
D03*
Y78143D02*
D03*
X214037Y43916D02*
D03*
X211537D02*
D03*
D189*
X188316Y84874D02*
D03*
X188189Y74968D02*
D03*
D190*
X214834Y130859D02*
D03*
Y133399D02*
D03*
Y128319D02*
D03*
Y125779D02*
D03*
X204135Y194217D02*
D03*
X206675D02*
D03*
X211755D02*
D03*
X209215D02*
D03*
X206120Y125800D02*
D03*
Y128340D02*
D03*
Y133420D02*
D03*
Y130880D02*
D03*
X173782Y174024D02*
D03*
Y176564D02*
D03*
X154224Y174024D02*
D03*
Y176564D02*
D03*
D191*
X214834Y135939D02*
D03*
X206120Y135960D02*
D03*
D192*
X154674Y121298D02*
D03*
X148832Y121171D02*
D03*
X226671Y44043D02*
D03*
X220829Y43916D02*
D03*
D193*
X151753Y144539D02*
D03*
X223750Y20675D02*
D03*
D194*
X173520Y3900D02*
D03*
X176060D02*
D03*
X178600D02*
D03*
D195*
X175933Y9361D02*
D03*
X187218Y116076D02*
D03*
Y136015D02*
D03*
D196*
X44451Y165594D02*
D03*
Y163054D02*
D03*
Y160514D02*
D03*
Y55514D02*
D03*
Y58054D02*
D03*
Y60594D02*
D03*
X64417Y160006D02*
D03*
Y162546D02*
D03*
Y165086D02*
D03*
X64317Y60086D02*
D03*
Y57546D02*
D03*
Y55006D02*
D03*
X44451Y193094D02*
D03*
Y190554D02*
D03*
Y188014D02*
D03*
Y88094D02*
D03*
Y85554D02*
D03*
Y83014D02*
D03*
Y15594D02*
D03*
Y13054D02*
D03*
Y10514D02*
D03*
X64317Y187506D02*
D03*
Y190046D02*
D03*
Y192586D02*
D03*
X64217Y82506D02*
D03*
Y85046D02*
D03*
Y87586D02*
D03*
X65117Y15086D02*
D03*
Y12546D02*
D03*
Y10006D02*
D03*
X44451Y115514D02*
D03*
Y118054D02*
D03*
Y120594D02*
D03*
X64617Y120086D02*
D03*
Y117546D02*
D03*
Y115006D02*
D03*
X44451Y43094D02*
D03*
Y40554D02*
D03*
Y38014D02*
D03*
Y143014D02*
D03*
Y145554D02*
D03*
Y148094D02*
D03*
X64117Y147386D02*
D03*
Y144846D02*
D03*
Y142306D02*
D03*
X64834Y42586D02*
D03*
Y40046D02*
D03*
Y37506D02*
D03*
D197*
X24258Y163054D02*
D03*
Y58054D02*
D03*
X84610Y162546D02*
D03*
X84510Y57546D02*
D03*
X24258Y190554D02*
D03*
Y85554D02*
D03*
Y13054D02*
D03*
X84510Y190046D02*
D03*
X84410Y85046D02*
D03*
X85310Y12546D02*
D03*
X24258Y118054D02*
D03*
X84810Y117546D02*
D03*
X24258Y40554D02*
D03*
Y145554D02*
D03*
X84310Y144846D02*
D03*
X85027Y40046D02*
D03*
D198*
X197785Y175675D02*
D03*
Y171103D02*
D03*
X205405D02*
D03*
Y175675D02*
D03*
X180132D02*
D03*
Y171103D02*
D03*
X187752D02*
D03*
Y175675D02*
D03*
X215438D02*
D03*
Y171103D02*
D03*
X223058D02*
D03*
Y175675D02*
D03*
D199*
X214295Y194217D02*
D03*
D200*
X169464Y193963D02*
D03*
X149144D02*
D03*
X177719D02*
D03*
X157399D02*
D03*
X231650Y194225D02*
D03*
X223360D02*
D03*
D201*
X174713Y155748D02*
D03*
D202*
X177253D02*
D03*
X179793D02*
D03*
X182333D02*
D03*
D203*
X133570Y69125D02*
D03*
X141569D02*
D03*
X151077D02*
D03*
X154798D02*
D03*
X158715D02*
D03*
X162264D02*
D03*
X166221D02*
D03*
X169947D02*
D03*
X173668D02*
D03*
X178000D02*
D03*
X180500Y67025D02*
D03*
X182825Y64700D02*
D03*
X185158Y61967D02*
D03*
X189254Y59600D02*
D03*
X194039D02*
D03*
X198687D02*
D03*
X204429D02*
D03*
X210348D02*
D03*
X216460D02*
D03*
D204*
X227472Y91700D02*
D03*
X138354Y196478D02*
D03*
D205*
X131300Y66975D02*
D03*
Y68450D02*
D03*
Y69950D02*
D03*
X129800Y66975D02*
D03*
X129275Y125950D02*
D03*
X126825Y72950D02*
D03*
X126800Y74450D02*
D03*
X128325Y72950D02*
D03*
X128300Y74450D02*
D03*
X126825Y71450D02*
D03*
X133350Y29375D02*
D03*
X128825D02*
D03*
X130325D02*
D03*
X131850D02*
D03*
X131875Y27875D02*
D03*
X130350D02*
D03*
X128850D02*
D03*
X133375D02*
D03*
X131875Y26375D02*
D03*
X130350D02*
D03*
X128850D02*
D03*
X133375D02*
D03*
X131825Y24875D02*
D03*
X130300D02*
D03*
X128800D02*
D03*
X133325D02*
D03*
X131825Y23375D02*
D03*
X130300D02*
D03*
X128800D02*
D03*
X133325D02*
D03*
X131825Y21900D02*
D03*
X130300D02*
D03*
X128800D02*
D03*
X133325D02*
D03*
X131325Y74450D02*
D03*
X129825D02*
D03*
X129850Y72950D02*
D03*
X131350D02*
D03*
X129850Y71450D02*
D03*
X128325D02*
D03*
X131350D02*
D03*
X129800Y69950D02*
D03*
X128275D02*
D03*
X126775D02*
D03*
X129800Y68450D02*
D03*
X128275D02*
D03*
X126775D02*
D03*
X128275Y66975D02*
D03*
X126775D02*
D03*
X130800Y133425D02*
D03*
X126275D02*
D03*
X127775D02*
D03*
X129300D02*
D03*
X129325Y131925D02*
D03*
X127800D02*
D03*
X126300D02*
D03*
X130825D02*
D03*
X129325Y130425D02*
D03*
X127800D02*
D03*
X126300D02*
D03*
X130825D02*
D03*
X129275Y128925D02*
D03*
X127750D02*
D03*
X126250D02*
D03*
X130775D02*
D03*
X129275Y127425D02*
D03*
X127750D02*
D03*
X126250D02*
D03*
X130775D02*
D03*
X127750Y125950D02*
D03*
X126250D02*
D03*
X130775D02*
D03*
X131275Y172525D02*
D03*
X126750D02*
D03*
X128250D02*
D03*
X129775D02*
D03*
X131275Y174000D02*
D03*
X126750D02*
D03*
X128250D02*
D03*
X129775D02*
D03*
X131275Y175500D02*
D03*
X126750D02*
D03*
X128250D02*
D03*
X129775D02*
D03*
X131325Y177000D02*
D03*
X126800D02*
D03*
X128300D02*
D03*
X129825D02*
D03*
X131325Y178500D02*
D03*
X126800D02*
D03*
X128300D02*
D03*
X129825D02*
D03*
X129800Y180000D02*
D03*
X128275D02*
D03*
X126775D02*
D03*
X131300D02*
D03*
%TF.MD5,89c9b43b0a394ed399890da3d596a6c0*%
M02*
