%TF.GenerationSoftware,Altium Limited,Altium Designer,21.6.4 (81)*%
G04 Layer_Physical_Order=1*
G04 Layer_Color=255*
%FSLAX43Y43*%
%MOMM*%
%TF.SameCoordinates,B094594F-E5AE-4C03-B854-EF891E02AD71*%
%TF.FilePolarity,Positive*%
%TF.FileFunction,Copper,L1,Top,Signal*%
%TF.Part,Single*%
G01*
G75*
%TA.AperFunction,Conductor*%
%ADD10C,0.500*%
%TA.AperFunction,NonConductor*%
%ADD11C,7.620*%
%TA.AperFunction,SMDPad,CuDef*%
%ADD12R,2.500X5.500*%
%ADD13R,5.500X2.500*%
G04:AMPARAMS|DCode=14|XSize=5.5mm|YSize=2.5mm|CornerRadius=0mm|HoleSize=0mm|Usage=FLASHONLY|Rotation=225.000|XOffset=0mm|YOffset=0mm|HoleType=Round|Shape=Rectangle|*
%AMROTATEDRECTD14*
4,1,4,1.061,2.828,2.828,1.061,-1.061,-2.828,-2.828,-1.061,1.061,2.828,0.0*
%
%ADD14ROTATEDRECTD14*%

%ADD15R,9.500X3.750*%
%ADD16R,3.750X9.500*%
%ADD17R,0.600X0.600*%
%ADD18R,1.350X0.950*%
%ADD19R,1.508X1.157*%
%ADD20R,1.200X1.100*%
%ADD21R,0.900X0.850*%
%ADD22R,2.750X6.200*%
%ADD23R,2.000X4.000*%
%ADD24R,2.108X1.397*%
%TA.AperFunction,Conductor*%
%ADD25C,1.000*%
%ADD26C,1.300*%
%ADD27C,0.400*%
%ADD28C,0.300*%
%ADD29C,0.600*%
%ADD30C,0.500*%
%ADD31C,0.800*%
%ADD32C,0.990*%
%ADD33C,1.800*%
%ADD34C,0.900*%
%ADD35C,2.000*%
%ADD36C,2.200*%
%ADD37C,4.000*%
%ADD38C,1.500*%
%ADD39C,1.900*%
%ADD40C,1.200*%
%ADD41C,1.600*%
%ADD42C,3.000*%
%ADD43C,2.400*%
%ADD44R,2.500X5.500*%
%ADD45R,5.500X2.500*%
%ADD46R,4.350X11.075*%
%ADD47R,5.550X1.800*%
%ADD48R,2.571X9.584*%
%ADD49R,4.455X7.080*%
%ADD50R,8.025X5.450*%
%ADD51R,6.475X5.175*%
%ADD52R,19.812X10.160*%
G04:AMPARAMS|DCode=53|XSize=5.5mm|YSize=2.5mm|CornerRadius=0mm|HoleSize=0mm|Usage=FLASHONLY|Rotation=225.000|XOffset=0mm|YOffset=0mm|HoleType=Round|Shape=Rectangle|*
%AMROTATEDRECTD53*
4,1,4,1.061,2.828,2.828,1.061,-1.061,-2.828,-2.828,-1.061,1.061,2.828,0.0*
%
%ADD53ROTATEDRECTD53*%

%ADD54R,5.969X8.382*%
%TA.AperFunction,NonConductor*%
%ADD55R,5.969X8.382*%
%TA.AperFunction,ComponentPad*%
%ADD56C,2.286*%
%ADD57C,2.000*%
%ADD58C,1.950*%
G04:AMPARAMS|DCode=59|XSize=1.95mm|YSize=1.95mm|CornerRadius=0.488mm|HoleSize=0mm|Usage=FLASHONLY|Rotation=90.000|XOffset=0mm|YOffset=0mm|HoleType=Round|Shape=RoundedRectangle|*
%AMROUNDEDRECTD59*
21,1,1.950,0.975,0,0,90.0*
21,1,0.975,1.950,0,0,90.0*
1,1,0.975,0.488,0.488*
1,1,0.975,0.488,-0.488*
1,1,0.975,-0.488,-0.488*
1,1,0.975,-0.488,0.488*
%
%ADD59ROUNDEDRECTD59*%
%ADD60C,1.800*%
%ADD61C,2.200*%
%ADD62C,1.550*%
%ADD63R,1.550X1.550*%
%ADD64R,1.600X1.600*%
%ADD65C,1.600*%
%ADD66C,1.300*%
%ADD67R,1.300X1.300*%
%ADD68O,5.588X5.080*%
%ADD69C,2.500*%
%ADD70C,6.350*%
G04:AMPARAMS|DCode=71|XSize=1.95mm|YSize=1.95mm|CornerRadius=0.488mm|HoleSize=0mm|Usage=FLASHONLY|Rotation=0.000|XOffset=0mm|YOffset=0mm|HoleType=Round|Shape=RoundedRectangle|*
%AMROUNDEDRECTD71*
21,1,1.950,0.975,0,0,0.0*
21,1,0.975,1.950,0,0,0.0*
1,1,0.975,0.488,-0.488*
1,1,0.975,-0.488,-0.488*
1,1,0.975,-0.488,0.488*
1,1,0.975,0.488,0.488*
%
%ADD71ROUNDEDRECTD71*%
%ADD72C,1.524*%
%ADD73O,5.080X8.890*%
G04:AMPARAMS|DCode=74|XSize=1.6mm|YSize=1.6mm|CornerRadius=0.4mm|HoleSize=0mm|Usage=FLASHONLY|Rotation=270.000|XOffset=0mm|YOffset=0mm|HoleType=Round|Shape=RoundedRectangle|*
%AMROUNDEDRECTD74*
21,1,1.600,0.800,0,0,270.0*
21,1,0.800,1.600,0,0,270.0*
1,1,0.800,-0.400,-0.400*
1,1,0.800,-0.400,0.400*
1,1,0.800,0.400,0.400*
1,1,0.800,0.400,-0.400*
%
%ADD74ROUNDEDRECTD74*%
%ADD75O,4.826X6.350*%
%ADD76C,6.604*%
%ADD77O,1.524X2.032*%
%ADD78C,3.048*%
%ADD79R,1.550X1.550*%
%ADD80O,2.286X1.778*%
%ADD81C,4.572*%
%ADD82R,2.286X2.286*%
%ADD83R,1.200X1.200*%
%ADD84C,1.200*%
G04:AMPARAMS|DCode=85|XSize=1.6mm|YSize=1.6mm|CornerRadius=0.4mm|HoleSize=0mm|Usage=FLASHONLY|Rotation=180.000|XOffset=0mm|YOffset=0mm|HoleType=Round|Shape=RoundedRectangle|*
%AMROUNDEDRECTD85*
21,1,1.600,0.800,0,0,180.0*
21,1,0.800,1.600,0,0,180.0*
1,1,0.800,-0.400,0.400*
1,1,0.800,0.400,0.400*
1,1,0.800,0.400,-0.400*
1,1,0.800,-0.400,-0.400*
%
%ADD85ROUNDEDRECTD85*%
%ADD86R,1.500X1.500*%
%ADD87C,1.500*%
%TA.AperFunction,TestPad*%
%ADD88C,1.500*%
%ADD89C,0.700*%
%TA.AperFunction,ViaPad*%
%ADD90C,1.270*%
%ADD91C,0.500*%
%ADD92C,0.800*%
%ADD93C,1.000*%
%ADD94C,0.700*%
%ADD95C,1.500*%
G36*
X245188Y132525D02*
X225228D01*
Y162103D01*
X233700Y170575D01*
X245188D01*
Y132525D01*
D02*
G37*
G36*
X245114Y185736D02*
Y172786D01*
X232875Y172675D01*
X223075Y162875D01*
Y130950D01*
Y130640D01*
X225800D01*
Y130393D01*
X226313Y129880D01*
X227037D01*
X227550Y130393D01*
Y130640D01*
X227886D01*
X229276Y129250D01*
X245114D01*
Y14309D01*
X230555Y-250D01*
X13718Y-250D01*
X-120Y13587D01*
X-120Y186345D01*
X13535Y200000D01*
X230850D01*
X245114Y185736D01*
D02*
G37*
%LPC*%
G36*
X232962Y168442D02*
X232635D01*
X232319Y168357D01*
X232035Y168194D01*
X231804Y167962D01*
X231640Y167679D01*
X231556Y167363D01*
Y167035D01*
X231640Y166719D01*
X231804Y166436D01*
X232035Y166204D01*
X232319Y166041D01*
X232635Y165956D01*
X232962D01*
X233278Y166041D01*
X233562Y166204D01*
X233793Y166436D01*
X233957Y166719D01*
X233986Y166829D01*
X239291D01*
X239368Y166644D01*
X234278Y161555D01*
X234189Y161422D01*
X234158Y161266D01*
X234158Y161266D01*
Y154475D01*
X234142Y154459D01*
X234066Y154275D01*
Y154076D01*
X234142Y153892D01*
X234283Y153751D01*
X234467Y153675D01*
X234666D01*
X234849Y153751D01*
X234990Y153892D01*
X235066Y154076D01*
Y154275D01*
X234990Y154459D01*
X234974Y154475D01*
Y161097D01*
X240154Y166277D01*
X240160Y166273D01*
X240433Y166200D01*
X240717D01*
X240990Y166273D01*
X241235Y166415D01*
X241435Y166615D01*
X241577Y166860D01*
X241650Y167133D01*
Y167417D01*
X241577Y167690D01*
X241435Y167935D01*
X241235Y168135D01*
X240990Y168277D01*
X240717Y168350D01*
X240433D01*
X240160Y168277D01*
X239915Y168135D01*
X239715Y167935D01*
X239573Y167690D01*
X239561Y167645D01*
X233966D01*
X233957Y167679D01*
X233793Y167962D01*
X233562Y168194D01*
X233278Y168357D01*
X232962Y168442D01*
D02*
G37*
G36*
X241062Y158362D02*
X240087D01*
X239858Y158316D01*
X239664Y158186D01*
X239534Y157992D01*
X239488Y157763D01*
Y156788D01*
X239534Y156558D01*
X239664Y156364D01*
X239858Y156234D01*
X240087Y156189D01*
X241062D01*
X241292Y156234D01*
X241486Y156364D01*
X241616Y156558D01*
X241662Y156788D01*
Y157763D01*
X241616Y157992D01*
X241486Y158186D01*
X241292Y158316D01*
X241062Y158362D01*
D02*
G37*
G36*
X228914Y156443D02*
X228586D01*
X228270Y156358D01*
X227987Y156195D01*
X227755Y155963D01*
X227592Y155680D01*
X227507Y155364D01*
Y155036D01*
X227592Y154720D01*
X227755Y154437D01*
X227987Y154205D01*
X228270Y154042D01*
X228393Y154009D01*
Y147779D01*
X228420Y147643D01*
X228498Y147527D01*
X230075Y145949D01*
Y145855D01*
X230151Y145671D01*
X230292Y145530D01*
X230476Y145454D01*
X230674D01*
X230858Y145530D01*
X230999Y145671D01*
X231075Y145855D01*
Y146054D01*
X230999Y146237D01*
X230858Y146378D01*
X230674Y146454D01*
X230580D01*
X229107Y147927D01*
Y154009D01*
X229230Y154042D01*
X229513Y154205D01*
X229745Y154437D01*
X229908Y154720D01*
X229993Y155036D01*
Y155364D01*
X229908Y155680D01*
X229745Y155963D01*
X229513Y156195D01*
X229230Y156358D01*
X228914Y156443D01*
D02*
G37*
G36*
X237284Y145622D02*
X236957D01*
X236640Y145537D01*
X236357Y145374D01*
X236126Y145142D01*
X235962Y144859D01*
X235877Y144543D01*
Y144215D01*
X235962Y143899D01*
X236126Y143616D01*
X236357Y143384D01*
X236640Y143221D01*
X236957Y143136D01*
X237284D01*
X237600Y143221D01*
X237883Y143384D01*
X238115Y143616D01*
X238279Y143899D01*
X238363Y144215D01*
Y144543D01*
X238279Y144859D01*
X238115Y145142D01*
X237883Y145374D01*
X237600Y145537D01*
X237284Y145622D01*
D02*
G37*
G36*
X232849Y143317D02*
X232651D01*
X232467Y143241D01*
X232326Y143101D01*
X232250Y142917D01*
Y142718D01*
X232326Y142534D01*
X232467Y142394D01*
X232651Y142317D01*
X232849D01*
X233033Y142394D01*
X233100Y142461D01*
X234505D01*
X234532Y142261D01*
X234510Y142255D01*
X234227Y142091D01*
X233995Y141860D01*
X233832Y141576D01*
X233747Y141260D01*
Y140933D01*
X233832Y140617D01*
X233995Y140333D01*
X234227Y140102D01*
X234510Y139938D01*
X234826Y139854D01*
X235154D01*
X235470Y139938D01*
X235753Y140102D01*
X235985Y140333D01*
X236148Y140617D01*
X236233Y140933D01*
Y141260D01*
X236148Y141576D01*
X235985Y141860D01*
X235753Y142091D01*
X235470Y142255D01*
X235448Y142261D01*
X235475Y142461D01*
X235909D01*
X237277Y141092D01*
Y140997D01*
X237354Y140813D01*
X237494Y140673D01*
X237678Y140597D01*
X237877D01*
X238061Y140673D01*
X238201Y140813D01*
X238277Y140997D01*
Y141196D01*
X238201Y141380D01*
X238061Y141520D01*
X237877Y141597D01*
X237782D01*
X236309Y143070D01*
X236193Y143147D01*
X236057Y143174D01*
X233100D01*
X233033Y143241D01*
X232849Y143317D01*
D02*
G37*
G36*
X243862Y144999D02*
X243663D01*
X243479Y144923D01*
X243338Y144782D01*
X243262Y144598D01*
Y144504D01*
X238340Y139582D01*
X234000D01*
X233933Y139649D01*
X233749Y139725D01*
X233551D01*
X233367Y139649D01*
X233226Y139508D01*
X233150Y139324D01*
Y139126D01*
X233226Y138942D01*
X233367Y138801D01*
X233551Y138725D01*
X233749D01*
X233933Y138801D01*
X234000Y138868D01*
X238488D01*
X238625Y138895D01*
X238740Y138973D01*
X243767Y143999D01*
X243862D01*
X244045Y144075D01*
X244186Y144216D01*
X244262Y144399D01*
Y144598D01*
X244186Y144782D01*
X244045Y144923D01*
X243862Y144999D01*
D02*
G37*
G36*
X228243Y141021D02*
X227916D01*
X227599Y140936D01*
X227316Y140772D01*
X227085Y140541D01*
X226921Y140257D01*
X226836Y139941D01*
Y139614D01*
X226921Y139298D01*
X227085Y139014D01*
X227316Y138783D01*
X227599Y138619D01*
X227916Y138535D01*
X228243D01*
X228559Y138619D01*
X228842Y138783D01*
X229074Y139014D01*
X229238Y139298D01*
X229322Y139614D01*
Y139941D01*
X229238Y140257D01*
X229074Y140541D01*
X228842Y140772D01*
X228559Y140936D01*
X228243Y141021D01*
D02*
G37*
G36*
X226790Y136710D02*
X226560D01*
X226337Y136650D01*
X226138Y136535D01*
X225975Y136372D01*
X225860Y136173D01*
X225800Y135950D01*
Y135720D01*
X225860Y135497D01*
X225975Y135298D01*
X226138Y135135D01*
X226337Y135020D01*
X226560Y134960D01*
X226790D01*
X227013Y135020D01*
X227212Y135135D01*
X227375Y135298D01*
X227490Y135497D01*
X227550Y135720D01*
Y135950D01*
X227490Y136173D01*
X227375Y136372D01*
X227212Y136535D01*
X227013Y136650D01*
X226790Y136710D01*
D02*
G37*
G36*
X107333Y197891D02*
X106303D01*
X105575Y197163D01*
Y196133D01*
X106303Y195405D01*
X107333D01*
X108061Y196133D01*
Y197163D01*
X107333Y197891D01*
D02*
G37*
G36*
X136604Y198453D02*
X126904D01*
Y194503D01*
X136604D01*
Y195829D01*
X138354D01*
X138473Y195878D01*
X138602D01*
X138694Y195969D01*
X138813Y196019D01*
X138862Y196138D01*
X138954Y196229D01*
Y196359D01*
X139003Y196478D01*
X138954Y196597D01*
Y196727D01*
X138862Y196818D01*
X138813Y196937D01*
X138694Y196987D01*
X138602Y197078D01*
X138473D01*
X138354Y197127D01*
X136604D01*
Y198453D01*
D02*
G37*
G36*
X50121Y198475D02*
X48879D01*
X48639Y198236D01*
X48294D01*
X47375Y197855D01*
X43877Y194356D01*
X43210Y194081D01*
X42802Y193094D01*
X43210Y192107D01*
X43741Y191887D01*
Y191760D01*
X43703Y191745D01*
X41748D01*
X41659Y191835D01*
X41690Y196302D01*
X41689Y196303D01*
X41690Y196304D01*
X41611Y196495D01*
X41534Y196686D01*
X41533Y196686D01*
X41532Y196687D01*
X41443Y196777D01*
X41442Y196778D01*
X41442Y196779D01*
X41251Y196858D01*
X41061Y196937D01*
X41060Y196937D01*
X41059Y196937D01*
X17166D01*
X17166Y196937D01*
X16784Y196779D01*
X16784Y196779D01*
X3490Y183485D01*
X3412Y183297D01*
X3331Y183111D01*
X3252Y178182D01*
X3253Y178180D01*
X3252Y178178D01*
X3329Y177988D01*
X3405Y177797D01*
X3407Y177796D01*
X3408Y177794D01*
X3497Y177703D01*
X3499Y177702D01*
X3500Y177700D01*
X3689Y177622D01*
X3878Y177542D01*
X3880Y177543D01*
X3882Y177542D01*
X41022D01*
X41212Y177620D01*
X41402Y177698D01*
X41403Y177699D01*
X41405Y177700D01*
X41483Y177890D01*
X41563Y178079D01*
X41641Y189363D01*
X43703D01*
X44121Y189190D01*
Y189053D01*
X43440Y188771D01*
X43127Y188014D01*
X43440Y187257D01*
X44197Y186944D01*
X44611D01*
X50181Y181373D01*
X50185Y181360D01*
X50159Y181227D01*
X49992Y181158D01*
X49992Y181158D01*
X49834Y180775D01*
Y172850D01*
X49992Y172467D01*
X50375Y172309D01*
X95825Y172309D01*
X98400D01*
Y172065D01*
X98725D01*
X98787Y172004D01*
X99449D01*
X99511Y172065D01*
X99814D01*
Y172079D01*
X109602D01*
X109602Y172079D01*
X109870Y172190D01*
X110046Y172366D01*
X110046Y172366D01*
X110157Y172634D01*
X110157Y172634D01*
Y176637D01*
X110157Y176637D01*
X110046Y176905D01*
X110046Y176905D01*
X109870Y177080D01*
X109716Y177144D01*
Y180775D01*
X109558Y181158D01*
X109558Y181158D01*
X109175Y181316D01*
X91332Y181316D01*
X91279Y181443D01*
X97394Y187558D01*
X99699D01*
X100155Y187746D01*
X100343Y188202D01*
X100155Y188657D01*
X99699Y188846D01*
X97193D01*
X97141Y188973D01*
X98665Y190497D01*
X99512D01*
X99530Y190505D01*
X99823D01*
X100029Y190712D01*
X100048Y190719D01*
X100055Y190738D01*
X100262Y190944D01*
Y191236D01*
X100270Y191255D01*
X100262Y191273D01*
Y191566D01*
X100055Y191772D01*
X100048Y191791D01*
X100029Y191798D01*
X99823Y192005D01*
X99530D01*
X99512Y192013D01*
X98351D01*
X97816Y191791D01*
X94159Y188134D01*
X94099D01*
X93917Y187952D01*
X93895Y187943D01*
X89869Y183917D01*
X66997D01*
X65075Y185840D01*
Y186319D01*
X65558Y186519D01*
X65966Y187506D01*
X65558Y188493D01*
X65244Y188623D01*
X65268Y188747D01*
X67331D01*
Y184966D01*
X67489Y184583D01*
X67872Y184425D01*
X87684D01*
X88067Y184583D01*
X88225Y184966D01*
Y195126D01*
X88067Y195509D01*
X87684Y195667D01*
X67872D01*
X67489Y195509D01*
X67331Y195126D01*
Y191345D01*
X64804D01*
X64647Y191410D01*
Y191547D01*
X65328Y191829D01*
X65641Y192586D01*
X65445Y193061D01*
X65447Y193067D01*
Y193956D01*
X68477Y196986D01*
X89421D01*
X92016Y194391D01*
X92475Y194201D01*
X99943D01*
X100402Y194391D01*
X100592Y194850D01*
X100402Y195309D01*
X99943Y195499D01*
X92744D01*
X90149Y198094D01*
X89690Y198285D01*
X68208D01*
X67749Y198094D01*
X64339Y194684D01*
X64148Y194225D01*
Y193656D01*
X64063D01*
X63306Y193343D01*
X62993Y192586D01*
X63306Y191829D01*
X63987Y191547D01*
Y191410D01*
X63830Y191345D01*
X60500D01*
Y191421D01*
X60299Y191622D01*
Y191862D01*
X64212Y195775D01*
X64213D01*
X64975Y196537D01*
Y197613D01*
X64213Y198375D01*
X63137D01*
X62375Y197613D01*
Y197612D01*
X58082Y193318D01*
X57701Y192400D01*
Y191622D01*
X57500Y191421D01*
Y190179D01*
X57855Y189824D01*
X58082Y189277D01*
X58174Y189238D01*
X58285Y189128D01*
X59203Y188747D01*
X63366D01*
X63390Y188623D01*
X63076Y188493D01*
X62668Y187506D01*
X63076Y186519D01*
X63559Y186319D01*
Y185526D01*
X63781Y184990D01*
X66148Y182624D01*
X66329Y182549D01*
X66304Y182424D01*
X50952D01*
X45654Y187721D01*
X45775Y188014D01*
X45462Y188771D01*
X44781Y189053D01*
Y189190D01*
X45199Y189363D01*
X48540D01*
X48879Y189025D01*
X49316D01*
X54757Y183585D01*
X54757Y183585D01*
X55598Y183236D01*
X57993D01*
X58379Y182850D01*
X59621D01*
X60500Y183729D01*
Y184971D01*
X59621Y185850D01*
X58379D01*
X58146Y185617D01*
X56092D01*
X51000Y190709D01*
Y191146D01*
X50121Y192025D01*
X48879D01*
X48598Y191745D01*
X45199D01*
X45161Y191760D01*
Y191887D01*
X45692Y192107D01*
X45967Y192774D01*
X48774Y195580D01*
X48879Y195475D01*
X50121D01*
X50422Y195776D01*
X53135D01*
X53137Y195775D01*
X54213D01*
X54975Y196537D01*
Y197613D01*
X54213Y198375D01*
X53137D01*
X53135Y198374D01*
X50222D01*
X50121Y198475D01*
D02*
G37*
G36*
X229462Y195075D02*
X228758D01*
X228260Y194577D01*
Y193873D01*
X228758Y193375D01*
X229462D01*
X229960Y193873D01*
Y194577D01*
X229462Y195075D01*
D02*
G37*
G36*
X221172D02*
X220468D01*
X219970Y194577D01*
Y193873D01*
X220468Y193375D01*
X221172D01*
X221670Y193873D01*
Y194577D01*
X221172Y195075D01*
D02*
G37*
G36*
X212128Y195117D02*
X211382D01*
X210855Y194590D01*
Y193844D01*
X211382Y193317D01*
X212128D01*
X212655Y193844D01*
Y194590D01*
X212128Y195117D01*
D02*
G37*
G36*
X209588D02*
X208842D01*
X208315Y194590D01*
Y193844D01*
X208842Y193317D01*
X209588D01*
X210115Y193844D01*
Y194590D01*
X209588Y195117D01*
D02*
G37*
G36*
X207048D02*
X206302D01*
X205775Y194590D01*
Y193844D01*
X206302Y193317D01*
X207048D01*
X207575Y193844D01*
Y194590D01*
X207048Y195117D01*
D02*
G37*
G36*
X175531Y194813D02*
X174827D01*
X174329Y194315D01*
Y193611D01*
X174827Y193113D01*
X175531D01*
X176029Y193611D01*
Y194315D01*
X175531Y194813D01*
D02*
G37*
G36*
X167276D02*
X166572D01*
X166074Y194315D01*
Y193611D01*
X166572Y193113D01*
X167276D01*
X167774Y193611D01*
Y194315D01*
X167276Y194813D01*
D02*
G37*
G36*
X155211D02*
X154507D01*
X154009Y194315D01*
Y193611D01*
X154507Y193113D01*
X155211D01*
X155709Y193611D01*
Y194315D01*
X155211Y194813D01*
D02*
G37*
G36*
X146956D02*
X146252D01*
X145754Y194315D01*
Y193611D01*
X146252Y193113D01*
X146956D01*
X147454Y193611D01*
Y194315D01*
X146956Y194813D01*
D02*
G37*
G36*
X104208Y194724D02*
X103178D01*
X102450Y193996D01*
Y192966D01*
X103178Y192238D01*
X104208D01*
X104936Y192966D01*
Y193996D01*
X104208Y194724D01*
D02*
G37*
G36*
X136604Y192203D02*
X126904D01*
Y190491D01*
X115649D01*
Y190612D01*
X112949D01*
Y190552D01*
X112921Y190484D01*
Y184984D01*
X112949Y184917D01*
Y184912D01*
X112951D01*
X112953Y184908D01*
X113029Y184876D01*
X115529D01*
X115606Y184908D01*
X115694Y184830D01*
X117733Y182792D01*
X117733Y182792D01*
X118115Y182634D01*
X118115Y182634D01*
X119275D01*
X119374Y182675D01*
X119482D01*
X119558Y182751D01*
X119658Y182792D01*
X119699Y182892D01*
X119775Y182968D01*
Y183075D01*
X119816Y183175D01*
X119775Y183274D01*
Y183382D01*
X119699Y183458D01*
X119658Y183557D01*
X119558Y183599D01*
X119482Y183675D01*
X119374D01*
X119275Y183716D01*
X118340D01*
X115649Y186407D01*
Y189409D01*
X126904D01*
Y188253D01*
X136604D01*
Y192203D01*
D02*
G37*
G36*
X104208Y190331D02*
X103178D01*
X102450Y189603D01*
Y188573D01*
X103178Y187845D01*
X104208D01*
X104936Y188573D01*
Y189603D01*
X104208Y190331D01*
D02*
G37*
G36*
X242100Y188525D02*
X240350D01*
Y186775D01*
X242100D01*
Y188525D01*
D02*
G37*
G36*
X174228Y187805D02*
X172828D01*
Y186405D01*
X174228D01*
Y187805D01*
D02*
G37*
G36*
X164195D02*
X162795D01*
Y186405D01*
X164195D01*
Y187805D01*
D02*
G37*
G36*
X153908D02*
X152508D01*
Y186405D01*
X153908D01*
Y187805D01*
D02*
G37*
G36*
X143875D02*
X142475D01*
Y186405D01*
X143875D01*
Y187805D01*
D02*
G37*
G36*
X211755Y189097D02*
X211296Y188907D01*
X211106Y188448D01*
Y187100D01*
X211055D01*
Y185800D01*
X212455D01*
Y187100D01*
X212405D01*
Y188448D01*
X212215Y188907D01*
X211755Y189097D01*
D02*
G37*
G36*
X209215D02*
X208756Y188907D01*
X208566Y188448D01*
Y187100D01*
X208515D01*
Y185800D01*
X209915D01*
Y187100D01*
X209865D01*
Y188448D01*
X209675Y188907D01*
X209215Y189097D01*
D02*
G37*
G36*
X206675D02*
X206216Y188907D01*
X206026Y188448D01*
Y187100D01*
X205975D01*
Y185800D01*
X207375D01*
Y187100D01*
X207325D01*
Y188448D01*
X207135Y188907D01*
X206675Y189097D01*
D02*
G37*
G36*
X215620Y187225D02*
X214220D01*
Y185925D01*
X215620D01*
Y185925D01*
X216629D01*
Y185798D01*
X218337D01*
Y187154D01*
X216629D01*
Y187008D01*
X215620D01*
Y187225D01*
D02*
G37*
G36*
X135865Y186918D02*
X134835D01*
X134107Y186190D01*
Y185160D01*
X134835Y184432D01*
X135865D01*
X136593Y185160D01*
Y186190D01*
X135865Y186918D01*
D02*
G37*
G36*
X182199Y197543D02*
X181169D01*
X180576Y196949D01*
X144650D01*
X144191Y196759D01*
X143605Y196173D01*
X143415Y195714D01*
Y194516D01*
X143214Y194315D01*
Y193611D01*
X143712Y193113D01*
X144416D01*
X144914Y193611D01*
Y194315D01*
X144714Y194516D01*
Y195445D01*
X144919Y195651D01*
X151744D01*
Y194590D01*
X151469Y194315D01*
Y193611D01*
X151967Y193113D01*
X152671D01*
X153169Y193611D01*
Y194315D01*
X153043Y194442D01*
Y195651D01*
X163735D01*
Y194516D01*
X163534Y194315D01*
Y193611D01*
X164032Y193113D01*
X164736D01*
X165234Y193611D01*
Y194315D01*
X165033Y194516D01*
Y195651D01*
X171990D01*
Y194516D01*
X171789Y194315D01*
Y193611D01*
X172287Y193113D01*
X172991D01*
X173489Y193611D01*
Y194315D01*
X173288Y194516D01*
Y195651D01*
X180576D01*
X181169Y195057D01*
X182199D01*
X182792Y195651D01*
X187865D01*
Y194551D01*
X187639Y194325D01*
Y193601D01*
X188152Y193088D01*
X188876D01*
X189389Y193601D01*
Y194325D01*
X189163Y194551D01*
Y195651D01*
X203486D01*
Y194840D01*
X203235Y194590D01*
Y193844D01*
X203762Y193317D01*
X204508D01*
X205035Y193844D01*
Y194590D01*
X204785Y194840D01*
Y195651D01*
X215579D01*
Y191277D01*
X215770Y190818D01*
X219002Y187585D01*
Y183101D01*
X217101Y181199D01*
X207700D01*
X207241Y181009D01*
X207051Y180550D01*
X207241Y180091D01*
X207700Y179901D01*
X217370D01*
X217829Y180091D01*
X220111Y182372D01*
X220301Y182832D01*
Y187854D01*
X220111Y188314D01*
X216878Y191546D01*
Y195651D01*
X217631D01*
Y194778D01*
X217430Y194577D01*
Y193873D01*
X217928Y193375D01*
X218632D01*
X219130Y193873D01*
Y194577D01*
X218929Y194778D01*
Y195651D01*
X225921D01*
Y194778D01*
X225720Y194577D01*
Y193873D01*
X226218Y193375D01*
X226922D01*
X227420Y193873D01*
Y194577D01*
X227219Y194778D01*
Y195651D01*
X232593D01*
X234177Y194067D01*
Y190907D01*
X233584Y190313D01*
Y189283D01*
X234312Y188555D01*
X234889D01*
X238724Y184720D01*
X239183Y184530D01*
X240567D01*
X240863Y184235D01*
X241587D01*
X242100Y184748D01*
Y185472D01*
X241587Y185985D01*
X240863D01*
X240707Y185829D01*
X239452D01*
X236034Y189247D01*
X236070Y189283D01*
Y190313D01*
X235476Y190907D01*
Y194336D01*
X235286Y194795D01*
X233322Y196759D01*
X232862Y196949D01*
X218280D01*
X218280Y196949D01*
X204135D01*
X204135Y196949D01*
X188514D01*
X188514Y196949D01*
X182792D01*
X182199Y197543D01*
D02*
G37*
G36*
X233515Y183813D02*
X232485D01*
X231757Y183085D01*
Y182949D01*
X226368D01*
X226368Y182949D01*
X226100Y182838D01*
X226100Y182838D01*
X219234Y175972D01*
X219123Y175704D01*
X219123Y175704D01*
Y167184D01*
X203932Y151993D01*
X203821Y151725D01*
X203821Y151725D01*
Y139954D01*
X187141D01*
X186873Y139843D01*
X186873Y139843D01*
X181217Y134187D01*
X181106Y133919D01*
X181106Y133919D01*
Y129414D01*
X181058Y129366D01*
Y128993D01*
X181321Y128730D01*
X181694D01*
X181958Y128993D01*
Y129366D01*
X181864Y129460D01*
Y133762D01*
X187298Y139196D01*
X203821D01*
Y124898D01*
X203821Y124898D01*
X203932Y124630D01*
X204741Y123821D01*
X204692Y123704D01*
X204530D01*
X203329Y124905D01*
Y132242D01*
X203400Y132314D01*
Y132686D01*
X203136Y132950D01*
X202764D01*
X202581Y132767D01*
X202454Y132820D01*
Y136081D01*
X202343Y136348D01*
X202343Y136348D01*
X200273Y138418D01*
X200006Y138529D01*
X200006Y138529D01*
X195553D01*
X195432Y138650D01*
X195018D01*
X194725Y138357D01*
Y137943D01*
X195018Y137650D01*
X195432D01*
X195553Y137771D01*
X199849D01*
X201696Y135924D01*
Y124318D01*
X201696Y124318D01*
X201807Y124050D01*
X203875Y121982D01*
X203875Y121982D01*
X204143Y121871D01*
X232887D01*
X232898Y121856D01*
X232830Y121729D01*
X229169D01*
X228748Y121554D01*
X228661Y121344D01*
X228649Y121332D01*
Y121315D01*
X228574Y121133D01*
X228649Y120951D01*
Y120918D01*
X228673Y120894D01*
X228748Y120712D01*
X228930Y120637D01*
X228942Y120625D01*
X228960D01*
X229169Y120538D01*
X240780D01*
Y105700D01*
X238150D01*
Y103000D01*
X238210D01*
X238278Y102972D01*
X238401D01*
Y96325D01*
X231725D01*
Y92375D01*
X241425D01*
Y96325D01*
X239699D01*
Y102972D01*
X243778D01*
X243846Y103000D01*
X243850D01*
Y103002D01*
X243855Y103004D01*
X243886Y103080D01*
Y105580D01*
X243855Y105657D01*
X243850Y105658D01*
Y105700D01*
X241970D01*
Y121142D01*
X241796Y121563D01*
X241375Y121737D01*
X241355Y121729D01*
X233697D01*
X233644Y121856D01*
X233831Y122043D01*
Y122457D01*
X233538Y122750D01*
X233124D01*
X233003Y122629D01*
X204300D01*
X202454Y124475D01*
Y124699D01*
X202581Y124725D01*
X202682Y124480D01*
X204105Y123057D01*
X204105Y123057D01*
X204373Y122946D01*
X204373Y122946D01*
X236351D01*
X236351Y122946D01*
X236619Y123057D01*
X237566Y124004D01*
X237737D01*
X238030Y124297D01*
Y124711D01*
X237737Y125004D01*
X237323D01*
X237030Y124711D01*
Y124540D01*
X236194Y123704D01*
X232756D01*
X232707Y123821D01*
X233736Y124850D01*
X233907D01*
X234200Y125143D01*
Y125557D01*
X233907Y125850D01*
X233493D01*
X233200Y125557D01*
Y125386D01*
X232118Y124304D01*
X205330D01*
X204579Y125055D01*
Y139518D01*
X204579Y139518D01*
X204579Y139518D01*
Y151568D01*
X219770Y166759D01*
X219770Y166759D01*
X219881Y167027D01*
X219881Y167027D01*
Y175547D01*
X226525Y182191D01*
X231757D01*
Y182055D01*
X232485Y181327D01*
X233515D01*
X234108Y181921D01*
X240637D01*
X240863Y181695D01*
X241587D01*
X242100Y182208D01*
Y182932D01*
X241587Y183445D01*
X240863D01*
X240637Y183219D01*
X234108D01*
X233515Y183813D01*
D02*
G37*
G36*
X105016Y184543D02*
X103986D01*
X103258Y183815D01*
Y182785D01*
X103986Y182057D01*
X105016D01*
X105744Y182785D01*
Y183815D01*
X105016Y184543D01*
D02*
G37*
G36*
X176358Y187805D02*
X175778D01*
X175368Y187395D01*
Y186815D01*
X175419Y186764D01*
Y184022D01*
X174825Y183429D01*
Y182399D01*
X174883Y182341D01*
X164916Y172374D01*
X160645D01*
X160578Y172441D01*
X160164D01*
X159871Y172149D01*
Y171734D01*
X160164Y171441D01*
X160578D01*
X160645Y171508D01*
X165095D01*
X165402Y171635D01*
X175495Y181729D01*
X175553Y181671D01*
X176583D01*
X177311Y182399D01*
Y183429D01*
X176717Y184022D01*
Y186764D01*
X176768Y186815D01*
Y187395D01*
X176358Y187805D01*
D02*
G37*
G36*
X171630Y184157D02*
X170600D01*
X169872Y183429D01*
Y182399D01*
X170600Y181671D01*
X171630D01*
X172358Y182399D01*
Y183429D01*
X171630Y184157D01*
D02*
G37*
G36*
X166325Y187805D02*
X165745D01*
X165335Y187395D01*
Y187323D01*
X163725Y185714D01*
X163535Y185255D01*
Y182914D01*
X163725Y182455D01*
X164185Y182265D01*
X164927D01*
X165520Y181671D01*
X166550D01*
X167278Y182399D01*
Y183429D01*
X166550Y184157D01*
X165520D01*
X164961Y183598D01*
X164834Y183647D01*
Y184986D01*
X166254Y186405D01*
X166325D01*
X166735Y186815D01*
Y187395D01*
X166325Y187805D01*
D02*
G37*
G36*
X160708Y184157D02*
X159678D01*
X158950Y183429D01*
Y182399D01*
X159678Y181671D01*
X160708D01*
X161436Y182399D01*
Y183429D01*
X160708Y184157D01*
D02*
G37*
G36*
X156038Y187805D02*
X155458D01*
X155048Y187395D01*
Y186815D01*
X155099Y186764D01*
Y184022D01*
X154505Y183429D01*
Y182399D01*
X155233Y181671D01*
X156263D01*
X156991Y182399D01*
Y183429D01*
X156398Y184022D01*
Y186764D01*
X156448Y186815D01*
Y187395D01*
X156038Y187805D01*
D02*
G37*
G36*
X146005D02*
X145425D01*
X145015Y187395D01*
Y186815D01*
X145066Y186764D01*
Y184022D01*
X144472Y183429D01*
Y182399D01*
X145200Y181671D01*
X146230D01*
X146958Y182399D01*
Y183429D01*
X146365Y184022D01*
Y186764D01*
X146415Y186815D01*
Y187395D01*
X146005Y187805D01*
D02*
G37*
G36*
X218337Y185002D02*
X216629D01*
Y183646D01*
X216656D01*
Y183317D01*
X215770Y182430D01*
X215579Y181971D01*
X215770Y181512D01*
X216229Y181322D01*
X216688Y181512D01*
X217765Y182589D01*
X217955Y183048D01*
Y183646D01*
X218337D01*
Y185002D01*
D02*
G37*
G36*
X153318Y181154D02*
X152945D01*
X152682Y180891D01*
Y180518D01*
X152945Y180254D01*
X153318D01*
X153320Y180257D01*
X157877D01*
X157909Y180225D01*
X158281D01*
X158545Y180489D01*
Y180861D01*
X158281Y181125D01*
X157909D01*
X157906Y181123D01*
X153350D01*
X153318Y181154D01*
D02*
G37*
G36*
X231272Y181058D02*
X230242D01*
X229514Y180330D01*
Y179300D01*
X229764Y179050D01*
X224458Y173744D01*
X221740D01*
X221740Y173744D01*
X221472Y173633D01*
X221472Y173633D01*
X220407Y172568D01*
X220296Y172300D01*
X220296Y172300D01*
Y166457D01*
X205814Y151975D01*
X205643D01*
X205350Y151682D01*
Y151268D01*
X205643Y150975D01*
X206057D01*
X206350Y151268D01*
Y151439D01*
X220943Y166032D01*
X220943Y166032D01*
X221054Y166300D01*
X221054Y166300D01*
Y172143D01*
X221897Y172986D01*
X224615D01*
X224615Y172986D01*
X224883Y173097D01*
X230358Y178572D01*
X231272D01*
X232000Y179300D01*
Y179651D01*
X240366D01*
X240863Y179155D01*
X241587D01*
X242100Y179668D01*
Y180392D01*
X241587Y180905D01*
X240863D01*
X240366Y180409D01*
X231921D01*
X231272Y181058D01*
D02*
G37*
G36*
X241587Y178365D02*
X240863D01*
X240366Y177869D01*
X233449D01*
X233181Y177758D01*
X233181Y177758D01*
X232913Y177489D01*
X232816Y177585D01*
X231787D01*
X231059Y176857D01*
Y175827D01*
X231155Y175731D01*
X226477Y171053D01*
X226366Y170786D01*
X226366Y170786D01*
Y168502D01*
X214582Y156718D01*
X214471Y156450D01*
X214471Y156450D01*
Y149204D01*
X213996D01*
Y147848D01*
X215704D01*
Y149204D01*
X215229D01*
Y156293D01*
X227013Y168077D01*
X227013Y168077D01*
X227124Y168345D01*
X227124Y168345D01*
Y170629D01*
X231691Y175196D01*
X231787Y175099D01*
X232816D01*
X233545Y175827D01*
Y176857D01*
X233448Y176953D01*
X233606Y177111D01*
X240366D01*
X240863Y176615D01*
X241587D01*
X242100Y177128D01*
Y177852D01*
X241587Y178365D01*
D02*
G37*
G36*
X174155Y174924D02*
X173409D01*
X172882Y174397D01*
Y173651D01*
X173409Y173124D01*
X174155D01*
X174682Y173651D01*
Y174397D01*
X174155Y174924D01*
D02*
G37*
G36*
X154597D02*
X153851D01*
X153324Y174397D01*
Y173651D01*
X153851Y173124D01*
X154597D01*
X155124Y173651D01*
Y174397D01*
X154597Y174924D01*
D02*
G37*
G36*
X191417Y194838D02*
X190692D01*
X190179Y194325D01*
Y193601D01*
X190675Y193104D01*
Y190086D01*
X190350Y189761D01*
X190239Y189493D01*
X190239Y189493D01*
Y171482D01*
X189643D01*
Y171952D01*
X188995D01*
Y172346D01*
X186509D01*
Y169860D01*
X188995D01*
Y170355D01*
X189643D01*
Y170724D01*
X190239D01*
Y146259D01*
X190118Y146138D01*
Y145765D01*
X190382Y145502D01*
X190754D01*
X191018Y145765D01*
Y146138D01*
X190997Y146159D01*
Y171103D01*
X190975Y171156D01*
X190997Y171209D01*
Y189336D01*
X191322Y189661D01*
X191322Y189661D01*
X191433Y189929D01*
Y193104D01*
X191929Y193601D01*
Y194325D01*
X191417Y194838D01*
D02*
G37*
G36*
X186849D02*
X185099D01*
Y193088D01*
X185595D01*
Y174281D01*
X181492Y170178D01*
X181375Y170227D01*
Y172346D01*
X178889D01*
Y171952D01*
X178241D01*
Y170355D01*
X178889D01*
Y169860D01*
X181008D01*
X181057Y169743D01*
X180096Y168782D01*
X179925D01*
X179632Y168489D01*
Y168318D01*
X175436Y164122D01*
X175340Y164218D01*
X174310D01*
X173582Y163490D01*
Y162460D01*
X174310Y161732D01*
X174446D01*
Y156623D01*
X173838D01*
Y154873D01*
X174334D01*
Y148600D01*
X173838D01*
Y146850D01*
X175588D01*
Y148600D01*
X175092D01*
Y154873D01*
X175588D01*
Y156623D01*
X175204D01*
Y161732D01*
X175340D01*
X176068Y162460D01*
Y163490D01*
X175972Y163586D01*
X180168Y167782D01*
X180339D01*
X180632Y168075D01*
Y168246D01*
X186242Y173856D01*
X186242Y173856D01*
X186353Y174124D01*
Y193088D01*
X186849D01*
Y194838D01*
D02*
G37*
G36*
X224301Y172346D02*
X221815D01*
Y169860D01*
X224301D01*
Y170355D01*
X224949D01*
Y171952D01*
X224301D01*
Y172346D01*
D02*
G37*
G36*
X193956Y194838D02*
X193232D01*
X192719Y194325D01*
Y193601D01*
X193215Y193104D01*
Y171572D01*
X193215Y171572D01*
X193326Y171304D01*
X193795Y170835D01*
X193795Y170835D01*
X194063Y170724D01*
X195894D01*
Y170355D01*
X196542D01*
Y169860D01*
X199028D01*
Y170724D01*
X204162D01*
Y169860D01*
X206648D01*
Y170355D01*
X207296D01*
Y171952D01*
X206648D01*
Y172346D01*
X204162D01*
Y171482D01*
X199028D01*
Y172346D01*
X196542D01*
Y171952D01*
X195894D01*
Y171482D01*
X194220D01*
X193973Y171729D01*
Y193104D01*
X194469Y193601D01*
Y194325D01*
X193956Y194838D01*
D02*
G37*
G36*
X97665Y171593D02*
X96635D01*
X95907Y170865D01*
Y169835D01*
X96635Y169107D01*
X97665D01*
X98393Y169835D01*
Y170865D01*
X97665Y171593D01*
D02*
G37*
G36*
X125733Y171116D02*
X124703D01*
X123975Y170388D01*
Y169358D01*
X124703Y168630D01*
X125733D01*
X126461Y169358D01*
Y170388D01*
X125733Y171116D01*
D02*
G37*
G36*
X41022Y175576D02*
X3745D01*
X3362Y175417D01*
X3204Y175034D01*
Y157019D01*
X3362Y156637D01*
X3745Y156478D01*
X41022D01*
X41405Y156637D01*
X41563Y157019D01*
Y161863D01*
X43703D01*
X44121Y161690D01*
Y161553D01*
X43440Y161271D01*
X43127Y160514D01*
X43440Y159757D01*
X44197Y159444D01*
X44680D01*
X50494Y153629D01*
X50915Y153455D01*
X96468D01*
X96889Y153629D01*
X100189Y156929D01*
X100363Y157350D01*
X100189Y157771D01*
X99768Y157945D01*
X99347Y157771D01*
X96221Y154645D01*
X51162D01*
X45634Y160173D01*
X45775Y160514D01*
X45462Y161271D01*
X44781Y161553D01*
Y161690D01*
X45199Y161863D01*
X48690D01*
X48879Y161675D01*
X49316D01*
X54407Y156585D01*
X54407Y156585D01*
X55248Y156236D01*
X57993D01*
X58379Y155850D01*
X59621D01*
X60500Y156729D01*
Y157971D01*
X59621Y158850D01*
X58379D01*
X58146Y158617D01*
X55742D01*
X52613Y161746D01*
X52661Y161863D01*
X53008D01*
X53361Y161511D01*
X54639D01*
X55543Y162415D01*
Y163693D01*
X54639Y164597D01*
X53361D01*
X53008Y164245D01*
X50552D01*
X50121Y164675D01*
X48879D01*
X48448Y164245D01*
X45199D01*
X45161Y164260D01*
Y164387D01*
X45692Y164607D01*
X46100Y165594D01*
X45893Y166095D01*
Y166381D01*
X47800Y168288D01*
X48716D01*
X48879Y168125D01*
X50121D01*
X50372Y168376D01*
X53135D01*
X53137Y168375D01*
X54213D01*
X54975Y169137D01*
Y170213D01*
X54213Y170975D01*
X53137D01*
X53135Y170974D01*
X50272D01*
X50121Y171125D01*
X48879D01*
X48639Y170886D01*
X47262D01*
X46343Y170505D01*
X43676Y167837D01*
X43295Y166919D01*
Y166616D01*
X43210Y166581D01*
X42802Y165594D01*
X43210Y164607D01*
X43636Y164431D01*
X43662Y164283D01*
X43621Y164245D01*
X41563D01*
Y175034D01*
X41405Y175417D01*
X41022Y175576D01*
D02*
G37*
G36*
X210486Y168949D02*
X195119D01*
X194659Y168759D01*
X194469Y168300D01*
X194659Y167841D01*
X195119Y167651D01*
X210485D01*
X210487Y167650D01*
X210946Y167840D01*
X211137Y168299D01*
X210946Y168758D01*
X210946Y168759D01*
X210486Y168949D01*
D02*
G37*
G36*
X161827Y177344D02*
X161454D01*
X161191Y177081D01*
Y177057D01*
X158824Y174690D01*
X158697Y174384D01*
Y167935D01*
X158680Y167918D01*
Y167545D01*
X158943Y167282D01*
X159316D01*
X159580Y167545D01*
Y167918D01*
X159563Y167935D01*
Y174204D01*
X161803Y176444D01*
X161827D01*
X162091Y176708D01*
Y177081D01*
X161827Y177344D01*
D02*
G37*
G36*
X129740Y169355D02*
X128710D01*
X127982Y168627D01*
Y167597D01*
X128710Y166869D01*
X129740D01*
X130468Y167597D01*
Y168627D01*
X129740Y169355D01*
D02*
G37*
G36*
X196497Y194838D02*
X195772D01*
X195259Y194325D01*
Y193601D01*
X195755Y193104D01*
Y188241D01*
X195755Y188241D01*
X195866Y187973D01*
X205357Y178482D01*
X205357Y178482D01*
X205625Y178371D01*
X207418D01*
X209221Y176568D01*
Y173578D01*
X209221Y173578D01*
X209332Y173310D01*
X211807Y170835D01*
X211807Y170835D01*
X212075Y170724D01*
X213547D01*
Y170355D01*
X214195D01*
Y169860D01*
X215059D01*
Y169320D01*
X211918Y166179D01*
X208100D01*
X208100Y166179D01*
X207832Y166068D01*
X207832Y166068D01*
X197207Y155443D01*
X197096Y155175D01*
X197096Y155175D01*
Y145955D01*
X194773Y143633D01*
X186874D01*
X186606Y143522D01*
X186606Y143522D01*
X178825Y135741D01*
X178714Y135473D01*
X178714Y135473D01*
Y130933D01*
X178643Y130861D01*
Y130489D01*
X178907Y130225D01*
X179279D01*
X179543Y130489D01*
Y130861D01*
X179472Y130933D01*
Y135316D01*
X187031Y142875D01*
X194930D01*
X194930Y142875D01*
X195198Y142986D01*
X197743Y145531D01*
X197743Y145531D01*
X197854Y145798D01*
Y155018D01*
X208257Y165421D01*
X212075D01*
X212075Y165421D01*
X212343Y165532D01*
X215706Y168895D01*
X215706Y168895D01*
X215817Y169163D01*
X215817Y169163D01*
Y169860D01*
X216681D01*
Y172346D01*
X214195D01*
Y172211D01*
X213961Y172114D01*
X213894Y171952D01*
X213547D01*
Y171482D01*
X212232D01*
X209979Y173735D01*
Y176725D01*
X209979Y176725D01*
X209868Y176993D01*
X209868Y176993D01*
X207843Y179018D01*
X207575Y179129D01*
X207575Y179129D01*
X205782D01*
X196513Y188398D01*
Y193104D01*
X197009Y193601D01*
Y194325D01*
X196497Y194838D01*
D02*
G37*
G36*
X211194Y164543D02*
X210780D01*
X210602Y164364D01*
X210435D01*
X210435Y164364D01*
X210168Y164253D01*
X210168Y164253D01*
X198607Y152693D01*
X198496Y152425D01*
X198496Y152425D01*
Y145507D01*
X195129Y142140D01*
X194958D01*
X194665Y141847D01*
Y141676D01*
X194433Y141444D01*
X186633D01*
X186633Y141444D01*
X186365Y141333D01*
X179944Y134911D01*
X179833Y134644D01*
X179833Y134644D01*
Y126400D01*
X177725Y124293D01*
X177614Y124025D01*
X177614Y124025D01*
Y117708D01*
X177543Y117636D01*
Y117264D01*
X177807Y117000D01*
X178179D01*
X178443Y117264D01*
Y117636D01*
X178372Y117708D01*
Y123868D01*
X180479Y125976D01*
X180479Y125976D01*
X180590Y126244D01*
Y134487D01*
X186790Y140686D01*
X194590D01*
X194590Y140686D01*
X194858Y140797D01*
X195201Y141140D01*
X195372D01*
X195665Y141433D01*
Y141604D01*
X199143Y145082D01*
X199143Y145082D01*
X199254Y145350D01*
X199254Y145350D01*
Y152268D01*
X210590Y163605D01*
X210719D01*
X210780Y163543D01*
X211194D01*
X211487Y163836D01*
Y164250D01*
X211194Y164543D01*
D02*
G37*
G36*
X91400Y171199D02*
X68289D01*
X67830Y171009D01*
X64341Y167520D01*
X64151Y167061D01*
Y166151D01*
X63406Y165843D01*
X63093Y165086D01*
X63406Y164329D01*
X64087Y164047D01*
Y163910D01*
X63930Y163845D01*
X60500D01*
Y164421D01*
X60379Y164542D01*
X64212Y168375D01*
X64213D01*
X64975Y169137D01*
Y170213D01*
X64213Y170975D01*
X63137D01*
X62375Y170213D01*
Y170212D01*
X58082Y165918D01*
X57701Y165000D01*
Y164622D01*
X57500Y164421D01*
Y163179D01*
X57701Y162978D01*
Y162805D01*
X58082Y161886D01*
X58174Y161848D01*
X58394Y161628D01*
X59313Y161247D01*
X63466D01*
X63490Y161123D01*
X63176Y160993D01*
X62768Y160006D01*
X63176Y159019D01*
X63953Y158698D01*
Y158110D01*
X64096Y157765D01*
X66631Y155231D01*
X66975Y155088D01*
X94983D01*
X95327Y155231D01*
X100647Y160550D01*
X108304D01*
X108618Y160236D01*
Y159864D01*
X109057Y159425D01*
X109679D01*
X110118Y159864D01*
Y160486D01*
X109679Y160925D01*
X109307D01*
X108850Y161382D01*
X108506Y161524D01*
X100445D01*
X100101Y161382D01*
X94781Y156062D01*
X67177D01*
X64927Y158312D01*
Y158717D01*
X65658Y159019D01*
X66066Y160006D01*
X65658Y160993D01*
X65344Y161123D01*
X65368Y161247D01*
X67431D01*
Y157466D01*
X67589Y157083D01*
X67972Y156925D01*
X87784D01*
X88167Y157083D01*
X88325Y157466D01*
Y167626D01*
X88167Y168009D01*
X87784Y168167D01*
X67972D01*
X67589Y168009D01*
X67431Y167626D01*
Y163845D01*
X64904D01*
X64747Y163910D01*
Y164047D01*
X65428Y164329D01*
X65741Y165086D01*
X65449Y165791D01*
Y166792D01*
X68558Y169901D01*
X91006D01*
X96016Y164891D01*
X96475Y164701D01*
X99868D01*
X100327Y164891D01*
X100517Y165350D01*
X100327Y165809D01*
X99868Y165999D01*
X96744D01*
X91948Y170796D01*
X91859Y171009D01*
X91400Y171199D01*
D02*
G37*
G36*
X110208Y165368D02*
X109178D01*
X108450Y164640D01*
Y163610D01*
X109178Y162882D01*
X110208D01*
X110936Y163610D01*
Y164640D01*
X110208Y165368D01*
D02*
G37*
G36*
X104108Y165083D02*
X103078D01*
X102350Y164355D01*
Y163325D01*
X103078Y162597D01*
X104108D01*
X104836Y163325D01*
Y164355D01*
X104108Y165083D01*
D02*
G37*
G36*
X138075Y172125D02*
X134125D01*
Y165349D01*
X128775D01*
X128316Y165159D01*
X125391Y162234D01*
X125201Y161775D01*
Y157725D01*
X125391Y157266D01*
X127925Y154732D01*
Y154094D01*
X128569Y153450D01*
X129481D01*
X130125Y154094D01*
Y155006D01*
X129481Y155650D01*
X128843D01*
X126500Y157994D01*
Y161506D01*
X129044Y164051D01*
X134125D01*
Y162425D01*
X138075D01*
Y172125D01*
D02*
G37*
G36*
X119250Y168175D02*
X118836D01*
X118543Y167882D01*
Y167805D01*
X113953Y163215D01*
X113840D01*
X113547Y162922D01*
Y162508D01*
X113840Y162215D01*
X114254D01*
X114547Y162508D01*
Y162585D01*
X119137Y167175D01*
X119250D01*
X119543Y167468D01*
Y167882D01*
X119250Y168175D01*
D02*
G37*
G36*
X144325Y172125D02*
X140375D01*
Y165984D01*
X140351Y165925D01*
Y161975D01*
X140541Y161516D01*
X141000Y161326D01*
X141459Y161516D01*
X141649Y161975D01*
Y162425D01*
X144325D01*
Y172125D01*
D02*
G37*
G36*
X137845Y161518D02*
X136816D01*
X136087Y160790D01*
Y160600D01*
X136027Y160575D01*
X127807D01*
X127657Y160725D01*
X127243D01*
X126950Y160432D01*
Y160018D01*
X127243Y159725D01*
X127657D01*
X127857Y159925D01*
X136062D01*
X136087Y159909D01*
Y159760D01*
X136816Y159032D01*
X137845D01*
X138573Y159760D01*
Y160004D01*
X151063D01*
X170297Y140770D01*
Y115900D01*
X170377Y115709D01*
X171093Y114992D01*
Y114739D01*
X171357Y114475D01*
X171729D01*
X171993Y114739D01*
Y115111D01*
X171729Y115375D01*
X171476D01*
X170839Y116012D01*
Y140882D01*
X170759Y141073D01*
X151366Y160466D01*
X151175Y160546D01*
X138573D01*
Y160790D01*
X137845Y161518D01*
D02*
G37*
G36*
X223511Y181850D02*
X223139D01*
X222875Y181586D01*
Y181486D01*
X221238Y179849D01*
X221238Y179849D01*
X221238Y179849D01*
X218094Y176705D01*
X217983Y176437D01*
X217983Y176437D01*
Y168019D01*
X210231Y160266D01*
X210088D01*
X210088Y160266D01*
X209820Y160155D01*
X209820Y160155D01*
X202070Y152406D01*
X201982Y152194D01*
X201850Y152061D01*
Y151689D01*
X202114Y151425D01*
X202486D01*
X202750Y151689D01*
Y152014D01*
X210245Y159509D01*
X210388D01*
X210388Y159509D01*
X210655Y159620D01*
X218630Y167594D01*
X218630Y167594D01*
X218741Y167862D01*
Y176280D01*
X221774Y179313D01*
X221774Y179313D01*
X223411Y180950D01*
X223511D01*
X223775Y181214D01*
Y181586D01*
X223511Y181850D01*
D02*
G37*
G36*
X104233Y160114D02*
X103203D01*
X102475Y159386D01*
Y158357D01*
X103203Y157628D01*
X104233D01*
X104961Y158357D01*
Y159386D01*
X104233Y160114D01*
D02*
G37*
G36*
X115634Y182492D02*
X114068D01*
X113609Y182302D01*
X111616Y180309D01*
X111426Y179850D01*
Y154524D01*
X110633D01*
X110040Y155118D01*
X109010D01*
X108282Y154390D01*
Y153360D01*
X109010Y152632D01*
X110040D01*
X110633Y153226D01*
X111426D01*
Y135275D01*
Y113728D01*
X108359Y110662D01*
X108169Y110202D01*
Y91714D01*
X108359Y91255D01*
X110637Y88977D01*
Y76325D01*
Y59581D01*
X110510Y59543D01*
X109808Y60245D01*
X108778D01*
X108050Y59517D01*
Y58487D01*
X108778Y57759D01*
X109808D01*
X110510Y58461D01*
X110637Y58423D01*
Y42782D01*
X110827Y42323D01*
X113073Y40077D01*
Y30111D01*
X113070Y30106D01*
X113261Y29646D01*
X113720Y29456D01*
X114179Y29646D01*
X114182Y29649D01*
X114372Y30108D01*
Y40346D01*
X114208Y40741D01*
X114316Y40813D01*
X114490Y40639D01*
X114904D01*
X115197Y40932D01*
Y41346D01*
X115130Y41413D01*
Y41793D01*
X117168Y43831D01*
X117295Y44137D01*
Y44634D01*
X117400Y44739D01*
Y45153D01*
X117107Y45446D01*
X116693D01*
X116400Y45153D01*
Y44739D01*
X116429Y44710D01*
Y44316D01*
X114391Y42278D01*
X114264Y41972D01*
Y41413D01*
X114197Y41346D01*
Y40969D01*
X114081Y40906D01*
X111935Y43051D01*
Y75635D01*
X116514D01*
X116973Y75825D01*
X117164Y76285D01*
X116973Y76744D01*
X116514Y76934D01*
X111935D01*
Y89246D01*
X111745Y89705D01*
X109467Y91983D01*
Y109933D01*
X112534Y113000D01*
X112724Y113459D01*
Y134626D01*
X117857D01*
X118316Y134816D01*
X118506Y135275D01*
X118316Y135734D01*
X117857Y135924D01*
X112724D01*
Y179581D01*
X114337Y181193D01*
X115634D01*
X116093Y181384D01*
X116283Y181843D01*
X116093Y182302D01*
X115634Y182492D01*
D02*
G37*
G36*
X226561Y187079D02*
X226188D01*
X225924Y186816D01*
Y186715D01*
X217032Y177823D01*
X216921Y177555D01*
X216921Y177555D01*
Y168682D01*
X201489Y153250D01*
X201389D01*
X201125Y152986D01*
Y152614D01*
X201389Y152350D01*
X201761D01*
X202025Y152614D01*
Y152714D01*
X217568Y168257D01*
X217568Y168257D01*
X217679Y168525D01*
X217679Y168525D01*
Y177398D01*
X226460Y186179D01*
X226561D01*
X226824Y186443D01*
Y186816D01*
X226561Y187079D01*
D02*
G37*
G36*
X109688Y150653D02*
X108658D01*
X107930Y149925D01*
Y148895D01*
X108658Y148167D01*
X109688D01*
X110416Y148895D01*
Y149925D01*
X109688Y150653D01*
D02*
G37*
G36*
X64313Y153325D02*
X63237D01*
X62475Y152563D01*
Y152562D01*
X58136Y148223D01*
X57755Y147304D01*
Y145902D01*
X57500Y145646D01*
Y144404D01*
X58379Y143525D01*
X59621D01*
X59643Y143547D01*
X63166D01*
X63190Y143423D01*
X62876Y143293D01*
X62468Y142306D01*
X62876Y141319D01*
X63630Y141007D01*
Y140276D01*
X63773Y139932D01*
X66024Y137681D01*
X66368Y137538D01*
X89706D01*
X90051Y137681D01*
X94975Y142604D01*
X95417D01*
X95886Y143073D01*
Y143516D01*
X97292Y144922D01*
X105921D01*
X106238Y144606D01*
X106582Y144463D01*
X109013D01*
X109276Y144200D01*
X109898D01*
X110337Y144639D01*
Y145261D01*
X109898Y145700D01*
X109276D01*
X109013Y145437D01*
X106784D01*
X106468Y145753D01*
X106123Y145896D01*
X97090D01*
X96746Y145753D01*
X95197Y144204D01*
X94754D01*
X94286Y143736D01*
Y143293D01*
X89505Y138512D01*
X66570D01*
X64604Y140478D01*
Y141007D01*
X65358Y141319D01*
X65766Y142306D01*
X65358Y143293D01*
X65044Y143423D01*
X65068Y143547D01*
X67133D01*
Y139766D01*
X67291Y139383D01*
X67674Y139225D01*
X87486D01*
X87868Y139383D01*
X88027Y139766D01*
Y149926D01*
X87868Y150309D01*
X87486Y150467D01*
X67674D01*
X67291Y150309D01*
X67133Y149926D01*
Y146145D01*
X64604D01*
X64447Y146210D01*
Y146347D01*
X65128Y146629D01*
X65441Y147386D01*
X65128Y148143D01*
X64854Y148257D01*
Y148443D01*
X68107Y151696D01*
X95725D01*
X99418Y148003D01*
Y147965D01*
X99682Y147701D01*
X99873D01*
X99880Y147698D01*
X99888Y147701D01*
X100054D01*
X100318Y147965D01*
Y148338D01*
X100054Y148601D01*
X99892D01*
X96150Y152343D01*
X95882Y152454D01*
X95882Y152454D01*
X67950D01*
X67682Y152343D01*
X67682Y152343D01*
X64207Y148868D01*
X64096Y148600D01*
X64096Y148600D01*
Y148456D01*
X63863D01*
X63106Y148143D01*
X62793Y147386D01*
X63106Y146629D01*
X63787Y146347D01*
Y146210D01*
X63630Y146145D01*
X60353D01*
Y146766D01*
X64312Y150725D01*
X64313D01*
X65075Y151487D01*
Y152563D01*
X64313Y153325D01*
D02*
G37*
G36*
X185235Y148600D02*
X184511D01*
X183998Y148087D01*
Y147363D01*
X184511Y146850D01*
X185235D01*
X185748Y147363D01*
Y148087D01*
X185235Y148600D01*
D02*
G37*
G36*
X182695D02*
X181971D01*
X181458Y148087D01*
Y147363D01*
X181971Y146850D01*
X182695D01*
X183208Y147363D01*
Y148087D01*
X182695Y148600D01*
D02*
G37*
G36*
X50121Y153550D02*
X48879D01*
X48639Y153311D01*
X48623D01*
X47704Y152930D01*
X44263Y149489D01*
X44197D01*
X43210Y149081D01*
X42802Y148094D01*
X43210Y147107D01*
X43669Y146918D01*
X43643Y146791D01*
X41563D01*
Y151150D01*
X41405Y151533D01*
X41022Y151691D01*
X3745D01*
X3362Y151533D01*
X3204Y151150D01*
Y132858D01*
X3362Y132476D01*
X3745Y132317D01*
X41022D01*
X41405Y132476D01*
X41563Y132858D01*
Y144409D01*
X43592D01*
X44121Y144190D01*
Y144053D01*
X43440Y143771D01*
X43127Y143014D01*
X43440Y142257D01*
X44197Y141944D01*
X44705D01*
X44834Y141997D01*
X50941Y135891D01*
X51400Y135701D01*
X93818D01*
X94277Y135891D01*
X100177Y141791D01*
X100367Y142250D01*
X100177Y142709D01*
X99718Y142899D01*
X99259Y142709D01*
X93549Y136999D01*
X59725D01*
X59673Y137126D01*
X60500Y137954D01*
Y139196D01*
X59621Y140075D01*
X58379D01*
X58146Y139842D01*
X56942D01*
X51000Y145784D01*
Y146221D01*
X50121Y147100D01*
X48879D01*
X48569Y146791D01*
X45259D01*
X45233Y146918D01*
X45692Y147107D01*
X45788Y147340D01*
X48998Y150550D01*
X50121D01*
X50297Y150726D01*
X53235D01*
X53237Y150725D01*
X54313D01*
X55075Y151487D01*
Y152563D01*
X54313Y153325D01*
X53237D01*
X53235Y153324D01*
X50347D01*
X50121Y153550D01*
D02*
G37*
G36*
X104120Y148634D02*
X103091D01*
X102363Y147906D01*
Y146876D01*
X103091Y146148D01*
X104120D01*
X104849Y146876D01*
Y147906D01*
X104120Y148634D01*
D02*
G37*
G36*
X195736Y161025D02*
X195364D01*
X195100Y160761D01*
Y160389D01*
X195191Y160298D01*
Y146234D01*
X195122Y146166D01*
Y145793D01*
X195386Y145529D01*
X195759D01*
X196022Y145793D01*
Y146166D01*
X195949Y146239D01*
Y160337D01*
X196000Y160389D01*
Y160761D01*
X195736Y161025D01*
D02*
G37*
G36*
X194511Y161625D02*
X194139D01*
X193875Y161361D01*
Y160989D01*
X193943Y160921D01*
Y146236D01*
X193868Y146161D01*
Y145789D01*
X194132Y145525D01*
X194504D01*
X194768Y145789D01*
Y146161D01*
X194700Y146229D01*
Y160914D01*
X194775Y160989D01*
Y161361D01*
X194511Y161625D01*
D02*
G37*
G36*
X193186Y162725D02*
X192814D01*
X192550Y162461D01*
Y162089D01*
X192655Y161983D01*
Y146199D01*
X192618Y146161D01*
Y145789D01*
X192882Y145525D01*
X193254D01*
X193518Y145789D01*
Y146161D01*
X193413Y146267D01*
Y162051D01*
X193450Y162089D01*
Y162461D01*
X193186Y162725D01*
D02*
G37*
G36*
X192061Y163550D02*
X191689D01*
X191425Y163286D01*
Y162914D01*
X191468Y162871D01*
Y146236D01*
X191368Y146136D01*
Y145764D01*
X191632Y145500D01*
X192004D01*
X192268Y145764D01*
Y146136D01*
X192225Y146179D01*
Y162814D01*
X192325Y162914D01*
Y163286D01*
X192061Y163550D01*
D02*
G37*
G36*
X130003Y147356D02*
X128973D01*
X128245Y146628D01*
Y145598D01*
X128973Y144870D01*
X130003D01*
X130731Y145598D01*
Y146628D01*
X130003Y147356D01*
D02*
G37*
G36*
X119956Y145460D02*
X119584D01*
X119320Y145196D01*
Y144823D01*
X119584Y144560D01*
X119956D01*
X120220Y144823D01*
Y145196D01*
X119956Y145460D01*
D02*
G37*
G36*
X215704Y147052D02*
X213996D01*
Y145696D01*
X214446D01*
Y144258D01*
X214125D01*
Y142959D01*
X215525D01*
Y144258D01*
X215204D01*
Y145696D01*
X215704D01*
Y147052D01*
D02*
G37*
G36*
X104283Y144793D02*
X103253D01*
X102525Y144065D01*
Y143035D01*
X103253Y142307D01*
X104283D01*
X105011Y143035D01*
Y144065D01*
X104283Y144793D01*
D02*
G37*
G36*
X222357Y168825D02*
X221943D01*
X221650Y168532D01*
Y168118D01*
X221771Y167997D01*
Y166007D01*
X207957Y152193D01*
X207846Y151925D01*
X207846Y151925D01*
Y144105D01*
X207710D01*
X206982Y143377D01*
Y142347D01*
X207710Y141619D01*
X207846D01*
Y138128D01*
X207725Y138007D01*
Y137593D01*
X208018Y137300D01*
X208432D01*
X208725Y137593D01*
Y138007D01*
X208604Y138128D01*
Y141619D01*
X208740D01*
X209468Y142347D01*
Y143377D01*
X208740Y144105D01*
X208604D01*
Y151768D01*
X222418Y165582D01*
X222418Y165582D01*
X222529Y165850D01*
X222529Y165850D01*
Y167997D01*
X222650Y168118D01*
Y168532D01*
X222357Y168825D01*
D02*
G37*
G36*
X102233Y138318D02*
X101203D01*
X100475Y137590D01*
Y136560D01*
X101203Y135832D01*
X102233D01*
X102961Y136560D01*
Y137590D01*
X102233Y138318D01*
D02*
G37*
G36*
X141000Y158695D02*
X140349Y158426D01*
X140080Y157775D01*
Y137250D01*
X140349Y136599D01*
X141000Y136330D01*
X141651Y136599D01*
X141920Y137250D01*
Y144363D01*
X141959Y144474D01*
X141959D01*
Y144474D01*
X142047Y144492D01*
X142057Y144469D01*
X144876Y137662D01*
X151753Y134813D01*
X158630Y137662D01*
X161479Y144539D01*
X158630Y151416D01*
X151753Y154265D01*
X144876Y151416D01*
X142057Y144609D01*
X142047Y144586D01*
X141959Y144604D01*
Y144604D01*
X141959Y144604D01*
X141920Y144715D01*
Y157775D01*
X141651Y158426D01*
X141000Y158695D01*
D02*
G37*
G36*
X187891Y137639D02*
X186545D01*
X185594Y136688D01*
Y135342D01*
X186545Y134391D01*
X187891D01*
X188842Y135342D01*
Y136688D01*
X187891Y137639D01*
D02*
G37*
G36*
X206493Y134320D02*
X205748D01*
X205220Y133792D01*
Y133047D01*
X205748Y132520D01*
X206493D01*
X207020Y133047D01*
Y133081D01*
X213934D01*
Y133027D01*
X214462Y132499D01*
X215207D01*
X215734Y133027D01*
Y133772D01*
X215207Y134299D01*
X214462D01*
X214001Y133839D01*
X206974D01*
X206493Y134320D01*
D02*
G37*
G36*
Y131780D02*
X205748D01*
X205220Y131252D01*
Y130507D01*
X205748Y129980D01*
X206493D01*
X207020Y130507D01*
Y130536D01*
X213934D01*
Y130487D01*
X214462Y129959D01*
X215207D01*
X215734Y130487D01*
Y131232D01*
X215207Y131759D01*
X214462D01*
X213996Y131294D01*
X206979D01*
X206493Y131780D01*
D02*
G37*
G36*
X161854Y130175D02*
X161482D01*
X161302Y129996D01*
X139418D01*
X139227Y129916D01*
X127406Y118095D01*
X127233Y118268D01*
X126203D01*
X125475Y117540D01*
Y116510D01*
X126203Y115782D01*
X127233D01*
X127961Y116510D01*
Y117540D01*
X127788Y117713D01*
X139530Y129454D01*
X161302D01*
X161482Y129275D01*
X161854D01*
X162118Y129539D01*
Y129911D01*
X161854Y130175D01*
D02*
G37*
G36*
X160775Y127879D02*
X160775Y127879D01*
X140927D01*
X140927Y127879D01*
X140659Y127768D01*
X127364Y114473D01*
X120030D01*
Y122997D01*
X120250Y123218D01*
Y123632D01*
X119957Y123925D01*
X119543D01*
X119250Y123632D01*
Y123218D01*
X119488Y122979D01*
Y114451D01*
X119318Y114280D01*
Y113907D01*
X119582Y113644D01*
X119954D01*
X120026Y113715D01*
X127521D01*
X127521Y113715D01*
X127789Y113826D01*
X141084Y127121D01*
X160618D01*
X164489Y123250D01*
Y117106D01*
X164489Y117106D01*
X164600Y116838D01*
X173064Y108374D01*
X173332Y108263D01*
X173332Y108263D01*
X174829D01*
X174910Y108182D01*
X175283D01*
X175547Y108446D01*
Y108819D01*
X175283Y109082D01*
X174910D01*
X174849Y109021D01*
X173489D01*
X165247Y117263D01*
Y123407D01*
X165247Y123407D01*
X165136Y123675D01*
X165136Y123675D01*
X161043Y127768D01*
X160775Y127879D01*
D02*
G37*
G36*
X206493Y129240D02*
X205748D01*
X205220Y128712D01*
Y127967D01*
X205748Y127440D01*
X206493D01*
X207020Y127967D01*
Y127971D01*
X207837D01*
X207968Y127840D01*
X208382D01*
X208503Y127961D01*
X213934D01*
Y127947D01*
X214462Y127419D01*
X215207D01*
X215734Y127947D01*
Y128692D01*
X215207Y129219D01*
X214462D01*
X213961Y128719D01*
X208503D01*
X208382Y128840D01*
X207968D01*
X207857Y128729D01*
X207004D01*
X206493Y129240D01*
D02*
G37*
G36*
X126983Y146343D02*
X125953D01*
X125225Y145615D01*
Y144585D01*
X125953Y143857D01*
X126983D01*
X127281Y144155D01*
X137702Y133734D01*
X137893Y133654D01*
X163106D01*
X168868Y127892D01*
Y127639D01*
X169132Y127375D01*
X169504D01*
X169768Y127639D01*
Y128011D01*
X169504Y128275D01*
X169251D01*
X163409Y134116D01*
X163218Y134196D01*
X138005D01*
X127663Y144537D01*
X127711Y144585D01*
Y145615D01*
X126983Y146343D01*
D02*
G37*
G36*
X184007Y133975D02*
X183634D01*
X183371Y133712D01*
Y133339D01*
X183634Y133075D01*
X183888D01*
X190004Y126959D01*
X190031Y126948D01*
X190006Y126821D01*
X189389D01*
X183892Y132318D01*
Y132571D01*
X183628Y132835D01*
X183255D01*
X182992Y132571D01*
Y132199D01*
X183255Y131935D01*
X183509D01*
X189085Y126359D01*
X189277Y126279D01*
X197027D01*
X197207Y126100D01*
X197579D01*
X197843Y126364D01*
Y126736D01*
X197817Y126762D01*
X197866Y126879D01*
X199302D01*
X199507Y126675D01*
X199879D01*
X200143Y126939D01*
Y127311D01*
X199879Y127575D01*
X199507D01*
X199352Y127421D01*
X190308D01*
X184271Y133458D01*
Y133712D01*
X184007Y133975D01*
D02*
G37*
G36*
X180155Y156623D02*
X179431D01*
X178918Y156110D01*
Y155385D01*
X179431Y154873D01*
X179522D01*
Y148600D01*
X179431D01*
X178918Y148087D01*
Y147363D01*
X179431Y146850D01*
X179522D01*
Y141374D01*
X177870Y139721D01*
X177790Y139530D01*
Y127239D01*
X177688Y127136D01*
Y126763D01*
X177951Y126500D01*
X178324D01*
X178588Y126763D01*
Y127136D01*
X178332Y127392D01*
Y139418D01*
X179984Y141071D01*
X180064Y141262D01*
Y146850D01*
X180155D01*
X180668Y147363D01*
Y148087D01*
X180155Y148600D01*
X180064D01*
Y154873D01*
X180155D01*
X180668Y155385D01*
Y156110D01*
X180155Y156623D01*
D02*
G37*
G36*
X217100Y156449D02*
X216641Y156259D01*
X216451Y155800D01*
Y128314D01*
X214816Y126679D01*
X214462D01*
X214231Y126449D01*
X206744D01*
X206493Y126700D01*
X205748D01*
X205220Y126172D01*
Y125427D01*
X205748Y124900D01*
X206493D01*
X206744Y125150D01*
X214191D01*
X214462Y124879D01*
X215207D01*
X215734Y125407D01*
Y125761D01*
X217559Y127586D01*
X217749Y128045D01*
Y155800D01*
X217559Y156259D01*
X217100Y156449D01*
D02*
G37*
G36*
X219307Y158850D02*
X218893D01*
X218600Y158557D01*
Y158305D01*
X218382Y158087D01*
X218271Y157819D01*
X218271Y157819D01*
Y126908D01*
X218150Y126786D01*
Y126372D01*
X218443Y126079D01*
X218857D01*
X219150Y126372D01*
Y126786D01*
X219029Y126908D01*
Y157662D01*
X219217Y157850D01*
X219307D01*
X219600Y158143D01*
Y158557D01*
X219307Y158850D01*
D02*
G37*
G36*
X158230Y125777D02*
X152261D01*
X151878Y125618D01*
X151817Y125469D01*
X151690D01*
X151628Y125618D01*
X151245Y125777D01*
X142621D01*
X142439Y125701D01*
X142254Y125634D01*
X126879Y111478D01*
X126879Y111478D01*
X124261Y109067D01*
X111821D01*
X111632Y108989D01*
X111443Y108913D01*
X111441Y108910D01*
X111439Y108909D01*
X111360Y108720D01*
X111280Y108532D01*
X111168Y97044D01*
X111169Y97042D01*
X111168Y97041D01*
X111246Y96851D01*
X111323Y96660D01*
X111324Y96659D01*
X111325Y96658D01*
X111536Y96445D01*
X111537Y96444D01*
X111538Y96443D01*
X111728Y96364D01*
X111918Y96284D01*
X111919Y96285D01*
X111921Y96284D01*
X117738D01*
X117904Y96353D01*
X118077Y96404D01*
X119700Y97709D01*
X126193D01*
X126340Y97770D01*
X126497Y97802D01*
X129766Y100018D01*
X136471Y101438D01*
X136599Y101525D01*
X136742Y101585D01*
X151593Y116436D01*
X151720Y116387D01*
Y115100D01*
X151720Y110722D01*
X151878Y110340D01*
X151878Y110340D01*
X169780Y92438D01*
Y82804D01*
X169780Y82804D01*
X169938Y82421D01*
X169938Y82421D01*
X182219Y70140D01*
X182602Y69982D01*
X182602Y69982D01*
X187945D01*
X188189Y69881D01*
X188433Y69982D01*
X189884D01*
X190267Y70140D01*
X190425Y70523D01*
Y70807D01*
X190439Y70813D01*
X191371Y73063D01*
Y76873D01*
X190439Y79123D01*
X190422Y79130D01*
X190267Y79506D01*
X189884Y79664D01*
X189133D01*
X188730Y79831D01*
Y79958D01*
X188875Y80018D01*
X190466D01*
X205967Y64517D01*
X206350Y64359D01*
X206350Y64359D01*
X236674D01*
X237057Y64517D01*
X237215Y64900D01*
Y69373D01*
X237361Y69725D01*
X237215Y70077D01*
Y74760D01*
X237057Y75143D01*
X236674Y75301D01*
X210389D01*
X208863Y76828D01*
X208911Y76945D01*
X211300D01*
Y77169D01*
X220743D01*
X221432Y77454D01*
X231104Y87126D01*
X231725D01*
Y86125D01*
X241425D01*
Y90075D01*
X231725D01*
Y89074D01*
X230700D01*
X230011Y88789D01*
X220339Y79117D01*
X211300D01*
Y83100D01*
X208275D01*
Y77581D01*
X208158Y77533D01*
X196083Y89608D01*
X195700Y89766D01*
X195700Y89766D01*
X188787D01*
X188316Y89961D01*
X187845Y89766D01*
X187008D01*
X186626Y89608D01*
X186467Y89225D01*
Y89195D01*
X186066Y89029D01*
X185134Y86779D01*
Y82969D01*
X186066Y80719D01*
X186471Y80551D01*
X186626Y80177D01*
X187008Y80018D01*
X187757D01*
X187775Y80011D01*
Y79884D01*
X187245Y79664D01*
X186659D01*
X183591Y82732D01*
Y94791D01*
X183591Y94791D01*
X183433Y95173D01*
X173098Y105508D01*
X173146Y105626D01*
X193691D01*
X194151Y105816D01*
X202361Y114026D01*
X202503D01*
X202942Y114465D01*
Y115087D01*
X202503Y115526D01*
X201881D01*
X201442Y115087D01*
Y114944D01*
X193422Y106924D01*
X171833D01*
X161599Y117158D01*
Y123983D01*
X161491Y124244D01*
Y124500D01*
X161333Y124883D01*
X160950Y125041D01*
X160810D01*
X160557Y125295D01*
X160098Y125485D01*
X158668D01*
X158613Y125618D01*
X158230Y125777D01*
D02*
G37*
G36*
X200279Y123926D02*
X199907D01*
X199643Y123663D01*
Y123290D01*
X199822Y123111D01*
Y122744D01*
X199695Y122691D01*
X199536Y122850D01*
X199164D01*
X198900Y122586D01*
Y122214D01*
X199079Y122034D01*
Y120495D01*
X191321Y112737D01*
X191068D01*
X190804Y112473D01*
Y112100D01*
X191068Y111837D01*
X191440D01*
X191704Y112100D01*
Y112354D01*
X199541Y120191D01*
X199621Y120383D01*
Y122018D01*
X199709Y122089D01*
X199822Y122039D01*
Y119744D01*
X191324Y111246D01*
X190843D01*
X190652Y111166D01*
X189135Y109650D01*
X188882D01*
X188618Y109386D01*
Y109014D01*
X188882Y108750D01*
X189254D01*
X189518Y109014D01*
Y109267D01*
X190955Y110704D01*
X191436D01*
X191628Y110784D01*
X200284Y119440D01*
X200364Y119632D01*
Y123111D01*
X200543Y123290D01*
Y123663D01*
X200279Y123926D01*
D02*
G37*
G36*
X177615Y156623D02*
X176891D01*
X176378Y156110D01*
Y155385D01*
X176891Y154873D01*
X176982D01*
Y148600D01*
X176891D01*
X176378Y148087D01*
Y147363D01*
X176891Y146850D01*
X176982D01*
Y143412D01*
X176502Y142931D01*
X176422Y142740D01*
Y122916D01*
X176243Y122736D01*
Y122364D01*
X176507Y122100D01*
X176879D01*
X177143Y122364D01*
Y122736D01*
X176964Y122916D01*
Y142628D01*
X177444Y143109D01*
X177524Y143300D01*
Y146850D01*
X177615D01*
X178128Y147363D01*
Y148087D01*
X177615Y148600D01*
X177524D01*
Y154873D01*
X177615D01*
X178128Y155385D01*
Y156110D01*
X177615Y156623D01*
D02*
G37*
G36*
X127565Y124068D02*
X126535D01*
X125807Y123340D01*
Y122310D01*
X126535Y121582D01*
X127565D01*
X128293Y122310D01*
Y123340D01*
X127565Y124068D01*
D02*
G37*
G36*
X170538Y173110D02*
X169508D01*
X168780Y172382D01*
Y171353D01*
X169508Y170624D01*
X170538D01*
X170621Y170532D01*
Y148459D01*
X170700Y148267D01*
X175147Y143820D01*
Y117825D01*
X175227Y117634D01*
X176777Y116084D01*
X176968Y116004D01*
X181279D01*
X181470Y116084D01*
X186408Y121022D01*
X193504D01*
X193683Y120842D01*
X194056D01*
X194320Y121106D01*
Y121479D01*
X194056Y121742D01*
X193683D01*
X193504Y121563D01*
X186296D01*
X186104Y121484D01*
X181166Y116546D01*
X177080D01*
X175689Y117937D01*
Y143932D01*
X175609Y144123D01*
X171162Y148571D01*
Y170732D01*
X171083Y170923D01*
X170959Y171046D01*
X171266Y171353D01*
Y172382D01*
X170538Y173110D01*
D02*
G37*
G36*
X150984Y173424D02*
X149954D01*
X149226Y172696D01*
Y171666D01*
X149954Y170938D01*
X150198D01*
Y167056D01*
X150278Y166865D01*
X173886Y143256D01*
Y117412D01*
X173965Y117220D01*
X176202Y114984D01*
X176393Y114904D01*
X182068D01*
X182259Y114984D01*
X187130Y119854D01*
X193886D01*
X194065Y119675D01*
X194438D01*
X194701Y119939D01*
Y120311D01*
X194438Y120575D01*
X194065D01*
X193886Y120396D01*
X187018D01*
X186827Y120316D01*
X181956Y115446D01*
X176505D01*
X174427Y117524D01*
Y143369D01*
X174348Y143560D01*
X150740Y167168D01*
Y170938D01*
X150984D01*
X151712Y171666D01*
Y172696D01*
X150984Y173424D01*
D02*
G37*
G36*
X50053Y134591D02*
X49670Y134433D01*
X49670Y134433D01*
X49512Y134050D01*
X49512Y126330D01*
X49594Y126131D01*
X49524Y126025D01*
X48879D01*
X48639Y125786D01*
X48344D01*
X47425Y125405D01*
X43877Y121856D01*
X43210Y121581D01*
X42802Y120594D01*
X43210Y119607D01*
X43636Y119431D01*
X43662Y119283D01*
X43621Y119245D01*
X41563D01*
Y129934D01*
X41405Y130317D01*
X41022Y130475D01*
X3650D01*
X3267Y130317D01*
X3109Y129934D01*
Y111969D01*
X3267Y111587D01*
X3650Y111428D01*
X41022D01*
X41405Y111587D01*
X41563Y111969D01*
Y116863D01*
X43703D01*
X44121Y116690D01*
Y116667D01*
X44100Y116550D01*
X43640Y116360D01*
X43637Y116353D01*
X43440Y116271D01*
X43127Y115514D01*
X43440Y114757D01*
X44197Y114444D01*
X44638D01*
X51266Y107816D01*
X51725Y107626D01*
X96776D01*
X97235Y107816D01*
X100302Y110883D01*
X100492Y111342D01*
X100302Y111801D01*
X99843Y111992D01*
X99384Y111801D01*
X96507Y108924D01*
X51994D01*
X45667Y115252D01*
X45775Y115514D01*
X45462Y116271D01*
X44781Y116553D01*
Y116690D01*
X45199Y116863D01*
X48590D01*
X48879Y116575D01*
X49316D01*
X55307Y110585D01*
X56148Y110236D01*
X57993D01*
X58379Y109850D01*
X59621D01*
X60500Y110729D01*
Y111971D01*
X59621Y112850D01*
X58379D01*
X58146Y112617D01*
X56642D01*
X52588Y116671D01*
X52636Y116788D01*
X53083D01*
X53361Y116511D01*
X54639D01*
X55543Y117415D01*
Y118693D01*
X54639Y119597D01*
X53361D01*
X52933Y119170D01*
X50527D01*
X50121Y119575D01*
X48879D01*
X48548Y119245D01*
X45199D01*
X45161Y119260D01*
Y119387D01*
X45692Y119607D01*
X45967Y120274D01*
X48799Y123105D01*
X48879Y123025D01*
X50121D01*
X50222Y123126D01*
X53085D01*
X53087Y123125D01*
X54163D01*
X54925Y123887D01*
Y124963D01*
X54227Y125662D01*
X54279Y125789D01*
X62971Y125789D01*
X63023Y125662D01*
X62325Y124963D01*
Y124962D01*
X59496Y122133D01*
X59115Y121214D01*
X59496Y120296D01*
X60414Y119915D01*
X61333Y120296D01*
X64162Y123125D01*
X64163D01*
X64925Y123887D01*
Y124963D01*
X64227Y125662D01*
X64279Y125789D01*
X96045Y125789D01*
X97812D01*
X98195Y125947D01*
X98196Y125950D01*
X98737D01*
X99450Y125238D01*
X99450Y125238D01*
X99718Y125127D01*
X99718Y125127D01*
X100639D01*
X100692Y125000D01*
X100082Y124390D01*
Y123360D01*
X100810Y122632D01*
X101840D01*
X102568Y123360D01*
Y124390D01*
X101958Y125000D01*
X102011Y125127D01*
X109244D01*
X109244Y125127D01*
X109512Y125238D01*
X109962Y125688D01*
X109962Y125688D01*
X110073Y125955D01*
Y130014D01*
X110073Y130014D01*
X109962Y130282D01*
X109962Y130282D01*
X109786Y130458D01*
X109675Y130504D01*
Y133790D01*
X109618D01*
Y134050D01*
X109460Y134433D01*
X109460Y134433D01*
X109077Y134591D01*
X50053Y134591D01*
D02*
G37*
G36*
X224414Y121186D02*
X214714D01*
Y119861D01*
X211889D01*
X211429Y119671D01*
X211354Y119596D01*
X211164Y119136D01*
X211354Y118677D01*
X211814Y118487D01*
X211995Y118562D01*
X214714D01*
Y117236D01*
X224414D01*
Y119196D01*
X237315D01*
X237315Y119196D01*
X237324Y119200D01*
X237728D01*
X238021Y119493D01*
Y119907D01*
X237728Y120200D01*
X237314D01*
X237068Y119954D01*
X224414D01*
Y121186D01*
D02*
G37*
G36*
X206032Y121368D02*
X205002D01*
X204274Y120640D01*
Y119610D01*
X205002Y118882D01*
X206032D01*
X206760Y119610D01*
Y120640D01*
X206032Y121368D01*
D02*
G37*
G36*
X109608Y118945D02*
X108578D01*
X107850Y118217D01*
Y117187D01*
X108578Y116459D01*
X109608D01*
X110336Y117187D01*
Y118217D01*
X109608Y118945D01*
D02*
G37*
G36*
X92235Y125211D02*
X68037D01*
X67577Y125021D01*
X64416Y121859D01*
X64226Y121400D01*
Y121100D01*
X63606Y120843D01*
X63293Y120086D01*
X63606Y119329D01*
X64287Y119047D01*
Y118910D01*
X64130Y118845D01*
X60076D01*
X59621Y119300D01*
X58379D01*
X57500Y118421D01*
Y117179D01*
X58379Y116300D01*
X59180D01*
X59308Y116247D01*
X63666D01*
X63690Y116123D01*
X63376Y115993D01*
X62968Y115006D01*
X63376Y114019D01*
X64130Y113707D01*
Y113008D01*
X64273Y112664D01*
X67281Y109656D01*
X67625Y109513D01*
X94870Y109513D01*
X95214Y109656D01*
X99147Y113588D01*
X108969D01*
X109232Y113325D01*
X109854D01*
X110293Y113764D01*
Y114386D01*
X109854Y114825D01*
X109232D01*
X108969Y114562D01*
X98945D01*
X98600Y114419D01*
X94668Y110487D01*
X67827Y110487D01*
X65104Y113210D01*
Y113707D01*
X65858Y114019D01*
X66266Y115006D01*
X65858Y115993D01*
X65544Y116123D01*
X65568Y116247D01*
X67632D01*
Y112466D01*
X67790Y112083D01*
X68173Y111925D01*
X87985D01*
X88368Y112083D01*
X88526Y112466D01*
Y122626D01*
X88368Y123009D01*
X87985Y123167D01*
X68173D01*
X67790Y123009D01*
X67632Y122626D01*
Y118845D01*
X65104D01*
X64947Y118910D01*
Y119047D01*
X65628Y119329D01*
X65941Y120086D01*
X65628Y120843D01*
X65524Y120886D01*
Y121131D01*
X68306Y123912D01*
X91966D01*
X99457Y116421D01*
X99916Y116231D01*
X100375Y116421D01*
X100565Y116880D01*
X100375Y117339D01*
X92694Y125021D01*
X92235Y125211D01*
D02*
G37*
G36*
X116856Y119750D02*
X116441D01*
X116148Y119457D01*
Y119378D01*
X113925Y117155D01*
X113815D01*
X113522Y116862D01*
Y116448D01*
X113815Y116155D01*
X114229D01*
X114522Y116448D01*
Y116527D01*
X116745Y118750D01*
X116856D01*
X117148Y119043D01*
Y119457D01*
X116856Y119750D01*
D02*
G37*
G36*
X104120Y117268D02*
X103091D01*
X102363Y116540D01*
Y115510D01*
X103091Y114782D01*
X104120D01*
X104849Y115510D01*
Y116540D01*
X104120Y117268D01*
D02*
G37*
G36*
X127415Y186943D02*
X126385D01*
X125657Y186215D01*
Y185185D01*
X126385Y184457D01*
X127415D01*
X127588Y184630D01*
X128534Y183684D01*
X128725Y183604D01*
X133288D01*
X139631Y177262D01*
X139822Y177182D01*
X143585D01*
X147529Y173238D01*
Y167700D01*
X147609Y167509D01*
X172597Y142520D01*
Y117075D01*
X172677Y116884D01*
X175879Y113682D01*
Y113428D01*
X176142Y113164D01*
X176515D01*
X176779Y113428D01*
Y113801D01*
X176515Y114064D01*
X176261D01*
X173139Y117187D01*
Y142632D01*
X173059Y142823D01*
X148071Y167812D01*
Y173350D01*
X147991Y173541D01*
X143888Y177644D01*
X143697Y177724D01*
X139934D01*
X133591Y184066D01*
X133400Y184146D01*
X128837D01*
X127970Y185012D01*
X128143Y185185D01*
Y186215D01*
X127415Y186943D01*
D02*
G37*
G36*
X224414Y114936D02*
X214714D01*
Y110986D01*
X215251D01*
Y105728D01*
X213722D01*
X213654Y105700D01*
X213650D01*
Y105698D01*
X213645Y105696D01*
X213614Y105620D01*
Y103120D01*
X213645Y103043D01*
X213650Y103042D01*
Y103000D01*
X219350D01*
Y105700D01*
X219290D01*
X219222Y105728D01*
X216582D01*
X216549Y105742D01*
Y110986D01*
X224414D01*
Y112676D01*
X227792D01*
X228385Y112082D01*
X229415D01*
X230143Y112810D01*
Y113840D01*
X229415Y114568D01*
X228385D01*
X227792Y113974D01*
X224414D01*
Y114936D01*
D02*
G37*
G36*
X117907Y186700D02*
X117493D01*
X117200Y186407D01*
Y185993D01*
X117493Y185700D01*
X117907D01*
X118161Y185954D01*
X122731D01*
X124130Y184555D01*
X124145Y184549D01*
X124152Y184534D01*
X126202Y182484D01*
X126393Y182404D01*
X132438D01*
X139536Y175306D01*
X139728Y175227D01*
X143840D01*
X146154Y172913D01*
Y167125D01*
X146234Y166934D01*
X171422Y141745D01*
Y116641D01*
X171502Y116450D01*
X176268Y111684D01*
X176459Y111604D01*
X186918D01*
X187109Y111684D01*
X190908Y115482D01*
X190987Y115673D01*
Y116060D01*
X192256Y117329D01*
X193193D01*
X193384Y117409D01*
X195884Y119908D01*
X195963Y120099D01*
Y123755D01*
X196142Y123935D01*
Y124308D01*
X195879Y124571D01*
X195506D01*
X195242Y124308D01*
Y123935D01*
X195422Y123755D01*
Y120212D01*
X193081Y117871D01*
X192144D01*
X191952Y117791D01*
X190525Y116364D01*
X190446Y116172D01*
Y115785D01*
X186806Y112146D01*
X176571D01*
X171964Y116753D01*
Y141857D01*
X171884Y142048D01*
X146696Y167237D01*
Y173025D01*
X146616Y173216D01*
X144144Y175689D01*
X143953Y175768D01*
X139840D01*
X132741Y182866D01*
X132550Y182946D01*
X126505D01*
X124534Y184916D01*
X124519Y184923D01*
X124513Y184938D01*
X123034Y186416D01*
X122843Y186496D01*
X118112D01*
X117907Y186700D01*
D02*
G37*
G36*
X191186Y136604D02*
X190814D01*
X190550Y136341D01*
Y135968D01*
X190814Y135704D01*
X191186D01*
X191258Y135775D01*
X199436D01*
X199757Y135454D01*
Y135283D01*
X200050Y134990D01*
X200221D01*
X200710Y134501D01*
Y125521D01*
X185519D01*
X185328Y125441D01*
X183007Y123121D01*
X180809D01*
X180629Y123300D01*
X180257D01*
X179993Y123036D01*
Y122664D01*
X180257Y122400D01*
X180629D01*
X180809Y122579D01*
X183119D01*
X183311Y122659D01*
X185631Y124979D01*
X200710D01*
Y117684D01*
X195175Y112149D01*
X195004D01*
X194711Y111856D01*
Y111442D01*
X195004Y111149D01*
X195418D01*
X195711Y111442D01*
Y111613D01*
X201357Y117259D01*
X201357Y117259D01*
X201468Y117527D01*
Y125020D01*
Y125250D01*
Y134658D01*
X201468Y134658D01*
X201357Y134926D01*
X200757Y135526D01*
Y135697D01*
X200464Y135990D01*
X200293D01*
X199861Y136422D01*
X199593Y136533D01*
X199593Y136533D01*
X191258D01*
X191186Y136604D01*
D02*
G37*
G36*
X104108Y113349D02*
X103078D01*
X102350Y112621D01*
Y111591D01*
X103078Y110863D01*
X104108D01*
X104836Y111591D01*
Y112621D01*
X104108Y113349D01*
D02*
G37*
G36*
X120907Y170200D02*
X120493D01*
X120200Y169907D01*
Y169493D01*
X120369Y169324D01*
Y168962D01*
X119998Y168591D01*
X119919Y168400D01*
Y160479D01*
X119779Y160339D01*
Y159966D01*
X119958Y159787D01*
Y148796D01*
X120038Y148605D01*
X136359Y132284D01*
X136550Y132204D01*
X162256D01*
X167854Y126606D01*
Y116854D01*
X167934Y116663D01*
X170988Y113609D01*
X170988Y113609D01*
X173813Y110784D01*
X174004Y110704D01*
X187168D01*
X187359Y110784D01*
X192201Y115625D01*
X192454D01*
X192718Y115889D01*
Y116261D01*
X192454Y116525D01*
X192082D01*
X191818Y116261D01*
Y116008D01*
X187056Y111246D01*
X174116D01*
X171371Y113991D01*
X171371Y113991D01*
X168396Y116966D01*
Y126718D01*
X168316Y126909D01*
X162559Y132666D01*
X162368Y132746D01*
X136662D01*
X120500Y148908D01*
Y159787D01*
X120679Y159966D01*
Y160339D01*
X120460Y160558D01*
Y168288D01*
X120831Y168659D01*
X120910Y168850D01*
Y169203D01*
X121200Y169493D01*
Y169907D01*
X120907Y170200D01*
D02*
G37*
G36*
X196564Y114966D02*
X196191D01*
X195927Y114702D01*
Y114445D01*
X192032Y110550D01*
X191782D01*
X191518Y110286D01*
Y109914D01*
X191782Y109650D01*
X192154D01*
X192418Y109914D01*
Y110170D01*
X196313Y114066D01*
X196564D01*
X196827Y114329D01*
Y114702D01*
X196564Y114966D01*
D02*
G37*
G36*
X118003Y139475D02*
X117631D01*
X117367Y139211D01*
Y138839D01*
X117631Y138575D01*
X118003D01*
X118183Y138754D01*
X128488D01*
X136309Y130934D01*
X136500Y130854D01*
X162081D01*
X166504Y126431D01*
Y116693D01*
X166584Y116502D01*
X173377Y109709D01*
X173568Y109629D01*
X187451D01*
X187642Y109709D01*
X198234Y120300D01*
X198454D01*
X198718Y120564D01*
Y120936D01*
X198454Y121200D01*
X198082D01*
X197818Y120936D01*
Y120650D01*
X187339Y110171D01*
X173680D01*
X167046Y116805D01*
Y126543D01*
X166966Y126734D01*
X162384Y131316D01*
X162193Y131396D01*
X136612D01*
X128791Y139216D01*
X128600Y139296D01*
X118183D01*
X118003Y139475D01*
D02*
G37*
G36*
X202979Y119215D02*
X202607D01*
X202343Y118951D01*
Y118578D01*
X202522Y118399D01*
Y117527D01*
X193503Y108508D01*
X193250D01*
X192986Y108245D01*
Y107872D01*
X193250Y107608D01*
X193622D01*
X193886Y107872D01*
Y108126D01*
X202984Y117224D01*
X203064Y117415D01*
Y118399D01*
X203243Y118578D01*
Y118951D01*
X202979Y119215D01*
D02*
G37*
G36*
X104801Y106300D02*
X102701D01*
Y104200D01*
X104801D01*
Y106300D01*
D02*
G37*
G36*
X196265Y105568D02*
X195235D01*
X194507Y104840D01*
Y103810D01*
X195235Y103082D01*
X196265D01*
X196993Y103810D01*
Y104840D01*
X196265Y105568D01*
D02*
G37*
G36*
X44016Y101908D02*
X43720D01*
X43710Y101904D01*
X43699Y101906D01*
X43409Y101849D01*
X43400Y101842D01*
X43389D01*
X43116Y101729D01*
X43108Y101721D01*
X43097Y101719D01*
X42852Y101555D01*
X42846Y101546D01*
X42835Y101542D01*
X42626Y101333D01*
X42622Y101322D01*
X42613Y101316D01*
X42449Y101071D01*
X42447Y101060D01*
X42439Y101052D01*
X42326Y100779D01*
Y100768D01*
X42319Y100759D01*
X42262Y100469D01*
X42264Y100458D01*
X42260Y100448D01*
Y100152D01*
X42264Y100142D01*
X42262Y100131D01*
X42319Y99841D01*
X42326Y99832D01*
Y99821D01*
X42439Y99548D01*
X42447Y99540D01*
X42449Y99529D01*
X42613Y99284D01*
X42622Y99278D01*
X42626Y99267D01*
X42835Y99058D01*
X42846Y99054D01*
X42852Y99045D01*
X43097Y98881D01*
X43108Y98879D01*
X43116Y98871D01*
X43389Y98758D01*
X43400D01*
X43409Y98751D01*
X43699Y98694D01*
X43710Y98696D01*
X43720Y98692D01*
X44016D01*
X44026Y98696D01*
X44037Y98694D01*
X44327Y98751D01*
X44336Y98758D01*
X44347D01*
X44620Y98871D01*
X44628Y98879D01*
X44639Y98881D01*
X44884Y99045D01*
X44890Y99054D01*
X44901Y99058D01*
X45110Y99267D01*
X45114Y99278D01*
X45123Y99284D01*
X45287Y99529D01*
X45289Y99540D01*
X45297Y99548D01*
X45410Y99821D01*
Y99832D01*
X45417Y99841D01*
X45474Y100131D01*
X45472Y100142D01*
X45476Y100152D01*
Y100448D01*
X45472Y100458D01*
X45474Y100469D01*
X45417Y100759D01*
X45410Y100768D01*
Y100779D01*
X45297Y101052D01*
X45289Y101060D01*
X45287Y101071D01*
X45123Y101316D01*
X45114Y101322D01*
X45110Y101333D01*
X44901Y101542D01*
X44890Y101546D01*
X44884Y101555D01*
X44639Y101719D01*
X44628Y101721D01*
X44620Y101729D01*
X44347Y101842D01*
X44336D01*
X44327Y101849D01*
X44037Y101906D01*
X44026Y101904D01*
X44016Y101908D01*
D02*
G37*
G36*
X195744Y99918D02*
X194714D01*
X193986Y99190D01*
Y98160D01*
X194714Y97432D01*
X195744D01*
X196472Y98160D01*
Y99190D01*
X195744Y99918D01*
D02*
G37*
G36*
X203485Y107636D02*
X203443Y107594D01*
X203375Y107566D01*
X203375Y107566D01*
X199516Y103707D01*
X199486Y103677D01*
X199455Y103606D01*
X199456Y103604D01*
X199454Y103600D01*
X199486Y103524D01*
X199486Y103524D01*
X200413Y102596D01*
Y102506D01*
X200677Y102243D01*
X200767D01*
X201253Y101756D01*
X201330Y101724D01*
X201335Y101726D01*
X201364Y101697D01*
X203317Y103650D01*
X203375Y103626D01*
X203455D01*
X206155Y100926D01*
Y99750D01*
X198093D01*
Y95800D01*
X207793D01*
Y99750D01*
X207454D01*
Y101195D01*
X207263Y101654D01*
X207263Y101654D01*
X204292Y104625D01*
X205394Y105727D01*
X203485Y107636D01*
D02*
G37*
G36*
X191377Y96688D02*
X190347D01*
X189619Y95960D01*
Y94930D01*
X190347Y94202D01*
X191377D01*
X192105Y94930D01*
Y95960D01*
X191377Y96688D01*
D02*
G37*
G36*
X53800Y93540D02*
X49271D01*
X49113Y93475D01*
X48879D01*
X48856Y93452D01*
X48326D01*
X48326Y93452D01*
X47254Y93008D01*
X47254Y93008D01*
X43522Y89277D01*
X43489Y89196D01*
X43210Y89081D01*
X42802Y88094D01*
X43210Y87107D01*
X43636Y86931D01*
X43662Y86783D01*
X43621Y86745D01*
X41563D01*
Y90887D01*
X41405Y91270D01*
X41022Y91428D01*
X3745D01*
X3362Y91270D01*
X3204Y90887D01*
Y72783D01*
X3362Y72401D01*
X3745Y72242D01*
X41022D01*
X41405Y72401D01*
X41563Y72783D01*
Y84363D01*
X43703D01*
X44121Y84190D01*
Y84053D01*
X43440Y83771D01*
X43127Y83014D01*
X43440Y82257D01*
X44197Y81944D01*
X44705D01*
X44893Y82021D01*
X50720Y76195D01*
X51175Y76006D01*
X94509D01*
X94965Y76195D01*
X100223Y81452D01*
X100411Y81908D01*
X100223Y82363D01*
X99767Y82552D01*
X99312Y82363D01*
X94243Y77294D01*
X51442D01*
X45760Y82976D01*
X45775Y83014D01*
X45462Y83771D01*
X44781Y84053D01*
Y84190D01*
X45199Y84363D01*
X48540D01*
X48879Y84025D01*
X49316D01*
X54757Y78585D01*
X55598Y78236D01*
X55598Y78236D01*
X57993D01*
X58379Y77850D01*
X59621D01*
X60500Y78729D01*
Y79971D01*
X59621Y80850D01*
X58379D01*
X58146Y80617D01*
X56092D01*
X51000Y85709D01*
Y86146D01*
X50121Y87025D01*
X48879D01*
X48598Y86745D01*
X45199D01*
X45161Y86760D01*
Y86887D01*
X45692Y87107D01*
X45728Y87196D01*
X48953Y90421D01*
X49183D01*
X49312Y90475D01*
X50121D01*
X50156Y90510D01*
X53800D01*
X54872Y90953D01*
X55087Y91473D01*
X55150Y91537D01*
Y91626D01*
X55315Y92025D01*
X55150Y92424D01*
Y92613D01*
X55016Y92747D01*
X54872Y93097D01*
X54522Y93241D01*
X54388Y93375D01*
X54199D01*
X53800Y93540D01*
D02*
G37*
G36*
X195265Y93543D02*
X194235D01*
X193507Y92815D01*
Y91785D01*
X194235Y91057D01*
X195265D01*
X195858Y91651D01*
X198093D01*
Y89550D01*
X207793D01*
Y90876D01*
X211396D01*
Y90525D01*
X211375D01*
Y89725D01*
X212175D01*
Y90525D01*
X212154D01*
Y90876D01*
X213614D01*
Y90470D01*
X213645Y90393D01*
X213650Y90391D01*
Y90350D01*
X219350D01*
Y93050D01*
X219290D01*
X219222Y93078D01*
X213722D01*
X213654Y93050D01*
X213650D01*
Y93048D01*
X213645Y93046D01*
X213614Y92970D01*
Y92174D01*
X210575D01*
Y92225D01*
X209025D01*
Y92174D01*
X207793D01*
Y93500D01*
X198093D01*
Y92949D01*
X195858D01*
X195265Y93543D01*
D02*
G37*
G36*
X107963Y89254D02*
X107963Y89254D01*
X102802D01*
X102534Y89143D01*
X102534Y89143D01*
X100419Y87028D01*
X96611D01*
Y87164D01*
X95883Y87892D01*
X94853D01*
X94125Y87164D01*
Y86135D01*
X94853Y85406D01*
X95883D01*
X96611Y86135D01*
Y86271D01*
X100576D01*
X100576Y86271D01*
X100844Y86382D01*
X102959Y88496D01*
X107806D01*
X108011Y88291D01*
Y88191D01*
X108275Y87927D01*
X108647D01*
X108911Y88191D01*
Y88563D01*
X108647Y88827D01*
X108547D01*
X108231Y89143D01*
X107963Y89254D01*
D02*
G37*
G36*
X117567Y89631D02*
X117153D01*
X116860Y89338D01*
Y89243D01*
X115471Y87855D01*
X114933D01*
X114904Y87883D01*
X114490D01*
X114197Y87591D01*
Y87176D01*
X114490Y86883D01*
X114904D01*
X115009Y86989D01*
X115651D01*
X115957Y87116D01*
X117472Y88631D01*
X117567D01*
X117860Y88924D01*
Y89338D01*
X117567Y89631D01*
D02*
G37*
G36*
X64388Y93375D02*
X63312D01*
X63253Y93316D01*
X62474Y92993D01*
X58120Y88640D01*
X57739Y87721D01*
Y86661D01*
X57500Y86421D01*
Y85179D01*
X57702Y84977D01*
X57701Y84975D01*
X58082Y84057D01*
X59000Y83676D01*
X59092Y83714D01*
X59180D01*
X59259Y83747D01*
X63266D01*
X63290Y83623D01*
X62976Y83493D01*
X62568Y82506D01*
X62976Y81519D01*
X63730Y81207D01*
Y80347D01*
X63873Y80003D01*
X66020Y77856D01*
X66364Y77713D01*
X92600D01*
X92944Y77856D01*
X99527Y84438D01*
X108716D01*
X108743Y84411D01*
Y84039D01*
X109182Y83600D01*
X109804D01*
X110243Y84039D01*
Y84661D01*
X109804Y85100D01*
X109432D01*
X109262Y85269D01*
X108918Y85412D01*
X99325D01*
X98981Y85269D01*
X92398Y78687D01*
X66566D01*
X64704Y80549D01*
Y81207D01*
X65458Y81519D01*
X65866Y82506D01*
X65458Y83493D01*
X65080Y83649D01*
X65105Y83776D01*
X67232D01*
Y79966D01*
X67390Y79583D01*
X67773Y79425D01*
X87585D01*
X87968Y79583D01*
X88126Y79966D01*
Y90126D01*
X87968Y90509D01*
X87585Y90667D01*
X67773D01*
X67390Y90509D01*
X67232Y90126D01*
Y86374D01*
X64659D01*
X64591Y86430D01*
X64604Y86571D01*
X65228Y86829D01*
X65541Y87586D01*
X65228Y88343D01*
X65035Y88423D01*
Y88792D01*
X68069Y91826D01*
X95169D01*
X99457Y87538D01*
X99916Y87348D01*
X100375Y87538D01*
X100565Y87997D01*
X100375Y88457D01*
X95898Y92934D01*
X95438Y93124D01*
X67800D01*
X67341Y92934D01*
X63927Y89520D01*
X63737Y89061D01*
Y88563D01*
X63206Y88343D01*
X62893Y87586D01*
X63206Y86829D01*
X63887Y86547D01*
Y86410D01*
X63730Y86345D01*
X60500D01*
Y86421D01*
X60337Y86584D01*
Y87183D01*
X63929Y90775D01*
X64388D01*
X65150Y91537D01*
Y92613D01*
X64388Y93375D01*
D02*
G37*
G36*
X104230Y88172D02*
X103200D01*
X102472Y87444D01*
Y86414D01*
X103200Y85686D01*
X104230D01*
X104958Y86414D01*
Y87444D01*
X104230Y88172D01*
D02*
G37*
G36*
X158636Y85875D02*
X158264D01*
X158159Y85771D01*
X121093D01*
X120902Y85691D01*
X120085Y84875D01*
X119832D01*
X119568Y84611D01*
Y84239D01*
X119738Y84068D01*
Y80796D01*
X119500Y80557D01*
Y80143D01*
X119793Y79850D01*
X120207D01*
X120500Y80143D01*
Y80557D01*
X120280Y80777D01*
Y84050D01*
X120468Y84239D01*
Y84492D01*
X121205Y85229D01*
X158009D01*
X158264Y84975D01*
X158636D01*
X158900Y85239D01*
Y85611D01*
X158636Y85875D01*
D02*
G37*
G36*
X104209Y84294D02*
X103180D01*
X102451Y83566D01*
Y82536D01*
X103180Y81808D01*
X104209D01*
X104937Y82536D01*
Y83566D01*
X104209Y84294D01*
D02*
G37*
G36*
X126925Y84801D02*
X126511D01*
X126218Y84508D01*
Y84093D01*
X126511Y83801D01*
X126835D01*
X129427Y81209D01*
X129619Y81129D01*
X144013D01*
Y80885D01*
X144741Y80157D01*
X145770D01*
X146499Y80885D01*
Y81129D01*
X149438D01*
X149469Y81002D01*
X149229Y80761D01*
Y80389D01*
X149408Y80209D01*
Y78972D01*
X127475Y57040D01*
X127446Y57068D01*
X126417D01*
X125689Y56340D01*
Y55310D01*
X126417Y54582D01*
X127446D01*
X128175Y55310D01*
Y56340D01*
X127858Y56657D01*
X149870Y78669D01*
X149949Y78860D01*
Y80209D01*
X150128Y80389D01*
Y80761D01*
X149887Y81002D01*
X149919Y81129D01*
X151327D01*
X151507Y80950D01*
X151879D01*
X152143Y81214D01*
Y81586D01*
X151879Y81850D01*
X151507D01*
X151327Y81671D01*
X146499D01*
Y81915D01*
X145770Y82643D01*
X144741D01*
X144013Y81915D01*
Y81671D01*
X129731D01*
X127218Y84183D01*
Y84508D01*
X126925Y84801D01*
D02*
G37*
G36*
X107437Y80743D02*
X106408D01*
X105679Y80015D01*
Y78985D01*
X106408Y78257D01*
X107437D01*
X108165Y78985D01*
Y80015D01*
X107437Y80743D01*
D02*
G37*
G36*
X127233Y78768D02*
X126203D01*
X125475Y78040D01*
Y77010D01*
X126203Y76282D01*
X127233D01*
X127961Y77010D01*
Y78040D01*
X127233Y78768D01*
D02*
G37*
G36*
X117857Y79725D02*
X117443D01*
X117150Y79432D01*
Y79018D01*
X117443Y78725D01*
X117857D01*
X118087Y78954D01*
X139113D01*
X142025Y76042D01*
Y75789D01*
X142289Y75525D01*
X142661D01*
X142925Y75789D01*
Y76161D01*
X142661Y76425D01*
X142408D01*
X139416Y79416D01*
X139225Y79496D01*
X118087D01*
X117857Y79725D01*
D02*
G37*
G36*
X50575Y75491D02*
X50192Y75333D01*
X50192Y75333D01*
X50034Y74950D01*
Y67025D01*
X50192Y66642D01*
X50575Y66484D01*
X96294Y66484D01*
X97993D01*
X98190Y66565D01*
X98380D01*
X98396Y66550D01*
X98991D01*
X99325Y66216D01*
X99325Y66216D01*
X99593Y66105D01*
X99593Y66105D01*
X109252D01*
X109252Y66105D01*
X109520Y66216D01*
X110015Y66711D01*
X110015Y66711D01*
X110126Y66979D01*
X110126Y66979D01*
Y70799D01*
X110126Y70799D01*
X110015Y71067D01*
X110015Y71067D01*
X109840Y71243D01*
X109716Y71294D01*
Y74950D01*
X109558Y75333D01*
X109558Y75333D01*
X109175Y75491D01*
X50575Y75491D01*
D02*
G37*
G36*
X90462Y64201D02*
X90269Y64009D01*
X90270Y64009D01*
X90462Y64201D01*
D02*
G37*
G36*
X64363Y65950D02*
X63287D01*
X62525Y65188D01*
Y64112D01*
X63287Y63350D01*
X64363D01*
X65125Y64112D01*
Y65188D01*
X64363Y65950D01*
D02*
G37*
G36*
X41022Y70601D02*
X3941D01*
X3559Y70442D01*
X3400Y70059D01*
Y52069D01*
X3559Y51687D01*
X3941Y51528D01*
X41022D01*
X41405Y51687D01*
X41563Y52069D01*
Y56863D01*
X43703D01*
X44121Y56690D01*
Y56553D01*
X43440Y56271D01*
X43127Y55514D01*
X43440Y54757D01*
X44197Y54444D01*
X44705D01*
X44919Y54532D01*
X50560Y48891D01*
X51019Y48701D01*
X96066D01*
X96525Y48891D01*
X100175Y52541D01*
X100365Y53000D01*
X100175Y53459D01*
X99716Y53649D01*
X99257Y53459D01*
X95797Y49999D01*
X59937D01*
X59888Y50117D01*
X60500Y50729D01*
Y51971D01*
X59621Y52850D01*
X58379D01*
X58216Y52687D01*
X56704D01*
X52807Y56584D01*
X52856Y56701D01*
X53117D01*
X53361Y56457D01*
X54639D01*
X55543Y57361D01*
Y58639D01*
X54639Y59543D01*
X53361D01*
X53117Y59299D01*
X50376D01*
X50121Y59554D01*
X48879D01*
X48569Y59245D01*
X45199D01*
X45161Y59261D01*
Y59388D01*
X45692Y59607D01*
X45945Y60219D01*
X46012Y60287D01*
X46035Y60341D01*
X48788Y63094D01*
X48879Y63004D01*
X50121D01*
X50395Y63278D01*
X53752D01*
X53926Y63350D01*
X54363D01*
X55125Y64112D01*
Y65188D01*
X54363Y65950D01*
X53287D01*
X53212Y65876D01*
X50249D01*
X50121Y66004D01*
X48879D01*
X48639Y65765D01*
X48323D01*
X47404Y65384D01*
X44176Y62155D01*
X44153Y62101D01*
X43931Y61879D01*
X43210Y61581D01*
X42802Y60594D01*
X43210Y59607D01*
X43741Y59388D01*
Y59261D01*
X43703Y59245D01*
X41563D01*
Y70059D01*
X41405Y70442D01*
X41022Y70601D01*
D02*
G37*
G36*
X128365Y65018D02*
X127335D01*
X126607Y64290D01*
Y63260D01*
X127335Y62532D01*
X128365D01*
X129093Y63260D01*
Y64290D01*
X128365Y65018D01*
D02*
G37*
G36*
X98498Y64451D02*
X97468D01*
X96740Y63723D01*
Y62693D01*
X97468Y61965D01*
X98498D01*
X99226Y62693D01*
Y63723D01*
X98498Y64451D01*
D02*
G37*
G36*
X90875Y65849D02*
X68375D01*
X67916Y65659D01*
X64146Y61889D01*
X63956Y61430D01*
Y61112D01*
X63306Y60843D01*
X62993Y60086D01*
X63306Y59329D01*
X63987Y59047D01*
Y58910D01*
X63830Y58845D01*
X60076D01*
X59621Y59300D01*
X58379D01*
X57500Y58421D01*
Y57179D01*
X58379Y56300D01*
X58862D01*
X58990Y56247D01*
X63366D01*
X63390Y56123D01*
X63076Y55993D01*
X62668Y55006D01*
X63076Y54019D01*
X63830Y53707D01*
Y53251D01*
X63973Y52907D01*
X66474Y50406D01*
X66818Y50263D01*
X93962D01*
X94306Y50406D01*
X99238Y55338D01*
X108719D01*
X108982Y55075D01*
X109604D01*
X110043Y55514D01*
Y56136D01*
X109604Y56575D01*
X108982D01*
X108719Y56312D01*
X99037D01*
X98692Y56169D01*
X93760Y51237D01*
X67020D01*
X64804Y53453D01*
Y53707D01*
X65558Y54019D01*
X65966Y55006D01*
X65558Y55993D01*
X65244Y56123D01*
X65268Y56247D01*
X67332D01*
Y52466D01*
X67490Y52083D01*
X67873Y51925D01*
X87685D01*
X88068Y52083D01*
X88226Y52466D01*
Y62626D01*
X88068Y63009D01*
X87685Y63167D01*
X67873D01*
X67490Y63009D01*
X67332Y62626D01*
Y58845D01*
X64804D01*
X64647Y58910D01*
Y59047D01*
X65328Y59329D01*
X65641Y60086D01*
X65328Y60843D01*
X65255Y60873D01*
Y61161D01*
X68644Y64551D01*
X90606D01*
X90709Y64448D01*
X90462Y64201D01*
X90709Y64448D01*
X96898Y58259D01*
X97357Y58069D01*
X99880D01*
X100339Y58259D01*
X100529Y58718D01*
X100339Y59177D01*
X99880Y59367D01*
X97626D01*
X91334Y65659D01*
X90875Y65849D01*
D02*
G37*
G36*
X117439Y61155D02*
X117025D01*
X116732Y60862D01*
Y60767D01*
X115829Y59864D01*
X115648D01*
X115342Y59737D01*
X114585Y58979D01*
X114490D01*
X114197Y58686D01*
Y58272D01*
X114490Y57979D01*
X114904D01*
X115197Y58272D01*
Y58367D01*
X115828Y58998D01*
X116008D01*
X116314Y59125D01*
X117344Y60155D01*
X117439D01*
X117732Y60448D01*
Y60862D01*
X117439Y61155D01*
D02*
G37*
G36*
X104120Y59133D02*
X103091D01*
X102363Y58405D01*
Y57375D01*
X103091Y56647D01*
X104120D01*
X104849Y57375D01*
Y58405D01*
X104120Y59133D01*
D02*
G37*
G36*
X120328Y65335D02*
X119913D01*
X119620Y65042D01*
Y64628D01*
X119809Y64439D01*
Y56272D01*
X119589Y56051D01*
Y55679D01*
X119853Y55415D01*
X120225D01*
X120489Y55679D01*
Y56051D01*
X120350Y56190D01*
Y64358D01*
X120620Y64628D01*
Y65042D01*
X120328Y65335D01*
D02*
G37*
G36*
X104284Y55102D02*
X103254D01*
X102526Y54374D01*
Y53344D01*
X103254Y52616D01*
X104284D01*
X105012Y53344D01*
Y54374D01*
X104284Y55102D01*
D02*
G37*
G36*
X125865Y49493D02*
X124835D01*
X124107Y48765D01*
Y47735D01*
X124835Y47007D01*
X125865D01*
X126593Y47735D01*
Y48765D01*
X125865Y49493D01*
D02*
G37*
G36*
X230884Y49090D02*
X216865D01*
Y48684D01*
X216732Y48362D01*
Y45756D01*
X214033D01*
X212731Y45217D01*
X212526Y44720D01*
X212401Y44696D01*
X212019Y45078D01*
X211056D01*
X210375Y44397D01*
Y43435D01*
X211056Y42754D01*
X212019D01*
X212401Y43136D01*
X212526Y43112D01*
X212731Y42615D01*
X214033Y42076D01*
X216732D01*
Y39980D01*
X216865Y39658D01*
Y39640D01*
X216873D01*
X216890Y39597D01*
X217273Y39438D01*
X223242D01*
X223625Y39597D01*
X223642Y39640D01*
X230884D01*
Y41662D01*
X237400D01*
X239084Y42359D01*
X239781Y44043D01*
X239084Y45727D01*
X237400Y46424D01*
X230884D01*
Y49090D01*
D02*
G37*
G36*
X108933Y45967D02*
X107903D01*
X107175Y45239D01*
Y44209D01*
X107903Y43481D01*
X108933D01*
X109661Y44209D01*
Y45239D01*
X108933Y45967D01*
D02*
G37*
G36*
X64213Y48300D02*
X63137D01*
X62375Y47538D01*
Y47537D01*
X58082Y43243D01*
X57701Y42325D01*
Y41622D01*
X57500Y41421D01*
Y40179D01*
X57722Y39956D01*
X58082Y39089D01*
X59000Y38709D01*
X59131Y38763D01*
X59157D01*
X59195Y38747D01*
X63883D01*
X63907Y38623D01*
X63594Y38493D01*
X63185Y37506D01*
X63594Y36519D01*
X64076Y36319D01*
Y35766D01*
X64298Y35230D01*
X67039Y32489D01*
X67575Y32267D01*
X91331D01*
X91867Y32489D01*
X97153Y37775D01*
X97356D01*
X97825Y38244D01*
Y38303D01*
X98630Y39108D01*
X102812D01*
X102860Y38991D01*
X102350Y38481D01*
Y37451D01*
X103078Y36723D01*
X104108D01*
X104836Y37451D01*
Y38481D01*
X104326Y38991D01*
X104374Y39108D01*
X107749D01*
X108797Y38060D01*
X108816Y38053D01*
X109022Y37846D01*
X109314D01*
X109333Y37838D01*
X109351Y37846D01*
X109644D01*
X109850Y38053D01*
X109869Y38060D01*
X109876Y38079D01*
X110083Y38285D01*
Y38577D01*
X110091Y38596D01*
X110083Y38615D01*
Y38907D01*
X109876Y39113D01*
X109869Y39132D01*
X108599Y40402D01*
X108063Y40624D01*
X98316D01*
X97780Y40402D01*
X96753Y39375D01*
X96694D01*
X96431Y39113D01*
X96288Y39053D01*
X91017Y33783D01*
X67889D01*
X65592Y36080D01*
Y36319D01*
X66075Y36519D01*
X66483Y37506D01*
X66075Y38493D01*
X65761Y38623D01*
X65786Y38747D01*
X67848D01*
Y34966D01*
X68007Y34583D01*
X68389Y34425D01*
X88201D01*
X88584Y34583D01*
X88743Y34966D01*
Y45126D01*
X88584Y45509D01*
X88201Y45667D01*
X68389D01*
X68007Y45509D01*
X67848Y45126D01*
Y41345D01*
X65321D01*
X65164Y41410D01*
Y41547D01*
X65845Y41829D01*
X66159Y42586D01*
X65858Y43312D01*
Y43784D01*
X65853Y43797D01*
Y43909D01*
X68271Y46327D01*
X96254D01*
X99494Y43087D01*
X99949Y42898D01*
X100405Y43087D01*
X100594Y43543D01*
X100405Y43998D01*
X96976Y47427D01*
X96521Y47615D01*
X68004D01*
X67549Y47427D01*
X64753Y44631D01*
X64564Y44176D01*
Y43797D01*
X64559Y43784D01*
Y43648D01*
X63823Y43343D01*
X63510Y42586D01*
X63823Y41829D01*
X64504Y41547D01*
Y41410D01*
X64348Y41345D01*
X60500D01*
Y41421D01*
X60299Y41622D01*
Y41787D01*
X64212Y45700D01*
X64213D01*
X64975Y46462D01*
Y47538D01*
X64213Y48300D01*
D02*
G37*
G36*
X200675Y46625D02*
X200495Y46551D01*
X200125D01*
Y46216D01*
X200026Y45976D01*
Y44179D01*
X199821D01*
Y42823D01*
X201529D01*
Y44179D01*
X201324D01*
Y45976D01*
X201225Y46216D01*
Y46551D01*
X200855D01*
X200675Y46625D01*
D02*
G37*
G36*
X50121Y48641D02*
X48879D01*
X48503Y48265D01*
X48355D01*
X47436Y47884D01*
X43931Y44379D01*
X43210Y44081D01*
X42802Y43094D01*
X43210Y42107D01*
X43741Y41888D01*
Y41761D01*
X43703Y41745D01*
X41563D01*
Y46015D01*
X41405Y46398D01*
X41022Y46556D01*
X3745D01*
X3362Y46398D01*
X3204Y46015D01*
Y28208D01*
X3362Y27826D01*
X3745Y27667D01*
X6567D01*
X6746Y27593D01*
X7254D01*
X7433Y27667D01*
X16567D01*
X16746Y27593D01*
X17254D01*
X17433Y27667D01*
X41022D01*
X41405Y27826D01*
X41563Y28208D01*
Y39363D01*
X43703D01*
X44121Y39190D01*
Y39053D01*
X43440Y38771D01*
X43127Y38014D01*
X43440Y37257D01*
X44197Y36944D01*
X44705D01*
X44840Y36999D01*
X51031Y30808D01*
X51037Y30795D01*
X51496Y30605D01*
X93864D01*
X94323Y30795D01*
X100226Y36698D01*
X100417Y37158D01*
X100226Y37617D01*
X99767Y37807D01*
X99308Y37617D01*
X93595Y31904D01*
X51757D01*
X45738Y37923D01*
X45775Y38014D01*
X45462Y38771D01*
X44781Y39053D01*
Y39190D01*
X45199Y39363D01*
X48706D01*
X48879Y39191D01*
X49316D01*
X54922Y33585D01*
X55764Y33236D01*
X55764Y33236D01*
X57993D01*
X58379Y32850D01*
X59621D01*
X60500Y33729D01*
Y34971D01*
X59621Y35850D01*
X58379D01*
X58146Y35617D01*
X56257D01*
X51000Y40875D01*
Y41312D01*
X50121Y42191D01*
X48879D01*
X48433Y41745D01*
X45199D01*
X45161Y41761D01*
Y41888D01*
X45692Y42107D01*
X45945Y42719D01*
X48873Y45647D01*
X48879Y45641D01*
X50121D01*
X50184Y45703D01*
X53133D01*
X53137Y45700D01*
X54213D01*
X54975Y46462D01*
Y47538D01*
X54213Y48300D01*
X53675D01*
X53673Y48301D01*
X50461D01*
X50121Y48641D01*
D02*
G37*
G36*
X104108Y43308D02*
X103078D01*
X102350Y42580D01*
Y41550D01*
X103078Y40822D01*
X104108D01*
X104836Y41550D01*
Y42580D01*
X104108Y43308D01*
D02*
G37*
G36*
X146904Y78650D02*
X146532D01*
X146268Y78386D01*
Y78133D01*
X119827Y51691D01*
X119747Y51500D01*
Y38966D01*
X119568Y38786D01*
Y38414D01*
X119832Y38150D01*
X120204D01*
X120468Y38414D01*
Y38786D01*
X120289Y38966D01*
Y51388D01*
X146651Y77750D01*
X146904D01*
X147168Y78014D01*
Y78386D01*
X146904Y78650D01*
D02*
G37*
G36*
X152604Y79850D02*
X152232D01*
X151968Y79586D01*
Y79214D01*
X152147Y79034D01*
Y78455D01*
X127102Y53409D01*
X127022Y53218D01*
Y39644D01*
X126203D01*
X125475Y38916D01*
Y37886D01*
X126203Y37158D01*
X127233D01*
X127961Y37886D01*
Y38916D01*
X127505Y39372D01*
X127564Y39513D01*
Y53106D01*
X152609Y78152D01*
X152689Y78343D01*
Y79034D01*
X152868Y79214D01*
Y79586D01*
X152604Y79850D01*
D02*
G37*
G36*
X201929Y42427D02*
X199421D01*
Y40271D01*
X199917D01*
Y38347D01*
X199275Y37705D01*
Y36545D01*
X200095Y35725D01*
X201255D01*
X202075Y36545D01*
Y37705D01*
X201433Y38347D01*
Y40271D01*
X201929D01*
Y42427D01*
D02*
G37*
G36*
X135031Y49475D02*
X134119D01*
X133475Y48831D01*
Y47919D01*
X134119Y47275D01*
X134757D01*
X136926Y45106D01*
Y36975D01*
X135650D01*
Y34004D01*
X133193D01*
Y34140D01*
X132465Y34868D01*
X131435D01*
X130707Y34140D01*
Y33110D01*
X131435Y32382D01*
X132465D01*
X133193Y33110D01*
Y33246D01*
X135650D01*
Y27275D01*
X139600D01*
Y36975D01*
X138224D01*
Y45375D01*
X138034Y45834D01*
X135675Y48193D01*
Y48831D01*
X135031Y49475D01*
D02*
G37*
G36*
X153461Y82025D02*
X153089D01*
X152825Y81761D01*
Y81389D01*
X153004Y81209D01*
Y77562D01*
X128609Y53166D01*
X128529Y52975D01*
Y33661D01*
X128300Y33432D01*
Y33018D01*
X128593Y32725D01*
X129007D01*
X129300Y33018D01*
Y33432D01*
X129071Y33661D01*
Y52863D01*
X153466Y77259D01*
X153546Y77450D01*
Y81209D01*
X153725Y81389D01*
Y81761D01*
X153461Y82025D01*
D02*
G37*
G36*
X140661Y77200D02*
X140289D01*
X140025Y76936D01*
Y76564D01*
X140204Y76384D01*
Y73637D01*
X118175Y51608D01*
X118096Y51417D01*
Y43546D01*
X115734Y41184D01*
X115654Y40993D01*
Y33311D01*
X115425Y33082D01*
Y32668D01*
X115718Y32375D01*
X116132D01*
X116425Y32668D01*
Y33082D01*
X116196Y33311D01*
Y40880D01*
X118558Y43243D01*
X118637Y43434D01*
Y51305D01*
X140666Y73334D01*
X140746Y73525D01*
Y76384D01*
X140925Y76564D01*
Y76936D01*
X140661Y77200D01*
D02*
G37*
G36*
X102484Y32118D02*
X101454D01*
X100726Y31390D01*
Y30360D01*
X101103Y29983D01*
X101054Y29866D01*
X96045D01*
X48175Y29866D01*
X47792Y29708D01*
X47792Y29708D01*
X47634Y29325D01*
Y21400D01*
X47792Y21017D01*
X47975Y20941D01*
Y20814D01*
X47474Y20607D01*
X43710Y16843D01*
X43682Y16776D01*
X43210Y16581D01*
X42802Y15594D01*
X43210Y14607D01*
X43524Y14477D01*
X43500Y14353D01*
X41563D01*
Y24900D01*
X41405Y25283D01*
X41022Y25441D01*
X3745D01*
X3362Y25283D01*
X3204Y24900D01*
Y17838D01*
X3204Y17838D01*
X3362Y17455D01*
X3362Y17455D01*
X14125Y6692D01*
X14508Y6534D01*
X14508Y6534D01*
X41022D01*
X41405Y6692D01*
X41563Y7075D01*
Y11755D01*
X43964D01*
X44121Y11690D01*
Y11553D01*
X43440Y11271D01*
X43127Y10514D01*
X43440Y9757D01*
X44197Y9444D01*
X44627D01*
X44639Y9416D01*
X52695Y1360D01*
X53150Y1171D01*
X95932D01*
X96388Y1360D01*
X100123Y5095D01*
X100311Y5550D01*
X100123Y6005D01*
X99667Y6194D01*
X99212Y6005D01*
X95665Y2459D01*
X53417D01*
X45654Y10221D01*
X45775Y10514D01*
X45462Y11271D01*
X44781Y11553D01*
Y11690D01*
X44938Y11755D01*
X48824D01*
X48879Y11700D01*
X50121D01*
X50176Y11755D01*
X53117D01*
X53361Y11511D01*
X54639D01*
X55543Y12415D01*
Y13693D01*
X54639Y14597D01*
X53361D01*
X53117Y14353D01*
X50468D01*
X50121Y14700D01*
X48879D01*
X48532Y14353D01*
X45402D01*
X45378Y14477D01*
X45692Y14607D01*
X45859Y15012D01*
X48997Y18150D01*
X50121D01*
X50227Y18255D01*
X53588D01*
X53876Y18375D01*
X54138D01*
X54324Y18560D01*
X54582Y18668D01*
X54690Y18926D01*
X54900Y19137D01*
Y19434D01*
X54995Y19663D01*
X54900Y19891D01*
Y20213D01*
X54672Y20442D01*
X54582Y20657D01*
X54403Y20732D01*
X54428Y20859D01*
X62779Y20859D01*
X62828Y20741D01*
X62300Y20213D01*
Y19137D01*
X63062Y18375D01*
X64138D01*
X64900Y19137D01*
Y20213D01*
X64372Y20741D01*
X64421Y20859D01*
X98546Y20859D01*
X98928Y21017D01*
X98998Y21186D01*
X99406D01*
X99496Y21275D01*
X101216D01*
X101913Y20578D01*
X102181Y20467D01*
X102181Y20467D01*
X109780D01*
X109780Y20467D01*
X110048Y20578D01*
X110223Y20754D01*
X110223Y20754D01*
X110334Y21022D01*
X110334Y21022D01*
Y25274D01*
X110334Y25274D01*
X110223Y25542D01*
X110223Y25542D01*
X110048Y25718D01*
X109780Y25829D01*
X109675Y25890D01*
Y29050D01*
X109671D01*
Y29325D01*
X109513Y29708D01*
X109130Y29866D01*
X102884D01*
X102835Y29983D01*
X103212Y30360D01*
Y31390D01*
X102484Y32118D01*
D02*
G37*
G36*
X169340Y31910D02*
X168310D01*
X167582Y31182D01*
Y30152D01*
X167634Y30100D01*
Y27400D01*
X166739D01*
Y24021D01*
X163586D01*
Y24080D01*
X163555Y24157D01*
X163550Y24159D01*
Y24200D01*
X157850D01*
Y21500D01*
X157911D01*
X157978Y21472D01*
X163478D01*
X163545Y21500D01*
X163550D01*
Y21502D01*
X163555Y21504D01*
X163586Y21580D01*
Y21640D01*
X166739D01*
Y17700D01*
X170689D01*
Y27400D01*
X170016D01*
Y30100D01*
X170068Y30152D01*
Y31182D01*
X169340Y31910D01*
D02*
G37*
G36*
X101110Y20643D02*
X100081D01*
X99353Y19915D01*
Y18885D01*
X100081Y18157D01*
X101110D01*
X101839Y18885D01*
Y19915D01*
X101110Y20643D01*
D02*
G37*
G36*
X125233Y20000D02*
X124203D01*
X123475Y19272D01*
Y18242D01*
X124203Y17514D01*
X125233D01*
X125961Y18242D01*
Y19272D01*
X125233Y20000D01*
D02*
G37*
G36*
X109708Y14018D02*
X108678D01*
X107950Y13290D01*
Y12260D01*
X108678Y11532D01*
X109708D01*
X110436Y12260D01*
Y13290D01*
X109708Y14018D01*
D02*
G37*
G36*
X223750Y30401D02*
X216873Y27552D01*
X214024Y20675D01*
X216873Y13798D01*
X223750Y10949D01*
X230627Y13798D01*
X233476Y20675D01*
X230627Y27552D01*
X223750Y30401D01*
D02*
G37*
G36*
X117567Y15397D02*
X117153D01*
X116860Y15104D01*
Y14851D01*
X113744Y11735D01*
X113649D01*
X113356Y11442D01*
Y11028D01*
X113649Y10735D01*
X114063D01*
X114356Y11028D01*
Y11123D01*
X117628Y14395D01*
X117672Y14503D01*
X117860Y14690D01*
Y15104D01*
X117567Y15397D01*
D02*
G37*
G36*
X91361Y20394D02*
X68400D01*
X67945Y20205D01*
X64662Y16922D01*
X64473Y16467D01*
Y15995D01*
X64106Y15843D01*
X63793Y15086D01*
X64106Y14329D01*
X64787Y14047D01*
Y13910D01*
X64630Y13845D01*
X60076D01*
X59621Y14300D01*
X58379D01*
X57500Y13421D01*
Y12179D01*
X58081Y11598D01*
X58082Y11596D01*
X58084Y11595D01*
X58379Y11300D01*
X58796D01*
X59000Y11215D01*
X59077Y11247D01*
X64166D01*
X64190Y11123D01*
X63876Y10993D01*
X63468Y10006D01*
X63876Y9019D01*
X64630Y8707D01*
Y6129D01*
X64773Y5785D01*
X65627Y4931D01*
X65971Y4788D01*
X96093D01*
X96437Y4931D01*
X99694Y8187D01*
X108894D01*
X109157Y7924D01*
X109779D01*
X110218Y8363D01*
Y8985D01*
X109779Y9424D01*
X109157D01*
X108894Y9161D01*
X99492D01*
X99148Y9019D01*
X95891Y5762D01*
X66173D01*
X65604Y6331D01*
Y8707D01*
X66358Y9019D01*
X66766Y10006D01*
X66358Y10993D01*
X66044Y11123D01*
X66068Y11247D01*
X68131D01*
Y7466D01*
X68290Y7083D01*
X68673Y6925D01*
X88485D01*
X88867Y7083D01*
X89026Y7466D01*
Y17626D01*
X88867Y18009D01*
X88485Y18167D01*
X68673D01*
X68290Y18009D01*
X68131Y17626D01*
Y13845D01*
X65604D01*
X65447Y13910D01*
Y14047D01*
X66128Y14329D01*
X66441Y15086D01*
X66128Y15843D01*
X65761Y15995D01*
Y16200D01*
X68667Y19106D01*
X91094D01*
X99413Y10788D01*
X99868Y10599D01*
X100323Y10788D01*
X100512Y11243D01*
X100323Y11699D01*
X91817Y20205D01*
X91361Y20394D01*
D02*
G37*
G36*
X104383Y12086D02*
X103353D01*
X102625Y11357D01*
Y10328D01*
X103353Y9600D01*
X104383D01*
X105111Y10328D01*
Y11357D01*
X104383Y12086D01*
D02*
G37*
G36*
X120257Y19700D02*
X119843D01*
X119550Y19407D01*
Y18993D01*
X119776Y18767D01*
Y9043D01*
X119593Y8861D01*
Y8488D01*
X119857Y8224D01*
X120229D01*
X120493Y8488D01*
Y8861D01*
X120317Y9036D01*
Y18760D01*
X120550Y18993D01*
Y19407D01*
X120257Y19700D01*
D02*
G37*
G36*
X127508Y9698D02*
X126478D01*
X125750Y8970D01*
Y7940D01*
X126478Y7212D01*
X127508D01*
X128236Y7940D01*
Y8970D01*
X127508Y9698D01*
D02*
G37*
G36*
X104108Y8003D02*
X103078D01*
X102350Y7275D01*
Y6245D01*
X103078Y5517D01*
X104108D01*
X104836Y6245D01*
Y7275D01*
X104108Y8003D01*
D02*
G37*
G36*
X176939Y27400D02*
X172989D01*
Y17700D01*
X176939D01*
Y21433D01*
X179464D01*
Y21320D01*
X179495Y21243D01*
X179500Y21241D01*
Y21200D01*
X181131D01*
Y16378D01*
X181480Y15536D01*
X188659Y8357D01*
Y6047D01*
X188752Y5825D01*
Y5713D01*
X188938Y5263D01*
X188994Y5240D01*
X189008Y5205D01*
X189850Y4857D01*
X190692Y5205D01*
X190696Y5215D01*
X190812Y5263D01*
X190998Y5713D01*
Y5945D01*
X191041Y6047D01*
Y8850D01*
X190692Y9692D01*
X183513Y16871D01*
Y21200D01*
X185200D01*
Y23900D01*
X185140D01*
X185072Y23928D01*
X179572D01*
X179504Y23900D01*
X179500D01*
Y23898D01*
X179495Y23896D01*
X179464Y23820D01*
Y23706D01*
X176939D01*
Y27400D01*
D02*
G37*
G36*
X59621Y7850D02*
X58379D01*
X57500Y6971D01*
Y5729D01*
X58379Y4850D01*
X59621D01*
X60500Y5729D01*
Y6971D01*
X59621Y7850D01*
D02*
G37*
G36*
X151400Y74237D02*
X150826Y73999D01*
X143301Y66474D01*
X143063Y65900D01*
Y44289D01*
X142632Y43857D01*
Y42828D01*
X143063Y42396D01*
Y36975D01*
X141900D01*
Y27275D01*
X142906D01*
Y20012D01*
X142600Y19706D01*
Y19298D01*
X136996Y13694D01*
X136759Y13120D01*
Y7279D01*
X136425Y6945D01*
Y6055D01*
X137054Y5425D01*
X137945D01*
X138575Y6055D01*
Y6436D01*
X141002Y8863D01*
X145489D01*
X146870Y7482D01*
Y7390D01*
X146425Y6945D01*
Y6055D01*
X147054Y5425D01*
X147945D01*
X148575Y6055D01*
Y6945D01*
X148603Y7013D01*
X153514D01*
X155025Y5502D01*
Y2450D01*
X157225D01*
Y3425D01*
X163400D01*
Y3337D01*
X165200D01*
Y5137D01*
X163400D01*
Y5049D01*
X157225D01*
Y6650D01*
X156173D01*
X154424Y8399D01*
X153850Y8637D01*
X148011D01*
X146399Y10249D01*
X145825Y10487D01*
X140666D01*
X140092Y10249D01*
X138500Y8657D01*
X138382Y8706D01*
Y12784D01*
X143748Y18150D01*
X144156D01*
X144800Y18794D01*
Y19706D01*
X144530Y19976D01*
Y27275D01*
X145850D01*
Y36975D01*
X144687D01*
Y42396D01*
X145118Y42828D01*
Y43857D01*
X144687Y44289D01*
Y65564D01*
X151974Y72851D01*
X152212Y73425D01*
X151974Y73999D01*
X151400Y74237D01*
D02*
G37*
G36*
X178600Y5087D02*
X177940Y4814D01*
X177667Y4154D01*
Y3646D01*
X177940Y2986D01*
X178600Y2713D01*
X179260Y2986D01*
X179533Y3646D01*
Y4154D01*
X179260Y4814D01*
X178600Y5087D01*
D02*
G37*
G36*
X173520D02*
X172860Y4814D01*
X172587Y4154D01*
Y3646D01*
X172860Y2986D01*
X173520Y2713D01*
X174180Y2986D01*
X174453Y3646D01*
Y4154D01*
X174180Y4814D01*
X173520Y5087D01*
D02*
G37*
%LPD*%
G36*
X50027Y197903D02*
X50222Y197864D01*
X53135D01*
X53141Y197865D01*
X54002D01*
X54465Y197402D01*
Y196748D01*
X54002Y196285D01*
X53141D01*
X53135Y196286D01*
X50422D01*
X50227Y196247D01*
X50062Y196137D01*
X49910Y195985D01*
X49068D01*
X48969Y196051D01*
X48774Y196090D01*
X48611Y196057D01*
X48579Y196051D01*
X48413Y195940D01*
X45607Y193134D01*
X45496Y192969D01*
X45301Y192498D01*
X44965Y192358D01*
X44800Y192248D01*
X44749Y192172D01*
X44153D01*
X44102Y192248D01*
X43937Y192358D01*
X43601Y192498D01*
X43354Y193094D01*
X43601Y193690D01*
X44072Y193886D01*
X44237Y193996D01*
X47664Y197423D01*
X48395Y197726D01*
X48639D01*
X48834Y197765D01*
X49000Y197875D01*
X49090Y197965D01*
X49934D01*
X50027Y197903D01*
D02*
G37*
G36*
X64465Y197402D02*
Y196748D01*
X63856Y196139D01*
X63851Y196135D01*
X59938Y192222D01*
X59828Y192057D01*
X59789Y191862D01*
Y191622D01*
X59828Y191427D01*
X59938Y191262D01*
X60024Y191177D01*
X60029Y191150D01*
X60140Y190984D01*
X60305Y190874D01*
X60500Y190835D01*
X62475D01*
Y189257D01*
X59305D01*
X58573Y189560D01*
X58534Y189599D01*
X58534Y189599D01*
X58487Y189631D01*
X58326Y190019D01*
Y190019D01*
X58215Y190184D01*
X58010Y190390D01*
Y191210D01*
X58062Y191262D01*
X58172Y191427D01*
X58211Y191622D01*
Y192299D01*
X58514Y193030D01*
X62735Y197251D01*
X62739Y197256D01*
X63348Y197865D01*
X64002D01*
X64465Y197402D01*
D02*
G37*
G36*
X64773Y188427D02*
X64801Y188386D01*
X64820Y188339D01*
X64855Y188304D01*
X64883Y188262D01*
X64925Y188234D01*
X64960Y188199D01*
X65007Y188179D01*
X65049Y188152D01*
X65167Y188102D01*
X65414Y187506D01*
X65167Y186910D01*
X64880Y186790D01*
X64714Y186680D01*
X64604Y186515D01*
X64565Y186319D01*
Y185840D01*
X64603Y185649D01*
X64279Y185387D01*
X64156Y185418D01*
X64069Y185627D01*
Y186319D01*
X64030Y186515D01*
X63920Y186680D01*
X63754Y186790D01*
X63467Y186910D01*
X63220Y187506D01*
X63467Y188102D01*
X63585Y188152D01*
X63627Y188179D01*
X63674Y188199D01*
X63709Y188234D01*
X63751Y188262D01*
X63779Y188304D01*
X63814Y188339D01*
X63833Y188386D01*
X63861Y188427D01*
X63864Y188440D01*
X64770D01*
X64773Y188427D01*
D02*
G37*
G36*
X50490Y190935D02*
Y190709D01*
X50529Y190514D01*
X50640Y190348D01*
X55731Y185257D01*
X55897Y185146D01*
X56092Y185107D01*
X58146D01*
X58341Y185146D01*
X58506Y185257D01*
X58590Y185340D01*
X59410D01*
X59990Y184760D01*
Y183940D01*
X59410Y183360D01*
X58590D01*
X58353Y183596D01*
X58188Y183707D01*
X57993Y183746D01*
X55700D01*
X55045Y184017D01*
X49677Y189385D01*
X49511Y189496D01*
X49316Y189535D01*
X49090D01*
X48901Y189724D01*
X48735Y189834D01*
X48540Y189873D01*
X46792D01*
Y191235D01*
X48598D01*
X48761Y191267D01*
X48793Y191274D01*
X48959Y191384D01*
X49090Y191515D01*
X49910D01*
X50490Y190935D01*
D02*
G37*
G36*
X41148Y196306D02*
X41022Y178083D01*
X3882D01*
X3793Y178173D01*
X3872Y183102D01*
X17166Y196396D01*
X41059D01*
X41148Y196306D01*
D02*
G37*
G36*
X109175Y180775D02*
Y172850D01*
X99814D01*
Y173401D01*
X98400D01*
Y172850D01*
X95825D01*
X50375Y172850D01*
Y180775D01*
X109175Y180775D01*
D02*
G37*
G36*
X49912Y170613D02*
X50077Y170503D01*
X50272Y170464D01*
X53135D01*
X53141Y170465D01*
X54002D01*
X54465Y170002D01*
Y169348D01*
X54002Y168885D01*
X53141D01*
X53135Y168886D01*
X50372D01*
X50210Y168854D01*
X50177Y168847D01*
X50012Y168737D01*
X49910Y168635D01*
X49090D01*
X49076Y168648D01*
X48911Y168759D01*
X48716Y168798D01*
X47800D01*
X47637Y168765D01*
X47605Y168759D01*
X47439Y168648D01*
X45532Y166741D01*
X45422Y166576D01*
X45383Y166381D01*
Y166095D01*
X45422Y165899D01*
X45548Y165594D01*
X45301Y164998D01*
X44965Y164858D01*
X44800Y164748D01*
X44716Y164622D01*
X44108D01*
X44107Y164626D01*
X44082Y164664D01*
X44065Y164706D01*
X44027Y164746D01*
X43996Y164792D01*
X43959Y164817D01*
X43928Y164849D01*
X43877Y164871D01*
X43831Y164902D01*
X43601Y164998D01*
X43354Y165594D01*
X43617Y166229D01*
X43656Y166255D01*
Y166255D01*
X43656D01*
X43766Y166421D01*
X43797Y166577D01*
X43805Y166616D01*
Y166616D01*
D01*
Y166818D01*
X44108Y167549D01*
X46632Y170073D01*
X47363Y170376D01*
X48639D01*
X48834Y170415D01*
X49000Y170525D01*
X49090Y170615D01*
X49910D01*
X49912Y170613D01*
D02*
G37*
G36*
X50191Y163884D02*
X50357Y163774D01*
X50552Y163735D01*
X53008D01*
X53204Y163774D01*
X53369Y163884D01*
X53572Y164087D01*
X54428D01*
X55033Y163482D01*
Y162626D01*
X54428Y162021D01*
X53572D01*
X53369Y162224D01*
X53204Y162334D01*
X53008Y162373D01*
X52661D01*
X52466Y162334D01*
X52301Y162224D01*
X52190Y162058D01*
X52142Y161941D01*
X52142Y161941D01*
X52103Y161746D01*
X52142Y161551D01*
X52252Y161386D01*
X55381Y158257D01*
X55547Y158146D01*
X55742Y158107D01*
X58146D01*
X58341Y158146D01*
X58506Y158257D01*
X58590Y158340D01*
X59410D01*
X59990Y157760D01*
Y156940D01*
X59410Y156360D01*
X58590D01*
X58353Y156596D01*
X58188Y156707D01*
X57993Y156746D01*
X55350D01*
X54695Y157017D01*
X49677Y162035D01*
X49511Y162146D01*
X49316Y162185D01*
X49090D01*
X49051Y162224D01*
X48885Y162334D01*
X48690Y162373D01*
X46900D01*
Y163735D01*
X48448D01*
X48643Y163774D01*
X48809Y163884D01*
X49090Y164165D01*
X49910D01*
X50191Y163884D01*
D02*
G37*
G36*
X41022Y157019D02*
X3745D01*
Y175034D01*
X41022D01*
Y157019D01*
D02*
G37*
G36*
X64465Y170002D02*
Y169348D01*
X63856Y168739D01*
X63851Y168735D01*
X60019Y164903D01*
X59908Y164737D01*
X59869Y164542D01*
X59908Y164347D01*
X59990Y164224D01*
Y163845D01*
X60029Y163650D01*
X60140Y163484D01*
X60305Y163374D01*
X60500Y163335D01*
X62610D01*
Y161757D01*
X59414D01*
X58683Y162060D01*
X58534Y162208D01*
X58534Y162208D01*
X58487Y162240D01*
X58211Y162906D01*
Y162978D01*
X58172Y163173D01*
X58062Y163338D01*
X58010Y163390D01*
Y164210D01*
X58062Y164262D01*
X58172Y164427D01*
X58211Y164622D01*
Y164899D01*
X58514Y165630D01*
X62735Y169851D01*
X62739Y169856D01*
X63348Y170465D01*
X64002D01*
X64465Y170002D01*
D02*
G37*
G36*
X64873Y160927D02*
X64901Y160886D01*
X64920Y160839D01*
X64955Y160804D01*
X64983Y160762D01*
X65025Y160734D01*
X65060Y160699D01*
X65107Y160679D01*
X65149Y160652D01*
X65267Y160602D01*
X65514Y160006D01*
X65267Y159410D01*
X64732Y159188D01*
X64567Y159077D01*
X64510Y158993D01*
X64358Y158992D01*
X64313Y159058D01*
X64148Y159169D01*
X63567Y159410D01*
X63320Y160006D01*
X63567Y160602D01*
X63685Y160652D01*
X63727Y160679D01*
X63774Y160699D01*
X63809Y160734D01*
X63851Y160762D01*
X63879Y160804D01*
X63914Y160839D01*
X63933Y160886D01*
X63961Y160927D01*
X63968Y160959D01*
X64866D01*
X64873Y160927D01*
D02*
G37*
G36*
X64565Y152352D02*
Y151698D01*
X63956Y151089D01*
X63951Y151085D01*
X59993Y147127D01*
X59882Y146961D01*
X59843Y146766D01*
Y146145D01*
X59882Y145950D01*
X59993Y145784D01*
X60158Y145674D01*
X60353Y145635D01*
X62331D01*
Y144057D01*
X59643D01*
X59532Y144035D01*
X58590D01*
X58010Y144615D01*
Y145435D01*
X58116Y145541D01*
X58226Y145706D01*
X58265Y145902D01*
Y147203D01*
X58568Y147934D01*
X62835Y152201D01*
X62839Y152206D01*
X63448Y152815D01*
X64102D01*
X64565Y152352D01*
D02*
G37*
G36*
X64655Y143104D02*
X64683Y143062D01*
X64725Y143034D01*
X64760Y142999D01*
X64807Y142979D01*
X64849Y142952D01*
X64967Y142902D01*
X65214Y142306D01*
X64967Y141710D01*
X64409Y141478D01*
X64244Y141368D01*
X64193Y141293D01*
X64041D01*
X63990Y141368D01*
X63825Y141478D01*
X63267Y141710D01*
X63020Y142306D01*
X63267Y142902D01*
X63385Y142952D01*
X63427Y142979D01*
X63474Y142999D01*
X63509Y143034D01*
X63551Y143062D01*
X63579Y143104D01*
X63612Y143137D01*
X64622D01*
X64655Y143104D01*
D02*
G37*
G36*
X49987Y152963D02*
X50152Y152853D01*
X50347Y152814D01*
X53235D01*
X53241Y152815D01*
X54102D01*
X54565Y152352D01*
Y151698D01*
X54102Y151235D01*
X53241D01*
X53235Y151236D01*
X50297D01*
X50135Y151204D01*
X50102Y151197D01*
X49937Y151087D01*
X49910Y151060D01*
X48998D01*
X48803Y151021D01*
X48637Y150910D01*
X45427Y147700D01*
X45427Y147700D01*
X45317Y147535D01*
X45301Y147498D01*
X45038Y147389D01*
X44996Y147361D01*
X44950Y147342D01*
X44915Y147306D01*
X44873Y147278D01*
X44845Y147236D01*
X44809Y147201D01*
X44790Y147154D01*
X44762Y147113D01*
X44753Y147063D01*
X44746Y147047D01*
X44156D01*
X44149Y147063D01*
X44140Y147113D01*
X44112Y147154D01*
X44093Y147201D01*
X44057Y147236D01*
X44029Y147278D01*
X43987Y147306D01*
X43952Y147342D01*
X43906Y147361D01*
X43864Y147389D01*
X43601Y147498D01*
X43354Y148094D01*
X43601Y148690D01*
X44331Y148993D01*
X44458Y149018D01*
X44624Y149129D01*
X47993Y152498D01*
X48803Y152833D01*
X48834Y152840D01*
X49000Y152950D01*
X49090Y153040D01*
X49910D01*
X49987Y152963D01*
D02*
G37*
G36*
X50490Y146010D02*
Y145784D01*
X50529Y145589D01*
X50640Y145423D01*
X56581Y139482D01*
X56747Y139371D01*
X56942Y139332D01*
X58146D01*
X58341Y139371D01*
X58506Y139482D01*
X58590Y139565D01*
X59410D01*
X59990Y138985D01*
Y138165D01*
X59312Y137487D01*
X59312Y137487D01*
X59246Y137388D01*
X59232Y137367D01*
X58768D01*
X58754Y137388D01*
X58688Y137487D01*
X58688Y137487D01*
X58353Y137821D01*
X58188Y137932D01*
X57993Y137971D01*
X56550D01*
X55895Y138242D01*
X49677Y144460D01*
X49511Y144571D01*
X49316Y144610D01*
X49090D01*
X48930Y144770D01*
X48764Y144880D01*
X48569Y144919D01*
X46862D01*
Y146281D01*
X48569D01*
X48764Y146320D01*
X48930Y146430D01*
X49076Y146576D01*
X49924D01*
X50490Y146010D01*
D02*
G37*
G36*
X48879Y144100D02*
X49316D01*
X55607Y137810D01*
X55607Y137810D01*
X56448Y137461D01*
X56448Y137461D01*
X57993D01*
X58327Y137126D01*
X58275Y136999D01*
X51669D01*
X45740Y142928D01*
X45775Y143014D01*
X45462Y143771D01*
X44781Y144053D01*
Y144190D01*
X45310Y144409D01*
X48569D01*
X48879Y144100D01*
D02*
G37*
G36*
X41022Y132858D02*
X3745D01*
Y151150D01*
X41022D01*
Y132858D01*
D02*
G37*
G36*
X151245Y116854D02*
X136359Y101967D01*
X129550Y100525D01*
X126193Y98250D01*
X119509D01*
X117738Y96825D01*
X111921D01*
X111710Y97038D01*
X111821Y108526D01*
X124472D01*
X127246Y111080D01*
X142621Y125236D01*
X146170D01*
X151245Y116854D01*
D02*
G37*
G36*
X160950Y116891D02*
X183050Y94791D01*
Y82508D01*
X186435Y79123D01*
X189884Y79123D01*
Y70523D01*
X182602D01*
X170321Y82804D01*
Y92662D01*
X152261Y110722D01*
X152261Y115100D01*
Y121109D01*
Y124500D01*
X160950D01*
Y116891D01*
D02*
G37*
G36*
X210165Y74760D02*
X236674D01*
Y64900D01*
X206350D01*
X190691Y80559D01*
X187008D01*
Y89225D01*
X195700D01*
X210165Y74760D01*
D02*
G37*
G36*
X109077Y134050D02*
Y126330D01*
X99337D01*
Y127408D01*
X97812D01*
Y126330D01*
X96045D01*
X50053Y126330D01*
X50053Y134050D01*
X109077Y134050D01*
D02*
G37*
G36*
X53740Y125545D02*
X53756Y125467D01*
X53756Y125467D01*
Y125467D01*
X53800Y125400D01*
X53866Y125301D01*
X54415Y124752D01*
Y124098D01*
X53952Y123635D01*
X53091D01*
X53085Y123636D01*
X50222D01*
X50027Y123597D01*
X49934Y123535D01*
X49055D01*
X48994Y123576D01*
X48799Y123615D01*
X48604Y123576D01*
X48438Y123465D01*
X45607Y120634D01*
X45496Y120469D01*
X45301Y119998D01*
X44965Y119858D01*
X44800Y119748D01*
X44739Y119657D01*
X44086D01*
X44082Y119664D01*
X44065Y119706D01*
X44027Y119746D01*
X43996Y119792D01*
X43959Y119817D01*
X43928Y119849D01*
X43877Y119871D01*
X43831Y119902D01*
X43601Y119998D01*
X43354Y120594D01*
X43601Y121190D01*
X44072Y121386D01*
X44237Y121496D01*
X47714Y124973D01*
X48445Y125276D01*
X48639D01*
X48834Y125315D01*
X49000Y125425D01*
X49090Y125515D01*
X49524D01*
X49573Y125525D01*
X49623D01*
X49669Y125544D01*
X49719Y125554D01*
X49760Y125582D01*
X49807Y125601D01*
X49831Y125625D01*
X53724D01*
X53740Y125545D01*
D02*
G37*
G36*
X63748Y125506D02*
X63756Y125467D01*
X63800Y125400D01*
X63866Y125301D01*
X63866Y125301D01*
X64415Y124752D01*
Y124098D01*
X63806Y123489D01*
X63801Y123485D01*
X61044Y120728D01*
X60414Y120467D01*
X59886Y120686D01*
X59667Y121214D01*
X59928Y121844D01*
X62685Y124601D01*
X62689Y124606D01*
X63384Y125301D01*
X63384Y125301D01*
X63450Y125400D01*
X63494Y125467D01*
X63510Y125547D01*
X63740D01*
X63748Y125506D01*
D02*
G37*
G36*
X55033Y118482D02*
Y117626D01*
X54428Y117021D01*
X53572D01*
X53444Y117149D01*
X53279Y117259D01*
X53083Y117298D01*
X52636D01*
X52520Y117275D01*
X52441Y117259D01*
X52441Y117259D01*
X52441D01*
X52342Y117193D01*
X52276Y117149D01*
X52276Y117149D01*
X52276Y117149D01*
X52232Y117083D01*
X52165Y116983D01*
X52117Y116866D01*
Y116866D01*
X52117Y116866D01*
X52101Y116787D01*
X52078Y116671D01*
Y116671D01*
Y116671D01*
X52101Y116555D01*
X52117Y116476D01*
X52117Y116476D01*
Y116476D01*
X52183Y116376D01*
X52227Y116311D01*
X52227Y116311D01*
X52227Y116311D01*
X56281Y112257D01*
X56447Y112146D01*
X56642Y112107D01*
X58146D01*
X58341Y112146D01*
X58506Y112257D01*
X58590Y112340D01*
X59410D01*
X59990Y111760D01*
Y110940D01*
X59410Y110360D01*
X58590D01*
X58353Y110596D01*
X58188Y110707D01*
X57993Y110746D01*
X56250D01*
X55595Y111017D01*
X49677Y116935D01*
X49511Y117046D01*
X49316Y117085D01*
X49090D01*
X48951Y117224D01*
X48785Y117334D01*
X48590Y117373D01*
X47153D01*
Y118735D01*
X48548D01*
X48743Y118774D01*
X48909Y118884D01*
X49090Y119065D01*
X49910D01*
X50166Y118809D01*
X50332Y118699D01*
X50527Y118660D01*
X52933D01*
X53129Y118699D01*
X53294Y118809D01*
X53572Y119087D01*
X54428D01*
X55033Y118482D01*
D02*
G37*
G36*
X41022Y111969D02*
X3650D01*
Y129934D01*
X41022D01*
Y111969D01*
D02*
G37*
G36*
X59716Y118484D02*
X59881Y118374D01*
X60076Y118335D01*
X62564D01*
Y116757D01*
X59410D01*
X59376Y116771D01*
X59180Y116810D01*
X58590D01*
X58010Y117390D01*
Y118210D01*
X58590Y118790D01*
X59410D01*
X59716Y118484D01*
D02*
G37*
G36*
X65120Y115839D02*
X65155Y115804D01*
X65183Y115762D01*
X65225Y115734D01*
X65260Y115699D01*
X65307Y115679D01*
X65349Y115652D01*
X65467Y115602D01*
X65714Y115006D01*
X65467Y114410D01*
X64909Y114178D01*
X64744Y114068D01*
X64693Y113993D01*
X64541D01*
X64490Y114068D01*
X64325Y114178D01*
X63767Y114410D01*
X63520Y115006D01*
X63767Y115602D01*
X63885Y115652D01*
X63927Y115679D01*
X63974Y115699D01*
X64009Y115734D01*
X64051Y115762D01*
X64079Y115804D01*
X64114Y115839D01*
X64129Y115875D01*
X65105D01*
X65120Y115839D01*
D02*
G37*
G36*
X54004Y92904D02*
X54179Y92869D01*
X54327Y92770D01*
X54481Y92706D01*
X54545Y92552D01*
X54644Y92404D01*
X54679Y92229D01*
X54764Y92025D01*
X54679Y91821D01*
X54663Y91738D01*
X54616Y91668D01*
X54481Y91344D01*
X53699Y91019D01*
X50156D01*
X49982Y90985D01*
X49312D01*
X49117Y90946D01*
X49081Y90931D01*
X48953D01*
X48791Y90899D01*
X48758Y90892D01*
X48593Y90782D01*
X45368Y87557D01*
X45339Y87513D01*
X44965Y87358D01*
X44800Y87248D01*
X44732Y87147D01*
X44093D01*
X44082Y87164D01*
X44065Y87206D01*
X44027Y87246D01*
X43996Y87292D01*
X43959Y87317D01*
X43928Y87349D01*
X43877Y87371D01*
X43831Y87402D01*
X43601Y87498D01*
X43354Y88094D01*
X43601Y88690D01*
X43684Y88725D01*
X43684Y88725D01*
X43684D01*
X43850Y88836D01*
X43945Y88978D01*
X47543Y92576D01*
X48427Y92942D01*
X48856D01*
X48971Y92965D01*
X49113D01*
X49308Y93004D01*
X49372Y93031D01*
X53699D01*
X54004Y92904D01*
D02*
G37*
G36*
X50490Y85935D02*
Y85709D01*
X50529Y85514D01*
X50640Y85348D01*
X55731Y80257D01*
X55897Y80146D01*
X56092Y80107D01*
X58146D01*
X58341Y80146D01*
X58506Y80257D01*
X58590Y80340D01*
X59410D01*
X59990Y79760D01*
Y78940D01*
X59410Y78360D01*
X58590D01*
X58353Y78596D01*
X58188Y78707D01*
X57993Y78746D01*
X55700D01*
X55045Y79017D01*
X49677Y84385D01*
X49511Y84496D01*
X49316Y84535D01*
X49090D01*
X48901Y84724D01*
X48735Y84834D01*
X48540Y84873D01*
X46700D01*
Y86235D01*
X48598D01*
X48793Y86274D01*
X48959Y86384D01*
X49090Y86515D01*
X49910D01*
X50490Y85935D01*
D02*
G37*
G36*
X41022Y72783D02*
X3745D01*
Y90887D01*
X41022D01*
Y72783D01*
D02*
G37*
G36*
X64640Y92402D02*
Y91748D01*
X64177Y91285D01*
X63929D01*
X63734Y91246D01*
X63568Y91135D01*
X59977Y87544D01*
X59866Y87378D01*
X59827Y87183D01*
Y86584D01*
X59866Y86389D01*
X59977Y86224D01*
X60024Y86177D01*
X60027Y86159D01*
X60029Y86150D01*
X60140Y85984D01*
X60305Y85874D01*
X60500Y85835D01*
X62280D01*
Y84257D01*
X59259D01*
X59094Y84224D01*
X59092D01*
X59036Y84213D01*
X58472Y84447D01*
X58174Y85165D01*
X58173Y85172D01*
X58173Y85172D01*
X58173Y85172D01*
X58118Y85254D01*
X58062Y85337D01*
X58062Y85337D01*
X58062Y85337D01*
X58010Y85390D01*
Y86210D01*
X58100Y86300D01*
X58210Y86466D01*
X58249Y86661D01*
Y87620D01*
X58552Y88351D01*
X62762Y92561D01*
X63448Y92845D01*
X63478Y92865D01*
X64177D01*
X64640Y92402D01*
D02*
G37*
G36*
X64656Y83366D02*
X64691Y83330D01*
X64719Y83289D01*
X64761Y83261D01*
X64796Y83225D01*
X64843Y83206D01*
X64884Y83178D01*
X65067Y83102D01*
X65314Y82506D01*
X65067Y81910D01*
X64509Y81678D01*
X64344Y81568D01*
X64293Y81493D01*
X64141D01*
X64090Y81568D01*
X63925Y81678D01*
X63367Y81910D01*
X63120Y82506D01*
X63367Y83102D01*
X63485Y83152D01*
X63527Y83179D01*
X63574Y83199D01*
X63609Y83234D01*
X63651Y83262D01*
X63679Y83304D01*
X63714Y83339D01*
X63733Y83386D01*
X63740Y83395D01*
X64644D01*
X64656Y83366D01*
D02*
G37*
G36*
X109175Y74950D02*
Y67025D01*
X99689D01*
Y67901D01*
X97993D01*
Y67025D01*
X96294D01*
X50575Y67025D01*
Y74950D01*
X109175Y74950D01*
D02*
G37*
G36*
X64615Y64977D02*
Y64323D01*
X64152Y63860D01*
X63498D01*
X63035Y64323D01*
Y64977D01*
X63498Y65440D01*
X64152D01*
X64615Y64977D01*
D02*
G37*
G36*
X50054Y65405D02*
X50249Y65366D01*
X53212D01*
X53375Y65398D01*
X53407Y65405D01*
X53460Y65440D01*
X54152D01*
X54615Y64977D01*
Y64323D01*
X54152Y63860D01*
X53926D01*
D01*
X53926D01*
X53730Y63821D01*
X53651Y63788D01*
X50395D01*
X50233Y63756D01*
X50200Y63749D01*
X50035Y63639D01*
X49910Y63514D01*
X49061D01*
X48983Y63565D01*
X48788Y63604D01*
X48593Y63565D01*
X48428Y63455D01*
X45675Y60702D01*
X45610Y60605D01*
X45584Y60579D01*
X45584Y60579D01*
X45584Y60579D01*
X45518Y60481D01*
X45474Y60414D01*
Y60414D01*
X45474Y60414D01*
X45301Y59998D01*
X44965Y59858D01*
X44817Y59759D01*
X44085D01*
X43937Y59858D01*
X43601Y59998D01*
X43354Y60594D01*
X43601Y61190D01*
X44126Y61408D01*
X44292Y61519D01*
X44513Y61740D01*
X44557Y61806D01*
X44578Y61837D01*
X47693Y64952D01*
X48424Y65255D01*
X48639D01*
X48834Y65294D01*
X49000Y65404D01*
X49090Y65494D01*
X49921D01*
X50054Y65405D01*
D02*
G37*
G36*
X50016Y58938D02*
X50181Y58828D01*
X50376Y58789D01*
X53117D01*
X53312Y58828D01*
X53477Y58938D01*
X53572Y59033D01*
X54428D01*
X55033Y58428D01*
Y57572D01*
X54428Y56967D01*
X53572D01*
X53477Y57062D01*
X53312Y57172D01*
X53117Y57211D01*
X52856D01*
X52661Y57172D01*
X52495Y57062D01*
X52385Y56896D01*
X52336Y56779D01*
X52297Y56584D01*
X52336Y56389D01*
X52447Y56223D01*
X56343Y52327D01*
X56509Y52216D01*
X56704Y52177D01*
X58216D01*
X58411Y52216D01*
X58576Y52327D01*
X58590Y52340D01*
X59410D01*
X59990Y51760D01*
Y50940D01*
X59528Y50477D01*
X59417Y50312D01*
X59378Y50117D01*
X59278Y50056D01*
X56702D01*
X56586Y50126D01*
X56580Y50158D01*
X56576Y50183D01*
Y50226D01*
X56557Y50272D01*
X56547Y50322D01*
X56519Y50363D01*
X56500Y50410D01*
X56465Y50445D01*
X56437Y50487D01*
X56395Y50515D01*
X56360Y50550D01*
X56313Y50570D01*
X56271Y50597D01*
X55536Y50902D01*
X49524Y56914D01*
X49358Y57025D01*
X49163Y57064D01*
X49090D01*
X48930Y57224D01*
X48764Y57334D01*
X48569Y57373D01*
X47057D01*
Y58735D01*
X48569D01*
X48764Y58774D01*
X48930Y58884D01*
X49090Y59044D01*
X49910D01*
X50016Y58938D01*
D02*
G37*
G36*
X41022Y52069D02*
X3941D01*
Y70059D01*
X41022D01*
Y52069D01*
D02*
G37*
G36*
X48879Y56554D02*
X49163D01*
X55247Y50470D01*
X56076Y50126D01*
X56051Y49999D01*
X51288D01*
X45775Y55513D01*
X45775Y55514D01*
X45462Y56271D01*
X44781Y56553D01*
Y56690D01*
X45199Y56863D01*
X48569D01*
X48879Y56554D01*
D02*
G37*
G36*
X59716Y58484D02*
X59881Y58374D01*
X60076Y58335D01*
X62556D01*
Y56757D01*
X59091D01*
X59057Y56771D01*
X58862Y56810D01*
X58862D01*
D01*
X58590D01*
X58010Y57390D01*
Y58210D01*
X58590Y58790D01*
X59410D01*
X59716Y58484D01*
D02*
G37*
G36*
X64801Y55886D02*
X64820Y55839D01*
X64855Y55804D01*
X64883Y55762D01*
X64925Y55734D01*
X64960Y55699D01*
X65007Y55679D01*
X65049Y55652D01*
X65167Y55602D01*
X65414Y55006D01*
X65167Y54410D01*
X64609Y54178D01*
X64444Y54068D01*
X64393Y53993D01*
X64241D01*
X64190Y54068D01*
X64025Y54178D01*
X63467Y54410D01*
X63220Y55006D01*
X63467Y55602D01*
X63585Y55652D01*
X63627Y55679D01*
X63674Y55699D01*
X63709Y55734D01*
X63751Y55762D01*
X63779Y55804D01*
X63814Y55839D01*
X63833Y55886D01*
X63860Y55925D01*
X64774D01*
X64801Y55886D01*
D02*
G37*
G36*
X64465Y47327D02*
Y46673D01*
X63856Y46064D01*
X63851Y46060D01*
X59938Y42147D01*
X59828Y41982D01*
X59789Y41787D01*
Y41622D01*
X59828Y41427D01*
X59938Y41262D01*
X60024Y41177D01*
X60029Y41150D01*
X60140Y40984D01*
X60305Y40874D01*
X60500Y40835D01*
X62614D01*
Y39257D01*
X59237D01*
X59222Y39260D01*
X59157Y39273D01*
X59131D01*
X59131D01*
D01*
X59023Y39251D01*
X58472Y39479D01*
X58193Y40151D01*
X58083Y40317D01*
X58010Y40390D01*
Y41210D01*
X58062Y41262D01*
X58172Y41427D01*
X58211Y41622D01*
Y42224D01*
X58514Y42955D01*
X62735Y47176D01*
X62739Y47181D01*
X63348Y47790D01*
X64002D01*
X64465Y47327D01*
D02*
G37*
G36*
X65318Y38386D02*
X65337Y38339D01*
X65372Y38304D01*
X65400Y38262D01*
X65442Y38234D01*
X65478Y38199D01*
X65524Y38179D01*
X65566Y38152D01*
X65685Y38102D01*
X65932Y37506D01*
X65685Y36910D01*
X65397Y36790D01*
X65231Y36680D01*
X65121Y36515D01*
X65082Y36319D01*
Y36080D01*
X65121Y35885D01*
X65231Y35719D01*
X65296Y35655D01*
X65289Y35528D01*
X64975Y35274D01*
X64731Y35519D01*
X64586Y35867D01*
Y36319D01*
X64547Y36515D01*
X64437Y36680D01*
X64272Y36790D01*
X63984Y36910D01*
X63737Y37506D01*
X63984Y38102D01*
X64103Y38152D01*
X64144Y38179D01*
X64191Y38199D01*
X64226Y38234D01*
X64268Y38262D01*
X64296Y38304D01*
X64331Y38339D01*
X64351Y38386D01*
X64377Y38425D01*
X65291D01*
X65318Y38386D01*
D02*
G37*
G36*
X50101Y47940D02*
X50266Y47830D01*
X50461Y47791D01*
X53671D01*
X53675Y47790D01*
X53675Y47790D01*
X53675Y47790D01*
X54002D01*
X54465Y47327D01*
Y46673D01*
X54002Y46210D01*
X53149D01*
X53133Y46213D01*
X50184D01*
X49989Y46174D01*
X49953Y46151D01*
X48903D01*
X48873Y46157D01*
X48678Y46118D01*
X48512Y46007D01*
X45584Y43079D01*
X45474Y42914D01*
X45301Y42498D01*
X44965Y42358D01*
X44800Y42248D01*
X44749Y42172D01*
X44153D01*
X44102Y42248D01*
X43937Y42358D01*
X43601Y42498D01*
X43354Y43094D01*
X43601Y43690D01*
X44126Y43908D01*
X44126D01*
X44292Y44019D01*
X47725Y47452D01*
X48456Y47755D01*
X48503D01*
X48665Y47787D01*
X48698Y47794D01*
X48863Y47904D01*
X49090Y48131D01*
X49910D01*
X50101Y47940D01*
D02*
G37*
G36*
X50490Y41101D02*
Y40875D01*
X50529Y40679D01*
X50640Y40514D01*
X55897Y35257D01*
X56062Y35146D01*
X56257Y35107D01*
X58146D01*
X58341Y35146D01*
X58506Y35257D01*
X58590Y35340D01*
X59410D01*
X59990Y34760D01*
Y33940D01*
X59410Y33360D01*
X58590D01*
X58353Y33596D01*
X58188Y33707D01*
X57993Y33746D01*
X55866D01*
X55211Y34017D01*
X49677Y39551D01*
X49511Y39662D01*
X49316Y39701D01*
X49090D01*
X49067Y39724D01*
X48901Y39834D01*
X48706Y39873D01*
X47500D01*
Y41235D01*
X48433D01*
X48628Y41274D01*
X48793Y41384D01*
X49090Y41681D01*
X49910D01*
X50490Y41101D01*
D02*
G37*
G36*
X41022Y28208D02*
X3745D01*
Y46015D01*
X41022D01*
Y28208D01*
D02*
G37*
G36*
X96045Y29325D02*
X109130D01*
Y21400D01*
X102093D01*
Y22611D01*
X98546D01*
Y21400D01*
X48175Y21400D01*
Y29325D01*
X96045Y29325D01*
D02*
G37*
G36*
X63901Y20546D02*
X63938Y20492D01*
X64012Y20381D01*
X64012Y20381D01*
X64390Y20002D01*
Y19348D01*
X63927Y18885D01*
X63273D01*
X62810Y19348D01*
Y20002D01*
X63188Y20381D01*
X63188Y20381D01*
X63262Y20492D01*
X63299Y20546D01*
X63322Y20664D01*
X63878D01*
X63901Y20546D01*
D02*
G37*
G36*
X53903Y20632D02*
X53922Y20586D01*
X53932Y20537D01*
X53960Y20495D01*
X53979Y20449D01*
X54015Y20413D01*
X54043Y20371D01*
X54084Y20343D01*
X54120Y20308D01*
X54166Y20289D01*
X54190Y20273D01*
X54201Y20246D01*
X54311Y20081D01*
X54390Y20002D01*
Y19891D01*
X54429Y19696D01*
X54443Y19663D01*
X54429Y19629D01*
X54390Y19434D01*
Y19348D01*
X54329Y19287D01*
X54219Y19121D01*
X54192Y19058D01*
X54129Y19031D01*
X53963Y18921D01*
X53927Y18885D01*
X53876D01*
X53681Y18846D01*
X53486Y18765D01*
X50227D01*
X50032Y18726D01*
X49932Y18660D01*
X48997D01*
X48802Y18621D01*
X48636Y18510D01*
X45499Y15373D01*
X45388Y15207D01*
X45301Y14998D01*
X45183Y14948D01*
X45141Y14921D01*
X45094Y14901D01*
X45059Y14866D01*
X45017Y14838D01*
X44989Y14796D01*
X44954Y14761D01*
X44936Y14717D01*
X43966D01*
X43948Y14761D01*
X43913Y14796D01*
X43885Y14838D01*
X43843Y14866D01*
X43808Y14901D01*
X43761Y14921D01*
X43719Y14948D01*
X43601Y14998D01*
X43354Y15594D01*
X43601Y16190D01*
X43877Y16305D01*
X44043Y16416D01*
X44122Y16534D01*
X47763Y20175D01*
X48170Y20343D01*
X48336Y20454D01*
X48446Y20619D01*
X48472Y20750D01*
X53804D01*
X53903Y20632D01*
D02*
G37*
G36*
X50108Y13992D02*
X50273Y13882D01*
X50468Y13843D01*
X53117D01*
X53312Y13882D01*
X53477Y13992D01*
X53572Y14087D01*
X54428D01*
X55033Y13482D01*
Y12626D01*
X54428Y12021D01*
X53572D01*
X53477Y12116D01*
X53312Y12226D01*
X53117Y12265D01*
X50176D01*
X49981Y12226D01*
X49957Y12210D01*
X49043D01*
X49019Y12226D01*
X48824Y12265D01*
X47739D01*
Y13843D01*
X48532D01*
X48694Y13875D01*
X48727Y13882D01*
X48892Y13992D01*
X49090Y14190D01*
X49910D01*
X50108Y13992D01*
D02*
G37*
G36*
X41022Y7075D02*
X14508D01*
X3745Y17838D01*
Y24900D01*
X41022D01*
Y7075D01*
D02*
G37*
G36*
X59716Y13484D02*
X59881Y13374D01*
X60076Y13335D01*
X63461D01*
Y11757D01*
X59077D01*
X59042Y11750D01*
X58991Y11771D01*
X58796Y11810D01*
X58590D01*
X58444Y11955D01*
X58444Y11955D01*
X58444Y11955D01*
X58442Y11957D01*
X58441Y11958D01*
X58441Y11958D01*
X58441Y11959D01*
X58010Y12390D01*
Y13210D01*
X58590Y13790D01*
X59410D01*
X59716Y13484D01*
D02*
G37*
G36*
X65601Y10886D02*
X65620Y10839D01*
X65655Y10804D01*
X65683Y10762D01*
X65725Y10734D01*
X65760Y10699D01*
X65807Y10679D01*
X65849Y10652D01*
X65967Y10602D01*
X66214Y10006D01*
X65967Y9410D01*
X65409Y9178D01*
X65244Y9068D01*
X65193Y8993D01*
X65041D01*
X64990Y9068D01*
X64825Y9178D01*
X64267Y9410D01*
X64020Y10006D01*
X64267Y10602D01*
X64385Y10652D01*
X64427Y10679D01*
X64474Y10699D01*
X64509Y10734D01*
X64551Y10762D01*
X64579Y10804D01*
X64614Y10839D01*
X64633Y10886D01*
X64660Y10925D01*
X65574D01*
X65601Y10886D01*
D02*
G37*
G36*
X59990Y6760D02*
Y5940D01*
X59410Y5360D01*
X58590D01*
X58010Y5940D01*
Y6760D01*
X58590Y7340D01*
X59410D01*
X59990Y6760D01*
D02*
G37*
D10*
X91168Y64907D02*
D03*
D11*
X156828Y144539D02*
G03*
X156828Y144539I-5075J0D01*
G01*
X228825Y20675D02*
G03*
X228825Y20675I-5075J0D01*
G01*
D12*
X114299Y187762D02*
D03*
Y196762D02*
D03*
D13*
X151700Y22850D02*
D03*
X160700D02*
D03*
X225500Y104350D02*
D03*
X216500D02*
D03*
Y91700D02*
D03*
X225500D02*
D03*
X191350Y22550D02*
D03*
X182350D02*
D03*
X232000Y104350D02*
D03*
X241000D02*
D03*
D14*
X208788Y111031D02*
D03*
X202425Y104667D02*
D03*
D15*
X131754Y190228D02*
D03*
Y196478D02*
D03*
X236575Y94350D02*
D03*
Y88100D02*
D03*
X219564Y112961D02*
D03*
Y119211D02*
D03*
X202943Y91525D02*
D03*
Y97775D02*
D03*
D16*
X143875Y32125D02*
D03*
X137625D02*
D03*
X142350Y167275D02*
D03*
X136100D02*
D03*
X168714Y22550D02*
D03*
X174964D02*
D03*
D17*
X211775Y87925D02*
D03*
Y90125D02*
D03*
D18*
X209800Y93150D02*
D03*
Y91650D02*
D03*
D19*
X214850Y148526D02*
D03*
Y146374D02*
D03*
X200675Y43501D02*
D03*
Y41349D02*
D03*
X217483Y186476D02*
D03*
Y184324D02*
D03*
D20*
X214825Y141509D02*
D03*
Y143609D02*
D03*
X211755Y184350D02*
D03*
Y186450D02*
D03*
X209215D02*
D03*
Y184350D02*
D03*
X206675Y186450D02*
D03*
Y184350D02*
D03*
X214920Y186575D02*
D03*
Y184475D02*
D03*
D21*
X200675Y47576D02*
D03*
Y46026D02*
D03*
D22*
X116200Y70975D02*
D03*
X107800D02*
D03*
X116200Y176812D02*
D03*
X107800D02*
D03*
X116200Y130190D02*
D03*
X107800D02*
D03*
X116200Y25450D02*
D03*
X107800D02*
D03*
D23*
X156125Y4550D02*
D03*
Y11650D02*
D03*
D24*
X206142Y175624D02*
D03*
Y171154D02*
D03*
X197048D02*
D03*
Y175624D02*
D03*
X188489D02*
D03*
Y171154D02*
D03*
X179395D02*
D03*
Y175624D02*
D03*
X223795D02*
D03*
Y171154D02*
D03*
X214701D02*
D03*
Y175624D02*
D03*
D25*
X90183Y183159D02*
X94431Y187407D01*
X64317Y185526D02*
X66684Y183159D01*
X90183D01*
X92235Y124562D02*
X99916Y116880D01*
X68037Y124562D02*
X92235D01*
X64875Y121400D02*
X68037Y124562D01*
X137495Y6505D02*
Y6505D01*
X112075Y135275D02*
X117857D01*
X68289Y170550D02*
X91400D01*
X64800Y165469D02*
Y167061D01*
X91400Y170425D02*
X96475Y165350D01*
X99868D01*
X64800Y167061D02*
X68289Y170550D01*
X96066Y49350D02*
X99716Y53000D01*
X51019Y49350D02*
X96066D01*
X44855Y55514D02*
X51019Y49350D01*
X44451Y55514D02*
X44855D01*
X97357Y58718D02*
X99880D01*
X90875Y65200D02*
X97357Y58718D01*
X68375Y65200D02*
X90875D01*
X111286Y76325D02*
Y89246D01*
Y42782D02*
Y76325D01*
X111326Y76285D01*
X116514D01*
X113722Y30108D02*
Y40346D01*
X113720Y30106D02*
X113722Y30108D01*
X108818Y91714D02*
X111286Y89246D01*
Y42782D02*
X113722Y40346D01*
X112075Y113459D02*
Y135275D01*
X108818Y110202D02*
X112075Y113459D01*
Y179850D02*
X114068Y181843D01*
X112075Y135275D02*
Y179850D01*
X109525Y153875D02*
X111668D01*
X239183Y185180D02*
X241250D01*
X182322Y22570D02*
X183147D01*
X94485Y187389D02*
X98351Y191255D01*
X99512D01*
X98316Y39866D02*
X108063D01*
X97025Y38575D02*
X98316Y39866D01*
X125850Y157725D02*
Y161775D01*
Y157725D02*
X129025Y154550D01*
X125850Y161775D02*
X128775Y164700D01*
X108818Y91714D02*
Y110202D01*
X147682Y7600D02*
X147906Y7825D01*
X147500Y6500D02*
X147682Y6682D01*
X156748Y124134D02*
X157510D01*
X141000Y137250D02*
X141009Y137241D01*
X159458Y22425D02*
X159883Y22850D01*
X158701Y22425D02*
X159458D01*
X160670Y22850D02*
X160700D01*
X160720Y22830D01*
X141000Y165925D02*
X142350Y167275D01*
X141000Y161975D02*
Y165925D01*
X174983Y22570D02*
X175341D01*
X181605D02*
X182322D01*
X183167Y22550D02*
X183850D01*
X174964D02*
X174983Y22570D01*
X183147D02*
X183167Y22550D01*
X168433Y22830D02*
X168714Y22550D01*
X168825Y22661D01*
X156125Y4550D02*
X156438Y4237D01*
X234827Y189798D02*
Y194336D01*
Y189450D02*
Y189798D01*
X143718Y31968D02*
X143875Y32125D01*
X128775Y164700D02*
X134475D01*
X207700Y180550D02*
X217370D01*
X219652Y182832D01*
X216229Y181971D02*
X217306Y183048D01*
X217384Y184324D02*
X217483D01*
X217306Y183048D02*
Y184246D01*
X217384Y184324D01*
X172639Y196300D02*
X181684D01*
X188514D01*
X216229Y196300D02*
X218280D01*
X204135D02*
X216229D01*
Y191277D02*
Y196300D01*
Y191277D02*
X219652Y187854D01*
Y182832D02*
Y187854D01*
X217100Y128045D02*
Y155800D01*
X214834Y125779D02*
X217100Y128045D01*
X210486Y168300D02*
X210487Y168299D01*
X195119Y168300D02*
X210486D01*
X214814Y125800D02*
X214834Y125779D01*
X206120Y125800D02*
X214814D01*
X206100Y125820D02*
X206120Y125800D01*
X206804Y101195D02*
Y101195D01*
Y99150D02*
Y101195D01*
X219475Y113325D02*
X226100D01*
X228900D01*
X208137Y91525D02*
X211775D01*
X230700Y88100D02*
X230700Y88100D01*
X211814Y119136D02*
X211889Y119211D01*
X219564D01*
X234870Y189493D02*
X239183Y185180D01*
X233000Y182570D02*
X241225D01*
X137575Y31879D02*
Y32175D01*
X154674Y122060D02*
X156748Y124134D01*
X154674Y121298D02*
Y122060D01*
X51400Y136350D02*
X93818D01*
X44871Y142879D02*
X51400Y136350D01*
X93818D02*
X99718Y142250D01*
X204500Y91525D02*
X208137D01*
X92475Y194850D02*
X99943D01*
X89690Y197635D02*
X92475Y194850D01*
X68208Y197635D02*
X89690D01*
X131754Y196478D02*
X138354D01*
X216621Y104471D02*
X216646Y104445D01*
X215900Y105192D02*
X215917Y105175D01*
X215900Y105192D02*
Y113864D01*
X215917Y105175D02*
X216350D01*
X215577D02*
X215917D01*
X216646Y104445D02*
X216722Y104370D01*
X215917Y105175D02*
X216621Y104471D01*
X216175Y104000D02*
Y104445D01*
X216066Y103865D02*
X216646Y104445D01*
X114068Y181843D02*
X115634D01*
X148255Y182533D02*
X154224Y176564D01*
X148255Y182533D02*
Y187105D01*
X137575Y32175D02*
Y45375D01*
X194750Y92300D02*
X202168D01*
X202943Y91525D01*
X226570Y196300D02*
X232862D01*
X234827Y194336D01*
X239050Y95975D02*
Y103350D01*
X216722Y104370D02*
X217152Y104800D01*
X216802Y105050D02*
X217272Y104920D01*
X203375Y104275D02*
X203724D01*
X206804Y101195D01*
X156125Y4550D02*
Y5550D01*
X218280Y196300D02*
X226570D01*
X219564Y112961D02*
X220414Y112111D01*
X226570Y194225D02*
Y196300D01*
X226570Y196300D02*
X226570Y196300D01*
X211775Y91525D02*
X213950D01*
X171790Y95000D02*
X172593D01*
X200675Y37125D02*
Y41349D01*
X204500Y97775D02*
X205429D01*
X206804Y99150D01*
X134575Y48375D02*
X137575Y45375D01*
X64875Y120344D02*
Y121400D01*
X65209Y42960D02*
Y43784D01*
X64798Y194225D02*
X68208Y197635D01*
X64798Y193067D02*
Y194225D01*
X91331Y33025D02*
X96824Y38518D01*
X67575Y33025D02*
X91331D01*
X51496Y31254D02*
X93864D01*
X99767Y37158D01*
X64834Y35766D02*
Y37506D01*
Y35766D02*
X67575Y33025D01*
X44100Y115900D02*
X51725Y108275D01*
X96776D01*
X99843Y111342D01*
X64386Y87755D02*
Y89061D01*
X67800Y92475D01*
X95438D01*
X99916Y87997D01*
X64605Y61430D02*
X68375Y65200D01*
X64605Y60374D02*
Y61430D01*
X200675Y43501D02*
Y45976D01*
X188514Y196300D02*
Y196300D01*
Y193963D02*
Y196300D01*
X209215Y186450D02*
Y188448D01*
X155511Y182677D02*
X155748D01*
X155511D02*
X155748Y182914D01*
X145469Y182668D02*
X145715Y182914D01*
Y187105D01*
X155748Y182914D02*
Y187105D01*
X164185Y182914D02*
Y185255D01*
X166035Y187105D01*
X164185Y182914D02*
X166035D01*
X201464Y196300D02*
X204135D01*
X188514D02*
X201464D01*
X204135Y194217D02*
Y196300D01*
X188514Y196300D02*
X188514Y196300D01*
X176068Y182914D02*
Y187105D01*
X218280Y196300D02*
Y196300D01*
X164361D02*
X172639D01*
Y193963D02*
Y196300D01*
X152195D02*
X164361D01*
X164384Y196277D01*
Y193963D02*
Y196277D01*
X218280Y194225D02*
Y196300D01*
X144650Y196300D02*
X152195D01*
X144064Y195714D02*
X144650Y196300D01*
X144064Y193963D02*
Y195714D01*
X152195Y196300D02*
X152393Y196102D01*
Y194037D02*
Y196102D01*
X152319Y193963D02*
X152393Y194037D01*
X206675Y186450D02*
Y188448D01*
X108063Y39866D02*
X109333Y38596D01*
X64317Y185526D02*
Y187506D01*
X64417Y160006D02*
X64418Y160005D01*
X211755Y186450D02*
Y188448D01*
D26*
X137570Y13120D02*
X143700Y19250D01*
X137570Y6505D02*
Y13120D01*
X140666Y9675D02*
X145825D01*
X137495Y6505D02*
X140666Y9675D01*
X147906Y7825D02*
X153850D01*
X147682Y6682D02*
Y7600D01*
X153850Y7825D02*
X156125Y5550D01*
X145825Y9675D02*
X147500Y8000D01*
X143718Y19250D02*
Y31968D01*
X156438Y4237D02*
X164300D01*
X143875Y43342D02*
Y65900D01*
Y32125D02*
Y43342D01*
Y65900D02*
X151400Y73425D01*
D27*
X136087Y160275D02*
X137975D01*
X127475Y160250D02*
X136062D01*
D28*
X137975Y160275D02*
X151175D01*
X170568Y140882D01*
X107800Y25450D02*
X109780D01*
X109956Y21022D02*
Y25274D01*
X109780Y20846D02*
X109956Y21022D01*
X102181Y20846D02*
X109780D01*
Y25450D02*
X109956Y25274D01*
X170023Y171600D02*
Y171867D01*
X170891Y148459D02*
Y170732D01*
Y148459D02*
X175418Y143932D01*
X170023Y171600D02*
X170891Y170732D01*
X128600Y139025D02*
X136500Y131125D01*
X162193D02*
X166775Y126543D01*
X136500Y131125D02*
X162193D01*
X113189Y173512D02*
Y175447D01*
Y126890D02*
Y129104D01*
Y22150D02*
Y24671D01*
X113968Y25450D01*
X113189Y129104D02*
X114276Y130190D01*
X113189Y175447D02*
X114551Y176809D01*
X109747Y66979D02*
Y70799D01*
X99593Y66484D02*
X109252D01*
X109747Y66979D01*
X107800Y70975D02*
X109572D01*
X109747Y70799D01*
X107800Y130190D02*
X109519D01*
X109694Y125955D02*
Y130014D01*
X109244Y125505D02*
X109694Y125955D01*
X109519Y130190D02*
X109694Y130014D01*
X99544Y172458D02*
X109602D01*
X107800Y176812D02*
X109602D01*
X109778Y172634D02*
Y176637D01*
X109602Y176812D02*
X109778Y176637D01*
X109602Y172458D02*
X109778Y172634D01*
X98727Y67350D02*
X99593Y66484D01*
X98433Y126790D02*
X99718Y125505D01*
X109244D01*
X99118Y172804D02*
X99198D01*
X99544Y172458D01*
X101041Y21986D02*
X102181Y20846D01*
X99075Y21986D02*
X101041D01*
X113125Y69850D02*
X114425Y71150D01*
X113125Y67121D02*
Y69850D01*
X114425Y71150D02*
X116025D01*
X116200Y70975D01*
Y69772D02*
Y70975D01*
X114975Y68547D02*
X116200Y69772D01*
X113968Y25450D02*
X116200D01*
X114551Y176809D02*
X116196D01*
X116200Y176812D01*
X114276Y130190D02*
X116200D01*
X136062Y160250D02*
X136087Y160275D01*
X127450Y160225D02*
X127475Y160250D01*
X137893Y133925D02*
X163218D01*
X162368Y132475D02*
X168125Y126718D01*
X136550Y132475D02*
X162368D01*
X120229Y148796D02*
X136550Y132475D01*
X163218Y133925D02*
X169318Y127825D01*
X126718Y145100D02*
X137893Y133925D01*
X143953Y175497D02*
X146425Y173025D01*
Y167125D02*
X171693Y141857D01*
X146425Y167125D02*
Y173025D01*
X143697Y177453D02*
X147800Y173350D01*
Y167700D02*
Y173350D01*
Y167700D02*
X172868Y142632D01*
X139728Y175497D02*
X143953D01*
X139822Y177453D02*
X143697D01*
X133400Y183875D02*
X139822Y177453D01*
X132550Y182675D02*
X139728Y175497D01*
X185519Y125250D02*
X201089D01*
X200093Y119632D02*
Y123476D01*
X191436Y110975D02*
X200093Y119632D01*
X199350Y120383D02*
Y122400D01*
X191254Y112287D02*
X199350Y120383D01*
X170568Y115900D02*
Y140882D01*
X171693Y116641D02*
Y141857D01*
X172868Y117075D02*
Y142632D01*
X126718Y38938D02*
X127293Y39513D01*
Y53218D02*
X152418Y78343D01*
X126718Y38401D02*
Y38938D01*
X127293Y39513D02*
Y53218D01*
X118367Y43434D02*
Y51417D01*
X115925Y40993D02*
X118367Y43434D01*
Y51417D02*
X140475Y73525D01*
X115925Y32875D02*
Y40993D01*
X158375Y85500D02*
X158450Y85425D01*
X121093Y85500D02*
X158375D01*
X150469Y167056D02*
Y171819D01*
Y167056D02*
X174156Y143369D01*
X117700Y186200D02*
X117725Y186225D01*
X122843D01*
X120640Y169639D02*
X120700Y169700D01*
X120189Y168400D02*
X120640Y168850D01*
Y169639D01*
X120189Y160192D02*
Y168400D01*
Y160192D02*
X120229Y160153D01*
Y148796D02*
Y160153D01*
X122843Y186225D02*
X124322Y184746D01*
X128725Y183875D02*
X133400D01*
X126900Y185700D02*
X128725Y183875D01*
X124343Y184725D02*
X126393Y182675D01*
X132550D01*
X140475Y73525D02*
Y76750D01*
X139225Y79225D02*
X142475Y75975D01*
X117650Y79225D02*
X139225D01*
X120080Y55906D02*
Y64794D01*
X120018Y38600D02*
Y51500D01*
X146718Y78200D01*
X149678Y78860D02*
Y80575D01*
X126718Y55900D02*
X149678Y78860D01*
X126718Y55900D02*
X126718D01*
X120000Y80350D02*
X120009Y80359D01*
Y84416D02*
X121093Y85500D01*
X120009Y80359D02*
Y84416D01*
X117817Y139025D02*
X128600D01*
X175418Y117825D02*
Y143932D01*
X174156Y117412D02*
Y143369D01*
X179793Y141262D02*
Y147725D01*
X178061Y139530D02*
X179793Y141262D01*
X178061Y127026D02*
Y139530D01*
X199668Y127150D02*
X199693Y127125D01*
X183821Y133525D02*
X190196Y127150D01*
X199668D01*
X189277Y126550D02*
X197393D01*
X183442Y132385D02*
X189277Y126550D01*
X194322Y161171D02*
X194325Y161175D01*
X194322Y146021D02*
X194343Y146000D01*
X195550Y160575D02*
X195570Y160555D01*
X193000Y162275D02*
X193034Y162241D01*
Y146109D02*
X193118Y146025D01*
X195627Y146034D02*
Y146107D01*
X195570Y146164D02*
X195627Y146107D01*
X191846Y163072D02*
X191875Y163100D01*
X191818Y145950D02*
X191846Y145978D01*
X168125Y116854D02*
X171179Y113800D01*
X168125Y116854D02*
Y126718D01*
X166775Y116693D02*
X173568Y109900D01*
X166775Y116693D02*
Y126543D01*
X139418Y129725D02*
X161668D01*
X126718Y117025D02*
X139418Y129725D01*
X220414Y112111D02*
X221064Y111461D01*
X191968Y110100D02*
Y110103D01*
X196377Y114512D01*
Y114516D01*
X193436Y108058D02*
X202793Y117415D01*
Y118765D01*
X128800Y33225D02*
Y52975D01*
X153275Y77450D01*
X119750Y123425D02*
X119759Y123416D01*
Y114103D02*
Y123416D01*
Y114103D02*
X119768Y114094D01*
X120047Y8678D02*
Y19197D01*
X120080Y64794D02*
X120120Y64835D01*
X120039Y55865D02*
X120080Y55906D01*
X153275Y77450D02*
Y81575D01*
X152418Y78343D02*
Y79400D01*
X126719Y84300D02*
X129619Y81400D01*
X142650D02*
X145256D01*
X129619D02*
X142650D01*
X145256D02*
X151693D01*
X182068Y115175D02*
X187018Y120125D01*
X194251D01*
X192144Y117600D02*
X193193D01*
X195692Y120099D01*
Y124121D01*
X190716Y116172D02*
X192144Y117600D01*
X190716Y115673D02*
Y116172D01*
X186918Y111875D02*
X190716Y115673D01*
X176459Y111875D02*
X186918D01*
X190843Y110975D02*
X191436D01*
X189068Y109200D02*
X190843Y110975D01*
X187451Y109900D02*
X198268Y120717D01*
Y120750D01*
X173568Y109900D02*
X187451D01*
X187168Y110975D02*
X192268Y116075D01*
X174004Y110975D02*
X187168D01*
X181279Y116275D02*
X186296Y121292D01*
X193870D01*
X171179Y113800D02*
X174004Y110975D01*
X171179Y113800D02*
X171179D01*
X176693Y142740D02*
X177253Y143300D01*
X176693Y122550D02*
Y142740D01*
X171693Y116641D02*
X176459Y111875D01*
X170568Y115900D02*
X171543Y114925D01*
X177253Y147725D02*
Y155216D01*
Y143300D02*
Y147725D01*
X178061Y127026D02*
X178138Y126950D01*
X176393Y115175D02*
X182068D01*
X174156Y117412D02*
X176393Y115175D01*
X176968Y116275D02*
X181279D01*
X175418Y117825D02*
X176968Y116275D01*
X172868Y117075D02*
X176329Y113614D01*
X180443Y122850D02*
X183119D01*
X185519Y125250D01*
X179793Y147725D02*
Y155216D01*
X179569Y155524D02*
X179793Y155748D01*
X179569Y155440D02*
Y155524D01*
Y155440D02*
X179793Y155216D01*
X176828Y155641D02*
X177253Y155216D01*
D29*
X114697Y41972D02*
X116862Y44137D01*
X114697Y41193D02*
Y41972D01*
X115648Y59431D02*
X116008D01*
X114697Y87383D02*
X114735Y87422D01*
X114697Y58479D02*
X115648Y59431D01*
X114735Y87422D02*
X115651D01*
X116008Y59431D02*
X117194Y60617D01*
X115651Y87422D02*
X117322Y89093D01*
X240537Y167237D02*
X240575Y167275D01*
X234566Y161266D02*
X240537Y167237D01*
X234566Y154175D02*
Y161266D01*
X232799Y167199D02*
X232837Y167237D01*
X240537D01*
X159130Y167732D02*
Y174384D01*
X116862Y44908D02*
X116900Y44946D01*
X116862Y44137D02*
Y44908D01*
X165095Y171941D02*
X176068Y182914D01*
X161462Y171941D02*
X165095D01*
X160371D02*
X161462D01*
X160371Y171941D02*
X160371Y171941D01*
X119025Y167675D02*
X119043D01*
X114047Y162715D02*
X114065D01*
X119025Y167675D01*
X114038Y116655D02*
X116633Y119250D01*
X114022Y116655D02*
X114038D01*
X116633Y119250D02*
X116648D01*
X117322Y14859D02*
X117360Y14897D01*
X113856Y11235D02*
X117322Y14701D01*
Y14859D01*
X126932Y55825D02*
Y55825D01*
X153146Y180690D02*
X158080D01*
X158095Y180675D01*
X153132Y180704D02*
X153146Y180690D01*
X159130Y174384D02*
X161641Y176894D01*
D30*
X94983Y155575D02*
X100445Y161037D01*
X66975Y155575D02*
X94983D01*
X64440Y158110D02*
X66975Y155575D01*
X205173Y123925D02*
X232275D01*
X236351Y123325D02*
X237530Y124504D01*
X232275Y123925D02*
X233700Y125350D01*
X204200Y124898D02*
X205173Y123925D01*
X202950Y124748D02*
X204373Y123325D01*
X236351D01*
X202338Y151913D02*
Y152138D01*
X210088Y159888D02*
X210388D01*
X202300Y151875D02*
X202338Y151913D01*
Y152138D02*
X210088Y159888D01*
X198875Y152425D02*
X210435Y163985D01*
X210930D02*
X210987Y164043D01*
X210435Y163985D02*
X210930D01*
X209600Y173578D02*
X212075Y171103D01*
X207575Y178750D02*
X209600Y176725D01*
Y173578D02*
Y176725D01*
X179093Y135473D02*
X186874Y143254D01*
X194930D02*
X197475Y145798D01*
X186874Y143254D02*
X194930D01*
X91395Y170425D02*
X91400D01*
X64417Y165086D02*
X64800Y165469D01*
X99037Y55825D02*
X109293D01*
X93962Y50750D02*
X99037Y55825D01*
X204143Y122250D02*
X233331D01*
X202075Y124318D02*
X204143Y122250D01*
X241367Y121133D02*
X241375Y121142D01*
X229120Y121182D02*
X229169Y121133D01*
X136100Y166325D02*
Y167275D01*
X134475Y164700D02*
X136100Y166325D01*
X212075Y171103D02*
X215438D01*
X196134Y188241D02*
X205625Y178750D01*
X207575D01*
X196134Y188241D02*
Y193963D01*
X218650Y126579D02*
Y157819D01*
X219100Y158269D02*
Y158350D01*
X218650Y157819D02*
X219100Y158269D01*
X210388Y159888D02*
X218362Y167862D01*
X202950Y124748D02*
Y132500D01*
X200006Y138150D02*
X202075Y136081D01*
Y124318D02*
Y136081D01*
X204200Y124898D02*
Y139518D01*
Y151725D01*
X187141Y139575D02*
X204143D01*
X204200Y139518D01*
Y151725D02*
X219502Y167027D01*
X205850Y151475D02*
X220675Y166300D01*
Y172300D01*
X219502Y167027D02*
Y175704D01*
X217300Y168525D02*
Y177555D01*
X201575Y152800D02*
X217300Y168525D01*
X218362Y167862D02*
Y176437D01*
X208225Y142862D02*
Y151925D01*
X241175Y104441D02*
X241266Y104350D01*
X208225Y151925D02*
X222150Y165850D01*
Y168325D01*
X214850Y156450D02*
X226745Y168345D01*
Y170786D02*
X232302Y176342D01*
X226745Y168345D02*
Y170786D01*
X232302Y176342D02*
X233449Y177490D01*
X214850Y148526D02*
Y156450D01*
X214825Y146349D02*
X214850Y146374D01*
X214825Y143609D02*
Y146349D01*
X208225Y137800D02*
Y142862D01*
X240600Y104350D02*
X241375Y105125D01*
X237440Y119700D02*
X237521D01*
X237315Y119575D02*
X237440Y119700D01*
X219475Y119575D02*
X237315D01*
X195225Y138150D02*
X200006D01*
X201089Y125250D02*
Y134658D01*
X200257Y135490D02*
X201089Y134658D01*
X199593Y136154D02*
X200257Y135490D01*
X191000Y136154D02*
X199593D01*
X195165Y141640D02*
X198875Y145350D01*
X194590Y141065D02*
X195165Y141640D01*
X201089Y117527D02*
Y125020D01*
Y125250D01*
X195211Y111649D02*
X201089Y117527D01*
X240050Y104350D02*
X240600D01*
X241000D01*
X198875Y145350D02*
Y152425D01*
X208175Y128340D02*
X214834D01*
X206100Y128380D02*
X206130Y128350D01*
X212075Y165800D02*
X215438Y169163D01*
X208100Y165800D02*
X212075D01*
X197475Y155175D02*
X208100Y165800D01*
X228750Y147779D02*
X230575Y145954D01*
X228750Y147779D02*
Y155200D01*
X232750Y142817D02*
X236057D01*
X237777Y141097D01*
X238488Y139225D02*
X243762Y144499D01*
X233650Y139225D02*
X238488D01*
X233449Y177490D02*
X241225D01*
X230972Y180030D02*
X241225D01*
X230757Y179815D02*
X230972Y180030D01*
X221740Y173365D02*
X224615D01*
X230757Y179507D02*
Y179815D01*
X224615Y173365D02*
X230757Y179507D01*
X226368Y182570D02*
X233000D01*
X219502Y175704D02*
X226368Y182570D01*
X220675Y172300D02*
X221740Y173365D01*
X218362Y176437D02*
X221506Y179581D01*
X217300Y177555D02*
X226374Y186629D01*
X206500Y133460D02*
X214834D01*
X206100Y130915D02*
X214834D01*
X186633Y141065D02*
X194590D01*
X181485Y133919D02*
X187141Y139575D01*
X197475Y145798D02*
Y155175D01*
X215438Y169163D02*
Y171103D01*
X190618Y171209D02*
Y189493D01*
X191054Y189929D01*
Y193963D01*
X221506Y179581D02*
X221506D01*
X223325Y181400D01*
X180212Y126244D02*
Y134644D01*
X177993Y124025D02*
X180212Y126244D01*
Y134644D02*
X186633Y141065D01*
X206130Y128350D02*
X208165D01*
X208175Y128340D01*
X214740Y130765D02*
X214834Y130859D01*
X108506Y161037D02*
X109368Y160175D01*
X100445Y161037D02*
X108506D01*
X95156Y143475D02*
X97090Y145409D01*
X106123D02*
X106582Y144950D01*
X97090Y145409D02*
X106123D01*
X106582Y144950D02*
X109587D01*
X99714Y148251D02*
X99880Y148085D01*
X95882Y152075D02*
X99706Y148251D01*
X67950Y152075D02*
X95882D01*
X99880Y148077D02*
Y148085D01*
X99706Y148251D02*
X99714D01*
X180132Y168282D02*
X185974Y174124D01*
X174825Y162975D02*
X180132Y168282D01*
X185974Y174124D02*
Y193963D01*
X137575Y32175D02*
X137625Y32125D01*
X136125Y33625D02*
X137575Y32175D01*
X131950Y33625D02*
X136125D01*
X174713Y155748D02*
X174825Y155860D01*
Y162975D01*
X194063Y171103D02*
X197785D01*
X214229Y171846D02*
X214695D01*
X214972Y171569D01*
X187752Y171103D02*
X190512D01*
X190618Y171209D01*
X179093Y130675D02*
Y135473D01*
X181485Y129203D02*
Y133919D01*
Y129203D02*
X181508Y129180D01*
X194322Y146021D02*
Y161171D01*
X195570Y146164D02*
Y160555D01*
X193034Y146109D02*
Y162241D01*
X190618Y146002D02*
Y171103D01*
X191846Y145978D02*
Y163072D01*
X236575Y94350D02*
X237425D01*
X239050Y95975D01*
Y103350D02*
X240050Y104350D01*
X164868Y117106D02*
Y123407D01*
X160775Y127500D02*
X164868Y123407D01*
X140927Y127500D02*
X160775D01*
X127521Y114094D02*
X140927Y127500D01*
X211775Y90125D02*
Y91525D01*
X232302Y177098D02*
X232303Y177096D01*
X120043Y8674D02*
X120047Y8678D01*
Y19197D02*
X120050Y19200D01*
X102802Y88875D02*
X107963D01*
X108461Y88377D01*
X100576Y86649D02*
X102802Y88875D01*
X64475Y147744D02*
Y148600D01*
X67950Y152075D01*
X64117Y147386D02*
X64475Y147744D01*
X64617Y120086D02*
X64875Y120344D01*
X64834Y42586D02*
X65209Y42960D01*
X64317Y192586D02*
X64798Y193067D01*
X65117Y6129D02*
X65971Y5275D01*
X96093D01*
X99492Y8674D01*
X65117Y6129D02*
Y10006D01*
X64217Y80347D02*
X66364Y78200D01*
X92600D02*
X99325Y84925D01*
X66364Y78200D02*
X92600D01*
X64217Y80347D02*
Y82506D01*
X89706Y138025D02*
X95086Y143404D01*
X66368Y138025D02*
X89706D01*
X96968Y38518D02*
X97025Y38575D01*
X96824Y38518D02*
X96968D01*
X64440Y158110D02*
Y159983D01*
X64418Y160005D02*
X64440Y159983D01*
X64617Y113008D02*
X67625Y110000D01*
X94870Y110000D01*
X64617Y113008D02*
Y115006D01*
X44451Y83014D02*
X44811D01*
X99325Y84925D02*
X108918D01*
X64317Y53251D02*
X66818Y50750D01*
X93962D01*
X44494Y10514D02*
X45094Y9914D01*
Y9871D02*
Y9914D01*
X44451Y10514D02*
X44494D01*
X64217Y87586D02*
X64386Y87755D01*
X64317Y60086D02*
X64605Y60374D01*
X44100Y115900D02*
X44100D01*
X173332Y108642D02*
X175087D01*
X164868Y117106D02*
X173332Y108642D01*
X189267Y118125D02*
X190716D01*
X187218Y116076D02*
X189267Y118125D01*
X175087Y108642D02*
X175097Y108632D01*
X119768Y114094D02*
X127521D01*
X177993Y117450D02*
Y124025D01*
X193594Y171572D02*
Y193963D01*
Y171572D02*
X194063Y171103D01*
X197785D02*
X197844Y171044D01*
X197785Y171103D02*
X205405D01*
X174713Y147725D02*
Y155748D01*
X190568Y145952D02*
X190618Y146002D01*
X95368Y86649D02*
X100576D01*
X108918Y84925D02*
X109493Y84350D01*
X94870Y110000D02*
X98945Y114075D01*
X109543D01*
X64117Y140276D02*
Y142306D01*
Y140276D02*
X66368Y138025D01*
X64317Y53251D02*
Y55006D01*
X99492Y8674D02*
X109468D01*
D31*
X193691Y106275D02*
X202192Y114776D01*
X160950Y116889D02*
X171564Y106275D01*
X193691D01*
X114682Y186609D02*
Y187762D01*
X114299Y189128D02*
X115121Y189950D01*
X114299Y187762D02*
Y189128D01*
X115121Y189950D02*
X131476D01*
X131754Y190228D02*
X133397D01*
X131476Y189950D02*
X131754Y190228D01*
X114682Y186609D02*
X118115Y183175D01*
X119275D01*
X160950Y116889D02*
Y123983D01*
X160098Y124836D02*
X160950Y123983D01*
X158212Y124836D02*
X160098D01*
X154972Y121596D02*
X157510Y124134D01*
X154674Y121298D02*
X154972Y121596D01*
X157510Y124134D02*
X158212Y124836D01*
X155156Y121412D02*
X156108D01*
X217489Y186466D02*
X217491Y186468D01*
X215079Y186466D02*
X217489D01*
D32*
X44811Y83014D02*
X51175Y76650D01*
X94509D02*
X99767Y81908D01*
X51175Y76650D02*
X94509D01*
X50685Y181780D02*
X90705D01*
X97127Y188202D01*
X44451Y188014D02*
X50685Y181780D01*
X65209Y44176D02*
X68004Y46971D01*
X96521D02*
X99949Y43543D01*
X68004Y46971D02*
X96521D01*
X65209Y43784D02*
Y44176D01*
X97127Y188202D02*
X99699D01*
X65117Y15086D02*
Y16467D01*
X68400Y19750D02*
X91361D01*
X65117Y16467D02*
X68400Y19750D01*
X45049Y37701D02*
X51496Y31254D01*
X91361Y19750D02*
X99868Y11243D01*
X45094Y9871D02*
X53150Y1815D01*
X95932D02*
X99667Y5550D01*
X53150Y1815D02*
X95932D01*
D33*
X58923Y157427D02*
X59000Y157350D01*
X55248Y157427D02*
X58923D01*
X49621Y163054D02*
X55248Y157427D01*
X31276Y145554D02*
X31322Y145600D01*
X44497D02*
X49500D01*
X31322D02*
X44405D01*
X48875Y117979D02*
X49596D01*
X54055D01*
X55598Y184427D02*
X58923D01*
X49500Y190525D02*
X55598Y184427D01*
X58923D02*
X59000Y184350D01*
X49621Y163054D02*
X54000D01*
X44451D02*
X49621D01*
X49500Y163175D02*
X49621Y163054D01*
X56448Y138652D02*
X58923D01*
X59000Y138575D01*
X49500Y145600D02*
X56448Y138652D01*
X49596Y117979D02*
X56148Y111427D01*
X49500Y118075D02*
X49596Y117979D01*
X56148Y111427D02*
X58923D01*
X59000Y111350D01*
X44451Y85554D02*
X49658D01*
X58923Y79427D02*
X59000Y79350D01*
X49500Y85525D02*
X55598Y79427D01*
X58923D01*
X55764Y34427D02*
X58923D01*
X49500Y40691D02*
X55764Y34427D01*
X58923D02*
X59000Y34350D01*
X38107Y85554D02*
X44451D01*
Y190554D02*
X49275D01*
X44451Y58054D02*
X49299D01*
X44451Y40554D02*
X49275D01*
X31993Y40554D02*
X44451Y40554D01*
X31576Y163054D02*
X44451D01*
Y118054D02*
X48825D01*
X31776D02*
X44451D01*
X31476Y58054D02*
X44451Y58054D01*
X31476Y190554D02*
X44451Y190554D01*
D34*
Y160514D02*
X50915Y154050D01*
X96468D02*
X99768Y157350D01*
X50915Y154050D02*
X96468D01*
X241375Y105125D02*
Y121142D01*
X229169Y121133D02*
X241367D01*
D35*
X49375Y124425D02*
X53625D01*
X49408Y152025D02*
X53775D01*
X189850Y6047D02*
Y8850D01*
X182322Y16378D02*
Y22570D01*
X44483Y15594D02*
X44705Y15816D01*
X49408Y19612D02*
Y19650D01*
X44705Y15816D02*
Y15848D01*
X44451Y15594D02*
X44483D01*
X48469Y19612D02*
X49408D01*
X49277Y47002D02*
X53673D01*
X182322Y16378D02*
X189850Y8850D01*
X160720Y22830D02*
X168433D01*
X168825Y22661D02*
Y30125D01*
X49695Y58000D02*
X53923D01*
X49592Y58016D02*
X49680D01*
X49695Y58000D01*
X59054Y147304D02*
X63775Y152025D01*
X59054Y145221D02*
Y147304D01*
X49300Y152025D02*
X49408D01*
X49500Y58054D02*
X56166Y51388D01*
X58962D01*
X59000Y51350D01*
X49429Y197075D02*
X53675D01*
X49367Y197013D02*
X49429Y197075D01*
X49466Y169675D02*
X53675D01*
X64217Y85075D02*
X83689Y85075D01*
X58990Y57546D02*
X64317D01*
X59038Y85013D02*
Y87721D01*
X59000Y12546D02*
X59032D01*
X49493Y13054D02*
X54000D01*
X59038Y145205D02*
X59054Y145221D01*
X59038Y145117D02*
Y145205D01*
X59308Y117546D02*
X64617D01*
X59000Y117800D02*
X59054D01*
X59308Y117546D01*
X60414Y121214D02*
X63625Y124425D01*
X59000Y190800D02*
Y192400D01*
Y190195D02*
Y190800D01*
Y163800D02*
Y165000D01*
Y162805D02*
Y163800D01*
Y40800D02*
Y42325D01*
Y40008D02*
Y40800D01*
X63392Y92075D02*
X63850D01*
X59038Y87721D02*
X63392Y92075D01*
X59000Y84975D02*
X59038Y85013D01*
X64317Y57546D02*
X84510Y57546D01*
X59038Y40046D02*
X59054Y40062D01*
X47262Y169587D02*
X49408D01*
X49466Y169646D02*
Y169675D01*
X49408Y169587D02*
X49466Y169646D01*
X44594Y165705D02*
Y166919D01*
X44451Y165594D02*
X44483D01*
X44594Y165705D01*
Y166919D02*
X47262Y169587D01*
X49408Y152012D02*
Y152025D01*
X44705Y148094D02*
X48623Y152012D01*
X49408D01*
X44451Y148094D02*
X44705D01*
X59083Y85013D02*
X59180D01*
X59212Y85046D02*
X64217D01*
X59180Y85013D02*
X59212Y85046D01*
X59032Y12546D02*
X65117D01*
X59032D02*
X59038Y12553D01*
X59000Y12514D02*
X59032Y12546D01*
X64834Y40046D02*
X85027D01*
X59195D02*
X64834D01*
X59054Y40062D02*
X59180D01*
X59195Y40046D01*
X59000Y42325D02*
X63675Y47000D01*
X64117Y144846D02*
X84310Y144846D01*
X59054Y144846D02*
X64117D01*
X59054Y162805D02*
X59313Y162546D01*
X64417D01*
X59000Y165000D02*
X63675Y169675D01*
X59000Y192400D02*
X63675Y197075D01*
X59054Y190195D02*
X59203Y190046D01*
X64317D01*
X64317Y190046D01*
X44451Y60594D02*
X44483D01*
X48323Y64466D02*
X49237D01*
X45094Y61205D02*
Y61237D01*
X49237Y64466D02*
X49340Y64569D01*
X44483Y60594D02*
X45094Y61205D01*
Y61237D02*
X48323Y64466D01*
X49348Y64577D02*
X53752D01*
X53825Y64650D01*
X44451Y13054D02*
X49243D01*
X38807D02*
X44451D01*
X44594Y120705D02*
X44705Y120816D01*
Y120848D02*
X48344Y124487D01*
X49237D01*
X44705Y120816D02*
Y120848D01*
X49237Y124487D02*
X49275Y124525D01*
X49183Y91937D02*
X49271Y92025D01*
X53800D02*
X53850Y92075D01*
X48355Y46966D02*
X49183D01*
X44594Y43205D02*
X48355Y46966D01*
X49183D02*
X49221Y47004D01*
X53673Y47002D02*
X53675Y47000D01*
X49275Y47004D02*
X49277Y47002D01*
X53588Y19663D02*
X53600Y19675D01*
X49340Y197040D02*
X49367Y197013D01*
X49237Y196937D02*
X49275Y196975D01*
X44594Y193205D02*
X44705Y193316D01*
X48294Y196937D02*
X49237D01*
X44705Y193316D02*
Y193348D01*
X48294Y196937D01*
X64417Y162546D02*
X84610Y162546D01*
X64317Y190046D02*
X84510Y190046D01*
X65117Y12546D02*
X85310Y12546D01*
X64617Y117546D02*
X84810Y117546D01*
X84510Y57546D02*
X84543D01*
X31476Y193854D02*
X32256Y194634D01*
D36*
X44705Y15848D02*
X48469Y19612D01*
X49287Y19663D02*
X53588D01*
D37*
X226671Y44043D02*
X237400D01*
D38*
X141000Y137250D02*
Y157775D01*
D39*
X175341Y22570D02*
X181605D01*
D40*
X198674Y191121D02*
Y193868D01*
Y191121D02*
X205391Y184404D01*
X206675D02*
X214920D01*
X205391D02*
X206675D01*
D41*
X209779Y78143D02*
X220743D01*
X230700Y88100D01*
X230700D02*
X236575D01*
D42*
X214033Y43916D02*
X220829D01*
D43*
X48326Y91937D02*
X49183D01*
X44594Y88205D02*
X48326Y91937D01*
X49271Y92025D02*
X53800D01*
D44*
X114299Y196762D02*
D03*
X114279Y187734D02*
D03*
D45*
X160728Y22830D02*
D03*
X151700Y22850D02*
D03*
X216472Y104370D02*
D03*
X225500Y104350D02*
D03*
X225500Y91700D02*
D03*
X216472Y91720D02*
D03*
X182322Y22570D02*
D03*
X191350Y22550D02*
D03*
X241028Y104330D02*
D03*
X232000Y104350D02*
D03*
D46*
X192225Y23237D02*
D03*
D47*
X156075Y11450D02*
D03*
D48*
X151985Y22308D02*
D03*
D49*
X114976Y196460D02*
D03*
D50*
X191962Y23250D02*
D03*
D51*
X151562Y22538D02*
D03*
D52*
X30989Y163054D02*
D03*
X77878Y162546D02*
D03*
X30989Y190554D02*
D03*
Y13054D02*
D03*
X77778Y190046D02*
D03*
X30989Y145555D02*
D03*
X77580Y144846D02*
D03*
X30989Y58053D02*
D03*
X77779Y57546D02*
D03*
X30989Y85553D02*
D03*
X77679Y85046D02*
D03*
X78579Y12546D02*
D03*
X30989Y118053D02*
D03*
X78079Y117546D02*
D03*
X30989Y40553D02*
D03*
X78295Y40046D02*
D03*
D53*
X202391Y104661D02*
D03*
X208789Y111031D02*
D03*
D54*
X148261Y121045D02*
D03*
X155246D02*
D03*
X220258Y44171D02*
D03*
D55*
X227243Y44171D02*
D03*
D56*
X126718Y77525D02*
D03*
X109525Y153875D02*
D03*
X131950Y33625D02*
D03*
X143875Y43342D02*
D03*
X129225Y168112D02*
D03*
X194750Y92300D02*
D03*
X127850Y63775D02*
D03*
X125218Y169873D02*
D03*
X135350Y185675D02*
D03*
X124718Y18757D02*
D03*
X127050Y122825D02*
D03*
X125350Y48250D02*
D03*
X129488Y146113D02*
D03*
X101969Y30875D02*
D03*
X101718Y137075D02*
D03*
X106922Y79500D02*
D03*
X104501Y183300D02*
D03*
X174825Y162975D02*
D03*
X228900Y113325D02*
D03*
X195750Y104325D02*
D03*
X168825Y30667D02*
D03*
X226800Y158625D02*
D03*
X233000Y182570D02*
D03*
X237120Y144379D02*
D03*
X234990Y141097D02*
D03*
X232799Y167199D02*
D03*
X230757Y179815D02*
D03*
X232302Y176342D02*
D03*
X228750Y155200D02*
D03*
X208225Y142862D02*
D03*
X228079Y139778D02*
D03*
X103718Y158871D02*
D03*
X103593Y6760D02*
D03*
X103693Y189088D02*
D03*
X103694Y83051D02*
D03*
X103768Y143550D02*
D03*
X103593Y37966D02*
D03*
X58993Y176775D02*
D03*
Y71350D02*
D03*
Y130200D02*
D03*
X59243Y25875D02*
D03*
X141043Y119425D02*
D03*
X97150Y170350D02*
D03*
X97983Y63208D02*
D03*
X103769Y53859D02*
D03*
X54000Y163054D02*
D03*
Y58000D02*
D03*
X137330Y160275D02*
D03*
X126932Y55825D02*
D03*
X103593Y163840D02*
D03*
X103605Y57890D02*
D03*
X109693Y164125D02*
D03*
X109293Y59002D02*
D03*
X126900Y185700D02*
D03*
X145256Y81400D02*
D03*
X103693Y193481D02*
D03*
X103715Y86929D02*
D03*
X106818Y196648D02*
D03*
X95368Y86649D02*
D03*
X101325Y123875D02*
D03*
X100596Y19400D02*
D03*
X103593Y112106D02*
D03*
X54000Y118054D02*
D03*
Y13054D02*
D03*
X126718Y117025D02*
D03*
X126993Y8455D02*
D03*
X103605Y116025D02*
D03*
X103868Y10843D02*
D03*
X109093Y117702D02*
D03*
X109193Y12775D02*
D03*
X126468Y145100D02*
D03*
X126718Y38401D02*
D03*
X103605Y147391D02*
D03*
X103593Y42065D02*
D03*
X109173Y149410D02*
D03*
X108418Y44724D02*
D03*
X166035Y182914D02*
D03*
X145715D02*
D03*
X176068D02*
D03*
X155748D02*
D03*
X170023Y171867D02*
D03*
X150469Y172181D02*
D03*
X171115Y182914D02*
D03*
X160193D02*
D03*
X181684Y196300D02*
D03*
X234827Y189798D02*
D03*
X195229Y98675D02*
D03*
X205517Y120125D02*
D03*
X190862Y95445D02*
D03*
D57*
X138700Y19250D02*
D03*
X143700D02*
D03*
X129025Y154550D02*
D03*
X124025D02*
D03*
X134575Y43375D02*
D03*
Y48375D02*
D03*
D58*
X240575Y167275D02*
D03*
Y162275D02*
D03*
X137500Y6500D02*
D03*
X194875Y6200D02*
D03*
X237400Y49075D02*
D03*
X147500Y6500D02*
D03*
D59*
X240575Y157275D02*
D03*
X237400Y44075D02*
D03*
D60*
X63850Y92075D02*
D03*
X53850D02*
D03*
X63675Y197075D02*
D03*
X53675D02*
D03*
X63675Y169675D02*
D03*
X53675D02*
D03*
X63825Y64650D02*
D03*
X53825D02*
D03*
X63625Y124425D02*
D03*
X53625D02*
D03*
X63600Y19675D02*
D03*
X53600D02*
D03*
X63775Y152025D02*
D03*
X53775D02*
D03*
X63675Y47000D02*
D03*
X53675D02*
D03*
D61*
X49500Y64504D02*
D03*
Y58054D02*
D03*
Y169625D02*
D03*
Y163175D02*
D03*
X59000Y51350D02*
D03*
Y57800D02*
D03*
Y163800D02*
D03*
Y157350D02*
D03*
X49500Y190525D02*
D03*
Y196975D02*
D03*
Y91975D02*
D03*
Y85525D02*
D03*
X59000Y190800D02*
D03*
Y184350D02*
D03*
Y79350D02*
D03*
Y85800D02*
D03*
X49500Y124525D02*
D03*
Y118075D02*
D03*
Y19650D02*
D03*
Y13200D02*
D03*
X59000Y117800D02*
D03*
Y111350D02*
D03*
Y6350D02*
D03*
Y12800D02*
D03*
X49500Y40691D02*
D03*
Y47141D02*
D03*
Y152050D02*
D03*
Y145600D02*
D03*
X59000Y145025D02*
D03*
Y138575D02*
D03*
Y34350D02*
D03*
Y40800D02*
D03*
D62*
X226675Y135835D02*
D03*
Y133295D02*
D03*
Y130755D02*
D03*
X187413Y147725D02*
D03*
X184873Y147725D02*
D03*
X182333D02*
D03*
X179793D02*
D03*
X177253D02*
D03*
X188514Y193963D02*
D03*
X191054D02*
D03*
X193594D02*
D03*
X196134D02*
D03*
X198674D02*
D03*
X177253Y155748D02*
D03*
X179793D02*
D03*
X182333D02*
D03*
X241225Y174950D02*
D03*
Y177490D02*
D03*
Y180030D02*
D03*
Y182570D02*
D03*
Y185110D02*
D03*
D63*
X226675Y128215D02*
D03*
X241225Y187650D02*
D03*
D64*
X164300Y4237D02*
D03*
D65*
Y14013D02*
D03*
X214834Y130859D02*
D03*
Y133399D02*
D03*
Y128319D02*
D03*
Y125779D02*
D03*
X204135Y194217D02*
D03*
X206675D02*
D03*
X211755D02*
D03*
X209215D02*
D03*
X206120Y125800D02*
D03*
Y128340D02*
D03*
Y133420D02*
D03*
Y130880D02*
D03*
X173782Y174024D02*
D03*
Y176564D02*
D03*
X154224Y174024D02*
D03*
Y176564D02*
D03*
D66*
X103751Y95250D02*
D03*
D67*
Y105250D02*
D03*
D68*
X7000Y181125D02*
D03*
Y171125D02*
D03*
X17000D02*
D03*
Y181125D02*
D03*
X7000Y76275D02*
D03*
Y66275D02*
D03*
X17000D02*
D03*
Y76275D02*
D03*
X7000Y136725D02*
D03*
Y126725D02*
D03*
X17000D02*
D03*
Y136725D02*
D03*
X7000Y30775D02*
D03*
Y20775D02*
D03*
X17000D02*
D03*
Y30775D02*
D03*
X223925Y59725D02*
D03*
Y69725D02*
D03*
X233925D02*
D03*
Y59725D02*
D03*
D69*
X200675Y25125D02*
D03*
Y37125D02*
D03*
D70*
X132893Y96339D02*
D03*
X125822Y103411D02*
D03*
X162593Y95000D02*
D03*
X172593D02*
D03*
D71*
X132500Y6500D02*
D03*
X189875Y6200D02*
D03*
X142500Y6500D02*
D03*
D72*
X209779Y81953D02*
D03*
Y80048D02*
D03*
Y78143D02*
D03*
X214037Y43916D02*
D03*
X211537D02*
D03*
D73*
X188316Y84874D02*
D03*
X188189Y74968D02*
D03*
D74*
X214834Y135939D02*
D03*
X206120Y135960D02*
D03*
D75*
X154674Y121298D02*
D03*
X148832Y121171D02*
D03*
X226671Y44043D02*
D03*
X220829Y43916D02*
D03*
D76*
X151753Y144539D02*
D03*
X223750Y20675D02*
D03*
D77*
X173520Y3900D02*
D03*
X176060D02*
D03*
X178600D02*
D03*
D78*
X175933Y9361D02*
D03*
X187218Y116076D02*
D03*
Y136015D02*
D03*
D79*
X174713Y147725D02*
D03*
X185974Y193963D02*
D03*
X174713Y155748D02*
D03*
D80*
X44451Y165594D02*
D03*
Y163054D02*
D03*
Y160514D02*
D03*
Y55514D02*
D03*
Y58054D02*
D03*
Y60594D02*
D03*
X64417Y160006D02*
D03*
Y162546D02*
D03*
Y165086D02*
D03*
X64317Y60086D02*
D03*
Y57546D02*
D03*
Y55006D02*
D03*
X44451Y193094D02*
D03*
Y190554D02*
D03*
Y188014D02*
D03*
Y88094D02*
D03*
Y85554D02*
D03*
Y83014D02*
D03*
Y15594D02*
D03*
Y13054D02*
D03*
Y10514D02*
D03*
X64317Y187506D02*
D03*
Y190046D02*
D03*
Y192586D02*
D03*
X64217Y82506D02*
D03*
Y85046D02*
D03*
Y87586D02*
D03*
X65117Y15086D02*
D03*
Y12546D02*
D03*
Y10006D02*
D03*
X44451Y115514D02*
D03*
Y118054D02*
D03*
Y120594D02*
D03*
X64617Y120086D02*
D03*
Y117546D02*
D03*
Y115006D02*
D03*
X44451Y43094D02*
D03*
Y40554D02*
D03*
Y38014D02*
D03*
Y143014D02*
D03*
Y145554D02*
D03*
Y148094D02*
D03*
X64117Y147386D02*
D03*
Y144846D02*
D03*
Y142306D02*
D03*
X64834Y42586D02*
D03*
Y40046D02*
D03*
Y37506D02*
D03*
D81*
X24258Y163054D02*
D03*
Y58054D02*
D03*
X84610Y162546D02*
D03*
X84510Y57546D02*
D03*
X24258Y190554D02*
D03*
Y85554D02*
D03*
Y13054D02*
D03*
X84510Y190046D02*
D03*
X84410Y85046D02*
D03*
X85310Y12546D02*
D03*
X24258Y118054D02*
D03*
X84810Y117546D02*
D03*
X24258Y40554D02*
D03*
Y145554D02*
D03*
X84310Y144846D02*
D03*
X85027Y40046D02*
D03*
D82*
X197785Y175675D02*
D03*
Y171103D02*
D03*
X205405D02*
D03*
Y175675D02*
D03*
X180132D02*
D03*
Y171103D02*
D03*
X187752D02*
D03*
Y175675D02*
D03*
X215438D02*
D03*
Y171103D02*
D03*
X223058D02*
D03*
Y175675D02*
D03*
D83*
X163495Y187105D02*
D03*
X143175D02*
D03*
X173528D02*
D03*
X153208D02*
D03*
D84*
X166035D02*
D03*
X168575D02*
D03*
X145715D02*
D03*
X148255D02*
D03*
X176068D02*
D03*
X178608D02*
D03*
X155748D02*
D03*
X158288D02*
D03*
D85*
X214295Y194217D02*
D03*
D86*
X169464Y193963D02*
D03*
X149144D02*
D03*
X177719D02*
D03*
X157399D02*
D03*
X231650Y194225D02*
D03*
X223360D02*
D03*
D87*
X166924Y193963D02*
D03*
X164384D02*
D03*
X144064D02*
D03*
X146604D02*
D03*
X172639D02*
D03*
X175179D02*
D03*
X154859D02*
D03*
X152319D02*
D03*
X226570Y194225D02*
D03*
X229110D02*
D03*
X218280D02*
D03*
X220820D02*
D03*
D88*
X186665Y159259D02*
D03*
X188340D02*
D03*
Y160884D02*
D03*
X186665D02*
D03*
X188340Y162509D02*
D03*
X186665D02*
D03*
X188340Y164084D02*
D03*
X186665D02*
D03*
X135992Y142698D02*
D03*
X137667D02*
D03*
Y144323D02*
D03*
X135992D02*
D03*
X137667Y145948D02*
D03*
X135992D02*
D03*
X137667Y147523D02*
D03*
X135992D02*
D03*
X163398Y136856D02*
D03*
X165073D02*
D03*
Y138481D02*
D03*
X163398D02*
D03*
X165073Y140106D02*
D03*
X163398D02*
D03*
X165073Y141681D02*
D03*
X163398D02*
D03*
X195463Y56278D02*
D03*
Y54628D02*
D03*
Y52978D02*
D03*
Y51303D02*
D03*
X193888Y56278D02*
D03*
Y54628D02*
D03*
Y52978D02*
D03*
Y51303D02*
D03*
X192263Y56278D02*
D03*
Y54628D02*
D03*
Y52978D02*
D03*
Y51303D02*
D03*
X190638D02*
D03*
Y52978D02*
D03*
Y54628D02*
D03*
Y56278D02*
D03*
X238770Y27933D02*
D03*
Y26258D02*
D03*
X237195Y27933D02*
D03*
Y26258D02*
D03*
X235570Y27933D02*
D03*
Y26258D02*
D03*
X233945D02*
D03*
Y27933D02*
D03*
X206411Y7385D02*
D03*
Y5710D02*
D03*
X204836Y7385D02*
D03*
Y5710D02*
D03*
X203211Y7385D02*
D03*
Y5710D02*
D03*
X201586D02*
D03*
Y7385D02*
D03*
X150100Y56100D02*
D03*
Y54450D02*
D03*
Y52800D02*
D03*
Y51125D02*
D03*
X151725D02*
D03*
Y52800D02*
D03*
Y54450D02*
D03*
Y56100D02*
D03*
X153350Y51125D02*
D03*
Y52800D02*
D03*
Y54450D02*
D03*
Y56100D02*
D03*
X154925Y51125D02*
D03*
Y52800D02*
D03*
Y54450D02*
D03*
Y56100D02*
D03*
X166175Y85750D02*
D03*
Y84100D02*
D03*
Y82450D02*
D03*
Y80775D02*
D03*
X164600Y85750D02*
D03*
Y84100D02*
D03*
Y82450D02*
D03*
Y80775D02*
D03*
X162975Y85750D02*
D03*
Y84100D02*
D03*
Y82450D02*
D03*
Y80775D02*
D03*
X161350D02*
D03*
Y82450D02*
D03*
Y84100D02*
D03*
Y85750D02*
D03*
X121193Y99350D02*
D03*
X119618D02*
D03*
X117993D02*
D03*
X116368D02*
D03*
X114718Y99400D02*
D03*
X113218Y99350D02*
D03*
X113168Y100900D02*
D03*
Y102575D02*
D03*
Y104225D02*
D03*
Y105875D02*
D03*
X114668Y100950D02*
D03*
Y102625D02*
D03*
Y104275D02*
D03*
Y105925D02*
D03*
X125018Y96850D02*
D03*
Y95200D02*
D03*
X123443Y96850D02*
D03*
Y95200D02*
D03*
X121818Y96850D02*
D03*
Y95200D02*
D03*
X120193D02*
D03*
Y96850D02*
D03*
X137068Y95550D02*
D03*
Y93900D02*
D03*
Y92250D02*
D03*
Y90575D02*
D03*
X138693D02*
D03*
Y92250D02*
D03*
Y93900D02*
D03*
Y95550D02*
D03*
X140318Y90575D02*
D03*
Y92250D02*
D03*
Y93900D02*
D03*
Y95550D02*
D03*
X141893Y90575D02*
D03*
Y92250D02*
D03*
Y93900D02*
D03*
Y95550D02*
D03*
X116318Y105875D02*
D03*
Y104225D02*
D03*
Y102575D02*
D03*
Y100900D02*
D03*
X117943D02*
D03*
Y102575D02*
D03*
Y104225D02*
D03*
Y105875D02*
D03*
X119568Y100900D02*
D03*
Y102575D02*
D03*
Y104225D02*
D03*
Y105875D02*
D03*
X121143Y100900D02*
D03*
Y102575D02*
D03*
Y104225D02*
D03*
Y105875D02*
D03*
X54618Y129657D02*
D03*
Y127982D02*
D03*
X52993Y132957D02*
D03*
Y131307D02*
D03*
Y129657D02*
D03*
Y127982D02*
D03*
X51368D02*
D03*
Y129657D02*
D03*
Y131307D02*
D03*
Y132957D02*
D03*
X56193Y73632D02*
D03*
Y71982D02*
D03*
Y70332D02*
D03*
Y68657D02*
D03*
X54618Y73632D02*
D03*
Y71982D02*
D03*
Y70332D02*
D03*
Y68657D02*
D03*
X52993Y73632D02*
D03*
Y71982D02*
D03*
Y70332D02*
D03*
Y68657D02*
D03*
X51368D02*
D03*
Y70332D02*
D03*
Y71982D02*
D03*
Y73632D02*
D03*
X56993Y28232D02*
D03*
Y26582D02*
D03*
Y24932D02*
D03*
Y23257D02*
D03*
X55418Y28232D02*
D03*
Y26582D02*
D03*
Y24932D02*
D03*
Y23257D02*
D03*
X53793Y28232D02*
D03*
Y26582D02*
D03*
Y24932D02*
D03*
Y23257D02*
D03*
X52168D02*
D03*
Y24932D02*
D03*
Y26582D02*
D03*
Y28232D02*
D03*
X51743Y179675D02*
D03*
Y178025D02*
D03*
Y176375D02*
D03*
Y174700D02*
D03*
X53368D02*
D03*
Y176375D02*
D03*
Y178025D02*
D03*
Y179675D02*
D03*
X54993Y174700D02*
D03*
Y176375D02*
D03*
Y178025D02*
D03*
Y179675D02*
D03*
X56568Y174700D02*
D03*
Y176375D02*
D03*
Y178025D02*
D03*
Y179675D02*
D03*
X56193Y132957D02*
D03*
Y131307D02*
D03*
Y129657D02*
D03*
Y127982D02*
D03*
X54618Y132957D02*
D03*
Y131307D02*
D03*
D89*
X140915Y2500D02*
D03*
Y11500D02*
D03*
Y14420D02*
D03*
Y18794D02*
D03*
Y20646D02*
D03*
Y24096D02*
D03*
Y27919D02*
D03*
Y31452D02*
D03*
Y35276D02*
D03*
Y38934D02*
D03*
Y42234D02*
D03*
Y45834D02*
D03*
Y50381D02*
D03*
Y54245D02*
D03*
Y57765D02*
D03*
Y60868D02*
D03*
Y63530D02*
D03*
Y79791D02*
D03*
Y99519D02*
D03*
Y104479D02*
D03*
Y173644D02*
D03*
Y176443D02*
D03*
Y180725D02*
D03*
Y178407D02*
D03*
Y182914D02*
D03*
Y189168D02*
D03*
Y191804D02*
D03*
Y194813D02*
D03*
Y197260D02*
D03*
Y199329D02*
D03*
X138891Y69125D02*
D03*
X196215Y164236D02*
D03*
X243302Y181300D02*
D03*
Y186310D02*
D03*
Y173500D02*
D03*
Y169775D02*
D03*
Y153487D02*
D03*
Y147257D02*
D03*
Y142605D02*
D03*
Y133793D02*
D03*
Y122502D02*
D03*
Y128375D02*
D03*
Y114747D02*
D03*
Y101585D02*
D03*
Y88315D02*
D03*
Y77284D02*
D03*
Y13601D02*
D03*
X210348Y121368D02*
D03*
Y127167D02*
D03*
Y134921D02*
D03*
Y159017D02*
D03*
Y152504D02*
D03*
Y162689D02*
D03*
Y165050D02*
D03*
Y166976D02*
D03*
Y171482D02*
D03*
Y175281D02*
D03*
Y179340D02*
D03*
Y181971D02*
D03*
Y185025D02*
D03*
Y192947D02*
D03*
Y197419D02*
D03*
Y199264D02*
D03*
X227472Y724D02*
D03*
Y3274D02*
D03*
Y9225D02*
D03*
Y11593D02*
D03*
Y29955D02*
D03*
Y33542D02*
D03*
Y38326D02*
D03*
Y51575D02*
D03*
Y76584D02*
D03*
Y81299D02*
D03*
Y87451D02*
D03*
Y99432D02*
D03*
Y111662D02*
D03*
Y116086D02*
D03*
Y118247D02*
D03*
Y121133D02*
D03*
Y125150D02*
D03*
Y136985D02*
D03*
Y151625D02*
D03*
Y163461D02*
D03*
Y167825D02*
D03*
Y170389D02*
D03*
Y181762D02*
D03*
Y186629D02*
D03*
Y183813D02*
D03*
Y190950D02*
D03*
Y199072D02*
D03*
X187455Y45262D02*
D03*
Y31956D02*
D03*
Y22184D02*
D03*
Y14427D02*
D03*
Y7931D02*
D03*
Y2200D02*
D03*
Y67891D02*
D03*
Y91603D02*
D03*
Y97020D02*
D03*
Y102925D02*
D03*
Y105000D02*
D03*
Y131719D02*
D03*
X187621Y140337D02*
D03*
X187455Y142496D02*
D03*
Y166853D02*
D03*
Y183698D02*
D03*
Y191691D02*
D03*
Y197407D02*
D03*
Y199341D02*
D03*
X152195Y38714D02*
D03*
Y32885D02*
D03*
Y28438D02*
D03*
Y15779D02*
D03*
Y9600D02*
D03*
X152195Y6500D02*
D03*
Y2779D02*
D03*
Y735D02*
D03*
Y83215D02*
D03*
Y86980D02*
D03*
Y98335D02*
D03*
Y101439D02*
D03*
Y104109D02*
D03*
X152104Y109300D02*
D03*
X152195Y126383D02*
D03*
Y128601D02*
D03*
Y130440D02*
D03*
X152195Y131789D02*
D03*
X152195Y133223D02*
D03*
Y134570D02*
D03*
Y154754D02*
D03*
Y158012D02*
D03*
Y160275D02*
D03*
Y162327D02*
D03*
Y164325D02*
D03*
X152195Y166594D02*
D03*
X152195Y169927D02*
D03*
Y173135D02*
D03*
Y177453D02*
D03*
Y180172D02*
D03*
Y182914D02*
D03*
Y199482D02*
D03*
X131754Y9263D02*
D03*
Y2500D02*
D03*
Y14258D02*
D03*
Y36650D02*
D03*
Y40424D02*
D03*
Y49375D02*
D03*
Y54202D02*
D03*
Y59384D02*
D03*
Y62169D02*
D03*
Y76282D02*
D03*
Y80241D02*
D03*
Y82368D02*
D03*
Y84508D02*
D03*
Y86775D02*
D03*
Y116575D02*
D03*
X133850Y122325D02*
D03*
X131754Y138754D02*
D03*
Y141589D02*
D03*
Y146628D02*
D03*
Y151427D02*
D03*
Y156750D02*
D03*
Y162325D02*
D03*
Y166601D02*
D03*
Y184532D02*
D03*
Y186818D02*
D03*
Y193353D02*
D03*
Y199204D02*
D03*
X113189Y111719D02*
D03*
Y130370D02*
D03*
Y25774D02*
D03*
Y28750D02*
D03*
Y13918D02*
D03*
Y5750D02*
D03*
Y907D02*
D03*
X112549Y35840D02*
D03*
X113189Y42508D02*
D03*
Y51417D02*
D03*
X113966Y57389D02*
D03*
X113189Y59949D02*
D03*
Y71067D02*
D03*
Y74697D02*
D03*
X113966Y79500D02*
D03*
X113189Y81710D02*
D03*
Y88349D02*
D03*
Y94904D02*
D03*
Y109500D02*
D03*
Y118120D02*
D03*
Y122945D02*
D03*
Y133490D02*
D03*
Y136394D02*
D03*
Y140105D02*
D03*
Y142575D02*
D03*
Y148595D02*
D03*
Y154650D02*
D03*
Y157800D02*
D03*
X113966Y161699D02*
D03*
X113189Y165193D02*
D03*
Y176110D02*
D03*
Y179523D02*
D03*
Y193746D02*
D03*
Y196536D02*
D03*
X103593Y1093D02*
D03*
Y14782D02*
D03*
Y18885D02*
D03*
Y33025D02*
D03*
Y47600D02*
D03*
Y49350D02*
D03*
Y62400D02*
D03*
Y64675D02*
D03*
Y77168D02*
D03*
Y90995D02*
D03*
Y120235D02*
D03*
Y123396D02*
D03*
Y135832D02*
D03*
Y138512D02*
D03*
Y152825D02*
D03*
Y161971D02*
D03*
Y170221D02*
D03*
Y199143D02*
D03*
X113189Y199181D02*
D03*
X193789Y28006D02*
D03*
X152169Y18231D02*
D03*
X202300Y151875D02*
D03*
X202950Y132500D02*
D03*
X199350Y122400D02*
D03*
X200093Y123476D02*
D03*
X201575Y152800D02*
D03*
X223325Y181400D02*
D03*
X191000Y136154D02*
D03*
X158450Y85425D02*
D03*
X99512Y191255D02*
D03*
X120229Y160153D02*
D03*
X140475Y76750D02*
D03*
X142475Y75975D02*
D03*
X117817Y139025D02*
D03*
X183821Y133525D02*
D03*
X183442Y132385D02*
D03*
X181508Y129180D02*
D03*
X226374Y186629D02*
D03*
X194325Y161175D02*
D03*
X195550Y160575D02*
D03*
X193000Y162275D02*
D03*
X191875Y163100D02*
D03*
X117300Y20154D02*
D03*
X200863Y102693D02*
D03*
X141350Y76050D02*
D03*
X128800Y32025D02*
D03*
X119770Y145010D02*
D03*
X153275Y81575D02*
D03*
X152418Y79400D02*
D03*
X108461Y88377D02*
D03*
X194251Y120125D02*
D03*
X195692Y124121D02*
D03*
X202793Y118765D02*
D03*
X190716Y118125D02*
D03*
X198268Y120750D02*
D03*
X192268Y116075D02*
D03*
X191254Y112287D02*
D03*
X202793Y119675D02*
D03*
X191093Y110075D02*
D03*
X198600Y121600D02*
D03*
X197143Y120950D02*
D03*
X193870Y121292D02*
D03*
X189068Y109200D02*
D03*
X149678Y80575D02*
D03*
X175097Y108632D02*
D03*
X161668Y128875D02*
D03*
Y129725D02*
D03*
X192918Y116750D02*
D03*
X176693Y122550D02*
D03*
X209215Y188230D02*
D03*
X195388Y134684D02*
D03*
X122893Y52725D02*
D03*
X123596Y81350D02*
D03*
X122393Y141425D02*
D03*
X123118Y156875D02*
D03*
X123293Y186700D02*
D03*
X118875Y158905D02*
D03*
X177993Y117450D02*
D03*
X159130Y167732D02*
D03*
X161641Y176894D02*
D03*
X153132Y180704D02*
D03*
X158095Y180675D02*
D03*
X206595Y188107D02*
D03*
X190568Y145952D02*
D03*
X195572Y145979D02*
D03*
X191818Y145950D02*
D03*
X193068Y145975D02*
D03*
X164736Y174795D02*
D03*
X194318Y145975D02*
D03*
X169318Y127825D02*
D03*
X180443Y122850D02*
D03*
X120018Y84425D02*
D03*
X120043Y8674D02*
D03*
X120018Y38600D02*
D03*
X122943Y5050D02*
D03*
X211755Y188352D02*
D03*
X99943Y194850D02*
D03*
X99868Y165350D02*
D03*
X99768Y157350D02*
D03*
X109368Y160175D02*
D03*
X99868Y11243D02*
D03*
X109468Y8674D02*
D03*
X99716Y53000D02*
D03*
X99949Y43543D02*
D03*
X99667Y5550D02*
D03*
X109293Y55825D02*
D03*
X99767Y37158D02*
D03*
X99843Y111342D02*
D03*
X99916Y116880D02*
D03*
X109543Y114075D02*
D03*
X109493Y84350D02*
D03*
X99880Y58718D02*
D03*
X99868Y148151D02*
D03*
X99718Y142250D02*
D03*
X109587Y144950D02*
D03*
X99699Y188202D02*
D03*
X109333Y38596D02*
D03*
X99916Y87997D02*
D03*
X99767Y81908D02*
D03*
X199693Y127125D02*
D03*
X148814Y171011D02*
D03*
X127475Y159232D02*
D03*
X178138Y126950D02*
D03*
X177046Y117825D02*
D03*
X126768Y146875D02*
D03*
X125647Y54261D02*
D03*
X119768Y114094D02*
D03*
X159800Y86775D02*
D03*
X118875Y112824D02*
D03*
X125575Y118265D02*
D03*
X113189Y18671D02*
D03*
X118761Y143680D02*
D03*
X115025Y64425D02*
D03*
X123543Y183900D02*
D03*
X126793Y36650D02*
D03*
X121775Y81350D02*
D03*
X174579Y107800D02*
D03*
X127293Y115364D02*
D03*
X120150Y173175D02*
D03*
X118875Y37326D02*
D03*
X152195Y80389D02*
D03*
X147643Y78875D02*
D03*
X202192Y114776D02*
D03*
X199668Y124200D02*
D03*
X126696Y6650D02*
D03*
X176329Y113614D02*
D03*
X150543Y80625D02*
D03*
X118875Y188831D02*
D03*
X142968Y77675D02*
D03*
X118875Y7404D02*
D03*
X117350Y123950D02*
D03*
X123343Y78100D02*
D03*
X120768Y137575D02*
D03*
X118875Y83071D02*
D03*
X115925Y30156D02*
D03*
X116950Y52425D02*
D03*
X126718Y82480D02*
D03*
X124693Y35268D02*
D03*
X146718Y78200D02*
D03*
X179093Y130675D02*
D03*
X197393Y126550D02*
D03*
X187455Y108750D02*
D03*
X191968Y110100D02*
D03*
X182857Y133126D02*
D03*
X193436Y108058D02*
D03*
X196377Y114516D02*
D03*
X190568Y111875D02*
D03*
X180443Y123984D02*
D03*
X183593Y146700D02*
D03*
X197118Y115000D02*
D03*
X196608Y124121D02*
D03*
X177046Y114452D02*
D03*
X178418Y126025D02*
D03*
X169464Y126606D02*
D03*
X193718Y119349D02*
D03*
X194701Y121292D02*
D03*
X171842Y170724D02*
D03*
X171543Y114925D02*
D03*
X172469Y114713D02*
D03*
X192493Y109400D02*
D03*
X198771Y126550D02*
D03*
X240225Y178815D02*
D03*
X120039Y55865D02*
D03*
X190716Y117375D02*
D03*
X151693Y81400D02*
D03*
X176469Y121658D02*
D03*
D90*
X133570Y69125D02*
D03*
X141569D02*
D03*
X92744Y117514D02*
D03*
Y121994D02*
D03*
Y143293D02*
D03*
Y150840D02*
D03*
X92769Y84872D02*
D03*
X92744Y65659D02*
D03*
Y60958D02*
D03*
Y52212D02*
D03*
Y36725D02*
D03*
Y15307D02*
D03*
Y9406D02*
D03*
Y3240D02*
D03*
Y157128D02*
D03*
Y166710D02*
D03*
X116402Y78438D02*
D03*
X181684Y193963D02*
D03*
X160906D02*
D03*
X92744Y187943D02*
D03*
Y198550D02*
D03*
X169464Y164531D02*
D03*
X162831Y164575D02*
D03*
X158926D02*
D03*
X151077Y69125D02*
D03*
X154798D02*
D03*
X158715D02*
D03*
X162264D02*
D03*
X166221D02*
D03*
X169947D02*
D03*
X173668D02*
D03*
X178000D02*
D03*
X180500Y67025D02*
D03*
X182825Y64700D02*
D03*
X185158Y61967D02*
D03*
X189254Y59600D02*
D03*
X194039D02*
D03*
X198687D02*
D03*
X204429D02*
D03*
X210348D02*
D03*
X216460D02*
D03*
D91*
X173482Y52603D02*
D03*
X169464Y34213D02*
D03*
Y12790D02*
D03*
Y970D02*
D03*
Y110784D02*
D03*
Y114713D02*
D03*
Y118157D02*
D03*
Y121831D02*
D03*
Y128932D02*
D03*
Y131282D02*
D03*
Y134449D02*
D03*
Y138849D02*
D03*
Y143033D02*
D03*
Y145162D02*
D03*
Y147163D02*
D03*
Y151307D02*
D03*
Y160389D02*
D03*
Y178096D02*
D03*
Y184530D02*
D03*
Y190388D02*
D03*
Y199304D02*
D03*
X210348Y32865D02*
D03*
Y29206D02*
D03*
Y24868D02*
D03*
Y19066D02*
D03*
Y13956D02*
D03*
Y10417D02*
D03*
Y6733D02*
D03*
Y4102D02*
D03*
Y817D02*
D03*
Y38616D02*
D03*
Y76390D02*
D03*
Y84840D02*
D03*
Y90391D02*
D03*
Y96850D02*
D03*
X92744Y75753D02*
D03*
Y45509D02*
D03*
Y441D02*
D03*
X210348Y107063D02*
D03*
X190255Y124259D02*
D03*
X187455Y123523D02*
D03*
Y126559D02*
D03*
D92*
X210348Y113076D02*
D03*
X210987Y164043D02*
D03*
X227472Y104350D02*
D03*
X113189Y173512D02*
D03*
Y126890D02*
D03*
Y22150D02*
D03*
X221800Y125391D02*
D03*
Y128045D02*
D03*
Y132313D02*
D03*
Y135950D02*
D03*
Y139942D02*
D03*
Y143654D02*
D03*
Y147314D02*
D03*
Y150655D02*
D03*
Y154247D02*
D03*
Y157482D02*
D03*
Y160600D02*
D03*
X230730Y125350D02*
D03*
Y128375D02*
D03*
X223100Y104200D02*
D03*
X119275Y183175D02*
D03*
X99075Y21986D02*
D03*
X113125Y67121D02*
D03*
X113720Y30106D02*
D03*
X114697Y58479D02*
D03*
Y41139D02*
D03*
X114697Y87383D02*
D03*
X98727Y67350D02*
D03*
X99118Y172804D02*
D03*
X98433Y126790D02*
D03*
X94431Y187334D02*
D03*
X233331Y122250D02*
D03*
X141009Y137241D02*
D03*
X141000Y157775D02*
D03*
X241375Y121142D02*
D03*
X234566Y154175D02*
D03*
X141000Y161975D02*
D03*
X127450Y160225D02*
D03*
X151400Y73425D02*
D03*
X216229Y181971D02*
D03*
X207700Y180550D02*
D03*
X217100Y155800D02*
D03*
X218650Y126579D02*
D03*
X210487Y168299D02*
D03*
X219100Y158350D02*
D03*
X205850Y151475D02*
D03*
X233700Y125350D02*
D03*
X229149Y121125D02*
D03*
X218700Y103650D02*
D03*
X237521Y119700D02*
D03*
X200475Y148200D02*
D03*
X237530Y124504D02*
D03*
X200257Y135490D02*
D03*
X195165Y141640D02*
D03*
X195225Y138150D02*
D03*
X238784Y125775D02*
D03*
X222150Y168325D02*
D03*
X230700Y88100D02*
D03*
X211814Y119136D02*
D03*
X230575Y145954D02*
D03*
X231250Y139279D02*
D03*
X232750Y142817D02*
D03*
X240722Y139534D02*
D03*
X233295Y154175D02*
D03*
X241407Y151487D02*
D03*
X243762Y144499D02*
D03*
X237777Y141097D02*
D03*
X233650Y139225D02*
D03*
X208225Y137800D02*
D03*
X208175Y128340D02*
D03*
X116900Y44946D02*
D03*
X208137Y91525D02*
D03*
X117700Y186200D02*
D03*
X115634Y181843D02*
D03*
X120700Y169700D02*
D03*
X180132Y168282D02*
D03*
X160371Y171941D02*
D03*
X195119Y168300D02*
D03*
X115925Y32875D02*
D03*
X119043Y167675D02*
D03*
X114047Y162715D02*
D03*
X120000Y80350D02*
D03*
X117650Y79225D02*
D03*
X114022Y116655D02*
D03*
X116514Y76285D02*
D03*
X113856Y11235D02*
D03*
X195211Y111649D02*
D03*
X128800Y33225D02*
D03*
X117857Y135305D02*
D03*
X119750Y123425D02*
D03*
X120050Y19200D02*
D03*
X120120Y64835D02*
D03*
X126718Y84301D02*
D03*
X117360Y89131D02*
D03*
X117232Y60655D02*
D03*
X95086Y143404D02*
D03*
X97025Y38575D02*
D03*
X116648Y119250D02*
D03*
X117360Y14897D02*
D03*
D93*
X227472Y91700D02*
D03*
X138354Y196478D02*
D03*
D94*
X93015Y125247D02*
D03*
X92735Y135128D02*
D03*
D95*
X131300Y66975D02*
D03*
Y68450D02*
D03*
Y69950D02*
D03*
X129800Y66975D02*
D03*
X129275Y125950D02*
D03*
X126825Y72950D02*
D03*
X126800Y74450D02*
D03*
X128325Y72950D02*
D03*
X128300Y74450D02*
D03*
X126825Y71450D02*
D03*
X133350Y29375D02*
D03*
X128825D02*
D03*
X130325D02*
D03*
X131850D02*
D03*
X131875Y27875D02*
D03*
X130350D02*
D03*
X128850D02*
D03*
X133375D02*
D03*
X131875Y26375D02*
D03*
X130350D02*
D03*
X128850D02*
D03*
X133375D02*
D03*
X131825Y24875D02*
D03*
X130300D02*
D03*
X128800D02*
D03*
X133325D02*
D03*
X131825Y23375D02*
D03*
X130300D02*
D03*
X128800D02*
D03*
X133325D02*
D03*
X131825Y21900D02*
D03*
X130300D02*
D03*
X128800D02*
D03*
X133325D02*
D03*
X131325Y74450D02*
D03*
X129825D02*
D03*
X129850Y72950D02*
D03*
X131350D02*
D03*
X129850Y71450D02*
D03*
X128325D02*
D03*
X131350D02*
D03*
X129800Y69950D02*
D03*
X128275D02*
D03*
X126775D02*
D03*
X129800Y68450D02*
D03*
X128275D02*
D03*
X126775D02*
D03*
X128275Y66975D02*
D03*
X126775D02*
D03*
X130800Y133425D02*
D03*
X126275D02*
D03*
X127775D02*
D03*
X129300D02*
D03*
X129325Y131925D02*
D03*
X127800D02*
D03*
X126300D02*
D03*
X130825D02*
D03*
X129325Y130425D02*
D03*
X127800D02*
D03*
X126300D02*
D03*
X130825D02*
D03*
X129275Y128925D02*
D03*
X127750D02*
D03*
X126250D02*
D03*
X130775D02*
D03*
X129275Y127425D02*
D03*
X127750D02*
D03*
X126250D02*
D03*
X130775D02*
D03*
X127750Y125950D02*
D03*
X126250D02*
D03*
X130775D02*
D03*
X131275Y172525D02*
D03*
X126750D02*
D03*
X128250D02*
D03*
X129775D02*
D03*
X131275Y174000D02*
D03*
X126750D02*
D03*
X128250D02*
D03*
X129775D02*
D03*
X131275Y175500D02*
D03*
X126750D02*
D03*
X128250D02*
D03*
X129775D02*
D03*
X131325Y177000D02*
D03*
X126800D02*
D03*
X128300D02*
D03*
X129825D02*
D03*
X131325Y178500D02*
D03*
X126800D02*
D03*
X128300D02*
D03*
X129825D02*
D03*
X129800Y180000D02*
D03*
X128275D02*
D03*
X126775D02*
D03*
X131300D02*
D03*
%TF.MD5,39462770d3d6cb7bc19fc6aaf94871bc*%
M02*
