%TF.GenerationSoftware,Altium Limited,Altium Designer,21.6.4 (81)*%
G04 Layer_Color=128*
%FSLAX43Y43*%
%MOMM*%
%TF.SameCoordinates,B094594F-E5AE-4C03-B854-EF891E02AD71*%
%TF.FilePolarity,Positive*%
%TF.FileFunction,Paste,Bot*%
%TF.Part,Single*%
G01*
G75*
%TA.AperFunction,SMDPad,CuDef*%
%ADD18R,1.350X0.950*%
%ADD19R,1.508X1.157*%
%ADD96R,1.508X1.207*%
%ADD97R,1.157X1.508*%
%ADD100R,1.207X1.508*%
%ADD101R,0.950X1.350*%
%ADD104R,0.757X1.308*%
%ADD105R,1.308X0.757*%
%ADD109R,1.250X2.000*%
G04:AMPARAMS|DCode=111|XSize=1.25mm|YSize=2mm|CornerRadius=0mm|HoleSize=0mm|Usage=FLASHONLY|Rotation=225.000|XOffset=0mm|YOffset=0mm|HoleType=Round|Shape=Rectangle|*
%AMROTATEDRECTD111*
4,1,4,-0.265,1.149,1.149,-0.265,0.265,-1.149,-1.149,0.265,-0.265,1.149,0.0*
%
%ADD111ROTATEDRECTD111*%

%ADD112R,2.270X0.558*%
G04:AMPARAMS|DCode=113|XSize=1.194mm|YSize=0.305mm|CornerRadius=0mm|HoleSize=0mm|Usage=FLASHONLY|Rotation=225.000|XOffset=0mm|YOffset=0mm|HoleType=Round|Shape=Rectangle|*
%AMROTATEDRECTD113*
4,1,4,0.314,0.530,0.530,0.314,-0.314,-0.530,-0.530,-0.314,0.314,0.530,0.0*
%
%ADD113ROTATEDRECTD113*%

G04:AMPARAMS|DCode=114|XSize=1.194mm|YSize=0.305mm|CornerRadius=0mm|HoleSize=0mm|Usage=FLASHONLY|Rotation=135.000|XOffset=0mm|YOffset=0mm|HoleType=Round|Shape=Rectangle|*
%AMROTATEDRECTD114*
4,1,4,0.530,-0.314,0.314,-0.530,-0.530,0.314,-0.314,0.530,0.530,-0.314,0.0*
%
%ADD114ROTATEDRECTD114*%

%ADD118R,0.900X1.200*%
%ADD119R,0.808X1.262*%
%ADD120R,1.007X1.408*%
G04:AMPARAMS|DCode=121|XSize=1.207mm|YSize=1.508mm|CornerRadius=0mm|HoleSize=0mm|Usage=FLASHONLY|Rotation=315.000|XOffset=0mm|YOffset=0mm|HoleType=Round|Shape=Rectangle|*
%AMROTATEDRECTD121*
4,1,4,-0.960,-0.107,0.107,0.960,0.960,0.107,-0.107,-0.960,-0.960,-0.107,0.0*
%
%ADD121ROTATEDRECTD121*%

G04:AMPARAMS|DCode=122|XSize=1.207mm|YSize=1.508mm|CornerRadius=0mm|HoleSize=0mm|Usage=FLASHONLY|Rotation=45.000|XOffset=0mm|YOffset=0mm|HoleType=Round|Shape=Rectangle|*
%AMROTATEDRECTD122*
4,1,4,0.107,-0.960,-0.960,0.107,-0.107,0.960,0.960,-0.107,0.107,-0.960,0.0*
%
%ADD122ROTATEDRECTD122*%

%ADD125R,2.500X1.700*%
%ADD126R,1.556X1.505*%
G04:AMPARAMS|DCode=127|XSize=0.95mm|YSize=1.35mm|CornerRadius=0mm|HoleSize=0mm|Usage=FLASHONLY|Rotation=135.000|XOffset=0mm|YOffset=0mm|HoleType=Round|Shape=Rectangle|*
%AMROTATEDRECTD127*
4,1,4,0.813,0.141,-0.141,-0.813,-0.813,-0.141,0.141,0.813,0.813,0.141,0.0*
%
%ADD127ROTATEDRECTD127*%

G04:AMPARAMS|DCode=128|XSize=0.95mm|YSize=1.35mm|CornerRadius=0mm|HoleSize=0mm|Usage=FLASHONLY|Rotation=45.000|XOffset=0mm|YOffset=0mm|HoleType=Round|Shape=Rectangle|*
%AMROTATEDRECTD128*
4,1,4,0.141,-0.813,-0.813,0.141,-0.141,0.813,0.813,-0.141,0.141,-0.813,0.0*
%
%ADD128ROTATEDRECTD128*%

%ADD138R,3.450X4.400*%
%ADD139R,3.500X3.300*%
%ADD140R,3.300X3.500*%
%ADD141R,1.650X2.525*%
%ADD142R,2.300X2.800*%
%ADD143R,2.800X2.300*%
%ADD144R,2.450X2.800*%
%ADD145R,1.900X1.650*%
%ADD146O,1.700X3.600*%
G04:AMPARAMS|DCode=147|XSize=1.9mm|YSize=2.45mm|CornerRadius=0.55mm|HoleSize=0mm|Usage=FLASHONLY|Rotation=90.000|XOffset=0mm|YOffset=0mm|HoleType=Round|Shape=RoundedRectangle|*
%AMROUNDEDRECTD147*
21,1,1.900,1.351,0,0,90.0*
21,1,0.801,2.450,0,0,90.0*
1,1,1.099,0.676,0.401*
1,1,1.099,0.676,-0.401*
1,1,1.099,-0.676,-0.401*
1,1,1.099,-0.676,0.401*
%
%ADD147ROUNDEDRECTD147*%
G04:AMPARAMS|DCode=148|XSize=4.15mm|YSize=2.45mm|CornerRadius=0.551mm|HoleSize=0mm|Usage=FLASHONLY|Rotation=90.000|XOffset=0mm|YOffset=0mm|HoleType=Round|Shape=RoundedRectangle|*
%AMROUNDEDRECTD148*
21,1,4.150,1.349,0,0,90.0*
21,1,3.049,2.450,0,0,90.0*
1,1,1.102,0.674,1.524*
1,1,1.102,0.674,-1.524*
1,1,1.102,-0.674,-1.524*
1,1,1.102,-0.674,1.524*
%
%ADD148ROUNDEDRECTD148*%
G04:AMPARAMS|DCode=149|XSize=1.8mm|YSize=2.6mm|CornerRadius=0.7mm|HoleSize=0mm|Usage=FLASHONLY|Rotation=0.000|XOffset=0mm|YOffset=0mm|HoleType=Round|Shape=RoundedRectangle|*
%AMROUNDEDRECTD149*
21,1,1.800,1.200,0,0,0.0*
21,1,0.400,2.600,0,0,0.0*
1,1,1.400,0.200,-0.600*
1,1,1.400,-0.200,-0.600*
1,1,1.400,-0.200,0.600*
1,1,1.400,0.200,0.600*
%
%ADD149ROUNDEDRECTD149*%
G04:AMPARAMS|DCode=150|XSize=1.6mm|YSize=2.6mm|CornerRadius=0.65mm|HoleSize=0mm|Usage=FLASHONLY|Rotation=0.000|XOffset=0mm|YOffset=0mm|HoleType=Round|Shape=RoundedRectangle|*
%AMROUNDEDRECTD150*
21,1,1.600,1.300,0,0,0.0*
21,1,0.300,2.600,0,0,0.0*
1,1,1.300,0.150,-0.650*
1,1,1.300,-0.150,-0.650*
1,1,1.300,-0.150,0.650*
1,1,1.300,0.150,0.650*
%
%ADD150ROUNDEDRECTD150*%
G04:AMPARAMS|DCode=151|XSize=3.45mm|YSize=3.35mm|CornerRadius=0mm|HoleSize=0mm|Usage=FLASHONLY|Rotation=315.000|XOffset=0mm|YOffset=0mm|HoleType=Round|Shape=Rectangle|*
%AMROTATEDRECTD151*
4,1,4,-2.404,0.035,-0.035,2.404,2.404,-0.035,0.035,-2.404,-2.404,0.035,0.0*
%
%ADD151ROTATEDRECTD151*%

D18*
X114718Y137525D02*
D03*
Y139025D02*
D03*
X117000Y31350D02*
D03*
Y32850D02*
D03*
X231505Y123275D02*
D03*
Y121775D02*
D03*
X106418Y178898D02*
D03*
Y177398D02*
D03*
X106072Y72050D02*
D03*
Y73550D02*
D03*
X105852Y132775D02*
D03*
Y131275D02*
D03*
X105792Y28400D02*
D03*
Y26900D02*
D03*
X211975Y80036D02*
D03*
Y78536D02*
D03*
X239350Y153237D02*
D03*
Y151737D02*
D03*
D19*
X230550Y144876D02*
D03*
Y142724D02*
D03*
X211755Y189649D02*
D03*
Y191801D02*
D03*
X209215Y191679D02*
D03*
Y189527D02*
D03*
X230550Y147099D02*
D03*
Y149251D02*
D03*
D96*
X93525Y31873D02*
D03*
Y33975D02*
D03*
X93750Y56248D02*
D03*
Y54147D02*
D03*
X93143Y159782D02*
D03*
Y161883D02*
D03*
X93750Y79451D02*
D03*
Y77349D02*
D03*
X93225Y183801D02*
D03*
Y181699D02*
D03*
X93089Y192378D02*
D03*
Y190277D02*
D03*
X92225Y113424D02*
D03*
Y115526D02*
D03*
X93818Y138676D02*
D03*
Y136574D02*
D03*
X93690Y148901D02*
D03*
Y146799D02*
D03*
X92509Y5305D02*
D03*
Y7407D02*
D03*
X93700Y43826D02*
D03*
Y41724D02*
D03*
X234952Y123901D02*
D03*
Y121799D02*
D03*
X124393Y55900D02*
D03*
Y53798D02*
D03*
X121024Y145010D02*
D03*
Y142908D02*
D03*
X193864Y168249D02*
D03*
Y170351D02*
D03*
X183945Y170335D02*
D03*
Y168233D02*
D03*
X211741Y170401D02*
D03*
Y168299D02*
D03*
X166975Y191788D02*
D03*
Y189687D02*
D03*
X146655Y191661D02*
D03*
Y189560D02*
D03*
X170023Y174447D02*
D03*
Y176548D02*
D03*
X150482Y176531D02*
D03*
Y174429D02*
D03*
X170023Y167799D02*
D03*
Y169901D02*
D03*
X150414Y169799D02*
D03*
Y167697D02*
D03*
X173782Y167872D02*
D03*
Y169974D02*
D03*
X154224Y169799D02*
D03*
Y167697D02*
D03*
X175230Y191788D02*
D03*
Y189687D02*
D03*
X154910Y191696D02*
D03*
Y189594D02*
D03*
X121596Y158108D02*
D03*
Y160210D02*
D03*
X124596Y158108D02*
D03*
Y160210D02*
D03*
X121293Y53798D02*
D03*
Y55900D02*
D03*
X121768Y190001D02*
D03*
Y187899D02*
D03*
X124768D02*
D03*
Y190001D02*
D03*
X121850Y84301D02*
D03*
Y82199D02*
D03*
X124850D02*
D03*
Y84301D02*
D03*
X121386Y6353D02*
D03*
Y8455D02*
D03*
X124493Y112027D02*
D03*
Y114129D02*
D03*
X121568D02*
D03*
Y112027D02*
D03*
X124448Y6353D02*
D03*
Y8455D02*
D03*
X223360Y188249D02*
D03*
Y190351D02*
D03*
X220820Y188249D02*
D03*
Y190351D02*
D03*
X121649Y38473D02*
D03*
Y36372D02*
D03*
X123857Y142908D02*
D03*
Y145010D02*
D03*
X124693Y36372D02*
D03*
Y38473D02*
D03*
X237530Y123901D02*
D03*
Y121799D02*
D03*
X233000Y187401D02*
D03*
Y185299D02*
D03*
X236092Y167199D02*
D03*
Y169301D02*
D03*
D97*
X106246Y172725D02*
D03*
X104094D02*
D03*
X239349Y149775D02*
D03*
X241501D02*
D03*
X235641Y155964D02*
D03*
X233489D02*
D03*
X242098Y144499D02*
D03*
X239947D02*
D03*
X105952Y67450D02*
D03*
X103800D02*
D03*
X105867Y126710D02*
D03*
X103716D02*
D03*
X105844Y22100D02*
D03*
X103692D02*
D03*
X239947Y141851D02*
D03*
X242098D02*
D03*
D100*
X110373Y65300D02*
D03*
X108272D02*
D03*
X108717Y170475D02*
D03*
X110819D02*
D03*
X108124Y94050D02*
D03*
X110226D02*
D03*
X106899Y124199D02*
D03*
X109001D02*
D03*
X108048Y19525D02*
D03*
X110150D02*
D03*
X99667Y158871D02*
D03*
X101769D02*
D03*
Y54496D02*
D03*
X99667D02*
D03*
X105667Y158871D02*
D03*
X107769D02*
D03*
X105667Y54623D02*
D03*
X107769D02*
D03*
X167194Y185149D02*
D03*
X169295D02*
D03*
X146874D02*
D03*
X148975D02*
D03*
X162876D02*
D03*
X164977D02*
D03*
X142556D02*
D03*
X144657D02*
D03*
X177227D02*
D03*
X179328D02*
D03*
X156907D02*
D03*
X159008D02*
D03*
X172909D02*
D03*
X175010D02*
D03*
X152589D02*
D03*
X154690D02*
D03*
X168279Y179561D02*
D03*
X166178D02*
D03*
X161675Y179307D02*
D03*
X159574D02*
D03*
X101767Y189456D02*
D03*
X99665D02*
D03*
X192969Y101425D02*
D03*
X190867D02*
D03*
X206717Y116875D02*
D03*
X208819D02*
D03*
X190862Y98675D02*
D03*
X192964D02*
D03*
X202192Y116875D02*
D03*
X204294D02*
D03*
X107769Y188831D02*
D03*
X105667D02*
D03*
X107769Y82965D02*
D03*
X105667D02*
D03*
X101769Y7260D02*
D03*
X99667D02*
D03*
X105667D02*
D03*
X107769D02*
D03*
X228476Y185375D02*
D03*
X226374D02*
D03*
X228476Y188125D02*
D03*
X226374D02*
D03*
X99667Y112860D02*
D03*
X101769D02*
D03*
X107769Y112987D02*
D03*
X105667D02*
D03*
Y36897D02*
D03*
X107769D02*
D03*
X99667Y143843D02*
D03*
X101769D02*
D03*
X107769D02*
D03*
X105667D02*
D03*
D101*
X114343Y184850D02*
D03*
X112843D02*
D03*
X114216Y79500D02*
D03*
X112716D02*
D03*
X219800Y100100D02*
D03*
X218300D02*
D03*
X120715Y181718D02*
D03*
X119215D02*
D03*
X109518Y174360D02*
D03*
X111018D02*
D03*
X108677Y128479D02*
D03*
X110177D02*
D03*
X108655Y24275D02*
D03*
X110155D02*
D03*
X109072Y69275D02*
D03*
X110572D02*
D03*
X111168Y180993D02*
D03*
X109668D02*
D03*
X110572Y75772D02*
D03*
X109072D02*
D03*
X110528Y134869D02*
D03*
X109028D02*
D03*
X110155Y30831D02*
D03*
X108655D02*
D03*
X192741Y104000D02*
D03*
X191241D02*
D03*
X206793Y114151D02*
D03*
X208293D02*
D03*
X163050Y179434D02*
D03*
X164550D02*
D03*
X163050Y177021D02*
D03*
X164550D02*
D03*
X105368Y69775D02*
D03*
X103868D02*
D03*
X104100Y174985D02*
D03*
X105600D02*
D03*
X105271Y128979D02*
D03*
X103771D02*
D03*
X103660Y24375D02*
D03*
X105160D02*
D03*
D104*
X108899Y138775D02*
D03*
X110651D02*
D03*
X113344Y32900D02*
D03*
X115096D02*
D03*
X108999Y79500D02*
D03*
X110751D02*
D03*
X109575Y184850D02*
D03*
X111327D02*
D03*
X112717Y183093D02*
D03*
X114469D02*
D03*
X109542Y183093D02*
D03*
X111294D02*
D03*
X108997Y77822D02*
D03*
X110748D02*
D03*
X108902Y137020D02*
D03*
X110654D02*
D03*
X108529Y32900D02*
D03*
X110281D02*
D03*
X100292Y172804D02*
D03*
X102044D02*
D03*
X100167Y67350D02*
D03*
X101919D02*
D03*
X112589Y77784D02*
D03*
X114341D02*
D03*
X210324Y133399D02*
D03*
X212076D02*
D03*
Y130859D02*
D03*
X210324D02*
D03*
X100240Y126790D02*
D03*
X101992D02*
D03*
X100217Y21986D02*
D03*
X101969D02*
D03*
D105*
X111668Y31399D02*
D03*
Y33151D02*
D03*
X112347Y135344D02*
D03*
Y137095D02*
D03*
X104218Y179023D02*
D03*
Y177272D02*
D03*
X103897Y73676D02*
D03*
Y71924D02*
D03*
X103771Y132901D02*
D03*
Y131149D02*
D03*
X103718Y28526D02*
D03*
Y26774D02*
D03*
X206675Y191356D02*
D03*
Y189604D02*
D03*
D109*
X99843Y80275D02*
D03*
X103593D02*
D03*
X99843Y155569D02*
D03*
X103593D02*
D03*
Y51321D02*
D03*
X99843D02*
D03*
Y167130D02*
D03*
X103593D02*
D03*
Y60719D02*
D03*
X99843D02*
D03*
X103343Y186475D02*
D03*
X99593D02*
D03*
X99843Y3704D02*
D03*
X103593D02*
D03*
X99843Y196635D02*
D03*
X103593D02*
D03*
X99843Y89477D02*
D03*
X103593D02*
D03*
Y12975D02*
D03*
X99843D02*
D03*
Y109558D02*
D03*
X103593D02*
D03*
X99841Y118302D02*
D03*
X103591D02*
D03*
X103593Y35364D02*
D03*
X99843D02*
D03*
Y140668D02*
D03*
X103593D02*
D03*
X99843Y45524D02*
D03*
X103593D02*
D03*
X99843Y149939D02*
D03*
X103593D02*
D03*
D111*
X183342Y137774D02*
D03*
X185994Y140426D02*
D03*
D112*
X112204Y162715D02*
D03*
Y161445D02*
D03*
Y160175D02*
D03*
Y158905D02*
D03*
X117232D02*
D03*
Y160175D02*
D03*
Y161445D02*
D03*
Y162715D02*
D03*
Y58405D02*
D03*
Y57135D02*
D03*
Y55865D02*
D03*
Y54595D02*
D03*
X112204D02*
D03*
Y55865D02*
D03*
Y57135D02*
D03*
Y58405D02*
D03*
Y192641D02*
D03*
Y191371D02*
D03*
Y190101D02*
D03*
Y188831D02*
D03*
X117232D02*
D03*
Y190101D02*
D03*
Y191371D02*
D03*
Y192641D02*
D03*
X112204Y86881D02*
D03*
Y85611D02*
D03*
Y84341D02*
D03*
Y83071D02*
D03*
X117232D02*
D03*
Y84341D02*
D03*
Y85611D02*
D03*
Y86881D02*
D03*
Y11214D02*
D03*
Y9944D02*
D03*
Y8674D02*
D03*
Y7404D02*
D03*
X112204D02*
D03*
Y8674D02*
D03*
Y9944D02*
D03*
Y11214D02*
D03*
Y116634D02*
D03*
Y115364D02*
D03*
Y114094D02*
D03*
Y112824D02*
D03*
X117232D02*
D03*
Y114094D02*
D03*
Y115364D02*
D03*
Y116634D02*
D03*
X112204Y147490D02*
D03*
Y146220D02*
D03*
Y144950D02*
D03*
Y143680D02*
D03*
X117232D02*
D03*
Y144950D02*
D03*
Y146220D02*
D03*
Y147490D02*
D03*
X112204Y41136D02*
D03*
Y39866D02*
D03*
Y38596D02*
D03*
Y37326D02*
D03*
X117232D02*
D03*
Y38596D02*
D03*
Y39866D02*
D03*
Y41136D02*
D03*
D113*
X188948Y130309D02*
D03*
X189302Y129955D02*
D03*
X189656Y129602D02*
D03*
X190009Y129248D02*
D03*
X190363Y128895D02*
D03*
X190716Y128541D02*
D03*
X191070Y128188D02*
D03*
X191423Y127834D02*
D03*
X191777Y127480D02*
D03*
X192130Y127127D02*
D03*
X192484Y126773D02*
D03*
X192838Y126420D02*
D03*
X186827Y120409D02*
D03*
X186474Y120763D02*
D03*
X186120Y121117D02*
D03*
X185766Y121470D02*
D03*
X185413Y121824D02*
D03*
X185059Y122177D02*
D03*
X184706Y122531D02*
D03*
X184352Y122884D02*
D03*
X183999Y123238D02*
D03*
X183645Y123591D02*
D03*
X183292Y123945D02*
D03*
X182938Y124299D02*
D03*
D114*
X192838D02*
D03*
X192484Y123945D02*
D03*
X192130Y123591D02*
D03*
X191777Y123238D02*
D03*
X191423Y122884D02*
D03*
X191070Y122531D02*
D03*
X190716Y122177D02*
D03*
X190363Y121824D02*
D03*
X190009Y121470D02*
D03*
X189656Y121117D02*
D03*
X189302Y120763D02*
D03*
X188948Y120409D02*
D03*
X182938Y126420D02*
D03*
X183292Y126773D02*
D03*
X183645Y127127D02*
D03*
X183999Y127480D02*
D03*
X184352Y127834D02*
D03*
X184706Y128188D02*
D03*
X185059Y128541D02*
D03*
X185413Y128895D02*
D03*
X185766Y129248D02*
D03*
X186120Y129602D02*
D03*
X186474Y129955D02*
D03*
X186827Y130309D02*
D03*
D118*
X105243Y162436D02*
D03*
X107343D02*
D03*
X107768Y57290D02*
D03*
X105668D02*
D03*
X107768Y193206D02*
D03*
X105668D02*
D03*
Y86922D02*
D03*
X107768D02*
D03*
Y10435D02*
D03*
X105668D02*
D03*
Y115400D02*
D03*
X107768D02*
D03*
X105668Y42082D02*
D03*
X107768D02*
D03*
X105668Y146891D02*
D03*
X107768D02*
D03*
D119*
X99916Y164082D02*
D03*
X101520D02*
D03*
X99916Y57036D02*
D03*
X101520D02*
D03*
X99916Y193206D02*
D03*
X101520D02*
D03*
X99916Y86922D02*
D03*
X101520D02*
D03*
Y9800D02*
D03*
X99916D02*
D03*
Y115400D02*
D03*
X101520D02*
D03*
X99916Y41968D02*
D03*
X101520D02*
D03*
X99916Y146510D02*
D03*
X101520D02*
D03*
D120*
X101669Y83119D02*
D03*
X99767D02*
D03*
X101669Y38920D02*
D03*
X99767D02*
D03*
D121*
X197753Y135968D02*
D03*
X199239Y134482D02*
D03*
D122*
X180525Y135131D02*
D03*
X182011Y136617D02*
D03*
D125*
X124718Y166652D02*
D03*
X120718D02*
D03*
Y62215D02*
D03*
X124718D02*
D03*
Y196451D02*
D03*
X120718D02*
D03*
X124718Y90691D02*
D03*
X120718D02*
D03*
X124718Y14897D02*
D03*
X120718D02*
D03*
Y120698D02*
D03*
X124718D02*
D03*
Y151427D02*
D03*
X120718D02*
D03*
X124718Y44946D02*
D03*
X120718D02*
D03*
D126*
X193873Y172730D02*
D03*
Y174532D02*
D03*
X183945Y172496D02*
D03*
Y174298D02*
D03*
X211712Y172699D02*
D03*
Y174501D02*
D03*
D127*
X197435Y132449D02*
D03*
X196374Y133510D02*
D03*
D128*
X200229Y111031D02*
D03*
X199168Y109970D02*
D03*
D138*
X116400Y67975D02*
D03*
Y73175D02*
D03*
X116450Y126534D02*
D03*
Y131734D02*
D03*
X115450Y21950D02*
D03*
Y27150D02*
D03*
X116200Y177910D02*
D03*
Y172710D02*
D03*
D139*
X235275Y160100D02*
D03*
X230975D02*
D03*
X235350Y163925D02*
D03*
X231050D02*
D03*
X107143Y62600D02*
D03*
X111443D02*
D03*
X107450Y167675D02*
D03*
X111750D02*
D03*
X111325Y91300D02*
D03*
X107025D02*
D03*
X105899Y16432D02*
D03*
X110199D02*
D03*
X105800Y121385D02*
D03*
X110100D02*
D03*
D140*
X97025Y53373D02*
D03*
Y57673D02*
D03*
X96318Y158782D02*
D03*
Y163082D02*
D03*
X96700Y80550D02*
D03*
Y76250D02*
D03*
X96300Y184900D02*
D03*
Y180600D02*
D03*
X96188Y193405D02*
D03*
Y189105D02*
D03*
X95743Y3856D02*
D03*
Y8156D02*
D03*
X95450Y112325D02*
D03*
Y116625D02*
D03*
X97100Y140125D02*
D03*
Y135825D02*
D03*
X169250Y4000D02*
D03*
Y8300D02*
D03*
X96850Y150000D02*
D03*
Y145700D02*
D03*
X96775Y35175D02*
D03*
Y30875D02*
D03*
X97025Y44925D02*
D03*
Y40625D02*
D03*
D141*
X237105Y147063D02*
D03*
X235835D02*
D03*
X234565D02*
D03*
X233295D02*
D03*
Y152487D02*
D03*
X234565D02*
D03*
X235835D02*
D03*
X237105D02*
D03*
D142*
X128718Y120698D02*
D03*
X131568D02*
D03*
X117522Y121248D02*
D03*
X114672D02*
D03*
X114697Y167675D02*
D03*
X117547D02*
D03*
X124470Y163350D02*
D03*
X121620D02*
D03*
X114775Y62600D02*
D03*
X117625D02*
D03*
X124443Y59075D02*
D03*
X121593D02*
D03*
X125193Y193175D02*
D03*
X122343D02*
D03*
X117522Y90691D02*
D03*
X114672D02*
D03*
X125293Y87404D02*
D03*
X122443D02*
D03*
X117525Y16575D02*
D03*
X114675D02*
D03*
X124061Y117065D02*
D03*
X121211D02*
D03*
X128418Y11723D02*
D03*
X125568D02*
D03*
X117150Y48400D02*
D03*
X114300D02*
D03*
X122359Y148285D02*
D03*
X125209D02*
D03*
X122268Y41779D02*
D03*
X125118D02*
D03*
D143*
X131950Y44450D02*
D03*
Y47300D02*
D03*
X47057Y61130D02*
D03*
Y58280D02*
D03*
X47100Y165975D02*
D03*
Y163125D02*
D03*
X61800Y54800D02*
D03*
Y57650D02*
D03*
X61725Y159800D02*
D03*
Y162650D02*
D03*
X47025Y190800D02*
D03*
Y193650D02*
D03*
X47050Y88500D02*
D03*
Y85650D02*
D03*
X61575Y189865D02*
D03*
Y187015D02*
D03*
X61600Y82050D02*
D03*
Y84900D02*
D03*
X47073Y118080D02*
D03*
Y120930D02*
D03*
X61800Y114725D02*
D03*
Y117575D02*
D03*
X46975Y16075D02*
D03*
Y13225D02*
D03*
X62300Y9764D02*
D03*
Y12614D02*
D03*
X47025Y43550D02*
D03*
Y40700D02*
D03*
X62025Y37275D02*
D03*
Y40125D02*
D03*
X47075Y148630D02*
D03*
Y145780D02*
D03*
X115043Y195386D02*
D03*
Y198236D02*
D03*
X115023Y153139D02*
D03*
Y150289D02*
D03*
X61213Y144725D02*
D03*
Y141875D02*
D03*
D144*
X204400Y37450D02*
D03*
Y44000D02*
D03*
X206850Y37450D02*
D03*
Y44000D02*
D03*
D145*
X108227Y130873D02*
D03*
Y131823D02*
D03*
Y132773D02*
D03*
X110627D02*
D03*
Y130873D02*
D03*
X107855Y26700D02*
D03*
Y27650D02*
D03*
Y28600D02*
D03*
X110255D02*
D03*
Y26700D02*
D03*
X111118Y176923D02*
D03*
Y178823D02*
D03*
X108718D02*
D03*
Y177873D02*
D03*
Y176923D02*
D03*
X110672Y71850D02*
D03*
Y73750D02*
D03*
X108272D02*
D03*
Y72800D02*
D03*
Y71850D02*
D03*
D146*
X240070Y127550D02*
D03*
X238800D02*
D03*
X237530D02*
D03*
X236260D02*
D03*
X234990D02*
D03*
X233720D02*
D03*
X232450D02*
D03*
X231180D02*
D03*
X240070Y136800D02*
D03*
X238800D02*
D03*
X237530D02*
D03*
X236260D02*
D03*
X234990D02*
D03*
X233720D02*
D03*
X232450D02*
D03*
X231180D02*
D03*
D147*
X221350Y87525D02*
D03*
Y85225D02*
D03*
Y82925D02*
D03*
D148*
X215200Y85225D02*
D03*
D149*
X163031Y169341D02*
D03*
X158981D02*
D03*
X163031Y174541D02*
D03*
X158981D02*
D03*
D150*
X161641Y169341D02*
D03*
X160371D02*
D03*
X161641Y174541D02*
D03*
X160371D02*
D03*
D151*
X200174Y106022D02*
D03*
X204558Y110406D02*
D03*
%TF.MD5,60f52b0221fb67dd1b035c2efe5afc2a*%
M02*
