%TF.GenerationSoftware,Altium Limited,Altium Designer,21.6.4 (81)*%
G04 Layer_Color=16711935*
%FSLAX43Y43*%
%MOMM*%
%TF.SameCoordinates,B094594F-E5AE-4C03-B854-EF891E02AD71*%
%TF.FilePolarity,Positive*%
%TF.FileFunction,Other,Top_Courtyard*%
%TF.Part,Single*%
G01*
G75*
%TA.AperFunction,NonConductor*%
%ADD156C,0.200*%
%ADD227C,0.050*%
D156*
X221350Y126000D02*
X227800D01*
Y138050D01*
X221350D02*
X227800D01*
X221350Y126000D02*
Y138050D01*
X210950Y90550D02*
X212600D01*
X210950Y87500D02*
Y90550D01*
Y87500D02*
X212600D01*
Y90550D01*
X162900Y3337D02*
Y14913D01*
X165700D01*
Y3337D02*
Y14913D01*
X162900Y3337D02*
X165700D01*
X208950Y91000D02*
X210650D01*
Y93800D01*
X208950D02*
X210650D01*
X208950Y91000D02*
Y93800D01*
X100901Y106350D02*
X106601D01*
X100901Y94150D02*
Y106350D01*
Y94150D02*
X106601D01*
Y106350D01*
X151625Y13900D02*
X160625D01*
X151625Y2300D02*
Y13900D01*
Y2300D02*
X160625D01*
Y13900D01*
D227*
X235375Y153975D02*
X244775D01*
Y170575D01*
X235375D02*
X244775D01*
X235375Y153975D02*
Y170575D01*
X240075Y161775D02*
Y162775D01*
X239575Y162275D02*
X240575D01*
X126804Y198553D02*
X136704D01*
X126804Y188153D02*
Y198553D01*
Y188153D02*
X136704D01*
Y198553D01*
X131754Y192853D02*
Y193853D01*
X131254Y193353D02*
X132254D01*
X140750Y31625D02*
Y32625D01*
X140250Y32125D02*
X141250D01*
X135550Y27175D02*
X145950D01*
X135550D02*
Y37075D01*
X145950D01*
Y27175D02*
Y37075D01*
X139225Y166775D02*
Y167775D01*
X138725Y167275D02*
X139725D01*
X134025Y162325D02*
X144425D01*
X134025D02*
Y172225D01*
X144425D01*
Y162325D02*
Y172225D01*
X231625Y86025D02*
X241525D01*
Y96425D01*
X231625D02*
X241525D01*
X231625Y86025D02*
Y96425D01*
X236575Y90725D02*
Y91725D01*
X236075Y91225D02*
X237075D01*
X219064Y116086D02*
X220064D01*
X219564Y115586D02*
Y116586D01*
X214614Y110886D02*
Y121286D01*
X224514D01*
Y110886D02*
Y121286D01*
X214614Y110886D02*
X224514D01*
X197993Y99850D02*
X207893D01*
X197993Y89450D02*
Y99850D01*
Y89450D02*
X207893D01*
Y99850D01*
X202943Y94150D02*
Y95150D01*
X202443Y94650D02*
X203443D01*
X171839Y22050D02*
Y23050D01*
X171339Y22550D02*
X172339D01*
X166639Y27500D02*
X177039D01*
Y17600D02*
Y27500D01*
X166639Y17600D02*
X177039D01*
X166639D02*
Y27500D01*
X129200Y2300D02*
Y11700D01*
Y2300D02*
X140800D01*
Y11700D01*
X129200D02*
X140800D01*
X214834Y130359D02*
Y131359D01*
X214334Y130859D02*
X215334D01*
X216379Y124159D02*
Y137559D01*
X213289Y124159D02*
X216379D01*
X213289D02*
Y137559D01*
X216379D01*
X215915Y192672D02*
Y195762D01*
X202515D02*
X215915D01*
X202515Y192672D02*
Y195762D01*
Y192672D02*
X215915D01*
X209215Y193717D02*
Y194717D01*
X208715Y194217D02*
X209715D01*
X204575Y137580D02*
X207665D01*
X204575Y124180D02*
Y137580D01*
Y124180D02*
X207665D01*
Y137580D01*
X205620Y130880D02*
X206620D01*
X206120Y130380D02*
Y131380D01*
X186575Y11400D02*
X198175D01*
Y2000D02*
Y11400D01*
X186575Y2000D02*
X198175D01*
X186575D02*
Y11400D01*
X191875Y6700D02*
X192875D01*
X192375Y6200D02*
Y7200D01*
X232200Y40775D02*
Y52375D01*
X241600D01*
Y40775D02*
Y52375D01*
X232200Y40775D02*
X241600D01*
X236900Y46075D02*
Y47075D01*
X236400Y46575D02*
X237400D01*
X145000Y6500D02*
Y7500D01*
X144500Y7000D02*
X145500D01*
X139200Y2300D02*
Y11700D01*
Y2300D02*
X150800D01*
Y11700D01*
X139200D02*
X150800D01*
%TF.MD5,0e4b146fbf4a1d20de53e394c0eafaf6*%
M02*
