%TF.GenerationSoftware,Altium Limited,Altium Designer,21.6.4 (81)*%
G04 Layer_Color=32896*
%FSLAX43Y43*%
%MOMM*%
%TF.SameCoordinates,B094594F-E5AE-4C03-B854-EF891E02AD71*%
%TF.FilePolarity,Positive*%
%TF.FileFunction,Other,Bottom_3D_Body*%
%TF.Part,Single*%
G01*
G75*
%TA.AperFunction,NonConductor*%
%ADD156C,0.200*%
D156*
X94150Y31924D02*
Y33924D01*
X92900D02*
X94150D01*
X92900Y31924D02*
Y33924D01*
Y31924D02*
X94150D01*
X93125Y54198D02*
Y56198D01*
Y54198D02*
X94375D01*
Y56198D01*
X93125D02*
X94375D01*
X92518Y161833D02*
X93768D01*
Y159833D02*
Y161833D01*
X92518Y159833D02*
X93768D01*
X92518D02*
Y161833D01*
X108322Y65925D02*
X110322D01*
X108322Y64675D02*
Y65925D01*
Y64675D02*
X110322D01*
Y65925D01*
X110768Y169850D02*
Y171100D01*
X108768Y169850D02*
X110768D01*
X108768D02*
Y171100D01*
X110768D01*
X93125Y77400D02*
X94375D01*
X93125D02*
Y79400D01*
X94375D01*
Y77400D02*
Y79400D01*
X92600Y181750D02*
X93850D01*
X92600D02*
Y183750D01*
X93850D01*
Y181750D02*
Y183750D01*
X92464Y190328D02*
X93714D01*
X92464D02*
Y192328D01*
X93714D01*
Y190328D02*
Y192328D01*
X110175Y93425D02*
Y94675D01*
X108175Y93425D02*
X110175D01*
X108175D02*
Y94675D01*
X110175D01*
X91600Y115475D02*
X92850D01*
Y113475D02*
Y115475D01*
X91600Y113475D02*
X92850D01*
X91600D02*
Y115475D01*
X108950Y123574D02*
Y124824D01*
X106950Y123574D02*
X108950D01*
X106950D02*
Y124824D01*
X108950D01*
X93193Y136625D02*
X94443D01*
X93193D02*
Y138625D01*
X94443D01*
Y136625D02*
Y138625D01*
X93065Y146850D02*
X94315D01*
X93065D02*
Y148850D01*
X94315D01*
Y146850D02*
Y148850D01*
X91884Y7356D02*
X93134D01*
Y5356D02*
Y7356D01*
X91884Y5356D02*
X93134D01*
X91884D02*
Y7356D01*
X110099Y18900D02*
Y20150D01*
X108099Y18900D02*
X110099D01*
X108099D02*
Y20150D01*
X110099D01*
X93075Y41775D02*
X94325D01*
X93075D02*
Y43775D01*
X94325D01*
Y41775D02*
Y43775D01*
X113993Y139375D02*
X115443D01*
Y137175D02*
Y139375D01*
X113993Y137175D02*
X115443D01*
X113993D02*
Y139375D01*
X112493Y184125D02*
Y185575D01*
X114693D01*
Y184125D02*
Y185575D01*
X112493Y184125D02*
X114693D01*
X116275Y33200D02*
X117725D01*
Y31000D02*
Y33200D01*
X116275Y31000D02*
X117725D01*
X116275D02*
Y33200D01*
X112366Y78775D02*
Y80225D01*
X114566D01*
Y78775D02*
Y80225D01*
X112366Y78775D02*
X114566D01*
X217950Y99375D02*
Y100825D01*
X220150D01*
Y99375D02*
Y100825D01*
X217950Y99375D02*
X220150D01*
X118865Y180993D02*
Y182443D01*
X121065D01*
Y180993D02*
Y182443D01*
X118865Y180993D02*
X121065D01*
X230780Y121425D02*
Y123625D01*
Y121425D02*
X232230D01*
Y123625D01*
X230780D02*
X232230D01*
X111368Y173635D02*
Y175085D01*
X109168Y173635D02*
X111368D01*
X109168D02*
Y175085D01*
X111368D01*
X110527Y127754D02*
Y129204D01*
X108327Y127754D02*
X110527D01*
X108327D02*
Y129204D01*
X110527D01*
X110505Y23550D02*
Y25000D01*
X108305Y23550D02*
X110505D01*
X108305D02*
Y25000D01*
X110505D01*
X110922Y68550D02*
Y70000D01*
X108722Y68550D02*
X110922D01*
X108722D02*
Y70000D01*
X110922D01*
X123768Y53849D02*
X125018D01*
X123768D02*
Y55849D01*
X125018D01*
Y53849D02*
Y55849D01*
X120399Y142959D02*
X121649D01*
X120399D02*
Y144959D01*
X121649D01*
Y142959D02*
Y144959D01*
X103568Y79475D02*
Y81075D01*
X99868Y79475D02*
X103568D01*
X99868D02*
Y81075D01*
X103568D01*
X109318Y181718D02*
X111518D01*
X109318Y180268D02*
Y181718D01*
Y180268D02*
X111518D01*
Y181718D01*
X105693Y177048D02*
Y179248D01*
Y177048D02*
X107143D01*
Y179248D01*
X105693D02*
X107143D01*
X108722Y76497D02*
X110922D01*
X108722Y75047D02*
Y76497D01*
Y75047D02*
X110922D01*
Y76497D01*
X105347Y73900D02*
X106797D01*
Y71700D02*
Y73900D01*
X105347Y71700D02*
X106797D01*
X105347D02*
Y73900D01*
X108678Y135594D02*
X110878D01*
X108678Y134144D02*
Y135594D01*
Y134144D02*
X110878D01*
Y135594D01*
X105127Y130925D02*
Y133125D01*
Y130925D02*
X106577D01*
Y133125D01*
X105127D02*
X106577D01*
X108305Y31556D02*
X110505D01*
X108305Y30106D02*
Y31556D01*
Y30106D02*
X110505D01*
Y31556D01*
X105067Y26550D02*
Y28750D01*
Y26550D02*
X106517D01*
Y28750D01*
X105067D02*
X106517D01*
X190891Y103275D02*
Y104725D01*
X193091D01*
Y103275D02*
Y104725D01*
X190891Y103275D02*
X193091D01*
X208643Y113426D02*
Y114876D01*
X206443Y113426D02*
X208643D01*
X206443D02*
Y114876D01*
X208643D01*
X211250Y78186D02*
X212700D01*
X211250D02*
Y80386D01*
X212700D01*
Y78186D02*
Y80386D01*
X238625Y151387D02*
Y153587D01*
Y151387D02*
X240075D01*
Y153587D01*
X238625D02*
X240075D01*
X162700Y178709D02*
X164900D01*
Y180159D01*
X162700D02*
X164900D01*
X162700Y178709D02*
Y180159D01*
Y176296D02*
X164900D01*
Y177746D01*
X162700D02*
X164900D01*
X162700Y176296D02*
Y177746D01*
X103518Y69050D02*
Y70500D01*
X105718D01*
Y69050D02*
Y70500D01*
X103518Y69050D02*
X105718D01*
X103750Y174260D02*
X105950D01*
Y175710D01*
X103750D02*
X105950D01*
X103750Y174260D02*
Y175710D01*
X103421Y128254D02*
Y129704D01*
X105621D01*
Y128254D02*
Y129704D01*
X103421Y128254D02*
X105621D01*
X103310Y23650D02*
X105510D01*
Y25100D01*
X103310D02*
X105510D01*
X103310Y23650D02*
Y25100D01*
X185410Y140974D02*
X186542Y139842D01*
X183926Y137226D02*
X186542Y139842D01*
X182794Y138358D02*
X183926Y137226D01*
X182794Y138358D02*
X185410Y140974D01*
X193239Y170300D02*
X194489D01*
Y168300D02*
Y170300D01*
X193239Y168300D02*
X194489D01*
X193239D02*
Y170300D01*
X183320Y168284D02*
Y170284D01*
Y168284D02*
X184570D01*
Y170284D01*
X183320D02*
X184570D01*
X211116Y168350D02*
Y170350D01*
Y168350D02*
X212366D01*
Y170350D01*
X211116D02*
X212366D01*
X166350Y189737D02*
Y191737D01*
Y189737D02*
X167600D01*
Y191737D01*
X166350D02*
X167600D01*
X174960Y184524D02*
Y185774D01*
X172960Y184524D02*
X174960D01*
X172960D02*
Y185774D01*
X174960D01*
X122221Y158159D02*
Y160159D01*
X120971D02*
X122221D01*
X120971Y158159D02*
Y160159D01*
Y158159D02*
X122221D01*
X125221Y158159D02*
Y160159D01*
X123971D02*
X125221D01*
X123971Y158159D02*
Y160159D01*
Y158159D02*
X125221D01*
X121918Y53849D02*
Y55849D01*
X120668D02*
X121918D01*
X120668Y53849D02*
Y55849D01*
Y53849D02*
X121918D01*
X107343Y161761D02*
Y163111D01*
X105243Y161761D02*
X107343D01*
X105243D02*
Y163111D01*
X107343D01*
X105668Y57965D02*
X107768D01*
X105668Y56615D02*
Y57965D01*
Y56615D02*
X107768D01*
Y57965D01*
X101718Y163457D02*
Y164707D01*
X99718Y163457D02*
X101718D01*
X99718D02*
Y164707D01*
X101718D01*
Y56411D02*
Y57661D01*
X99718Y56411D02*
X101718D01*
X99718D02*
Y57661D01*
X101718D01*
X99718Y82494D02*
Y83744D01*
X101718D01*
Y82494D02*
Y83744D01*
X99718Y82494D02*
X101718D01*
X121143Y187950D02*
X122393D01*
X121143D02*
Y189950D01*
X122393D01*
Y187950D02*
Y189950D01*
X125393Y187950D02*
Y189950D01*
X124143D02*
X125393D01*
X124143Y187950D02*
Y189950D01*
Y187950D02*
X125393D01*
X121225Y82250D02*
X122475D01*
X121225D02*
Y84250D01*
X122475D01*
Y82250D02*
Y84250D01*
X125475Y82250D02*
Y84250D01*
X124225D02*
X125475D01*
X124225Y82250D02*
Y84250D01*
Y82250D02*
X125475D01*
X105668Y193881D02*
X107768D01*
X105668Y192531D02*
Y193881D01*
Y192531D02*
X107768D01*
Y193881D01*
Y86247D02*
Y87597D01*
X105668Y86247D02*
X107768D01*
X105668D02*
Y87597D01*
X107768D01*
X101718Y192581D02*
Y193831D01*
X99718Y192581D02*
X101718D01*
X99718D02*
Y193831D01*
X101718D01*
X101718Y86297D02*
Y87547D01*
X99718Y86297D02*
X101718D01*
X99718D02*
Y87547D01*
X101718D01*
X122011Y6404D02*
Y8404D01*
X120761D02*
X122011D01*
X120761Y6404D02*
Y8404D01*
Y6404D02*
X122011D01*
X125118Y112078D02*
Y114078D01*
X123868D02*
X125118D01*
X123868Y112078D02*
Y114078D01*
Y112078D02*
X125118D01*
X105668Y11110D02*
X107768D01*
X105668Y9760D02*
Y11110D01*
Y9760D02*
X107768D01*
Y11110D01*
X99718Y10425D02*
X101718D01*
X99718Y9175D02*
Y10425D01*
Y9175D02*
X101718D01*
Y10425D01*
X99718Y38295D02*
Y39545D01*
X101718D01*
Y38295D02*
Y39545D01*
X99718Y38295D02*
X101718D01*
X120943Y112078D02*
X122193D01*
X120943D02*
Y114078D01*
X122193D01*
Y112078D02*
Y114078D01*
X125073Y6404D02*
Y8404D01*
X123823D02*
X125073D01*
X123823Y6404D02*
Y8404D01*
Y6404D02*
X125073D01*
X107768Y114725D02*
Y116075D01*
X105668Y114725D02*
X107768D01*
X105668D02*
Y116075D01*
X107768D01*
X101718Y114775D02*
Y116025D01*
X99718Y114775D02*
X101718D01*
X99718D02*
Y116025D01*
X101718D01*
X121024Y36423D02*
X122274D01*
X121024D02*
Y38423D01*
X122274D01*
Y36423D02*
Y38423D01*
X124482Y142959D02*
Y144959D01*
X123232D02*
X124482D01*
X123232Y142959D02*
Y144959D01*
Y142959D02*
X124482D01*
X107768Y41407D02*
Y42757D01*
X105668Y41407D02*
X107768D01*
X105668D02*
Y42757D01*
X107768D01*
X125318Y36423D02*
Y38423D01*
X124068D02*
X125318D01*
X124068Y36423D02*
Y38423D01*
Y36423D02*
X125318D01*
X101718Y41343D02*
Y42593D01*
X99718Y41343D02*
X101718D01*
X99718D02*
Y42593D01*
X101718D01*
X107768Y146216D02*
Y147566D01*
X105668Y146216D02*
X107768D01*
X105668D02*
Y147566D01*
X107768D01*
X101718Y145885D02*
Y147135D01*
X99718Y145885D02*
X101718D01*
X99718D02*
Y147135D01*
X101718D01*
X103568Y154769D02*
Y156369D01*
X99868Y154769D02*
X103568D01*
X99868D02*
Y156369D01*
X103568D01*
X99868Y52121D02*
X103568D01*
X99868Y50521D02*
Y52121D01*
Y50521D02*
X103568D01*
Y52121D01*
Y166330D02*
Y167930D01*
X99868Y166330D02*
X103568D01*
X99868D02*
Y167930D01*
X103568D01*
X99868Y61519D02*
X103568D01*
X99868Y59919D02*
Y61519D01*
Y59919D02*
X103568D01*
Y61519D01*
X120418Y165192D02*
Y168112D01*
X125018D01*
Y165192D02*
Y168112D01*
X120418Y165192D02*
X125018D01*
X120418Y60755D02*
X125018D01*
Y63675D01*
X120418D02*
X125018D01*
X120418Y60755D02*
Y63675D01*
X99618Y187275D02*
X103318D01*
X99618Y185675D02*
Y187275D01*
Y185675D02*
X103318D01*
Y187275D01*
X103568Y2904D02*
Y4504D01*
X99868Y2904D02*
X103568D01*
X99868D02*
Y4504D01*
X103568D01*
Y195835D02*
Y197435D01*
X99868Y195835D02*
X103568D01*
X99868D02*
Y197435D01*
X103568D01*
Y88677D02*
Y90277D01*
X99868Y88677D02*
X103568D01*
X99868D02*
Y90277D01*
X103568D01*
X99868Y13775D02*
X103568D01*
X99868Y12175D02*
Y13775D01*
Y12175D02*
X103568D01*
Y13775D01*
X120418Y194991D02*
Y197911D01*
X125018D01*
Y194991D02*
Y197911D01*
X120418Y194991D02*
X125018D01*
X120418Y89231D02*
Y92151D01*
X125018D01*
Y89231D02*
Y92151D01*
X120418Y89231D02*
X125018D01*
X120418Y13437D02*
Y16357D01*
X125018D01*
Y13437D02*
Y16357D01*
X120418Y13437D02*
X125018D01*
X103568Y108758D02*
Y110358D01*
X99868Y108758D02*
X103568D01*
X99868D02*
Y110358D01*
X103568D01*
X103566Y117502D02*
Y119102D01*
X99866Y117502D02*
X103566D01*
X99866D02*
Y119102D01*
X103566D01*
X99868Y36164D02*
X103568D01*
X99868Y34564D02*
Y36164D01*
Y34564D02*
X103568D01*
Y36164D01*
X120418Y119238D02*
X125018D01*
Y122158D01*
X120418D02*
X125018D01*
X120418Y119238D02*
Y122158D01*
X103568Y139868D02*
Y141468D01*
X99868Y139868D02*
X103568D01*
X99868D02*
Y141468D01*
X103568D01*
Y44724D02*
Y46324D01*
X99868Y44724D02*
X103568D01*
X99868D02*
Y46324D01*
X103568D01*
Y149139D02*
Y150739D01*
X99868Y149139D02*
X103568D01*
X99868D02*
Y150739D01*
X103568D01*
X120418Y149967D02*
Y152887D01*
X125018D01*
Y149967D02*
Y152887D01*
X120418Y149967D02*
X125018D01*
X120418Y43486D02*
Y46406D01*
X125018D01*
Y43486D02*
Y46406D01*
X120418Y43486D02*
X125018D01*
X193248Y174631D02*
X194498D01*
Y172631D02*
Y174631D01*
X193248Y172631D02*
X194498D01*
X193248D02*
Y174631D01*
X183320Y174397D02*
X184570D01*
Y172397D02*
Y174397D01*
X183320Y172397D02*
X184570D01*
X183320D02*
Y174397D01*
X211087Y174600D02*
X212337D01*
Y172600D02*
Y174600D01*
X211087Y172600D02*
X212337D01*
X211087D02*
Y174600D01*
X196640Y134270D02*
X198195Y132714D01*
X195614Y133244D02*
X196640Y134270D01*
X195614Y133244D02*
X197170Y131689D01*
X198195Y132714D01*
X198408Y110235D02*
X199434Y109210D01*
X198408Y110235D02*
X199964Y111791D01*
X200989Y110765D01*
X199434Y109210D02*
X200989Y110765D01*
%TF.MD5,671f29a4b42487115081827274ef817c*%
M02*
