%TF.GenerationSoftware,Altium Limited,Altium Designer,21.6.4 (81)*%
G04 Layer_Color=0*
%FSLAX43Y43*%
%MOMM*%
%TF.SameCoordinates,BB623FD5-15CF-465E-8253-C79D4636FD98*%
%TF.FilePolarity,Positive*%
%TF.FileFunction,Profile,NP*%
%TF.Part,Single*%
G01*
G75*
%TA.AperFunction,Profile*%
%ADD38C,0.025*%
G36*
X103500Y69000D02*
Y68921D01*
X103531Y68767D01*
X103591Y68621D01*
X103679Y68490D01*
X103790Y68379D01*
X103921Y68291D01*
X104067Y68231D01*
X104221Y68200D01*
X104300D01*
X104379D01*
X104533Y68231D01*
X104679Y68291D01*
X104810Y68379D01*
X104921Y68490D01*
X105009Y68621D01*
X105069Y68767D01*
X105100Y68921D01*
Y69000D01*
Y69079D01*
X105069Y69233D01*
X105009Y69379D01*
X104921Y69510D01*
X104810Y69621D01*
X104679Y69709D01*
X104533Y69769D01*
X104379Y69800D01*
X104300D01*
X104221D01*
X104067Y69769D01*
X103921Y69709D01*
X103790Y69621D01*
X103679Y69510D01*
X103591Y69379D01*
X103531Y69233D01*
X103500Y69079D01*
Y69000D01*
D01*
D02*
G37*
G36*
X109900D02*
Y68921D01*
X109931Y68767D01*
X109991Y68621D01*
X110079Y68490D01*
X110190Y68379D01*
X110321Y68291D01*
X110467Y68231D01*
X110621Y68200D01*
X110700D01*
X110779D01*
X110933Y68231D01*
X111079Y68291D01*
X111210Y68379D01*
X111321Y68490D01*
X111409Y68621D01*
X111469Y68767D01*
X111500Y68921D01*
Y69000D01*
Y69079D01*
X111469Y69233D01*
X111409Y69379D01*
X111321Y69510D01*
X111210Y69621D01*
X111079Y69709D01*
X110933Y69769D01*
X110779Y69800D01*
X110700D01*
X110621D01*
X110467Y69769D01*
X110321Y69709D01*
X110190Y69621D01*
X110079Y69510D01*
X109991Y69379D01*
X109931Y69233D01*
X109900Y69079D01*
Y69000D01*
D01*
D02*
G37*
G36*
X106955Y54864D02*
Y54791D01*
X106984Y54648D01*
X107040Y54513D01*
X107121Y54392D01*
X107224Y54289D01*
X107345Y54208D01*
X107480Y54152D01*
X107623Y54123D01*
X107696D01*
X107769D01*
X107912Y54152D01*
X108047Y54208D01*
X108168Y54289D01*
X108271Y54392D01*
X108352Y54513D01*
X108408Y54648D01*
X108437Y54791D01*
Y54864D01*
Y54937D01*
X108408Y55080D01*
X108352Y55215D01*
X108271Y55336D01*
X108168Y55439D01*
X108047Y55520D01*
X107912Y55576D01*
X107769Y55605D01*
X107696D01*
X107623D01*
X107480Y55576D01*
X107345Y55520D01*
X107224Y55439D01*
X107121Y55336D01*
X107040Y55215D01*
X106984Y55080D01*
X106955Y54937D01*
Y54864D01*
D01*
D02*
G37*
D38*
X102997Y52832D02*
Y70832D01*
X111997D01*
Y52832D01*
X102997D01*
%TF.MD5,af87b6e0d7b4d42fc1f29166eba33028*%
M02*
