%TF.GenerationSoftware,Altium Limited,Altium Designer,21.6.4 (81)*%
G04 Layer_Color=8388736*
%FSLAX43Y43*%
%MOMM*%
%TF.SameCoordinates,BB623FD5-15CF-465E-8253-C79D4636FD98*%
%TF.FilePolarity,Positive*%
%TF.FileFunction,Other,Mechanical_10*%
%TF.Part,Single*%
G01*
G75*
%TA.AperFunction,NonConductor*%
%ADD29C,0.200*%
G36*
X111186Y65473D02*
X110686D01*
X110687Y65472D01*
X110691Y65468D01*
X110696Y65462D01*
X110703Y65453D01*
X110711Y65443D01*
X110720Y65430D01*
X110730Y65415D01*
X110741Y65398D01*
Y65397D01*
X110742Y65397D01*
X110745Y65391D01*
X110750Y65382D01*
X110755Y65371D01*
X110762Y65358D01*
X110768Y65344D01*
X110775Y65330D01*
X110780Y65316D01*
X110705D01*
Y65317D01*
X110703Y65319D01*
X110702Y65323D01*
X110699Y65327D01*
X110696Y65333D01*
X110693Y65339D01*
X110683Y65355D01*
X110673Y65373D01*
X110660Y65392D01*
X110645Y65411D01*
X110630Y65431D01*
X110629Y65432D01*
X110628Y65433D01*
X110625Y65435D01*
X110622Y65439D01*
X110613Y65447D01*
X110602Y65458D01*
X110589Y65470D01*
X110574Y65482D01*
X110559Y65492D01*
X110544Y65501D01*
Y65552D01*
X111186D01*
Y65473D01*
D02*
G37*
G36*
X110882Y65171D02*
X110889D01*
X110907Y65170D01*
X110927Y65167D01*
X110949Y65164D01*
X110971Y65160D01*
X110993Y65154D01*
X110994D01*
X110996Y65153D01*
X110999Y65152D01*
X111002Y65152D01*
X111012Y65148D01*
X111025Y65142D01*
X111040Y65137D01*
X111055Y65129D01*
X111071Y65120D01*
X111085Y65111D01*
X111087Y65110D01*
X111092Y65106D01*
X111098Y65101D01*
X111107Y65093D01*
X111116Y65085D01*
X111125Y65075D01*
X111135Y65065D01*
X111144Y65053D01*
X111145Y65051D01*
X111147Y65047D01*
X111151Y65041D01*
X111156Y65031D01*
X111161Y65020D01*
X111166Y65007D01*
X111171Y64992D01*
X111176Y64976D01*
Y64974D01*
X111177Y64971D01*
X111178Y64968D01*
X111179Y64959D01*
X111181Y64946D01*
X111183Y64931D01*
X111184Y64914D01*
X111185Y64894D01*
X111186Y64873D01*
Y64643D01*
X110546D01*
Y64889D01*
X110547Y64906D01*
X110548Y64924D01*
X110550Y64943D01*
X110553Y64961D01*
X110556Y64977D01*
Y64978D01*
X110557Y64980D01*
Y64982D01*
X110558Y64986D01*
X110561Y64996D01*
X110566Y65009D01*
X110572Y65024D01*
X110581Y65040D01*
X110590Y65055D01*
X110602Y65070D01*
X110603Y65071D01*
X110604Y65072D01*
X110607Y65075D01*
X110609Y65078D01*
X110619Y65088D01*
X110632Y65099D01*
X110647Y65111D01*
X110666Y65124D01*
X110687Y65136D01*
X110711Y65146D01*
X110712D01*
X110714Y65147D01*
X110717Y65149D01*
X110723Y65150D01*
X110730Y65152D01*
X110737Y65154D01*
X110745Y65156D01*
X110755Y65159D01*
X110766Y65162D01*
X110778Y65164D01*
X110803Y65168D01*
X110832Y65171D01*
X110864Y65172D01*
X110865D01*
X110866D01*
X110871D01*
X110876D01*
X110882Y65171D01*
D02*
G37*
%LPC*%
G36*
X110862Y65085D02*
X110861D01*
X110857D01*
X110852D01*
X110845Y65084D01*
X110837D01*
X110828Y65083D01*
X110816Y65082D01*
X110805Y65081D01*
X110780Y65077D01*
X110754Y65071D01*
X110730Y65063D01*
X110718Y65057D01*
X110708Y65052D01*
X110707D01*
X110705Y65050D01*
X110703Y65048D01*
X110699Y65046D01*
X110690Y65039D01*
X110679Y65029D01*
X110667Y65017D01*
X110655Y65004D01*
X110644Y64988D01*
X110636Y64971D01*
X110635Y64969D01*
X110634Y64965D01*
X110632Y64956D01*
X110629Y64944D01*
X110627Y64930D01*
X110624Y64911D01*
X110623Y64900D01*
Y64888D01*
X110622Y64876D01*
Y64728D01*
X111110D01*
Y64880D01*
X111110Y64886D01*
X111109Y64900D01*
X111108Y64916D01*
X111106Y64932D01*
X111103Y64949D01*
X111099Y64963D01*
X111098Y64965D01*
X111097Y64969D01*
X111095Y64976D01*
X111091Y64984D01*
X111085Y64993D01*
X111080Y65003D01*
X111073Y65012D01*
X111066Y65021D01*
X111064Y65022D01*
X111061Y65026D01*
X111054Y65031D01*
X111045Y65038D01*
X111033Y65045D01*
X111019Y65053D01*
X111003Y65061D01*
X110986Y65067D01*
X110985D01*
X110983Y65068D01*
X110980Y65069D01*
X110976Y65070D01*
X110972Y65071D01*
X110965Y65073D01*
X110959Y65075D01*
X110951Y65077D01*
X110933Y65079D01*
X110912Y65082D01*
X110888Y65084D01*
X110862Y65085D01*
D02*
G37*
%LPD*%
D29*
X110223Y62943D02*
Y66343D01*
X111773D01*
Y62943D02*
Y66343D01*
X110223Y62943D02*
X111773D01*
%TF.MD5,1bd4d1fa3f34eb9e6c884ba2d167345c*%
M02*
