%TF.GenerationSoftware,Altium Limited,Altium Designer,21.6.4 (81)*%
G04 Layer_Color=65535*
%FSLAX43Y43*%
%MOMM*%
%TF.SameCoordinates,BB623FD5-15CF-465E-8253-C79D4636FD98*%
%TF.FilePolarity,Positive*%
%TF.FileFunction,Legend,Top*%
%TF.Part,Single*%
G01*
G75*
%TA.AperFunction,NonConductor*%
%ADD27C,0.250*%
%ADD28C,0.254*%
%ADD29C,0.200*%
%ADD30C,0.154*%
%ADD31R,4.318X3.175*%
%ADD32R,0.900X0.600*%
D27*
X103913Y66250D02*
G03*
X103913Y66250I-125J0D01*
G01*
X111098Y62493D02*
G03*
X111098Y62493I-125J0D01*
G01*
X103855Y57962D02*
G03*
X103855Y57962I-125J0D01*
G01*
D28*
X108135Y66548D02*
Y68199D01*
X106865Y66548D02*
Y68199D01*
X105341D02*
Y72771D01*
X109659Y68199D02*
Y72771D01*
X105341D02*
X109659D01*
X105341Y68199D02*
X109659D01*
X104044Y53975D02*
Y55499D01*
X104806D01*
X105060Y55245D01*
Y54737D01*
X104806Y54483D01*
X104044D01*
X105568Y53975D02*
X106076D01*
X105822D01*
Y55499D01*
X105568Y55245D01*
D29*
X107061Y62738D02*
X110109D01*
Y64262D01*
X107061Y62738D02*
Y64262D01*
X110109D01*
X104265Y64882D02*
Y64947D01*
Y64882D02*
X105965D01*
Y64947D01*
X104265Y66117D02*
Y66182D01*
X105965D01*
Y66117D02*
Y66182D01*
X110323Y64518D02*
Y64768D01*
X111673Y64518D02*
Y64768D01*
X111580Y52912D02*
Y56287D01*
X103620D02*
X111580D01*
X103620Y52912D02*
Y56287D01*
X104740Y44637D02*
X110460D01*
X103620Y52912D02*
X104740D01*
X110460D02*
X111580D01*
X104740Y44637D02*
Y52912D01*
X110460Y44637D02*
Y52912D01*
X103632Y64389D02*
X106680D01*
X103632Y62865D02*
Y64389D01*
X106680Y62865D02*
Y64389D01*
X103632Y62865D02*
X106680D01*
X107045Y64770D02*
X110093D01*
Y66294D01*
X107045Y64770D02*
Y66294D01*
X110093D01*
X104569Y59033D02*
Y59433D01*
X110569Y59033D02*
Y59433D01*
X104569Y62233D02*
Y62633D01*
Y59033D02*
X110569D01*
Y62233D02*
Y62633D01*
X104569D02*
X110569D01*
D30*
X107341Y69223D02*
Y68786D01*
X107429Y68699D01*
X107603D01*
X107690Y68786D01*
Y69223D01*
X107865Y68699D02*
X108040D01*
X107952D01*
Y69223D01*
X107865Y69136D01*
X108148Y63238D02*
Y63762D01*
X108410D01*
X108498Y63675D01*
Y63500D01*
X108410Y63413D01*
X108148D01*
X108323D02*
X108498Y63238D01*
X109022D02*
X108672D01*
X109022Y63587D01*
Y63675D01*
X108934Y63762D01*
X108760D01*
X108672Y63675D01*
X104807Y65794D02*
X105156D01*
Y65707D01*
X104807Y65357D01*
Y65270D01*
X105156D01*
X105331D02*
X105505D01*
X105418D01*
Y65794D01*
X105331Y65707D01*
X108236Y65270D02*
Y65794D01*
X108498D01*
X108585Y65707D01*
Y65532D01*
X108498Y65445D01*
X108236D01*
X108410D02*
X108585Y65270D01*
X108760D02*
X108934D01*
X108847D01*
Y65794D01*
X108760Y65707D01*
X110736Y64294D02*
X111260D01*
Y64556D01*
X111173Y64643D01*
X110823D01*
X110736Y64556D01*
Y64294D01*
X111260Y64818D02*
Y64992D01*
Y64905D01*
X110736D01*
X110823Y64818D01*
X107569Y60754D02*
X107482Y60841D01*
X107307D01*
X107220Y60754D01*
Y60404D01*
X107307Y60317D01*
X107482D01*
X107569Y60404D01*
X107744Y60317D02*
X107918D01*
X107831D01*
Y60841D01*
X107744Y60754D01*
X105069Y63802D02*
X104981Y63889D01*
X104807D01*
X104719Y63802D01*
Y63452D01*
X104807Y63365D01*
X104981D01*
X105069Y63452D01*
X105593Y63365D02*
X105243D01*
X105593Y63714D01*
Y63802D01*
X105505Y63889D01*
X105331D01*
X105243Y63802D01*
D31*
X107500Y71184D02*
D03*
D32*
X110919Y62433D02*
D03*
Y59233D02*
D03*
%TF.MD5,3f227df5fb57590858d1b995fe2455f5*%
M02*
